G04 #@! TF.FileFunction,Soldermask,Top*
%FSLAX46Y46*%
G04 Gerber Fmt 4.6, Leading zero omitted, Abs format (unit mm)*
G04 Created by KiCad (PCBNEW (2015-08-16 BZR 6097, Git b384c94)-product) date 05/01/2016 15:12:39*
%MOMM*%
G01*
G04 APERTURE LIST*
%ADD10C,0.100000*%
%ADD11R,2.152400X2.152400*%
%ADD12R,1.752600X2.352040*%
%ADD13R,1.402400X0.752400*%
%ADD14R,1.052400X1.352400*%
%ADD15C,2.500000*%
%ADD16R,0.852400X0.402400*%
%ADD17R,0.402400X0.852400*%
%ADD18R,1.877400X1.877400*%
%ADD19R,1.352400X0.902400*%
%ADD20R,0.902400X1.352400*%
%ADD21R,1.352400X1.052400*%
%ADD22R,0.502400X0.332400*%
%ADD23R,0.452400X1.652400*%
%ADD24R,2.052400X1.252400*%
%ADD25R,1.202400X0.802400*%
%ADD26R,1.879600X2.184400*%
%ADD27R,1.750000X0.800000*%
%ADD28C,2.550000*%
%ADD29R,1.400000X1.750000*%
G04 APERTURE END LIST*
D10*
D11*
X185420000Y-78740000D03*
X187325000Y-78740000D03*
D12*
X165354000Y-92433140D03*
X165354000Y-89430860D03*
X163576000Y-80032860D03*
X163576000Y-83035140D03*
D13*
X163548000Y-84648000D03*
X163548000Y-85598000D03*
X163548000Y-86548000D03*
X160048000Y-86548000D03*
X160048000Y-85598000D03*
X160048000Y-84648000D03*
D14*
X160909000Y-83015000D03*
X160909000Y-80815000D03*
D15*
X182753000Y-78867000D03*
D14*
X154559000Y-78910000D03*
X154559000Y-81110000D03*
D16*
X176670500Y-87501500D03*
X176670500Y-87001500D03*
X176670500Y-86501500D03*
X176670500Y-86001500D03*
X176670500Y-85501500D03*
X176670500Y-85001500D03*
X176670500Y-84501500D03*
X176670500Y-84001500D03*
D17*
X176020500Y-83351500D03*
X175520500Y-83351500D03*
X175020500Y-83351500D03*
X174520500Y-83351500D03*
X174020500Y-83351500D03*
X173520500Y-83351500D03*
X173020500Y-83351500D03*
X172520500Y-83351500D03*
D16*
X171870500Y-84001500D03*
X171870500Y-84501500D03*
X171870500Y-85001500D03*
X171870500Y-85501500D03*
X171870500Y-86001500D03*
X171870500Y-86501500D03*
X171870500Y-87001500D03*
X171870500Y-87501500D03*
D17*
X172520500Y-88151500D03*
X173020500Y-88151500D03*
X173520500Y-88151500D03*
X174020500Y-88151500D03*
X174520500Y-88151500D03*
X175020500Y-88151500D03*
X175520500Y-88151500D03*
X176020500Y-88151500D03*
D18*
X173408000Y-84889000D03*
X173408000Y-86614000D03*
X175133000Y-84889000D03*
X175133000Y-86614000D03*
D19*
X175194000Y-90551000D03*
X173294000Y-90551000D03*
D10*
G36*
X159740800Y-89390800D02*
X163093200Y-89390800D01*
X163093200Y-91343200D01*
X159740800Y-91343200D01*
X159740800Y-89390800D01*
X159740800Y-89390800D01*
G37*
G36*
X159740800Y-91790800D02*
X163093200Y-91790800D01*
X163093200Y-93743200D01*
X159740800Y-93743200D01*
X159740800Y-91790800D01*
X159740800Y-91790800D01*
G37*
D19*
X158364000Y-81597500D03*
X156464000Y-81597500D03*
X181803000Y-88519000D03*
X183703000Y-88519000D03*
X181803000Y-86042500D03*
X183703000Y-86042500D03*
X177988000Y-81915000D03*
X176088000Y-81915000D03*
X175194000Y-92075000D03*
X173294000Y-92075000D03*
D20*
X177101500Y-90426500D03*
X177101500Y-92326500D03*
D21*
X162476000Y-94589600D03*
X164676000Y-94589600D03*
X173144000Y-93662500D03*
X175344000Y-93662500D03*
D14*
X178689000Y-90213000D03*
X178689000Y-92413000D03*
D20*
X158750000Y-90678000D03*
X158750000Y-92578000D03*
X154749500Y-91633000D03*
X154749500Y-93533000D03*
D21*
X166506800Y-94589600D03*
X168706800Y-94589600D03*
D22*
X157243000Y-91967000D03*
X157243000Y-91567000D03*
X157243000Y-91167000D03*
X156193000Y-91167000D03*
X156193000Y-91567000D03*
X156193000Y-91967000D03*
D23*
X156718000Y-91567000D03*
D15*
X156718000Y-94107000D03*
X156718000Y-78867000D03*
D24*
X179705000Y-88499000D03*
X179705000Y-85999000D03*
D25*
X180534000Y-93658000D03*
X185734000Y-93658000D03*
X185734000Y-91508000D03*
X180534000Y-91508000D03*
D26*
X185420000Y-98425000D03*
X182880000Y-98425000D03*
X180340000Y-98425000D03*
X177800000Y-98425000D03*
X175260000Y-98425000D03*
X172720000Y-98425000D03*
X170180000Y-98425000D03*
X167640000Y-98425000D03*
X165100000Y-98425000D03*
X162560000Y-98425000D03*
X160020000Y-98425000D03*
X157480000Y-98425000D03*
X154940000Y-98425000D03*
X154940000Y-96520000D03*
X157480000Y-96520000D03*
X160020000Y-96520000D03*
X162560000Y-96520000D03*
X165100000Y-96520000D03*
X167640000Y-96520000D03*
X170180000Y-96520000D03*
X172720000Y-96520000D03*
X175260000Y-96520000D03*
X177800000Y-96520000D03*
X180340000Y-96520000D03*
X182880000Y-96520000D03*
X185420000Y-96520000D03*
X154940000Y-74295000D03*
X157480000Y-74295000D03*
X160020000Y-74295000D03*
X162560000Y-74295000D03*
X165100000Y-74295000D03*
X167640000Y-74295000D03*
X170180000Y-74295000D03*
X172720000Y-74295000D03*
X175260000Y-74295000D03*
X177800000Y-74295000D03*
X180340000Y-74295000D03*
X182880000Y-74295000D03*
X185420000Y-74295000D03*
X185420000Y-76200000D03*
X182880000Y-76200000D03*
X180340000Y-76200000D03*
X177800000Y-76200000D03*
X175260000Y-76200000D03*
X172720000Y-76200000D03*
X170180000Y-76200000D03*
X167640000Y-76200000D03*
X165100000Y-76200000D03*
X162560000Y-76200000D03*
X160020000Y-76200000D03*
X157480000Y-76200000D03*
X154940000Y-76200000D03*
D27*
X157538800Y-85060000D03*
X157538800Y-85710000D03*
X157538800Y-86360000D03*
X157538800Y-87010000D03*
X157538800Y-87660000D03*
D28*
X154863800Y-83135000D03*
X154863800Y-89585000D03*
D29*
X157113800Y-89560000D03*
X157113800Y-83160000D03*
M02*
