G04 #@! TF.FileFunction,Legend,Top*
%FSLAX46Y46*%
G04 Gerber Fmt 4.6, Leading zero omitted, Abs format (unit mm)*
G04 Created by KiCad (PCBNEW (2015-08-16 BZR 6097, Git b384c94)-product) date 04/01/2016 18:02:35*
%MOMM*%
G01*
G04 APERTURE LIST*
%ADD10C,0.100000*%
%ADD11C,0.150000*%
%ADD12C,0.050000*%
G04 APERTURE END LIST*
D10*
D11*
X164454000Y-90182000D02*
X163704000Y-90182000D01*
X166904000Y-89282000D02*
X166904000Y-90182000D01*
X166854000Y-89282000D02*
X166904000Y-89282000D01*
X166854000Y-90182000D02*
X166854000Y-89282000D01*
X166754000Y-90182000D02*
X166854000Y-90182000D01*
X166754000Y-89282000D02*
X166754000Y-90182000D01*
X166654000Y-89282000D02*
X166754000Y-89282000D01*
X166654000Y-90182000D02*
X166654000Y-89282000D01*
X166554000Y-90182000D02*
X166654000Y-90182000D01*
X166554000Y-89282000D02*
X166554000Y-90182000D01*
X166454000Y-89282000D02*
X166554000Y-89282000D01*
X166454000Y-90182000D02*
X166454000Y-89282000D01*
X166404000Y-90182000D02*
X166454000Y-90182000D01*
X166354000Y-90182000D02*
X166454000Y-90182000D01*
X166354000Y-89282000D02*
X166354000Y-90182000D01*
X163804000Y-89282000D02*
X163804000Y-90182000D01*
X163904000Y-89282000D02*
X163804000Y-89282000D01*
X163904000Y-90182000D02*
X163904000Y-89282000D01*
X164004000Y-90182000D02*
X163904000Y-90182000D01*
X164004000Y-89282000D02*
X164004000Y-90182000D01*
X164104000Y-89282000D02*
X164004000Y-89282000D01*
X164104000Y-90182000D02*
X164104000Y-89282000D01*
X164204000Y-90182000D02*
X164104000Y-90182000D01*
X164204000Y-89282000D02*
X164204000Y-90182000D01*
X164304000Y-89282000D02*
X164204000Y-89282000D01*
X164304000Y-90182000D02*
X164304000Y-89282000D01*
X164404000Y-90182000D02*
X164304000Y-90182000D01*
X164404000Y-89282000D02*
X164404000Y-90182000D01*
X166304000Y-90182000D02*
X166304000Y-89282000D01*
X166954000Y-90182000D02*
X166254000Y-90182000D01*
X164454000Y-89732000D02*
G75*
G03X164454000Y-92132000I900000J-1200000D01*
G01*
X166254000Y-92132000D02*
G75*
G03X166254000Y-89732000I-900000J1200000D01*
G01*
X163704000Y-91832000D02*
X164454000Y-92582000D01*
X163704000Y-89282000D02*
X163704000Y-91832000D01*
X164454000Y-89282000D02*
X163704000Y-89282000D01*
X166254000Y-89282000D02*
X167004000Y-89282000D01*
X167004000Y-89282000D02*
X167004000Y-91832000D01*
X167004000Y-91832000D02*
X166254000Y-92582000D01*
X163703000Y-89281000D02*
X163703000Y-91821000D01*
X163703000Y-91821000D02*
X164465000Y-92583000D01*
X166243000Y-92583000D02*
X167005000Y-91821000D01*
X164476000Y-82284000D02*
X165226000Y-82284000D01*
X162026000Y-83184000D02*
X162026000Y-82284000D01*
X162076000Y-83184000D02*
X162026000Y-83184000D01*
X162076000Y-82284000D02*
X162076000Y-83184000D01*
X162176000Y-82284000D02*
X162076000Y-82284000D01*
X162176000Y-83184000D02*
X162176000Y-82284000D01*
X162276000Y-83184000D02*
X162176000Y-83184000D01*
X162276000Y-82284000D02*
X162276000Y-83184000D01*
X162376000Y-82284000D02*
X162276000Y-82284000D01*
X162376000Y-83184000D02*
X162376000Y-82284000D01*
X162476000Y-83184000D02*
X162376000Y-83184000D01*
X162476000Y-82284000D02*
X162476000Y-83184000D01*
X162526000Y-82284000D02*
X162476000Y-82284000D01*
X162576000Y-82284000D02*
X162476000Y-82284000D01*
X162576000Y-83184000D02*
X162576000Y-82284000D01*
X165126000Y-83184000D02*
X165126000Y-82284000D01*
X165026000Y-83184000D02*
X165126000Y-83184000D01*
X165026000Y-82284000D02*
X165026000Y-83184000D01*
X164926000Y-82284000D02*
X165026000Y-82284000D01*
X164926000Y-83184000D02*
X164926000Y-82284000D01*
X164826000Y-83184000D02*
X164926000Y-83184000D01*
X164826000Y-82284000D02*
X164826000Y-83184000D01*
X164726000Y-82284000D02*
X164826000Y-82284000D01*
X164726000Y-83184000D02*
X164726000Y-82284000D01*
X164626000Y-83184000D02*
X164726000Y-83184000D01*
X164626000Y-82284000D02*
X164626000Y-83184000D01*
X164526000Y-82284000D02*
X164626000Y-82284000D01*
X164526000Y-83184000D02*
X164526000Y-82284000D01*
X162626000Y-82284000D02*
X162626000Y-83184000D01*
X161976000Y-82284000D02*
X162676000Y-82284000D01*
X164476000Y-82734000D02*
G75*
G03X164476000Y-80334000I-900000J1200000D01*
G01*
X162676000Y-80334000D02*
G75*
G03X162676000Y-82734000I900000J-1200000D01*
G01*
X165226000Y-80634000D02*
X164476000Y-79884000D01*
X165226000Y-83184000D02*
X165226000Y-80634000D01*
X164476000Y-83184000D02*
X165226000Y-83184000D01*
X162676000Y-83184000D02*
X161926000Y-83184000D01*
X161926000Y-83184000D02*
X161926000Y-80634000D01*
X161926000Y-80634000D02*
X162676000Y-79884000D01*
X165227000Y-83185000D02*
X165227000Y-80645000D01*
X165227000Y-80645000D02*
X164465000Y-79883000D01*
X162687000Y-79883000D02*
X161925000Y-80645000D01*
X161048000Y-84098000D02*
X162548000Y-84098000D01*
X162548000Y-84098000D02*
X162548000Y-87098000D01*
X162548000Y-87098000D02*
X161048000Y-87098000D01*
X161048000Y-87098000D02*
X161048000Y-84098000D01*
X161584000Y-81415000D02*
X161584000Y-82415000D01*
X160234000Y-82415000D02*
X160234000Y-81415000D01*
X153884000Y-80510000D02*
X153884000Y-79510000D01*
X155234000Y-79510000D02*
X155234000Y-80510000D01*
X171645500Y-88376500D02*
X171645500Y-87851500D01*
X176895500Y-83126500D02*
X176895500Y-83651500D01*
X171645500Y-83126500D02*
X171645500Y-83651500D01*
X176895500Y-88376500D02*
X176370500Y-88376500D01*
X176895500Y-83126500D02*
X176370500Y-83126500D01*
X171645500Y-83126500D02*
X172170500Y-83126500D01*
X171645500Y-88376500D02*
X172170500Y-88376500D01*
X174594000Y-91151000D02*
X173894000Y-91151000D01*
X173894000Y-89951000D02*
X174594000Y-89951000D01*
X159617000Y-89467000D02*
X159617000Y-93667000D01*
X163217000Y-89467000D02*
X163217000Y-93667000D01*
X158211000Y-82769000D02*
X157511000Y-82769000D01*
X157511000Y-81569000D02*
X158211000Y-81569000D01*
X182403000Y-87919000D02*
X183103000Y-87919000D01*
X183103000Y-89119000D02*
X182403000Y-89119000D01*
X182403000Y-85442500D02*
X183103000Y-85442500D01*
X183103000Y-86642500D02*
X182403000Y-86642500D01*
X177388000Y-82515000D02*
X176688000Y-82515000D01*
X176688000Y-81315000D02*
X177388000Y-81315000D01*
X174594000Y-92675000D02*
X173894000Y-92675000D01*
X173894000Y-91475000D02*
X174594000Y-91475000D01*
X177701500Y-91026500D02*
X177701500Y-91726500D01*
X176501500Y-91726500D02*
X176501500Y-91026500D01*
X164076000Y-95264600D02*
X163076000Y-95264600D01*
X163076000Y-93914600D02*
X164076000Y-93914600D01*
X174744000Y-94337500D02*
X173744000Y-94337500D01*
X173744000Y-92987500D02*
X174744000Y-92987500D01*
X178014000Y-91813000D02*
X178014000Y-90813000D01*
X179364000Y-90813000D02*
X179364000Y-91813000D01*
X159350000Y-91278000D02*
X159350000Y-91978000D01*
X158150000Y-91978000D02*
X158150000Y-91278000D01*
X155349500Y-92233000D02*
X155349500Y-92933000D01*
X154149500Y-92933000D02*
X154149500Y-92233000D01*
D10*
X167906800Y-94089600D02*
X167906800Y-95089600D01*
X167306800Y-94089600D02*
X167306800Y-95089600D01*
X167306800Y-95089600D02*
X167806800Y-94589600D01*
X167806800Y-94589600D02*
X167306800Y-94089600D01*
X165706800Y-95289600D02*
X169506800Y-95289600D01*
X169506800Y-93889600D02*
X165706800Y-93889600D01*
D12*
X157818000Y-91067000D02*
X157818000Y-91267000D01*
X157618000Y-91167000D02*
X157818000Y-91067000D01*
X157818000Y-91267000D02*
X157618000Y-91167000D01*
X157318000Y-90967000D02*
X156118000Y-90967000D01*
X157318000Y-92167000D02*
X156118000Y-92167000D01*
D11*
X178955000Y-87799000D02*
X178955000Y-86699000D01*
X180455000Y-87799000D02*
X180455000Y-86699000D01*
X183534000Y-91483000D02*
X182734000Y-91483000D01*
X183534000Y-93683000D02*
X182734000Y-93683000D01*
X181634000Y-92583000D02*
G75*
G03X182734000Y-93683000I1100000J0D01*
G01*
X182734000Y-91483000D02*
G75*
G03X181634000Y-92583000I0J-1100000D01*
G01*
X184634000Y-92583000D02*
G75*
G03X183534000Y-91483000I-1100000J0D01*
G01*
X183534000Y-93683000D02*
G75*
G03X184634000Y-92583000I0J1100000D01*
G01*
X180934000Y-91983000D02*
X180934000Y-93183000D01*
X185334000Y-91983000D02*
X185334000Y-93183000D01*
X185334000Y-94183000D02*
X180934000Y-94183000D01*
X180934000Y-90983000D02*
X185334000Y-90983000D01*
X167854334Y-91289143D02*
X167806715Y-91336762D01*
X167663858Y-91384381D01*
X167568620Y-91384381D01*
X167425762Y-91336762D01*
X167330524Y-91241524D01*
X167282905Y-91146286D01*
X167235286Y-90955810D01*
X167235286Y-90812952D01*
X167282905Y-90622476D01*
X167330524Y-90527238D01*
X167425762Y-90432000D01*
X167568620Y-90384381D01*
X167663858Y-90384381D01*
X167806715Y-90432000D01*
X167854334Y-90479619D01*
X168711477Y-90717714D02*
X168711477Y-91384381D01*
X168473381Y-90336762D02*
X168235286Y-91051048D01*
X168854334Y-91051048D01*
X166076334Y-81891143D02*
X166028715Y-81938762D01*
X165885858Y-81986381D01*
X165790620Y-81986381D01*
X165647762Y-81938762D01*
X165552524Y-81843524D01*
X165504905Y-81748286D01*
X165457286Y-81557810D01*
X165457286Y-81414952D01*
X165504905Y-81224476D01*
X165552524Y-81129238D01*
X165647762Y-81034000D01*
X165790620Y-80986381D01*
X165885858Y-80986381D01*
X166028715Y-81034000D01*
X166076334Y-81081619D01*
X166409667Y-80986381D02*
X167028715Y-80986381D01*
X166695381Y-81367333D01*
X166838239Y-81367333D01*
X166933477Y-81414952D01*
X166981096Y-81462571D01*
X167028715Y-81557810D01*
X167028715Y-81795905D01*
X166981096Y-81891143D01*
X166933477Y-81938762D01*
X166838239Y-81986381D01*
X166552524Y-81986381D01*
X166457286Y-81938762D01*
X166409667Y-81891143D01*
X161250381Y-86359905D02*
X162059905Y-86359905D01*
X162155143Y-86312286D01*
X162202762Y-86264667D01*
X162250381Y-86169429D01*
X162250381Y-85978952D01*
X162202762Y-85883714D01*
X162155143Y-85836095D01*
X162059905Y-85788476D01*
X161250381Y-85788476D01*
X161345619Y-85359905D02*
X161298000Y-85312286D01*
X161250381Y-85217048D01*
X161250381Y-84978952D01*
X161298000Y-84883714D01*
X161345619Y-84836095D01*
X161440857Y-84788476D01*
X161536095Y-84788476D01*
X161678952Y-84836095D01*
X162250381Y-85407524D01*
X162250381Y-84788476D01*
X160742334Y-80017881D02*
X160266143Y-80017881D01*
X160266143Y-79017881D01*
X161599477Y-80017881D02*
X161028048Y-80017881D01*
X161313762Y-80017881D02*
X161313762Y-79017881D01*
X161218524Y-79160738D01*
X161123286Y-79255976D01*
X161028048Y-79303595D01*
X156106834Y-81287881D02*
X155773500Y-80811690D01*
X155535405Y-81287881D02*
X155535405Y-80287881D01*
X155916358Y-80287881D01*
X156011596Y-80335500D01*
X156059215Y-80383119D01*
X156106834Y-80478357D01*
X156106834Y-80621214D01*
X156059215Y-80716452D01*
X156011596Y-80764071D01*
X155916358Y-80811690D01*
X155535405Y-80811690D01*
X157059215Y-81287881D02*
X156487786Y-81287881D01*
X156773500Y-81287881D02*
X156773500Y-80287881D01*
X156678262Y-80430738D01*
X156583024Y-80525976D01*
X156487786Y-80573595D01*
X170688095Y-81875381D02*
X170688095Y-82684905D01*
X170735714Y-82780143D01*
X170783333Y-82827762D01*
X170878571Y-82875381D01*
X171069048Y-82875381D01*
X171164286Y-82827762D01*
X171211905Y-82780143D01*
X171259524Y-82684905D01*
X171259524Y-81875381D01*
X171640476Y-81875381D02*
X172259524Y-81875381D01*
X171926190Y-82256333D01*
X172069048Y-82256333D01*
X172164286Y-82303952D01*
X172211905Y-82351571D01*
X172259524Y-82446810D01*
X172259524Y-82684905D01*
X172211905Y-82780143D01*
X172164286Y-82827762D01*
X172069048Y-82875381D01*
X171783333Y-82875381D01*
X171688095Y-82827762D01*
X171640476Y-82780143D01*
X174077334Y-89638143D02*
X174029715Y-89685762D01*
X173886858Y-89733381D01*
X173791620Y-89733381D01*
X173648762Y-89685762D01*
X173553524Y-89590524D01*
X173505905Y-89495286D01*
X173458286Y-89304810D01*
X173458286Y-89161952D01*
X173505905Y-88971476D01*
X173553524Y-88876238D01*
X173648762Y-88781000D01*
X173791620Y-88733381D01*
X173886858Y-88733381D01*
X174029715Y-88781000D01*
X174077334Y-88828619D01*
X174553524Y-89733381D02*
X174744000Y-89733381D01*
X174839239Y-89685762D01*
X174886858Y-89638143D01*
X174982096Y-89495286D01*
X175029715Y-89304810D01*
X175029715Y-88923857D01*
X174982096Y-88828619D01*
X174934477Y-88781000D01*
X174839239Y-88733381D01*
X174648762Y-88733381D01*
X174553524Y-88781000D01*
X174505905Y-88828619D01*
X174458286Y-88923857D01*
X174458286Y-89161952D01*
X174505905Y-89257190D01*
X174553524Y-89304810D01*
X174648762Y-89352429D01*
X174839239Y-89352429D01*
X174934477Y-89304810D01*
X174982096Y-89257190D01*
X175029715Y-89161952D01*
X161250334Y-88717381D02*
X160774143Y-88717381D01*
X160774143Y-87717381D01*
X161536048Y-87812619D02*
X161583667Y-87765000D01*
X161678905Y-87717381D01*
X161917001Y-87717381D01*
X162012239Y-87765000D01*
X162059858Y-87812619D01*
X162107477Y-87907857D01*
X162107477Y-88003095D01*
X162059858Y-88145952D01*
X161488429Y-88717381D01*
X162107477Y-88717381D01*
X158646834Y-81192643D02*
X158599215Y-81240262D01*
X158456358Y-81287881D01*
X158361120Y-81287881D01*
X158218262Y-81240262D01*
X158123024Y-81145024D01*
X158075405Y-81049786D01*
X158027786Y-80859310D01*
X158027786Y-80716452D01*
X158075405Y-80525976D01*
X158123024Y-80430738D01*
X158218262Y-80335500D01*
X158361120Y-80287881D01*
X158456358Y-80287881D01*
X158599215Y-80335500D01*
X158646834Y-80383119D01*
X159551596Y-80287881D02*
X159075405Y-80287881D01*
X159027786Y-80764071D01*
X159075405Y-80716452D01*
X159170643Y-80668833D01*
X159408739Y-80668833D01*
X159503977Y-80716452D01*
X159551596Y-80764071D01*
X159599215Y-80859310D01*
X159599215Y-81097405D01*
X159551596Y-81192643D01*
X159503977Y-81240262D01*
X159408739Y-81287881D01*
X159170643Y-81287881D01*
X159075405Y-81240262D01*
X159027786Y-81192643D01*
X182586334Y-90209643D02*
X182538715Y-90257262D01*
X182395858Y-90304881D01*
X182300620Y-90304881D01*
X182157762Y-90257262D01*
X182062524Y-90162024D01*
X182014905Y-90066786D01*
X181967286Y-89876310D01*
X181967286Y-89733452D01*
X182014905Y-89542976D01*
X182062524Y-89447738D01*
X182157762Y-89352500D01*
X182300620Y-89304881D01*
X182395858Y-89304881D01*
X182538715Y-89352500D01*
X182586334Y-89400119D01*
X183443477Y-89304881D02*
X183253000Y-89304881D01*
X183157762Y-89352500D01*
X183110143Y-89400119D01*
X183014905Y-89542976D01*
X182967286Y-89733452D01*
X182967286Y-90114405D01*
X183014905Y-90209643D01*
X183062524Y-90257262D01*
X183157762Y-90304881D01*
X183348239Y-90304881D01*
X183443477Y-90257262D01*
X183491096Y-90209643D01*
X183538715Y-90114405D01*
X183538715Y-89876310D01*
X183491096Y-89781071D01*
X183443477Y-89733452D01*
X183348239Y-89685833D01*
X183157762Y-89685833D01*
X183062524Y-89733452D01*
X183014905Y-89781071D01*
X182967286Y-89876310D01*
X182586334Y-85129643D02*
X182538715Y-85177262D01*
X182395858Y-85224881D01*
X182300620Y-85224881D01*
X182157762Y-85177262D01*
X182062524Y-85082024D01*
X182014905Y-84986786D01*
X181967286Y-84796310D01*
X181967286Y-84653452D01*
X182014905Y-84462976D01*
X182062524Y-84367738D01*
X182157762Y-84272500D01*
X182300620Y-84224881D01*
X182395858Y-84224881D01*
X182538715Y-84272500D01*
X182586334Y-84320119D01*
X182919667Y-84224881D02*
X183586334Y-84224881D01*
X183157762Y-85224881D01*
X176871334Y-81002143D02*
X176823715Y-81049762D01*
X176680858Y-81097381D01*
X176585620Y-81097381D01*
X176442762Y-81049762D01*
X176347524Y-80954524D01*
X176299905Y-80859286D01*
X176252286Y-80668810D01*
X176252286Y-80525952D01*
X176299905Y-80335476D01*
X176347524Y-80240238D01*
X176442762Y-80145000D01*
X176585620Y-80097381D01*
X176680858Y-80097381D01*
X176823715Y-80145000D01*
X176871334Y-80192619D01*
X177442762Y-80525952D02*
X177347524Y-80478333D01*
X177299905Y-80430714D01*
X177252286Y-80335476D01*
X177252286Y-80287857D01*
X177299905Y-80192619D01*
X177347524Y-80145000D01*
X177442762Y-80097381D01*
X177633239Y-80097381D01*
X177728477Y-80145000D01*
X177776096Y-80192619D01*
X177823715Y-80287857D01*
X177823715Y-80335476D01*
X177776096Y-80430714D01*
X177728477Y-80478333D01*
X177633239Y-80525952D01*
X177442762Y-80525952D01*
X177347524Y-80573571D01*
X177299905Y-80621190D01*
X177252286Y-80716429D01*
X177252286Y-80906905D01*
X177299905Y-81002143D01*
X177347524Y-81049762D01*
X177442762Y-81097381D01*
X177633239Y-81097381D01*
X177728477Y-81049762D01*
X177776096Y-81002143D01*
X177823715Y-80906905D01*
X177823715Y-80716429D01*
X177776096Y-80621190D01*
X177728477Y-80573571D01*
X177633239Y-80525952D01*
X170616643Y-92432143D02*
X170569024Y-92479762D01*
X170426167Y-92527381D01*
X170330929Y-92527381D01*
X170188071Y-92479762D01*
X170092833Y-92384524D01*
X170045214Y-92289286D01*
X169997595Y-92098810D01*
X169997595Y-91955952D01*
X170045214Y-91765476D01*
X170092833Y-91670238D01*
X170188071Y-91575000D01*
X170330929Y-91527381D01*
X170426167Y-91527381D01*
X170569024Y-91575000D01*
X170616643Y-91622619D01*
X171569024Y-92527381D02*
X170997595Y-92527381D01*
X171283309Y-92527381D02*
X171283309Y-91527381D01*
X171188071Y-91670238D01*
X171092833Y-91765476D01*
X170997595Y-91813095D01*
X172188071Y-91527381D02*
X172283310Y-91527381D01*
X172378548Y-91575000D01*
X172426167Y-91622619D01*
X172473786Y-91717857D01*
X172521405Y-91908333D01*
X172521405Y-92146429D01*
X172473786Y-92336905D01*
X172426167Y-92432143D01*
X172378548Y-92479762D01*
X172283310Y-92527381D01*
X172188071Y-92527381D01*
X172092833Y-92479762D01*
X172045214Y-92432143D01*
X171997595Y-92336905D01*
X171949976Y-92146429D01*
X171949976Y-91908333D01*
X171997595Y-91717857D01*
X172045214Y-91622619D01*
X172092833Y-91575000D01*
X172188071Y-91527381D01*
X177458643Y-94813357D02*
X177506262Y-94860976D01*
X177553881Y-95003833D01*
X177553881Y-95099071D01*
X177506262Y-95241929D01*
X177411024Y-95337167D01*
X177315786Y-95384786D01*
X177125310Y-95432405D01*
X176982452Y-95432405D01*
X176791976Y-95384786D01*
X176696738Y-95337167D01*
X176601500Y-95241929D01*
X176553881Y-95099071D01*
X176553881Y-95003833D01*
X176601500Y-94860976D01*
X176649119Y-94813357D01*
X177553881Y-93860976D02*
X177553881Y-94432405D01*
X177553881Y-94146691D02*
X176553881Y-94146691D01*
X176696738Y-94241929D01*
X176791976Y-94337167D01*
X176839595Y-94432405D01*
X177553881Y-92908595D02*
X177553881Y-93480024D01*
X177553881Y-93194310D02*
X176553881Y-93194310D01*
X176696738Y-93289548D01*
X176791976Y-93384786D01*
X176839595Y-93480024D01*
X160699334Y-95041981D02*
X160366000Y-94565790D01*
X160127905Y-95041981D02*
X160127905Y-94041981D01*
X160508858Y-94041981D01*
X160604096Y-94089600D01*
X160651715Y-94137219D01*
X160699334Y-94232457D01*
X160699334Y-94375314D01*
X160651715Y-94470552D01*
X160604096Y-94518171D01*
X160508858Y-94565790D01*
X160127905Y-94565790D01*
X161080286Y-94137219D02*
X161127905Y-94089600D01*
X161223143Y-94041981D01*
X161461239Y-94041981D01*
X161556477Y-94089600D01*
X161604096Y-94137219D01*
X161651715Y-94232457D01*
X161651715Y-94327695D01*
X161604096Y-94470552D01*
X161032667Y-95041981D01*
X161651715Y-95041981D01*
X171346834Y-94114881D02*
X171013500Y-93638690D01*
X170775405Y-94114881D02*
X170775405Y-93114881D01*
X171156358Y-93114881D01*
X171251596Y-93162500D01*
X171299215Y-93210119D01*
X171346834Y-93305357D01*
X171346834Y-93448214D01*
X171299215Y-93543452D01*
X171251596Y-93591071D01*
X171156358Y-93638690D01*
X170775405Y-93638690D01*
X171680167Y-93114881D02*
X172299215Y-93114881D01*
X171965881Y-93495833D01*
X172108739Y-93495833D01*
X172203977Y-93543452D01*
X172251596Y-93591071D01*
X172299215Y-93686310D01*
X172299215Y-93924405D01*
X172251596Y-94019643D01*
X172203977Y-94067262D01*
X172108739Y-94114881D01*
X171823024Y-94114881D01*
X171727786Y-94067262D01*
X171680167Y-94019643D01*
X179141381Y-94210166D02*
X178665190Y-94543500D01*
X179141381Y-94781595D02*
X178141381Y-94781595D01*
X178141381Y-94400642D01*
X178189000Y-94305404D01*
X178236619Y-94257785D01*
X178331857Y-94210166D01*
X178474714Y-94210166D01*
X178569952Y-94257785D01*
X178617571Y-94305404D01*
X178665190Y-94400642D01*
X178665190Y-94781595D01*
X178474714Y-93353023D02*
X179141381Y-93353023D01*
X178093762Y-93591119D02*
X178808048Y-93829214D01*
X178808048Y-93210166D01*
X159297643Y-89193666D02*
X159345262Y-89241285D01*
X159392881Y-89384142D01*
X159392881Y-89479380D01*
X159345262Y-89622238D01*
X159250024Y-89717476D01*
X159154786Y-89765095D01*
X158964310Y-89812714D01*
X158821452Y-89812714D01*
X158630976Y-89765095D01*
X158535738Y-89717476D01*
X158440500Y-89622238D01*
X158392881Y-89479380D01*
X158392881Y-89384142D01*
X158440500Y-89241285D01*
X158488119Y-89193666D01*
X158488119Y-88812714D02*
X158440500Y-88765095D01*
X158392881Y-88669857D01*
X158392881Y-88431761D01*
X158440500Y-88336523D01*
X158488119Y-88288904D01*
X158583357Y-88241285D01*
X158678595Y-88241285D01*
X158821452Y-88288904D01*
X159392881Y-88860333D01*
X159392881Y-88241285D01*
X154582834Y-95162643D02*
X154535215Y-95210262D01*
X154392358Y-95257881D01*
X154297120Y-95257881D01*
X154154262Y-95210262D01*
X154059024Y-95115024D01*
X154011405Y-95019786D01*
X153963786Y-94829310D01*
X153963786Y-94686452D01*
X154011405Y-94495976D01*
X154059024Y-94400738D01*
X154154262Y-94305500D01*
X154297120Y-94257881D01*
X154392358Y-94257881D01*
X154535215Y-94305500D01*
X154582834Y-94353119D01*
X155535215Y-95257881D02*
X154963786Y-95257881D01*
X155249500Y-95257881D02*
X155249500Y-94257881D01*
X155154262Y-94400738D01*
X155059024Y-94495976D01*
X154963786Y-94543595D01*
X169599205Y-95041981D02*
X169599205Y-94041981D01*
X169837300Y-94041981D01*
X169980158Y-94089600D01*
X170075396Y-94184838D01*
X170123015Y-94280076D01*
X170170634Y-94470552D01*
X170170634Y-94613410D01*
X170123015Y-94803886D01*
X170075396Y-94899124D01*
X169980158Y-94994362D01*
X169837300Y-95041981D01*
X169599205Y-95041981D01*
X171123015Y-95041981D02*
X170551586Y-95041981D01*
X170837300Y-95041981D02*
X170837300Y-94041981D01*
X170742062Y-94184838D01*
X170646824Y-94280076D01*
X170551586Y-94327695D01*
X155956095Y-89749381D02*
X155956095Y-90558905D01*
X156003714Y-90654143D01*
X156051333Y-90701762D01*
X156146571Y-90749381D01*
X156337048Y-90749381D01*
X156432286Y-90701762D01*
X156479905Y-90654143D01*
X156527524Y-90558905D01*
X156527524Y-89749381D01*
X157527524Y-90749381D02*
X156956095Y-90749381D01*
X157241809Y-90749381D02*
X157241809Y-89749381D01*
X157146571Y-89892238D01*
X157051333Y-89987476D01*
X156956095Y-90035095D01*
X178958976Y-84224881D02*
X179625643Y-85224881D01*
X179625643Y-84224881D02*
X178958976Y-85224881D01*
X180530405Y-85224881D02*
X179958976Y-85224881D01*
X180244690Y-85224881D02*
X180244690Y-84224881D01*
X180149452Y-84367738D01*
X180054214Y-84462976D01*
X179958976Y-84510595D01*
X182372095Y-92987762D02*
X182514952Y-93035381D01*
X182753048Y-93035381D01*
X182848286Y-92987762D01*
X182895905Y-92940143D01*
X182943524Y-92844905D01*
X182943524Y-92749667D01*
X182895905Y-92654429D01*
X182848286Y-92606810D01*
X182753048Y-92559190D01*
X182562571Y-92511571D01*
X182467333Y-92463952D01*
X182419714Y-92416333D01*
X182372095Y-92321095D01*
X182372095Y-92225857D01*
X182419714Y-92130619D01*
X182467333Y-92083000D01*
X182562571Y-92035381D01*
X182800667Y-92035381D01*
X182943524Y-92083000D01*
X183895905Y-93035381D02*
X183324476Y-93035381D01*
X183610190Y-93035381D02*
X183610190Y-92035381D01*
X183514952Y-92178238D01*
X183419714Y-92273476D01*
X183324476Y-92321095D01*
M02*
