M48
METRIC,TZ
T1C0.330
T2C1.000
T3C1.016
T4C1.550
%
G90
G05
T1
X154813Y-91631
X156337Y-85201
X156718Y-92519
X160909Y-83629
X161417Y-89344
X162458Y-94590
X163576Y-80033
X169672Y-93653
X172440Y-88747
X172907Y-89214
X173294Y-90551
X173294Y-92075
X173374Y-89681
X173408Y-84889
X173408Y-86614
X175133Y-84889
X175133Y-86614
X176088Y-81915
X176589Y-88781
X176597Y-89441
X177165Y-93789
X178054Y-80455
X179451Y-93663
X182880Y-86804
X182880Y-87757
X183706Y-86804
X183706Y-87757
T2
X185420Y-78740
X187325Y-78740
T3
X154940Y-74295
X154940Y-76200
X154940Y-96520
X154940Y-98425
X157480Y-74295
X157480Y-76200
X157480Y-96520
X157480Y-98425
X160020Y-74295
X160020Y-76200
X160020Y-96520
X160020Y-98425
X162560Y-74295
X162560Y-76200
X162560Y-96520
X162560Y-98425
X165100Y-74295
X165100Y-76200
X165100Y-96520
X165100Y-98425
X167640Y-74295
X167640Y-76200
X167640Y-96520
X167640Y-98425
X170180Y-74295
X170180Y-76200
X170180Y-96520
X170180Y-98425
X172720Y-74295
X172720Y-76200
X172720Y-96520
X172720Y-98425
X175260Y-74295
X175260Y-76200
X175260Y-96520
X175260Y-98425
X177800Y-74295
X177800Y-76200
X177800Y-96520
X177800Y-98425
X180340Y-74295
X180340Y-76200
X180340Y-96520
X180340Y-98425
X182880Y-74295
X182880Y-76200
X182880Y-96520
X182880Y-98425
X185420Y-74295
X185420Y-76200
X185420Y-96520
X185420Y-98425
T4
X154864Y-83135
X154864Y-89585
T0
M30
