G04 #@! TF.FileFunction,Copper,L2,Bot,Signal*
%FSLAX46Y46*%
G04 Gerber Fmt 4.6, Leading zero omitted, Abs format (unit mm)*
G04 Created by KiCad (PCBNEW (2015-08-16 BZR 6097, Git b384c94)-product) date 04/01/2016 18:02:35*
%MOMM*%
G01*
G04 APERTURE LIST*
%ADD10C,0.100000*%
%ADD11R,2.000000X2.000000*%
%ADD12R,1.727200X2.032000*%
%ADD13O,1.727200X2.032000*%
%ADD14C,0.900000*%
%ADD15R,0.900000X0.400000*%
%ADD16C,0.584200*%
%ADD17C,0.508000*%
%ADD18C,0.304800*%
%ADD19C,0.152400*%
G04 APERTURE END LIST*
D10*
D11*
X185420000Y-78740000D03*
D12*
X185420000Y-76200000D03*
D13*
X182880000Y-76200000D03*
X180340000Y-76200000D03*
X177800000Y-76200000D03*
X175260000Y-76200000D03*
X172720000Y-76200000D03*
X170180000Y-76200000D03*
X167640000Y-76200000D03*
X165100000Y-76200000D03*
X162560000Y-76200000D03*
X160020000Y-76200000D03*
X157480000Y-76200000D03*
X154940000Y-76200000D03*
D12*
X154940000Y-96520000D03*
D13*
X157480000Y-96520000D03*
X160020000Y-96520000D03*
X162560000Y-96520000D03*
X165100000Y-96520000D03*
X167640000Y-96520000D03*
X170180000Y-96520000D03*
X172720000Y-96520000D03*
X175260000Y-96520000D03*
X177800000Y-96520000D03*
X180340000Y-96520000D03*
X182880000Y-96520000D03*
X185420000Y-96520000D03*
D14*
X154813000Y-86910000D03*
D15*
X154813000Y-86060000D03*
X154813000Y-86660000D03*
D14*
X154813000Y-85810000D03*
D16*
X179451000Y-93662500D03*
X177165000Y-93789500D03*
X173294000Y-92075000D03*
X173294000Y-90551000D03*
X176088000Y-81915000D03*
X182880000Y-87757000D03*
X182880000Y-86804500D03*
X183705500Y-87757000D03*
X183705500Y-86804500D03*
X156718000Y-90551000D03*
X156718000Y-92519500D03*
X159131000Y-87630000D03*
X156210000Y-87630000D03*
X175133000Y-86614000D03*
X175133000Y-84889000D03*
X173408000Y-84889000D03*
X173408000Y-86614000D03*
D17*
X169671597Y-93653490D03*
X172906888Y-89213888D03*
X176596978Y-89441291D03*
X176588984Y-88780938D03*
D16*
X178054000Y-80454500D03*
X163576000Y-80032860D03*
X160909000Y-83629500D03*
X161417000Y-89344500D03*
X156337000Y-85201200D03*
X154813000Y-90932000D03*
D17*
X162458400Y-94589600D03*
X173373862Y-89680862D03*
X172439914Y-88746914D03*
D18*
X183705500Y-86804500D02*
X183705500Y-87757000D01*
D19*
X169920017Y-93656517D02*
X169916990Y-93653490D01*
X169916990Y-93653490D02*
X169671597Y-93653490D01*
X171780190Y-91796344D02*
X169920017Y-93656517D01*
X172906888Y-89213888D02*
X172652889Y-89467887D01*
X172652889Y-89467887D02*
X172419547Y-89467887D01*
X172419547Y-89467887D02*
X171780190Y-90107244D01*
X171780190Y-90107244D02*
X171780190Y-91796344D01*
X176596978Y-89441291D02*
X176596978Y-92643022D01*
X176596978Y-92643022D02*
X174510690Y-94729310D01*
X174510690Y-94729310D02*
X171818290Y-94729310D01*
X171818290Y-94729310D02*
X170180000Y-96367600D01*
X170180000Y-96367600D02*
X170180000Y-96520000D01*
X172720000Y-96520000D02*
X172720000Y-96367600D01*
X172720000Y-96367600D02*
X173736000Y-95351600D01*
X173736000Y-95351600D02*
X174319466Y-95351600D01*
X174319466Y-95351600D02*
X177079579Y-92591487D01*
X177079579Y-89195579D02*
X176664938Y-88780938D01*
X177079579Y-92591487D02*
X177079579Y-89195579D01*
X176664938Y-88780938D02*
X176588984Y-88780938D01*
D18*
X178054000Y-80454500D02*
X183769000Y-80454500D01*
X183769000Y-80454500D02*
X185420000Y-78803500D01*
X185420000Y-78803500D02*
X185420000Y-78740000D01*
X177632360Y-80032860D02*
X178054000Y-80454500D01*
X163576000Y-80032860D02*
X177632360Y-80032860D01*
X161417000Y-84201000D02*
X160909000Y-83693000D01*
X160909000Y-83693000D02*
X160909000Y-83629500D01*
X161417000Y-89344500D02*
X161417000Y-84201000D01*
X156337000Y-85201200D02*
X155421800Y-85201200D01*
X155421800Y-85201200D02*
X154813000Y-85810000D01*
X154813000Y-93700600D02*
X154813000Y-90932000D01*
X157480000Y-96520000D02*
X157480000Y-96367600D01*
X157480000Y-96367600D02*
X154813000Y-93700600D01*
X154813000Y-86660000D02*
X154813000Y-90932000D01*
D19*
X162458400Y-94589600D02*
X165862000Y-94589600D01*
X165862000Y-94589600D02*
X167640000Y-96367600D01*
X167640000Y-96367600D02*
X167640000Y-96520000D01*
X172085000Y-91922600D02*
X172085000Y-90233500D01*
X167640000Y-96367600D02*
X172085000Y-91922600D01*
X172085000Y-90233500D02*
X172466000Y-89852500D01*
X172466000Y-89852500D02*
X173202224Y-89852500D01*
X173202224Y-89852500D02*
X173373862Y-89680862D01*
X162560000Y-96520000D02*
X162560000Y-96367600D01*
X168300400Y-94081600D02*
X169211111Y-93170889D01*
X169211111Y-93170889D02*
X169974579Y-93170889D01*
X162560000Y-96367600D02*
X161975799Y-95783399D01*
X161975799Y-95783399D02*
X161975799Y-94357951D01*
X161975799Y-94357951D02*
X162252150Y-94081600D01*
X162252150Y-94081600D02*
X168300400Y-94081600D01*
X169974579Y-93170889D02*
X171475380Y-91670088D01*
X171475380Y-91670088D02*
X171475380Y-89711448D01*
X171475380Y-89711448D02*
X172439914Y-88746914D01*
G36*
X154522033Y-75014156D02*
X154167698Y-75250915D01*
X153930939Y-75605250D01*
X153847800Y-76023217D01*
X153847800Y-76376783D01*
X153930939Y-76794750D01*
X154167698Y-77149085D01*
X154522033Y-77385844D01*
X154940000Y-77468983D01*
X155357967Y-77385844D01*
X155712302Y-77149085D01*
X155949061Y-76794750D01*
X156032200Y-76376783D01*
X156032200Y-76023217D01*
X155949061Y-75605250D01*
X155712302Y-75250915D01*
X155357967Y-75014156D01*
X155317970Y-75006200D01*
X157102030Y-75006200D01*
X157062033Y-75014156D01*
X156707698Y-75250915D01*
X156470939Y-75605250D01*
X156387800Y-76023217D01*
X156387800Y-76376783D01*
X156470939Y-76794750D01*
X156707698Y-77149085D01*
X157062033Y-77385844D01*
X157480000Y-77468983D01*
X157897967Y-77385844D01*
X158252302Y-77149085D01*
X158489061Y-76794750D01*
X158572200Y-76376783D01*
X158572200Y-76023217D01*
X158489061Y-75605250D01*
X158252302Y-75250915D01*
X157897967Y-75014156D01*
X157857970Y-75006200D01*
X159642030Y-75006200D01*
X159602033Y-75014156D01*
X159247698Y-75250915D01*
X159010939Y-75605250D01*
X158927800Y-76023217D01*
X158927800Y-76376783D01*
X159010939Y-76794750D01*
X159247698Y-77149085D01*
X159602033Y-77385844D01*
X160020000Y-77468983D01*
X160437967Y-77385844D01*
X160792302Y-77149085D01*
X161029061Y-76794750D01*
X161112200Y-76376783D01*
X161112200Y-76023217D01*
X161029061Y-75605250D01*
X160792302Y-75250915D01*
X160437967Y-75014156D01*
X160397970Y-75006200D01*
X162182030Y-75006200D01*
X162142033Y-75014156D01*
X161787698Y-75250915D01*
X161550939Y-75605250D01*
X161467800Y-76023217D01*
X161467800Y-76376783D01*
X161550939Y-76794750D01*
X161787698Y-77149085D01*
X162142033Y-77385844D01*
X162560000Y-77468983D01*
X162977967Y-77385844D01*
X163332302Y-77149085D01*
X163569061Y-76794750D01*
X163652200Y-76376783D01*
X163652200Y-76023217D01*
X163569061Y-75605250D01*
X163332302Y-75250915D01*
X162977967Y-75014156D01*
X162937970Y-75006200D01*
X164722030Y-75006200D01*
X164682033Y-75014156D01*
X164327698Y-75250915D01*
X164090939Y-75605250D01*
X164007800Y-76023217D01*
X164007800Y-76376783D01*
X164090939Y-76794750D01*
X164327698Y-77149085D01*
X164682033Y-77385844D01*
X165100000Y-77468983D01*
X165517967Y-77385844D01*
X165872302Y-77149085D01*
X166109061Y-76794750D01*
X166192200Y-76376783D01*
X166192200Y-76023217D01*
X166109061Y-75605250D01*
X165872302Y-75250915D01*
X165517967Y-75014156D01*
X165477970Y-75006200D01*
X167262030Y-75006200D01*
X167222033Y-75014156D01*
X166867698Y-75250915D01*
X166630939Y-75605250D01*
X166547800Y-76023217D01*
X166547800Y-76376783D01*
X166630939Y-76794750D01*
X166867698Y-77149085D01*
X167222033Y-77385844D01*
X167640000Y-77468983D01*
X168057967Y-77385844D01*
X168412302Y-77149085D01*
X168649061Y-76794750D01*
X168732200Y-76376783D01*
X168732200Y-76023217D01*
X168649061Y-75605250D01*
X168412302Y-75250915D01*
X168057967Y-75014156D01*
X168017970Y-75006200D01*
X169802030Y-75006200D01*
X169762033Y-75014156D01*
X169407698Y-75250915D01*
X169170939Y-75605250D01*
X169087800Y-76023217D01*
X169087800Y-76376783D01*
X169170939Y-76794750D01*
X169407698Y-77149085D01*
X169762033Y-77385844D01*
X170180000Y-77468983D01*
X170597967Y-77385844D01*
X170952302Y-77149085D01*
X171189061Y-76794750D01*
X171272200Y-76376783D01*
X171272200Y-76023217D01*
X171189061Y-75605250D01*
X170952302Y-75250915D01*
X170597967Y-75014156D01*
X170557970Y-75006200D01*
X172342030Y-75006200D01*
X172302033Y-75014156D01*
X171947698Y-75250915D01*
X171710939Y-75605250D01*
X171627800Y-76023217D01*
X171627800Y-76376783D01*
X171710939Y-76794750D01*
X171947698Y-77149085D01*
X172302033Y-77385844D01*
X172720000Y-77468983D01*
X173137967Y-77385844D01*
X173492302Y-77149085D01*
X173729061Y-76794750D01*
X173812200Y-76376783D01*
X173812200Y-76023217D01*
X173729061Y-75605250D01*
X173492302Y-75250915D01*
X173137967Y-75014156D01*
X173097970Y-75006200D01*
X174882030Y-75006200D01*
X174842033Y-75014156D01*
X174487698Y-75250915D01*
X174250939Y-75605250D01*
X174167800Y-76023217D01*
X174167800Y-76376783D01*
X174250939Y-76794750D01*
X174487698Y-77149085D01*
X174842033Y-77385844D01*
X175260000Y-77468983D01*
X175677967Y-77385844D01*
X176032302Y-77149085D01*
X176269061Y-76794750D01*
X176352200Y-76376783D01*
X176352200Y-76023217D01*
X176269061Y-75605250D01*
X176032302Y-75250915D01*
X175677967Y-75014156D01*
X175637970Y-75006200D01*
X177422030Y-75006200D01*
X177382033Y-75014156D01*
X177027698Y-75250915D01*
X176790939Y-75605250D01*
X176707800Y-76023217D01*
X176707800Y-76376783D01*
X176790939Y-76794750D01*
X177027698Y-77149085D01*
X177382033Y-77385844D01*
X177800000Y-77468983D01*
X178217967Y-77385844D01*
X178572302Y-77149085D01*
X178809061Y-76794750D01*
X178892200Y-76376783D01*
X178892200Y-76023217D01*
X178809061Y-75605250D01*
X178572302Y-75250915D01*
X178217967Y-75014156D01*
X178177970Y-75006200D01*
X179962030Y-75006200D01*
X179922033Y-75014156D01*
X179567698Y-75250915D01*
X179330939Y-75605250D01*
X179247800Y-76023217D01*
X179247800Y-76376783D01*
X179330939Y-76794750D01*
X179567698Y-77149085D01*
X179922033Y-77385844D01*
X180340000Y-77468983D01*
X180757967Y-77385844D01*
X181112302Y-77149085D01*
X181349061Y-76794750D01*
X181432200Y-76376783D01*
X181432200Y-76023217D01*
X181349061Y-75605250D01*
X181112302Y-75250915D01*
X180757967Y-75014156D01*
X180717970Y-75006200D01*
X182502030Y-75006200D01*
X182462033Y-75014156D01*
X182107698Y-75250915D01*
X181870939Y-75605250D01*
X181787800Y-76023217D01*
X181787800Y-76376783D01*
X181870939Y-76794750D01*
X182107698Y-77149085D01*
X182462033Y-77385844D01*
X182880000Y-77468983D01*
X183297967Y-77385844D01*
X183652302Y-77149085D01*
X183889061Y-76794750D01*
X183972200Y-76376783D01*
X183972200Y-76023217D01*
X183889061Y-75605250D01*
X183652302Y-75250915D01*
X183297967Y-75014156D01*
X183257970Y-75006200D01*
X184410554Y-75006200D01*
X184393882Y-75016928D01*
X184341685Y-75093320D01*
X184323322Y-75184000D01*
X184323322Y-77216000D01*
X184339262Y-77300714D01*
X184389328Y-77378518D01*
X184465720Y-77430715D01*
X184556400Y-77449078D01*
X186283600Y-77449078D01*
X186368314Y-77433138D01*
X186446118Y-77383072D01*
X186498315Y-77306680D01*
X186516678Y-77216000D01*
X186516678Y-75184000D01*
X186500738Y-75099286D01*
X186450672Y-75021482D01*
X186428306Y-75006200D01*
X186619167Y-75006200D01*
X186619167Y-77627359D01*
X186587072Y-77577482D01*
X186510680Y-77525285D01*
X186420000Y-77506922D01*
X184420000Y-77506922D01*
X184335286Y-77522862D01*
X184257482Y-77572928D01*
X184205285Y-77649320D01*
X184186922Y-77740000D01*
X184186922Y-79497762D01*
X183611184Y-80073500D01*
X178409403Y-80073500D01*
X178349338Y-80013330D01*
X178158028Y-79933891D01*
X178072132Y-79933816D01*
X177901768Y-79763452D01*
X177778163Y-79680862D01*
X177632360Y-79651860D01*
X163931403Y-79651860D01*
X163871338Y-79591690D01*
X163680028Y-79512251D01*
X163472881Y-79512070D01*
X163281433Y-79591175D01*
X163134830Y-79737522D01*
X163055391Y-79928832D01*
X163055210Y-80135979D01*
X163134315Y-80327427D01*
X163280662Y-80474030D01*
X163471972Y-80553469D01*
X163679119Y-80553650D01*
X163870567Y-80474545D01*
X163931358Y-80413860D01*
X177474544Y-80413860D01*
X177533284Y-80472600D01*
X177533210Y-80557619D01*
X177612315Y-80749067D01*
X177622530Y-80759300D01*
X175895000Y-80759300D01*
X175866327Y-80764901D01*
X175841118Y-80781618D01*
X175079118Y-81543618D01*
X175062803Y-81567854D01*
X175056800Y-81597500D01*
X175056800Y-83756500D01*
X175062011Y-83784195D01*
X175078379Y-83809632D01*
X175103354Y-83826697D01*
X175133000Y-83832700D01*
X175323500Y-83832700D01*
X175351195Y-83827489D01*
X175376632Y-83811121D01*
X175393697Y-83786146D01*
X175399700Y-83756500D01*
X175399700Y-81819564D01*
X176117064Y-81102200D01*
X178803300Y-81102200D01*
X178803300Y-82283300D01*
X177546000Y-82283300D01*
X177517327Y-82288901D01*
X177492118Y-82305618D01*
X177006436Y-82791300D01*
X176530000Y-82791300D01*
X176501327Y-82796901D01*
X176476118Y-82813618D01*
X176158618Y-83131118D01*
X176142303Y-83155354D01*
X176136300Y-83185000D01*
X176136300Y-83756500D01*
X176141511Y-83784195D01*
X176157879Y-83809632D01*
X176182854Y-83826697D01*
X176212500Y-83832700D01*
X176403000Y-83832700D01*
X176430695Y-83827489D01*
X176456132Y-83811121D01*
X176473197Y-83786146D01*
X176479200Y-83756500D01*
X176479200Y-83407064D01*
X176752064Y-83134200D01*
X177228500Y-83134200D01*
X177257173Y-83128599D01*
X177282382Y-83111882D01*
X177768064Y-82626200D01*
X179070000Y-82626200D01*
X179097695Y-82620989D01*
X179123132Y-82604621D01*
X179140197Y-82579646D01*
X179146200Y-82550000D01*
X179146200Y-80835500D01*
X183769000Y-80835500D01*
X183914803Y-80806498D01*
X184038408Y-80723908D01*
X184789238Y-79973078D01*
X186420000Y-79973078D01*
X186504714Y-79957138D01*
X186582518Y-79907072D01*
X186619167Y-79853435D01*
X186619167Y-97713800D01*
X185797970Y-97713800D01*
X185837967Y-97705844D01*
X186192302Y-97469085D01*
X186429061Y-97114750D01*
X186512200Y-96696783D01*
X186512200Y-96343217D01*
X186429061Y-95925250D01*
X186192302Y-95570915D01*
X185837967Y-95334156D01*
X185420000Y-95251017D01*
X185002033Y-95334156D01*
X184647698Y-95570915D01*
X184410939Y-95925250D01*
X184327800Y-96343217D01*
X184327800Y-96696783D01*
X184410939Y-97114750D01*
X184647698Y-97469085D01*
X185002033Y-97705844D01*
X185042030Y-97713800D01*
X183257970Y-97713800D01*
X183297967Y-97705844D01*
X183652302Y-97469085D01*
X183889061Y-97114750D01*
X183972200Y-96696783D01*
X183972200Y-96343217D01*
X183889061Y-95925250D01*
X183652302Y-95570915D01*
X183297967Y-95334156D01*
X182880000Y-95251017D01*
X182462033Y-95334156D01*
X182107698Y-95570915D01*
X181870939Y-95925250D01*
X181787800Y-96343217D01*
X181787800Y-96696783D01*
X181870939Y-97114750D01*
X182107698Y-97469085D01*
X182462033Y-97705844D01*
X182502030Y-97713800D01*
X180717970Y-97713800D01*
X180757967Y-97705844D01*
X181112302Y-97469085D01*
X181349061Y-97114750D01*
X181432200Y-96696783D01*
X181432200Y-96343217D01*
X181349061Y-95925250D01*
X181112302Y-95570915D01*
X180757967Y-95334156D01*
X180340000Y-95251017D01*
X179922033Y-95334156D01*
X179567698Y-95570915D01*
X179330939Y-95925250D01*
X179247800Y-96343217D01*
X179247800Y-96696783D01*
X179330939Y-97114750D01*
X179567698Y-97469085D01*
X179922033Y-97705844D01*
X179962030Y-97713800D01*
X178177970Y-97713800D01*
X178217967Y-97705844D01*
X178572302Y-97469085D01*
X178809061Y-97114750D01*
X178892200Y-96696783D01*
X178892200Y-96343217D01*
X178809061Y-95925250D01*
X178572302Y-95570915D01*
X178217967Y-95334156D01*
X177800000Y-95251017D01*
X177382033Y-95334156D01*
X177027698Y-95570915D01*
X176790939Y-95925250D01*
X176707800Y-96343217D01*
X176707800Y-96696783D01*
X176790939Y-97114750D01*
X177027698Y-97469085D01*
X177382033Y-97705844D01*
X177422030Y-97713800D01*
X175637970Y-97713800D01*
X175677967Y-97705844D01*
X176032302Y-97469085D01*
X176269061Y-97114750D01*
X176352200Y-96696783D01*
X176352200Y-96343217D01*
X176269061Y-95925250D01*
X176032302Y-95570915D01*
X175677967Y-95334156D01*
X175260000Y-95251017D01*
X174842033Y-95334156D01*
X174618808Y-95483310D01*
X177295105Y-92807013D01*
X177361177Y-92708129D01*
X177384379Y-92591487D01*
X177384379Y-89195579D01*
X177361177Y-89078937D01*
X177295105Y-88980053D01*
X177071606Y-88756554D01*
X177071668Y-88685364D01*
X176998351Y-88507924D01*
X176862712Y-88372048D01*
X176685400Y-88298422D01*
X176493410Y-88298254D01*
X176315970Y-88371571D01*
X176180094Y-88507210D01*
X176106468Y-88684522D01*
X176106300Y-88876512D01*
X176179617Y-89053952D01*
X176240651Y-89115092D01*
X176188088Y-89167563D01*
X176156324Y-89244060D01*
X175463200Y-88550936D01*
X175463200Y-87757000D01*
X175457989Y-87729305D01*
X175441621Y-87703868D01*
X175416646Y-87686803D01*
X175387000Y-87680800D01*
X175196500Y-87680800D01*
X175168805Y-87686011D01*
X175143368Y-87702379D01*
X175126303Y-87727354D01*
X175120300Y-87757000D01*
X175120300Y-88773000D01*
X175125901Y-88801673D01*
X175142618Y-88826882D01*
X176009300Y-89693564D01*
X176009300Y-92379800D01*
X172732700Y-92379800D01*
X172732700Y-90246200D01*
X173863000Y-90246200D01*
X173890695Y-90240989D01*
X173916132Y-90224621D01*
X173933197Y-90199646D01*
X173939200Y-90170000D01*
X173939200Y-87757000D01*
X173933989Y-87729305D01*
X173917621Y-87703868D01*
X173892646Y-87686803D01*
X173863000Y-87680800D01*
X173672500Y-87680800D01*
X173644805Y-87686011D01*
X173619368Y-87702379D01*
X173602303Y-87727354D01*
X173596300Y-87757000D01*
X173596300Y-89250675D01*
X173470278Y-89198346D01*
X173389502Y-89198275D01*
X173389572Y-89118314D01*
X173316255Y-88940874D01*
X173180616Y-88804998D01*
X173003304Y-88731372D01*
X172922528Y-88731301D01*
X172922598Y-88651340D01*
X172849281Y-88473900D01*
X172713642Y-88338024D01*
X172536330Y-88264398D01*
X172344340Y-88264230D01*
X172166900Y-88337547D01*
X172031024Y-88473186D01*
X171957398Y-88650498D01*
X171957268Y-88798508D01*
X171259854Y-89495922D01*
X171193782Y-89594806D01*
X171170580Y-89711448D01*
X171170580Y-91543836D01*
X169848327Y-92866089D01*
X169211111Y-92866089D01*
X169094469Y-92889291D01*
X169006871Y-92947822D01*
X168995585Y-92955363D01*
X168174148Y-93776800D01*
X162252150Y-93776800D01*
X162135508Y-93800002D01*
X162036624Y-93866074D01*
X161760273Y-94142425D01*
X161694201Y-94241309D01*
X161670999Y-94357951D01*
X161670999Y-95745567D01*
X161550939Y-95925250D01*
X161467800Y-96343217D01*
X161467800Y-96696783D01*
X161550939Y-97114750D01*
X161787698Y-97469085D01*
X162142033Y-97705844D01*
X162182030Y-97713800D01*
X160397970Y-97713800D01*
X160437967Y-97705844D01*
X160792302Y-97469085D01*
X161029061Y-97114750D01*
X161112200Y-96696783D01*
X161112200Y-96343217D01*
X161029061Y-95925250D01*
X160792302Y-95570915D01*
X160437967Y-95334156D01*
X160020000Y-95251017D01*
X159602033Y-95334156D01*
X159247698Y-95570915D01*
X159010939Y-95925250D01*
X158927800Y-96343217D01*
X158927800Y-96696783D01*
X159010939Y-97114750D01*
X159247698Y-97469085D01*
X159602033Y-97705844D01*
X159642030Y-97713800D01*
X157857970Y-97713800D01*
X157897967Y-97705844D01*
X158252302Y-97469085D01*
X158489061Y-97114750D01*
X158572200Y-96696783D01*
X158572200Y-96343217D01*
X158489061Y-95925250D01*
X158252302Y-95570915D01*
X157897967Y-95334156D01*
X157480000Y-95251017D01*
X157062033Y-95334156D01*
X157016078Y-95364862D01*
X155194000Y-93542784D01*
X155194000Y-91287403D01*
X155254170Y-91227338D01*
X155333609Y-91036028D01*
X155333790Y-90828881D01*
X155254685Y-90637433D01*
X155194000Y-90576642D01*
X155194000Y-87486821D01*
X155196894Y-87485625D01*
X155387954Y-87294898D01*
X155491482Y-87045574D01*
X155491581Y-86932207D01*
X155496078Y-86910000D01*
X155496078Y-86410000D01*
X155486325Y-86358165D01*
X155496078Y-86310000D01*
X155496078Y-85810000D01*
X155491621Y-85786314D01*
X155491718Y-85675610D01*
X155490106Y-85671710D01*
X155579616Y-85582200D01*
X155981597Y-85582200D01*
X156041662Y-85642370D01*
X156232972Y-85721809D01*
X156440119Y-85721990D01*
X156631567Y-85642885D01*
X156778170Y-85496538D01*
X156857609Y-85305228D01*
X156857790Y-85098081D01*
X156778685Y-84906633D01*
X156632338Y-84760030D01*
X156441028Y-84680591D01*
X156233881Y-84680410D01*
X156042433Y-84759515D01*
X155981642Y-84820200D01*
X155421800Y-84820200D01*
X155275997Y-84849202D01*
X155152392Y-84931792D01*
X154951465Y-85132719D01*
X154948574Y-85131518D01*
X154678610Y-85131282D01*
X154429106Y-85234375D01*
X154238046Y-85425102D01*
X154134518Y-85674426D01*
X154134419Y-85787793D01*
X154129922Y-85810000D01*
X154129922Y-86310000D01*
X154139675Y-86361835D01*
X154129922Y-86410000D01*
X154129922Y-86910000D01*
X154134379Y-86933686D01*
X154134282Y-87044390D01*
X154237375Y-87293894D01*
X154428102Y-87484954D01*
X154432000Y-87486573D01*
X154432000Y-90576597D01*
X154371830Y-90636662D01*
X154292391Y-90827972D01*
X154292210Y-91035119D01*
X154371315Y-91226567D01*
X154432000Y-91287358D01*
X154432000Y-93700600D01*
X154461002Y-93846403D01*
X154543592Y-93970008D01*
X155848984Y-95275400D01*
X155009850Y-95275400D01*
X154952700Y-95332550D01*
X154952700Y-96507300D01*
X155975050Y-96507300D01*
X156032200Y-96450150D01*
X156032200Y-95458615D01*
X156482112Y-95908528D01*
X156470939Y-95925250D01*
X156387800Y-96343217D01*
X156387800Y-96696783D01*
X156470939Y-97114750D01*
X156707698Y-97469085D01*
X157062033Y-97705844D01*
X157102030Y-97713800D01*
X155949089Y-97713800D01*
X155997398Y-97665491D01*
X156032200Y-97581471D01*
X156032200Y-96589850D01*
X155975050Y-96532700D01*
X154952700Y-96532700D01*
X154952700Y-96552700D01*
X154927300Y-96552700D01*
X154927300Y-96532700D01*
X153904950Y-96532700D01*
X153847800Y-96589850D01*
X153847800Y-97581471D01*
X153882602Y-97665491D01*
X153930911Y-97713800D01*
X153751567Y-97713800D01*
X153751567Y-95458529D01*
X153847800Y-95458529D01*
X153847800Y-96450150D01*
X153904950Y-96507300D01*
X154927300Y-96507300D01*
X154927300Y-95332550D01*
X154870150Y-95275400D01*
X154030928Y-95275400D01*
X153946908Y-95310203D01*
X153882602Y-95374509D01*
X153847800Y-95458529D01*
X153751567Y-95458529D01*
X153751567Y-83732619D01*
X160388210Y-83732619D01*
X160467315Y-83924067D01*
X160613662Y-84070670D01*
X160804972Y-84150109D01*
X160827313Y-84150129D01*
X161036000Y-84358815D01*
X161036000Y-88989097D01*
X160975830Y-89049162D01*
X160896391Y-89240472D01*
X160896210Y-89447619D01*
X160975315Y-89639067D01*
X161121662Y-89785670D01*
X161312972Y-89865109D01*
X161520119Y-89865290D01*
X161711567Y-89786185D01*
X161858170Y-89639838D01*
X161937609Y-89448528D01*
X161937790Y-89241381D01*
X161858685Y-89049933D01*
X161798000Y-88989142D01*
X161798000Y-86677500D01*
X176199800Y-86677500D01*
X176199800Y-86868000D01*
X176205011Y-86895695D01*
X176221379Y-86921132D01*
X176246354Y-86938197D01*
X176276000Y-86944200D01*
X178244500Y-86944200D01*
X178273173Y-86938599D01*
X178298382Y-86921882D01*
X178806382Y-86413882D01*
X178822697Y-86389646D01*
X178828700Y-86360000D01*
X178828700Y-85483700D01*
X184118436Y-85483700D01*
X184327800Y-85693064D01*
X184327800Y-88868436D01*
X184118436Y-89077800D01*
X178701700Y-89077800D01*
X178701700Y-87947500D01*
X178696099Y-87918827D01*
X178679382Y-87893618D01*
X178361882Y-87576118D01*
X178337646Y-87559803D01*
X178308000Y-87553800D01*
X176339500Y-87553800D01*
X176311805Y-87559011D01*
X176286368Y-87575379D01*
X176269303Y-87600354D01*
X176263300Y-87630000D01*
X176263300Y-87820500D01*
X176268511Y-87848195D01*
X176284879Y-87873632D01*
X176309854Y-87890697D01*
X176339500Y-87896700D01*
X178085936Y-87896700D01*
X178358800Y-88169564D01*
X178358800Y-89344500D01*
X178364011Y-89372195D01*
X178380379Y-89397632D01*
X178405354Y-89414697D01*
X178435000Y-89420700D01*
X184340500Y-89420700D01*
X184369173Y-89415099D01*
X184394382Y-89398382D01*
X184648382Y-89144382D01*
X184664697Y-89120146D01*
X184670700Y-89090500D01*
X184670700Y-85471000D01*
X184665099Y-85442327D01*
X184648382Y-85417118D01*
X184394382Y-85163118D01*
X184370146Y-85146803D01*
X184340500Y-85140800D01*
X178562000Y-85140800D01*
X178534305Y-85146011D01*
X178508868Y-85162379D01*
X178491803Y-85187354D01*
X178485800Y-85217000D01*
X178485800Y-86137936D01*
X178022436Y-86601300D01*
X176276000Y-86601300D01*
X176248305Y-86606511D01*
X176222868Y-86622879D01*
X176205803Y-86647854D01*
X176199800Y-86677500D01*
X161798000Y-86677500D01*
X161798000Y-84201000D01*
X161768998Y-84055198D01*
X161686408Y-83931592D01*
X161686405Y-83931590D01*
X161429660Y-83674845D01*
X161429790Y-83526381D01*
X161350685Y-83334933D01*
X161204338Y-83188330D01*
X161013028Y-83108891D01*
X160805881Y-83108710D01*
X160614433Y-83187815D01*
X160467830Y-83334162D01*
X160388391Y-83525472D01*
X160388210Y-83732619D01*
X153751567Y-83732619D01*
X153751567Y-75006200D01*
X154562030Y-75006200D01*
X154522033Y-75014156D01*
X154522033Y-75014156D01*
G37*
X154522033Y-75014156D02*
X154167698Y-75250915D01*
X153930939Y-75605250D01*
X153847800Y-76023217D01*
X153847800Y-76376783D01*
X153930939Y-76794750D01*
X154167698Y-77149085D01*
X154522033Y-77385844D01*
X154940000Y-77468983D01*
X155357967Y-77385844D01*
X155712302Y-77149085D01*
X155949061Y-76794750D01*
X156032200Y-76376783D01*
X156032200Y-76023217D01*
X155949061Y-75605250D01*
X155712302Y-75250915D01*
X155357967Y-75014156D01*
X155317970Y-75006200D01*
X157102030Y-75006200D01*
X157062033Y-75014156D01*
X156707698Y-75250915D01*
X156470939Y-75605250D01*
X156387800Y-76023217D01*
X156387800Y-76376783D01*
X156470939Y-76794750D01*
X156707698Y-77149085D01*
X157062033Y-77385844D01*
X157480000Y-77468983D01*
X157897967Y-77385844D01*
X158252302Y-77149085D01*
X158489061Y-76794750D01*
X158572200Y-76376783D01*
X158572200Y-76023217D01*
X158489061Y-75605250D01*
X158252302Y-75250915D01*
X157897967Y-75014156D01*
X157857970Y-75006200D01*
X159642030Y-75006200D01*
X159602033Y-75014156D01*
X159247698Y-75250915D01*
X159010939Y-75605250D01*
X158927800Y-76023217D01*
X158927800Y-76376783D01*
X159010939Y-76794750D01*
X159247698Y-77149085D01*
X159602033Y-77385844D01*
X160020000Y-77468983D01*
X160437967Y-77385844D01*
X160792302Y-77149085D01*
X161029061Y-76794750D01*
X161112200Y-76376783D01*
X161112200Y-76023217D01*
X161029061Y-75605250D01*
X160792302Y-75250915D01*
X160437967Y-75014156D01*
X160397970Y-75006200D01*
X162182030Y-75006200D01*
X162142033Y-75014156D01*
X161787698Y-75250915D01*
X161550939Y-75605250D01*
X161467800Y-76023217D01*
X161467800Y-76376783D01*
X161550939Y-76794750D01*
X161787698Y-77149085D01*
X162142033Y-77385844D01*
X162560000Y-77468983D01*
X162977967Y-77385844D01*
X163332302Y-77149085D01*
X163569061Y-76794750D01*
X163652200Y-76376783D01*
X163652200Y-76023217D01*
X163569061Y-75605250D01*
X163332302Y-75250915D01*
X162977967Y-75014156D01*
X162937970Y-75006200D01*
X164722030Y-75006200D01*
X164682033Y-75014156D01*
X164327698Y-75250915D01*
X164090939Y-75605250D01*
X164007800Y-76023217D01*
X164007800Y-76376783D01*
X164090939Y-76794750D01*
X164327698Y-77149085D01*
X164682033Y-77385844D01*
X165100000Y-77468983D01*
X165517967Y-77385844D01*
X165872302Y-77149085D01*
X166109061Y-76794750D01*
X166192200Y-76376783D01*
X166192200Y-76023217D01*
X166109061Y-75605250D01*
X165872302Y-75250915D01*
X165517967Y-75014156D01*
X165477970Y-75006200D01*
X167262030Y-75006200D01*
X167222033Y-75014156D01*
X166867698Y-75250915D01*
X166630939Y-75605250D01*
X166547800Y-76023217D01*
X166547800Y-76376783D01*
X166630939Y-76794750D01*
X166867698Y-77149085D01*
X167222033Y-77385844D01*
X167640000Y-77468983D01*
X168057967Y-77385844D01*
X168412302Y-77149085D01*
X168649061Y-76794750D01*
X168732200Y-76376783D01*
X168732200Y-76023217D01*
X168649061Y-75605250D01*
X168412302Y-75250915D01*
X168057967Y-75014156D01*
X168017970Y-75006200D01*
X169802030Y-75006200D01*
X169762033Y-75014156D01*
X169407698Y-75250915D01*
X169170939Y-75605250D01*
X169087800Y-76023217D01*
X169087800Y-76376783D01*
X169170939Y-76794750D01*
X169407698Y-77149085D01*
X169762033Y-77385844D01*
X170180000Y-77468983D01*
X170597967Y-77385844D01*
X170952302Y-77149085D01*
X171189061Y-76794750D01*
X171272200Y-76376783D01*
X171272200Y-76023217D01*
X171189061Y-75605250D01*
X170952302Y-75250915D01*
X170597967Y-75014156D01*
X170557970Y-75006200D01*
X172342030Y-75006200D01*
X172302033Y-75014156D01*
X171947698Y-75250915D01*
X171710939Y-75605250D01*
X171627800Y-76023217D01*
X171627800Y-76376783D01*
X171710939Y-76794750D01*
X171947698Y-77149085D01*
X172302033Y-77385844D01*
X172720000Y-77468983D01*
X173137967Y-77385844D01*
X173492302Y-77149085D01*
X173729061Y-76794750D01*
X173812200Y-76376783D01*
X173812200Y-76023217D01*
X173729061Y-75605250D01*
X173492302Y-75250915D01*
X173137967Y-75014156D01*
X173097970Y-75006200D01*
X174882030Y-75006200D01*
X174842033Y-75014156D01*
X174487698Y-75250915D01*
X174250939Y-75605250D01*
X174167800Y-76023217D01*
X174167800Y-76376783D01*
X174250939Y-76794750D01*
X174487698Y-77149085D01*
X174842033Y-77385844D01*
X175260000Y-77468983D01*
X175677967Y-77385844D01*
X176032302Y-77149085D01*
X176269061Y-76794750D01*
X176352200Y-76376783D01*
X176352200Y-76023217D01*
X176269061Y-75605250D01*
X176032302Y-75250915D01*
X175677967Y-75014156D01*
X175637970Y-75006200D01*
X177422030Y-75006200D01*
X177382033Y-75014156D01*
X177027698Y-75250915D01*
X176790939Y-75605250D01*
X176707800Y-76023217D01*
X176707800Y-76376783D01*
X176790939Y-76794750D01*
X177027698Y-77149085D01*
X177382033Y-77385844D01*
X177800000Y-77468983D01*
X178217967Y-77385844D01*
X178572302Y-77149085D01*
X178809061Y-76794750D01*
X178892200Y-76376783D01*
X178892200Y-76023217D01*
X178809061Y-75605250D01*
X178572302Y-75250915D01*
X178217967Y-75014156D01*
X178177970Y-75006200D01*
X179962030Y-75006200D01*
X179922033Y-75014156D01*
X179567698Y-75250915D01*
X179330939Y-75605250D01*
X179247800Y-76023217D01*
X179247800Y-76376783D01*
X179330939Y-76794750D01*
X179567698Y-77149085D01*
X179922033Y-77385844D01*
X180340000Y-77468983D01*
X180757967Y-77385844D01*
X181112302Y-77149085D01*
X181349061Y-76794750D01*
X181432200Y-76376783D01*
X181432200Y-76023217D01*
X181349061Y-75605250D01*
X181112302Y-75250915D01*
X180757967Y-75014156D01*
X180717970Y-75006200D01*
X182502030Y-75006200D01*
X182462033Y-75014156D01*
X182107698Y-75250915D01*
X181870939Y-75605250D01*
X181787800Y-76023217D01*
X181787800Y-76376783D01*
X181870939Y-76794750D01*
X182107698Y-77149085D01*
X182462033Y-77385844D01*
X182880000Y-77468983D01*
X183297967Y-77385844D01*
X183652302Y-77149085D01*
X183889061Y-76794750D01*
X183972200Y-76376783D01*
X183972200Y-76023217D01*
X183889061Y-75605250D01*
X183652302Y-75250915D01*
X183297967Y-75014156D01*
X183257970Y-75006200D01*
X184410554Y-75006200D01*
X184393882Y-75016928D01*
X184341685Y-75093320D01*
X184323322Y-75184000D01*
X184323322Y-77216000D01*
X184339262Y-77300714D01*
X184389328Y-77378518D01*
X184465720Y-77430715D01*
X184556400Y-77449078D01*
X186283600Y-77449078D01*
X186368314Y-77433138D01*
X186446118Y-77383072D01*
X186498315Y-77306680D01*
X186516678Y-77216000D01*
X186516678Y-75184000D01*
X186500738Y-75099286D01*
X186450672Y-75021482D01*
X186428306Y-75006200D01*
X186619167Y-75006200D01*
X186619167Y-77627359D01*
X186587072Y-77577482D01*
X186510680Y-77525285D01*
X186420000Y-77506922D01*
X184420000Y-77506922D01*
X184335286Y-77522862D01*
X184257482Y-77572928D01*
X184205285Y-77649320D01*
X184186922Y-77740000D01*
X184186922Y-79497762D01*
X183611184Y-80073500D01*
X178409403Y-80073500D01*
X178349338Y-80013330D01*
X178158028Y-79933891D01*
X178072132Y-79933816D01*
X177901768Y-79763452D01*
X177778163Y-79680862D01*
X177632360Y-79651860D01*
X163931403Y-79651860D01*
X163871338Y-79591690D01*
X163680028Y-79512251D01*
X163472881Y-79512070D01*
X163281433Y-79591175D01*
X163134830Y-79737522D01*
X163055391Y-79928832D01*
X163055210Y-80135979D01*
X163134315Y-80327427D01*
X163280662Y-80474030D01*
X163471972Y-80553469D01*
X163679119Y-80553650D01*
X163870567Y-80474545D01*
X163931358Y-80413860D01*
X177474544Y-80413860D01*
X177533284Y-80472600D01*
X177533210Y-80557619D01*
X177612315Y-80749067D01*
X177622530Y-80759300D01*
X175895000Y-80759300D01*
X175866327Y-80764901D01*
X175841118Y-80781618D01*
X175079118Y-81543618D01*
X175062803Y-81567854D01*
X175056800Y-81597500D01*
X175056800Y-83756500D01*
X175062011Y-83784195D01*
X175078379Y-83809632D01*
X175103354Y-83826697D01*
X175133000Y-83832700D01*
X175323500Y-83832700D01*
X175351195Y-83827489D01*
X175376632Y-83811121D01*
X175393697Y-83786146D01*
X175399700Y-83756500D01*
X175399700Y-81819564D01*
X176117064Y-81102200D01*
X178803300Y-81102200D01*
X178803300Y-82283300D01*
X177546000Y-82283300D01*
X177517327Y-82288901D01*
X177492118Y-82305618D01*
X177006436Y-82791300D01*
X176530000Y-82791300D01*
X176501327Y-82796901D01*
X176476118Y-82813618D01*
X176158618Y-83131118D01*
X176142303Y-83155354D01*
X176136300Y-83185000D01*
X176136300Y-83756500D01*
X176141511Y-83784195D01*
X176157879Y-83809632D01*
X176182854Y-83826697D01*
X176212500Y-83832700D01*
X176403000Y-83832700D01*
X176430695Y-83827489D01*
X176456132Y-83811121D01*
X176473197Y-83786146D01*
X176479200Y-83756500D01*
X176479200Y-83407064D01*
X176752064Y-83134200D01*
X177228500Y-83134200D01*
X177257173Y-83128599D01*
X177282382Y-83111882D01*
X177768064Y-82626200D01*
X179070000Y-82626200D01*
X179097695Y-82620989D01*
X179123132Y-82604621D01*
X179140197Y-82579646D01*
X179146200Y-82550000D01*
X179146200Y-80835500D01*
X183769000Y-80835500D01*
X183914803Y-80806498D01*
X184038408Y-80723908D01*
X184789238Y-79973078D01*
X186420000Y-79973078D01*
X186504714Y-79957138D01*
X186582518Y-79907072D01*
X186619167Y-79853435D01*
X186619167Y-97713800D01*
X185797970Y-97713800D01*
X185837967Y-97705844D01*
X186192302Y-97469085D01*
X186429061Y-97114750D01*
X186512200Y-96696783D01*
X186512200Y-96343217D01*
X186429061Y-95925250D01*
X186192302Y-95570915D01*
X185837967Y-95334156D01*
X185420000Y-95251017D01*
X185002033Y-95334156D01*
X184647698Y-95570915D01*
X184410939Y-95925250D01*
X184327800Y-96343217D01*
X184327800Y-96696783D01*
X184410939Y-97114750D01*
X184647698Y-97469085D01*
X185002033Y-97705844D01*
X185042030Y-97713800D01*
X183257970Y-97713800D01*
X183297967Y-97705844D01*
X183652302Y-97469085D01*
X183889061Y-97114750D01*
X183972200Y-96696783D01*
X183972200Y-96343217D01*
X183889061Y-95925250D01*
X183652302Y-95570915D01*
X183297967Y-95334156D01*
X182880000Y-95251017D01*
X182462033Y-95334156D01*
X182107698Y-95570915D01*
X181870939Y-95925250D01*
X181787800Y-96343217D01*
X181787800Y-96696783D01*
X181870939Y-97114750D01*
X182107698Y-97469085D01*
X182462033Y-97705844D01*
X182502030Y-97713800D01*
X180717970Y-97713800D01*
X180757967Y-97705844D01*
X181112302Y-97469085D01*
X181349061Y-97114750D01*
X181432200Y-96696783D01*
X181432200Y-96343217D01*
X181349061Y-95925250D01*
X181112302Y-95570915D01*
X180757967Y-95334156D01*
X180340000Y-95251017D01*
X179922033Y-95334156D01*
X179567698Y-95570915D01*
X179330939Y-95925250D01*
X179247800Y-96343217D01*
X179247800Y-96696783D01*
X179330939Y-97114750D01*
X179567698Y-97469085D01*
X179922033Y-97705844D01*
X179962030Y-97713800D01*
X178177970Y-97713800D01*
X178217967Y-97705844D01*
X178572302Y-97469085D01*
X178809061Y-97114750D01*
X178892200Y-96696783D01*
X178892200Y-96343217D01*
X178809061Y-95925250D01*
X178572302Y-95570915D01*
X178217967Y-95334156D01*
X177800000Y-95251017D01*
X177382033Y-95334156D01*
X177027698Y-95570915D01*
X176790939Y-95925250D01*
X176707800Y-96343217D01*
X176707800Y-96696783D01*
X176790939Y-97114750D01*
X177027698Y-97469085D01*
X177382033Y-97705844D01*
X177422030Y-97713800D01*
X175637970Y-97713800D01*
X175677967Y-97705844D01*
X176032302Y-97469085D01*
X176269061Y-97114750D01*
X176352200Y-96696783D01*
X176352200Y-96343217D01*
X176269061Y-95925250D01*
X176032302Y-95570915D01*
X175677967Y-95334156D01*
X175260000Y-95251017D01*
X174842033Y-95334156D01*
X174618808Y-95483310D01*
X177295105Y-92807013D01*
X177361177Y-92708129D01*
X177384379Y-92591487D01*
X177384379Y-89195579D01*
X177361177Y-89078937D01*
X177295105Y-88980053D01*
X177071606Y-88756554D01*
X177071668Y-88685364D01*
X176998351Y-88507924D01*
X176862712Y-88372048D01*
X176685400Y-88298422D01*
X176493410Y-88298254D01*
X176315970Y-88371571D01*
X176180094Y-88507210D01*
X176106468Y-88684522D01*
X176106300Y-88876512D01*
X176179617Y-89053952D01*
X176240651Y-89115092D01*
X176188088Y-89167563D01*
X176156324Y-89244060D01*
X175463200Y-88550936D01*
X175463200Y-87757000D01*
X175457989Y-87729305D01*
X175441621Y-87703868D01*
X175416646Y-87686803D01*
X175387000Y-87680800D01*
X175196500Y-87680800D01*
X175168805Y-87686011D01*
X175143368Y-87702379D01*
X175126303Y-87727354D01*
X175120300Y-87757000D01*
X175120300Y-88773000D01*
X175125901Y-88801673D01*
X175142618Y-88826882D01*
X176009300Y-89693564D01*
X176009300Y-92379800D01*
X172732700Y-92379800D01*
X172732700Y-90246200D01*
X173863000Y-90246200D01*
X173890695Y-90240989D01*
X173916132Y-90224621D01*
X173933197Y-90199646D01*
X173939200Y-90170000D01*
X173939200Y-87757000D01*
X173933989Y-87729305D01*
X173917621Y-87703868D01*
X173892646Y-87686803D01*
X173863000Y-87680800D01*
X173672500Y-87680800D01*
X173644805Y-87686011D01*
X173619368Y-87702379D01*
X173602303Y-87727354D01*
X173596300Y-87757000D01*
X173596300Y-89250675D01*
X173470278Y-89198346D01*
X173389502Y-89198275D01*
X173389572Y-89118314D01*
X173316255Y-88940874D01*
X173180616Y-88804998D01*
X173003304Y-88731372D01*
X172922528Y-88731301D01*
X172922598Y-88651340D01*
X172849281Y-88473900D01*
X172713642Y-88338024D01*
X172536330Y-88264398D01*
X172344340Y-88264230D01*
X172166900Y-88337547D01*
X172031024Y-88473186D01*
X171957398Y-88650498D01*
X171957268Y-88798508D01*
X171259854Y-89495922D01*
X171193782Y-89594806D01*
X171170580Y-89711448D01*
X171170580Y-91543836D01*
X169848327Y-92866089D01*
X169211111Y-92866089D01*
X169094469Y-92889291D01*
X169006871Y-92947822D01*
X168995585Y-92955363D01*
X168174148Y-93776800D01*
X162252150Y-93776800D01*
X162135508Y-93800002D01*
X162036624Y-93866074D01*
X161760273Y-94142425D01*
X161694201Y-94241309D01*
X161670999Y-94357951D01*
X161670999Y-95745567D01*
X161550939Y-95925250D01*
X161467800Y-96343217D01*
X161467800Y-96696783D01*
X161550939Y-97114750D01*
X161787698Y-97469085D01*
X162142033Y-97705844D01*
X162182030Y-97713800D01*
X160397970Y-97713800D01*
X160437967Y-97705844D01*
X160792302Y-97469085D01*
X161029061Y-97114750D01*
X161112200Y-96696783D01*
X161112200Y-96343217D01*
X161029061Y-95925250D01*
X160792302Y-95570915D01*
X160437967Y-95334156D01*
X160020000Y-95251017D01*
X159602033Y-95334156D01*
X159247698Y-95570915D01*
X159010939Y-95925250D01*
X158927800Y-96343217D01*
X158927800Y-96696783D01*
X159010939Y-97114750D01*
X159247698Y-97469085D01*
X159602033Y-97705844D01*
X159642030Y-97713800D01*
X157857970Y-97713800D01*
X157897967Y-97705844D01*
X158252302Y-97469085D01*
X158489061Y-97114750D01*
X158572200Y-96696783D01*
X158572200Y-96343217D01*
X158489061Y-95925250D01*
X158252302Y-95570915D01*
X157897967Y-95334156D01*
X157480000Y-95251017D01*
X157062033Y-95334156D01*
X157016078Y-95364862D01*
X155194000Y-93542784D01*
X155194000Y-91287403D01*
X155254170Y-91227338D01*
X155333609Y-91036028D01*
X155333790Y-90828881D01*
X155254685Y-90637433D01*
X155194000Y-90576642D01*
X155194000Y-87486821D01*
X155196894Y-87485625D01*
X155387954Y-87294898D01*
X155491482Y-87045574D01*
X155491581Y-86932207D01*
X155496078Y-86910000D01*
X155496078Y-86410000D01*
X155486325Y-86358165D01*
X155496078Y-86310000D01*
X155496078Y-85810000D01*
X155491621Y-85786314D01*
X155491718Y-85675610D01*
X155490106Y-85671710D01*
X155579616Y-85582200D01*
X155981597Y-85582200D01*
X156041662Y-85642370D01*
X156232972Y-85721809D01*
X156440119Y-85721990D01*
X156631567Y-85642885D01*
X156778170Y-85496538D01*
X156857609Y-85305228D01*
X156857790Y-85098081D01*
X156778685Y-84906633D01*
X156632338Y-84760030D01*
X156441028Y-84680591D01*
X156233881Y-84680410D01*
X156042433Y-84759515D01*
X155981642Y-84820200D01*
X155421800Y-84820200D01*
X155275997Y-84849202D01*
X155152392Y-84931792D01*
X154951465Y-85132719D01*
X154948574Y-85131518D01*
X154678610Y-85131282D01*
X154429106Y-85234375D01*
X154238046Y-85425102D01*
X154134518Y-85674426D01*
X154134419Y-85787793D01*
X154129922Y-85810000D01*
X154129922Y-86310000D01*
X154139675Y-86361835D01*
X154129922Y-86410000D01*
X154129922Y-86910000D01*
X154134379Y-86933686D01*
X154134282Y-87044390D01*
X154237375Y-87293894D01*
X154428102Y-87484954D01*
X154432000Y-87486573D01*
X154432000Y-90576597D01*
X154371830Y-90636662D01*
X154292391Y-90827972D01*
X154292210Y-91035119D01*
X154371315Y-91226567D01*
X154432000Y-91287358D01*
X154432000Y-93700600D01*
X154461002Y-93846403D01*
X154543592Y-93970008D01*
X155848984Y-95275400D01*
X155009850Y-95275400D01*
X154952700Y-95332550D01*
X154952700Y-96507300D01*
X155975050Y-96507300D01*
X156032200Y-96450150D01*
X156032200Y-95458615D01*
X156482112Y-95908528D01*
X156470939Y-95925250D01*
X156387800Y-96343217D01*
X156387800Y-96696783D01*
X156470939Y-97114750D01*
X156707698Y-97469085D01*
X157062033Y-97705844D01*
X157102030Y-97713800D01*
X155949089Y-97713800D01*
X155997398Y-97665491D01*
X156032200Y-97581471D01*
X156032200Y-96589850D01*
X155975050Y-96532700D01*
X154952700Y-96532700D01*
X154952700Y-96552700D01*
X154927300Y-96552700D01*
X154927300Y-96532700D01*
X153904950Y-96532700D01*
X153847800Y-96589850D01*
X153847800Y-97581471D01*
X153882602Y-97665491D01*
X153930911Y-97713800D01*
X153751567Y-97713800D01*
X153751567Y-95458529D01*
X153847800Y-95458529D01*
X153847800Y-96450150D01*
X153904950Y-96507300D01*
X154927300Y-96507300D01*
X154927300Y-95332550D01*
X154870150Y-95275400D01*
X154030928Y-95275400D01*
X153946908Y-95310203D01*
X153882602Y-95374509D01*
X153847800Y-95458529D01*
X153751567Y-95458529D01*
X153751567Y-83732619D01*
X160388210Y-83732619D01*
X160467315Y-83924067D01*
X160613662Y-84070670D01*
X160804972Y-84150109D01*
X160827313Y-84150129D01*
X161036000Y-84358815D01*
X161036000Y-88989097D01*
X160975830Y-89049162D01*
X160896391Y-89240472D01*
X160896210Y-89447619D01*
X160975315Y-89639067D01*
X161121662Y-89785670D01*
X161312972Y-89865109D01*
X161520119Y-89865290D01*
X161711567Y-89786185D01*
X161858170Y-89639838D01*
X161937609Y-89448528D01*
X161937790Y-89241381D01*
X161858685Y-89049933D01*
X161798000Y-88989142D01*
X161798000Y-86677500D01*
X176199800Y-86677500D01*
X176199800Y-86868000D01*
X176205011Y-86895695D01*
X176221379Y-86921132D01*
X176246354Y-86938197D01*
X176276000Y-86944200D01*
X178244500Y-86944200D01*
X178273173Y-86938599D01*
X178298382Y-86921882D01*
X178806382Y-86413882D01*
X178822697Y-86389646D01*
X178828700Y-86360000D01*
X178828700Y-85483700D01*
X184118436Y-85483700D01*
X184327800Y-85693064D01*
X184327800Y-88868436D01*
X184118436Y-89077800D01*
X178701700Y-89077800D01*
X178701700Y-87947500D01*
X178696099Y-87918827D01*
X178679382Y-87893618D01*
X178361882Y-87576118D01*
X178337646Y-87559803D01*
X178308000Y-87553800D01*
X176339500Y-87553800D01*
X176311805Y-87559011D01*
X176286368Y-87575379D01*
X176269303Y-87600354D01*
X176263300Y-87630000D01*
X176263300Y-87820500D01*
X176268511Y-87848195D01*
X176284879Y-87873632D01*
X176309854Y-87890697D01*
X176339500Y-87896700D01*
X178085936Y-87896700D01*
X178358800Y-88169564D01*
X178358800Y-89344500D01*
X178364011Y-89372195D01*
X178380379Y-89397632D01*
X178405354Y-89414697D01*
X178435000Y-89420700D01*
X184340500Y-89420700D01*
X184369173Y-89415099D01*
X184394382Y-89398382D01*
X184648382Y-89144382D01*
X184664697Y-89120146D01*
X184670700Y-89090500D01*
X184670700Y-85471000D01*
X184665099Y-85442327D01*
X184648382Y-85417118D01*
X184394382Y-85163118D01*
X184370146Y-85146803D01*
X184340500Y-85140800D01*
X178562000Y-85140800D01*
X178534305Y-85146011D01*
X178508868Y-85162379D01*
X178491803Y-85187354D01*
X178485800Y-85217000D01*
X178485800Y-86137936D01*
X178022436Y-86601300D01*
X176276000Y-86601300D01*
X176248305Y-86606511D01*
X176222868Y-86622879D01*
X176205803Y-86647854D01*
X176199800Y-86677500D01*
X161798000Y-86677500D01*
X161798000Y-84201000D01*
X161768998Y-84055198D01*
X161686408Y-83931592D01*
X161686405Y-83931590D01*
X161429660Y-83674845D01*
X161429790Y-83526381D01*
X161350685Y-83334933D01*
X161204338Y-83188330D01*
X161013028Y-83108891D01*
X160805881Y-83108710D01*
X160614433Y-83187815D01*
X160467830Y-83334162D01*
X160388391Y-83525472D01*
X160388210Y-83732619D01*
X153751567Y-83732619D01*
X153751567Y-75006200D01*
X154562030Y-75006200D01*
X154522033Y-75014156D01*
M02*
