G04 #@! TF.FileFunction,Copper,L1,Top,Signal*
%FSLAX46Y46*%
G04 Gerber Fmt 4.6, Leading zero omitted, Abs format (unit mm)*
G04 Created by KiCad (PCBNEW (2015-08-16 BZR 6097, Git b384c94)-product) date 05/01/2016 15:12:39*
%MOMM*%
G01*
G04 APERTURE LIST*
%ADD10C,0.100000*%
%ADD11R,2.000000X2.000000*%
%ADD12R,1.600200X2.199640*%
%ADD13R,1.250000X0.600000*%
%ADD14R,0.900000X1.200000*%
%ADD15C,0.500000*%
%ADD16R,0.700000X0.250000*%
%ADD17R,0.250000X0.700000*%
%ADD18R,1.725000X1.725000*%
%ADD19R,1.200000X0.750000*%
%ADD20R,0.750000X1.200000*%
%ADD21R,1.200000X0.900000*%
%ADD22R,0.350000X0.180000*%
%ADD23R,0.300000X1.500000*%
%ADD24R,1.900000X1.100000*%
%ADD25R,1.050000X0.650000*%
%ADD26R,1.727200X2.032000*%
%ADD27R,1.350000X0.400000*%
%ADD28C,2.150000*%
%ADD29R,1.000000X1.350000*%
%ADD30C,0.584200*%
%ADD31C,0.508000*%
%ADD32C,0.304800*%
%ADD33C,0.152400*%
%ADD34C,0.203200*%
G04 APERTURE END LIST*
D10*
D11*
X185420000Y-78740000D03*
X187325000Y-78740000D03*
D12*
X165354000Y-92433140D03*
X165354000Y-89430860D03*
X163576000Y-80032860D03*
X163576000Y-83035140D03*
D13*
X163548000Y-84648000D03*
X163548000Y-85598000D03*
X163548000Y-86548000D03*
X160048000Y-86548000D03*
X160048000Y-85598000D03*
X160048000Y-84648000D03*
D14*
X160909000Y-83015000D03*
X160909000Y-80815000D03*
D15*
X182753000Y-78867000D03*
D14*
X154559000Y-78910000D03*
X154559000Y-81110000D03*
D16*
X176670500Y-87501500D03*
X176670500Y-87001500D03*
X176670500Y-86501500D03*
X176670500Y-86001500D03*
X176670500Y-85501500D03*
X176670500Y-85001500D03*
X176670500Y-84501500D03*
X176670500Y-84001500D03*
D17*
X176020500Y-83351500D03*
X175520500Y-83351500D03*
X175020500Y-83351500D03*
X174520500Y-83351500D03*
X174020500Y-83351500D03*
X173520500Y-83351500D03*
X173020500Y-83351500D03*
X172520500Y-83351500D03*
D16*
X171870500Y-84001500D03*
X171870500Y-84501500D03*
X171870500Y-85001500D03*
X171870500Y-85501500D03*
X171870500Y-86001500D03*
X171870500Y-86501500D03*
X171870500Y-87001500D03*
X171870500Y-87501500D03*
D17*
X172520500Y-88151500D03*
X173020500Y-88151500D03*
X173520500Y-88151500D03*
X174020500Y-88151500D03*
X174520500Y-88151500D03*
X175020500Y-88151500D03*
X175520500Y-88151500D03*
X176020500Y-88151500D03*
D18*
X173408000Y-84889000D03*
X173408000Y-86614000D03*
X175133000Y-84889000D03*
X175133000Y-86614000D03*
D19*
X175194000Y-90551000D03*
X173294000Y-90551000D03*
D10*
G36*
X159817000Y-89467000D02*
X163017000Y-89467000D01*
X163017000Y-91267000D01*
X159817000Y-91267000D01*
X159817000Y-89467000D01*
X159817000Y-89467000D01*
G37*
G36*
X159817000Y-91867000D02*
X163017000Y-91867000D01*
X163017000Y-93667000D01*
X159817000Y-93667000D01*
X159817000Y-91867000D01*
X159817000Y-91867000D01*
G37*
D19*
X158364000Y-81597500D03*
X156464000Y-81597500D03*
X181803000Y-88519000D03*
X183703000Y-88519000D03*
X181803000Y-86042500D03*
X183703000Y-86042500D03*
X177988000Y-81915000D03*
X176088000Y-81915000D03*
X175194000Y-92075000D03*
X173294000Y-92075000D03*
D20*
X177101500Y-90426500D03*
X177101500Y-92326500D03*
D21*
X162476000Y-94589600D03*
X164676000Y-94589600D03*
X173144000Y-93662500D03*
X175344000Y-93662500D03*
D14*
X178689000Y-90213000D03*
X178689000Y-92413000D03*
D20*
X158750000Y-90678000D03*
X158750000Y-92578000D03*
X154749500Y-91633000D03*
X154749500Y-93533000D03*
D21*
X166506800Y-94589600D03*
X168706800Y-94589600D03*
D22*
X157243000Y-91967000D03*
X157243000Y-91567000D03*
X157243000Y-91167000D03*
X156193000Y-91167000D03*
X156193000Y-91567000D03*
X156193000Y-91967000D03*
D23*
X156718000Y-91567000D03*
D15*
X156718000Y-94107000D03*
X156718000Y-78867000D03*
D24*
X179705000Y-88499000D03*
X179705000Y-85999000D03*
D25*
X180534000Y-93658000D03*
X185734000Y-93658000D03*
X185734000Y-91508000D03*
X180534000Y-91508000D03*
D26*
X185420000Y-98425000D03*
X182880000Y-98425000D03*
X180340000Y-98425000D03*
X177800000Y-98425000D03*
X175260000Y-98425000D03*
X172720000Y-98425000D03*
X170180000Y-98425000D03*
X167640000Y-98425000D03*
X165100000Y-98425000D03*
X162560000Y-98425000D03*
X160020000Y-98425000D03*
X157480000Y-98425000D03*
X154940000Y-98425000D03*
X154940000Y-96520000D03*
X157480000Y-96520000D03*
X160020000Y-96520000D03*
X162560000Y-96520000D03*
X165100000Y-96520000D03*
X167640000Y-96520000D03*
X170180000Y-96520000D03*
X172720000Y-96520000D03*
X175260000Y-96520000D03*
X177800000Y-96520000D03*
X180340000Y-96520000D03*
X182880000Y-96520000D03*
X185420000Y-96520000D03*
X154940000Y-74295000D03*
X157480000Y-74295000D03*
X160020000Y-74295000D03*
X162560000Y-74295000D03*
X165100000Y-74295000D03*
X167640000Y-74295000D03*
X170180000Y-74295000D03*
X172720000Y-74295000D03*
X175260000Y-74295000D03*
X177800000Y-74295000D03*
X180340000Y-74295000D03*
X182880000Y-74295000D03*
X185420000Y-74295000D03*
X185420000Y-76200000D03*
X182880000Y-76200000D03*
X180340000Y-76200000D03*
X177800000Y-76200000D03*
X175260000Y-76200000D03*
X172720000Y-76200000D03*
X170180000Y-76200000D03*
X167640000Y-76200000D03*
X165100000Y-76200000D03*
X162560000Y-76200000D03*
X160020000Y-76200000D03*
X157480000Y-76200000D03*
X154940000Y-76200000D03*
D27*
X157538800Y-85060000D03*
X157538800Y-85710000D03*
X157538800Y-86360000D03*
X157538800Y-87010000D03*
X157538800Y-87660000D03*
D28*
X154863800Y-83135000D03*
X154863800Y-89585000D03*
D29*
X157113800Y-89560000D03*
X157113800Y-83160000D03*
D30*
X179451000Y-93662500D03*
X177165000Y-93789500D03*
X173294000Y-92075000D03*
X173294000Y-90551000D03*
X176088000Y-81915000D03*
X182880000Y-87757000D03*
X182880000Y-86804500D03*
X183705500Y-87757000D03*
X183705500Y-86804500D03*
X156718000Y-92519500D03*
X175133000Y-86614000D03*
X175133000Y-84889000D03*
X173408000Y-84889000D03*
X173408000Y-86614000D03*
D31*
X169671597Y-93653490D03*
X172906888Y-89213888D03*
X176596978Y-89441291D03*
X176588984Y-88780938D03*
D30*
X178054000Y-80454500D03*
X163576000Y-80032860D03*
X160909000Y-83629500D03*
X161417000Y-89344500D03*
X156337000Y-85201200D03*
X154813000Y-91630500D03*
D31*
X162458400Y-94589600D03*
X173373862Y-89680862D03*
X172439914Y-88746914D03*
D32*
X180534000Y-93658000D02*
X179455500Y-93658000D01*
X179455500Y-93658000D02*
X179451000Y-93662500D01*
X177101500Y-92326500D02*
X177101500Y-93726000D01*
X177101500Y-93726000D02*
X177165000Y-93789500D01*
X183705500Y-87757000D02*
X182880000Y-87757000D01*
X183705500Y-86804500D02*
X182880000Y-86804500D01*
X183705500Y-87757000D02*
X183705500Y-88516500D01*
X183705500Y-88516500D02*
X183703000Y-88519000D01*
X183703000Y-86042500D02*
X183703000Y-86802000D01*
X183703000Y-86802000D02*
X183705500Y-86804500D01*
X174020500Y-89824500D02*
X173294000Y-90551000D01*
X173294000Y-90551000D02*
X173294000Y-92075000D01*
X176088000Y-81915000D02*
X175520500Y-82482500D01*
X175520500Y-82482500D02*
X175520500Y-83351500D01*
X156718000Y-91567000D02*
X156718000Y-92519500D01*
X156718000Y-91802000D02*
X156718000Y-91332000D01*
X156718000Y-91871800D02*
X156718000Y-91332000D01*
X157243000Y-91967000D02*
X156883000Y-91967000D01*
X156883000Y-91967000D02*
X156718000Y-91802000D01*
X174020500Y-88151500D02*
X174020500Y-89824500D01*
X174020500Y-88151500D02*
X174020500Y-87226500D01*
X175520500Y-83351500D02*
X175520500Y-84501500D01*
X175520500Y-84501500D02*
X175133000Y-84889000D01*
D33*
X179705000Y-88499000D02*
X181783000Y-88499000D01*
X181783000Y-88499000D02*
X181803000Y-88519000D01*
X179705000Y-88499000D02*
X179305000Y-88499000D01*
X179305000Y-88499000D02*
X178307500Y-87501500D01*
X178307500Y-87501500D02*
X176670500Y-87501500D01*
X179705000Y-85999000D02*
X181759500Y-85999000D01*
X181759500Y-85999000D02*
X181803000Y-86042500D01*
X179705000Y-85999000D02*
X179305000Y-85999000D01*
X179305000Y-85999000D02*
X178302500Y-87001500D01*
X178302500Y-87001500D02*
X177172900Y-87001500D01*
X177172900Y-87001500D02*
X176670500Y-87001500D01*
X169671597Y-93653490D02*
X169014123Y-93655921D01*
X165100000Y-96520000D02*
X165100000Y-96367600D01*
X165100000Y-96367600D02*
X166199399Y-95268201D01*
X166199399Y-95268201D02*
X167289681Y-95268201D01*
X167289681Y-95268201D02*
X167878199Y-94679683D01*
X167878199Y-94679683D02*
X167878199Y-93956719D01*
X167878199Y-93956719D02*
X168178997Y-93655921D01*
X168178997Y-93655921D02*
X169014123Y-93655921D01*
X173164500Y-93662500D02*
X169671597Y-93653490D01*
X173020500Y-88151500D02*
X173020500Y-89100276D01*
X173020500Y-89100276D02*
X172906888Y-89213888D01*
X177101500Y-90426500D02*
X178475500Y-90426500D01*
X178475500Y-90426500D02*
X178689000Y-90213000D01*
X173164500Y-93662500D02*
X173990000Y-94488000D01*
X173990000Y-94488000D02*
X175979982Y-94488000D01*
X175979982Y-94488000D02*
X176497899Y-93970083D01*
X176497899Y-93970083D02*
X176497899Y-91255101D01*
X176497899Y-91255101D02*
X177101500Y-90651500D01*
X177101500Y-90651500D02*
X177101500Y-90426500D01*
X173020500Y-88151500D02*
X172979089Y-88192911D01*
X157538800Y-85710000D02*
X159936000Y-85710000D01*
X159936000Y-85710000D02*
X160048000Y-85598000D01*
X157538800Y-86360000D02*
X159860000Y-86360000D01*
X159860000Y-86360000D02*
X160048000Y-86548000D01*
X180534000Y-91508000D02*
X179444000Y-91508000D01*
X179444000Y-91508000D02*
X178689000Y-92263000D01*
X178689000Y-92263000D02*
X178689000Y-92413000D01*
X175520500Y-88151500D02*
X175520500Y-88537982D01*
X175520500Y-88537982D02*
X176423809Y-89441291D01*
X176423809Y-89441291D02*
X176596978Y-89441291D01*
X176020500Y-88151500D02*
X176020500Y-88212454D01*
X176020500Y-88212454D02*
X176588984Y-88780938D01*
X176020500Y-88151500D02*
X176020500Y-88376500D01*
D32*
X174788479Y-92754801D02*
X174796801Y-92754801D01*
X174796801Y-92754801D02*
X175344000Y-93302000D01*
X175344000Y-93302000D02*
X175344000Y-93662500D01*
X174788479Y-92754801D02*
X166780561Y-92754801D01*
X175110140Y-92433140D02*
X174788479Y-92754801D01*
X176098800Y-91395200D02*
X175419000Y-92075000D01*
X175110140Y-92433140D02*
X175110140Y-92158860D01*
X176098801Y-89709801D02*
X176098801Y-91203600D01*
X175020500Y-88631500D02*
X176098801Y-89709801D01*
X176098801Y-91203600D02*
X176098800Y-91395200D01*
X175344000Y-92225000D02*
X175194000Y-92075000D01*
X175110140Y-92158860D02*
X175194000Y-92075000D01*
X175419000Y-92075000D02*
X175194000Y-92075000D01*
X175020500Y-88151500D02*
X175020500Y-88631500D01*
X166458900Y-92433140D02*
X165354000Y-92433140D01*
X166780561Y-92754801D02*
X166458900Y-92433140D01*
X161417000Y-92767000D02*
X165020140Y-92767000D01*
X160020000Y-96520000D02*
X160020000Y-94164000D01*
X160020000Y-94164000D02*
X161417000Y-92767000D01*
X165020140Y-92767000D02*
X165354000Y-92433140D01*
X178054000Y-80454500D02*
X178054000Y-81849000D01*
X178054000Y-81849000D02*
X177988000Y-81915000D01*
X160909000Y-80815000D02*
X162793860Y-80815000D01*
X162793860Y-80815000D02*
X163576000Y-80032860D01*
X176470000Y-82677000D02*
X177001000Y-82677000D01*
X177001000Y-82677000D02*
X177763000Y-81915000D01*
X177763000Y-81915000D02*
X177988000Y-81915000D01*
X176020500Y-83351500D02*
X176020500Y-83126500D01*
X176020500Y-83126500D02*
X176470000Y-82677000D01*
X160909000Y-83629500D02*
X160909000Y-83015000D01*
X161417000Y-90367000D02*
X161417000Y-89344500D01*
X160909000Y-83015000D02*
X160909000Y-83373000D01*
X158750000Y-90678000D02*
X161106000Y-90678000D01*
X161106000Y-90678000D02*
X161417000Y-90367000D01*
X157243000Y-91167000D02*
X158261000Y-91167000D01*
X158261000Y-91167000D02*
X158750000Y-90678000D01*
X157243000Y-91167000D02*
X157243000Y-91509790D01*
X174520500Y-89877500D02*
X175194000Y-90551000D01*
X175223000Y-90551000D02*
X175448000Y-90551000D01*
X174520500Y-88151500D02*
X174520500Y-89877500D01*
X158716500Y-85060000D02*
X158716500Y-85049700D01*
X158716500Y-85049700D02*
X159118200Y-84648000D01*
X159118200Y-84648000D02*
X160048000Y-84648000D01*
X157538800Y-85060000D02*
X158716500Y-85060000D01*
X157538800Y-85060000D02*
X156478200Y-85060000D01*
X156478200Y-85060000D02*
X156337000Y-85201200D01*
X154863800Y-89585000D02*
X154863800Y-83135000D01*
X157113800Y-89560000D02*
X154888800Y-89560000D01*
X154888800Y-89560000D02*
X154863800Y-89585000D01*
X157113800Y-83160000D02*
X154888800Y-83160000D01*
X154888800Y-83160000D02*
X154863800Y-83135000D01*
X156464000Y-81597500D02*
X155046500Y-81597500D01*
X155046500Y-81597500D02*
X154559000Y-81110000D01*
X154559000Y-81110000D02*
X154559000Y-82830200D01*
X154559000Y-82830200D02*
X154863800Y-83135000D01*
X154813000Y-81364000D02*
X154559000Y-81110000D01*
X155263000Y-83897500D02*
X154813000Y-83447500D01*
D34*
X166421168Y-85869800D02*
X167599668Y-87048300D01*
X167599668Y-87048300D02*
X171298700Y-87048300D01*
X171298700Y-87048300D02*
X171345500Y-87001500D01*
X171345500Y-87001500D02*
X171870500Y-87001500D01*
X163548000Y-85598000D02*
X164485500Y-85598000D01*
X164485500Y-85598000D02*
X164757300Y-85869800D01*
X164757300Y-85869800D02*
X166421168Y-85869800D01*
X166252832Y-86276200D02*
X167431332Y-87454700D01*
X167431332Y-87454700D02*
X171298700Y-87454700D01*
X171298700Y-87454700D02*
X171345500Y-87501500D01*
X171345500Y-87501500D02*
X171870500Y-87501500D01*
X163548000Y-86548000D02*
X164485500Y-86548000D01*
X164485500Y-86548000D02*
X164757300Y-86276200D01*
X164757300Y-86276200D02*
X166252832Y-86276200D01*
D33*
X164676000Y-94589600D02*
X166506800Y-94589600D01*
D32*
X154749500Y-91633000D02*
X155215500Y-91167000D01*
X155215500Y-91167000D02*
X156193000Y-91167000D01*
X154813000Y-91569500D02*
X154749500Y-91633000D01*
D33*
X175260000Y-96520000D02*
X175260000Y-96367600D01*
X175260000Y-96367600D02*
X176987220Y-94640380D01*
X176987220Y-94640380D02*
X183312554Y-94640380D01*
X183312554Y-94640380D02*
X183761162Y-94191772D01*
X178572119Y-85220399D02*
X177291018Y-86501500D01*
X183761162Y-94191772D02*
X183761163Y-90495091D01*
X183761163Y-90495091D02*
X184531601Y-89724653D01*
X184531601Y-89724653D02*
X184531601Y-85484619D01*
X184531601Y-85484619D02*
X184267381Y-85220399D01*
X184267381Y-85220399D02*
X178572119Y-85220399D01*
X177291018Y-86501500D02*
X176670500Y-86501500D01*
X177800000Y-96520000D02*
X177800000Y-96367600D01*
X177169452Y-86001500D02*
X176670500Y-86001500D01*
X177800000Y-96367600D02*
X179222410Y-94945190D01*
X184393638Y-84915590D02*
X178255363Y-84915589D01*
X179222410Y-94945190D02*
X183438810Y-94945190D01*
X183438810Y-94945190D02*
X184065971Y-94318029D01*
X184065971Y-94318029D02*
X184065972Y-90621348D01*
X184065972Y-90621348D02*
X184836411Y-89850909D01*
X184836411Y-89850909D02*
X184836411Y-85358363D01*
X184836411Y-85358363D02*
X184393638Y-84915590D01*
X178255363Y-84915589D02*
X177169452Y-86001500D01*
X184370781Y-90747605D02*
X185141220Y-89977166D01*
X185141220Y-89977166D02*
X185141220Y-85232106D01*
X184370780Y-94445754D02*
X184370781Y-90747605D01*
X183566534Y-95250000D02*
X184370780Y-94445754D01*
X180340000Y-96520000D02*
X180340000Y-96367600D01*
X180340000Y-96367600D02*
X181457600Y-95250000D01*
X181457600Y-95250000D02*
X183566534Y-95250000D01*
X176670500Y-85501500D02*
X177172900Y-85501500D01*
X177172900Y-85501500D02*
X178063619Y-84610781D01*
X178063619Y-84610781D02*
X184519895Y-84610781D01*
X184519895Y-84610781D02*
X185141220Y-85232106D01*
X185446030Y-90103422D02*
X185446030Y-85105850D01*
X184675589Y-94572011D02*
X184675590Y-90873862D01*
X184675590Y-90873862D02*
X185446030Y-90103422D01*
X182880000Y-96520000D02*
X182880000Y-96367600D01*
X182880000Y-96367600D02*
X184675589Y-94572011D01*
X176670500Y-85001500D02*
X177241834Y-85001500D01*
X177241834Y-85001500D02*
X177937363Y-84305971D01*
X177937363Y-84305971D02*
X184646152Y-84305972D01*
X184646152Y-84305972D02*
X185446030Y-85105850D01*
X185750840Y-84979594D02*
X185750840Y-90229678D01*
X185750840Y-90229678D02*
X184980399Y-91000119D01*
X184980399Y-91000119D02*
X184980399Y-94911999D01*
X184980399Y-94911999D02*
X185420000Y-95351600D01*
X185420000Y-95351600D02*
X185420000Y-96520000D01*
X176670500Y-84501500D02*
X177310768Y-84501500D01*
X177310768Y-84501500D02*
X177811105Y-84001163D01*
X177811105Y-84001163D02*
X184772409Y-84001163D01*
X184772409Y-84001163D02*
X185750840Y-84979594D01*
X176670500Y-84001500D02*
X177172900Y-84001500D01*
X177172900Y-84001500D02*
X177478047Y-83696353D01*
X177478047Y-83696353D02*
X179886425Y-83696353D01*
X179886425Y-83696353D02*
X184191399Y-79391379D01*
X184191399Y-77581001D02*
X185420000Y-76352400D01*
X184191399Y-79391379D02*
X184191399Y-77581001D01*
X185420000Y-76352400D02*
X185420000Y-76200000D01*
X173520500Y-89534224D02*
X173373862Y-89680862D01*
X173520500Y-88151500D02*
X173520500Y-89534224D01*
X175020500Y-81596018D02*
X178867107Y-77749411D01*
X178867107Y-77749411D02*
X181482989Y-77749411D01*
X181482989Y-77749411D02*
X182880000Y-76352400D01*
X182880000Y-76352400D02*
X182880000Y-76200000D01*
X175020500Y-83351500D02*
X175020500Y-81596018D01*
X174520500Y-81664952D02*
X178740851Y-77444601D01*
X178740851Y-77444601D02*
X179247799Y-77444601D01*
X179247799Y-77444601D02*
X180340000Y-76352400D01*
X180340000Y-76352400D02*
X180340000Y-76200000D01*
X174520500Y-83351500D02*
X174520500Y-81664952D01*
X177800000Y-77954386D02*
X177800000Y-76200000D01*
X177800000Y-76352400D02*
X177800000Y-76200000D01*
X174020500Y-81733886D02*
X177800000Y-77954386D01*
X174020500Y-83351500D02*
X174020500Y-81733886D01*
X175260000Y-80063320D02*
X175260000Y-76200000D01*
X175260000Y-76352400D02*
X175260000Y-76200000D01*
X173520500Y-81802820D02*
X175260000Y-80063320D01*
X173520500Y-83351500D02*
X173520500Y-81802820D01*
X173020500Y-83351500D02*
X173020500Y-76500500D01*
X173020500Y-76500500D02*
X172720000Y-76200000D01*
X172720000Y-76352400D02*
X172720000Y-76200000D01*
X171196000Y-77368400D02*
X170180000Y-76352400D01*
X170180000Y-76352400D02*
X170180000Y-76200000D01*
X171348400Y-77368400D02*
X171196000Y-77368400D01*
X172520500Y-78540500D02*
X171348400Y-77368400D01*
X172520500Y-83351500D02*
X172520500Y-78540500D01*
X167640000Y-77368400D02*
X167640000Y-76200000D01*
X167640000Y-76352400D02*
X167640000Y-76200000D01*
X167640000Y-79996000D02*
X167640000Y-77368400D01*
X171870500Y-84001500D02*
X171645500Y-84001500D01*
X171645500Y-84001500D02*
X167640000Y-79996000D01*
X165100000Y-77368400D02*
X165100000Y-76200000D01*
X165100000Y-76352400D02*
X165100000Y-76200000D01*
X165100000Y-78117482D02*
X165100000Y-77368400D01*
X171484018Y-84501500D02*
X165100000Y-78117482D01*
X171870500Y-84501500D02*
X171484018Y-84501500D01*
X163576000Y-77368400D02*
X162560000Y-76352400D01*
X162560000Y-76352400D02*
X162560000Y-76200000D01*
X163908008Y-77368400D02*
X163576000Y-77368400D01*
X171870500Y-85001500D02*
X171541108Y-85001500D01*
X171541108Y-85001500D02*
X163908008Y-77368400D01*
X161112210Y-77444610D02*
X160020000Y-76352400D01*
X160020000Y-76352400D02*
X160020000Y-76200000D01*
X163221144Y-77444610D02*
X161112210Y-77444610D01*
X171278034Y-85501500D02*
X163221144Y-77444610D01*
X171870500Y-85501500D02*
X171278034Y-85501500D01*
X157480000Y-76352400D02*
X157480000Y-76200000D01*
X158496000Y-77368400D02*
X157480000Y-76352400D01*
X158496000Y-79975214D02*
X158496000Y-77368400D01*
X160402375Y-81881589D02*
X158496000Y-79975214D01*
X161336845Y-81881589D02*
X160402375Y-81881589D01*
X161816524Y-81401910D02*
X161336845Y-81881589D01*
X166699575Y-81401909D02*
X161816524Y-81401910D01*
X171299166Y-86001500D02*
X166699575Y-81401909D01*
X171870500Y-86001500D02*
X171299166Y-86001500D01*
X158044201Y-79411683D02*
X158044201Y-79306605D01*
X158044201Y-79306605D02*
X158044201Y-78230423D01*
X158044201Y-79954481D02*
X158044201Y-79306605D01*
X158044201Y-78230423D02*
X157258388Y-77444610D01*
X157258388Y-77444610D02*
X156032210Y-77444610D01*
X156032210Y-77444610D02*
X154940000Y-76352400D01*
X154940000Y-76352400D02*
X154940000Y-76200000D01*
X160276119Y-82186399D02*
X158044201Y-79954481D01*
X161463101Y-82186399D02*
X160276119Y-82186399D01*
X171368100Y-86501500D02*
X166573319Y-81706719D01*
X166573319Y-81706719D02*
X161942781Y-81706719D01*
X161942781Y-81706719D02*
X161463101Y-82186399D01*
X171870500Y-86501500D02*
X171368100Y-86501500D01*
X172520500Y-88151500D02*
X172520500Y-88666328D01*
X172520500Y-88666328D02*
X172439914Y-88746914D01*
X172520500Y-88151500D02*
X172520500Y-88376500D01*
G36*
X153843322Y-77216000D02*
X153859262Y-77300714D01*
X153909328Y-77378518D01*
X153985720Y-77430715D01*
X154076400Y-77449078D01*
X155605626Y-77449078D01*
X155816684Y-77660136D01*
X155915568Y-77726208D01*
X155976668Y-77738362D01*
X155967749Y-77742047D01*
X155594358Y-78114787D01*
X155392031Y-78602045D01*
X155391570Y-79129640D01*
X155593047Y-79617251D01*
X155965787Y-79990642D01*
X156453045Y-80192969D01*
X156980640Y-80193430D01*
X157468251Y-79991953D01*
X157739401Y-79721276D01*
X157739401Y-79954481D01*
X157762603Y-80071123D01*
X157828675Y-80170007D01*
X158652568Y-80993900D01*
X158433850Y-80993900D01*
X158376700Y-81051050D01*
X158376700Y-81584800D01*
X159135450Y-81584800D01*
X159189459Y-81530791D01*
X160060593Y-82401925D01*
X160159477Y-82467997D01*
X160225922Y-82481214D01*
X160225922Y-83615000D01*
X160241862Y-83699714D01*
X160291928Y-83777518D01*
X160368320Y-83829715D01*
X160433809Y-83842977D01*
X160467315Y-83924067D01*
X160613662Y-84070670D01*
X160804972Y-84150109D01*
X161012119Y-84150290D01*
X161203567Y-84071185D01*
X161350170Y-83924838D01*
X161383997Y-83843375D01*
X161443714Y-83832138D01*
X161521518Y-83782072D01*
X161573715Y-83705680D01*
X161592078Y-83615000D01*
X161592078Y-83104990D01*
X162547300Y-83104990D01*
X162547300Y-84180431D01*
X162582102Y-84264451D01*
X162646408Y-84328757D01*
X162694400Y-84348636D01*
X162694400Y-84578150D01*
X162751550Y-84635300D01*
X163535300Y-84635300D01*
X163535300Y-84615300D01*
X163560700Y-84615300D01*
X163560700Y-84635300D01*
X164344450Y-84635300D01*
X164401600Y-84578150D01*
X164401600Y-84363560D01*
X164421572Y-84363560D01*
X164505592Y-84328757D01*
X164569898Y-84264451D01*
X164604700Y-84180431D01*
X164604700Y-83104990D01*
X164547550Y-83047840D01*
X163588700Y-83047840D01*
X163588700Y-83067840D01*
X163563300Y-83067840D01*
X163563300Y-83047840D01*
X162604450Y-83047840D01*
X162547300Y-83104990D01*
X161592078Y-83104990D01*
X161592078Y-82459755D01*
X161678627Y-82401925D01*
X162069033Y-82011519D01*
X162547300Y-82011519D01*
X162547300Y-82965290D01*
X162604450Y-83022440D01*
X163563300Y-83022440D01*
X163563300Y-83002440D01*
X163588700Y-83002440D01*
X163588700Y-83022440D01*
X164547550Y-83022440D01*
X164604700Y-82965290D01*
X164604700Y-82011519D01*
X166447067Y-82011519D01*
X170008148Y-85572600D01*
X167671564Y-85572600D01*
X166525482Y-84426518D01*
X166501246Y-84410203D01*
X166471600Y-84404200D01*
X164795200Y-84404200D01*
X164773622Y-84407319D01*
X164746889Y-84421472D01*
X164727769Y-84444910D01*
X164495195Y-84886800D01*
X164401600Y-84886800D01*
X164401600Y-84717850D01*
X164344450Y-84660700D01*
X163560700Y-84660700D01*
X163560700Y-84680700D01*
X163535300Y-84680700D01*
X163535300Y-84660700D01*
X162751550Y-84660700D01*
X162694400Y-84717850D01*
X162694400Y-84993471D01*
X162729202Y-85077491D01*
X162773964Y-85122253D01*
X162760482Y-85130928D01*
X162708285Y-85207320D01*
X162689922Y-85298000D01*
X162689922Y-85898000D01*
X162705862Y-85982714D01*
X162755928Y-86060518D01*
X162773520Y-86072538D01*
X162760482Y-86080928D01*
X162708285Y-86157320D01*
X162689922Y-86248000D01*
X162689922Y-86848000D01*
X162705862Y-86932714D01*
X162755928Y-87010518D01*
X162832320Y-87062715D01*
X162839400Y-87064149D01*
X162839400Y-88138000D01*
X162844611Y-88165695D01*
X162860979Y-88191132D01*
X162885954Y-88208197D01*
X162915600Y-88214200D01*
X164338000Y-88214200D01*
X164356346Y-88210616D01*
X164325300Y-88285569D01*
X164325300Y-89361010D01*
X164382450Y-89418160D01*
X165341300Y-89418160D01*
X165341300Y-88159590D01*
X165366700Y-88159590D01*
X165366700Y-89418160D01*
X166325550Y-89418160D01*
X166382700Y-89361010D01*
X166382700Y-88285569D01*
X166347898Y-88201549D01*
X166283592Y-88137243D01*
X166199572Y-88102440D01*
X165423850Y-88102440D01*
X165366700Y-88159590D01*
X165341300Y-88159590D01*
X165284150Y-88102440D01*
X164508428Y-88102440D01*
X164462158Y-88121606D01*
X164826764Y-87757000D01*
X166186036Y-87757000D01*
X167332118Y-88903082D01*
X167356354Y-88919397D01*
X167386000Y-88925400D01*
X171907200Y-88925400D01*
X171935873Y-88919799D01*
X171961082Y-88903082D01*
X171976073Y-88888091D01*
X172030547Y-89019928D01*
X172166186Y-89155804D01*
X172343498Y-89229430D01*
X172424274Y-89229501D01*
X172424204Y-89309462D01*
X172497521Y-89486902D01*
X172633160Y-89622778D01*
X172810472Y-89696404D01*
X172891248Y-89696475D01*
X172891178Y-89776436D01*
X172943597Y-89903300D01*
X172466000Y-89903300D01*
X172438305Y-89908511D01*
X172412868Y-89924879D01*
X172395803Y-89949854D01*
X172389800Y-89979500D01*
X172389800Y-92373801D01*
X166938376Y-92373801D01*
X166728308Y-92163732D01*
X166604703Y-92081142D01*
X166458900Y-92052140D01*
X166387178Y-92052140D01*
X166387178Y-91333320D01*
X166371238Y-91248606D01*
X166321172Y-91170802D01*
X166244780Y-91118605D01*
X166154100Y-91100242D01*
X164553900Y-91100242D01*
X164469186Y-91116182D01*
X164391382Y-91166248D01*
X164339185Y-91242640D01*
X164320822Y-91333320D01*
X164320822Y-92386000D01*
X163250078Y-92386000D01*
X163250078Y-91867000D01*
X163234138Y-91782286D01*
X163184072Y-91704482D01*
X163107680Y-91652285D01*
X163017000Y-91633922D01*
X159817000Y-91633922D01*
X159732286Y-91649862D01*
X159654482Y-91699928D01*
X159602285Y-91776320D01*
X159583922Y-91867000D01*
X159583922Y-93667000D01*
X159599862Y-93751714D01*
X159649928Y-93829518D01*
X159726320Y-93881715D01*
X159757213Y-93887971D01*
X159750592Y-93894592D01*
X159668002Y-94018197D01*
X159657029Y-94073361D01*
X159639000Y-94164000D01*
X159639000Y-95270922D01*
X159156400Y-95270922D01*
X159071686Y-95286862D01*
X158993882Y-95336928D01*
X158941685Y-95413320D01*
X158923322Y-95504000D01*
X158923322Y-98094800D01*
X158576678Y-98094800D01*
X158576678Y-95504000D01*
X158560738Y-95419286D01*
X158510672Y-95341482D01*
X158434280Y-95289285D01*
X158343600Y-95270922D01*
X157373939Y-95270922D01*
X157468251Y-95231953D01*
X157841642Y-94859213D01*
X158043969Y-94371955D01*
X158044430Y-93844360D01*
X157842953Y-93356749D01*
X157470213Y-92983358D01*
X156982955Y-92781031D01*
X156455360Y-92780570D01*
X155967749Y-92982047D01*
X155594358Y-93354787D01*
X155392031Y-93842045D01*
X155391570Y-94369640D01*
X155593047Y-94857251D01*
X155965787Y-95230642D01*
X156402578Y-95412013D01*
X156401685Y-95413320D01*
X156383322Y-95504000D01*
X156383322Y-98094800D01*
X156032200Y-98094800D01*
X156032200Y-96589850D01*
X155975050Y-96532700D01*
X154952700Y-96532700D01*
X154952700Y-98094800D01*
X154927300Y-98094800D01*
X154927300Y-96532700D01*
X153904950Y-96532700D01*
X153847800Y-96589850D01*
X153847800Y-98094800D01*
X153746200Y-98094800D01*
X153746200Y-95458529D01*
X153847800Y-95458529D01*
X153847800Y-96450150D01*
X153904950Y-96507300D01*
X154927300Y-96507300D01*
X154927300Y-95332550D01*
X154952700Y-95332550D01*
X154952700Y-96507300D01*
X155975050Y-96507300D01*
X156032200Y-96450150D01*
X156032200Y-95458529D01*
X155997398Y-95374509D01*
X155933092Y-95310203D01*
X155849072Y-95275400D01*
X155009850Y-95275400D01*
X154952700Y-95332550D01*
X154927300Y-95332550D01*
X154870150Y-95275400D01*
X154030928Y-95275400D01*
X153946908Y-95310203D01*
X153882602Y-95374509D01*
X153847800Y-95458529D01*
X153746200Y-95458529D01*
X153746200Y-93602850D01*
X154145900Y-93602850D01*
X154145900Y-94178471D01*
X154180702Y-94262491D01*
X154245008Y-94326797D01*
X154329028Y-94361600D01*
X154679650Y-94361600D01*
X154736800Y-94304450D01*
X154736800Y-93545700D01*
X154762200Y-93545700D01*
X154762200Y-94304450D01*
X154819350Y-94361600D01*
X155169972Y-94361600D01*
X155253992Y-94326797D01*
X155318298Y-94262491D01*
X155353100Y-94178471D01*
X155353100Y-93602850D01*
X155295950Y-93545700D01*
X154762200Y-93545700D01*
X154736800Y-93545700D01*
X154203050Y-93545700D01*
X154145900Y-93602850D01*
X153746200Y-93602850D01*
X153746200Y-92887529D01*
X154145900Y-92887529D01*
X154145900Y-93463150D01*
X154203050Y-93520300D01*
X154736800Y-93520300D01*
X154736800Y-92761550D01*
X154762200Y-92761550D01*
X154762200Y-93520300D01*
X155295950Y-93520300D01*
X155353100Y-93463150D01*
X155353100Y-92887529D01*
X155318298Y-92803509D01*
X155253992Y-92739203D01*
X155169972Y-92704400D01*
X154819350Y-92704400D01*
X154762200Y-92761550D01*
X154736800Y-92761550D01*
X154679650Y-92704400D01*
X154329028Y-92704400D01*
X154245008Y-92739203D01*
X154180702Y-92803509D01*
X154145900Y-92887529D01*
X153746200Y-92887529D01*
X153746200Y-92647850D01*
X158146400Y-92647850D01*
X158146400Y-93223471D01*
X158181202Y-93307491D01*
X158245508Y-93371797D01*
X158329528Y-93406600D01*
X158680150Y-93406600D01*
X158737300Y-93349450D01*
X158737300Y-92590700D01*
X158762700Y-92590700D01*
X158762700Y-93349450D01*
X158819850Y-93406600D01*
X159170472Y-93406600D01*
X159254492Y-93371797D01*
X159318798Y-93307491D01*
X159353600Y-93223471D01*
X159353600Y-92647850D01*
X159296450Y-92590700D01*
X158762700Y-92590700D01*
X158737300Y-92590700D01*
X158203550Y-92590700D01*
X158146400Y-92647850D01*
X153746200Y-92647850D01*
X153746200Y-90293866D01*
X153758017Y-90322465D01*
X154124406Y-90689494D01*
X154390346Y-90799922D01*
X154374500Y-90799922D01*
X154289786Y-90815862D01*
X154211982Y-90865928D01*
X154159785Y-90942320D01*
X154141422Y-91033000D01*
X154141422Y-92233000D01*
X154157362Y-92317714D01*
X154207428Y-92395518D01*
X154283820Y-92447715D01*
X154374500Y-92466078D01*
X155124500Y-92466078D01*
X155209214Y-92450138D01*
X155287018Y-92400072D01*
X155339215Y-92323680D01*
X155357578Y-92233000D01*
X155357578Y-91563737D01*
X155373315Y-91548000D01*
X155784922Y-91548000D01*
X155784922Y-91657000D01*
X155800862Y-91741714D01*
X155816819Y-91766512D01*
X155803285Y-91786320D01*
X155784922Y-91877000D01*
X155784922Y-92057000D01*
X155800862Y-92141714D01*
X155850928Y-92219518D01*
X155927320Y-92271715D01*
X156018000Y-92290078D01*
X156339400Y-92290078D01*
X156339400Y-92362472D01*
X156374203Y-92446492D01*
X156438509Y-92510798D01*
X156522529Y-92545600D01*
X156648150Y-92545600D01*
X156705300Y-92488450D01*
X156705300Y-91579700D01*
X156685300Y-91579700D01*
X156685300Y-91554300D01*
X156705300Y-91554300D01*
X156705300Y-90645550D01*
X156730700Y-90645550D01*
X156730700Y-91554300D01*
X156750700Y-91554300D01*
X156750700Y-91579700D01*
X156730700Y-91579700D01*
X156730700Y-92488450D01*
X156787850Y-92545600D01*
X156913471Y-92545600D01*
X156997491Y-92510798D01*
X157061797Y-92446492D01*
X157096600Y-92362472D01*
X157096600Y-92285600D01*
X157173150Y-92285600D01*
X157230300Y-92228450D01*
X157230300Y-91979700D01*
X157255700Y-91979700D01*
X157255700Y-92228450D01*
X157312850Y-92285600D01*
X157463471Y-92285600D01*
X157547491Y-92250798D01*
X157611797Y-92186492D01*
X157646600Y-92102472D01*
X157646600Y-92036850D01*
X157589450Y-91979700D01*
X157255700Y-91979700D01*
X157230300Y-91979700D01*
X157210300Y-91979700D01*
X157210300Y-91954300D01*
X157230300Y-91954300D01*
X157230300Y-91934300D01*
X157255700Y-91934300D01*
X157255700Y-91954300D01*
X157589450Y-91954300D01*
X157611221Y-91932529D01*
X158146400Y-91932529D01*
X158146400Y-92508150D01*
X158203550Y-92565300D01*
X158737300Y-92565300D01*
X158737300Y-91806550D01*
X158762700Y-91806550D01*
X158762700Y-92565300D01*
X159296450Y-92565300D01*
X159353600Y-92508150D01*
X159353600Y-91932529D01*
X159318798Y-91848509D01*
X159254492Y-91784203D01*
X159170472Y-91749400D01*
X158819850Y-91749400D01*
X158762700Y-91806550D01*
X158737300Y-91806550D01*
X158680150Y-91749400D01*
X158329528Y-91749400D01*
X158245508Y-91784203D01*
X158181202Y-91848509D01*
X158146400Y-91932529D01*
X157611221Y-91932529D01*
X157646600Y-91897150D01*
X157646600Y-91831528D01*
X157619736Y-91766675D01*
X157632715Y-91747680D01*
X157651078Y-91657000D01*
X157651078Y-91548000D01*
X158261000Y-91548000D01*
X158406803Y-91518998D01*
X158418656Y-91511078D01*
X159125000Y-91511078D01*
X159209714Y-91495138D01*
X159287518Y-91445072D01*
X159339715Y-91368680D01*
X159358078Y-91278000D01*
X159358078Y-91059000D01*
X159583922Y-91059000D01*
X159583922Y-91267000D01*
X159599862Y-91351714D01*
X159649928Y-91429518D01*
X159726320Y-91481715D01*
X159817000Y-91500078D01*
X163017000Y-91500078D01*
X163101714Y-91484138D01*
X163179518Y-91434072D01*
X163231715Y-91357680D01*
X163250078Y-91267000D01*
X163250078Y-89500710D01*
X164325300Y-89500710D01*
X164325300Y-90576151D01*
X164360102Y-90660171D01*
X164424408Y-90724477D01*
X164508428Y-90759280D01*
X165284150Y-90759280D01*
X165341300Y-90702130D01*
X165341300Y-89443560D01*
X165366700Y-89443560D01*
X165366700Y-90702130D01*
X165423850Y-90759280D01*
X166199572Y-90759280D01*
X166283592Y-90724477D01*
X166347898Y-90660171D01*
X166382700Y-90576151D01*
X166382700Y-89500710D01*
X166325550Y-89443560D01*
X165366700Y-89443560D01*
X165341300Y-89443560D01*
X164382450Y-89443560D01*
X164325300Y-89500710D01*
X163250078Y-89500710D01*
X163250078Y-89467000D01*
X163234138Y-89382286D01*
X163184072Y-89304482D01*
X163107680Y-89252285D01*
X163017000Y-89233922D01*
X161934708Y-89233922D01*
X161858685Y-89049933D01*
X161712338Y-88903330D01*
X161521028Y-88823891D01*
X161313881Y-88823710D01*
X161122433Y-88902815D01*
X160975830Y-89049162D01*
X160899111Y-89233922D01*
X159817000Y-89233922D01*
X159732286Y-89249862D01*
X159654482Y-89299928D01*
X159602285Y-89376320D01*
X159583922Y-89467000D01*
X159583922Y-90297000D01*
X159358078Y-90297000D01*
X159358078Y-90078000D01*
X159342138Y-89993286D01*
X159292072Y-89915482D01*
X159215680Y-89863285D01*
X159125000Y-89844922D01*
X158375000Y-89844922D01*
X158290286Y-89860862D01*
X158212482Y-89910928D01*
X158160285Y-89987320D01*
X158141922Y-90078000D01*
X158141922Y-90747262D01*
X158103184Y-90786000D01*
X157243000Y-90786000D01*
X157097198Y-90815002D01*
X157096600Y-90815402D01*
X157096600Y-90771528D01*
X157061797Y-90687508D01*
X156997491Y-90623202D01*
X156913471Y-90588400D01*
X156787850Y-90588400D01*
X156730700Y-90645550D01*
X156705300Y-90645550D01*
X156648150Y-90588400D01*
X156522529Y-90588400D01*
X156438509Y-90623202D01*
X156374203Y-90687508D01*
X156339400Y-90771528D01*
X156339400Y-90815402D01*
X156338802Y-90815002D01*
X156193000Y-90786000D01*
X155370822Y-90786000D01*
X155601265Y-90690783D01*
X155968294Y-90324394D01*
X156127493Y-89941000D01*
X156380722Y-89941000D01*
X156380722Y-90235000D01*
X156396662Y-90319714D01*
X156446728Y-90397518D01*
X156523120Y-90449715D01*
X156613800Y-90468078D01*
X157613800Y-90468078D01*
X157698514Y-90452138D01*
X157776318Y-90402072D01*
X157828515Y-90325680D01*
X157846878Y-90235000D01*
X157846878Y-88885000D01*
X157830938Y-88800286D01*
X157780872Y-88722482D01*
X157704480Y-88670285D01*
X157613800Y-88651922D01*
X156613800Y-88651922D01*
X156529086Y-88667862D01*
X156451282Y-88717928D01*
X156399085Y-88794320D01*
X156380722Y-88885000D01*
X156380722Y-89179000D01*
X156106541Y-89179000D01*
X155969583Y-88847535D01*
X155603194Y-88480506D01*
X155244800Y-88331688D01*
X155244800Y-87729850D01*
X156635200Y-87729850D01*
X156635200Y-87905472D01*
X156670003Y-87989492D01*
X156734309Y-88053798D01*
X156818329Y-88088600D01*
X157468950Y-88088600D01*
X157526100Y-88031450D01*
X157526100Y-87672700D01*
X157551500Y-87672700D01*
X157551500Y-88031450D01*
X157608650Y-88088600D01*
X158259271Y-88088600D01*
X158343291Y-88053798D01*
X158407597Y-87989492D01*
X158442400Y-87905472D01*
X158442400Y-87729850D01*
X158385250Y-87672700D01*
X157551500Y-87672700D01*
X157526100Y-87672700D01*
X156692350Y-87672700D01*
X156635200Y-87729850D01*
X155244800Y-87729850D01*
X155244800Y-85304319D01*
X155816210Y-85304319D01*
X155895315Y-85495767D01*
X156041662Y-85642370D01*
X156232972Y-85721809D01*
X156440119Y-85721990D01*
X156630722Y-85643234D01*
X156630722Y-85910000D01*
X156646662Y-85994714D01*
X156672561Y-86034962D01*
X156649085Y-86069320D01*
X156630722Y-86160000D01*
X156630722Y-86560000D01*
X156646662Y-86644714D01*
X156672561Y-86684962D01*
X156649085Y-86719320D01*
X156630722Y-86810000D01*
X156630722Y-87210000D01*
X156646662Y-87294714D01*
X156669882Y-87330799D01*
X156635200Y-87414528D01*
X156635200Y-87590150D01*
X156692350Y-87647300D01*
X157526100Y-87647300D01*
X157526100Y-87627300D01*
X157551500Y-87627300D01*
X157551500Y-87647300D01*
X158385250Y-87647300D01*
X158442400Y-87590150D01*
X158442400Y-87414528D01*
X158407800Y-87330997D01*
X158428515Y-87300680D01*
X158446878Y-87210000D01*
X158446878Y-86810000D01*
X158430938Y-86725286D01*
X158405039Y-86685038D01*
X158418867Y-86664800D01*
X159189922Y-86664800D01*
X159189922Y-86848000D01*
X159205862Y-86932714D01*
X159255928Y-87010518D01*
X159332320Y-87062715D01*
X159423000Y-87081078D01*
X160673000Y-87081078D01*
X160757714Y-87065138D01*
X160835518Y-87015072D01*
X160887715Y-86938680D01*
X160906078Y-86848000D01*
X160906078Y-86248000D01*
X160890138Y-86163286D01*
X160840072Y-86085482D01*
X160822480Y-86073462D01*
X160835518Y-86065072D01*
X160887715Y-85988680D01*
X160906078Y-85898000D01*
X160906078Y-85298000D01*
X160890138Y-85213286D01*
X160840072Y-85135482D01*
X160822480Y-85123462D01*
X160835518Y-85115072D01*
X160887715Y-85038680D01*
X160906078Y-84948000D01*
X160906078Y-84348000D01*
X160890138Y-84263286D01*
X160840072Y-84185482D01*
X160763680Y-84133285D01*
X160673000Y-84114922D01*
X159423000Y-84114922D01*
X159338286Y-84130862D01*
X159260482Y-84180928D01*
X159208285Y-84257320D01*
X159206325Y-84267000D01*
X159118205Y-84267000D01*
X159118200Y-84266999D01*
X158984614Y-84293572D01*
X158972398Y-84296002D01*
X158848792Y-84378592D01*
X158848790Y-84378595D01*
X158548384Y-84679000D01*
X158353823Y-84679000D01*
X158304480Y-84645285D01*
X158213800Y-84626922D01*
X156863800Y-84626922D01*
X156779086Y-84642862D01*
X156722927Y-84679000D01*
X156478200Y-84679000D01*
X156450477Y-84684514D01*
X156441028Y-84680591D01*
X156233881Y-84680410D01*
X156042433Y-84759515D01*
X155895830Y-84905862D01*
X155816391Y-85097172D01*
X155816210Y-85304319D01*
X155244800Y-85304319D01*
X155244800Y-84388071D01*
X155601265Y-84240783D01*
X155968294Y-83874394D01*
X156106731Y-83541000D01*
X156380722Y-83541000D01*
X156380722Y-83835000D01*
X156396662Y-83919714D01*
X156446728Y-83997518D01*
X156523120Y-84049715D01*
X156613800Y-84068078D01*
X157613800Y-84068078D01*
X157698514Y-84052138D01*
X157776318Y-84002072D01*
X157828515Y-83925680D01*
X157846878Y-83835000D01*
X157846878Y-82485000D01*
X157830938Y-82400286D01*
X157780872Y-82322482D01*
X157704480Y-82270285D01*
X157613800Y-82251922D01*
X156613800Y-82251922D01*
X156529086Y-82267862D01*
X156451282Y-82317928D01*
X156399085Y-82394320D01*
X156380722Y-82485000D01*
X156380722Y-82779000D01*
X156127201Y-82779000D01*
X155969583Y-82397535D01*
X155730257Y-82157791D01*
X155773320Y-82187215D01*
X155864000Y-82205578D01*
X157064000Y-82205578D01*
X157148714Y-82189638D01*
X157226518Y-82139572D01*
X157278715Y-82063180D01*
X157297078Y-81972500D01*
X157297078Y-81667350D01*
X157535400Y-81667350D01*
X157535400Y-82017972D01*
X157570203Y-82101992D01*
X157634509Y-82166298D01*
X157718529Y-82201100D01*
X158294150Y-82201100D01*
X158351300Y-82143950D01*
X158351300Y-81610200D01*
X158376700Y-81610200D01*
X158376700Y-82143950D01*
X158433850Y-82201100D01*
X159009471Y-82201100D01*
X159093491Y-82166298D01*
X159157797Y-82101992D01*
X159192600Y-82017972D01*
X159192600Y-81667350D01*
X159135450Y-81610200D01*
X158376700Y-81610200D01*
X158351300Y-81610200D01*
X157592550Y-81610200D01*
X157535400Y-81667350D01*
X157297078Y-81667350D01*
X157297078Y-81222500D01*
X157288522Y-81177028D01*
X157535400Y-81177028D01*
X157535400Y-81527650D01*
X157592550Y-81584800D01*
X158351300Y-81584800D01*
X158351300Y-81051050D01*
X158294150Y-80993900D01*
X157718529Y-80993900D01*
X157634509Y-81028702D01*
X157570203Y-81093008D01*
X157535400Y-81177028D01*
X157288522Y-81177028D01*
X157281138Y-81137786D01*
X157231072Y-81059982D01*
X157154680Y-81007785D01*
X157064000Y-80989422D01*
X155864000Y-80989422D01*
X155779286Y-81005362D01*
X155701482Y-81055428D01*
X155649285Y-81131820D01*
X155632137Y-81216500D01*
X155242078Y-81216500D01*
X155242078Y-80510000D01*
X155226138Y-80425286D01*
X155176072Y-80347482D01*
X155099680Y-80295285D01*
X155009000Y-80276922D01*
X154109000Y-80276922D01*
X154024286Y-80292862D01*
X153946482Y-80342928D01*
X153894285Y-80419320D01*
X153875922Y-80510000D01*
X153875922Y-81710000D01*
X153891862Y-81794714D01*
X153941928Y-81872518D01*
X154018320Y-81924715D01*
X154109000Y-81943078D01*
X154178000Y-81943078D01*
X154178000Y-82007869D01*
X154126335Y-82029217D01*
X153759306Y-82395606D01*
X153746200Y-82427169D01*
X153746200Y-78979850D01*
X153880400Y-78979850D01*
X153880400Y-79555471D01*
X153915202Y-79639491D01*
X153979508Y-79703797D01*
X154063528Y-79738600D01*
X154489150Y-79738600D01*
X154546300Y-79681450D01*
X154546300Y-78922700D01*
X154571700Y-78922700D01*
X154571700Y-79681450D01*
X154628850Y-79738600D01*
X155054472Y-79738600D01*
X155138492Y-79703797D01*
X155202798Y-79639491D01*
X155237600Y-79555471D01*
X155237600Y-78979850D01*
X155180450Y-78922700D01*
X154571700Y-78922700D01*
X154546300Y-78922700D01*
X153937550Y-78922700D01*
X153880400Y-78979850D01*
X153746200Y-78979850D01*
X153746200Y-78264529D01*
X153880400Y-78264529D01*
X153880400Y-78840150D01*
X153937550Y-78897300D01*
X154546300Y-78897300D01*
X154546300Y-78138550D01*
X154571700Y-78138550D01*
X154571700Y-78897300D01*
X155180450Y-78897300D01*
X155237600Y-78840150D01*
X155237600Y-78264529D01*
X155202798Y-78180509D01*
X155138492Y-78116203D01*
X155054472Y-78081400D01*
X154628850Y-78081400D01*
X154571700Y-78138550D01*
X154546300Y-78138550D01*
X154489150Y-78081400D01*
X154063528Y-78081400D01*
X153979508Y-78116203D01*
X153915202Y-78180509D01*
X153880400Y-78264529D01*
X153746200Y-78264529D01*
X153746200Y-74625200D01*
X153843322Y-74625200D01*
X153843322Y-77216000D01*
X153843322Y-77216000D01*
G37*
X153843322Y-77216000D02*
X153859262Y-77300714D01*
X153909328Y-77378518D01*
X153985720Y-77430715D01*
X154076400Y-77449078D01*
X155605626Y-77449078D01*
X155816684Y-77660136D01*
X155915568Y-77726208D01*
X155976668Y-77738362D01*
X155967749Y-77742047D01*
X155594358Y-78114787D01*
X155392031Y-78602045D01*
X155391570Y-79129640D01*
X155593047Y-79617251D01*
X155965787Y-79990642D01*
X156453045Y-80192969D01*
X156980640Y-80193430D01*
X157468251Y-79991953D01*
X157739401Y-79721276D01*
X157739401Y-79954481D01*
X157762603Y-80071123D01*
X157828675Y-80170007D01*
X158652568Y-80993900D01*
X158433850Y-80993900D01*
X158376700Y-81051050D01*
X158376700Y-81584800D01*
X159135450Y-81584800D01*
X159189459Y-81530791D01*
X160060593Y-82401925D01*
X160159477Y-82467997D01*
X160225922Y-82481214D01*
X160225922Y-83615000D01*
X160241862Y-83699714D01*
X160291928Y-83777518D01*
X160368320Y-83829715D01*
X160433809Y-83842977D01*
X160467315Y-83924067D01*
X160613662Y-84070670D01*
X160804972Y-84150109D01*
X161012119Y-84150290D01*
X161203567Y-84071185D01*
X161350170Y-83924838D01*
X161383997Y-83843375D01*
X161443714Y-83832138D01*
X161521518Y-83782072D01*
X161573715Y-83705680D01*
X161592078Y-83615000D01*
X161592078Y-83104990D01*
X162547300Y-83104990D01*
X162547300Y-84180431D01*
X162582102Y-84264451D01*
X162646408Y-84328757D01*
X162694400Y-84348636D01*
X162694400Y-84578150D01*
X162751550Y-84635300D01*
X163535300Y-84635300D01*
X163535300Y-84615300D01*
X163560700Y-84615300D01*
X163560700Y-84635300D01*
X164344450Y-84635300D01*
X164401600Y-84578150D01*
X164401600Y-84363560D01*
X164421572Y-84363560D01*
X164505592Y-84328757D01*
X164569898Y-84264451D01*
X164604700Y-84180431D01*
X164604700Y-83104990D01*
X164547550Y-83047840D01*
X163588700Y-83047840D01*
X163588700Y-83067840D01*
X163563300Y-83067840D01*
X163563300Y-83047840D01*
X162604450Y-83047840D01*
X162547300Y-83104990D01*
X161592078Y-83104990D01*
X161592078Y-82459755D01*
X161678627Y-82401925D01*
X162069033Y-82011519D01*
X162547300Y-82011519D01*
X162547300Y-82965290D01*
X162604450Y-83022440D01*
X163563300Y-83022440D01*
X163563300Y-83002440D01*
X163588700Y-83002440D01*
X163588700Y-83022440D01*
X164547550Y-83022440D01*
X164604700Y-82965290D01*
X164604700Y-82011519D01*
X166447067Y-82011519D01*
X170008148Y-85572600D01*
X167671564Y-85572600D01*
X166525482Y-84426518D01*
X166501246Y-84410203D01*
X166471600Y-84404200D01*
X164795200Y-84404200D01*
X164773622Y-84407319D01*
X164746889Y-84421472D01*
X164727769Y-84444910D01*
X164495195Y-84886800D01*
X164401600Y-84886800D01*
X164401600Y-84717850D01*
X164344450Y-84660700D01*
X163560700Y-84660700D01*
X163560700Y-84680700D01*
X163535300Y-84680700D01*
X163535300Y-84660700D01*
X162751550Y-84660700D01*
X162694400Y-84717850D01*
X162694400Y-84993471D01*
X162729202Y-85077491D01*
X162773964Y-85122253D01*
X162760482Y-85130928D01*
X162708285Y-85207320D01*
X162689922Y-85298000D01*
X162689922Y-85898000D01*
X162705862Y-85982714D01*
X162755928Y-86060518D01*
X162773520Y-86072538D01*
X162760482Y-86080928D01*
X162708285Y-86157320D01*
X162689922Y-86248000D01*
X162689922Y-86848000D01*
X162705862Y-86932714D01*
X162755928Y-87010518D01*
X162832320Y-87062715D01*
X162839400Y-87064149D01*
X162839400Y-88138000D01*
X162844611Y-88165695D01*
X162860979Y-88191132D01*
X162885954Y-88208197D01*
X162915600Y-88214200D01*
X164338000Y-88214200D01*
X164356346Y-88210616D01*
X164325300Y-88285569D01*
X164325300Y-89361010D01*
X164382450Y-89418160D01*
X165341300Y-89418160D01*
X165341300Y-88159590D01*
X165366700Y-88159590D01*
X165366700Y-89418160D01*
X166325550Y-89418160D01*
X166382700Y-89361010D01*
X166382700Y-88285569D01*
X166347898Y-88201549D01*
X166283592Y-88137243D01*
X166199572Y-88102440D01*
X165423850Y-88102440D01*
X165366700Y-88159590D01*
X165341300Y-88159590D01*
X165284150Y-88102440D01*
X164508428Y-88102440D01*
X164462158Y-88121606D01*
X164826764Y-87757000D01*
X166186036Y-87757000D01*
X167332118Y-88903082D01*
X167356354Y-88919397D01*
X167386000Y-88925400D01*
X171907200Y-88925400D01*
X171935873Y-88919799D01*
X171961082Y-88903082D01*
X171976073Y-88888091D01*
X172030547Y-89019928D01*
X172166186Y-89155804D01*
X172343498Y-89229430D01*
X172424274Y-89229501D01*
X172424204Y-89309462D01*
X172497521Y-89486902D01*
X172633160Y-89622778D01*
X172810472Y-89696404D01*
X172891248Y-89696475D01*
X172891178Y-89776436D01*
X172943597Y-89903300D01*
X172466000Y-89903300D01*
X172438305Y-89908511D01*
X172412868Y-89924879D01*
X172395803Y-89949854D01*
X172389800Y-89979500D01*
X172389800Y-92373801D01*
X166938376Y-92373801D01*
X166728308Y-92163732D01*
X166604703Y-92081142D01*
X166458900Y-92052140D01*
X166387178Y-92052140D01*
X166387178Y-91333320D01*
X166371238Y-91248606D01*
X166321172Y-91170802D01*
X166244780Y-91118605D01*
X166154100Y-91100242D01*
X164553900Y-91100242D01*
X164469186Y-91116182D01*
X164391382Y-91166248D01*
X164339185Y-91242640D01*
X164320822Y-91333320D01*
X164320822Y-92386000D01*
X163250078Y-92386000D01*
X163250078Y-91867000D01*
X163234138Y-91782286D01*
X163184072Y-91704482D01*
X163107680Y-91652285D01*
X163017000Y-91633922D01*
X159817000Y-91633922D01*
X159732286Y-91649862D01*
X159654482Y-91699928D01*
X159602285Y-91776320D01*
X159583922Y-91867000D01*
X159583922Y-93667000D01*
X159599862Y-93751714D01*
X159649928Y-93829518D01*
X159726320Y-93881715D01*
X159757213Y-93887971D01*
X159750592Y-93894592D01*
X159668002Y-94018197D01*
X159657029Y-94073361D01*
X159639000Y-94164000D01*
X159639000Y-95270922D01*
X159156400Y-95270922D01*
X159071686Y-95286862D01*
X158993882Y-95336928D01*
X158941685Y-95413320D01*
X158923322Y-95504000D01*
X158923322Y-98094800D01*
X158576678Y-98094800D01*
X158576678Y-95504000D01*
X158560738Y-95419286D01*
X158510672Y-95341482D01*
X158434280Y-95289285D01*
X158343600Y-95270922D01*
X157373939Y-95270922D01*
X157468251Y-95231953D01*
X157841642Y-94859213D01*
X158043969Y-94371955D01*
X158044430Y-93844360D01*
X157842953Y-93356749D01*
X157470213Y-92983358D01*
X156982955Y-92781031D01*
X156455360Y-92780570D01*
X155967749Y-92982047D01*
X155594358Y-93354787D01*
X155392031Y-93842045D01*
X155391570Y-94369640D01*
X155593047Y-94857251D01*
X155965787Y-95230642D01*
X156402578Y-95412013D01*
X156401685Y-95413320D01*
X156383322Y-95504000D01*
X156383322Y-98094800D01*
X156032200Y-98094800D01*
X156032200Y-96589850D01*
X155975050Y-96532700D01*
X154952700Y-96532700D01*
X154952700Y-98094800D01*
X154927300Y-98094800D01*
X154927300Y-96532700D01*
X153904950Y-96532700D01*
X153847800Y-96589850D01*
X153847800Y-98094800D01*
X153746200Y-98094800D01*
X153746200Y-95458529D01*
X153847800Y-95458529D01*
X153847800Y-96450150D01*
X153904950Y-96507300D01*
X154927300Y-96507300D01*
X154927300Y-95332550D01*
X154952700Y-95332550D01*
X154952700Y-96507300D01*
X155975050Y-96507300D01*
X156032200Y-96450150D01*
X156032200Y-95458529D01*
X155997398Y-95374509D01*
X155933092Y-95310203D01*
X155849072Y-95275400D01*
X155009850Y-95275400D01*
X154952700Y-95332550D01*
X154927300Y-95332550D01*
X154870150Y-95275400D01*
X154030928Y-95275400D01*
X153946908Y-95310203D01*
X153882602Y-95374509D01*
X153847800Y-95458529D01*
X153746200Y-95458529D01*
X153746200Y-93602850D01*
X154145900Y-93602850D01*
X154145900Y-94178471D01*
X154180702Y-94262491D01*
X154245008Y-94326797D01*
X154329028Y-94361600D01*
X154679650Y-94361600D01*
X154736800Y-94304450D01*
X154736800Y-93545700D01*
X154762200Y-93545700D01*
X154762200Y-94304450D01*
X154819350Y-94361600D01*
X155169972Y-94361600D01*
X155253992Y-94326797D01*
X155318298Y-94262491D01*
X155353100Y-94178471D01*
X155353100Y-93602850D01*
X155295950Y-93545700D01*
X154762200Y-93545700D01*
X154736800Y-93545700D01*
X154203050Y-93545700D01*
X154145900Y-93602850D01*
X153746200Y-93602850D01*
X153746200Y-92887529D01*
X154145900Y-92887529D01*
X154145900Y-93463150D01*
X154203050Y-93520300D01*
X154736800Y-93520300D01*
X154736800Y-92761550D01*
X154762200Y-92761550D01*
X154762200Y-93520300D01*
X155295950Y-93520300D01*
X155353100Y-93463150D01*
X155353100Y-92887529D01*
X155318298Y-92803509D01*
X155253992Y-92739203D01*
X155169972Y-92704400D01*
X154819350Y-92704400D01*
X154762200Y-92761550D01*
X154736800Y-92761550D01*
X154679650Y-92704400D01*
X154329028Y-92704400D01*
X154245008Y-92739203D01*
X154180702Y-92803509D01*
X154145900Y-92887529D01*
X153746200Y-92887529D01*
X153746200Y-92647850D01*
X158146400Y-92647850D01*
X158146400Y-93223471D01*
X158181202Y-93307491D01*
X158245508Y-93371797D01*
X158329528Y-93406600D01*
X158680150Y-93406600D01*
X158737300Y-93349450D01*
X158737300Y-92590700D01*
X158762700Y-92590700D01*
X158762700Y-93349450D01*
X158819850Y-93406600D01*
X159170472Y-93406600D01*
X159254492Y-93371797D01*
X159318798Y-93307491D01*
X159353600Y-93223471D01*
X159353600Y-92647850D01*
X159296450Y-92590700D01*
X158762700Y-92590700D01*
X158737300Y-92590700D01*
X158203550Y-92590700D01*
X158146400Y-92647850D01*
X153746200Y-92647850D01*
X153746200Y-90293866D01*
X153758017Y-90322465D01*
X154124406Y-90689494D01*
X154390346Y-90799922D01*
X154374500Y-90799922D01*
X154289786Y-90815862D01*
X154211982Y-90865928D01*
X154159785Y-90942320D01*
X154141422Y-91033000D01*
X154141422Y-92233000D01*
X154157362Y-92317714D01*
X154207428Y-92395518D01*
X154283820Y-92447715D01*
X154374500Y-92466078D01*
X155124500Y-92466078D01*
X155209214Y-92450138D01*
X155287018Y-92400072D01*
X155339215Y-92323680D01*
X155357578Y-92233000D01*
X155357578Y-91563737D01*
X155373315Y-91548000D01*
X155784922Y-91548000D01*
X155784922Y-91657000D01*
X155800862Y-91741714D01*
X155816819Y-91766512D01*
X155803285Y-91786320D01*
X155784922Y-91877000D01*
X155784922Y-92057000D01*
X155800862Y-92141714D01*
X155850928Y-92219518D01*
X155927320Y-92271715D01*
X156018000Y-92290078D01*
X156339400Y-92290078D01*
X156339400Y-92362472D01*
X156374203Y-92446492D01*
X156438509Y-92510798D01*
X156522529Y-92545600D01*
X156648150Y-92545600D01*
X156705300Y-92488450D01*
X156705300Y-91579700D01*
X156685300Y-91579700D01*
X156685300Y-91554300D01*
X156705300Y-91554300D01*
X156705300Y-90645550D01*
X156730700Y-90645550D01*
X156730700Y-91554300D01*
X156750700Y-91554300D01*
X156750700Y-91579700D01*
X156730700Y-91579700D01*
X156730700Y-92488450D01*
X156787850Y-92545600D01*
X156913471Y-92545600D01*
X156997491Y-92510798D01*
X157061797Y-92446492D01*
X157096600Y-92362472D01*
X157096600Y-92285600D01*
X157173150Y-92285600D01*
X157230300Y-92228450D01*
X157230300Y-91979700D01*
X157255700Y-91979700D01*
X157255700Y-92228450D01*
X157312850Y-92285600D01*
X157463471Y-92285600D01*
X157547491Y-92250798D01*
X157611797Y-92186492D01*
X157646600Y-92102472D01*
X157646600Y-92036850D01*
X157589450Y-91979700D01*
X157255700Y-91979700D01*
X157230300Y-91979700D01*
X157210300Y-91979700D01*
X157210300Y-91954300D01*
X157230300Y-91954300D01*
X157230300Y-91934300D01*
X157255700Y-91934300D01*
X157255700Y-91954300D01*
X157589450Y-91954300D01*
X157611221Y-91932529D01*
X158146400Y-91932529D01*
X158146400Y-92508150D01*
X158203550Y-92565300D01*
X158737300Y-92565300D01*
X158737300Y-91806550D01*
X158762700Y-91806550D01*
X158762700Y-92565300D01*
X159296450Y-92565300D01*
X159353600Y-92508150D01*
X159353600Y-91932529D01*
X159318798Y-91848509D01*
X159254492Y-91784203D01*
X159170472Y-91749400D01*
X158819850Y-91749400D01*
X158762700Y-91806550D01*
X158737300Y-91806550D01*
X158680150Y-91749400D01*
X158329528Y-91749400D01*
X158245508Y-91784203D01*
X158181202Y-91848509D01*
X158146400Y-91932529D01*
X157611221Y-91932529D01*
X157646600Y-91897150D01*
X157646600Y-91831528D01*
X157619736Y-91766675D01*
X157632715Y-91747680D01*
X157651078Y-91657000D01*
X157651078Y-91548000D01*
X158261000Y-91548000D01*
X158406803Y-91518998D01*
X158418656Y-91511078D01*
X159125000Y-91511078D01*
X159209714Y-91495138D01*
X159287518Y-91445072D01*
X159339715Y-91368680D01*
X159358078Y-91278000D01*
X159358078Y-91059000D01*
X159583922Y-91059000D01*
X159583922Y-91267000D01*
X159599862Y-91351714D01*
X159649928Y-91429518D01*
X159726320Y-91481715D01*
X159817000Y-91500078D01*
X163017000Y-91500078D01*
X163101714Y-91484138D01*
X163179518Y-91434072D01*
X163231715Y-91357680D01*
X163250078Y-91267000D01*
X163250078Y-89500710D01*
X164325300Y-89500710D01*
X164325300Y-90576151D01*
X164360102Y-90660171D01*
X164424408Y-90724477D01*
X164508428Y-90759280D01*
X165284150Y-90759280D01*
X165341300Y-90702130D01*
X165341300Y-89443560D01*
X165366700Y-89443560D01*
X165366700Y-90702130D01*
X165423850Y-90759280D01*
X166199572Y-90759280D01*
X166283592Y-90724477D01*
X166347898Y-90660171D01*
X166382700Y-90576151D01*
X166382700Y-89500710D01*
X166325550Y-89443560D01*
X165366700Y-89443560D01*
X165341300Y-89443560D01*
X164382450Y-89443560D01*
X164325300Y-89500710D01*
X163250078Y-89500710D01*
X163250078Y-89467000D01*
X163234138Y-89382286D01*
X163184072Y-89304482D01*
X163107680Y-89252285D01*
X163017000Y-89233922D01*
X161934708Y-89233922D01*
X161858685Y-89049933D01*
X161712338Y-88903330D01*
X161521028Y-88823891D01*
X161313881Y-88823710D01*
X161122433Y-88902815D01*
X160975830Y-89049162D01*
X160899111Y-89233922D01*
X159817000Y-89233922D01*
X159732286Y-89249862D01*
X159654482Y-89299928D01*
X159602285Y-89376320D01*
X159583922Y-89467000D01*
X159583922Y-90297000D01*
X159358078Y-90297000D01*
X159358078Y-90078000D01*
X159342138Y-89993286D01*
X159292072Y-89915482D01*
X159215680Y-89863285D01*
X159125000Y-89844922D01*
X158375000Y-89844922D01*
X158290286Y-89860862D01*
X158212482Y-89910928D01*
X158160285Y-89987320D01*
X158141922Y-90078000D01*
X158141922Y-90747262D01*
X158103184Y-90786000D01*
X157243000Y-90786000D01*
X157097198Y-90815002D01*
X157096600Y-90815402D01*
X157096600Y-90771528D01*
X157061797Y-90687508D01*
X156997491Y-90623202D01*
X156913471Y-90588400D01*
X156787850Y-90588400D01*
X156730700Y-90645550D01*
X156705300Y-90645550D01*
X156648150Y-90588400D01*
X156522529Y-90588400D01*
X156438509Y-90623202D01*
X156374203Y-90687508D01*
X156339400Y-90771528D01*
X156339400Y-90815402D01*
X156338802Y-90815002D01*
X156193000Y-90786000D01*
X155370822Y-90786000D01*
X155601265Y-90690783D01*
X155968294Y-90324394D01*
X156127493Y-89941000D01*
X156380722Y-89941000D01*
X156380722Y-90235000D01*
X156396662Y-90319714D01*
X156446728Y-90397518D01*
X156523120Y-90449715D01*
X156613800Y-90468078D01*
X157613800Y-90468078D01*
X157698514Y-90452138D01*
X157776318Y-90402072D01*
X157828515Y-90325680D01*
X157846878Y-90235000D01*
X157846878Y-88885000D01*
X157830938Y-88800286D01*
X157780872Y-88722482D01*
X157704480Y-88670285D01*
X157613800Y-88651922D01*
X156613800Y-88651922D01*
X156529086Y-88667862D01*
X156451282Y-88717928D01*
X156399085Y-88794320D01*
X156380722Y-88885000D01*
X156380722Y-89179000D01*
X156106541Y-89179000D01*
X155969583Y-88847535D01*
X155603194Y-88480506D01*
X155244800Y-88331688D01*
X155244800Y-87729850D01*
X156635200Y-87729850D01*
X156635200Y-87905472D01*
X156670003Y-87989492D01*
X156734309Y-88053798D01*
X156818329Y-88088600D01*
X157468950Y-88088600D01*
X157526100Y-88031450D01*
X157526100Y-87672700D01*
X157551500Y-87672700D01*
X157551500Y-88031450D01*
X157608650Y-88088600D01*
X158259271Y-88088600D01*
X158343291Y-88053798D01*
X158407597Y-87989492D01*
X158442400Y-87905472D01*
X158442400Y-87729850D01*
X158385250Y-87672700D01*
X157551500Y-87672700D01*
X157526100Y-87672700D01*
X156692350Y-87672700D01*
X156635200Y-87729850D01*
X155244800Y-87729850D01*
X155244800Y-85304319D01*
X155816210Y-85304319D01*
X155895315Y-85495767D01*
X156041662Y-85642370D01*
X156232972Y-85721809D01*
X156440119Y-85721990D01*
X156630722Y-85643234D01*
X156630722Y-85910000D01*
X156646662Y-85994714D01*
X156672561Y-86034962D01*
X156649085Y-86069320D01*
X156630722Y-86160000D01*
X156630722Y-86560000D01*
X156646662Y-86644714D01*
X156672561Y-86684962D01*
X156649085Y-86719320D01*
X156630722Y-86810000D01*
X156630722Y-87210000D01*
X156646662Y-87294714D01*
X156669882Y-87330799D01*
X156635200Y-87414528D01*
X156635200Y-87590150D01*
X156692350Y-87647300D01*
X157526100Y-87647300D01*
X157526100Y-87627300D01*
X157551500Y-87627300D01*
X157551500Y-87647300D01*
X158385250Y-87647300D01*
X158442400Y-87590150D01*
X158442400Y-87414528D01*
X158407800Y-87330997D01*
X158428515Y-87300680D01*
X158446878Y-87210000D01*
X158446878Y-86810000D01*
X158430938Y-86725286D01*
X158405039Y-86685038D01*
X158418867Y-86664800D01*
X159189922Y-86664800D01*
X159189922Y-86848000D01*
X159205862Y-86932714D01*
X159255928Y-87010518D01*
X159332320Y-87062715D01*
X159423000Y-87081078D01*
X160673000Y-87081078D01*
X160757714Y-87065138D01*
X160835518Y-87015072D01*
X160887715Y-86938680D01*
X160906078Y-86848000D01*
X160906078Y-86248000D01*
X160890138Y-86163286D01*
X160840072Y-86085482D01*
X160822480Y-86073462D01*
X160835518Y-86065072D01*
X160887715Y-85988680D01*
X160906078Y-85898000D01*
X160906078Y-85298000D01*
X160890138Y-85213286D01*
X160840072Y-85135482D01*
X160822480Y-85123462D01*
X160835518Y-85115072D01*
X160887715Y-85038680D01*
X160906078Y-84948000D01*
X160906078Y-84348000D01*
X160890138Y-84263286D01*
X160840072Y-84185482D01*
X160763680Y-84133285D01*
X160673000Y-84114922D01*
X159423000Y-84114922D01*
X159338286Y-84130862D01*
X159260482Y-84180928D01*
X159208285Y-84257320D01*
X159206325Y-84267000D01*
X159118205Y-84267000D01*
X159118200Y-84266999D01*
X158984614Y-84293572D01*
X158972398Y-84296002D01*
X158848792Y-84378592D01*
X158848790Y-84378595D01*
X158548384Y-84679000D01*
X158353823Y-84679000D01*
X158304480Y-84645285D01*
X158213800Y-84626922D01*
X156863800Y-84626922D01*
X156779086Y-84642862D01*
X156722927Y-84679000D01*
X156478200Y-84679000D01*
X156450477Y-84684514D01*
X156441028Y-84680591D01*
X156233881Y-84680410D01*
X156042433Y-84759515D01*
X155895830Y-84905862D01*
X155816391Y-85097172D01*
X155816210Y-85304319D01*
X155244800Y-85304319D01*
X155244800Y-84388071D01*
X155601265Y-84240783D01*
X155968294Y-83874394D01*
X156106731Y-83541000D01*
X156380722Y-83541000D01*
X156380722Y-83835000D01*
X156396662Y-83919714D01*
X156446728Y-83997518D01*
X156523120Y-84049715D01*
X156613800Y-84068078D01*
X157613800Y-84068078D01*
X157698514Y-84052138D01*
X157776318Y-84002072D01*
X157828515Y-83925680D01*
X157846878Y-83835000D01*
X157846878Y-82485000D01*
X157830938Y-82400286D01*
X157780872Y-82322482D01*
X157704480Y-82270285D01*
X157613800Y-82251922D01*
X156613800Y-82251922D01*
X156529086Y-82267862D01*
X156451282Y-82317928D01*
X156399085Y-82394320D01*
X156380722Y-82485000D01*
X156380722Y-82779000D01*
X156127201Y-82779000D01*
X155969583Y-82397535D01*
X155730257Y-82157791D01*
X155773320Y-82187215D01*
X155864000Y-82205578D01*
X157064000Y-82205578D01*
X157148714Y-82189638D01*
X157226518Y-82139572D01*
X157278715Y-82063180D01*
X157297078Y-81972500D01*
X157297078Y-81667350D01*
X157535400Y-81667350D01*
X157535400Y-82017972D01*
X157570203Y-82101992D01*
X157634509Y-82166298D01*
X157718529Y-82201100D01*
X158294150Y-82201100D01*
X158351300Y-82143950D01*
X158351300Y-81610200D01*
X158376700Y-81610200D01*
X158376700Y-82143950D01*
X158433850Y-82201100D01*
X159009471Y-82201100D01*
X159093491Y-82166298D01*
X159157797Y-82101992D01*
X159192600Y-82017972D01*
X159192600Y-81667350D01*
X159135450Y-81610200D01*
X158376700Y-81610200D01*
X158351300Y-81610200D01*
X157592550Y-81610200D01*
X157535400Y-81667350D01*
X157297078Y-81667350D01*
X157297078Y-81222500D01*
X157288522Y-81177028D01*
X157535400Y-81177028D01*
X157535400Y-81527650D01*
X157592550Y-81584800D01*
X158351300Y-81584800D01*
X158351300Y-81051050D01*
X158294150Y-80993900D01*
X157718529Y-80993900D01*
X157634509Y-81028702D01*
X157570203Y-81093008D01*
X157535400Y-81177028D01*
X157288522Y-81177028D01*
X157281138Y-81137786D01*
X157231072Y-81059982D01*
X157154680Y-81007785D01*
X157064000Y-80989422D01*
X155864000Y-80989422D01*
X155779286Y-81005362D01*
X155701482Y-81055428D01*
X155649285Y-81131820D01*
X155632137Y-81216500D01*
X155242078Y-81216500D01*
X155242078Y-80510000D01*
X155226138Y-80425286D01*
X155176072Y-80347482D01*
X155099680Y-80295285D01*
X155009000Y-80276922D01*
X154109000Y-80276922D01*
X154024286Y-80292862D01*
X153946482Y-80342928D01*
X153894285Y-80419320D01*
X153875922Y-80510000D01*
X153875922Y-81710000D01*
X153891862Y-81794714D01*
X153941928Y-81872518D01*
X154018320Y-81924715D01*
X154109000Y-81943078D01*
X154178000Y-81943078D01*
X154178000Y-82007869D01*
X154126335Y-82029217D01*
X153759306Y-82395606D01*
X153746200Y-82427169D01*
X153746200Y-78979850D01*
X153880400Y-78979850D01*
X153880400Y-79555471D01*
X153915202Y-79639491D01*
X153979508Y-79703797D01*
X154063528Y-79738600D01*
X154489150Y-79738600D01*
X154546300Y-79681450D01*
X154546300Y-78922700D01*
X154571700Y-78922700D01*
X154571700Y-79681450D01*
X154628850Y-79738600D01*
X155054472Y-79738600D01*
X155138492Y-79703797D01*
X155202798Y-79639491D01*
X155237600Y-79555471D01*
X155237600Y-78979850D01*
X155180450Y-78922700D01*
X154571700Y-78922700D01*
X154546300Y-78922700D01*
X153937550Y-78922700D01*
X153880400Y-78979850D01*
X153746200Y-78979850D01*
X153746200Y-78264529D01*
X153880400Y-78264529D01*
X153880400Y-78840150D01*
X153937550Y-78897300D01*
X154546300Y-78897300D01*
X154546300Y-78138550D01*
X154571700Y-78138550D01*
X154571700Y-78897300D01*
X155180450Y-78897300D01*
X155237600Y-78840150D01*
X155237600Y-78264529D01*
X155202798Y-78180509D01*
X155138492Y-78116203D01*
X155054472Y-78081400D01*
X154628850Y-78081400D01*
X154571700Y-78138550D01*
X154546300Y-78138550D01*
X154489150Y-78081400D01*
X154063528Y-78081400D01*
X153979508Y-78116203D01*
X153915202Y-78180509D01*
X153880400Y-78264529D01*
X153746200Y-78264529D01*
X153746200Y-74625200D01*
X153843322Y-74625200D01*
X153843322Y-77216000D01*
G36*
X184226801Y-89598401D02*
X183545637Y-90279565D01*
X183479565Y-90378449D01*
X183456363Y-90495091D01*
X183456362Y-94065520D01*
X183186302Y-94335580D01*
X176987220Y-94335580D01*
X176870578Y-94358782D01*
X176771694Y-94424854D01*
X175925626Y-95270922D01*
X174396400Y-95270922D01*
X174311686Y-95286862D01*
X174233882Y-95336928D01*
X174181685Y-95413320D01*
X174163322Y-95504000D01*
X174163322Y-98094800D01*
X173816678Y-98094800D01*
X173816678Y-95504000D01*
X173800738Y-95419286D01*
X173750672Y-95341482D01*
X173674280Y-95289285D01*
X173583600Y-95270922D01*
X171856400Y-95270922D01*
X171771686Y-95286862D01*
X171693882Y-95336928D01*
X171641685Y-95413320D01*
X171623322Y-95504000D01*
X171623322Y-98094800D01*
X171276678Y-98094800D01*
X171276678Y-95504000D01*
X171260738Y-95419286D01*
X171210672Y-95341482D01*
X171134280Y-95289285D01*
X171043600Y-95270922D01*
X169316400Y-95270922D01*
X169231686Y-95286862D01*
X169153882Y-95336928D01*
X169101685Y-95413320D01*
X169083322Y-95504000D01*
X169083322Y-98094800D01*
X168736678Y-98094800D01*
X168736678Y-95504000D01*
X168720738Y-95419286D01*
X168670672Y-95341482D01*
X168594280Y-95289285D01*
X168503600Y-95270922D01*
X167718012Y-95270922D01*
X167885716Y-95103218D01*
X167913003Y-95169092D01*
X167977309Y-95233398D01*
X168061329Y-95268200D01*
X168636950Y-95268200D01*
X168694100Y-95211050D01*
X168694100Y-94602300D01*
X168719500Y-94602300D01*
X168719500Y-95211050D01*
X168776650Y-95268200D01*
X169352271Y-95268200D01*
X169436291Y-95233398D01*
X169500597Y-95169092D01*
X169535400Y-95085072D01*
X169535400Y-94659450D01*
X169478250Y-94602300D01*
X168719500Y-94602300D01*
X168694100Y-94602300D01*
X168674100Y-94602300D01*
X168674100Y-94576900D01*
X168694100Y-94576900D01*
X168694100Y-94556900D01*
X168719500Y-94556900D01*
X168719500Y-94576900D01*
X169478250Y-94576900D01*
X169535400Y-94519750D01*
X169535400Y-94119488D01*
X169575181Y-94136006D01*
X169767171Y-94136174D01*
X169944611Y-94062857D01*
X170048386Y-93959263D01*
X172310922Y-93965099D01*
X172310922Y-94112500D01*
X172326862Y-94197214D01*
X172376928Y-94275018D01*
X172453320Y-94327215D01*
X172544000Y-94345578D01*
X173416526Y-94345578D01*
X173774474Y-94703526D01*
X173873358Y-94769598D01*
X173990000Y-94792800D01*
X175979982Y-94792800D01*
X176096624Y-94769598D01*
X176195508Y-94703526D01*
X176713425Y-94185609D01*
X176779497Y-94086725D01*
X176802699Y-93970083D01*
X176802699Y-93727850D01*
X179780400Y-93727850D01*
X179780400Y-94028472D01*
X179815203Y-94112492D01*
X179879509Y-94176798D01*
X179963529Y-94211600D01*
X180464150Y-94211600D01*
X180521300Y-94154450D01*
X180521300Y-93670700D01*
X180546700Y-93670700D01*
X180546700Y-94154450D01*
X180603850Y-94211600D01*
X181104471Y-94211600D01*
X181188491Y-94176798D01*
X181252797Y-94112492D01*
X181287600Y-94028472D01*
X181287600Y-93727850D01*
X181230450Y-93670700D01*
X180546700Y-93670700D01*
X180521300Y-93670700D01*
X179837550Y-93670700D01*
X179780400Y-93727850D01*
X176802699Y-93727850D01*
X176802699Y-93287528D01*
X179780400Y-93287528D01*
X179780400Y-93588150D01*
X179837550Y-93645300D01*
X180521300Y-93645300D01*
X180521300Y-93161550D01*
X180546700Y-93161550D01*
X180546700Y-93645300D01*
X181230450Y-93645300D01*
X181287600Y-93588150D01*
X181287600Y-93287528D01*
X181252797Y-93203508D01*
X181188491Y-93139202D01*
X181104471Y-93104400D01*
X180603850Y-93104400D01*
X180546700Y-93161550D01*
X180521300Y-93161550D01*
X180464150Y-93104400D01*
X179963529Y-93104400D01*
X179879509Y-93139202D01*
X179815203Y-93203508D01*
X179780400Y-93287528D01*
X176802699Y-93287528D01*
X176802699Y-93155100D01*
X177031650Y-93155100D01*
X177088800Y-93097950D01*
X177088800Y-92339200D01*
X177114200Y-92339200D01*
X177114200Y-93097950D01*
X177171350Y-93155100D01*
X177521972Y-93155100D01*
X177605992Y-93120297D01*
X177670298Y-93055991D01*
X177705100Y-92971971D01*
X177705100Y-92396350D01*
X177647950Y-92339200D01*
X177114200Y-92339200D01*
X177088800Y-92339200D01*
X177068800Y-92339200D01*
X177068800Y-92313800D01*
X177088800Y-92313800D01*
X177088800Y-91555050D01*
X177114200Y-91555050D01*
X177114200Y-92313800D01*
X177647950Y-92313800D01*
X177705100Y-92256650D01*
X177705100Y-91813000D01*
X178005922Y-91813000D01*
X178005922Y-93013000D01*
X178021862Y-93097714D01*
X178071928Y-93175518D01*
X178148320Y-93227715D01*
X178239000Y-93246078D01*
X179139000Y-93246078D01*
X179223714Y-93230138D01*
X179301518Y-93180072D01*
X179353715Y-93103680D01*
X179372078Y-93013000D01*
X179372078Y-92010974D01*
X179570252Y-91812800D01*
X179775922Y-91812800D01*
X179775922Y-91833000D01*
X179791862Y-91917714D01*
X179841928Y-91995518D01*
X179918320Y-92047715D01*
X180009000Y-92066078D01*
X181059000Y-92066078D01*
X181143714Y-92050138D01*
X181221518Y-92000072D01*
X181273715Y-91923680D01*
X181292078Y-91833000D01*
X181292078Y-91183000D01*
X181276138Y-91098286D01*
X181226072Y-91020482D01*
X181149680Y-90968285D01*
X181059000Y-90949922D01*
X180009000Y-90949922D01*
X179924286Y-90965862D01*
X179846482Y-91015928D01*
X179794285Y-91092320D01*
X179775922Y-91183000D01*
X179775922Y-91203200D01*
X179444000Y-91203200D01*
X179327358Y-91226402D01*
X179228474Y-91292474D01*
X178941026Y-91579922D01*
X178239000Y-91579922D01*
X178154286Y-91595862D01*
X178076482Y-91645928D01*
X178024285Y-91722320D01*
X178005922Y-91813000D01*
X177705100Y-91813000D01*
X177705100Y-91681029D01*
X177670298Y-91597009D01*
X177605992Y-91532703D01*
X177521972Y-91497900D01*
X177171350Y-91497900D01*
X177114200Y-91555050D01*
X177088800Y-91555050D01*
X177031650Y-91497900D01*
X176802699Y-91497900D01*
X176802699Y-91381353D01*
X176924474Y-91259578D01*
X177476500Y-91259578D01*
X177561214Y-91243638D01*
X177639018Y-91193572D01*
X177691215Y-91117180D01*
X177709578Y-91026500D01*
X177709578Y-90731300D01*
X178005922Y-90731300D01*
X178005922Y-90813000D01*
X178021862Y-90897714D01*
X178071928Y-90975518D01*
X178148320Y-91027715D01*
X178239000Y-91046078D01*
X179139000Y-91046078D01*
X179223714Y-91030138D01*
X179301518Y-90980072D01*
X179353715Y-90903680D01*
X179372078Y-90813000D01*
X179372078Y-89613000D01*
X179356138Y-89528286D01*
X179306072Y-89450482D01*
X179262485Y-89420700D01*
X184226801Y-89420700D01*
X184226801Y-89598401D01*
X184226801Y-89598401D01*
G37*
X184226801Y-89598401D02*
X183545637Y-90279565D01*
X183479565Y-90378449D01*
X183456363Y-90495091D01*
X183456362Y-94065520D01*
X183186302Y-94335580D01*
X176987220Y-94335580D01*
X176870578Y-94358782D01*
X176771694Y-94424854D01*
X175925626Y-95270922D01*
X174396400Y-95270922D01*
X174311686Y-95286862D01*
X174233882Y-95336928D01*
X174181685Y-95413320D01*
X174163322Y-95504000D01*
X174163322Y-98094800D01*
X173816678Y-98094800D01*
X173816678Y-95504000D01*
X173800738Y-95419286D01*
X173750672Y-95341482D01*
X173674280Y-95289285D01*
X173583600Y-95270922D01*
X171856400Y-95270922D01*
X171771686Y-95286862D01*
X171693882Y-95336928D01*
X171641685Y-95413320D01*
X171623322Y-95504000D01*
X171623322Y-98094800D01*
X171276678Y-98094800D01*
X171276678Y-95504000D01*
X171260738Y-95419286D01*
X171210672Y-95341482D01*
X171134280Y-95289285D01*
X171043600Y-95270922D01*
X169316400Y-95270922D01*
X169231686Y-95286862D01*
X169153882Y-95336928D01*
X169101685Y-95413320D01*
X169083322Y-95504000D01*
X169083322Y-98094800D01*
X168736678Y-98094800D01*
X168736678Y-95504000D01*
X168720738Y-95419286D01*
X168670672Y-95341482D01*
X168594280Y-95289285D01*
X168503600Y-95270922D01*
X167718012Y-95270922D01*
X167885716Y-95103218D01*
X167913003Y-95169092D01*
X167977309Y-95233398D01*
X168061329Y-95268200D01*
X168636950Y-95268200D01*
X168694100Y-95211050D01*
X168694100Y-94602300D01*
X168719500Y-94602300D01*
X168719500Y-95211050D01*
X168776650Y-95268200D01*
X169352271Y-95268200D01*
X169436291Y-95233398D01*
X169500597Y-95169092D01*
X169535400Y-95085072D01*
X169535400Y-94659450D01*
X169478250Y-94602300D01*
X168719500Y-94602300D01*
X168694100Y-94602300D01*
X168674100Y-94602300D01*
X168674100Y-94576900D01*
X168694100Y-94576900D01*
X168694100Y-94556900D01*
X168719500Y-94556900D01*
X168719500Y-94576900D01*
X169478250Y-94576900D01*
X169535400Y-94519750D01*
X169535400Y-94119488D01*
X169575181Y-94136006D01*
X169767171Y-94136174D01*
X169944611Y-94062857D01*
X170048386Y-93959263D01*
X172310922Y-93965099D01*
X172310922Y-94112500D01*
X172326862Y-94197214D01*
X172376928Y-94275018D01*
X172453320Y-94327215D01*
X172544000Y-94345578D01*
X173416526Y-94345578D01*
X173774474Y-94703526D01*
X173873358Y-94769598D01*
X173990000Y-94792800D01*
X175979982Y-94792800D01*
X176096624Y-94769598D01*
X176195508Y-94703526D01*
X176713425Y-94185609D01*
X176779497Y-94086725D01*
X176802699Y-93970083D01*
X176802699Y-93727850D01*
X179780400Y-93727850D01*
X179780400Y-94028472D01*
X179815203Y-94112492D01*
X179879509Y-94176798D01*
X179963529Y-94211600D01*
X180464150Y-94211600D01*
X180521300Y-94154450D01*
X180521300Y-93670700D01*
X180546700Y-93670700D01*
X180546700Y-94154450D01*
X180603850Y-94211600D01*
X181104471Y-94211600D01*
X181188491Y-94176798D01*
X181252797Y-94112492D01*
X181287600Y-94028472D01*
X181287600Y-93727850D01*
X181230450Y-93670700D01*
X180546700Y-93670700D01*
X180521300Y-93670700D01*
X179837550Y-93670700D01*
X179780400Y-93727850D01*
X176802699Y-93727850D01*
X176802699Y-93287528D01*
X179780400Y-93287528D01*
X179780400Y-93588150D01*
X179837550Y-93645300D01*
X180521300Y-93645300D01*
X180521300Y-93161550D01*
X180546700Y-93161550D01*
X180546700Y-93645300D01*
X181230450Y-93645300D01*
X181287600Y-93588150D01*
X181287600Y-93287528D01*
X181252797Y-93203508D01*
X181188491Y-93139202D01*
X181104471Y-93104400D01*
X180603850Y-93104400D01*
X180546700Y-93161550D01*
X180521300Y-93161550D01*
X180464150Y-93104400D01*
X179963529Y-93104400D01*
X179879509Y-93139202D01*
X179815203Y-93203508D01*
X179780400Y-93287528D01*
X176802699Y-93287528D01*
X176802699Y-93155100D01*
X177031650Y-93155100D01*
X177088800Y-93097950D01*
X177088800Y-92339200D01*
X177114200Y-92339200D01*
X177114200Y-93097950D01*
X177171350Y-93155100D01*
X177521972Y-93155100D01*
X177605992Y-93120297D01*
X177670298Y-93055991D01*
X177705100Y-92971971D01*
X177705100Y-92396350D01*
X177647950Y-92339200D01*
X177114200Y-92339200D01*
X177088800Y-92339200D01*
X177068800Y-92339200D01*
X177068800Y-92313800D01*
X177088800Y-92313800D01*
X177088800Y-91555050D01*
X177114200Y-91555050D01*
X177114200Y-92313800D01*
X177647950Y-92313800D01*
X177705100Y-92256650D01*
X177705100Y-91813000D01*
X178005922Y-91813000D01*
X178005922Y-93013000D01*
X178021862Y-93097714D01*
X178071928Y-93175518D01*
X178148320Y-93227715D01*
X178239000Y-93246078D01*
X179139000Y-93246078D01*
X179223714Y-93230138D01*
X179301518Y-93180072D01*
X179353715Y-93103680D01*
X179372078Y-93013000D01*
X179372078Y-92010974D01*
X179570252Y-91812800D01*
X179775922Y-91812800D01*
X179775922Y-91833000D01*
X179791862Y-91917714D01*
X179841928Y-91995518D01*
X179918320Y-92047715D01*
X180009000Y-92066078D01*
X181059000Y-92066078D01*
X181143714Y-92050138D01*
X181221518Y-92000072D01*
X181273715Y-91923680D01*
X181292078Y-91833000D01*
X181292078Y-91183000D01*
X181276138Y-91098286D01*
X181226072Y-91020482D01*
X181149680Y-90968285D01*
X181059000Y-90949922D01*
X180009000Y-90949922D01*
X179924286Y-90965862D01*
X179846482Y-91015928D01*
X179794285Y-91092320D01*
X179775922Y-91183000D01*
X179775922Y-91203200D01*
X179444000Y-91203200D01*
X179327358Y-91226402D01*
X179228474Y-91292474D01*
X178941026Y-91579922D01*
X178239000Y-91579922D01*
X178154286Y-91595862D01*
X178076482Y-91645928D01*
X178024285Y-91722320D01*
X178005922Y-91813000D01*
X177705100Y-91813000D01*
X177705100Y-91681029D01*
X177670298Y-91597009D01*
X177605992Y-91532703D01*
X177521972Y-91497900D01*
X177171350Y-91497900D01*
X177114200Y-91555050D01*
X177088800Y-91555050D01*
X177031650Y-91497900D01*
X176802699Y-91497900D01*
X176802699Y-91381353D01*
X176924474Y-91259578D01*
X177476500Y-91259578D01*
X177561214Y-91243638D01*
X177639018Y-91193572D01*
X177691215Y-91117180D01*
X177709578Y-91026500D01*
X177709578Y-90731300D01*
X178005922Y-90731300D01*
X178005922Y-90813000D01*
X178021862Y-90897714D01*
X178071928Y-90975518D01*
X178148320Y-91027715D01*
X178239000Y-91046078D01*
X179139000Y-91046078D01*
X179223714Y-91030138D01*
X179301518Y-90980072D01*
X179353715Y-90903680D01*
X179372078Y-90813000D01*
X179372078Y-89613000D01*
X179356138Y-89528286D01*
X179306072Y-89450482D01*
X179262485Y-89420700D01*
X184226801Y-89420700D01*
X184226801Y-89598401D01*
G36*
X174033200Y-88138800D02*
X174053200Y-88138800D01*
X174053200Y-88164200D01*
X174033200Y-88164200D01*
X174033200Y-88672950D01*
X174090350Y-88730100D01*
X174139500Y-88730100D01*
X174139500Y-89877500D01*
X174168502Y-90023303D01*
X174251092Y-90146908D01*
X174360922Y-90256738D01*
X174360922Y-90926000D01*
X174376862Y-91010714D01*
X174426928Y-91088518D01*
X174503320Y-91140715D01*
X174594000Y-91159078D01*
X175717801Y-91159078D01*
X175717801Y-91237384D01*
X175488262Y-91466922D01*
X174594000Y-91466922D01*
X174509286Y-91482862D01*
X174431482Y-91532928D01*
X174379285Y-91609320D01*
X174360922Y-91700000D01*
X174360922Y-92373801D01*
X174122600Y-92373801D01*
X174122600Y-92144850D01*
X174065450Y-92087700D01*
X173306700Y-92087700D01*
X173306700Y-92107700D01*
X173281300Y-92107700D01*
X173281300Y-92087700D01*
X173261300Y-92087700D01*
X173261300Y-92062300D01*
X173281300Y-92062300D01*
X173281300Y-91528550D01*
X173306700Y-91528550D01*
X173306700Y-92062300D01*
X174065450Y-92062300D01*
X174122600Y-92005150D01*
X174122600Y-91654528D01*
X174087797Y-91570508D01*
X174023491Y-91506202D01*
X173939471Y-91471400D01*
X173363850Y-91471400D01*
X173306700Y-91528550D01*
X173281300Y-91528550D01*
X173224150Y-91471400D01*
X172732700Y-91471400D01*
X172732700Y-91154600D01*
X173224150Y-91154600D01*
X173281300Y-91097450D01*
X173281300Y-90563700D01*
X173306700Y-90563700D01*
X173306700Y-91097450D01*
X173363850Y-91154600D01*
X173939471Y-91154600D01*
X174023491Y-91119798D01*
X174087797Y-91055492D01*
X174122600Y-90971472D01*
X174122600Y-90620850D01*
X174065450Y-90563700D01*
X173306700Y-90563700D01*
X173281300Y-90563700D01*
X173261300Y-90563700D01*
X173261300Y-90538300D01*
X173281300Y-90538300D01*
X173281300Y-90518300D01*
X173306700Y-90518300D01*
X173306700Y-90538300D01*
X174065450Y-90538300D01*
X174122600Y-90481150D01*
X174122600Y-90130528D01*
X174087797Y-90046508D01*
X174023491Y-89982202D01*
X173939471Y-89947400D01*
X173939200Y-89947400D01*
X173939200Y-88730100D01*
X173950650Y-88730100D01*
X174007800Y-88672950D01*
X174007800Y-88164200D01*
X173987800Y-88164200D01*
X173987800Y-88138800D01*
X174007800Y-88138800D01*
X174007800Y-88118800D01*
X174033200Y-88118800D01*
X174033200Y-88138800D01*
X174033200Y-88138800D01*
G37*
X174033200Y-88138800D02*
X174053200Y-88138800D01*
X174053200Y-88164200D01*
X174033200Y-88164200D01*
X174033200Y-88672950D01*
X174090350Y-88730100D01*
X174139500Y-88730100D01*
X174139500Y-89877500D01*
X174168502Y-90023303D01*
X174251092Y-90146908D01*
X174360922Y-90256738D01*
X174360922Y-90926000D01*
X174376862Y-91010714D01*
X174426928Y-91088518D01*
X174503320Y-91140715D01*
X174594000Y-91159078D01*
X175717801Y-91159078D01*
X175717801Y-91237384D01*
X175488262Y-91466922D01*
X174594000Y-91466922D01*
X174509286Y-91482862D01*
X174431482Y-91532928D01*
X174379285Y-91609320D01*
X174360922Y-91700000D01*
X174360922Y-92373801D01*
X174122600Y-92373801D01*
X174122600Y-92144850D01*
X174065450Y-92087700D01*
X173306700Y-92087700D01*
X173306700Y-92107700D01*
X173281300Y-92107700D01*
X173281300Y-92087700D01*
X173261300Y-92087700D01*
X173261300Y-92062300D01*
X173281300Y-92062300D01*
X173281300Y-91528550D01*
X173306700Y-91528550D01*
X173306700Y-92062300D01*
X174065450Y-92062300D01*
X174122600Y-92005150D01*
X174122600Y-91654528D01*
X174087797Y-91570508D01*
X174023491Y-91506202D01*
X173939471Y-91471400D01*
X173363850Y-91471400D01*
X173306700Y-91528550D01*
X173281300Y-91528550D01*
X173224150Y-91471400D01*
X172732700Y-91471400D01*
X172732700Y-91154600D01*
X173224150Y-91154600D01*
X173281300Y-91097450D01*
X173281300Y-90563700D01*
X173306700Y-90563700D01*
X173306700Y-91097450D01*
X173363850Y-91154600D01*
X173939471Y-91154600D01*
X174023491Y-91119798D01*
X174087797Y-91055492D01*
X174122600Y-90971472D01*
X174122600Y-90620850D01*
X174065450Y-90563700D01*
X173306700Y-90563700D01*
X173281300Y-90563700D01*
X173261300Y-90563700D01*
X173261300Y-90538300D01*
X173281300Y-90538300D01*
X173281300Y-90518300D01*
X173306700Y-90518300D01*
X173306700Y-90538300D01*
X174065450Y-90538300D01*
X174122600Y-90481150D01*
X174122600Y-90130528D01*
X174087797Y-90046508D01*
X174023491Y-89982202D01*
X173939471Y-89947400D01*
X173939200Y-89947400D01*
X173939200Y-88730100D01*
X173950650Y-88730100D01*
X174007800Y-88672950D01*
X174007800Y-88164200D01*
X173987800Y-88164200D01*
X173987800Y-88138800D01*
X174007800Y-88138800D01*
X174007800Y-88118800D01*
X174033200Y-88118800D01*
X174033200Y-88138800D01*
G36*
X182909203Y-85538008D02*
X182874400Y-85622028D01*
X182874400Y-85972650D01*
X182931550Y-86029800D01*
X183690300Y-86029800D01*
X183690300Y-86009800D01*
X183715700Y-86009800D01*
X183715700Y-86029800D01*
X183735700Y-86029800D01*
X183735700Y-86055200D01*
X183715700Y-86055200D01*
X183715700Y-86588950D01*
X183772850Y-86646100D01*
X184226801Y-86646100D01*
X184226801Y-87915400D01*
X183772850Y-87915400D01*
X183715700Y-87972550D01*
X183715700Y-88506300D01*
X183735700Y-88506300D01*
X183735700Y-88531700D01*
X183715700Y-88531700D01*
X183715700Y-88551700D01*
X183690300Y-88551700D01*
X183690300Y-88531700D01*
X182931550Y-88531700D01*
X182874400Y-88588850D01*
X182874400Y-88939472D01*
X182909203Y-89023492D01*
X182963511Y-89077800D01*
X182539522Y-89077800D01*
X182565518Y-89061072D01*
X182617715Y-88984680D01*
X182636078Y-88894000D01*
X182636078Y-88144000D01*
X182627522Y-88098528D01*
X182874400Y-88098528D01*
X182874400Y-88449150D01*
X182931550Y-88506300D01*
X183690300Y-88506300D01*
X183690300Y-87972550D01*
X183633150Y-87915400D01*
X183057529Y-87915400D01*
X182973509Y-87950202D01*
X182909203Y-88014508D01*
X182874400Y-88098528D01*
X182627522Y-88098528D01*
X182620138Y-88059286D01*
X182570072Y-87981482D01*
X182493680Y-87929285D01*
X182403000Y-87910922D01*
X181203000Y-87910922D01*
X181118286Y-87926862D01*
X181040482Y-87976928D01*
X180988285Y-88053320D01*
X180969922Y-88144000D01*
X180969922Y-88194200D01*
X180888078Y-88194200D01*
X180888078Y-87949000D01*
X180872138Y-87864286D01*
X180822072Y-87786482D01*
X180745680Y-87734285D01*
X180655000Y-87715922D01*
X178952974Y-87715922D01*
X178523026Y-87285974D01*
X178468932Y-87249830D01*
X178518026Y-87217026D01*
X178952974Y-86782078D01*
X180655000Y-86782078D01*
X180739714Y-86766138D01*
X180817518Y-86716072D01*
X180869715Y-86639680D01*
X180888078Y-86549000D01*
X180888078Y-86303800D01*
X180969922Y-86303800D01*
X180969922Y-86417500D01*
X180985862Y-86502214D01*
X181035928Y-86580018D01*
X181112320Y-86632215D01*
X181203000Y-86650578D01*
X182403000Y-86650578D01*
X182487714Y-86634638D01*
X182565518Y-86584572D01*
X182617715Y-86508180D01*
X182636078Y-86417500D01*
X182636078Y-86112350D01*
X182874400Y-86112350D01*
X182874400Y-86462972D01*
X182909203Y-86546992D01*
X182973509Y-86611298D01*
X183057529Y-86646100D01*
X183633150Y-86646100D01*
X183690300Y-86588950D01*
X183690300Y-86055200D01*
X182931550Y-86055200D01*
X182874400Y-86112350D01*
X182636078Y-86112350D01*
X182636078Y-85667500D01*
X182620138Y-85582786D01*
X182583081Y-85525199D01*
X182922012Y-85525199D01*
X182909203Y-85538008D01*
X182909203Y-85538008D01*
G37*
X182909203Y-85538008D02*
X182874400Y-85622028D01*
X182874400Y-85972650D01*
X182931550Y-86029800D01*
X183690300Y-86029800D01*
X183690300Y-86009800D01*
X183715700Y-86009800D01*
X183715700Y-86029800D01*
X183735700Y-86029800D01*
X183735700Y-86055200D01*
X183715700Y-86055200D01*
X183715700Y-86588950D01*
X183772850Y-86646100D01*
X184226801Y-86646100D01*
X184226801Y-87915400D01*
X183772850Y-87915400D01*
X183715700Y-87972550D01*
X183715700Y-88506300D01*
X183735700Y-88506300D01*
X183735700Y-88531700D01*
X183715700Y-88531700D01*
X183715700Y-88551700D01*
X183690300Y-88551700D01*
X183690300Y-88531700D01*
X182931550Y-88531700D01*
X182874400Y-88588850D01*
X182874400Y-88939472D01*
X182909203Y-89023492D01*
X182963511Y-89077800D01*
X182539522Y-89077800D01*
X182565518Y-89061072D01*
X182617715Y-88984680D01*
X182636078Y-88894000D01*
X182636078Y-88144000D01*
X182627522Y-88098528D01*
X182874400Y-88098528D01*
X182874400Y-88449150D01*
X182931550Y-88506300D01*
X183690300Y-88506300D01*
X183690300Y-87972550D01*
X183633150Y-87915400D01*
X183057529Y-87915400D01*
X182973509Y-87950202D01*
X182909203Y-88014508D01*
X182874400Y-88098528D01*
X182627522Y-88098528D01*
X182620138Y-88059286D01*
X182570072Y-87981482D01*
X182493680Y-87929285D01*
X182403000Y-87910922D01*
X181203000Y-87910922D01*
X181118286Y-87926862D01*
X181040482Y-87976928D01*
X180988285Y-88053320D01*
X180969922Y-88144000D01*
X180969922Y-88194200D01*
X180888078Y-88194200D01*
X180888078Y-87949000D01*
X180872138Y-87864286D01*
X180822072Y-87786482D01*
X180745680Y-87734285D01*
X180655000Y-87715922D01*
X178952974Y-87715922D01*
X178523026Y-87285974D01*
X178468932Y-87249830D01*
X178518026Y-87217026D01*
X178952974Y-86782078D01*
X180655000Y-86782078D01*
X180739714Y-86766138D01*
X180817518Y-86716072D01*
X180869715Y-86639680D01*
X180888078Y-86549000D01*
X180888078Y-86303800D01*
X180969922Y-86303800D01*
X180969922Y-86417500D01*
X180985862Y-86502214D01*
X181035928Y-86580018D01*
X181112320Y-86632215D01*
X181203000Y-86650578D01*
X182403000Y-86650578D01*
X182487714Y-86634638D01*
X182565518Y-86584572D01*
X182617715Y-86508180D01*
X182636078Y-86417500D01*
X182636078Y-86112350D01*
X182874400Y-86112350D01*
X182874400Y-86462972D01*
X182909203Y-86546992D01*
X182973509Y-86611298D01*
X183057529Y-86646100D01*
X183633150Y-86646100D01*
X183690300Y-86588950D01*
X183690300Y-86055200D01*
X182931550Y-86055200D01*
X182874400Y-86112350D01*
X182636078Y-86112350D01*
X182636078Y-85667500D01*
X182620138Y-85582786D01*
X182583081Y-85525199D01*
X182922012Y-85525199D01*
X182909203Y-85538008D01*
G36*
X173420700Y-84876300D02*
X175120300Y-84876300D01*
X175120300Y-84856300D01*
X175145700Y-84856300D01*
X175145700Y-84876300D01*
X175165700Y-84876300D01*
X175165700Y-84901700D01*
X175145700Y-84901700D01*
X175145700Y-86601300D01*
X175165700Y-86601300D01*
X175165700Y-86626700D01*
X175145700Y-86626700D01*
X175145700Y-86646700D01*
X175120300Y-86646700D01*
X175120300Y-86626700D01*
X173420700Y-86626700D01*
X173420700Y-86646700D01*
X173395300Y-86646700D01*
X173395300Y-86626700D01*
X173375300Y-86626700D01*
X173375300Y-86601300D01*
X173395300Y-86601300D01*
X173395300Y-84901700D01*
X173420700Y-84901700D01*
X173420700Y-86601300D01*
X175120300Y-86601300D01*
X175120300Y-84901700D01*
X173420700Y-84901700D01*
X173395300Y-84901700D01*
X173375300Y-84901700D01*
X173375300Y-84876300D01*
X173395300Y-84876300D01*
X173395300Y-84856300D01*
X173420700Y-84856300D01*
X173420700Y-84876300D01*
X173420700Y-84876300D01*
G37*
X173420700Y-84876300D02*
X175120300Y-84876300D01*
X175120300Y-84856300D01*
X175145700Y-84856300D01*
X175145700Y-84876300D01*
X175165700Y-84876300D01*
X175165700Y-84901700D01*
X175145700Y-84901700D01*
X175145700Y-86601300D01*
X175165700Y-86601300D01*
X175165700Y-86626700D01*
X175145700Y-86626700D01*
X175145700Y-86646700D01*
X175120300Y-86646700D01*
X175120300Y-86626700D01*
X173420700Y-86626700D01*
X173420700Y-86646700D01*
X173395300Y-86646700D01*
X173395300Y-86626700D01*
X173375300Y-86626700D01*
X173375300Y-86601300D01*
X173395300Y-86601300D01*
X173395300Y-84901700D01*
X173420700Y-84901700D01*
X173420700Y-86601300D01*
X175120300Y-86601300D01*
X175120300Y-84901700D01*
X173420700Y-84901700D01*
X173395300Y-84901700D01*
X173375300Y-84901700D01*
X173375300Y-84876300D01*
X173395300Y-84876300D01*
X173395300Y-84856300D01*
X173420700Y-84856300D01*
X173420700Y-84876300D01*
G36*
X177673000Y-81306922D02*
X177388000Y-81306922D01*
X177303286Y-81322862D01*
X177225482Y-81372928D01*
X177173285Y-81449320D01*
X177154922Y-81540000D01*
X177154922Y-81984263D01*
X176916600Y-82222584D01*
X176916600Y-81984850D01*
X176859450Y-81927700D01*
X176100700Y-81927700D01*
X176100700Y-82461450D01*
X176123717Y-82484467D01*
X175826843Y-82781341D01*
X175810786Y-82784362D01*
X175774701Y-82807582D01*
X175690972Y-82772900D01*
X175590350Y-82772900D01*
X175533200Y-82830050D01*
X175533200Y-83338800D01*
X175553200Y-83338800D01*
X175553200Y-83364200D01*
X175533200Y-83364200D01*
X175533200Y-83384200D01*
X175507800Y-83384200D01*
X175507800Y-83364200D01*
X175487800Y-83364200D01*
X175487800Y-83338800D01*
X175507800Y-83338800D01*
X175507800Y-82830050D01*
X175450650Y-82772900D01*
X175399700Y-82772900D01*
X175399700Y-82500860D01*
X175442529Y-82518600D01*
X176018150Y-82518600D01*
X176075300Y-82461450D01*
X176075300Y-81927700D01*
X176055300Y-81927700D01*
X176055300Y-81902300D01*
X176075300Y-81902300D01*
X176075300Y-81368550D01*
X176100700Y-81368550D01*
X176100700Y-81902300D01*
X176859450Y-81902300D01*
X176916600Y-81845150D01*
X176916600Y-81494528D01*
X176881797Y-81410508D01*
X176817491Y-81346202D01*
X176733471Y-81311400D01*
X176157850Y-81311400D01*
X176100700Y-81368550D01*
X176075300Y-81368550D01*
X176018150Y-81311400D01*
X175907864Y-81311400D01*
X176117064Y-81102200D01*
X177673000Y-81102200D01*
X177673000Y-81306922D01*
X177673000Y-81306922D01*
G37*
X177673000Y-81306922D02*
X177388000Y-81306922D01*
X177303286Y-81322862D01*
X177225482Y-81372928D01*
X177173285Y-81449320D01*
X177154922Y-81540000D01*
X177154922Y-81984263D01*
X176916600Y-82222584D01*
X176916600Y-81984850D01*
X176859450Y-81927700D01*
X176100700Y-81927700D01*
X176100700Y-82461450D01*
X176123717Y-82484467D01*
X175826843Y-82781341D01*
X175810786Y-82784362D01*
X175774701Y-82807582D01*
X175690972Y-82772900D01*
X175590350Y-82772900D01*
X175533200Y-82830050D01*
X175533200Y-83338800D01*
X175553200Y-83338800D01*
X175553200Y-83364200D01*
X175533200Y-83364200D01*
X175533200Y-83384200D01*
X175507800Y-83384200D01*
X175507800Y-83364200D01*
X175487800Y-83364200D01*
X175487800Y-83338800D01*
X175507800Y-83338800D01*
X175507800Y-82830050D01*
X175450650Y-82772900D01*
X175399700Y-82772900D01*
X175399700Y-82500860D01*
X175442529Y-82518600D01*
X176018150Y-82518600D01*
X176075300Y-82461450D01*
X176075300Y-81927700D01*
X176055300Y-81927700D01*
X176055300Y-81902300D01*
X176075300Y-81902300D01*
X176075300Y-81368550D01*
X176100700Y-81368550D01*
X176100700Y-81902300D01*
X176859450Y-81902300D01*
X176916600Y-81845150D01*
X176916600Y-81494528D01*
X176881797Y-81410508D01*
X176817491Y-81346202D01*
X176733471Y-81311400D01*
X176157850Y-81311400D01*
X176100700Y-81368550D01*
X176075300Y-81368550D01*
X176018150Y-81311400D01*
X175907864Y-81311400D01*
X176117064Y-81102200D01*
X177673000Y-81102200D01*
X177673000Y-81306922D01*
M02*
