G04 #@! TF.FileFunction,Paste,Top*
%FSLAX46Y46*%
G04 Gerber Fmt 4.6, Leading zero omitted, Abs format (unit mm)*
G04 Created by KiCad (PCBNEW (2015-08-16 BZR 6097, Git b384c94)-product) date 20/01/2016 15:51:32*
%MOMM*%
G01*
G04 APERTURE LIST*
%ADD10C,0.100000*%
%ADD11R,1.197600X0.247600*%
%ADD12R,1.247600X1.447600*%
%ADD13R,1.400000X1.600000*%
%ADD14R,1.747600X1.747600*%
%ADD15R,0.897600X0.497600*%
%ADD16R,1.747600X0.947600*%
%ADD17R,1.097600X0.447600*%
%ADD18R,2.047240X1.447800*%
%ADD19R,1.447800X2.047240*%
%ADD20R,0.547600X0.097600*%
%ADD21R,0.097600X0.547600*%
%ADD22R,0.882600X0.882600*%
%ADD23R,0.197600X0.027600*%
%ADD24R,0.027600X0.747600*%
%ADD25R,0.547600X0.447600*%
%ADD26R,0.447600X0.547600*%
G04 APERTURE END LIST*
D10*
D11*
X157157800Y-85060000D03*
X157157800Y-85710000D03*
X157157800Y-86360000D03*
X157157800Y-87010000D03*
X157157800Y-87660000D03*
D12*
X156932800Y-89560000D03*
D13*
X156932800Y-83160000D03*
D14*
X154482800Y-87810000D03*
X154482800Y-84910000D03*
D15*
X180534000Y-93658000D03*
X185734000Y-93658000D03*
X185734000Y-91508000D03*
X180534000Y-91508000D03*
D16*
X179705000Y-88499000D03*
X179705000Y-85999000D03*
D17*
X162786000Y-84648000D03*
X162786000Y-85598000D03*
X162786000Y-86548000D03*
X159286000Y-86548000D03*
X159286000Y-85598000D03*
X159286000Y-84648000D03*
D18*
X162854640Y-81915000D03*
X159852360Y-81915000D03*
D19*
X164211000Y-91544140D03*
X164211000Y-88541860D03*
D20*
X176670500Y-87501500D03*
X176670500Y-87001500D03*
X176670500Y-86501500D03*
X176670500Y-86001500D03*
X176670500Y-85501500D03*
X176670500Y-85001500D03*
X176670500Y-84501500D03*
X176670500Y-84001500D03*
D21*
X176020500Y-83351500D03*
X175520500Y-83351500D03*
X175020500Y-83351500D03*
X174520500Y-83351500D03*
X174020500Y-83351500D03*
X173520500Y-83351500D03*
X173020500Y-83351500D03*
X172520500Y-83351500D03*
D20*
X171870500Y-84001500D03*
X171870500Y-84501500D03*
X171870500Y-85001500D03*
X171870500Y-85501500D03*
X171870500Y-86001500D03*
X171870500Y-86501500D03*
X171870500Y-87001500D03*
X171870500Y-87501500D03*
D21*
X172520500Y-88151500D03*
X173020500Y-88151500D03*
X173520500Y-88151500D03*
X174020500Y-88151500D03*
X174520500Y-88151500D03*
X175020500Y-88151500D03*
X175520500Y-88151500D03*
X176020500Y-88151500D03*
D22*
X173408000Y-84889000D03*
X173408000Y-86614000D03*
X175133000Y-84889000D03*
X175133000Y-86614000D03*
D23*
X160100500Y-92729000D03*
X160100500Y-92329000D03*
X160100500Y-91929000D03*
X159050500Y-91929000D03*
X159050500Y-92329000D03*
X159050500Y-92729000D03*
D24*
X159575500Y-92329000D03*
D25*
X179197000Y-92257500D03*
X179197000Y-91257500D03*
X177927000Y-93099000D03*
X177927000Y-94099000D03*
D26*
X168076500Y-93345000D03*
X167076500Y-93345000D03*
D25*
X154178000Y-80653000D03*
X154178000Y-81653000D03*
D26*
X158297500Y-91948000D03*
X157297500Y-91948000D03*
D25*
X161099500Y-91956000D03*
X161099500Y-92956000D03*
X177927000Y-92257500D03*
X177927000Y-91257500D03*
D26*
X174871000Y-91059000D03*
X173871000Y-91059000D03*
X177411000Y-81915000D03*
X176411000Y-81915000D03*
D25*
X181419500Y-85796500D03*
X181419500Y-86796500D03*
X181419500Y-88701500D03*
X181419500Y-87701500D03*
X155448000Y-80653000D03*
X155448000Y-81653000D03*
D26*
X174871000Y-89789000D03*
X173871000Y-89789000D03*
X167084500Y-94589600D03*
X168084500Y-94589600D03*
D10*
G36*
X158713700Y-90614300D02*
X158713700Y-87566700D01*
X159961300Y-87566700D01*
X159961300Y-90614300D01*
X158713700Y-90614300D01*
X158713700Y-90614300D01*
G37*
G36*
X160713700Y-90614300D02*
X160713700Y-87566700D01*
X161961300Y-87566700D01*
X161961300Y-90614300D01*
X160713700Y-90614300D01*
X160713700Y-90614300D01*
G37*
D25*
X164782500Y-83558000D03*
X164782500Y-82558000D03*
M02*
