G04 #@! TF.FileFunction,Copper,L1,Top,Signal*
%FSLAX46Y46*%
G04 Gerber Fmt 4.6, Leading zero omitted, Abs format (unit mm)*
G04 Created by KiCad (PCBNEW (2015-08-16 BZR 6097, Git b384c94)-product) date 20/01/2016 15:51:32*
%MOMM*%
G01*
G04 APERTURE LIST*
%ADD10C,0.100000*%
%ADD11R,1.350000X0.400000*%
%ADD12C,1.600000*%
%ADD13R,1.400000X1.600000*%
%ADD14R,1.900000X1.900000*%
%ADD15R,1.050000X0.650000*%
%ADD16R,1.900000X1.100000*%
%ADD17R,1.250000X0.600000*%
%ADD18R,2.199640X1.600200*%
%ADD19R,1.600200X2.199640*%
%ADD20R,2.032000X1.727200*%
%ADD21C,0.500000*%
%ADD22R,0.700000X0.250000*%
%ADD23R,0.250000X0.700000*%
%ADD24R,1.725000X1.725000*%
%ADD25R,0.350000X0.180000*%
%ADD26R,0.300000X1.500000*%
%ADD27R,1.727200X2.032000*%
%ADD28R,0.700000X0.600000*%
%ADD29R,0.600000X0.700000*%
%ADD30C,0.584200*%
%ADD31C,0.508000*%
%ADD32C,0.304800*%
%ADD33C,0.152400*%
%ADD34C,0.203200*%
G04 APERTURE END LIST*
D10*
D11*
X157157800Y-85060000D03*
X157157800Y-85710000D03*
X157157800Y-86360000D03*
X157157800Y-87010000D03*
X157157800Y-87660000D03*
D12*
X154482800Y-83060000D03*
X154482800Y-89660000D03*
D13*
X156932800Y-89560000D03*
X156932800Y-83160000D03*
D14*
X154482800Y-87810000D03*
X154482800Y-84910000D03*
D15*
X180534000Y-93658000D03*
X185734000Y-93658000D03*
X185734000Y-91508000D03*
X180534000Y-91508000D03*
D16*
X179705000Y-88499000D03*
X179705000Y-85999000D03*
D17*
X162786000Y-84648000D03*
X162786000Y-85598000D03*
X162786000Y-86548000D03*
X159286000Y-86548000D03*
X159286000Y-85598000D03*
X159286000Y-84648000D03*
D18*
X162854640Y-81915000D03*
X159852360Y-81915000D03*
D19*
X164211000Y-91544140D03*
X164211000Y-88541860D03*
D20*
X185420000Y-78740000D03*
X187325000Y-78740000D03*
D21*
X182753000Y-78867000D03*
D22*
X176670500Y-87501500D03*
X176670500Y-87001500D03*
X176670500Y-86501500D03*
X176670500Y-86001500D03*
X176670500Y-85501500D03*
X176670500Y-85001500D03*
X176670500Y-84501500D03*
X176670500Y-84001500D03*
D23*
X176020500Y-83351500D03*
X175520500Y-83351500D03*
X175020500Y-83351500D03*
X174520500Y-83351500D03*
X174020500Y-83351500D03*
X173520500Y-83351500D03*
X173020500Y-83351500D03*
X172520500Y-83351500D03*
D22*
X171870500Y-84001500D03*
X171870500Y-84501500D03*
X171870500Y-85001500D03*
X171870500Y-85501500D03*
X171870500Y-86001500D03*
X171870500Y-86501500D03*
X171870500Y-87001500D03*
X171870500Y-87501500D03*
D23*
X172520500Y-88151500D03*
X173020500Y-88151500D03*
X173520500Y-88151500D03*
X174020500Y-88151500D03*
X174520500Y-88151500D03*
X175020500Y-88151500D03*
X175520500Y-88151500D03*
X176020500Y-88151500D03*
D24*
X173408000Y-84889000D03*
X173408000Y-86614000D03*
X175133000Y-84889000D03*
X175133000Y-86614000D03*
D25*
X160100500Y-92729000D03*
X160100500Y-92329000D03*
X160100500Y-91929000D03*
X159050500Y-91929000D03*
X159050500Y-92329000D03*
X159050500Y-92729000D03*
D26*
X159575500Y-92329000D03*
D21*
X157353000Y-93916500D03*
X157353000Y-78867000D03*
D27*
X185420000Y-98425000D03*
X182880000Y-98425000D03*
X180340000Y-98425000D03*
X177800000Y-98425000D03*
X175260000Y-98425000D03*
X172720000Y-98425000D03*
X170180000Y-98425000D03*
X167640000Y-98425000D03*
X165100000Y-98425000D03*
X162560000Y-98425000D03*
X160020000Y-98425000D03*
X157480000Y-98425000D03*
X154940000Y-98425000D03*
X154940000Y-96520000D03*
X157480000Y-96520000D03*
X160020000Y-96520000D03*
X162560000Y-96520000D03*
X165100000Y-96520000D03*
X167640000Y-96520000D03*
X170180000Y-96520000D03*
X172720000Y-96520000D03*
X175260000Y-96520000D03*
X177800000Y-96520000D03*
X180340000Y-96520000D03*
X182880000Y-96520000D03*
X185420000Y-96520000D03*
X154940000Y-74295000D03*
X157480000Y-74295000D03*
X160020000Y-74295000D03*
X162560000Y-74295000D03*
X165100000Y-74295000D03*
X167640000Y-74295000D03*
X170180000Y-74295000D03*
X172720000Y-74295000D03*
X175260000Y-74295000D03*
X177800000Y-74295000D03*
X180340000Y-74295000D03*
X182880000Y-74295000D03*
X185420000Y-74295000D03*
X185420000Y-76200000D03*
X182880000Y-76200000D03*
X180340000Y-76200000D03*
X177800000Y-76200000D03*
X175260000Y-76200000D03*
X172720000Y-76200000D03*
X170180000Y-76200000D03*
X167640000Y-76200000D03*
X165100000Y-76200000D03*
X162560000Y-76200000D03*
X160020000Y-76200000D03*
X157480000Y-76200000D03*
X154940000Y-76200000D03*
D28*
X179197000Y-92257500D03*
X179197000Y-91257500D03*
X177927000Y-93099000D03*
X177927000Y-94099000D03*
D29*
X168076500Y-93345000D03*
X167076500Y-93345000D03*
D28*
X154178000Y-80653000D03*
X154178000Y-81653000D03*
D29*
X158297500Y-91948000D03*
X157297500Y-91948000D03*
D28*
X161099500Y-91956000D03*
X161099500Y-92956000D03*
X177927000Y-92257500D03*
X177927000Y-91257500D03*
D29*
X174871000Y-91059000D03*
X173871000Y-91059000D03*
X177411000Y-81915000D03*
X176411000Y-81915000D03*
D28*
X181419500Y-85796500D03*
X181419500Y-86796500D03*
X181419500Y-88701500D03*
X181419500Y-87701500D03*
X155448000Y-80653000D03*
X155448000Y-81653000D03*
D29*
X174871000Y-89789000D03*
X173871000Y-89789000D03*
X167084500Y-94589600D03*
X168084500Y-94589600D03*
D10*
G36*
X158637500Y-90690500D02*
X158637500Y-87490500D01*
X160037500Y-87490500D01*
X160037500Y-90690500D01*
X158637500Y-90690500D01*
X158637500Y-90690500D01*
G37*
G36*
X160637500Y-90690500D02*
X160637500Y-87490500D01*
X162037500Y-87490500D01*
X162037500Y-90690500D01*
X160637500Y-90690500D01*
X160637500Y-90690500D01*
G37*
D28*
X164782500Y-83558000D03*
X164782500Y-82558000D03*
D20*
X154940000Y-93980000D03*
X153035000Y-93980000D03*
X185420000Y-81280000D03*
X187325000Y-81280000D03*
D30*
X168084500Y-94589600D03*
X180534000Y-93658000D03*
X177927000Y-91257500D03*
X179260500Y-87185500D03*
X179895500Y-87185500D03*
X180530500Y-87185500D03*
X175133000Y-86614000D03*
X175133000Y-84889000D03*
X173408000Y-84889000D03*
X173408000Y-86614000D03*
D31*
X177927000Y-93099000D03*
X172696244Y-89130244D03*
D30*
X161337500Y-89090500D03*
X172910500Y-92138500D03*
X177927000Y-94099000D03*
X164211000Y-91544140D03*
X178054000Y-80454500D03*
X164782500Y-82558000D03*
X161099500Y-91956000D03*
X164782500Y-83558000D03*
X159337500Y-89090500D03*
X155956000Y-85201200D03*
X158456655Y-91949206D03*
D32*
X159575500Y-92329000D02*
X159575500Y-92929000D01*
X159575500Y-92329000D02*
X159575500Y-92683800D01*
X159575500Y-92683800D02*
X159620700Y-92729000D01*
X159620700Y-92729000D02*
X160100500Y-92729000D01*
X160100500Y-92729000D02*
X160872500Y-92729000D01*
X160872500Y-92729000D02*
X161099500Y-92956000D01*
X174020500Y-88151500D02*
X174020500Y-89639500D01*
X174020500Y-89639500D02*
X173871000Y-89789000D01*
X173871000Y-91059000D02*
X173871000Y-89789000D01*
X179895500Y-87185500D02*
X179260500Y-87185500D01*
X181419500Y-86796500D02*
X180956142Y-86796500D01*
X180956142Y-86796500D02*
X180567142Y-87185500D01*
X180567142Y-87185500D02*
X180530500Y-87185500D01*
X175520500Y-82482500D02*
X175520500Y-83351500D01*
X174020500Y-88151500D02*
X174020500Y-87226500D01*
X175520500Y-83351500D02*
X175520500Y-84501500D01*
X175520500Y-84501500D02*
X175133000Y-84889000D01*
D33*
X179705000Y-88499000D02*
X181217000Y-88499000D01*
X181217000Y-88499000D02*
X181419500Y-88701500D01*
X179705000Y-88499000D02*
X179305000Y-88499000D01*
X179305000Y-88499000D02*
X178307500Y-87501500D01*
X178307500Y-87501500D02*
X176670500Y-87501500D01*
X179705000Y-85999000D02*
X181217000Y-85999000D01*
X181217000Y-85999000D02*
X181419500Y-85796500D01*
X179705000Y-85999000D02*
X179305000Y-85999000D01*
X179305000Y-85999000D02*
X178302500Y-87001500D01*
X178302500Y-87001500D02*
X177172900Y-87001500D01*
X177172900Y-87001500D02*
X176670500Y-87001500D01*
X169306988Y-92519500D02*
X166840518Y-92519500D01*
X166840518Y-92519500D02*
X165100000Y-94260018D01*
X165100000Y-94260018D02*
X165100000Y-95351600D01*
X165100000Y-95351600D02*
X165100000Y-96520000D01*
X172696244Y-89130244D02*
X169306988Y-92519500D01*
X172696244Y-89130244D02*
X173020500Y-88805988D01*
X173020500Y-88805988D02*
X173020500Y-88151500D01*
X177927000Y-92257500D02*
X179197000Y-92257500D01*
X177927000Y-92257500D02*
X177927000Y-93099000D01*
X165100000Y-96520000D02*
X165100000Y-96367600D01*
X173020500Y-88151500D02*
X172979089Y-88192911D01*
X157538800Y-85710000D02*
X157861795Y-85710000D01*
X157157800Y-85710000D02*
X157861795Y-85710000D01*
X157861795Y-85710000D02*
X159174000Y-85710000D01*
X159174000Y-85710000D02*
X159286000Y-85598000D01*
X157538800Y-86360000D02*
X157958422Y-86360000D01*
X157958422Y-86360000D02*
X159098000Y-86360000D01*
X157157800Y-86360000D02*
X157958422Y-86360000D01*
X159098000Y-86360000D02*
X159286000Y-86548000D01*
X179197000Y-91257500D02*
X180283500Y-91257500D01*
X180283500Y-91257500D02*
X180534000Y-91508000D01*
X175520500Y-88151500D02*
X175520500Y-88653900D01*
X175993090Y-91849910D02*
X175183799Y-92659201D01*
X175520500Y-88653900D02*
X175993090Y-89126490D01*
X175993090Y-89126490D02*
X175993090Y-91849910D01*
X175183799Y-92659201D02*
X171526201Y-92659201D01*
X171526201Y-92659201D02*
X170180000Y-94005402D01*
X170180000Y-94005402D02*
X170180000Y-96520000D01*
X170180000Y-96367600D02*
X170180000Y-96520000D01*
X175310055Y-92964011D02*
X173989989Y-92964011D01*
X173989989Y-92964011D02*
X172720000Y-94234000D01*
X172720000Y-94234000D02*
X172720000Y-95351600D01*
X172720000Y-95351600D02*
X172720000Y-96520000D01*
X176020500Y-88151500D02*
X176020500Y-88722834D01*
X176020500Y-88722834D02*
X176297900Y-89000234D01*
X176297900Y-89000234D02*
X176297899Y-91976167D01*
X176297899Y-91976167D02*
X175310055Y-92964011D01*
X176020500Y-88151500D02*
X176020500Y-88376500D01*
X172720000Y-96367600D02*
X172720000Y-96520000D01*
X176020500Y-88151500D02*
X176020500Y-88212454D01*
D32*
X174561500Y-92138500D02*
X174879000Y-91821000D01*
X172910500Y-92138500D02*
X174561500Y-92138500D01*
X174879000Y-91821000D02*
X174879000Y-91535591D01*
X174879000Y-91535591D02*
X174879000Y-91122500D01*
X164211000Y-91544140D02*
X164211000Y-92176600D01*
X160020000Y-96367600D02*
X160020000Y-96520000D01*
X175020500Y-88151500D02*
X175020500Y-88724000D01*
X175020500Y-88724000D02*
X175577500Y-89281000D01*
X175577500Y-89281000D02*
X175577500Y-90302500D01*
X175577500Y-90302500D02*
X174871000Y-91009000D01*
X174871000Y-91009000D02*
X174871000Y-91059000D01*
X177673000Y-81915000D02*
X178054000Y-81534000D01*
X177411000Y-81915000D02*
X177673000Y-81915000D01*
X176020500Y-83351500D02*
X176020500Y-83126500D01*
X176020500Y-83126500D02*
X176470000Y-82677000D01*
X176470000Y-82677000D02*
X176974500Y-82677000D01*
X176974500Y-82677000D02*
X177411000Y-82240500D01*
X177411000Y-82240500D02*
X177411000Y-81915000D01*
X178054000Y-81534000D02*
X178054000Y-80454500D01*
X164782500Y-82558000D02*
X163497640Y-82558000D01*
X163497640Y-82558000D02*
X162854640Y-81915000D01*
X161099500Y-91956000D02*
X161049500Y-91956000D01*
X160100500Y-91929000D02*
X161072500Y-91929000D01*
X161072500Y-91929000D02*
X161099500Y-91956000D01*
X160100500Y-91929000D02*
X160100500Y-92271790D01*
X158115000Y-90426442D02*
X158115000Y-88693558D01*
X158115000Y-88693558D02*
X157686442Y-88265000D01*
X157686442Y-88265000D02*
X156339158Y-88265000D01*
X156950399Y-90664801D02*
X157876641Y-90664801D01*
X157876641Y-90664801D02*
X158115000Y-90426442D01*
X154940000Y-93980000D02*
X154940000Y-92675200D01*
X154940000Y-92675200D02*
X156950399Y-90664801D01*
X155956000Y-85201200D02*
X155956000Y-87881842D01*
X155956000Y-87881842D02*
X156339158Y-88265000D01*
X157157800Y-85060000D02*
X158272000Y-85060000D01*
X158272000Y-85060000D02*
X158684000Y-84648000D01*
X158684000Y-84648000D02*
X159286000Y-84648000D01*
X157157800Y-85060000D02*
X156097200Y-85060000D01*
X156097200Y-85060000D02*
X155956000Y-85201200D01*
D34*
X163548000Y-85598000D02*
X162786000Y-85598000D01*
X166421168Y-85869800D02*
X167599668Y-87048300D01*
X167599668Y-87048300D02*
X171298700Y-87048300D01*
X171298700Y-87048300D02*
X171345500Y-87001500D01*
X171345500Y-87001500D02*
X171870500Y-87001500D01*
X163548000Y-85598000D02*
X164485500Y-85598000D01*
X164485500Y-85598000D02*
X164757300Y-85869800D01*
X164757300Y-85869800D02*
X166421168Y-85869800D01*
X163548000Y-86548000D02*
X162786000Y-86548000D01*
X166252832Y-86276200D02*
X167431332Y-87454700D01*
X167431332Y-87454700D02*
X171298700Y-87454700D01*
X171298700Y-87454700D02*
X171345500Y-87501500D01*
X171345500Y-87501500D02*
X171870500Y-87501500D01*
X163548000Y-86548000D02*
X164485500Y-86548000D01*
X164485500Y-86548000D02*
X164757300Y-86276200D01*
X164757300Y-86276200D02*
X166252832Y-86276200D01*
D33*
X167076500Y-93345000D02*
X167076500Y-94581600D01*
X167076500Y-94581600D02*
X167084500Y-94589600D01*
D32*
X158456655Y-91949206D02*
X158476861Y-91929000D01*
X158476861Y-91929000D02*
X159050500Y-91929000D01*
X158456655Y-91949206D02*
X158298706Y-91949206D01*
X158298706Y-91949206D02*
X158297500Y-91948000D01*
X157480000Y-96520000D02*
X157480000Y-96367600D01*
D33*
X175260000Y-96520000D02*
X175260000Y-96367600D01*
X175260000Y-96367600D02*
X176987220Y-94640380D01*
X176987220Y-94640380D02*
X183312554Y-94640380D01*
X183312554Y-94640380D02*
X183761162Y-94191772D01*
X178572119Y-85220399D02*
X177291018Y-86501500D01*
X183761162Y-94191772D02*
X183761163Y-90495091D01*
X183761163Y-90495091D02*
X184531601Y-89724653D01*
X184531601Y-89724653D02*
X184531601Y-85484619D01*
X184531601Y-85484619D02*
X184267381Y-85220399D01*
X184267381Y-85220399D02*
X178572119Y-85220399D01*
X177291018Y-86501500D02*
X176670500Y-86501500D01*
X177800000Y-96520000D02*
X177800000Y-96367600D01*
X177169452Y-86001500D02*
X176670500Y-86001500D01*
X177800000Y-96367600D02*
X179222410Y-94945190D01*
X184393638Y-84915590D02*
X178255363Y-84915589D01*
X179222410Y-94945190D02*
X183438810Y-94945190D01*
X183438810Y-94945190D02*
X184065971Y-94318029D01*
X184065971Y-94318029D02*
X184065972Y-90621348D01*
X184065972Y-90621348D02*
X184836411Y-89850909D01*
X184836411Y-89850909D02*
X184836411Y-85358363D01*
X184836411Y-85358363D02*
X184393638Y-84915590D01*
X178255363Y-84915589D02*
X177169452Y-86001500D01*
X184370781Y-90747605D02*
X185141220Y-89977166D01*
X185141220Y-89977166D02*
X185141220Y-85232106D01*
X184370780Y-94445754D02*
X184370781Y-90747605D01*
X183566534Y-95250000D02*
X184370780Y-94445754D01*
X180340000Y-96520000D02*
X180340000Y-96367600D01*
X180340000Y-96367600D02*
X181457600Y-95250000D01*
X181457600Y-95250000D02*
X183566534Y-95250000D01*
X176670500Y-85501500D02*
X177172900Y-85501500D01*
X177172900Y-85501500D02*
X178063619Y-84610781D01*
X178063619Y-84610781D02*
X184519895Y-84610781D01*
X184519895Y-84610781D02*
X185141220Y-85232106D01*
X185446030Y-90103422D02*
X185446030Y-85105850D01*
X184675589Y-94572011D02*
X184675590Y-90873862D01*
X184675590Y-90873862D02*
X185446030Y-90103422D01*
X182880000Y-96520000D02*
X182880000Y-96367600D01*
X182880000Y-96367600D02*
X184675589Y-94572011D01*
X176670500Y-85001500D02*
X177241834Y-85001500D01*
X177241834Y-85001500D02*
X177937363Y-84305971D01*
X177937363Y-84305971D02*
X184646152Y-84305972D01*
X184646152Y-84305972D02*
X185446030Y-85105850D01*
X185750840Y-84979594D02*
X185750840Y-90229678D01*
X185750840Y-90229678D02*
X184980399Y-91000119D01*
X184980399Y-91000119D02*
X184980399Y-94911999D01*
X184980399Y-94911999D02*
X185420000Y-95351600D01*
X185420000Y-95351600D02*
X185420000Y-96520000D01*
X176670500Y-84501500D02*
X177310768Y-84501500D01*
X177310768Y-84501500D02*
X177811105Y-84001163D01*
X177811105Y-84001163D02*
X184772409Y-84001163D01*
X184772409Y-84001163D02*
X185750840Y-84979594D01*
X176670500Y-84001500D02*
X177379702Y-84001500D01*
X177379702Y-84001500D02*
X177684849Y-83696353D01*
X177684849Y-83696353D02*
X179886425Y-83696353D01*
X179886425Y-83696353D02*
X184079201Y-79503577D01*
X184079201Y-79503577D02*
X184079201Y-77693199D01*
X184079201Y-77693199D02*
X185420000Y-76352400D01*
X185420000Y-76352400D02*
X185420000Y-76200000D01*
X173520500Y-88988500D02*
X169164000Y-93345000D01*
X169164000Y-93345000D02*
X168076500Y-93345000D01*
X173520500Y-88151500D02*
X173520500Y-88988500D01*
X168076500Y-93345000D02*
X168076500Y-93395000D01*
X168076500Y-93395000D02*
X168656000Y-93974500D01*
X168656000Y-93974500D02*
X168656000Y-95351600D01*
X168656000Y-95351600D02*
X167640000Y-96367600D01*
X167640000Y-96367600D02*
X167640000Y-96520000D01*
X175020500Y-81596018D02*
X178867107Y-77749411D01*
X178867107Y-77749411D02*
X181482989Y-77749411D01*
X181482989Y-77749411D02*
X182880000Y-76352400D01*
X182880000Y-76352400D02*
X182880000Y-76200000D01*
X175020500Y-83351500D02*
X175020500Y-81596018D01*
X174520500Y-81664952D02*
X178740851Y-77444601D01*
X178740851Y-77444601D02*
X179247799Y-77444601D01*
X179247799Y-77444601D02*
X180340000Y-76352400D01*
X180340000Y-76352400D02*
X180340000Y-76200000D01*
X174520500Y-83351500D02*
X174520500Y-81664952D01*
X177800000Y-77954386D02*
X177800000Y-76200000D01*
X177800000Y-76352400D02*
X177800000Y-76200000D01*
X174020500Y-81733886D02*
X177800000Y-77954386D01*
X174020500Y-83351500D02*
X174020500Y-81733886D01*
X175260000Y-80063320D02*
X175260000Y-76200000D01*
X175260000Y-76352400D02*
X175260000Y-76200000D01*
X173520500Y-81802820D02*
X175260000Y-80063320D01*
X173520500Y-83351500D02*
X173520500Y-81802820D01*
X173020500Y-83351500D02*
X173020500Y-76500500D01*
X173020500Y-76500500D02*
X172720000Y-76200000D01*
X172720000Y-76352400D02*
X172720000Y-76200000D01*
X171196000Y-77368400D02*
X170180000Y-76352400D01*
X170180000Y-76352400D02*
X170180000Y-76200000D01*
X171348400Y-77368400D02*
X171196000Y-77368400D01*
X172520500Y-78540500D02*
X171348400Y-77368400D01*
X172520500Y-83351500D02*
X172520500Y-78540500D01*
X167640000Y-77368400D02*
X167640000Y-76200000D01*
X167640000Y-76352400D02*
X167640000Y-76200000D01*
X167640000Y-79996000D02*
X167640000Y-77368400D01*
X171870500Y-84001500D02*
X171645500Y-84001500D01*
X171645500Y-84001500D02*
X167640000Y-79996000D01*
X165100000Y-77368400D02*
X165100000Y-76200000D01*
X165100000Y-76352400D02*
X165100000Y-76200000D01*
X165100000Y-78117482D02*
X165100000Y-77368400D01*
X171484018Y-84501500D02*
X165100000Y-78117482D01*
X171870500Y-84501500D02*
X171484018Y-84501500D01*
X163576000Y-77368400D02*
X162560000Y-76352400D01*
X162560000Y-76352400D02*
X162560000Y-76200000D01*
X163908008Y-77368400D02*
X163576000Y-77368400D01*
X171870500Y-85001500D02*
X171541108Y-85001500D01*
X171541108Y-85001500D02*
X163908008Y-77368400D01*
X161112210Y-77444610D02*
X160020000Y-76352400D01*
X160020000Y-76352400D02*
X160020000Y-76200000D01*
X163221144Y-77444610D02*
X161112210Y-77444610D01*
X171278034Y-85501500D02*
X163221144Y-77444610D01*
X171870500Y-85501500D02*
X171278034Y-85501500D01*
X171870500Y-86001500D02*
X171346968Y-86001500D01*
X171346968Y-86001500D02*
X163094888Y-77749420D01*
X163094888Y-77749420D02*
X158877020Y-77749420D01*
X158877020Y-77749420D02*
X157480000Y-76352400D01*
X157480000Y-76352400D02*
X157480000Y-76200000D01*
X158166534Y-77470000D02*
X158750764Y-78054230D01*
X158750764Y-78054230D02*
X162920830Y-78054230D01*
X154940000Y-76352400D02*
X156057600Y-77470000D01*
X156057600Y-77470000D02*
X158166534Y-77470000D01*
X171368100Y-86501500D02*
X162920830Y-78054230D01*
X171870500Y-86501500D02*
X171368100Y-86501500D01*
X154940000Y-76352400D02*
X154940000Y-76200000D01*
X172520500Y-88151500D02*
X172520500Y-88376500D01*
X172520500Y-88376500D02*
X168682310Y-92214690D01*
X168682310Y-92214690D02*
X166712910Y-92214690D01*
X162560000Y-96367600D02*
X162560000Y-96520000D01*
X166712910Y-92214690D02*
X162560000Y-96367600D01*
D32*
X154482800Y-89660000D02*
X156832800Y-89660000D01*
X156832800Y-89660000D02*
X156932800Y-89560000D01*
X154482800Y-83060000D02*
X156832800Y-83060000D01*
X156832800Y-83060000D02*
X156932800Y-83160000D01*
X154178000Y-81653000D02*
X155448000Y-81653000D01*
X154482800Y-83060000D02*
X154482800Y-81957800D01*
X154482800Y-81957800D02*
X154178000Y-81653000D01*
X154482800Y-84910000D02*
X154482800Y-83060000D01*
X154482800Y-87810000D02*
X154482800Y-84910000D01*
X154482800Y-89660000D02*
X154482800Y-87810000D01*
X154507800Y-89560000D02*
X154482800Y-89585000D01*
X154507800Y-83160000D02*
X154482800Y-83135000D01*
X154178000Y-82830200D02*
X154482800Y-83135000D01*
X174520500Y-88151500D02*
X174520500Y-89438500D01*
X174520500Y-89438500D02*
X174871000Y-89789000D01*
D33*
G36*
X153843322Y-77216000D02*
X153859262Y-77300714D01*
X153909328Y-77378518D01*
X153985720Y-77430715D01*
X154076400Y-77449078D01*
X155605626Y-77449078D01*
X155842074Y-77685526D01*
X155940958Y-77751598D01*
X156057600Y-77774800D01*
X156569939Y-77774800D01*
X156229358Y-78114787D01*
X156027031Y-78602045D01*
X156026570Y-79129640D01*
X156228047Y-79617251D01*
X156600787Y-79990642D01*
X157088045Y-80192969D01*
X157615640Y-80193430D01*
X158103251Y-79991953D01*
X158476642Y-79619213D01*
X158678969Y-79131955D01*
X158679430Y-78604360D01*
X158543438Y-78275235D01*
X158634122Y-78335828D01*
X158750764Y-78359030D01*
X162794578Y-78359030D01*
X170008148Y-85572600D01*
X167671564Y-85572600D01*
X166525482Y-84426518D01*
X166501246Y-84410203D01*
X166471600Y-84404200D01*
X164795200Y-84404200D01*
X164773622Y-84407319D01*
X164746889Y-84421472D01*
X164727769Y-84444910D01*
X164495195Y-84886800D01*
X163639600Y-84886800D01*
X163639600Y-84717850D01*
X163582450Y-84660700D01*
X162798700Y-84660700D01*
X162798700Y-84680700D01*
X162773300Y-84680700D01*
X162773300Y-84660700D01*
X161989550Y-84660700D01*
X161932400Y-84717850D01*
X161932400Y-84993471D01*
X161967202Y-85077491D01*
X162011964Y-85122253D01*
X161998482Y-85130928D01*
X161946285Y-85207320D01*
X161927922Y-85298000D01*
X161927922Y-85898000D01*
X161943862Y-85982714D01*
X161993928Y-86060518D01*
X162011520Y-86072538D01*
X161998482Y-86080928D01*
X161946285Y-86157320D01*
X161927922Y-86248000D01*
X161927922Y-86848000D01*
X161943862Y-86932714D01*
X161993928Y-87010518D01*
X162070320Y-87062715D01*
X162161000Y-87081078D01*
X163411000Y-87081078D01*
X163436300Y-87076317D01*
X163436300Y-87185500D01*
X163441511Y-87213195D01*
X163441669Y-87213440D01*
X163365428Y-87213440D01*
X163281408Y-87248243D01*
X163217102Y-87312549D01*
X163182300Y-87396569D01*
X163182300Y-88472010D01*
X163239450Y-88529160D01*
X164198300Y-88529160D01*
X164198300Y-88509160D01*
X164223700Y-88509160D01*
X164223700Y-88529160D01*
X165182550Y-88529160D01*
X165239700Y-88472010D01*
X165239700Y-87757000D01*
X166186036Y-87757000D01*
X167332118Y-88903082D01*
X167356354Y-88919397D01*
X167386000Y-88925400D01*
X171540548Y-88925400D01*
X168556058Y-91909890D01*
X166712910Y-91909890D01*
X166596268Y-91933092D01*
X166532198Y-91975902D01*
X166497384Y-91999164D01*
X163225626Y-95270922D01*
X161696400Y-95270922D01*
X161611686Y-95286862D01*
X161533882Y-95336928D01*
X161481685Y-95413320D01*
X161463322Y-95504000D01*
X161463322Y-98094800D01*
X161116678Y-98094800D01*
X161116678Y-95504000D01*
X161100738Y-95419286D01*
X161050672Y-95341482D01*
X160974280Y-95289285D01*
X160883600Y-95270922D01*
X159156400Y-95270922D01*
X159071686Y-95286862D01*
X158993882Y-95336928D01*
X158941685Y-95413320D01*
X158923322Y-95504000D01*
X158923322Y-98094800D01*
X158576678Y-98094800D01*
X158576678Y-95504000D01*
X158560738Y-95419286D01*
X158510672Y-95341482D01*
X158434280Y-95289285D01*
X158343600Y-95270922D01*
X156616400Y-95270922D01*
X156531686Y-95286862D01*
X156453882Y-95336928D01*
X156401685Y-95413320D01*
X156383322Y-95504000D01*
X156383322Y-98094800D01*
X156032200Y-98094800D01*
X156032200Y-96589850D01*
X155975050Y-96532700D01*
X154952700Y-96532700D01*
X154952700Y-98094800D01*
X154927300Y-98094800D01*
X154927300Y-96532700D01*
X153904950Y-96532700D01*
X153847800Y-96589850D01*
X153847800Y-98094800D01*
X153365200Y-98094800D01*
X153365200Y-95458529D01*
X153847800Y-95458529D01*
X153847800Y-96450150D01*
X153904950Y-96507300D01*
X154927300Y-96507300D01*
X154927300Y-95332550D01*
X154952700Y-95332550D01*
X154952700Y-96507300D01*
X155975050Y-96507300D01*
X156032200Y-96450150D01*
X156032200Y-95458529D01*
X155997398Y-95374509D01*
X155933092Y-95310203D01*
X155849072Y-95275400D01*
X155009850Y-95275400D01*
X154952700Y-95332550D01*
X154927300Y-95332550D01*
X154870150Y-95275400D01*
X154030928Y-95275400D01*
X153946908Y-95310203D01*
X153882602Y-95374509D01*
X153847800Y-95458529D01*
X153365200Y-95458529D01*
X153365200Y-95076678D01*
X155956000Y-95076678D01*
X156040714Y-95060738D01*
X156118518Y-95010672D01*
X156170715Y-94934280D01*
X156189078Y-94843600D01*
X156189078Y-94572439D01*
X156228047Y-94666751D01*
X156600787Y-95040142D01*
X157088045Y-95242469D01*
X157615640Y-95242930D01*
X158103251Y-95041453D01*
X158476642Y-94668713D01*
X158678969Y-94181455D01*
X158679430Y-93653860D01*
X158477953Y-93166249D01*
X158105213Y-92792858D01*
X157617955Y-92590531D01*
X157090360Y-92590070D01*
X156602749Y-92791547D01*
X156229358Y-93164287D01*
X156189078Y-93261292D01*
X156189078Y-93116400D01*
X156173138Y-93031686D01*
X156123072Y-92953882D01*
X156046680Y-92901685D01*
X155956000Y-92883322D01*
X155321000Y-92883322D01*
X155321000Y-92833016D01*
X156136165Y-92017850D01*
X156768900Y-92017850D01*
X156768900Y-92343472D01*
X156803703Y-92427492D01*
X156868009Y-92491798D01*
X156952029Y-92526600D01*
X157227650Y-92526600D01*
X157284800Y-92469450D01*
X157284800Y-91960700D01*
X156826050Y-91960700D01*
X156768900Y-92017850D01*
X156136165Y-92017850D01*
X156601487Y-91552528D01*
X156768900Y-91552528D01*
X156768900Y-91878150D01*
X156826050Y-91935300D01*
X157284800Y-91935300D01*
X157284800Y-91426550D01*
X157310200Y-91426550D01*
X157310200Y-91935300D01*
X157330200Y-91935300D01*
X157330200Y-91960700D01*
X157310200Y-91960700D01*
X157310200Y-92469450D01*
X157367350Y-92526600D01*
X157642971Y-92526600D01*
X157726991Y-92491798D01*
X157791297Y-92427492D01*
X157798299Y-92410588D01*
X157830428Y-92460518D01*
X157906820Y-92512715D01*
X157997500Y-92531078D01*
X158597500Y-92531078D01*
X158667495Y-92517907D01*
X158674319Y-92528512D01*
X158660785Y-92548320D01*
X158642422Y-92639000D01*
X158642422Y-92819000D01*
X158658362Y-92903714D01*
X158708428Y-92981518D01*
X158784820Y-93033715D01*
X158875500Y-93052078D01*
X159196900Y-93052078D01*
X159196900Y-93124472D01*
X159231703Y-93208492D01*
X159296009Y-93272798D01*
X159380029Y-93307600D01*
X159505650Y-93307600D01*
X159562800Y-93250450D01*
X159562800Y-92341700D01*
X159542800Y-92341700D01*
X159542800Y-92316300D01*
X159562800Y-92316300D01*
X159562800Y-91407550D01*
X159588200Y-91407550D01*
X159588200Y-92316300D01*
X159608200Y-92316300D01*
X159608200Y-92341700D01*
X159588200Y-92341700D01*
X159588200Y-93250450D01*
X159645350Y-93307600D01*
X159770971Y-93307600D01*
X159854991Y-93272798D01*
X159919297Y-93208492D01*
X159954100Y-93124472D01*
X159954100Y-93047600D01*
X160030650Y-93047600D01*
X160087800Y-92990450D01*
X160087800Y-92741700D01*
X160113200Y-92741700D01*
X160113200Y-92990450D01*
X160170350Y-93047600D01*
X160320971Y-93047600D01*
X160373480Y-93025850D01*
X160520900Y-93025850D01*
X160520900Y-93301471D01*
X160555702Y-93385491D01*
X160620008Y-93449797D01*
X160704028Y-93484600D01*
X161029650Y-93484600D01*
X161086800Y-93427450D01*
X161086800Y-92968700D01*
X161112200Y-92968700D01*
X161112200Y-93427450D01*
X161169350Y-93484600D01*
X161494972Y-93484600D01*
X161578992Y-93449797D01*
X161643298Y-93385491D01*
X161678100Y-93301471D01*
X161678100Y-93025850D01*
X161620950Y-92968700D01*
X161112200Y-92968700D01*
X161086800Y-92968700D01*
X160578050Y-92968700D01*
X160520900Y-93025850D01*
X160373480Y-93025850D01*
X160404991Y-93012798D01*
X160469297Y-92948492D01*
X160504100Y-92864472D01*
X160504100Y-92798850D01*
X160446950Y-92741700D01*
X160113200Y-92741700D01*
X160087800Y-92741700D01*
X160067800Y-92741700D01*
X160067800Y-92716300D01*
X160087800Y-92716300D01*
X160087800Y-92696300D01*
X160113200Y-92696300D01*
X160113200Y-92716300D01*
X160446950Y-92716300D01*
X160504100Y-92659150D01*
X160504100Y-92593528D01*
X160477236Y-92528675D01*
X160490215Y-92509680D01*
X160508578Y-92419000D01*
X160508578Y-92310000D01*
X160526583Y-92310000D01*
X160532362Y-92340714D01*
X160582428Y-92418518D01*
X160636416Y-92455407D01*
X160620008Y-92462203D01*
X160555702Y-92526509D01*
X160520900Y-92610529D01*
X160520900Y-92886150D01*
X160578050Y-92943300D01*
X161086800Y-92943300D01*
X161086800Y-92923300D01*
X161112200Y-92923300D01*
X161112200Y-92943300D01*
X161620950Y-92943300D01*
X161678100Y-92886150D01*
X161678100Y-92610529D01*
X161643298Y-92526509D01*
X161578992Y-92462203D01*
X161562088Y-92455201D01*
X161612018Y-92423072D01*
X161664215Y-92346680D01*
X161682578Y-92256000D01*
X161682578Y-91656000D01*
X161666638Y-91571286D01*
X161616572Y-91493482D01*
X161540180Y-91441285D01*
X161449500Y-91422922D01*
X160749500Y-91422922D01*
X160664786Y-91438862D01*
X160586982Y-91488928D01*
X160546619Y-91548000D01*
X160100500Y-91548000D01*
X159954698Y-91577002D01*
X159954100Y-91577402D01*
X159954100Y-91533528D01*
X159919297Y-91449508D01*
X159854991Y-91385202D01*
X159770971Y-91350400D01*
X159645350Y-91350400D01*
X159588200Y-91407550D01*
X159562800Y-91407550D01*
X159505650Y-91350400D01*
X159380029Y-91350400D01*
X159296009Y-91385202D01*
X159231703Y-91449508D01*
X159196900Y-91533528D01*
X159196900Y-91577402D01*
X159196302Y-91577002D01*
X159050500Y-91548000D01*
X158821170Y-91548000D01*
X158814638Y-91513286D01*
X158764572Y-91435482D01*
X158688180Y-91383285D01*
X158597500Y-91364922D01*
X157997500Y-91364922D01*
X157912786Y-91380862D01*
X157834982Y-91430928D01*
X157798093Y-91484916D01*
X157791297Y-91468508D01*
X157726991Y-91404202D01*
X157642971Y-91369400D01*
X157367350Y-91369400D01*
X157310200Y-91426550D01*
X157284800Y-91426550D01*
X157227650Y-91369400D01*
X156952029Y-91369400D01*
X156868009Y-91404202D01*
X156803703Y-91468508D01*
X156768900Y-91552528D01*
X156601487Y-91552528D01*
X157108214Y-91045801D01*
X157876641Y-91045801D01*
X158022444Y-91016799D01*
X158146049Y-90934209D01*
X158384405Y-90695852D01*
X158384408Y-90695850D01*
X158404422Y-90665897D01*
X158404422Y-90690500D01*
X158420362Y-90775214D01*
X158470428Y-90853018D01*
X158546820Y-90905215D01*
X158637500Y-90923578D01*
X160037500Y-90923578D01*
X160122214Y-90907638D01*
X160200018Y-90857572D01*
X160252215Y-90781180D01*
X160270578Y-90690500D01*
X160270578Y-87490500D01*
X160404422Y-87490500D01*
X160404422Y-90690500D01*
X160420362Y-90775214D01*
X160470428Y-90853018D01*
X160546820Y-90905215D01*
X160637500Y-90923578D01*
X162037500Y-90923578D01*
X162122214Y-90907638D01*
X162200018Y-90857572D01*
X162252215Y-90781180D01*
X162270578Y-90690500D01*
X162270578Y-90444320D01*
X163177822Y-90444320D01*
X163177822Y-92643960D01*
X163193762Y-92728674D01*
X163243828Y-92806478D01*
X163320220Y-92858675D01*
X163410900Y-92877038D01*
X165011100Y-92877038D01*
X165095814Y-92861098D01*
X165173618Y-92811032D01*
X165225815Y-92734640D01*
X165244178Y-92643960D01*
X165244178Y-90444320D01*
X165228238Y-90359606D01*
X165178172Y-90281802D01*
X165101780Y-90229605D01*
X165011100Y-90211242D01*
X163410900Y-90211242D01*
X163326186Y-90227182D01*
X163248382Y-90277248D01*
X163196185Y-90353640D01*
X163177822Y-90444320D01*
X162270578Y-90444320D01*
X162270578Y-88611710D01*
X163182300Y-88611710D01*
X163182300Y-89687151D01*
X163217102Y-89771171D01*
X163281408Y-89835477D01*
X163365428Y-89870280D01*
X164141150Y-89870280D01*
X164198300Y-89813130D01*
X164198300Y-88554560D01*
X164223700Y-88554560D01*
X164223700Y-89813130D01*
X164280850Y-89870280D01*
X165056572Y-89870280D01*
X165140592Y-89835477D01*
X165204898Y-89771171D01*
X165239700Y-89687151D01*
X165239700Y-88611710D01*
X165182550Y-88554560D01*
X164223700Y-88554560D01*
X164198300Y-88554560D01*
X163239450Y-88554560D01*
X163182300Y-88611710D01*
X162270578Y-88611710D01*
X162270578Y-87490500D01*
X162254638Y-87405786D01*
X162204572Y-87327982D01*
X162128180Y-87275785D01*
X162037500Y-87257422D01*
X160637500Y-87257422D01*
X160552786Y-87273362D01*
X160474982Y-87323428D01*
X160422785Y-87399820D01*
X160404422Y-87490500D01*
X160270578Y-87490500D01*
X160254638Y-87405786D01*
X160204572Y-87327982D01*
X160128180Y-87275785D01*
X160037500Y-87257422D01*
X158637500Y-87257422D01*
X158552786Y-87273362D01*
X158474982Y-87323428D01*
X158422785Y-87399820D01*
X158404422Y-87490500D01*
X158404422Y-88454103D01*
X158384408Y-88424150D01*
X158384405Y-88424148D01*
X157988173Y-88027916D01*
X158026597Y-87989492D01*
X158061400Y-87905472D01*
X158061400Y-87729850D01*
X158004250Y-87672700D01*
X157170500Y-87672700D01*
X157170500Y-87692700D01*
X157145100Y-87692700D01*
X157145100Y-87672700D01*
X157125100Y-87672700D01*
X157125100Y-87647300D01*
X157145100Y-87647300D01*
X157145100Y-87627300D01*
X157170500Y-87627300D01*
X157170500Y-87647300D01*
X158004250Y-87647300D01*
X158061400Y-87590150D01*
X158061400Y-87414528D01*
X158026800Y-87330997D01*
X158047515Y-87300680D01*
X158065878Y-87210000D01*
X158065878Y-86810000D01*
X158049938Y-86725286D01*
X158024039Y-86685038D01*
X158037867Y-86664800D01*
X158427922Y-86664800D01*
X158427922Y-86848000D01*
X158443862Y-86932714D01*
X158493928Y-87010518D01*
X158570320Y-87062715D01*
X158661000Y-87081078D01*
X159911000Y-87081078D01*
X159995714Y-87065138D01*
X160073518Y-87015072D01*
X160125715Y-86938680D01*
X160144078Y-86848000D01*
X160144078Y-86248000D01*
X160128138Y-86163286D01*
X160078072Y-86085482D01*
X160060480Y-86073462D01*
X160073518Y-86065072D01*
X160125715Y-85988680D01*
X160144078Y-85898000D01*
X160144078Y-85298000D01*
X160128138Y-85213286D01*
X160078072Y-85135482D01*
X160060480Y-85123462D01*
X160073518Y-85115072D01*
X160125715Y-85038680D01*
X160144078Y-84948000D01*
X160144078Y-84348000D01*
X160135523Y-84302529D01*
X161932400Y-84302529D01*
X161932400Y-84578150D01*
X161989550Y-84635300D01*
X162773300Y-84635300D01*
X162773300Y-84176550D01*
X162798700Y-84176550D01*
X162798700Y-84635300D01*
X163582450Y-84635300D01*
X163639600Y-84578150D01*
X163639600Y-84302529D01*
X163604798Y-84218509D01*
X163540492Y-84154203D01*
X163456472Y-84119400D01*
X162855850Y-84119400D01*
X162798700Y-84176550D01*
X162773300Y-84176550D01*
X162716150Y-84119400D01*
X162115528Y-84119400D01*
X162031508Y-84154203D01*
X161967202Y-84218509D01*
X161932400Y-84302529D01*
X160135523Y-84302529D01*
X160128138Y-84263286D01*
X160078072Y-84185482D01*
X160001680Y-84133285D01*
X159911000Y-84114922D01*
X158661000Y-84114922D01*
X158576286Y-84130862D01*
X158498482Y-84180928D01*
X158446285Y-84257320D01*
X158427922Y-84348000D01*
X158427922Y-84369685D01*
X158414592Y-84378592D01*
X158114184Y-84679000D01*
X157972823Y-84679000D01*
X157923480Y-84645285D01*
X157832800Y-84626922D01*
X156482800Y-84626922D01*
X156398086Y-84642862D01*
X156341927Y-84679000D01*
X156097200Y-84679000D01*
X156069477Y-84684514D01*
X156060028Y-84680591D01*
X155852881Y-84680410D01*
X155665878Y-84757678D01*
X155665878Y-83960000D01*
X155649938Y-83875286D01*
X155599872Y-83797482D01*
X155523480Y-83745285D01*
X155432800Y-83726922D01*
X155270644Y-83726922D01*
X155354296Y-83643416D01*
X155438347Y-83441000D01*
X155999722Y-83441000D01*
X155999722Y-83960000D01*
X156015662Y-84044714D01*
X156065728Y-84122518D01*
X156142120Y-84174715D01*
X156232800Y-84193078D01*
X157632800Y-84193078D01*
X157717514Y-84177138D01*
X157795318Y-84127072D01*
X157847515Y-84050680D01*
X157865878Y-83960000D01*
X157865878Y-82360000D01*
X157849938Y-82275286D01*
X157799872Y-82197482D01*
X157723480Y-82145285D01*
X157632800Y-82126922D01*
X156232800Y-82126922D01*
X156148086Y-82142862D01*
X156070282Y-82192928D01*
X156018085Y-82269320D01*
X155999722Y-82360000D01*
X155999722Y-82679000D01*
X155438321Y-82679000D01*
X155355313Y-82478106D01*
X155066216Y-82188504D01*
X155024557Y-82171205D01*
X155098000Y-82186078D01*
X155798000Y-82186078D01*
X155882714Y-82170138D01*
X155960518Y-82120072D01*
X156012715Y-82043680D01*
X156024628Y-81984850D01*
X158523940Y-81984850D01*
X158523940Y-82760572D01*
X158558743Y-82844592D01*
X158623049Y-82908898D01*
X158707069Y-82943700D01*
X159782510Y-82943700D01*
X159839660Y-82886550D01*
X159839660Y-81927700D01*
X159865060Y-81927700D01*
X159865060Y-82886550D01*
X159922210Y-82943700D01*
X160997651Y-82943700D01*
X161081671Y-82908898D01*
X161145977Y-82844592D01*
X161180780Y-82760572D01*
X161180780Y-81984850D01*
X161123630Y-81927700D01*
X159865060Y-81927700D01*
X159839660Y-81927700D01*
X158581090Y-81927700D01*
X158523940Y-81984850D01*
X156024628Y-81984850D01*
X156031078Y-81953000D01*
X156031078Y-81353000D01*
X156015138Y-81268286D01*
X155965072Y-81190482D01*
X155911084Y-81153593D01*
X155927492Y-81146797D01*
X155991798Y-81082491D01*
X155997208Y-81069428D01*
X158523940Y-81069428D01*
X158523940Y-81845150D01*
X158581090Y-81902300D01*
X159839660Y-81902300D01*
X159839660Y-80943450D01*
X159865060Y-80943450D01*
X159865060Y-81902300D01*
X161123630Y-81902300D01*
X161180780Y-81845150D01*
X161180780Y-81114900D01*
X161521742Y-81114900D01*
X161521742Y-82715100D01*
X161537682Y-82799814D01*
X161587748Y-82877618D01*
X161664140Y-82929815D01*
X161754820Y-82948178D01*
X163954460Y-82948178D01*
X164003237Y-82939000D01*
X164214663Y-82939000D01*
X164215362Y-82942714D01*
X164265428Y-83020518D01*
X164320706Y-83058288D01*
X164269982Y-83090928D01*
X164217785Y-83167320D01*
X164199422Y-83258000D01*
X164199422Y-83858000D01*
X164215362Y-83942714D01*
X164265428Y-84020518D01*
X164341820Y-84072715D01*
X164432500Y-84091078D01*
X165132500Y-84091078D01*
X165217214Y-84075138D01*
X165295018Y-84025072D01*
X165347215Y-83948680D01*
X165365578Y-83858000D01*
X165365578Y-83258000D01*
X165349638Y-83173286D01*
X165299572Y-83095482D01*
X165244294Y-83057712D01*
X165295018Y-83025072D01*
X165347215Y-82948680D01*
X165365578Y-82858000D01*
X165365578Y-82258000D01*
X165349638Y-82173286D01*
X165299572Y-82095482D01*
X165223180Y-82043285D01*
X165132500Y-82024922D01*
X164432500Y-82024922D01*
X164347786Y-82040862D01*
X164269982Y-82090928D01*
X164217785Y-82167320D01*
X164215825Y-82177000D01*
X164187538Y-82177000D01*
X164187538Y-81114900D01*
X164171598Y-81030186D01*
X164121532Y-80952382D01*
X164045140Y-80900185D01*
X163954460Y-80881822D01*
X161754820Y-80881822D01*
X161670106Y-80897762D01*
X161592302Y-80947828D01*
X161540105Y-81024220D01*
X161521742Y-81114900D01*
X161180780Y-81114900D01*
X161180780Y-81069428D01*
X161145977Y-80985408D01*
X161081671Y-80921102D01*
X160997651Y-80886300D01*
X159922210Y-80886300D01*
X159865060Y-80943450D01*
X159839660Y-80943450D01*
X159782510Y-80886300D01*
X158707069Y-80886300D01*
X158623049Y-80921102D01*
X158558743Y-80985408D01*
X158523940Y-81069428D01*
X155997208Y-81069428D01*
X156026600Y-80998471D01*
X156026600Y-80722850D01*
X155969450Y-80665700D01*
X155460700Y-80665700D01*
X155460700Y-80685700D01*
X155435300Y-80685700D01*
X155435300Y-80665700D01*
X154926550Y-80665700D01*
X154869400Y-80722850D01*
X154869400Y-80998471D01*
X154904202Y-81082491D01*
X154968508Y-81146797D01*
X154985412Y-81153799D01*
X154935482Y-81185928D01*
X154883285Y-81262320D01*
X154881325Y-81272000D01*
X154745837Y-81272000D01*
X154745138Y-81268286D01*
X154695072Y-81190482D01*
X154641084Y-81153593D01*
X154657492Y-81146797D01*
X154721798Y-81082491D01*
X154756600Y-80998471D01*
X154756600Y-80722850D01*
X154699450Y-80665700D01*
X154190700Y-80665700D01*
X154190700Y-80685700D01*
X154165300Y-80685700D01*
X154165300Y-80665700D01*
X153656550Y-80665700D01*
X153599400Y-80722850D01*
X153599400Y-80998471D01*
X153634202Y-81082491D01*
X153698508Y-81146797D01*
X153715412Y-81153799D01*
X153665482Y-81185928D01*
X153613285Y-81262320D01*
X153594922Y-81353000D01*
X153594922Y-81953000D01*
X153610862Y-82037714D01*
X153660928Y-82115518D01*
X153737320Y-82167715D01*
X153828000Y-82186078D01*
X153904316Y-82186078D01*
X153900906Y-82187487D01*
X153611304Y-82476584D01*
X153454379Y-82854501D01*
X153454022Y-83263703D01*
X153610287Y-83641894D01*
X153695167Y-83726922D01*
X153532800Y-83726922D01*
X153448086Y-83742862D01*
X153370282Y-83792928D01*
X153365200Y-83800366D01*
X153365200Y-80307529D01*
X153599400Y-80307529D01*
X153599400Y-80583150D01*
X153656550Y-80640300D01*
X154165300Y-80640300D01*
X154165300Y-80181550D01*
X154190700Y-80181550D01*
X154190700Y-80640300D01*
X154699450Y-80640300D01*
X154756600Y-80583150D01*
X154756600Y-80307529D01*
X154869400Y-80307529D01*
X154869400Y-80583150D01*
X154926550Y-80640300D01*
X155435300Y-80640300D01*
X155435300Y-80181550D01*
X155460700Y-80181550D01*
X155460700Y-80640300D01*
X155969450Y-80640300D01*
X156026600Y-80583150D01*
X156026600Y-80307529D01*
X155991798Y-80223509D01*
X155927492Y-80159203D01*
X155843472Y-80124400D01*
X155517850Y-80124400D01*
X155460700Y-80181550D01*
X155435300Y-80181550D01*
X155378150Y-80124400D01*
X155052528Y-80124400D01*
X154968508Y-80159203D01*
X154904202Y-80223509D01*
X154869400Y-80307529D01*
X154756600Y-80307529D01*
X154721798Y-80223509D01*
X154657492Y-80159203D01*
X154573472Y-80124400D01*
X154247850Y-80124400D01*
X154190700Y-80181550D01*
X154165300Y-80181550D01*
X154108150Y-80124400D01*
X153782528Y-80124400D01*
X153698508Y-80159203D01*
X153634202Y-80223509D01*
X153599400Y-80307529D01*
X153365200Y-80307529D01*
X153365200Y-74625200D01*
X153843322Y-74625200D01*
X153843322Y-77216000D01*
X153843322Y-77216000D01*
G37*
X153843322Y-77216000D02*
X153859262Y-77300714D01*
X153909328Y-77378518D01*
X153985720Y-77430715D01*
X154076400Y-77449078D01*
X155605626Y-77449078D01*
X155842074Y-77685526D01*
X155940958Y-77751598D01*
X156057600Y-77774800D01*
X156569939Y-77774800D01*
X156229358Y-78114787D01*
X156027031Y-78602045D01*
X156026570Y-79129640D01*
X156228047Y-79617251D01*
X156600787Y-79990642D01*
X157088045Y-80192969D01*
X157615640Y-80193430D01*
X158103251Y-79991953D01*
X158476642Y-79619213D01*
X158678969Y-79131955D01*
X158679430Y-78604360D01*
X158543438Y-78275235D01*
X158634122Y-78335828D01*
X158750764Y-78359030D01*
X162794578Y-78359030D01*
X170008148Y-85572600D01*
X167671564Y-85572600D01*
X166525482Y-84426518D01*
X166501246Y-84410203D01*
X166471600Y-84404200D01*
X164795200Y-84404200D01*
X164773622Y-84407319D01*
X164746889Y-84421472D01*
X164727769Y-84444910D01*
X164495195Y-84886800D01*
X163639600Y-84886800D01*
X163639600Y-84717850D01*
X163582450Y-84660700D01*
X162798700Y-84660700D01*
X162798700Y-84680700D01*
X162773300Y-84680700D01*
X162773300Y-84660700D01*
X161989550Y-84660700D01*
X161932400Y-84717850D01*
X161932400Y-84993471D01*
X161967202Y-85077491D01*
X162011964Y-85122253D01*
X161998482Y-85130928D01*
X161946285Y-85207320D01*
X161927922Y-85298000D01*
X161927922Y-85898000D01*
X161943862Y-85982714D01*
X161993928Y-86060518D01*
X162011520Y-86072538D01*
X161998482Y-86080928D01*
X161946285Y-86157320D01*
X161927922Y-86248000D01*
X161927922Y-86848000D01*
X161943862Y-86932714D01*
X161993928Y-87010518D01*
X162070320Y-87062715D01*
X162161000Y-87081078D01*
X163411000Y-87081078D01*
X163436300Y-87076317D01*
X163436300Y-87185500D01*
X163441511Y-87213195D01*
X163441669Y-87213440D01*
X163365428Y-87213440D01*
X163281408Y-87248243D01*
X163217102Y-87312549D01*
X163182300Y-87396569D01*
X163182300Y-88472010D01*
X163239450Y-88529160D01*
X164198300Y-88529160D01*
X164198300Y-88509160D01*
X164223700Y-88509160D01*
X164223700Y-88529160D01*
X165182550Y-88529160D01*
X165239700Y-88472010D01*
X165239700Y-87757000D01*
X166186036Y-87757000D01*
X167332118Y-88903082D01*
X167356354Y-88919397D01*
X167386000Y-88925400D01*
X171540548Y-88925400D01*
X168556058Y-91909890D01*
X166712910Y-91909890D01*
X166596268Y-91933092D01*
X166532198Y-91975902D01*
X166497384Y-91999164D01*
X163225626Y-95270922D01*
X161696400Y-95270922D01*
X161611686Y-95286862D01*
X161533882Y-95336928D01*
X161481685Y-95413320D01*
X161463322Y-95504000D01*
X161463322Y-98094800D01*
X161116678Y-98094800D01*
X161116678Y-95504000D01*
X161100738Y-95419286D01*
X161050672Y-95341482D01*
X160974280Y-95289285D01*
X160883600Y-95270922D01*
X159156400Y-95270922D01*
X159071686Y-95286862D01*
X158993882Y-95336928D01*
X158941685Y-95413320D01*
X158923322Y-95504000D01*
X158923322Y-98094800D01*
X158576678Y-98094800D01*
X158576678Y-95504000D01*
X158560738Y-95419286D01*
X158510672Y-95341482D01*
X158434280Y-95289285D01*
X158343600Y-95270922D01*
X156616400Y-95270922D01*
X156531686Y-95286862D01*
X156453882Y-95336928D01*
X156401685Y-95413320D01*
X156383322Y-95504000D01*
X156383322Y-98094800D01*
X156032200Y-98094800D01*
X156032200Y-96589850D01*
X155975050Y-96532700D01*
X154952700Y-96532700D01*
X154952700Y-98094800D01*
X154927300Y-98094800D01*
X154927300Y-96532700D01*
X153904950Y-96532700D01*
X153847800Y-96589850D01*
X153847800Y-98094800D01*
X153365200Y-98094800D01*
X153365200Y-95458529D01*
X153847800Y-95458529D01*
X153847800Y-96450150D01*
X153904950Y-96507300D01*
X154927300Y-96507300D01*
X154927300Y-95332550D01*
X154952700Y-95332550D01*
X154952700Y-96507300D01*
X155975050Y-96507300D01*
X156032200Y-96450150D01*
X156032200Y-95458529D01*
X155997398Y-95374509D01*
X155933092Y-95310203D01*
X155849072Y-95275400D01*
X155009850Y-95275400D01*
X154952700Y-95332550D01*
X154927300Y-95332550D01*
X154870150Y-95275400D01*
X154030928Y-95275400D01*
X153946908Y-95310203D01*
X153882602Y-95374509D01*
X153847800Y-95458529D01*
X153365200Y-95458529D01*
X153365200Y-95076678D01*
X155956000Y-95076678D01*
X156040714Y-95060738D01*
X156118518Y-95010672D01*
X156170715Y-94934280D01*
X156189078Y-94843600D01*
X156189078Y-94572439D01*
X156228047Y-94666751D01*
X156600787Y-95040142D01*
X157088045Y-95242469D01*
X157615640Y-95242930D01*
X158103251Y-95041453D01*
X158476642Y-94668713D01*
X158678969Y-94181455D01*
X158679430Y-93653860D01*
X158477953Y-93166249D01*
X158105213Y-92792858D01*
X157617955Y-92590531D01*
X157090360Y-92590070D01*
X156602749Y-92791547D01*
X156229358Y-93164287D01*
X156189078Y-93261292D01*
X156189078Y-93116400D01*
X156173138Y-93031686D01*
X156123072Y-92953882D01*
X156046680Y-92901685D01*
X155956000Y-92883322D01*
X155321000Y-92883322D01*
X155321000Y-92833016D01*
X156136165Y-92017850D01*
X156768900Y-92017850D01*
X156768900Y-92343472D01*
X156803703Y-92427492D01*
X156868009Y-92491798D01*
X156952029Y-92526600D01*
X157227650Y-92526600D01*
X157284800Y-92469450D01*
X157284800Y-91960700D01*
X156826050Y-91960700D01*
X156768900Y-92017850D01*
X156136165Y-92017850D01*
X156601487Y-91552528D01*
X156768900Y-91552528D01*
X156768900Y-91878150D01*
X156826050Y-91935300D01*
X157284800Y-91935300D01*
X157284800Y-91426550D01*
X157310200Y-91426550D01*
X157310200Y-91935300D01*
X157330200Y-91935300D01*
X157330200Y-91960700D01*
X157310200Y-91960700D01*
X157310200Y-92469450D01*
X157367350Y-92526600D01*
X157642971Y-92526600D01*
X157726991Y-92491798D01*
X157791297Y-92427492D01*
X157798299Y-92410588D01*
X157830428Y-92460518D01*
X157906820Y-92512715D01*
X157997500Y-92531078D01*
X158597500Y-92531078D01*
X158667495Y-92517907D01*
X158674319Y-92528512D01*
X158660785Y-92548320D01*
X158642422Y-92639000D01*
X158642422Y-92819000D01*
X158658362Y-92903714D01*
X158708428Y-92981518D01*
X158784820Y-93033715D01*
X158875500Y-93052078D01*
X159196900Y-93052078D01*
X159196900Y-93124472D01*
X159231703Y-93208492D01*
X159296009Y-93272798D01*
X159380029Y-93307600D01*
X159505650Y-93307600D01*
X159562800Y-93250450D01*
X159562800Y-92341700D01*
X159542800Y-92341700D01*
X159542800Y-92316300D01*
X159562800Y-92316300D01*
X159562800Y-91407550D01*
X159588200Y-91407550D01*
X159588200Y-92316300D01*
X159608200Y-92316300D01*
X159608200Y-92341700D01*
X159588200Y-92341700D01*
X159588200Y-93250450D01*
X159645350Y-93307600D01*
X159770971Y-93307600D01*
X159854991Y-93272798D01*
X159919297Y-93208492D01*
X159954100Y-93124472D01*
X159954100Y-93047600D01*
X160030650Y-93047600D01*
X160087800Y-92990450D01*
X160087800Y-92741700D01*
X160113200Y-92741700D01*
X160113200Y-92990450D01*
X160170350Y-93047600D01*
X160320971Y-93047600D01*
X160373480Y-93025850D01*
X160520900Y-93025850D01*
X160520900Y-93301471D01*
X160555702Y-93385491D01*
X160620008Y-93449797D01*
X160704028Y-93484600D01*
X161029650Y-93484600D01*
X161086800Y-93427450D01*
X161086800Y-92968700D01*
X161112200Y-92968700D01*
X161112200Y-93427450D01*
X161169350Y-93484600D01*
X161494972Y-93484600D01*
X161578992Y-93449797D01*
X161643298Y-93385491D01*
X161678100Y-93301471D01*
X161678100Y-93025850D01*
X161620950Y-92968700D01*
X161112200Y-92968700D01*
X161086800Y-92968700D01*
X160578050Y-92968700D01*
X160520900Y-93025850D01*
X160373480Y-93025850D01*
X160404991Y-93012798D01*
X160469297Y-92948492D01*
X160504100Y-92864472D01*
X160504100Y-92798850D01*
X160446950Y-92741700D01*
X160113200Y-92741700D01*
X160087800Y-92741700D01*
X160067800Y-92741700D01*
X160067800Y-92716300D01*
X160087800Y-92716300D01*
X160087800Y-92696300D01*
X160113200Y-92696300D01*
X160113200Y-92716300D01*
X160446950Y-92716300D01*
X160504100Y-92659150D01*
X160504100Y-92593528D01*
X160477236Y-92528675D01*
X160490215Y-92509680D01*
X160508578Y-92419000D01*
X160508578Y-92310000D01*
X160526583Y-92310000D01*
X160532362Y-92340714D01*
X160582428Y-92418518D01*
X160636416Y-92455407D01*
X160620008Y-92462203D01*
X160555702Y-92526509D01*
X160520900Y-92610529D01*
X160520900Y-92886150D01*
X160578050Y-92943300D01*
X161086800Y-92943300D01*
X161086800Y-92923300D01*
X161112200Y-92923300D01*
X161112200Y-92943300D01*
X161620950Y-92943300D01*
X161678100Y-92886150D01*
X161678100Y-92610529D01*
X161643298Y-92526509D01*
X161578992Y-92462203D01*
X161562088Y-92455201D01*
X161612018Y-92423072D01*
X161664215Y-92346680D01*
X161682578Y-92256000D01*
X161682578Y-91656000D01*
X161666638Y-91571286D01*
X161616572Y-91493482D01*
X161540180Y-91441285D01*
X161449500Y-91422922D01*
X160749500Y-91422922D01*
X160664786Y-91438862D01*
X160586982Y-91488928D01*
X160546619Y-91548000D01*
X160100500Y-91548000D01*
X159954698Y-91577002D01*
X159954100Y-91577402D01*
X159954100Y-91533528D01*
X159919297Y-91449508D01*
X159854991Y-91385202D01*
X159770971Y-91350400D01*
X159645350Y-91350400D01*
X159588200Y-91407550D01*
X159562800Y-91407550D01*
X159505650Y-91350400D01*
X159380029Y-91350400D01*
X159296009Y-91385202D01*
X159231703Y-91449508D01*
X159196900Y-91533528D01*
X159196900Y-91577402D01*
X159196302Y-91577002D01*
X159050500Y-91548000D01*
X158821170Y-91548000D01*
X158814638Y-91513286D01*
X158764572Y-91435482D01*
X158688180Y-91383285D01*
X158597500Y-91364922D01*
X157997500Y-91364922D01*
X157912786Y-91380862D01*
X157834982Y-91430928D01*
X157798093Y-91484916D01*
X157791297Y-91468508D01*
X157726991Y-91404202D01*
X157642971Y-91369400D01*
X157367350Y-91369400D01*
X157310200Y-91426550D01*
X157284800Y-91426550D01*
X157227650Y-91369400D01*
X156952029Y-91369400D01*
X156868009Y-91404202D01*
X156803703Y-91468508D01*
X156768900Y-91552528D01*
X156601487Y-91552528D01*
X157108214Y-91045801D01*
X157876641Y-91045801D01*
X158022444Y-91016799D01*
X158146049Y-90934209D01*
X158384405Y-90695852D01*
X158384408Y-90695850D01*
X158404422Y-90665897D01*
X158404422Y-90690500D01*
X158420362Y-90775214D01*
X158470428Y-90853018D01*
X158546820Y-90905215D01*
X158637500Y-90923578D01*
X160037500Y-90923578D01*
X160122214Y-90907638D01*
X160200018Y-90857572D01*
X160252215Y-90781180D01*
X160270578Y-90690500D01*
X160270578Y-87490500D01*
X160404422Y-87490500D01*
X160404422Y-90690500D01*
X160420362Y-90775214D01*
X160470428Y-90853018D01*
X160546820Y-90905215D01*
X160637500Y-90923578D01*
X162037500Y-90923578D01*
X162122214Y-90907638D01*
X162200018Y-90857572D01*
X162252215Y-90781180D01*
X162270578Y-90690500D01*
X162270578Y-90444320D01*
X163177822Y-90444320D01*
X163177822Y-92643960D01*
X163193762Y-92728674D01*
X163243828Y-92806478D01*
X163320220Y-92858675D01*
X163410900Y-92877038D01*
X165011100Y-92877038D01*
X165095814Y-92861098D01*
X165173618Y-92811032D01*
X165225815Y-92734640D01*
X165244178Y-92643960D01*
X165244178Y-90444320D01*
X165228238Y-90359606D01*
X165178172Y-90281802D01*
X165101780Y-90229605D01*
X165011100Y-90211242D01*
X163410900Y-90211242D01*
X163326186Y-90227182D01*
X163248382Y-90277248D01*
X163196185Y-90353640D01*
X163177822Y-90444320D01*
X162270578Y-90444320D01*
X162270578Y-88611710D01*
X163182300Y-88611710D01*
X163182300Y-89687151D01*
X163217102Y-89771171D01*
X163281408Y-89835477D01*
X163365428Y-89870280D01*
X164141150Y-89870280D01*
X164198300Y-89813130D01*
X164198300Y-88554560D01*
X164223700Y-88554560D01*
X164223700Y-89813130D01*
X164280850Y-89870280D01*
X165056572Y-89870280D01*
X165140592Y-89835477D01*
X165204898Y-89771171D01*
X165239700Y-89687151D01*
X165239700Y-88611710D01*
X165182550Y-88554560D01*
X164223700Y-88554560D01*
X164198300Y-88554560D01*
X163239450Y-88554560D01*
X163182300Y-88611710D01*
X162270578Y-88611710D01*
X162270578Y-87490500D01*
X162254638Y-87405786D01*
X162204572Y-87327982D01*
X162128180Y-87275785D01*
X162037500Y-87257422D01*
X160637500Y-87257422D01*
X160552786Y-87273362D01*
X160474982Y-87323428D01*
X160422785Y-87399820D01*
X160404422Y-87490500D01*
X160270578Y-87490500D01*
X160254638Y-87405786D01*
X160204572Y-87327982D01*
X160128180Y-87275785D01*
X160037500Y-87257422D01*
X158637500Y-87257422D01*
X158552786Y-87273362D01*
X158474982Y-87323428D01*
X158422785Y-87399820D01*
X158404422Y-87490500D01*
X158404422Y-88454103D01*
X158384408Y-88424150D01*
X158384405Y-88424148D01*
X157988173Y-88027916D01*
X158026597Y-87989492D01*
X158061400Y-87905472D01*
X158061400Y-87729850D01*
X158004250Y-87672700D01*
X157170500Y-87672700D01*
X157170500Y-87692700D01*
X157145100Y-87692700D01*
X157145100Y-87672700D01*
X157125100Y-87672700D01*
X157125100Y-87647300D01*
X157145100Y-87647300D01*
X157145100Y-87627300D01*
X157170500Y-87627300D01*
X157170500Y-87647300D01*
X158004250Y-87647300D01*
X158061400Y-87590150D01*
X158061400Y-87414528D01*
X158026800Y-87330997D01*
X158047515Y-87300680D01*
X158065878Y-87210000D01*
X158065878Y-86810000D01*
X158049938Y-86725286D01*
X158024039Y-86685038D01*
X158037867Y-86664800D01*
X158427922Y-86664800D01*
X158427922Y-86848000D01*
X158443862Y-86932714D01*
X158493928Y-87010518D01*
X158570320Y-87062715D01*
X158661000Y-87081078D01*
X159911000Y-87081078D01*
X159995714Y-87065138D01*
X160073518Y-87015072D01*
X160125715Y-86938680D01*
X160144078Y-86848000D01*
X160144078Y-86248000D01*
X160128138Y-86163286D01*
X160078072Y-86085482D01*
X160060480Y-86073462D01*
X160073518Y-86065072D01*
X160125715Y-85988680D01*
X160144078Y-85898000D01*
X160144078Y-85298000D01*
X160128138Y-85213286D01*
X160078072Y-85135482D01*
X160060480Y-85123462D01*
X160073518Y-85115072D01*
X160125715Y-85038680D01*
X160144078Y-84948000D01*
X160144078Y-84348000D01*
X160135523Y-84302529D01*
X161932400Y-84302529D01*
X161932400Y-84578150D01*
X161989550Y-84635300D01*
X162773300Y-84635300D01*
X162773300Y-84176550D01*
X162798700Y-84176550D01*
X162798700Y-84635300D01*
X163582450Y-84635300D01*
X163639600Y-84578150D01*
X163639600Y-84302529D01*
X163604798Y-84218509D01*
X163540492Y-84154203D01*
X163456472Y-84119400D01*
X162855850Y-84119400D01*
X162798700Y-84176550D01*
X162773300Y-84176550D01*
X162716150Y-84119400D01*
X162115528Y-84119400D01*
X162031508Y-84154203D01*
X161967202Y-84218509D01*
X161932400Y-84302529D01*
X160135523Y-84302529D01*
X160128138Y-84263286D01*
X160078072Y-84185482D01*
X160001680Y-84133285D01*
X159911000Y-84114922D01*
X158661000Y-84114922D01*
X158576286Y-84130862D01*
X158498482Y-84180928D01*
X158446285Y-84257320D01*
X158427922Y-84348000D01*
X158427922Y-84369685D01*
X158414592Y-84378592D01*
X158114184Y-84679000D01*
X157972823Y-84679000D01*
X157923480Y-84645285D01*
X157832800Y-84626922D01*
X156482800Y-84626922D01*
X156398086Y-84642862D01*
X156341927Y-84679000D01*
X156097200Y-84679000D01*
X156069477Y-84684514D01*
X156060028Y-84680591D01*
X155852881Y-84680410D01*
X155665878Y-84757678D01*
X155665878Y-83960000D01*
X155649938Y-83875286D01*
X155599872Y-83797482D01*
X155523480Y-83745285D01*
X155432800Y-83726922D01*
X155270644Y-83726922D01*
X155354296Y-83643416D01*
X155438347Y-83441000D01*
X155999722Y-83441000D01*
X155999722Y-83960000D01*
X156015662Y-84044714D01*
X156065728Y-84122518D01*
X156142120Y-84174715D01*
X156232800Y-84193078D01*
X157632800Y-84193078D01*
X157717514Y-84177138D01*
X157795318Y-84127072D01*
X157847515Y-84050680D01*
X157865878Y-83960000D01*
X157865878Y-82360000D01*
X157849938Y-82275286D01*
X157799872Y-82197482D01*
X157723480Y-82145285D01*
X157632800Y-82126922D01*
X156232800Y-82126922D01*
X156148086Y-82142862D01*
X156070282Y-82192928D01*
X156018085Y-82269320D01*
X155999722Y-82360000D01*
X155999722Y-82679000D01*
X155438321Y-82679000D01*
X155355313Y-82478106D01*
X155066216Y-82188504D01*
X155024557Y-82171205D01*
X155098000Y-82186078D01*
X155798000Y-82186078D01*
X155882714Y-82170138D01*
X155960518Y-82120072D01*
X156012715Y-82043680D01*
X156024628Y-81984850D01*
X158523940Y-81984850D01*
X158523940Y-82760572D01*
X158558743Y-82844592D01*
X158623049Y-82908898D01*
X158707069Y-82943700D01*
X159782510Y-82943700D01*
X159839660Y-82886550D01*
X159839660Y-81927700D01*
X159865060Y-81927700D01*
X159865060Y-82886550D01*
X159922210Y-82943700D01*
X160997651Y-82943700D01*
X161081671Y-82908898D01*
X161145977Y-82844592D01*
X161180780Y-82760572D01*
X161180780Y-81984850D01*
X161123630Y-81927700D01*
X159865060Y-81927700D01*
X159839660Y-81927700D01*
X158581090Y-81927700D01*
X158523940Y-81984850D01*
X156024628Y-81984850D01*
X156031078Y-81953000D01*
X156031078Y-81353000D01*
X156015138Y-81268286D01*
X155965072Y-81190482D01*
X155911084Y-81153593D01*
X155927492Y-81146797D01*
X155991798Y-81082491D01*
X155997208Y-81069428D01*
X158523940Y-81069428D01*
X158523940Y-81845150D01*
X158581090Y-81902300D01*
X159839660Y-81902300D01*
X159839660Y-80943450D01*
X159865060Y-80943450D01*
X159865060Y-81902300D01*
X161123630Y-81902300D01*
X161180780Y-81845150D01*
X161180780Y-81114900D01*
X161521742Y-81114900D01*
X161521742Y-82715100D01*
X161537682Y-82799814D01*
X161587748Y-82877618D01*
X161664140Y-82929815D01*
X161754820Y-82948178D01*
X163954460Y-82948178D01*
X164003237Y-82939000D01*
X164214663Y-82939000D01*
X164215362Y-82942714D01*
X164265428Y-83020518D01*
X164320706Y-83058288D01*
X164269982Y-83090928D01*
X164217785Y-83167320D01*
X164199422Y-83258000D01*
X164199422Y-83858000D01*
X164215362Y-83942714D01*
X164265428Y-84020518D01*
X164341820Y-84072715D01*
X164432500Y-84091078D01*
X165132500Y-84091078D01*
X165217214Y-84075138D01*
X165295018Y-84025072D01*
X165347215Y-83948680D01*
X165365578Y-83858000D01*
X165365578Y-83258000D01*
X165349638Y-83173286D01*
X165299572Y-83095482D01*
X165244294Y-83057712D01*
X165295018Y-83025072D01*
X165347215Y-82948680D01*
X165365578Y-82858000D01*
X165365578Y-82258000D01*
X165349638Y-82173286D01*
X165299572Y-82095482D01*
X165223180Y-82043285D01*
X165132500Y-82024922D01*
X164432500Y-82024922D01*
X164347786Y-82040862D01*
X164269982Y-82090928D01*
X164217785Y-82167320D01*
X164215825Y-82177000D01*
X164187538Y-82177000D01*
X164187538Y-81114900D01*
X164171598Y-81030186D01*
X164121532Y-80952382D01*
X164045140Y-80900185D01*
X163954460Y-80881822D01*
X161754820Y-80881822D01*
X161670106Y-80897762D01*
X161592302Y-80947828D01*
X161540105Y-81024220D01*
X161521742Y-81114900D01*
X161180780Y-81114900D01*
X161180780Y-81069428D01*
X161145977Y-80985408D01*
X161081671Y-80921102D01*
X160997651Y-80886300D01*
X159922210Y-80886300D01*
X159865060Y-80943450D01*
X159839660Y-80943450D01*
X159782510Y-80886300D01*
X158707069Y-80886300D01*
X158623049Y-80921102D01*
X158558743Y-80985408D01*
X158523940Y-81069428D01*
X155997208Y-81069428D01*
X156026600Y-80998471D01*
X156026600Y-80722850D01*
X155969450Y-80665700D01*
X155460700Y-80665700D01*
X155460700Y-80685700D01*
X155435300Y-80685700D01*
X155435300Y-80665700D01*
X154926550Y-80665700D01*
X154869400Y-80722850D01*
X154869400Y-80998471D01*
X154904202Y-81082491D01*
X154968508Y-81146797D01*
X154985412Y-81153799D01*
X154935482Y-81185928D01*
X154883285Y-81262320D01*
X154881325Y-81272000D01*
X154745837Y-81272000D01*
X154745138Y-81268286D01*
X154695072Y-81190482D01*
X154641084Y-81153593D01*
X154657492Y-81146797D01*
X154721798Y-81082491D01*
X154756600Y-80998471D01*
X154756600Y-80722850D01*
X154699450Y-80665700D01*
X154190700Y-80665700D01*
X154190700Y-80685700D01*
X154165300Y-80685700D01*
X154165300Y-80665700D01*
X153656550Y-80665700D01*
X153599400Y-80722850D01*
X153599400Y-80998471D01*
X153634202Y-81082491D01*
X153698508Y-81146797D01*
X153715412Y-81153799D01*
X153665482Y-81185928D01*
X153613285Y-81262320D01*
X153594922Y-81353000D01*
X153594922Y-81953000D01*
X153610862Y-82037714D01*
X153660928Y-82115518D01*
X153737320Y-82167715D01*
X153828000Y-82186078D01*
X153904316Y-82186078D01*
X153900906Y-82187487D01*
X153611304Y-82476584D01*
X153454379Y-82854501D01*
X153454022Y-83263703D01*
X153610287Y-83641894D01*
X153695167Y-83726922D01*
X153532800Y-83726922D01*
X153448086Y-83742862D01*
X153370282Y-83792928D01*
X153365200Y-83800366D01*
X153365200Y-80307529D01*
X153599400Y-80307529D01*
X153599400Y-80583150D01*
X153656550Y-80640300D01*
X154165300Y-80640300D01*
X154165300Y-80181550D01*
X154190700Y-80181550D01*
X154190700Y-80640300D01*
X154699450Y-80640300D01*
X154756600Y-80583150D01*
X154756600Y-80307529D01*
X154869400Y-80307529D01*
X154869400Y-80583150D01*
X154926550Y-80640300D01*
X155435300Y-80640300D01*
X155435300Y-80181550D01*
X155460700Y-80181550D01*
X155460700Y-80640300D01*
X155969450Y-80640300D01*
X156026600Y-80583150D01*
X156026600Y-80307529D01*
X155991798Y-80223509D01*
X155927492Y-80159203D01*
X155843472Y-80124400D01*
X155517850Y-80124400D01*
X155460700Y-80181550D01*
X155435300Y-80181550D01*
X155378150Y-80124400D01*
X155052528Y-80124400D01*
X154968508Y-80159203D01*
X154904202Y-80223509D01*
X154869400Y-80307529D01*
X154756600Y-80307529D01*
X154721798Y-80223509D01*
X154657492Y-80159203D01*
X154573472Y-80124400D01*
X154247850Y-80124400D01*
X154190700Y-80181550D01*
X154165300Y-80181550D01*
X154108150Y-80124400D01*
X153782528Y-80124400D01*
X153698508Y-80159203D01*
X153634202Y-80223509D01*
X153599400Y-80307529D01*
X153365200Y-80307529D01*
X153365200Y-74625200D01*
X153843322Y-74625200D01*
X153843322Y-77216000D01*
G36*
X184313320Y-79818315D02*
X184404000Y-79836678D01*
X186994800Y-79836678D01*
X186994800Y-80187800D01*
X185489850Y-80187800D01*
X185432700Y-80244950D01*
X185432700Y-81267300D01*
X186994800Y-81267300D01*
X186994800Y-81292700D01*
X185432700Y-81292700D01*
X185432700Y-82315050D01*
X185489850Y-82372200D01*
X186994800Y-82372200D01*
X186994800Y-98094800D01*
X186516678Y-98094800D01*
X186516678Y-95504000D01*
X186500738Y-95419286D01*
X186450672Y-95341482D01*
X186374280Y-95289285D01*
X186283600Y-95270922D01*
X185708752Y-95270922D01*
X185701598Y-95234958D01*
X185635526Y-95136074D01*
X185285199Y-94785747D01*
X185285199Y-94216078D01*
X186259000Y-94216078D01*
X186343714Y-94200138D01*
X186421518Y-94150072D01*
X186473715Y-94073680D01*
X186492078Y-93983000D01*
X186492078Y-93333000D01*
X186476138Y-93248286D01*
X186426072Y-93170482D01*
X186349680Y-93118285D01*
X186259000Y-93099922D01*
X185285199Y-93099922D01*
X185285199Y-92066078D01*
X186259000Y-92066078D01*
X186343714Y-92050138D01*
X186421518Y-92000072D01*
X186473715Y-91923680D01*
X186492078Y-91833000D01*
X186492078Y-91183000D01*
X186476138Y-91098286D01*
X186426072Y-91020482D01*
X186349680Y-90968285D01*
X186259000Y-90949922D01*
X185461648Y-90949922D01*
X185966366Y-90445204D01*
X186032438Y-90346320D01*
X186055640Y-90229678D01*
X186055640Y-84979594D01*
X186032438Y-84862952D01*
X185966366Y-84764068D01*
X184987935Y-83785637D01*
X184889051Y-83719565D01*
X184772409Y-83696363D01*
X180317467Y-83696363D01*
X182663980Y-81349850D01*
X184175400Y-81349850D01*
X184175400Y-82189072D01*
X184210203Y-82273092D01*
X184274509Y-82337398D01*
X184358529Y-82372200D01*
X185350150Y-82372200D01*
X185407300Y-82315050D01*
X185407300Y-81292700D01*
X184232550Y-81292700D01*
X184175400Y-81349850D01*
X182663980Y-81349850D01*
X183642902Y-80370928D01*
X184175400Y-80370928D01*
X184175400Y-81210150D01*
X184232550Y-81267300D01*
X185407300Y-81267300D01*
X185407300Y-80244950D01*
X185350150Y-80187800D01*
X184358529Y-80187800D01*
X184274509Y-80222602D01*
X184210203Y-80286908D01*
X184175400Y-80370928D01*
X183642902Y-80370928D01*
X184243335Y-79770495D01*
X184313320Y-79818315D01*
X184313320Y-79818315D01*
G37*
X184313320Y-79818315D02*
X184404000Y-79836678D01*
X186994800Y-79836678D01*
X186994800Y-80187800D01*
X185489850Y-80187800D01*
X185432700Y-80244950D01*
X185432700Y-81267300D01*
X186994800Y-81267300D01*
X186994800Y-81292700D01*
X185432700Y-81292700D01*
X185432700Y-82315050D01*
X185489850Y-82372200D01*
X186994800Y-82372200D01*
X186994800Y-98094800D01*
X186516678Y-98094800D01*
X186516678Y-95504000D01*
X186500738Y-95419286D01*
X186450672Y-95341482D01*
X186374280Y-95289285D01*
X186283600Y-95270922D01*
X185708752Y-95270922D01*
X185701598Y-95234958D01*
X185635526Y-95136074D01*
X185285199Y-94785747D01*
X185285199Y-94216078D01*
X186259000Y-94216078D01*
X186343714Y-94200138D01*
X186421518Y-94150072D01*
X186473715Y-94073680D01*
X186492078Y-93983000D01*
X186492078Y-93333000D01*
X186476138Y-93248286D01*
X186426072Y-93170482D01*
X186349680Y-93118285D01*
X186259000Y-93099922D01*
X185285199Y-93099922D01*
X185285199Y-92066078D01*
X186259000Y-92066078D01*
X186343714Y-92050138D01*
X186421518Y-92000072D01*
X186473715Y-91923680D01*
X186492078Y-91833000D01*
X186492078Y-91183000D01*
X186476138Y-91098286D01*
X186426072Y-91020482D01*
X186349680Y-90968285D01*
X186259000Y-90949922D01*
X185461648Y-90949922D01*
X185966366Y-90445204D01*
X186032438Y-90346320D01*
X186055640Y-90229678D01*
X186055640Y-84979594D01*
X186032438Y-84862952D01*
X185966366Y-84764068D01*
X184987935Y-83785637D01*
X184889051Y-83719565D01*
X184772409Y-83696363D01*
X180317467Y-83696363D01*
X182663980Y-81349850D01*
X184175400Y-81349850D01*
X184175400Y-82189072D01*
X184210203Y-82273092D01*
X184274509Y-82337398D01*
X184358529Y-82372200D01*
X185350150Y-82372200D01*
X185407300Y-82315050D01*
X185407300Y-81292700D01*
X184232550Y-81292700D01*
X184175400Y-81349850D01*
X182663980Y-81349850D01*
X183642902Y-80370928D01*
X184175400Y-80370928D01*
X184175400Y-81210150D01*
X184232550Y-81267300D01*
X185407300Y-81267300D01*
X185407300Y-80244950D01*
X185350150Y-80187800D01*
X184358529Y-80187800D01*
X184274509Y-80222602D01*
X184210203Y-80286908D01*
X184175400Y-80370928D01*
X183642902Y-80370928D01*
X184243335Y-79770495D01*
X184313320Y-79818315D01*
G36*
X184226801Y-85610871D02*
X184226801Y-89598401D01*
X183545637Y-90279565D01*
X183479565Y-90378449D01*
X183456363Y-90495091D01*
X183456362Y-94065520D01*
X183186302Y-94335580D01*
X178510078Y-94335580D01*
X178510078Y-93799000D01*
X178496691Y-93727850D01*
X179780400Y-93727850D01*
X179780400Y-94028472D01*
X179815203Y-94112492D01*
X179879509Y-94176798D01*
X179963529Y-94211600D01*
X180464150Y-94211600D01*
X180521300Y-94154450D01*
X180521300Y-93670700D01*
X180546700Y-93670700D01*
X180546700Y-94154450D01*
X180603850Y-94211600D01*
X181104471Y-94211600D01*
X181188491Y-94176798D01*
X181252797Y-94112492D01*
X181287600Y-94028472D01*
X181287600Y-93727850D01*
X181230450Y-93670700D01*
X180546700Y-93670700D01*
X180521300Y-93670700D01*
X179837550Y-93670700D01*
X179780400Y-93727850D01*
X178496691Y-93727850D01*
X178494138Y-93714286D01*
X178444072Y-93636482D01*
X178388794Y-93598712D01*
X178439518Y-93566072D01*
X178491715Y-93489680D01*
X178510078Y-93399000D01*
X178510078Y-93287528D01*
X179780400Y-93287528D01*
X179780400Y-93588150D01*
X179837550Y-93645300D01*
X180521300Y-93645300D01*
X180521300Y-93161550D01*
X180546700Y-93161550D01*
X180546700Y-93645300D01*
X181230450Y-93645300D01*
X181287600Y-93588150D01*
X181287600Y-93287528D01*
X181252797Y-93203508D01*
X181188491Y-93139202D01*
X181104471Y-93104400D01*
X180603850Y-93104400D01*
X180546700Y-93161550D01*
X180521300Y-93161550D01*
X180464150Y-93104400D01*
X179963529Y-93104400D01*
X179879509Y-93139202D01*
X179815203Y-93203508D01*
X179780400Y-93287528D01*
X178510078Y-93287528D01*
X178510078Y-92799000D01*
X178494138Y-92714286D01*
X178471056Y-92678416D01*
X178491715Y-92648180D01*
X178509106Y-92562300D01*
X178614825Y-92562300D01*
X178629862Y-92642214D01*
X178679928Y-92720018D01*
X178756320Y-92772215D01*
X178847000Y-92790578D01*
X179547000Y-92790578D01*
X179631714Y-92774638D01*
X179709518Y-92724572D01*
X179761715Y-92648180D01*
X179780078Y-92557500D01*
X179780078Y-91957500D01*
X179764138Y-91872786D01*
X179714072Y-91794982D01*
X179658794Y-91757212D01*
X179709518Y-91724572D01*
X179761715Y-91648180D01*
X179775922Y-91578023D01*
X179775922Y-91833000D01*
X179791862Y-91917714D01*
X179841928Y-91995518D01*
X179918320Y-92047715D01*
X180009000Y-92066078D01*
X181059000Y-92066078D01*
X181143714Y-92050138D01*
X181221518Y-92000072D01*
X181273715Y-91923680D01*
X181292078Y-91833000D01*
X181292078Y-91183000D01*
X181276138Y-91098286D01*
X181226072Y-91020482D01*
X181149680Y-90968285D01*
X181059000Y-90949922D01*
X180009000Y-90949922D01*
X179994236Y-90952700D01*
X179779175Y-90952700D01*
X179764138Y-90872786D01*
X179714072Y-90794982D01*
X179637680Y-90742785D01*
X179547000Y-90724422D01*
X178847000Y-90724422D01*
X178762286Y-90740362D01*
X178684482Y-90790428D01*
X178632285Y-90866820D01*
X178613922Y-90957500D01*
X178613922Y-91557500D01*
X178629862Y-91642214D01*
X178679928Y-91720018D01*
X178735206Y-91757788D01*
X178684482Y-91790428D01*
X178632285Y-91866820D01*
X178614894Y-91952700D01*
X178509175Y-91952700D01*
X178494138Y-91872786D01*
X178444072Y-91794982D01*
X178390084Y-91758093D01*
X178406492Y-91751297D01*
X178470798Y-91686991D01*
X178505600Y-91602971D01*
X178505600Y-91327350D01*
X178448450Y-91270200D01*
X177939700Y-91270200D01*
X177939700Y-91290200D01*
X177914300Y-91290200D01*
X177914300Y-91270200D01*
X177405550Y-91270200D01*
X177348400Y-91327350D01*
X177348400Y-91602971D01*
X177383202Y-91686991D01*
X177447508Y-91751297D01*
X177464412Y-91758299D01*
X177414482Y-91790428D01*
X177362285Y-91866820D01*
X177343922Y-91957500D01*
X177343922Y-92557500D01*
X177359862Y-92642214D01*
X177382944Y-92678084D01*
X177362285Y-92708320D01*
X177343922Y-92799000D01*
X177343922Y-93399000D01*
X177359862Y-93483714D01*
X177409928Y-93561518D01*
X177465206Y-93599288D01*
X177414482Y-93631928D01*
X177362285Y-93708320D01*
X177343922Y-93799000D01*
X177343922Y-94335580D01*
X176987220Y-94335580D01*
X176870578Y-94358782D01*
X176771694Y-94424854D01*
X175925626Y-95270922D01*
X174396400Y-95270922D01*
X174311686Y-95286862D01*
X174233882Y-95336928D01*
X174181685Y-95413320D01*
X174163322Y-95504000D01*
X174163322Y-98094800D01*
X173816678Y-98094800D01*
X173816678Y-95504000D01*
X173800738Y-95419286D01*
X173750672Y-95341482D01*
X173674280Y-95289285D01*
X173583600Y-95270922D01*
X173024800Y-95270922D01*
X173024800Y-94360252D01*
X174116241Y-93268811D01*
X175310055Y-93268811D01*
X175426697Y-93245609D01*
X175525581Y-93179537D01*
X176513425Y-92191693D01*
X176579497Y-92092809D01*
X176602699Y-91976167D01*
X176602699Y-90912029D01*
X177348400Y-90912029D01*
X177348400Y-91187650D01*
X177405550Y-91244800D01*
X177914300Y-91244800D01*
X177914300Y-90786050D01*
X177939700Y-90786050D01*
X177939700Y-91244800D01*
X178448450Y-91244800D01*
X178505600Y-91187650D01*
X178505600Y-90912029D01*
X178470798Y-90828009D01*
X178406492Y-90763703D01*
X178322472Y-90728900D01*
X177996850Y-90728900D01*
X177939700Y-90786050D01*
X177914300Y-90786050D01*
X177857150Y-90728900D01*
X177531528Y-90728900D01*
X177447508Y-90763703D01*
X177383202Y-90828009D01*
X177348400Y-90912029D01*
X176602699Y-90912029D01*
X176602700Y-89000234D01*
X176579498Y-88883592D01*
X176513426Y-88784708D01*
X176344255Y-88615537D01*
X176360215Y-88592180D01*
X176378578Y-88501500D01*
X176378578Y-87896700D01*
X178085936Y-87896700D01*
X178358800Y-88169564D01*
X178358800Y-89344500D01*
X178364011Y-89372195D01*
X178380379Y-89397632D01*
X178405354Y-89414697D01*
X178435000Y-89420700D01*
X182245000Y-89420700D01*
X182272695Y-89415489D01*
X182298132Y-89399121D01*
X182315197Y-89374146D01*
X182321200Y-89344500D01*
X182321200Y-85525199D01*
X184141129Y-85525199D01*
X184226801Y-85610871D01*
X184226801Y-85610871D01*
G37*
X184226801Y-85610871D02*
X184226801Y-89598401D01*
X183545637Y-90279565D01*
X183479565Y-90378449D01*
X183456363Y-90495091D01*
X183456362Y-94065520D01*
X183186302Y-94335580D01*
X178510078Y-94335580D01*
X178510078Y-93799000D01*
X178496691Y-93727850D01*
X179780400Y-93727850D01*
X179780400Y-94028472D01*
X179815203Y-94112492D01*
X179879509Y-94176798D01*
X179963529Y-94211600D01*
X180464150Y-94211600D01*
X180521300Y-94154450D01*
X180521300Y-93670700D01*
X180546700Y-93670700D01*
X180546700Y-94154450D01*
X180603850Y-94211600D01*
X181104471Y-94211600D01*
X181188491Y-94176798D01*
X181252797Y-94112492D01*
X181287600Y-94028472D01*
X181287600Y-93727850D01*
X181230450Y-93670700D01*
X180546700Y-93670700D01*
X180521300Y-93670700D01*
X179837550Y-93670700D01*
X179780400Y-93727850D01*
X178496691Y-93727850D01*
X178494138Y-93714286D01*
X178444072Y-93636482D01*
X178388794Y-93598712D01*
X178439518Y-93566072D01*
X178491715Y-93489680D01*
X178510078Y-93399000D01*
X178510078Y-93287528D01*
X179780400Y-93287528D01*
X179780400Y-93588150D01*
X179837550Y-93645300D01*
X180521300Y-93645300D01*
X180521300Y-93161550D01*
X180546700Y-93161550D01*
X180546700Y-93645300D01*
X181230450Y-93645300D01*
X181287600Y-93588150D01*
X181287600Y-93287528D01*
X181252797Y-93203508D01*
X181188491Y-93139202D01*
X181104471Y-93104400D01*
X180603850Y-93104400D01*
X180546700Y-93161550D01*
X180521300Y-93161550D01*
X180464150Y-93104400D01*
X179963529Y-93104400D01*
X179879509Y-93139202D01*
X179815203Y-93203508D01*
X179780400Y-93287528D01*
X178510078Y-93287528D01*
X178510078Y-92799000D01*
X178494138Y-92714286D01*
X178471056Y-92678416D01*
X178491715Y-92648180D01*
X178509106Y-92562300D01*
X178614825Y-92562300D01*
X178629862Y-92642214D01*
X178679928Y-92720018D01*
X178756320Y-92772215D01*
X178847000Y-92790578D01*
X179547000Y-92790578D01*
X179631714Y-92774638D01*
X179709518Y-92724572D01*
X179761715Y-92648180D01*
X179780078Y-92557500D01*
X179780078Y-91957500D01*
X179764138Y-91872786D01*
X179714072Y-91794982D01*
X179658794Y-91757212D01*
X179709518Y-91724572D01*
X179761715Y-91648180D01*
X179775922Y-91578023D01*
X179775922Y-91833000D01*
X179791862Y-91917714D01*
X179841928Y-91995518D01*
X179918320Y-92047715D01*
X180009000Y-92066078D01*
X181059000Y-92066078D01*
X181143714Y-92050138D01*
X181221518Y-92000072D01*
X181273715Y-91923680D01*
X181292078Y-91833000D01*
X181292078Y-91183000D01*
X181276138Y-91098286D01*
X181226072Y-91020482D01*
X181149680Y-90968285D01*
X181059000Y-90949922D01*
X180009000Y-90949922D01*
X179994236Y-90952700D01*
X179779175Y-90952700D01*
X179764138Y-90872786D01*
X179714072Y-90794982D01*
X179637680Y-90742785D01*
X179547000Y-90724422D01*
X178847000Y-90724422D01*
X178762286Y-90740362D01*
X178684482Y-90790428D01*
X178632285Y-90866820D01*
X178613922Y-90957500D01*
X178613922Y-91557500D01*
X178629862Y-91642214D01*
X178679928Y-91720018D01*
X178735206Y-91757788D01*
X178684482Y-91790428D01*
X178632285Y-91866820D01*
X178614894Y-91952700D01*
X178509175Y-91952700D01*
X178494138Y-91872786D01*
X178444072Y-91794982D01*
X178390084Y-91758093D01*
X178406492Y-91751297D01*
X178470798Y-91686991D01*
X178505600Y-91602971D01*
X178505600Y-91327350D01*
X178448450Y-91270200D01*
X177939700Y-91270200D01*
X177939700Y-91290200D01*
X177914300Y-91290200D01*
X177914300Y-91270200D01*
X177405550Y-91270200D01*
X177348400Y-91327350D01*
X177348400Y-91602971D01*
X177383202Y-91686991D01*
X177447508Y-91751297D01*
X177464412Y-91758299D01*
X177414482Y-91790428D01*
X177362285Y-91866820D01*
X177343922Y-91957500D01*
X177343922Y-92557500D01*
X177359862Y-92642214D01*
X177382944Y-92678084D01*
X177362285Y-92708320D01*
X177343922Y-92799000D01*
X177343922Y-93399000D01*
X177359862Y-93483714D01*
X177409928Y-93561518D01*
X177465206Y-93599288D01*
X177414482Y-93631928D01*
X177362285Y-93708320D01*
X177343922Y-93799000D01*
X177343922Y-94335580D01*
X176987220Y-94335580D01*
X176870578Y-94358782D01*
X176771694Y-94424854D01*
X175925626Y-95270922D01*
X174396400Y-95270922D01*
X174311686Y-95286862D01*
X174233882Y-95336928D01*
X174181685Y-95413320D01*
X174163322Y-95504000D01*
X174163322Y-98094800D01*
X173816678Y-98094800D01*
X173816678Y-95504000D01*
X173800738Y-95419286D01*
X173750672Y-95341482D01*
X173674280Y-95289285D01*
X173583600Y-95270922D01*
X173024800Y-95270922D01*
X173024800Y-94360252D01*
X174116241Y-93268811D01*
X175310055Y-93268811D01*
X175426697Y-93245609D01*
X175525581Y-93179537D01*
X176513425Y-92191693D01*
X176579497Y-92092809D01*
X176602699Y-91976167D01*
X176602699Y-90912029D01*
X177348400Y-90912029D01*
X177348400Y-91187650D01*
X177405550Y-91244800D01*
X177914300Y-91244800D01*
X177914300Y-90786050D01*
X177939700Y-90786050D01*
X177939700Y-91244800D01*
X178448450Y-91244800D01*
X178505600Y-91187650D01*
X178505600Y-90912029D01*
X178470798Y-90828009D01*
X178406492Y-90763703D01*
X178322472Y-90728900D01*
X177996850Y-90728900D01*
X177939700Y-90786050D01*
X177914300Y-90786050D01*
X177857150Y-90728900D01*
X177531528Y-90728900D01*
X177447508Y-90763703D01*
X177383202Y-90828009D01*
X177348400Y-90912029D01*
X176602699Y-90912029D01*
X176602700Y-89000234D01*
X176579498Y-88883592D01*
X176513426Y-88784708D01*
X176344255Y-88615537D01*
X176360215Y-88592180D01*
X176378578Y-88501500D01*
X176378578Y-87896700D01*
X178085936Y-87896700D01*
X178358800Y-88169564D01*
X178358800Y-89344500D01*
X178364011Y-89372195D01*
X178380379Y-89397632D01*
X178405354Y-89414697D01*
X178435000Y-89420700D01*
X182245000Y-89420700D01*
X182272695Y-89415489D01*
X182298132Y-89399121D01*
X182315197Y-89374146D01*
X182321200Y-89344500D01*
X182321200Y-85525199D01*
X184141129Y-85525199D01*
X184226801Y-85610871D01*
G36*
X166543422Y-93695000D02*
X166559362Y-93779714D01*
X166609428Y-93857518D01*
X166685820Y-93909715D01*
X166771700Y-93927106D01*
X166771700Y-94008930D01*
X166699786Y-94022462D01*
X166621982Y-94072528D01*
X166569785Y-94148920D01*
X166551422Y-94239600D01*
X166551422Y-94939600D01*
X166567362Y-95024314D01*
X166617428Y-95102118D01*
X166693820Y-95154315D01*
X166784500Y-95172678D01*
X167384500Y-95172678D01*
X167469214Y-95156738D01*
X167547018Y-95106672D01*
X167583907Y-95052684D01*
X167590703Y-95069092D01*
X167655009Y-95133398D01*
X167739029Y-95168200D01*
X168014650Y-95168200D01*
X168071800Y-95111050D01*
X168071800Y-94602300D01*
X168051800Y-94602300D01*
X168051800Y-94576900D01*
X168071800Y-94576900D01*
X168071800Y-94068150D01*
X168014650Y-94011000D01*
X167739029Y-94011000D01*
X167655009Y-94045802D01*
X167590703Y-94110108D01*
X167583701Y-94127012D01*
X167551572Y-94077082D01*
X167475180Y-94024885D01*
X167384500Y-94006522D01*
X167381300Y-94006522D01*
X167381300Y-93927175D01*
X167461214Y-93912138D01*
X167539018Y-93862072D01*
X167576788Y-93806794D01*
X167609428Y-93857518D01*
X167685820Y-93909715D01*
X167776500Y-93928078D01*
X168178526Y-93928078D01*
X168261448Y-94011000D01*
X168154350Y-94011000D01*
X168097200Y-94068150D01*
X168097200Y-94576900D01*
X168117200Y-94576900D01*
X168117200Y-94602300D01*
X168097200Y-94602300D01*
X168097200Y-95111050D01*
X168154350Y-95168200D01*
X168351200Y-95168200D01*
X168351200Y-95225348D01*
X168305626Y-95270922D01*
X166776400Y-95270922D01*
X166691686Y-95286862D01*
X166613882Y-95336928D01*
X166561685Y-95413320D01*
X166543322Y-95504000D01*
X166543322Y-98094800D01*
X166196678Y-98094800D01*
X166196678Y-95504000D01*
X166180738Y-95419286D01*
X166130672Y-95341482D01*
X166054280Y-95289285D01*
X165963600Y-95270922D01*
X165404800Y-95270922D01*
X165404800Y-94386270D01*
X166543422Y-93247648D01*
X166543422Y-93695000D01*
X166543422Y-93695000D01*
G37*
X166543422Y-93695000D02*
X166559362Y-93779714D01*
X166609428Y-93857518D01*
X166685820Y-93909715D01*
X166771700Y-93927106D01*
X166771700Y-94008930D01*
X166699786Y-94022462D01*
X166621982Y-94072528D01*
X166569785Y-94148920D01*
X166551422Y-94239600D01*
X166551422Y-94939600D01*
X166567362Y-95024314D01*
X166617428Y-95102118D01*
X166693820Y-95154315D01*
X166784500Y-95172678D01*
X167384500Y-95172678D01*
X167469214Y-95156738D01*
X167547018Y-95106672D01*
X167583907Y-95052684D01*
X167590703Y-95069092D01*
X167655009Y-95133398D01*
X167739029Y-95168200D01*
X168014650Y-95168200D01*
X168071800Y-95111050D01*
X168071800Y-94602300D01*
X168051800Y-94602300D01*
X168051800Y-94576900D01*
X168071800Y-94576900D01*
X168071800Y-94068150D01*
X168014650Y-94011000D01*
X167739029Y-94011000D01*
X167655009Y-94045802D01*
X167590703Y-94110108D01*
X167583701Y-94127012D01*
X167551572Y-94077082D01*
X167475180Y-94024885D01*
X167384500Y-94006522D01*
X167381300Y-94006522D01*
X167381300Y-93927175D01*
X167461214Y-93912138D01*
X167539018Y-93862072D01*
X167576788Y-93806794D01*
X167609428Y-93857518D01*
X167685820Y-93909715D01*
X167776500Y-93928078D01*
X168178526Y-93928078D01*
X168261448Y-94011000D01*
X168154350Y-94011000D01*
X168097200Y-94068150D01*
X168097200Y-94576900D01*
X168117200Y-94576900D01*
X168117200Y-94602300D01*
X168097200Y-94602300D01*
X168097200Y-95111050D01*
X168154350Y-95168200D01*
X168351200Y-95168200D01*
X168351200Y-95225348D01*
X168305626Y-95270922D01*
X166776400Y-95270922D01*
X166691686Y-95286862D01*
X166613882Y-95336928D01*
X166561685Y-95413320D01*
X166543322Y-95504000D01*
X166543322Y-98094800D01*
X166196678Y-98094800D01*
X166196678Y-95504000D01*
X166180738Y-95419286D01*
X166130672Y-95341482D01*
X166054280Y-95289285D01*
X165963600Y-95270922D01*
X165404800Y-95270922D01*
X165404800Y-94386270D01*
X166543422Y-93247648D01*
X166543422Y-93695000D01*
G36*
X174033200Y-88138800D02*
X174053200Y-88138800D01*
X174053200Y-88164200D01*
X174033200Y-88164200D01*
X174033200Y-88672950D01*
X174090350Y-88730100D01*
X174139500Y-88730100D01*
X174139500Y-89210400D01*
X173940850Y-89210400D01*
X173883700Y-89267550D01*
X173883700Y-89776300D01*
X173903700Y-89776300D01*
X173903700Y-89801700D01*
X173883700Y-89801700D01*
X173883700Y-90310450D01*
X173940850Y-90367600D01*
X174216471Y-90367600D01*
X174300491Y-90332798D01*
X174364797Y-90268492D01*
X174371799Y-90251588D01*
X174403928Y-90301518D01*
X174480320Y-90353715D01*
X174571000Y-90372078D01*
X174969106Y-90372078D01*
X174865262Y-90475922D01*
X174571000Y-90475922D01*
X174486286Y-90491862D01*
X174408482Y-90541928D01*
X174371593Y-90595916D01*
X174364797Y-90579508D01*
X174300491Y-90515202D01*
X174216471Y-90480400D01*
X173940850Y-90480400D01*
X173883700Y-90537550D01*
X173883700Y-91046300D01*
X173903700Y-91046300D01*
X173903700Y-91071700D01*
X173883700Y-91071700D01*
X173883700Y-91091700D01*
X173858300Y-91091700D01*
X173858300Y-91071700D01*
X173838300Y-91071700D01*
X173838300Y-91046300D01*
X173858300Y-91046300D01*
X173858300Y-90537550D01*
X173801150Y-90480400D01*
X173525529Y-90480400D01*
X173494700Y-90493170D01*
X173494700Y-90354830D01*
X173525529Y-90367600D01*
X173801150Y-90367600D01*
X173858300Y-90310450D01*
X173858300Y-89801700D01*
X173838300Y-89801700D01*
X173838300Y-89776300D01*
X173858300Y-89776300D01*
X173858300Y-89267550D01*
X173801150Y-89210400D01*
X173787364Y-89210400D01*
X173916882Y-89080882D01*
X173933197Y-89056646D01*
X173939200Y-89027000D01*
X173939200Y-88730100D01*
X173950650Y-88730100D01*
X174007800Y-88672950D01*
X174007800Y-88164200D01*
X173987800Y-88164200D01*
X173987800Y-88138800D01*
X174007800Y-88138800D01*
X174007800Y-88118800D01*
X174033200Y-88118800D01*
X174033200Y-88138800D01*
X174033200Y-88138800D01*
G37*
X174033200Y-88138800D02*
X174053200Y-88138800D01*
X174053200Y-88164200D01*
X174033200Y-88164200D01*
X174033200Y-88672950D01*
X174090350Y-88730100D01*
X174139500Y-88730100D01*
X174139500Y-89210400D01*
X173940850Y-89210400D01*
X173883700Y-89267550D01*
X173883700Y-89776300D01*
X173903700Y-89776300D01*
X173903700Y-89801700D01*
X173883700Y-89801700D01*
X173883700Y-90310450D01*
X173940850Y-90367600D01*
X174216471Y-90367600D01*
X174300491Y-90332798D01*
X174364797Y-90268492D01*
X174371799Y-90251588D01*
X174403928Y-90301518D01*
X174480320Y-90353715D01*
X174571000Y-90372078D01*
X174969106Y-90372078D01*
X174865262Y-90475922D01*
X174571000Y-90475922D01*
X174486286Y-90491862D01*
X174408482Y-90541928D01*
X174371593Y-90595916D01*
X174364797Y-90579508D01*
X174300491Y-90515202D01*
X174216471Y-90480400D01*
X173940850Y-90480400D01*
X173883700Y-90537550D01*
X173883700Y-91046300D01*
X173903700Y-91046300D01*
X173903700Y-91071700D01*
X173883700Y-91071700D01*
X173883700Y-91091700D01*
X173858300Y-91091700D01*
X173858300Y-91071700D01*
X173838300Y-91071700D01*
X173838300Y-91046300D01*
X173858300Y-91046300D01*
X173858300Y-90537550D01*
X173801150Y-90480400D01*
X173525529Y-90480400D01*
X173494700Y-90493170D01*
X173494700Y-90354830D01*
X173525529Y-90367600D01*
X173801150Y-90367600D01*
X173858300Y-90310450D01*
X173858300Y-89801700D01*
X173838300Y-89801700D01*
X173838300Y-89776300D01*
X173858300Y-89776300D01*
X173858300Y-89267550D01*
X173801150Y-89210400D01*
X173787364Y-89210400D01*
X173916882Y-89080882D01*
X173933197Y-89056646D01*
X173939200Y-89027000D01*
X173939200Y-88730100D01*
X173950650Y-88730100D01*
X174007800Y-88672950D01*
X174007800Y-88164200D01*
X173987800Y-88164200D01*
X173987800Y-88138800D01*
X174007800Y-88138800D01*
X174007800Y-88118800D01*
X174033200Y-88118800D01*
X174033200Y-88138800D01*
G36*
X180840900Y-86726650D02*
X180898050Y-86783800D01*
X181406800Y-86783800D01*
X181406800Y-86763800D01*
X181432200Y-86763800D01*
X181432200Y-86783800D01*
X181452200Y-86783800D01*
X181452200Y-86809200D01*
X181432200Y-86809200D01*
X181432200Y-87688800D01*
X181452200Y-87688800D01*
X181452200Y-87714200D01*
X181432200Y-87714200D01*
X181432200Y-87734200D01*
X181406800Y-87734200D01*
X181406800Y-87714200D01*
X180898050Y-87714200D01*
X180840900Y-87771350D01*
X180840900Y-87815741D01*
X180822072Y-87786482D01*
X180745680Y-87734285D01*
X180655000Y-87715922D01*
X178952974Y-87715922D01*
X178523026Y-87285974D01*
X178468932Y-87249830D01*
X178518026Y-87217026D01*
X178868702Y-86866350D01*
X180840900Y-86866350D01*
X180840900Y-87141971D01*
X180875702Y-87225991D01*
X180898711Y-87249000D01*
X180875702Y-87272009D01*
X180840900Y-87356029D01*
X180840900Y-87631650D01*
X180898050Y-87688800D01*
X181406800Y-87688800D01*
X181406800Y-86809200D01*
X180898050Y-86809200D01*
X180840900Y-86866350D01*
X178868702Y-86866350D01*
X178952974Y-86782078D01*
X180655000Y-86782078D01*
X180739714Y-86766138D01*
X180817518Y-86716072D01*
X180840900Y-86681852D01*
X180840900Y-86726650D01*
X180840900Y-86726650D01*
G37*
X180840900Y-86726650D02*
X180898050Y-86783800D01*
X181406800Y-86783800D01*
X181406800Y-86763800D01*
X181432200Y-86763800D01*
X181432200Y-86783800D01*
X181452200Y-86783800D01*
X181452200Y-86809200D01*
X181432200Y-86809200D01*
X181432200Y-87688800D01*
X181452200Y-87688800D01*
X181452200Y-87714200D01*
X181432200Y-87714200D01*
X181432200Y-87734200D01*
X181406800Y-87734200D01*
X181406800Y-87714200D01*
X180898050Y-87714200D01*
X180840900Y-87771350D01*
X180840900Y-87815741D01*
X180822072Y-87786482D01*
X180745680Y-87734285D01*
X180655000Y-87715922D01*
X178952974Y-87715922D01*
X178523026Y-87285974D01*
X178468932Y-87249830D01*
X178518026Y-87217026D01*
X178868702Y-86866350D01*
X180840900Y-86866350D01*
X180840900Y-87141971D01*
X180875702Y-87225991D01*
X180898711Y-87249000D01*
X180875702Y-87272009D01*
X180840900Y-87356029D01*
X180840900Y-87631650D01*
X180898050Y-87688800D01*
X181406800Y-87688800D01*
X181406800Y-86809200D01*
X180898050Y-86809200D01*
X180840900Y-86866350D01*
X178868702Y-86866350D01*
X178952974Y-86782078D01*
X180655000Y-86782078D01*
X180739714Y-86766138D01*
X180817518Y-86716072D01*
X180840900Y-86681852D01*
X180840900Y-86726650D01*
G36*
X173420700Y-84876300D02*
X175120300Y-84876300D01*
X175120300Y-84856300D01*
X175145700Y-84856300D01*
X175145700Y-84876300D01*
X175165700Y-84876300D01*
X175165700Y-84901700D01*
X175145700Y-84901700D01*
X175145700Y-86601300D01*
X175165700Y-86601300D01*
X175165700Y-86626700D01*
X175145700Y-86626700D01*
X175145700Y-86646700D01*
X175120300Y-86646700D01*
X175120300Y-86626700D01*
X173420700Y-86626700D01*
X173420700Y-86646700D01*
X173395300Y-86646700D01*
X173395300Y-86626700D01*
X173375300Y-86626700D01*
X173375300Y-86601300D01*
X173395300Y-86601300D01*
X173395300Y-84901700D01*
X173420700Y-84901700D01*
X173420700Y-86601300D01*
X175120300Y-86601300D01*
X175120300Y-84901700D01*
X173420700Y-84901700D01*
X173395300Y-84901700D01*
X173375300Y-84901700D01*
X173375300Y-84876300D01*
X173395300Y-84876300D01*
X173395300Y-84856300D01*
X173420700Y-84856300D01*
X173420700Y-84876300D01*
X173420700Y-84876300D01*
G37*
X173420700Y-84876300D02*
X175120300Y-84876300D01*
X175120300Y-84856300D01*
X175145700Y-84856300D01*
X175145700Y-84876300D01*
X175165700Y-84876300D01*
X175165700Y-84901700D01*
X175145700Y-84901700D01*
X175145700Y-86601300D01*
X175165700Y-86601300D01*
X175165700Y-86626700D01*
X175145700Y-86626700D01*
X175145700Y-86646700D01*
X175120300Y-86646700D01*
X175120300Y-86626700D01*
X173420700Y-86626700D01*
X173420700Y-86646700D01*
X173395300Y-86646700D01*
X173395300Y-86626700D01*
X173375300Y-86626700D01*
X173375300Y-86601300D01*
X173395300Y-86601300D01*
X173395300Y-84901700D01*
X173420700Y-84901700D01*
X173420700Y-86601300D01*
X175120300Y-86601300D01*
X175120300Y-84901700D01*
X173420700Y-84901700D01*
X173395300Y-84901700D01*
X173375300Y-84901700D01*
X173375300Y-84876300D01*
X173395300Y-84876300D01*
X173395300Y-84856300D01*
X173420700Y-84856300D01*
X173420700Y-84876300D01*
G36*
X175882400Y-81845150D02*
X175939550Y-81902300D01*
X176398300Y-81902300D01*
X176398300Y-81882300D01*
X176423700Y-81882300D01*
X176423700Y-81902300D01*
X176443700Y-81902300D01*
X176443700Y-81927700D01*
X176423700Y-81927700D01*
X176423700Y-81947700D01*
X176398300Y-81947700D01*
X176398300Y-81927700D01*
X175939550Y-81927700D01*
X175882400Y-81984850D01*
X175882400Y-82310472D01*
X175917203Y-82394492D01*
X175981509Y-82458798D01*
X176065529Y-82493600D01*
X176114584Y-82493600D01*
X175826843Y-82781341D01*
X175810786Y-82784362D01*
X175774701Y-82807582D01*
X175690972Y-82772900D01*
X175590350Y-82772900D01*
X175533200Y-82830050D01*
X175533200Y-83338800D01*
X175553200Y-83338800D01*
X175553200Y-83364200D01*
X175533200Y-83364200D01*
X175533200Y-83384200D01*
X175507800Y-83384200D01*
X175507800Y-83364200D01*
X175487800Y-83364200D01*
X175487800Y-83338800D01*
X175507800Y-83338800D01*
X175507800Y-82830050D01*
X175450650Y-82772900D01*
X175399700Y-82772900D01*
X175399700Y-82073564D01*
X175882400Y-81590864D01*
X175882400Y-81845150D01*
X175882400Y-81845150D01*
G37*
X175882400Y-81845150D02*
X175939550Y-81902300D01*
X176398300Y-81902300D01*
X176398300Y-81882300D01*
X176423700Y-81882300D01*
X176423700Y-81902300D01*
X176443700Y-81902300D01*
X176443700Y-81927700D01*
X176423700Y-81927700D01*
X176423700Y-81947700D01*
X176398300Y-81947700D01*
X176398300Y-81927700D01*
X175939550Y-81927700D01*
X175882400Y-81984850D01*
X175882400Y-82310472D01*
X175917203Y-82394492D01*
X175981509Y-82458798D01*
X176065529Y-82493600D01*
X176114584Y-82493600D01*
X175826843Y-82781341D01*
X175810786Y-82784362D01*
X175774701Y-82807582D01*
X175690972Y-82772900D01*
X175590350Y-82772900D01*
X175533200Y-82830050D01*
X175533200Y-83338800D01*
X175553200Y-83338800D01*
X175553200Y-83364200D01*
X175533200Y-83364200D01*
X175533200Y-83384200D01*
X175507800Y-83384200D01*
X175507800Y-83364200D01*
X175487800Y-83364200D01*
X175487800Y-83338800D01*
X175507800Y-83338800D01*
X175507800Y-82830050D01*
X175450650Y-82772900D01*
X175399700Y-82772900D01*
X175399700Y-82073564D01*
X175882400Y-81590864D01*
X175882400Y-81845150D01*
M02*
