G04 #@! TF.FileFunction,Legend,Top*
%FSLAX46Y46*%
G04 Gerber Fmt 4.6, Leading zero omitted, Abs format (unit mm)*
G04 Created by KiCad (PCBNEW 4.0.1-3.201512221401+6198~38~ubuntu15.10.1-stable) date Mon Jan 18 21:51:54 2016*
%MOMM*%
G01*
G04 APERTURE LIST*
%ADD10C,0.100000*%
%ADD11C,0.150000*%
%ADD12C,0.050000*%
%ADD13R,1.202400X0.802400*%
%ADD14R,2.052400X1.252400*%
%ADD15R,1.402400X0.752400*%
%ADD16R,2.352040X1.752600*%
%ADD17R,1.752600X2.352040*%
%ADD18R,1.502400X0.552400*%
%ADD19C,1.752400*%
%ADD20R,1.552400X1.752400*%
%ADD21R,2.052400X2.052400*%
%ADD22R,2.184400X1.879600*%
%ADD23C,2.500000*%
%ADD24R,0.852400X0.402400*%
%ADD25R,0.402400X0.852400*%
%ADD26R,1.877400X1.877400*%
%ADD27R,0.502400X0.332400*%
%ADD28R,0.452400X1.652400*%
%ADD29R,1.879600X2.184400*%
%ADD30R,0.852400X0.752400*%
%ADD31R,0.752400X0.852400*%
G04 APERTURE END LIST*
D10*
D11*
X30118000Y6942000D02*
X29318000Y6942000D01*
X30118000Y4742000D02*
X29318000Y4742000D01*
X28218000Y5842000D02*
G75*
G03X29318000Y4742000I1100000J0D01*
G01*
X29318000Y6942000D02*
G75*
G03X28218000Y5842000I0J-1100000D01*
G01*
X31218000Y5842000D02*
G75*
G03X30118000Y6942000I-1100000J0D01*
G01*
X30118000Y4742000D02*
G75*
G03X31218000Y5842000I0J1100000D01*
G01*
X27518000Y6442000D02*
X27518000Y5242000D01*
X31918000Y6442000D02*
X31918000Y5242000D01*
X31918000Y4242000D02*
X27518000Y4242000D01*
X27518000Y7442000D02*
X31918000Y7442000D01*
X25539000Y10626000D02*
X25539000Y11726000D01*
X27039000Y10626000D02*
X27039000Y11726000D01*
X6870000Y14327000D02*
X8370000Y14327000D01*
X8370000Y14327000D02*
X8370000Y11327000D01*
X8370000Y11327000D02*
X6870000Y11327000D01*
X6870000Y11327000D02*
X6870000Y14327000D01*
X7187500Y15610000D02*
X7187500Y14860000D01*
X6287500Y18060000D02*
X7187500Y18060000D01*
X6287500Y18010000D02*
X6287500Y18060000D01*
X7187500Y18010000D02*
X6287500Y18010000D01*
X7187500Y17910000D02*
X7187500Y18010000D01*
X6287500Y17910000D02*
X7187500Y17910000D01*
X6287500Y17810000D02*
X6287500Y17910000D01*
X7187500Y17810000D02*
X6287500Y17810000D01*
X7187500Y17710000D02*
X7187500Y17810000D01*
X6287500Y17710000D02*
X7187500Y17710000D01*
X6287500Y17610000D02*
X6287500Y17710000D01*
X7187500Y17610000D02*
X6287500Y17610000D01*
X7187500Y17560000D02*
X7187500Y17610000D01*
X7187500Y17510000D02*
X7187500Y17610000D01*
X6287500Y17510000D02*
X7187500Y17510000D01*
X6287500Y14960000D02*
X7187500Y14960000D01*
X6287500Y15060000D02*
X6287500Y14960000D01*
X7187500Y15060000D02*
X6287500Y15060000D01*
X7187500Y15160000D02*
X7187500Y15060000D01*
X6287500Y15160000D02*
X7187500Y15160000D01*
X6287500Y15260000D02*
X6287500Y15160000D01*
X7187500Y15260000D02*
X6287500Y15260000D01*
X7187500Y15360000D02*
X7187500Y15260000D01*
X6287500Y15360000D02*
X7187500Y15360000D01*
X6287500Y15460000D02*
X6287500Y15360000D01*
X7187500Y15460000D02*
X6287500Y15460000D01*
X7187500Y15560000D02*
X7187500Y15460000D01*
X6287500Y15560000D02*
X7187500Y15560000D01*
X7187500Y17460000D02*
X6287500Y17460000D01*
X7187500Y18110000D02*
X7187500Y17410000D01*
X6737500Y15610000D02*
G75*
G03X9137500Y15610000I1200000J900000D01*
G01*
X9137500Y17410000D02*
G75*
G03X6737500Y17410000I-1200000J-900000D01*
G01*
X8837500Y14860000D02*
X9587500Y15610000D01*
X6287500Y14860000D02*
X8837500Y14860000D01*
X6287500Y15610000D02*
X6287500Y14860000D01*
X6287500Y17410000D02*
X6287500Y18160000D01*
X6287500Y18160000D02*
X8837500Y18160000D01*
X8837500Y18160000D02*
X9587500Y17410000D01*
X6286500Y14859000D02*
X8826500Y14859000D01*
X8826500Y14859000D02*
X9588500Y15621000D01*
X9588500Y17399000D02*
X8826500Y18161000D01*
X9895000Y9132000D02*
X9145000Y9132000D01*
X12345000Y10032000D02*
X12345000Y9132000D01*
X12295000Y10032000D02*
X12345000Y10032000D01*
X12295000Y9132000D02*
X12295000Y10032000D01*
X12195000Y9132000D02*
X12295000Y9132000D01*
X12195000Y10032000D02*
X12195000Y9132000D01*
X12095000Y10032000D02*
X12195000Y10032000D01*
X12095000Y9132000D02*
X12095000Y10032000D01*
X11995000Y9132000D02*
X12095000Y9132000D01*
X11995000Y10032000D02*
X11995000Y9132000D01*
X11895000Y10032000D02*
X11995000Y10032000D01*
X11895000Y9132000D02*
X11895000Y10032000D01*
X11845000Y9132000D02*
X11895000Y9132000D01*
X11795000Y9132000D02*
X11895000Y9132000D01*
X11795000Y10032000D02*
X11795000Y9132000D01*
X9245000Y10032000D02*
X9245000Y9132000D01*
X9345000Y10032000D02*
X9245000Y10032000D01*
X9345000Y9132000D02*
X9345000Y10032000D01*
X9445000Y9132000D02*
X9345000Y9132000D01*
X9445000Y10032000D02*
X9445000Y9132000D01*
X9545000Y10032000D02*
X9445000Y10032000D01*
X9545000Y9132000D02*
X9545000Y10032000D01*
X9645000Y9132000D02*
X9545000Y9132000D01*
X9645000Y10032000D02*
X9645000Y9132000D01*
X9745000Y10032000D02*
X9645000Y10032000D01*
X9745000Y9132000D02*
X9745000Y10032000D01*
X9845000Y9132000D02*
X9745000Y9132000D01*
X9845000Y10032000D02*
X9845000Y9132000D01*
X11745000Y9132000D02*
X11745000Y10032000D01*
X12395000Y9132000D02*
X11695000Y9132000D01*
X9895000Y9582000D02*
G75*
G03X9895000Y7182000I900000J-1200000D01*
G01*
X11695000Y7182000D02*
G75*
G03X11695000Y9582000I-900000J1200000D01*
G01*
X9145000Y7482000D02*
X9895000Y6732000D01*
X9145000Y10032000D02*
X9145000Y7482000D01*
X9895000Y10032000D02*
X9145000Y10032000D01*
X11695000Y10032000D02*
X12445000Y10032000D01*
X12445000Y10032000D02*
X12445000Y7482000D01*
X12445000Y7482000D02*
X11695000Y6732000D01*
X9144000Y10033000D02*
X9144000Y7493000D01*
X9144000Y7493000D02*
X9906000Y6731000D01*
X11684000Y6731000D02*
X12446000Y7493000D01*
X18229500Y10048500D02*
X18229500Y10573500D01*
X23479500Y15298500D02*
X23479500Y14773500D01*
X18229500Y15298500D02*
X18229500Y14773500D01*
X23479500Y10048500D02*
X22954500Y10048500D01*
X23479500Y15298500D02*
X22954500Y15298500D01*
X18229500Y15298500D02*
X18754500Y15298500D01*
X18229500Y10048500D02*
X18754500Y10048500D01*
D12*
X3513000Y7548500D02*
X3513000Y7348500D01*
X3313000Y7448500D02*
X3513000Y7548500D01*
X3513000Y7348500D02*
X3313000Y7448500D01*
X3013000Y7648500D02*
X1813000Y7648500D01*
X3013000Y6448500D02*
X1813000Y6448500D01*
D11*
X26281000Y7167500D02*
X26281000Y6167500D01*
X25281000Y6167500D02*
X25281000Y7167500D01*
X24011000Y4326000D02*
X24011000Y5326000D01*
X25011000Y5326000D02*
X25011000Y4326000D01*
X13660500Y5580000D02*
X14660500Y5580000D01*
X14660500Y4580000D02*
X13660500Y4580000D01*
X643000Y16772000D02*
X643000Y17772000D01*
X1643000Y17772000D02*
X1643000Y16772000D01*
X1389000Y7271500D02*
X1389000Y6571500D01*
X389000Y6571500D02*
X389000Y7271500D01*
X4437000Y7271500D02*
X4437000Y6571500D01*
X3437000Y6571500D02*
X3437000Y7271500D01*
X24011000Y6317500D02*
X24011000Y7017500D01*
X25011000Y7017500D02*
X25011000Y6317500D01*
X21305000Y6866000D02*
X20605000Y6866000D01*
X20605000Y7866000D02*
X21305000Y7866000D01*
X23972000Y16010000D02*
X23272000Y16010000D01*
X23272000Y17010000D02*
X23972000Y17010000D01*
X28503500Y12478500D02*
X28503500Y11778500D01*
X27503500Y11778500D02*
X27503500Y12478500D01*
X27503500Y9873500D02*
X27503500Y10573500D01*
X28503500Y10573500D02*
X28503500Y9873500D01*
X2913000Y17622000D02*
X2913000Y16922000D01*
X1913000Y16922000D02*
X1913000Y17622000D01*
X21305000Y8136000D02*
X20605000Y8136000D01*
X20605000Y9136000D02*
X21305000Y9136000D01*
X12968500Y3835400D02*
X13168500Y3835400D01*
X12968500Y3835400D02*
X12768500Y3835400D01*
X12968500Y4035400D02*
X12968500Y3635400D01*
D10*
X13668500Y3335400D02*
X14668500Y3335400D01*
X14668500Y4335400D02*
X13668500Y4335400D01*
D11*
X5221500Y7584500D02*
X8621500Y7584500D01*
X5221500Y11084500D02*
X8621500Y11084500D01*
X11866500Y15867000D02*
X11866500Y14867000D01*
X10866500Y14867000D02*
X10866500Y15867000D01*
X30001333Y5308666D02*
X30034667Y5408666D01*
X30034667Y5575333D01*
X30001333Y5642000D01*
X29968000Y5675333D01*
X29901333Y5708666D01*
X29834667Y5708666D01*
X29768000Y5675333D01*
X29734667Y5642000D01*
X29701333Y5575333D01*
X29668000Y5442000D01*
X29634667Y5375333D01*
X29601333Y5342000D01*
X29534667Y5308666D01*
X29468000Y5308666D01*
X29401333Y5342000D01*
X29368000Y5375333D01*
X29334667Y5442000D01*
X29334667Y5608666D01*
X29368000Y5708666D01*
X30034667Y6375333D02*
X30034667Y5975333D01*
X30034667Y6175333D02*
X29334667Y6175333D01*
X29434667Y6108667D01*
X29501333Y6042000D01*
X29534667Y5975333D01*
X24254667Y10736333D02*
X24954667Y11203000D01*
X24254667Y11203000D02*
X24954667Y10736333D01*
X24954667Y11836333D02*
X24954667Y11436333D01*
X24954667Y11636333D02*
X24254667Y11636333D01*
X24354667Y11569667D01*
X24421333Y11503000D01*
X24454667Y11436333D01*
X7236667Y12293667D02*
X7803333Y12293667D01*
X7870000Y12327000D01*
X7903333Y12360333D01*
X7936667Y12427000D01*
X7936667Y12560333D01*
X7903333Y12627000D01*
X7870000Y12660333D01*
X7803333Y12693667D01*
X7236667Y12693667D01*
X7303333Y12993666D02*
X7270000Y13027000D01*
X7236667Y13093666D01*
X7236667Y13260333D01*
X7270000Y13327000D01*
X7303333Y13360333D01*
X7370000Y13393666D01*
X7436667Y13393666D01*
X7536667Y13360333D01*
X7936667Y12960333D01*
X7936667Y13393666D01*
X8187500Y18806334D02*
X8220833Y18773000D01*
X8254167Y18673000D01*
X8254167Y18606334D01*
X8220833Y18506334D01*
X8154167Y18439667D01*
X8087500Y18406334D01*
X7954167Y18373000D01*
X7854167Y18373000D01*
X7720833Y18406334D01*
X7654167Y18439667D01*
X7587500Y18506334D01*
X7554167Y18606334D01*
X7554167Y18673000D01*
X7587500Y18773000D01*
X7620833Y18806334D01*
X7554167Y19039667D02*
X7554167Y19473000D01*
X7820833Y19239667D01*
X7820833Y19339667D01*
X7854167Y19406334D01*
X7887500Y19439667D01*
X7954167Y19473000D01*
X8120833Y19473000D01*
X8187500Y19439667D01*
X8220833Y19406334D01*
X8254167Y19339667D01*
X8254167Y19139667D01*
X8220833Y19073000D01*
X8187500Y19039667D01*
X13331000Y8265334D02*
X13364333Y8232000D01*
X13397667Y8132000D01*
X13397667Y8065334D01*
X13364333Y7965334D01*
X13297667Y7898667D01*
X13231000Y7865334D01*
X13097667Y7832000D01*
X12997667Y7832000D01*
X12864333Y7865334D01*
X12797667Y7898667D01*
X12731000Y7965334D01*
X12697667Y8065334D01*
X12697667Y8132000D01*
X12731000Y8232000D01*
X12764333Y8265334D01*
X12931000Y8865334D02*
X13397667Y8865334D01*
X12664333Y8698667D02*
X13164333Y8532000D01*
X13164333Y8965334D01*
X1777167Y11611834D02*
X1077167Y11611834D01*
X1077167Y11878500D01*
X1110500Y11945167D01*
X1143833Y11978500D01*
X1210500Y12011834D01*
X1310500Y12011834D01*
X1377167Y11978500D01*
X1410500Y11945167D01*
X1443833Y11878500D01*
X1443833Y11611834D01*
X1777167Y12678500D02*
X1777167Y12278500D01*
X1777167Y12478500D02*
X1077167Y12478500D01*
X1177167Y12411834D01*
X1243833Y12345167D01*
X1277167Y12278500D01*
X23048167Y8636067D02*
X23614833Y8636067D01*
X23681500Y8669400D01*
X23714833Y8702733D01*
X23748167Y8769400D01*
X23748167Y8902733D01*
X23714833Y8969400D01*
X23681500Y9002733D01*
X23614833Y9036067D01*
X23048167Y9036067D01*
X23048167Y9302733D02*
X23048167Y9736066D01*
X23314833Y9502733D01*
X23314833Y9602733D01*
X23348167Y9669400D01*
X23381500Y9702733D01*
X23448167Y9736066D01*
X23614833Y9736066D01*
X23681500Y9702733D01*
X23714833Y9669400D01*
X23748167Y9602733D01*
X23748167Y9402733D01*
X23714833Y9336066D01*
X23681500Y9302733D01*
X1585167Y5054667D02*
X2151833Y5054667D01*
X2218500Y5088000D01*
X2251833Y5121333D01*
X2285167Y5188000D01*
X2285167Y5321333D01*
X2251833Y5388000D01*
X2218500Y5421333D01*
X2151833Y5454667D01*
X1585167Y5454667D01*
X2285167Y6154666D02*
X2285167Y5754666D01*
X2285167Y5954666D02*
X1585167Y5954666D01*
X1685167Y5888000D01*
X1751833Y5821333D01*
X1785167Y5754666D01*
X26072267Y4887134D02*
X25738933Y4653800D01*
X26072267Y4487134D02*
X25372267Y4487134D01*
X25372267Y4753800D01*
X25405600Y4820467D01*
X25438933Y4853800D01*
X25505600Y4887134D01*
X25605600Y4887134D01*
X25672267Y4853800D01*
X25705600Y4820467D01*
X25738933Y4753800D01*
X25738933Y4487134D01*
X25605600Y5487134D02*
X26072267Y5487134D01*
X25338933Y5320467D02*
X25838933Y5153800D01*
X25838933Y5587134D01*
X23837067Y4683934D02*
X23503733Y4450600D01*
X23837067Y4283934D02*
X23137067Y4283934D01*
X23137067Y4550600D01*
X23170400Y4617267D01*
X23203733Y4650600D01*
X23270400Y4683934D01*
X23370400Y4683934D01*
X23437067Y4650600D01*
X23470400Y4617267D01*
X23503733Y4550600D01*
X23503733Y4283934D01*
X23137067Y4917267D02*
X23137067Y5350600D01*
X23403733Y5117267D01*
X23403733Y5217267D01*
X23437067Y5283934D01*
X23470400Y5317267D01*
X23537067Y5350600D01*
X23703733Y5350600D01*
X23770400Y5317267D01*
X23803733Y5283934D01*
X23837067Y5217267D01*
X23837067Y5017267D01*
X23803733Y4950600D01*
X23770400Y4917267D01*
X16128167Y4963334D02*
X15794833Y4730000D01*
X16128167Y4563334D02*
X15428167Y4563334D01*
X15428167Y4830000D01*
X15461500Y4896667D01*
X15494833Y4930000D01*
X15561500Y4963334D01*
X15661500Y4963334D01*
X15728167Y4930000D01*
X15761500Y4896667D01*
X15794833Y4830000D01*
X15794833Y4563334D01*
X15494833Y5230000D02*
X15461500Y5263334D01*
X15428167Y5330000D01*
X15428167Y5496667D01*
X15461500Y5563334D01*
X15494833Y5596667D01*
X15561500Y5630000D01*
X15628167Y5630000D01*
X15728167Y5596667D01*
X16128167Y5196667D01*
X16128167Y5630000D01*
X1459667Y18742834D02*
X1126333Y18509500D01*
X1459667Y18342834D02*
X759667Y18342834D01*
X759667Y18609500D01*
X793000Y18676167D01*
X826333Y18709500D01*
X893000Y18742834D01*
X993000Y18742834D01*
X1059667Y18709500D01*
X1093000Y18676167D01*
X1126333Y18609500D01*
X1126333Y18342834D01*
X1459667Y19409500D02*
X1459667Y19009500D01*
X1459667Y19209500D02*
X759667Y19209500D01*
X859667Y19142834D01*
X926333Y19076167D01*
X959667Y19009500D01*
X1164400Y5141134D02*
X1197733Y5107800D01*
X1231067Y5007800D01*
X1231067Y4941134D01*
X1197733Y4841134D01*
X1131067Y4774467D01*
X1064400Y4741134D01*
X931067Y4707800D01*
X831067Y4707800D01*
X697733Y4741134D01*
X631067Y4774467D01*
X564400Y4841134D01*
X531067Y4941134D01*
X531067Y5007800D01*
X564400Y5107800D01*
X597733Y5141134D01*
X1231067Y5807800D02*
X1231067Y5407800D01*
X1231067Y5607800D02*
X531067Y5607800D01*
X631067Y5541134D01*
X697733Y5474467D01*
X731067Y5407800D01*
X5330000Y6677834D02*
X5363333Y6644500D01*
X5396667Y6544500D01*
X5396667Y6477834D01*
X5363333Y6377834D01*
X5296667Y6311167D01*
X5230000Y6277834D01*
X5096667Y6244500D01*
X4996667Y6244500D01*
X4863333Y6277834D01*
X4796667Y6311167D01*
X4730000Y6377834D01*
X4696667Y6477834D01*
X4696667Y6544500D01*
X4730000Y6644500D01*
X4763333Y6677834D01*
X4763333Y6944500D02*
X4730000Y6977834D01*
X4696667Y7044500D01*
X4696667Y7211167D01*
X4730000Y7277834D01*
X4763333Y7311167D01*
X4830000Y7344500D01*
X4896667Y7344500D01*
X4996667Y7311167D01*
X5396667Y6911167D01*
X5396667Y7344500D01*
X23611000Y6217500D02*
X23644333Y6184166D01*
X23677667Y6084166D01*
X23677667Y6017500D01*
X23644333Y5917500D01*
X23577667Y5850833D01*
X23511000Y5817500D01*
X23377667Y5784166D01*
X23277667Y5784166D01*
X23144333Y5817500D01*
X23077667Y5850833D01*
X23011000Y5917500D01*
X22977667Y6017500D01*
X22977667Y6084166D01*
X23011000Y6184166D01*
X23044333Y6217500D01*
X23677667Y6884166D02*
X23677667Y6484166D01*
X23677667Y6684166D02*
X22977667Y6684166D01*
X23077667Y6617500D01*
X23144333Y6550833D01*
X23177667Y6484166D01*
X23677667Y7550833D02*
X23677667Y7150833D01*
X23677667Y7350833D02*
X22977667Y7350833D01*
X23077667Y7284167D01*
X23144333Y7217500D01*
X23177667Y7150833D01*
X22665500Y6916000D02*
X22698833Y6882666D01*
X22732167Y6782666D01*
X22732167Y6716000D01*
X22698833Y6616000D01*
X22632167Y6549333D01*
X22565500Y6516000D01*
X22432167Y6482666D01*
X22332167Y6482666D01*
X22198833Y6516000D01*
X22132167Y6549333D01*
X22065500Y6616000D01*
X22032167Y6716000D01*
X22032167Y6782666D01*
X22065500Y6882666D01*
X22098833Y6916000D01*
X22732167Y7582666D02*
X22732167Y7182666D01*
X22732167Y7382666D02*
X22032167Y7382666D01*
X22132167Y7316000D01*
X22198833Y7249333D01*
X22232167Y7182666D01*
X22032167Y8016000D02*
X22032167Y8082667D01*
X22065500Y8149333D01*
X22098833Y8182667D01*
X22165500Y8216000D01*
X22298833Y8249333D01*
X22465500Y8249333D01*
X22598833Y8216000D01*
X22665500Y8182667D01*
X22698833Y8149333D01*
X22732167Y8082667D01*
X22732167Y8016000D01*
X22698833Y7949333D01*
X22665500Y7916000D01*
X22598833Y7882667D01*
X22465500Y7849333D01*
X22298833Y7849333D01*
X22165500Y7882667D01*
X22098833Y7916000D01*
X22065500Y7949333D01*
X22032167Y8016000D01*
X23872000Y17663334D02*
X23905333Y17630000D01*
X23938667Y17530000D01*
X23938667Y17463334D01*
X23905333Y17363334D01*
X23838667Y17296667D01*
X23772000Y17263334D01*
X23638667Y17230000D01*
X23538667Y17230000D01*
X23405333Y17263334D01*
X23338667Y17296667D01*
X23272000Y17363334D01*
X23238667Y17463334D01*
X23238667Y17530000D01*
X23272000Y17630000D01*
X23305333Y17663334D01*
X23538667Y18063334D02*
X23505333Y17996667D01*
X23472000Y17963334D01*
X23405333Y17930000D01*
X23372000Y17930000D01*
X23305333Y17963334D01*
X23272000Y17996667D01*
X23238667Y18063334D01*
X23238667Y18196667D01*
X23272000Y18263334D01*
X23305333Y18296667D01*
X23372000Y18330000D01*
X23405333Y18330000D01*
X23472000Y18296667D01*
X23505333Y18263334D01*
X23538667Y18196667D01*
X23538667Y18063334D01*
X23572000Y17996667D01*
X23605333Y17963334D01*
X23672000Y17930000D01*
X23805333Y17930000D01*
X23872000Y17963334D01*
X23905333Y17996667D01*
X23938667Y18063334D01*
X23938667Y18196667D01*
X23905333Y18263334D01*
X23872000Y18296667D01*
X23805333Y18330000D01*
X23672000Y18330000D01*
X23605333Y18296667D01*
X23572000Y18263334D01*
X23538667Y18196667D01*
X29612400Y11999134D02*
X29645733Y11965800D01*
X29679067Y11865800D01*
X29679067Y11799134D01*
X29645733Y11699134D01*
X29579067Y11632467D01*
X29512400Y11599134D01*
X29379067Y11565800D01*
X29279067Y11565800D01*
X29145733Y11599134D01*
X29079067Y11632467D01*
X29012400Y11699134D01*
X28979067Y11799134D01*
X28979067Y11865800D01*
X29012400Y11965800D01*
X29045733Y11999134D01*
X28979067Y12232467D02*
X28979067Y12699134D01*
X29679067Y12399134D01*
X29561600Y10106834D02*
X29594933Y10073500D01*
X29628267Y9973500D01*
X29628267Y9906834D01*
X29594933Y9806834D01*
X29528267Y9740167D01*
X29461600Y9706834D01*
X29328267Y9673500D01*
X29228267Y9673500D01*
X29094933Y9706834D01*
X29028267Y9740167D01*
X28961600Y9806834D01*
X28928267Y9906834D01*
X28928267Y9973500D01*
X28961600Y10073500D01*
X28994933Y10106834D01*
X28928267Y10706834D02*
X28928267Y10573500D01*
X28961600Y10506834D01*
X28994933Y10473500D01*
X29094933Y10406834D01*
X29228267Y10373500D01*
X29494933Y10373500D01*
X29561600Y10406834D01*
X29594933Y10440167D01*
X29628267Y10506834D01*
X29628267Y10640167D01*
X29594933Y10706834D01*
X29561600Y10740167D01*
X29494933Y10773500D01*
X29328267Y10773500D01*
X29261600Y10740167D01*
X29228267Y10706834D01*
X29194933Y10640167D01*
X29194933Y10506834D01*
X29228267Y10440167D01*
X29261600Y10406834D01*
X29328267Y10373500D01*
X3813000Y17155334D02*
X3846333Y17122000D01*
X3879667Y17022000D01*
X3879667Y16955334D01*
X3846333Y16855334D01*
X3779667Y16788667D01*
X3713000Y16755334D01*
X3579667Y16722000D01*
X3479667Y16722000D01*
X3346333Y16755334D01*
X3279667Y16788667D01*
X3213000Y16855334D01*
X3179667Y16955334D01*
X3179667Y17022000D01*
X3213000Y17122000D01*
X3246333Y17155334D01*
X3179667Y17788667D02*
X3179667Y17455334D01*
X3513000Y17422000D01*
X3479667Y17455334D01*
X3446333Y17522000D01*
X3446333Y17688667D01*
X3479667Y17755334D01*
X3513000Y17788667D01*
X3579667Y17822000D01*
X3746333Y17822000D01*
X3813000Y17788667D01*
X3846333Y17755334D01*
X3879667Y17688667D01*
X3879667Y17522000D01*
X3846333Y17455334D01*
X3813000Y17422000D01*
X19681000Y8519334D02*
X19714333Y8486000D01*
X19747667Y8386000D01*
X19747667Y8319334D01*
X19714333Y8219334D01*
X19647667Y8152667D01*
X19581000Y8119334D01*
X19447667Y8086000D01*
X19347667Y8086000D01*
X19214333Y8119334D01*
X19147667Y8152667D01*
X19081000Y8219334D01*
X19047667Y8319334D01*
X19047667Y8386000D01*
X19081000Y8486000D01*
X19114333Y8519334D01*
X19747667Y8852667D02*
X19747667Y8986000D01*
X19714333Y9052667D01*
X19681000Y9086000D01*
X19581000Y9152667D01*
X19447667Y9186000D01*
X19181000Y9186000D01*
X19114333Y9152667D01*
X19081000Y9119334D01*
X19047667Y9052667D01*
X19047667Y8919334D01*
X19081000Y8852667D01*
X19114333Y8819334D01*
X19181000Y8786000D01*
X19347667Y8786000D01*
X19414333Y8819334D01*
X19447667Y8852667D01*
X19481000Y8919334D01*
X19481000Y9052667D01*
X19447667Y9119334D01*
X19414333Y9152667D01*
X19347667Y9186000D01*
X16128167Y3293334D02*
X15428167Y3293334D01*
X15428167Y3460000D01*
X15461500Y3560000D01*
X15528167Y3626667D01*
X15594833Y3660000D01*
X15728167Y3693334D01*
X15828167Y3693334D01*
X15961500Y3660000D01*
X16028167Y3626667D01*
X16094833Y3560000D01*
X16128167Y3460000D01*
X16128167Y3293334D01*
X16128167Y4360000D02*
X16128167Y3960000D01*
X16128167Y4160000D02*
X15428167Y4160000D01*
X15528167Y4093334D01*
X15594833Y4026667D01*
X15628167Y3960000D01*
X7238167Y6741333D02*
X7238167Y6408000D01*
X6538167Y6408000D01*
X6604833Y6941333D02*
X6571500Y6974667D01*
X6538167Y7041333D01*
X6538167Y7208000D01*
X6571500Y7274667D01*
X6604833Y7308000D01*
X6671500Y7341333D01*
X6738167Y7341333D01*
X6838167Y7308000D01*
X7238167Y6908000D01*
X7238167Y7341333D01*
X12826167Y15250333D02*
X12826167Y14917000D01*
X12126167Y14917000D01*
X12826167Y15850333D02*
X12826167Y15450333D01*
X12826167Y15650333D02*
X12126167Y15650333D01*
X12226167Y15583667D01*
X12292833Y15517000D01*
X12326167Y15450333D01*
%LPC*%
D13*
X27118000Y4767000D03*
X32318000Y4767000D03*
X32318000Y6917000D03*
X27118000Y6917000D03*
D14*
X26289000Y9926000D03*
X26289000Y12426000D03*
D15*
X9370000Y13777000D03*
X9370000Y12827000D03*
X9370000Y11877000D03*
X5870000Y11877000D03*
X5870000Y12827000D03*
X5870000Y13777000D03*
D16*
X9438640Y16510000D03*
X6436360Y16510000D03*
D17*
X10795000Y6880860D03*
X10795000Y9883140D03*
D18*
X4122800Y13365000D03*
X4122800Y12715000D03*
X4122800Y12065000D03*
X4122800Y11415000D03*
X4122800Y10765000D03*
D19*
X1447800Y15365000D03*
X1447800Y8765000D03*
D20*
X3897800Y8865000D03*
X3897800Y15265000D03*
D21*
X1447800Y10615000D03*
X1447800Y13515000D03*
D22*
X32004000Y19685000D03*
X33909000Y19685000D03*
D23*
X29337000Y19558000D03*
D24*
X23254500Y10923500D03*
X23254500Y11423500D03*
X23254500Y11923500D03*
X23254500Y12423500D03*
X23254500Y12923500D03*
X23254500Y13423500D03*
X23254500Y13923500D03*
X23254500Y14423500D03*
D25*
X22604500Y15073500D03*
X22104500Y15073500D03*
X21604500Y15073500D03*
X21104500Y15073500D03*
X20604500Y15073500D03*
X20104500Y15073500D03*
X19604500Y15073500D03*
X19104500Y15073500D03*
D24*
X18454500Y14423500D03*
X18454500Y13923500D03*
X18454500Y13423500D03*
X18454500Y12923500D03*
X18454500Y12423500D03*
X18454500Y11923500D03*
X18454500Y11423500D03*
X18454500Y10923500D03*
D25*
X19104500Y10273500D03*
X19604500Y10273500D03*
X20104500Y10273500D03*
X20604500Y10273500D03*
X21104500Y10273500D03*
X21604500Y10273500D03*
X22104500Y10273500D03*
X22604500Y10273500D03*
D26*
X19992000Y13536000D03*
X19992000Y11811000D03*
X21717000Y13536000D03*
X21717000Y11811000D03*
D27*
X2938000Y6648500D03*
X2938000Y7048500D03*
X2938000Y7448500D03*
X1888000Y7448500D03*
X1888000Y7048500D03*
X1888000Y6648500D03*
D28*
X2413000Y7048500D03*
D23*
X3302000Y4318000D03*
X3302000Y19558000D03*
D29*
X32004000Y0D03*
X29464000Y0D03*
X26924000Y0D03*
X24384000Y0D03*
X21844000Y0D03*
X19304000Y0D03*
X16764000Y0D03*
X14224000Y0D03*
X11684000Y0D03*
X9144000Y0D03*
X6604000Y0D03*
X4064000Y0D03*
X1524000Y0D03*
X1524000Y1905000D03*
X4064000Y1905000D03*
X6604000Y1905000D03*
X9144000Y1905000D03*
X11684000Y1905000D03*
X14224000Y1905000D03*
X16764000Y1905000D03*
X19304000Y1905000D03*
X21844000Y1905000D03*
X24384000Y1905000D03*
X26924000Y1905000D03*
X29464000Y1905000D03*
X32004000Y1905000D03*
X1524000Y24130000D03*
X4064000Y24130000D03*
X6604000Y24130000D03*
X9144000Y24130000D03*
X11684000Y24130000D03*
X14224000Y24130000D03*
X16764000Y24130000D03*
X19304000Y24130000D03*
X21844000Y24130000D03*
X24384000Y24130000D03*
X26924000Y24130000D03*
X29464000Y24130000D03*
X32004000Y24130000D03*
X32004000Y22225000D03*
X29464000Y22225000D03*
X26924000Y22225000D03*
X24384000Y22225000D03*
X21844000Y22225000D03*
X19304000Y22225000D03*
X16764000Y22225000D03*
X14224000Y22225000D03*
X11684000Y22225000D03*
X9144000Y22225000D03*
X6604000Y22225000D03*
X4064000Y22225000D03*
X1524000Y22225000D03*
D30*
X25781000Y6167500D03*
X25781000Y7167500D03*
X24511000Y5326000D03*
X24511000Y4326000D03*
D31*
X14660500Y5080000D03*
X13660500Y5080000D03*
D30*
X1143000Y17772000D03*
X1143000Y16772000D03*
X889000Y7421500D03*
X889000Y6421500D03*
X3937000Y7421500D03*
X3937000Y6421500D03*
X24511000Y6167500D03*
X24511000Y7167500D03*
D31*
X21455000Y7366000D03*
X20455000Y7366000D03*
X24122000Y16510000D03*
X23122000Y16510000D03*
D30*
X28003500Y12628500D03*
X28003500Y11628500D03*
X28003500Y9723500D03*
X28003500Y10723500D03*
X2413000Y17772000D03*
X2413000Y16772000D03*
D31*
X21455000Y8636000D03*
X20455000Y8636000D03*
X13668500Y3835400D03*
X14668500Y3835400D03*
D10*
G36*
X5145300Y7658300D02*
X5145300Y11010700D01*
X6697700Y11010700D01*
X6697700Y7658300D01*
X5145300Y7658300D01*
X5145300Y7658300D01*
G37*
G36*
X7145300Y7658300D02*
X7145300Y11010700D01*
X8697700Y11010700D01*
X8697700Y7658300D01*
X7145300Y7658300D01*
X7145300Y7658300D01*
G37*
D30*
X11366500Y14867000D03*
X11366500Y15867000D03*
M02*
