M48
INCH,TZ
T1C0.013
T2C0.040
T3C0.047
%
G90
G05
T1
X60907Y-35880
X60907Y-36380
X61400Y-33544
X62385Y-36200
X62731Y-35075
X63425Y-36203
X63519Y-35075
X64650Y-36041
X64788Y-32035
X64875Y-32503
X64875Y-32897
X65967Y-36325
X66175Y-37240
X66377Y-36325
X66871Y-33396
X66871Y-34075
X67437Y-36880
X67450Y-35775
X67550Y-33396
X67550Y-34075
X67875Y-36800
X67875Y-37175
X68150Y-32275
X69125Y-34300
X69375Y-34300
X69575Y-33075
X69625Y-34300
X69865Y-33075
X70155Y-33075
X70364Y-32539
T2
X60250Y-37000
X61000Y-30250
X61000Y-31000
X61000Y-37000
X61000Y-38000
X61000Y-38750
X62000Y-30250
X62000Y-31000
X62000Y-38000
X62000Y-38750
X63000Y-30250
X63000Y-31000
X63000Y-38000
X63000Y-38750
X64000Y-30250
X64000Y-31000
X64000Y-38000
X64000Y-38750
X65000Y-30250
X65000Y-31000
X65000Y-38000
X65000Y-38750
X66000Y-30250
X66000Y-31000
X66000Y-38000
X66000Y-38750
X67000Y-30250
X67000Y-31000
X67000Y-38000
X67000Y-38750
X68000Y-30250
X68000Y-31000
X68000Y-38000
X68000Y-38750
X69000Y-30250
X69000Y-31000
X69000Y-38000
X69000Y-38750
X70000Y-30250
X70000Y-31000
X70000Y-38000
X70000Y-38750
X71000Y-30250
X71000Y-31000
X71000Y-32000
X71000Y-33000
X71000Y-34000
X71000Y-35000
X71000Y-36000
X71000Y-37000
X71000Y-38000
X71000Y-38750
X71750Y-32000
X71750Y-33000
X71750Y-34000
X71750Y-35000
X71750Y-36000
X71750Y-37000
T3
X60820Y-32701
X60820Y-35299
T0
M30
