G04 #@! TF.FileFunction,Drawing*
%FSLAX46Y46*%
G04 Gerber Fmt 4.6, Leading zero omitted, Abs format (unit mm)*
G04 Created by KiCad (PCBNEW 4.0.1-3.201512202202+6198~38~ubuntu15.04.1-stable) date Wed Jan  6 13:42:08 2016*
%MOMM*%
G01*
G04 APERTURE LIST*
%ADD10C,0.100000*%
%ADD11C,0.200000*%
%ADD12C,0.150000*%
G04 APERTURE END LIST*
D10*
D11*
X13602119Y29178095D02*
X14097357Y29178095D01*
X13830690Y28873333D01*
X13944976Y28873333D01*
X14021166Y28835238D01*
X14059262Y28797143D01*
X14097357Y28720952D01*
X14097357Y28530476D01*
X14059262Y28454286D01*
X14021166Y28416190D01*
X13944976Y28378095D01*
X13716404Y28378095D01*
X13640214Y28416190D01*
X13602119Y28454286D01*
X14364024Y29178095D02*
X14859262Y29178095D01*
X14592595Y28873333D01*
X14706881Y28873333D01*
X14783071Y28835238D01*
X14821167Y28797143D01*
X14859262Y28720952D01*
X14859262Y28530476D01*
X14821167Y28454286D01*
X14783071Y28416190D01*
X14706881Y28378095D01*
X14478309Y28378095D01*
X14402119Y28416190D01*
X14364024Y28454286D01*
X15202119Y28454286D02*
X15240214Y28416190D01*
X15202119Y28378095D01*
X15164024Y28416190D01*
X15202119Y28454286D01*
X15202119Y28378095D01*
X15621166Y28378095D02*
X15773547Y28378095D01*
X15849738Y28416190D01*
X15887833Y28454286D01*
X15964024Y28568571D01*
X16002119Y28720952D01*
X16002119Y29025714D01*
X15964024Y29101905D01*
X15925928Y29140000D01*
X15849738Y29178095D01*
X15697357Y29178095D01*
X15621166Y29140000D01*
X15583071Y29101905D01*
X15544976Y29025714D01*
X15544976Y28835238D01*
X15583071Y28759048D01*
X15621166Y28720952D01*
X15697357Y28682857D01*
X15849738Y28682857D01*
X15925928Y28720952D01*
X15964024Y28759048D01*
X16002119Y28835238D01*
X16497357Y29178095D02*
X16573548Y29178095D01*
X16649738Y29140000D01*
X16687833Y29101905D01*
X16725929Y29025714D01*
X16764024Y28873333D01*
X16764024Y28682857D01*
X16725929Y28530476D01*
X16687833Y28454286D01*
X16649738Y28416190D01*
X16573548Y28378095D01*
X16497357Y28378095D01*
X16421167Y28416190D01*
X16383071Y28454286D01*
X16344976Y28530476D01*
X16306881Y28682857D01*
X16306881Y28873333D01*
X16344976Y29025714D01*
X16383071Y29101905D01*
X16421167Y29140000D01*
X16497357Y29178095D01*
X17144976Y28378095D02*
X17297357Y28378095D01*
X17373548Y28416190D01*
X17411643Y28454286D01*
X17487834Y28568571D01*
X17525929Y28720952D01*
X17525929Y29025714D01*
X17487834Y29101905D01*
X17449738Y29140000D01*
X17373548Y29178095D01*
X17221167Y29178095D01*
X17144976Y29140000D01*
X17106881Y29101905D01*
X17068786Y29025714D01*
X17068786Y28835238D01*
X17106881Y28759048D01*
X17144976Y28720952D01*
X17221167Y28682857D01*
X17373548Y28682857D01*
X17449738Y28720952D01*
X17487834Y28759048D01*
X17525929Y28835238D01*
X18478310Y28378095D02*
X18478310Y28911429D01*
X18478310Y28835238D02*
X18516405Y28873333D01*
X18592596Y28911429D01*
X18706882Y28911429D01*
X18783072Y28873333D01*
X18821167Y28797143D01*
X18821167Y28378095D01*
X18821167Y28797143D02*
X18859263Y28873333D01*
X18935453Y28911429D01*
X19049739Y28911429D01*
X19125929Y28873333D01*
X19164024Y28797143D01*
X19164024Y28378095D01*
X19544977Y28378095D02*
X19544977Y28911429D01*
X19544977Y28835238D02*
X19583072Y28873333D01*
X19659263Y28911429D01*
X19773549Y28911429D01*
X19849739Y28873333D01*
X19887834Y28797143D01*
X19887834Y28378095D01*
X19887834Y28797143D02*
X19925930Y28873333D01*
X20002120Y28911429D01*
X20116406Y28911429D01*
X20192596Y28873333D01*
X20230691Y28797143D01*
X20230691Y28378095D01*
X0Y27940000D02*
X33909000Y27940000D01*
X0Y25400000D02*
X0Y29540000D01*
X33909000Y25400000D02*
X33909000Y29540000D01*
X33909000Y27940000D02*
X32782496Y27353579D01*
X33909000Y27940000D02*
X32782496Y28526421D01*
X0Y27940000D02*
X1126504Y27353579D01*
X0Y27940000D02*
X1126504Y28526421D01*
X-4082905Y8750714D02*
X-4121000Y8788809D01*
X-4159095Y8865000D01*
X-4159095Y9055476D01*
X-4121000Y9131666D01*
X-4082905Y9169762D01*
X-4006714Y9207857D01*
X-3930524Y9207857D01*
X-3816238Y9169762D01*
X-3359095Y8712619D01*
X-3359095Y9207857D01*
X-3892429Y9893571D02*
X-3359095Y9893571D01*
X-4197190Y9703095D02*
X-3625762Y9512619D01*
X-3625762Y10007857D01*
X-3435286Y10312619D02*
X-3397190Y10350714D01*
X-3359095Y10312619D01*
X-3397190Y10274524D01*
X-3435286Y10312619D01*
X-3359095Y10312619D01*
X-3359095Y11112619D02*
X-3359095Y10655476D01*
X-3359095Y10884047D02*
X-4159095Y10884047D01*
X-4044810Y10807857D01*
X-3968619Y10731666D01*
X-3930524Y10655476D01*
X-4159095Y11379286D02*
X-4159095Y11874524D01*
X-3854333Y11607857D01*
X-3854333Y11722143D01*
X-3816238Y11798333D01*
X-3778143Y11836429D01*
X-3701952Y11874524D01*
X-3511476Y11874524D01*
X-3435286Y11836429D01*
X-3397190Y11798333D01*
X-3359095Y11722143D01*
X-3359095Y11493571D01*
X-3397190Y11417381D01*
X-3435286Y11379286D01*
X-4159095Y12369762D02*
X-4159095Y12445953D01*
X-4121000Y12522143D01*
X-4082905Y12560238D01*
X-4006714Y12598334D01*
X-3854333Y12636429D01*
X-3663857Y12636429D01*
X-3511476Y12598334D01*
X-3435286Y12560238D01*
X-3397190Y12522143D01*
X-3359095Y12445953D01*
X-3359095Y12369762D01*
X-3397190Y12293572D01*
X-3435286Y12255476D01*
X-3511476Y12217381D01*
X-3663857Y12179286D01*
X-3854333Y12179286D01*
X-4006714Y12217381D01*
X-4082905Y12255476D01*
X-4121000Y12293572D01*
X-4159095Y12369762D01*
X-3359095Y13588810D02*
X-3892429Y13588810D01*
X-3816238Y13588810D02*
X-3854333Y13626905D01*
X-3892429Y13703096D01*
X-3892429Y13817382D01*
X-3854333Y13893572D01*
X-3778143Y13931667D01*
X-3359095Y13931667D01*
X-3778143Y13931667D02*
X-3854333Y13969763D01*
X-3892429Y14045953D01*
X-3892429Y14160239D01*
X-3854333Y14236429D01*
X-3778143Y14274524D01*
X-3359095Y14274524D01*
X-3359095Y14655477D02*
X-3892429Y14655477D01*
X-3816238Y14655477D02*
X-3854333Y14693572D01*
X-3892429Y14769763D01*
X-3892429Y14884049D01*
X-3854333Y14960239D01*
X-3778143Y14998334D01*
X-3359095Y14998334D01*
X-3778143Y14998334D02*
X-3854333Y15036430D01*
X-3892429Y15112620D01*
X-3892429Y15226906D01*
X-3854333Y15303096D01*
X-3778143Y15341191D01*
X-3359095Y15341191D01*
X-2921000Y0D02*
X-2921000Y24130000D01*
X-381000Y0D02*
X-4521000Y0D01*
X-381000Y24130000D02*
X-4521000Y24130000D01*
X-2921000Y24130000D02*
X-2334579Y23003496D01*
X-2921000Y24130000D02*
X-3507421Y23003496D01*
X-2921000Y0D02*
X-2334579Y1126504D01*
X-2921000Y0D02*
X-3507421Y1126504D01*
D12*
X0Y0D02*
X0Y24130000D01*
X33909000Y0D02*
X0Y0D01*
X33909000Y24130000D02*
X33909000Y0D01*
X0Y24130000D02*
X33909000Y24130000D01*
M02*
