G04 #@! TF.FileFunction,Soldermask,Bot*
%FSLAX46Y46*%
G04 Gerber Fmt 4.6, Leading zero omitted, Abs format (unit mm)*
G04 Created by KiCad (PCBNEW 4.0.1-3.201512202202+6198~38~ubuntu15.04.1-stable) date Wed Jan  6 13:42:08 2016*
%MOMM*%
G01*
G04 APERTURE LIST*
%ADD10C,0.100000*%
%ADD11C,0.150000*%
%ADD12R,2.152400X2.152400*%
%ADD13C,1.052400*%
%ADD14R,1.052400X0.552400*%
%ADD15R,1.879600X2.184400*%
%ADD16C,2.550000*%
G04 APERTURE END LIST*
D10*
D11*
X0Y0D02*
X0Y24130000D01*
X33909000Y0D02*
X0Y0D01*
X33909000Y24130000D02*
X33909000Y0D01*
X0Y24130000D02*
X33909000Y24130000D01*
D12*
X32004000Y19685000D03*
X33909000Y19685000D03*
D13*
X1397000Y11515000D03*
D14*
X1397000Y12365000D03*
X1397000Y11765000D03*
D13*
X1397000Y12615000D03*
D15*
X32004000Y0D03*
X29464000Y0D03*
X26924000Y0D03*
X24384000Y0D03*
X21844000Y0D03*
X19304000Y0D03*
X16764000Y0D03*
X14224000Y0D03*
X11684000Y0D03*
X9144000Y0D03*
X6604000Y0D03*
X4064000Y0D03*
X1524000Y0D03*
X1524000Y1905000D03*
X4064000Y1905000D03*
X6604000Y1905000D03*
X9144000Y1905000D03*
X11684000Y1905000D03*
X14224000Y1905000D03*
X16764000Y1905000D03*
X19304000Y1905000D03*
X21844000Y1905000D03*
X24384000Y1905000D03*
X26924000Y1905000D03*
X29464000Y1905000D03*
X32004000Y1905000D03*
X1524000Y24130000D03*
X4064000Y24130000D03*
X6604000Y24130000D03*
X9144000Y24130000D03*
X11684000Y24130000D03*
X14224000Y24130000D03*
X16764000Y24130000D03*
X19304000Y24130000D03*
X21844000Y24130000D03*
X24384000Y24130000D03*
X26924000Y24130000D03*
X29464000Y24130000D03*
X32004000Y24130000D03*
X32004000Y22225000D03*
X29464000Y22225000D03*
X26924000Y22225000D03*
X24384000Y22225000D03*
X21844000Y22225000D03*
X19304000Y22225000D03*
X16764000Y22225000D03*
X14224000Y22225000D03*
X11684000Y22225000D03*
X9144000Y22225000D03*
X6604000Y22225000D03*
X4064000Y22225000D03*
X1524000Y22225000D03*
D16*
X1447800Y15290000D03*
X1447800Y8840000D03*
M02*
