G04 #@! TF.FileFunction,Copper,L1,Top,Signal*
%FSLAX46Y46*%
G04 Gerber Fmt 4.6, Leading zero omitted, Abs format (unit mm)*
G04 Created by KiCad (PCBNEW 4.0.1-3.201512221401+6198~38~ubuntu15.10.1-stable) date Mon Jan 18 21:51:54 2016*
%MOMM*%
G01*
G04 APERTURE LIST*
%ADD10C,0.100000*%
%ADD11R,1.050000X0.650000*%
%ADD12R,1.900000X1.100000*%
%ADD13R,1.250000X0.600000*%
%ADD14R,2.199640X1.600200*%
%ADD15R,1.600200X2.199640*%
%ADD16R,1.350000X0.400000*%
%ADD17C,1.600000*%
%ADD18R,1.400000X1.600000*%
%ADD19R,1.900000X1.900000*%
%ADD20R,2.032000X1.727200*%
%ADD21C,0.500000*%
%ADD22R,0.700000X0.250000*%
%ADD23R,0.250000X0.700000*%
%ADD24R,1.725000X1.725000*%
%ADD25R,0.350000X0.180000*%
%ADD26R,0.300000X1.500000*%
%ADD27R,1.727200X2.032000*%
%ADD28R,0.700000X0.600000*%
%ADD29R,0.600000X0.700000*%
%ADD30C,0.584200*%
%ADD31C,0.508000*%
%ADD32C,0.304800*%
%ADD33C,0.152400*%
%ADD34C,0.203200*%
G04 APERTURE END LIST*
D10*
D11*
X27118000Y4767000D03*
X32318000Y4767000D03*
X32318000Y6917000D03*
X27118000Y6917000D03*
D12*
X26289000Y9926000D03*
X26289000Y12426000D03*
D13*
X9370000Y13777000D03*
X9370000Y12827000D03*
X9370000Y11877000D03*
X5870000Y11877000D03*
X5870000Y12827000D03*
X5870000Y13777000D03*
D14*
X9438640Y16510000D03*
X6436360Y16510000D03*
D15*
X10795000Y6880860D03*
X10795000Y9883140D03*
D16*
X4122800Y13365000D03*
X4122800Y12715000D03*
X4122800Y12065000D03*
X4122800Y11415000D03*
X4122800Y10765000D03*
D17*
X1447800Y15365000D03*
X1447800Y8765000D03*
D18*
X3897800Y8865000D03*
X3897800Y15265000D03*
D19*
X1447800Y10615000D03*
X1447800Y13515000D03*
D20*
X32004000Y19685000D03*
X33909000Y19685000D03*
D21*
X29337000Y19558000D03*
D22*
X23254500Y10923500D03*
X23254500Y11423500D03*
X23254500Y11923500D03*
X23254500Y12423500D03*
X23254500Y12923500D03*
X23254500Y13423500D03*
X23254500Y13923500D03*
X23254500Y14423500D03*
D23*
X22604500Y15073500D03*
X22104500Y15073500D03*
X21604500Y15073500D03*
X21104500Y15073500D03*
X20604500Y15073500D03*
X20104500Y15073500D03*
X19604500Y15073500D03*
X19104500Y15073500D03*
D22*
X18454500Y14423500D03*
X18454500Y13923500D03*
X18454500Y13423500D03*
X18454500Y12923500D03*
X18454500Y12423500D03*
X18454500Y11923500D03*
X18454500Y11423500D03*
X18454500Y10923500D03*
D23*
X19104500Y10273500D03*
X19604500Y10273500D03*
X20104500Y10273500D03*
X20604500Y10273500D03*
X21104500Y10273500D03*
X21604500Y10273500D03*
X22104500Y10273500D03*
X22604500Y10273500D03*
D24*
X19992000Y13536000D03*
X19992000Y11811000D03*
X21717000Y13536000D03*
X21717000Y11811000D03*
D25*
X2938000Y6648500D03*
X2938000Y7048500D03*
X2938000Y7448500D03*
X1888000Y7448500D03*
X1888000Y7048500D03*
X1888000Y6648500D03*
D26*
X2413000Y7048500D03*
D21*
X3302000Y4318000D03*
X3302000Y19558000D03*
D27*
X32004000Y0D03*
X29464000Y0D03*
X26924000Y0D03*
X24384000Y0D03*
X21844000Y0D03*
X19304000Y0D03*
X16764000Y0D03*
X14224000Y0D03*
X11684000Y0D03*
X9144000Y0D03*
X6604000Y0D03*
X4064000Y0D03*
X1524000Y0D03*
X1524000Y1905000D03*
X4064000Y1905000D03*
X6604000Y1905000D03*
X9144000Y1905000D03*
X11684000Y1905000D03*
X14224000Y1905000D03*
X16764000Y1905000D03*
X19304000Y1905000D03*
X21844000Y1905000D03*
X24384000Y1905000D03*
X26924000Y1905000D03*
X29464000Y1905000D03*
X32004000Y1905000D03*
X1524000Y24130000D03*
X4064000Y24130000D03*
X6604000Y24130000D03*
X9144000Y24130000D03*
X11684000Y24130000D03*
X14224000Y24130000D03*
X16764000Y24130000D03*
X19304000Y24130000D03*
X21844000Y24130000D03*
X24384000Y24130000D03*
X26924000Y24130000D03*
X29464000Y24130000D03*
X32004000Y24130000D03*
X32004000Y22225000D03*
X29464000Y22225000D03*
X26924000Y22225000D03*
X24384000Y22225000D03*
X21844000Y22225000D03*
X19304000Y22225000D03*
X16764000Y22225000D03*
X14224000Y22225000D03*
X11684000Y22225000D03*
X9144000Y22225000D03*
X6604000Y22225000D03*
X4064000Y22225000D03*
X1524000Y22225000D03*
D28*
X25781000Y6167500D03*
X25781000Y7167500D03*
X24511000Y5326000D03*
X24511000Y4326000D03*
D29*
X14660500Y5080000D03*
X13660500Y5080000D03*
D28*
X1143000Y17772000D03*
X1143000Y16772000D03*
X889000Y7421500D03*
X889000Y6421500D03*
X3937000Y7421500D03*
X3937000Y6421500D03*
X24511000Y6167500D03*
X24511000Y7167500D03*
D29*
X21455000Y7366000D03*
X20455000Y7366000D03*
X24122000Y16510000D03*
X23122000Y16510000D03*
D28*
X28003500Y12628500D03*
X28003500Y11628500D03*
X28003500Y9723500D03*
X28003500Y10723500D03*
X2413000Y17772000D03*
X2413000Y16772000D03*
D29*
X21455000Y8636000D03*
X20455000Y8636000D03*
X13668500Y3835400D03*
X14668500Y3835400D03*
D10*
G36*
X5221500Y7734500D02*
X5221500Y10934500D01*
X6621500Y10934500D01*
X6621500Y7734500D01*
X5221500Y7734500D01*
X5221500Y7734500D01*
G37*
G36*
X7221500Y7734500D02*
X7221500Y10934500D01*
X8621500Y10934500D01*
X8621500Y7734500D01*
X7221500Y7734500D01*
X7221500Y7734500D01*
G37*
D28*
X11366500Y14867000D03*
X11366500Y15867000D03*
D30*
X14668500Y3835400D03*
X27118000Y4767000D03*
X24511000Y7167500D03*
X25844500Y11239500D03*
X26479500Y11239500D03*
X27114500Y11239500D03*
X22672000Y16510000D03*
X21717000Y11811000D03*
X21717000Y13536000D03*
X19992000Y13536000D03*
X19992000Y11811000D03*
D31*
X24511000Y5326000D03*
X19280244Y9294756D03*
D30*
X19494500Y6286500D03*
X24511000Y4326000D03*
X10795000Y6880860D03*
X11366500Y15867000D03*
X24638000Y17970500D03*
X3937000Y7421500D03*
X11366500Y14867000D03*
X5921500Y9334500D03*
X2921000Y13223800D03*
X889000Y7421500D03*
D32*
X20604500Y10273500D02*
X20604500Y8785500D01*
X20604500Y8785500D02*
X20455000Y8636000D01*
X20455000Y7366000D02*
X20455000Y8636000D01*
X26479500Y11239500D02*
X25844500Y11239500D01*
X28003500Y11628500D02*
X27540142Y11628500D01*
X27540142Y11628500D02*
X27151142Y11239500D01*
X27151142Y11239500D02*
X27114500Y11239500D01*
X22672000Y16510000D02*
X22104500Y15942500D01*
X22104500Y15942500D02*
X22104500Y15073500D01*
X20604500Y10273500D02*
X20604500Y11198500D01*
X22104500Y15073500D02*
X22104500Y13923500D01*
X22104500Y13923500D02*
X21717000Y13536000D01*
D33*
X26289000Y9926000D02*
X27801000Y9926000D01*
X27801000Y9926000D02*
X28003500Y9723500D01*
X26289000Y9926000D02*
X25889000Y9926000D01*
X25889000Y9926000D02*
X24891500Y10923500D01*
X24891500Y10923500D02*
X23254500Y10923500D01*
X26289000Y12426000D02*
X27801000Y12426000D01*
X27801000Y12426000D02*
X28003500Y12628500D01*
X26289000Y12426000D02*
X25889000Y12426000D01*
X25889000Y12426000D02*
X24886500Y11423500D01*
X24886500Y11423500D02*
X23756900Y11423500D01*
X23756900Y11423500D02*
X23254500Y11423500D01*
X15890988Y5905500D02*
X13424518Y5905500D01*
X13424518Y5905500D02*
X11684000Y4164982D01*
X11684000Y4164982D02*
X11684000Y3073400D01*
X11684000Y3073400D02*
X11684000Y1905000D01*
X19280244Y9294756D02*
X15890988Y5905500D01*
X19280244Y9294756D02*
X19604500Y9619012D01*
X19604500Y9619012D02*
X19604500Y10273500D01*
X24511000Y6167500D02*
X25781000Y6167500D01*
X24511000Y6167500D02*
X24511000Y5326000D01*
X11684000Y1905000D02*
X11684000Y2057400D01*
X19604500Y10273500D02*
X19563089Y10232089D01*
X4122800Y12715000D02*
X5758000Y12715000D01*
X5758000Y12715000D02*
X5870000Y12827000D01*
X4122800Y12065000D02*
X5682000Y12065000D01*
X5682000Y12065000D02*
X5870000Y11877000D01*
X25781000Y7167500D02*
X26867500Y7167500D01*
X26867500Y7167500D02*
X27118000Y6917000D01*
X22104500Y10273500D02*
X22104500Y9771100D01*
X22104500Y9771100D02*
X22577090Y9298510D01*
X19965135Y3149601D02*
X17856201Y3149601D01*
X22577090Y9298510D02*
X22577090Y5761556D01*
X22577090Y5761556D02*
X19965135Y3149601D01*
X17856201Y3149601D02*
X16764000Y2057400D01*
X16764000Y2057400D02*
X16764000Y1905000D01*
X22604500Y10273500D02*
X22604500Y10048500D01*
X22604500Y10048500D02*
X22881900Y9771100D01*
X22881900Y9771100D02*
X22881900Y5635300D01*
X22881900Y5635300D02*
X19304000Y2057400D01*
X19304000Y2057400D02*
X19304000Y1905000D01*
X22604500Y10273500D02*
X22604500Y10212546D01*
D32*
X21145500Y6286500D02*
X21463000Y6604000D01*
X19494500Y6286500D02*
X21145500Y6286500D01*
X21463000Y6604000D02*
X21463000Y6889409D01*
X21463000Y6889409D02*
X21463000Y7302500D01*
X10795000Y6880860D02*
X10795000Y6248400D01*
X10795000Y6248400D02*
X6604000Y2057400D01*
X6604000Y2057400D02*
X6604000Y1905000D01*
X7921500Y9334500D02*
X7921500Y7634500D01*
X7921500Y7634500D02*
X8675140Y6880860D01*
X8675140Y6880860D02*
X9690100Y6880860D01*
X9690100Y6880860D02*
X10795000Y6880860D01*
X21604500Y10273500D02*
X21604500Y9701000D01*
X21604500Y9701000D02*
X22161500Y9144000D01*
X22161500Y9144000D02*
X22161500Y8122500D01*
X22161500Y8122500D02*
X21455000Y7416000D01*
X21455000Y7416000D02*
X21455000Y7366000D01*
X11366500Y15867000D02*
X10081640Y15867000D01*
X10081640Y15867000D02*
X9438640Y16510000D01*
X24638000Y17970500D02*
X24638000Y16576000D01*
X24638000Y16576000D02*
X24572000Y16510000D01*
X23054000Y15748000D02*
X23585000Y15748000D01*
X23585000Y15748000D02*
X24347000Y16510000D01*
X24347000Y16510000D02*
X24572000Y16510000D01*
X22604500Y15073500D02*
X22604500Y15298500D01*
X22604500Y15298500D02*
X23054000Y15748000D01*
X2938000Y7448500D02*
X3910000Y7448500D01*
X3910000Y7448500D02*
X3937000Y7421500D01*
X2938000Y7448500D02*
X2938000Y7105710D01*
X4122800Y13365000D02*
X4856000Y13365000D01*
X4856000Y13365000D02*
X5268000Y13777000D01*
X5268000Y13777000D02*
X5870000Y13777000D01*
X4122800Y13365000D02*
X3062200Y13365000D01*
X3062200Y13365000D02*
X2921000Y13223800D01*
D34*
X10132000Y12827000D02*
X9370000Y12827000D01*
X13005168Y12555200D02*
X14183668Y11376700D01*
X14183668Y11376700D02*
X17882700Y11376700D01*
X17882700Y11376700D02*
X17929500Y11423500D01*
X17929500Y11423500D02*
X18454500Y11423500D01*
X10132000Y12827000D02*
X11069500Y12827000D01*
X11069500Y12827000D02*
X11341300Y12555200D01*
X11341300Y12555200D02*
X13005168Y12555200D01*
X10132000Y11877000D02*
X9370000Y11877000D01*
X12836832Y12148800D02*
X14015332Y10970300D01*
X14015332Y10970300D02*
X17882700Y10970300D01*
X17882700Y10970300D02*
X17929500Y10923500D01*
X17929500Y10923500D02*
X18454500Y10923500D01*
X10132000Y11877000D02*
X11069500Y11877000D01*
X11069500Y11877000D02*
X11341300Y12148800D01*
X11341300Y12148800D02*
X12836832Y12148800D01*
D33*
X13660500Y5080000D02*
X13660500Y3843400D01*
X13660500Y3843400D02*
X13668500Y3835400D01*
D32*
X1888000Y7448500D02*
X916000Y7448500D01*
X916000Y7448500D02*
X889000Y7421500D01*
D33*
X21844000Y1905000D02*
X21844000Y2057400D01*
X21844000Y2057400D02*
X23571220Y3784620D01*
X23571220Y3784620D02*
X29896554Y3784620D01*
X29896554Y3784620D02*
X30345162Y4233228D01*
X25156119Y13204601D02*
X23875018Y11923500D01*
X30345162Y4233228D02*
X30345163Y7929909D01*
X30345163Y7929909D02*
X31115601Y8700347D01*
X31115601Y8700347D02*
X31115601Y12940381D01*
X31115601Y12940381D02*
X30851381Y13204601D01*
X30851381Y13204601D02*
X25156119Y13204601D01*
X23875018Y11923500D02*
X23254500Y11923500D01*
X24384000Y1905000D02*
X24384000Y2057400D01*
X23753452Y12423500D02*
X23254500Y12423500D01*
X24384000Y2057400D02*
X25806410Y3479810D01*
X30977638Y13509410D02*
X24839363Y13509411D01*
X25806410Y3479810D02*
X30022810Y3479810D01*
X30022810Y3479810D02*
X30649971Y4106971D01*
X30649971Y4106971D02*
X30649972Y7803652D01*
X30649972Y7803652D02*
X31420411Y8574091D01*
X31420411Y8574091D02*
X31420411Y13066637D01*
X31420411Y13066637D02*
X30977638Y13509410D01*
X24839363Y13509411D02*
X23753452Y12423500D01*
X30954781Y7677395D02*
X31725220Y8447834D01*
X31725220Y8447834D02*
X31725220Y13192894D01*
X30954780Y3979246D02*
X30954781Y7677395D01*
X30150534Y3175000D02*
X30954780Y3979246D01*
X26924000Y1905000D02*
X26924000Y2057400D01*
X26924000Y2057400D02*
X28041600Y3175000D01*
X28041600Y3175000D02*
X30150534Y3175000D01*
X23254500Y12923500D02*
X23756900Y12923500D01*
X23756900Y12923500D02*
X24647619Y13814219D01*
X24647619Y13814219D02*
X31103895Y13814219D01*
X31103895Y13814219D02*
X31725220Y13192894D01*
X32030030Y8321578D02*
X32030030Y13319150D01*
X31259589Y3852989D02*
X31259590Y7551138D01*
X31259590Y7551138D02*
X32030030Y8321578D01*
X29464000Y1905000D02*
X29464000Y2057400D01*
X29464000Y2057400D02*
X31259589Y3852989D01*
X23254500Y13423500D02*
X23825834Y13423500D01*
X23825834Y13423500D02*
X24521363Y14119029D01*
X24521363Y14119029D02*
X31230152Y14119028D01*
X31230152Y14119028D02*
X32030030Y13319150D01*
X32334840Y13445406D02*
X32334840Y8195322D01*
X32334840Y8195322D02*
X31564399Y7424881D01*
X31564399Y7424881D02*
X31564399Y3513001D01*
X31564399Y3513001D02*
X32004000Y3073400D01*
X32004000Y3073400D02*
X32004000Y1905000D01*
X23254500Y13923500D02*
X23894768Y13923500D01*
X23894768Y13923500D02*
X24395105Y14423837D01*
X24395105Y14423837D02*
X31356409Y14423837D01*
X31356409Y14423837D02*
X32334840Y13445406D01*
X26470425Y14728647D02*
X30663201Y18921423D01*
X30663201Y18921423D02*
X30663201Y20731801D01*
X30663201Y20731801D02*
X32004000Y22072600D01*
X32004000Y22072600D02*
X32004000Y22225000D01*
X23254500Y14423500D02*
X23756900Y14423500D01*
X23756900Y14423500D02*
X24062047Y14728647D01*
X24062047Y14728647D02*
X26470425Y14728647D01*
X20104500Y9436500D02*
X15748000Y5080000D01*
X15748000Y5080000D02*
X14660500Y5080000D01*
X20104500Y10273500D02*
X20104500Y9436500D01*
X14660500Y5080000D02*
X14660500Y5030000D01*
X14660500Y5030000D02*
X15240000Y4450500D01*
X15240000Y4450500D02*
X15240000Y3073400D01*
X15240000Y3073400D02*
X14224000Y2057400D01*
X14224000Y2057400D02*
X14224000Y1905000D01*
X21604500Y16828982D02*
X25451107Y20675589D01*
X25451107Y20675589D02*
X28066989Y20675589D01*
X28066989Y20675589D02*
X29464000Y22072600D01*
X29464000Y22072600D02*
X29464000Y22225000D01*
X21604500Y15073500D02*
X21604500Y16828982D01*
X21104500Y16760048D02*
X25324851Y20980399D01*
X25324851Y20980399D02*
X25831799Y20980399D01*
X25831799Y20980399D02*
X26924000Y22072600D01*
X26924000Y22072600D02*
X26924000Y22225000D01*
X21104500Y15073500D02*
X21104500Y16760048D01*
X24384000Y20470614D02*
X24384000Y22225000D01*
X24384000Y22072600D02*
X24384000Y22225000D01*
X20604500Y16691114D02*
X24384000Y20470614D01*
X20604500Y15073500D02*
X20604500Y16691114D01*
X21844000Y18361680D02*
X21844000Y22225000D01*
X21844000Y22072600D02*
X21844000Y22225000D01*
X20104500Y16622180D02*
X21844000Y18361680D01*
X20104500Y15073500D02*
X20104500Y16622180D01*
X19604500Y15073500D02*
X19604500Y21924500D01*
X19604500Y21924500D02*
X19304000Y22225000D01*
X19304000Y22072600D02*
X19304000Y22225000D01*
X17780000Y21056600D02*
X16764000Y22072600D01*
X16764000Y22072600D02*
X16764000Y22225000D01*
X17932400Y21056600D02*
X17780000Y21056600D01*
X19104500Y19884500D02*
X17932400Y21056600D01*
X19104500Y15073500D02*
X19104500Y19884500D01*
X14224000Y21056600D02*
X14224000Y22225000D01*
X14224000Y22072600D02*
X14224000Y22225000D01*
X14224000Y18429000D02*
X14224000Y21056600D01*
X18454500Y14423500D02*
X18229500Y14423500D01*
X18229500Y14423500D02*
X14224000Y18429000D01*
X11684000Y21056600D02*
X11684000Y22225000D01*
X11684000Y22072600D02*
X11684000Y22225000D01*
X11684000Y20307518D02*
X11684000Y21056600D01*
X18068018Y13923500D02*
X11684000Y20307518D01*
X18454500Y13923500D02*
X18068018Y13923500D01*
X10160000Y21056600D02*
X9144000Y22072600D01*
X9144000Y22072600D02*
X9144000Y22225000D01*
X10492008Y21056600D02*
X10160000Y21056600D01*
X18454500Y13423500D02*
X18125108Y13423500D01*
X18125108Y13423500D02*
X10492008Y21056600D01*
X7696210Y20980390D02*
X6604000Y22072600D01*
X6604000Y22072600D02*
X6604000Y22225000D01*
X9805144Y20980390D02*
X7696210Y20980390D01*
X17862034Y12923500D02*
X9805144Y20980390D01*
X18454500Y12923500D02*
X17862034Y12923500D01*
X18454500Y12423500D02*
X17930968Y12423500D01*
X17930968Y12423500D02*
X9678888Y20675580D01*
X9678888Y20675580D02*
X5461020Y20675580D01*
X5461020Y20675580D02*
X4064000Y22072600D01*
X4064000Y22072600D02*
X4064000Y22225000D01*
X18454500Y11923500D02*
X17952100Y11923500D01*
X17952100Y11923500D02*
X9504830Y20370770D01*
X9504830Y20370770D02*
X4711730Y20370770D01*
X4711730Y20370770D02*
X4102110Y20980390D01*
X4102110Y20980390D02*
X2616210Y20980390D01*
X1524000Y22072600D02*
X1524000Y22225000D01*
X2616210Y20980390D02*
X1524000Y22072600D01*
X19104500Y10273500D02*
X19104500Y10048500D01*
X19104500Y10048500D02*
X15266310Y6210310D01*
X15266310Y6210310D02*
X13296910Y6210310D01*
X9144000Y2057400D02*
X9144000Y1905000D01*
X13296910Y6210310D02*
X9144000Y2057400D01*
D32*
X1143000Y16772000D02*
X2413000Y16772000D01*
X1447800Y15365000D02*
X1447800Y16467200D01*
X1447800Y16467200D02*
X1143000Y16772000D01*
X1447800Y13515000D02*
X1447800Y15365000D01*
X1447800Y10615000D02*
X1447800Y13515000D01*
X1447800Y8765000D02*
X1447800Y10615000D01*
X3697800Y8865000D02*
X1472800Y8865000D01*
X1472800Y8865000D02*
X1447800Y8840000D01*
X3697800Y15265000D02*
X1472800Y15265000D01*
X1472800Y15265000D02*
X1447800Y15290000D01*
X1143000Y15594800D02*
X1447800Y15290000D01*
X21104500Y10273500D02*
X21104500Y8986500D01*
X21104500Y8986500D02*
X21455000Y8636000D01*
D33*
G36*
X427322Y21209000D02*
X443262Y21124286D01*
X493328Y21046482D01*
X569720Y20994285D01*
X660400Y20975922D01*
X2189626Y20975922D01*
X2400684Y20764864D01*
X2499568Y20698792D01*
X2560668Y20686638D01*
X2551749Y20682953D01*
X2178358Y20310213D01*
X1976031Y19822955D01*
X1975570Y19295360D01*
X2177047Y18807749D01*
X2549787Y18434358D01*
X3037045Y18232031D01*
X3564640Y18231570D01*
X4052251Y18433047D01*
X4425642Y18805787D01*
X4627969Y19293045D01*
X4628430Y19820640D01*
X4485929Y20165519D01*
X4496204Y20155244D01*
X4595088Y20089172D01*
X4711730Y20065970D01*
X9378578Y20065970D01*
X16592148Y12852400D01*
X14255564Y12852400D01*
X13109482Y13998482D01*
X13085246Y14014797D01*
X13055600Y14020800D01*
X11379200Y14020800D01*
X11357622Y14017681D01*
X11330889Y14003528D01*
X11311769Y13980090D01*
X11079195Y13538200D01*
X10223600Y13538200D01*
X10223600Y13707150D01*
X10166450Y13764300D01*
X9382700Y13764300D01*
X9382700Y13744300D01*
X9357300Y13744300D01*
X9357300Y13764300D01*
X8573550Y13764300D01*
X8516400Y13707150D01*
X8516400Y13431529D01*
X8551202Y13347509D01*
X8595964Y13302747D01*
X8582482Y13294072D01*
X8530285Y13217680D01*
X8511922Y13127000D01*
X8511922Y12527000D01*
X8527862Y12442286D01*
X8577928Y12364482D01*
X8595520Y12352462D01*
X8582482Y12344072D01*
X8530285Y12267680D01*
X8511922Y12177000D01*
X8511922Y11577000D01*
X8527862Y11492286D01*
X8577928Y11414482D01*
X8654320Y11362285D01*
X8745000Y11343922D01*
X9995000Y11343922D01*
X10020300Y11348683D01*
X10020300Y11239500D01*
X10025511Y11211805D01*
X10025669Y11211560D01*
X9949428Y11211560D01*
X9865408Y11176757D01*
X9801102Y11112451D01*
X9766300Y11028431D01*
X9766300Y9952990D01*
X9823450Y9895840D01*
X10782300Y9895840D01*
X10782300Y9915840D01*
X10807700Y9915840D01*
X10807700Y9895840D01*
X11766550Y9895840D01*
X11823700Y9952990D01*
X11823700Y10668000D01*
X12770036Y10668000D01*
X13916118Y9521918D01*
X13940354Y9505603D01*
X13970000Y9499600D01*
X18124548Y9499600D01*
X15140058Y6515110D01*
X13296910Y6515110D01*
X13180268Y6491908D01*
X13116198Y6449098D01*
X13081384Y6425836D01*
X9809626Y3154078D01*
X8280400Y3154078D01*
X8230013Y3144597D01*
X10633378Y5547962D01*
X11595100Y5547962D01*
X11679814Y5563902D01*
X11757618Y5613968D01*
X11809815Y5690360D01*
X11828178Y5781040D01*
X11828178Y7980680D01*
X11812238Y8065394D01*
X11762172Y8143198D01*
X11685780Y8195395D01*
X11595100Y8213758D01*
X9994900Y8213758D01*
X9910186Y8197818D01*
X9832382Y8147752D01*
X9780185Y8071360D01*
X9761822Y7980680D01*
X9761822Y7261860D01*
X8832956Y7261860D01*
X8593394Y7501422D01*
X8621500Y7501422D01*
X8706214Y7517362D01*
X8784018Y7567428D01*
X8836215Y7643820D01*
X8854578Y7734500D01*
X8854578Y9813290D01*
X9766300Y9813290D01*
X9766300Y8737849D01*
X9801102Y8653829D01*
X9865408Y8589523D01*
X9949428Y8554720D01*
X10725150Y8554720D01*
X10782300Y8611870D01*
X10782300Y9870440D01*
X10807700Y9870440D01*
X10807700Y8611870D01*
X10864850Y8554720D01*
X11640572Y8554720D01*
X11724592Y8589523D01*
X11788898Y8653829D01*
X11823700Y8737849D01*
X11823700Y9813290D01*
X11766550Y9870440D01*
X10807700Y9870440D01*
X10782300Y9870440D01*
X9823450Y9870440D01*
X9766300Y9813290D01*
X8854578Y9813290D01*
X8854578Y10934500D01*
X8838638Y11019214D01*
X8788572Y11097018D01*
X8712180Y11149215D01*
X8621500Y11167578D01*
X7221500Y11167578D01*
X7136786Y11151638D01*
X7058982Y11101572D01*
X7006785Y11025180D01*
X6988422Y10934500D01*
X6988422Y7734500D01*
X7004362Y7649786D01*
X7054428Y7571982D01*
X7130820Y7519785D01*
X7221500Y7501422D01*
X7566971Y7501422D01*
X7569502Y7488697D01*
X7652092Y7365092D01*
X8405732Y6611452D01*
X8529337Y6528862D01*
X8675140Y6499859D01*
X8675145Y6499860D01*
X9761822Y6499860D01*
X9761822Y5781040D01*
X9766098Y5758314D01*
X7161862Y3154078D01*
X5740400Y3154078D01*
X5655686Y3138138D01*
X5577882Y3088072D01*
X5525685Y3011680D01*
X5507322Y2921000D01*
X5507322Y330200D01*
X5160678Y330200D01*
X5160678Y2921000D01*
X5144738Y3005714D01*
X5094672Y3083518D01*
X5018280Y3135715D01*
X4927600Y3154078D01*
X3957939Y3154078D01*
X4052251Y3193047D01*
X4425642Y3565787D01*
X4627969Y4053045D01*
X4628430Y4580640D01*
X4426953Y5068251D01*
X4054213Y5441642D01*
X3566955Y5643969D01*
X3039360Y5644430D01*
X2551749Y5442953D01*
X2178358Y5070213D01*
X1976031Y4582955D01*
X1975570Y4055360D01*
X2177047Y3567749D01*
X2549787Y3194358D01*
X2986578Y3012987D01*
X2985685Y3011680D01*
X2967322Y2921000D01*
X2967322Y330200D01*
X2616200Y330200D01*
X2616200Y1835150D01*
X2559050Y1892300D01*
X1536700Y1892300D01*
X1536700Y330200D01*
X1511300Y330200D01*
X1511300Y1892300D01*
X488950Y1892300D01*
X431800Y1835150D01*
X431800Y330200D01*
X330200Y330200D01*
X330200Y2966471D01*
X431800Y2966471D01*
X431800Y1974850D01*
X488950Y1917700D01*
X1511300Y1917700D01*
X1511300Y3092450D01*
X1536700Y3092450D01*
X1536700Y1917700D01*
X2559050Y1917700D01*
X2616200Y1974850D01*
X2616200Y2966471D01*
X2581398Y3050491D01*
X2517092Y3114797D01*
X2433072Y3149600D01*
X1593850Y3149600D01*
X1536700Y3092450D01*
X1511300Y3092450D01*
X1454150Y3149600D01*
X614928Y3149600D01*
X530908Y3114797D01*
X466602Y3050491D01*
X431800Y2966471D01*
X330200Y2966471D01*
X330200Y6028227D01*
X345202Y5992009D01*
X409508Y5927703D01*
X493528Y5892900D01*
X819150Y5892900D01*
X876300Y5950050D01*
X876300Y6408800D01*
X901700Y6408800D01*
X901700Y5950050D01*
X958850Y5892900D01*
X1284472Y5892900D01*
X1368492Y5927703D01*
X1432798Y5992009D01*
X1467600Y6076029D01*
X1467600Y6351650D01*
X1410450Y6408800D01*
X901700Y6408800D01*
X876300Y6408800D01*
X856300Y6408800D01*
X856300Y6434200D01*
X876300Y6434200D01*
X876300Y6454200D01*
X901700Y6454200D01*
X901700Y6434200D01*
X1410450Y6434200D01*
X1467600Y6491350D01*
X1467600Y6766971D01*
X1432798Y6850991D01*
X1368492Y6915297D01*
X1351588Y6922299D01*
X1401518Y6954428D01*
X1453715Y7030820D01*
X1461143Y7067500D01*
X1479922Y7067500D01*
X1479922Y6958500D01*
X1495862Y6873786D01*
X1511819Y6848988D01*
X1498285Y6829180D01*
X1479922Y6738500D01*
X1479922Y6558500D01*
X1495862Y6473786D01*
X1545928Y6395982D01*
X1622320Y6343785D01*
X1713000Y6325422D01*
X2034400Y6325422D01*
X2034400Y6253028D01*
X2069203Y6169008D01*
X2133509Y6104702D01*
X2217529Y6069900D01*
X2343150Y6069900D01*
X2400300Y6127050D01*
X2400300Y7035800D01*
X2380300Y7035800D01*
X2380300Y7061200D01*
X2400300Y7061200D01*
X2400300Y7969950D01*
X2343150Y8027100D01*
X2217529Y8027100D01*
X2133509Y7992298D01*
X2069203Y7927992D01*
X2034400Y7843972D01*
X2034400Y7800098D01*
X2033802Y7800498D01*
X1888000Y7829500D01*
X1877253Y7829500D01*
X2029694Y7892487D01*
X2319296Y8181584D01*
X2444870Y8484000D01*
X2964722Y8484000D01*
X2964722Y8065000D01*
X2980662Y7980286D01*
X3030728Y7902482D01*
X3107120Y7850285D01*
X3197800Y7831922D01*
X3385774Y7831922D01*
X3384119Y7829500D01*
X2938000Y7829500D01*
X2792198Y7800498D01*
X2791600Y7800098D01*
X2791600Y7843972D01*
X2756797Y7927992D01*
X2692491Y7992298D01*
X2608471Y8027100D01*
X2482850Y8027100D01*
X2425700Y7969950D01*
X2425700Y7061200D01*
X2445700Y7061200D01*
X2445700Y7035800D01*
X2425700Y7035800D01*
X2425700Y6127050D01*
X2482850Y6069900D01*
X2608471Y6069900D01*
X2692491Y6104702D01*
X2756797Y6169008D01*
X2791600Y6253028D01*
X2791600Y6329900D01*
X2868150Y6329900D01*
X2925300Y6387050D01*
X2925300Y6635800D01*
X2950700Y6635800D01*
X2950700Y6387050D01*
X3007850Y6329900D01*
X3158471Y6329900D01*
X3210980Y6351650D01*
X3358400Y6351650D01*
X3358400Y6076029D01*
X3393202Y5992009D01*
X3457508Y5927703D01*
X3541528Y5892900D01*
X3867150Y5892900D01*
X3924300Y5950050D01*
X3924300Y6408800D01*
X3949700Y6408800D01*
X3949700Y5950050D01*
X4006850Y5892900D01*
X4332472Y5892900D01*
X4416492Y5927703D01*
X4480798Y5992009D01*
X4515600Y6076029D01*
X4515600Y6351650D01*
X4458450Y6408800D01*
X3949700Y6408800D01*
X3924300Y6408800D01*
X3415550Y6408800D01*
X3358400Y6351650D01*
X3210980Y6351650D01*
X3242491Y6364702D01*
X3306797Y6429008D01*
X3341600Y6513028D01*
X3341600Y6578650D01*
X3284450Y6635800D01*
X2950700Y6635800D01*
X2925300Y6635800D01*
X2905300Y6635800D01*
X2905300Y6661200D01*
X2925300Y6661200D01*
X2925300Y6681200D01*
X2950700Y6681200D01*
X2950700Y6661200D01*
X3284450Y6661200D01*
X3341600Y6718350D01*
X3341600Y6783972D01*
X3314736Y6848825D01*
X3327715Y6867820D01*
X3346078Y6958500D01*
X3346078Y7067500D01*
X3364083Y7067500D01*
X3369862Y7036786D01*
X3419928Y6958982D01*
X3473916Y6922093D01*
X3457508Y6915297D01*
X3393202Y6850991D01*
X3358400Y6766971D01*
X3358400Y6491350D01*
X3415550Y6434200D01*
X3924300Y6434200D01*
X3924300Y6454200D01*
X3949700Y6454200D01*
X3949700Y6434200D01*
X4458450Y6434200D01*
X4515600Y6491350D01*
X4515600Y6766971D01*
X4480798Y6850991D01*
X4416492Y6915297D01*
X4399588Y6922299D01*
X4449518Y6954428D01*
X4501715Y7030820D01*
X4520078Y7121500D01*
X4520078Y7721500D01*
X4504138Y7806214D01*
X4487595Y7831922D01*
X4597800Y7831922D01*
X4682514Y7847862D01*
X4760318Y7897928D01*
X4812515Y7974320D01*
X4830878Y8065000D01*
X4830878Y9665000D01*
X4814938Y9749714D01*
X4764872Y9827518D01*
X4688480Y9879715D01*
X4597800Y9898078D01*
X3197800Y9898078D01*
X3113086Y9882138D01*
X3035282Y9832072D01*
X2983085Y9755680D01*
X2964722Y9665000D01*
X2964722Y9246000D01*
X2362001Y9246000D01*
X2320313Y9346894D01*
X2235433Y9431922D01*
X2397800Y9431922D01*
X2482514Y9447862D01*
X2560318Y9497928D01*
X2612515Y9574320D01*
X2630878Y9665000D01*
X2630878Y10695150D01*
X3219200Y10695150D01*
X3219200Y10519528D01*
X3254003Y10435508D01*
X3318309Y10371202D01*
X3402329Y10336400D01*
X4052950Y10336400D01*
X4110100Y10393550D01*
X4110100Y10752300D01*
X3276350Y10752300D01*
X3219200Y10695150D01*
X2630878Y10695150D01*
X2630878Y11565000D01*
X2614938Y11649714D01*
X2564872Y11727518D01*
X2488480Y11779715D01*
X2397800Y11798078D01*
X1828800Y11798078D01*
X1828800Y12331922D01*
X2397800Y12331922D01*
X2482514Y12347862D01*
X2560318Y12397928D01*
X2612515Y12474320D01*
X2630878Y12565000D01*
X2630878Y12780464D01*
X2816972Y12703191D01*
X3024119Y12703010D01*
X3214722Y12781766D01*
X3214722Y12515000D01*
X3230662Y12430286D01*
X3256561Y12390038D01*
X3233085Y12355680D01*
X3214722Y12265000D01*
X3214722Y11865000D01*
X3230662Y11780286D01*
X3256561Y11740038D01*
X3233085Y11705680D01*
X3214722Y11615000D01*
X3214722Y11215000D01*
X3230662Y11130286D01*
X3253882Y11094201D01*
X3219200Y11010472D01*
X3219200Y10834850D01*
X3276350Y10777700D01*
X4110100Y10777700D01*
X4110100Y10797700D01*
X4135500Y10797700D01*
X4135500Y10777700D01*
X4155500Y10777700D01*
X4155500Y10752300D01*
X4135500Y10752300D01*
X4135500Y10393550D01*
X4192650Y10336400D01*
X4843271Y10336400D01*
X4927291Y10371202D01*
X4988422Y10432333D01*
X4988422Y7734500D01*
X5004362Y7649786D01*
X5054428Y7571982D01*
X5130820Y7519785D01*
X5221500Y7501422D01*
X6621500Y7501422D01*
X6706214Y7517362D01*
X6784018Y7567428D01*
X6836215Y7643820D01*
X6854578Y7734500D01*
X6854578Y10934500D01*
X6838638Y11019214D01*
X6788572Y11097018D01*
X6712180Y11149215D01*
X6621500Y11167578D01*
X5221500Y11167578D01*
X5136786Y11151638D01*
X5058982Y11101572D01*
X5015204Y11037501D01*
X4991800Y11094003D01*
X5012515Y11124320D01*
X5030878Y11215000D01*
X5030878Y11487599D01*
X5077928Y11414482D01*
X5154320Y11362285D01*
X5245000Y11343922D01*
X6495000Y11343922D01*
X6579714Y11359862D01*
X6657518Y11409928D01*
X6709715Y11486320D01*
X6728078Y11577000D01*
X6728078Y12177000D01*
X6712138Y12261714D01*
X6662072Y12339518D01*
X6644480Y12351538D01*
X6657518Y12359928D01*
X6709715Y12436320D01*
X6728078Y12527000D01*
X6728078Y13127000D01*
X6712138Y13211714D01*
X6662072Y13289518D01*
X6644480Y13301538D01*
X6657518Y13309928D01*
X6709715Y13386320D01*
X6728078Y13477000D01*
X6728078Y14077000D01*
X6719523Y14122471D01*
X8516400Y14122471D01*
X8516400Y13846850D01*
X8573550Y13789700D01*
X9357300Y13789700D01*
X9357300Y14248450D01*
X9382700Y14248450D01*
X9382700Y13789700D01*
X10166450Y13789700D01*
X10223600Y13846850D01*
X10223600Y14122471D01*
X10188798Y14206491D01*
X10124492Y14270797D01*
X10040472Y14305600D01*
X9439850Y14305600D01*
X9382700Y14248450D01*
X9357300Y14248450D01*
X9300150Y14305600D01*
X8699528Y14305600D01*
X8615508Y14270797D01*
X8551202Y14206491D01*
X8516400Y14122471D01*
X6719523Y14122471D01*
X6712138Y14161714D01*
X6662072Y14239518D01*
X6585680Y14291715D01*
X6495000Y14310078D01*
X5245000Y14310078D01*
X5160286Y14294138D01*
X5082482Y14244072D01*
X5030285Y14167680D01*
X5011922Y14077000D01*
X5011922Y14055315D01*
X4998592Y14046408D01*
X4750262Y13798078D01*
X3447800Y13798078D01*
X3363086Y13782138D01*
X3306927Y13746000D01*
X3062200Y13746000D01*
X3034477Y13740486D01*
X3025028Y13744409D01*
X2817881Y13744590D01*
X2630878Y13667322D01*
X2630878Y14465000D01*
X2614938Y14549714D01*
X2564872Y14627518D01*
X2488480Y14679715D01*
X2397800Y14698078D01*
X2235644Y14698078D01*
X2319296Y14781584D01*
X2361823Y14884000D01*
X2964722Y14884000D01*
X2964722Y14465000D01*
X2980662Y14380286D01*
X3030728Y14302482D01*
X3107120Y14250285D01*
X3197800Y14231922D01*
X4597800Y14231922D01*
X4682514Y14247862D01*
X4760318Y14297928D01*
X4812515Y14374320D01*
X4830878Y14465000D01*
X4830878Y16065000D01*
X4814938Y16149714D01*
X4764872Y16227518D01*
X4688480Y16279715D01*
X4597800Y16298078D01*
X3197800Y16298078D01*
X3113086Y16282138D01*
X3035282Y16232072D01*
X2983085Y16155680D01*
X2964722Y16065000D01*
X2964722Y15646000D01*
X2444640Y15646000D01*
X2320313Y15946894D01*
X2031216Y16236496D01*
X1989557Y16253795D01*
X2063000Y16238922D01*
X2763000Y16238922D01*
X2847714Y16254862D01*
X2925518Y16304928D01*
X2977715Y16381320D01*
X2989628Y16440150D01*
X5107940Y16440150D01*
X5107940Y15664428D01*
X5142743Y15580408D01*
X5207049Y15516102D01*
X5291069Y15481300D01*
X6366510Y15481300D01*
X6423660Y15538450D01*
X6423660Y16497300D01*
X6449060Y16497300D01*
X6449060Y15538450D01*
X6506210Y15481300D01*
X7581651Y15481300D01*
X7665671Y15516102D01*
X7729977Y15580408D01*
X7764780Y15664428D01*
X7764780Y16440150D01*
X7707630Y16497300D01*
X6449060Y16497300D01*
X6423660Y16497300D01*
X5165090Y16497300D01*
X5107940Y16440150D01*
X2989628Y16440150D01*
X2996078Y16472000D01*
X2996078Y17072000D01*
X2980138Y17156714D01*
X2930072Y17234518D01*
X2876084Y17271407D01*
X2892492Y17278203D01*
X2956798Y17342509D01*
X2962208Y17355572D01*
X5107940Y17355572D01*
X5107940Y16579850D01*
X5165090Y16522700D01*
X6423660Y16522700D01*
X6423660Y17481550D01*
X6449060Y17481550D01*
X6449060Y16522700D01*
X7707630Y16522700D01*
X7764780Y16579850D01*
X7764780Y17310100D01*
X8105742Y17310100D01*
X8105742Y15709900D01*
X8121682Y15625186D01*
X8171748Y15547382D01*
X8248140Y15495185D01*
X8338820Y15476822D01*
X10538460Y15476822D01*
X10587237Y15486000D01*
X10798663Y15486000D01*
X10799362Y15482286D01*
X10849428Y15404482D01*
X10904706Y15366712D01*
X10853982Y15334072D01*
X10801785Y15257680D01*
X10783422Y15167000D01*
X10783422Y14567000D01*
X10799362Y14482286D01*
X10849428Y14404482D01*
X10925820Y14352285D01*
X11016500Y14333922D01*
X11716500Y14333922D01*
X11801214Y14349862D01*
X11879018Y14399928D01*
X11931215Y14476320D01*
X11949578Y14567000D01*
X11949578Y15167000D01*
X11933638Y15251714D01*
X11883572Y15329518D01*
X11828294Y15367288D01*
X11879018Y15399928D01*
X11931215Y15476320D01*
X11949578Y15567000D01*
X11949578Y16167000D01*
X11933638Y16251714D01*
X11883572Y16329518D01*
X11807180Y16381715D01*
X11716500Y16400078D01*
X11016500Y16400078D01*
X10931786Y16384138D01*
X10853982Y16334072D01*
X10801785Y16257680D01*
X10799825Y16248000D01*
X10771538Y16248000D01*
X10771538Y17310100D01*
X10755598Y17394814D01*
X10705532Y17472618D01*
X10629140Y17524815D01*
X10538460Y17543178D01*
X8338820Y17543178D01*
X8254106Y17527238D01*
X8176302Y17477172D01*
X8124105Y17400780D01*
X8105742Y17310100D01*
X7764780Y17310100D01*
X7764780Y17355572D01*
X7729977Y17439592D01*
X7665671Y17503898D01*
X7581651Y17538700D01*
X6506210Y17538700D01*
X6449060Y17481550D01*
X6423660Y17481550D01*
X6366510Y17538700D01*
X5291069Y17538700D01*
X5207049Y17503898D01*
X5142743Y17439592D01*
X5107940Y17355572D01*
X2962208Y17355572D01*
X2991600Y17426529D01*
X2991600Y17702150D01*
X2934450Y17759300D01*
X2425700Y17759300D01*
X2425700Y17739300D01*
X2400300Y17739300D01*
X2400300Y17759300D01*
X1891550Y17759300D01*
X1834400Y17702150D01*
X1834400Y17426529D01*
X1869202Y17342509D01*
X1933508Y17278203D01*
X1950412Y17271201D01*
X1900482Y17239072D01*
X1848285Y17162680D01*
X1846325Y17153000D01*
X1710837Y17153000D01*
X1710138Y17156714D01*
X1660072Y17234518D01*
X1606084Y17271407D01*
X1622492Y17278203D01*
X1686798Y17342509D01*
X1721600Y17426529D01*
X1721600Y17702150D01*
X1664450Y17759300D01*
X1155700Y17759300D01*
X1155700Y17739300D01*
X1130300Y17739300D01*
X1130300Y17759300D01*
X621550Y17759300D01*
X564400Y17702150D01*
X564400Y17426529D01*
X599202Y17342509D01*
X663508Y17278203D01*
X680412Y17271201D01*
X630482Y17239072D01*
X578285Y17162680D01*
X559922Y17072000D01*
X559922Y16472000D01*
X575862Y16387286D01*
X625928Y16309482D01*
X702320Y16257285D01*
X793000Y16238922D01*
X869316Y16238922D01*
X865906Y16237513D01*
X576304Y15948416D01*
X419379Y15570499D01*
X419022Y15161297D01*
X575287Y14783106D01*
X660167Y14698078D01*
X497800Y14698078D01*
X413086Y14682138D01*
X335282Y14632072D01*
X330200Y14624634D01*
X330200Y18117471D01*
X564400Y18117471D01*
X564400Y17841850D01*
X621550Y17784700D01*
X1130300Y17784700D01*
X1130300Y18243450D01*
X1155700Y18243450D01*
X1155700Y17784700D01*
X1664450Y17784700D01*
X1721600Y17841850D01*
X1721600Y18117471D01*
X1834400Y18117471D01*
X1834400Y17841850D01*
X1891550Y17784700D01*
X2400300Y17784700D01*
X2400300Y18243450D01*
X2425700Y18243450D01*
X2425700Y17784700D01*
X2934450Y17784700D01*
X2991600Y17841850D01*
X2991600Y18117471D01*
X2956798Y18201491D01*
X2892492Y18265797D01*
X2808472Y18300600D01*
X2482850Y18300600D01*
X2425700Y18243450D01*
X2400300Y18243450D01*
X2343150Y18300600D01*
X2017528Y18300600D01*
X1933508Y18265797D01*
X1869202Y18201491D01*
X1834400Y18117471D01*
X1721600Y18117471D01*
X1686798Y18201491D01*
X1622492Y18265797D01*
X1538472Y18300600D01*
X1212850Y18300600D01*
X1155700Y18243450D01*
X1130300Y18243450D01*
X1073150Y18300600D01*
X747528Y18300600D01*
X663508Y18265797D01*
X599202Y18201491D01*
X564400Y18117471D01*
X330200Y18117471D01*
X330200Y23799800D01*
X427322Y23799800D01*
X427322Y21209000D01*
X427322Y21209000D01*
G37*
X427322Y21209000D02*
X443262Y21124286D01*
X493328Y21046482D01*
X569720Y20994285D01*
X660400Y20975922D01*
X2189626Y20975922D01*
X2400684Y20764864D01*
X2499568Y20698792D01*
X2560668Y20686638D01*
X2551749Y20682953D01*
X2178358Y20310213D01*
X1976031Y19822955D01*
X1975570Y19295360D01*
X2177047Y18807749D01*
X2549787Y18434358D01*
X3037045Y18232031D01*
X3564640Y18231570D01*
X4052251Y18433047D01*
X4425642Y18805787D01*
X4627969Y19293045D01*
X4628430Y19820640D01*
X4485929Y20165519D01*
X4496204Y20155244D01*
X4595088Y20089172D01*
X4711730Y20065970D01*
X9378578Y20065970D01*
X16592148Y12852400D01*
X14255564Y12852400D01*
X13109482Y13998482D01*
X13085246Y14014797D01*
X13055600Y14020800D01*
X11379200Y14020800D01*
X11357622Y14017681D01*
X11330889Y14003528D01*
X11311769Y13980090D01*
X11079195Y13538200D01*
X10223600Y13538200D01*
X10223600Y13707150D01*
X10166450Y13764300D01*
X9382700Y13764300D01*
X9382700Y13744300D01*
X9357300Y13744300D01*
X9357300Y13764300D01*
X8573550Y13764300D01*
X8516400Y13707150D01*
X8516400Y13431529D01*
X8551202Y13347509D01*
X8595964Y13302747D01*
X8582482Y13294072D01*
X8530285Y13217680D01*
X8511922Y13127000D01*
X8511922Y12527000D01*
X8527862Y12442286D01*
X8577928Y12364482D01*
X8595520Y12352462D01*
X8582482Y12344072D01*
X8530285Y12267680D01*
X8511922Y12177000D01*
X8511922Y11577000D01*
X8527862Y11492286D01*
X8577928Y11414482D01*
X8654320Y11362285D01*
X8745000Y11343922D01*
X9995000Y11343922D01*
X10020300Y11348683D01*
X10020300Y11239500D01*
X10025511Y11211805D01*
X10025669Y11211560D01*
X9949428Y11211560D01*
X9865408Y11176757D01*
X9801102Y11112451D01*
X9766300Y11028431D01*
X9766300Y9952990D01*
X9823450Y9895840D01*
X10782300Y9895840D01*
X10782300Y9915840D01*
X10807700Y9915840D01*
X10807700Y9895840D01*
X11766550Y9895840D01*
X11823700Y9952990D01*
X11823700Y10668000D01*
X12770036Y10668000D01*
X13916118Y9521918D01*
X13940354Y9505603D01*
X13970000Y9499600D01*
X18124548Y9499600D01*
X15140058Y6515110D01*
X13296910Y6515110D01*
X13180268Y6491908D01*
X13116198Y6449098D01*
X13081384Y6425836D01*
X9809626Y3154078D01*
X8280400Y3154078D01*
X8230013Y3144597D01*
X10633378Y5547962D01*
X11595100Y5547962D01*
X11679814Y5563902D01*
X11757618Y5613968D01*
X11809815Y5690360D01*
X11828178Y5781040D01*
X11828178Y7980680D01*
X11812238Y8065394D01*
X11762172Y8143198D01*
X11685780Y8195395D01*
X11595100Y8213758D01*
X9994900Y8213758D01*
X9910186Y8197818D01*
X9832382Y8147752D01*
X9780185Y8071360D01*
X9761822Y7980680D01*
X9761822Y7261860D01*
X8832956Y7261860D01*
X8593394Y7501422D01*
X8621500Y7501422D01*
X8706214Y7517362D01*
X8784018Y7567428D01*
X8836215Y7643820D01*
X8854578Y7734500D01*
X8854578Y9813290D01*
X9766300Y9813290D01*
X9766300Y8737849D01*
X9801102Y8653829D01*
X9865408Y8589523D01*
X9949428Y8554720D01*
X10725150Y8554720D01*
X10782300Y8611870D01*
X10782300Y9870440D01*
X10807700Y9870440D01*
X10807700Y8611870D01*
X10864850Y8554720D01*
X11640572Y8554720D01*
X11724592Y8589523D01*
X11788898Y8653829D01*
X11823700Y8737849D01*
X11823700Y9813290D01*
X11766550Y9870440D01*
X10807700Y9870440D01*
X10782300Y9870440D01*
X9823450Y9870440D01*
X9766300Y9813290D01*
X8854578Y9813290D01*
X8854578Y10934500D01*
X8838638Y11019214D01*
X8788572Y11097018D01*
X8712180Y11149215D01*
X8621500Y11167578D01*
X7221500Y11167578D01*
X7136786Y11151638D01*
X7058982Y11101572D01*
X7006785Y11025180D01*
X6988422Y10934500D01*
X6988422Y7734500D01*
X7004362Y7649786D01*
X7054428Y7571982D01*
X7130820Y7519785D01*
X7221500Y7501422D01*
X7566971Y7501422D01*
X7569502Y7488697D01*
X7652092Y7365092D01*
X8405732Y6611452D01*
X8529337Y6528862D01*
X8675140Y6499859D01*
X8675145Y6499860D01*
X9761822Y6499860D01*
X9761822Y5781040D01*
X9766098Y5758314D01*
X7161862Y3154078D01*
X5740400Y3154078D01*
X5655686Y3138138D01*
X5577882Y3088072D01*
X5525685Y3011680D01*
X5507322Y2921000D01*
X5507322Y330200D01*
X5160678Y330200D01*
X5160678Y2921000D01*
X5144738Y3005714D01*
X5094672Y3083518D01*
X5018280Y3135715D01*
X4927600Y3154078D01*
X3957939Y3154078D01*
X4052251Y3193047D01*
X4425642Y3565787D01*
X4627969Y4053045D01*
X4628430Y4580640D01*
X4426953Y5068251D01*
X4054213Y5441642D01*
X3566955Y5643969D01*
X3039360Y5644430D01*
X2551749Y5442953D01*
X2178358Y5070213D01*
X1976031Y4582955D01*
X1975570Y4055360D01*
X2177047Y3567749D01*
X2549787Y3194358D01*
X2986578Y3012987D01*
X2985685Y3011680D01*
X2967322Y2921000D01*
X2967322Y330200D01*
X2616200Y330200D01*
X2616200Y1835150D01*
X2559050Y1892300D01*
X1536700Y1892300D01*
X1536700Y330200D01*
X1511300Y330200D01*
X1511300Y1892300D01*
X488950Y1892300D01*
X431800Y1835150D01*
X431800Y330200D01*
X330200Y330200D01*
X330200Y2966471D01*
X431800Y2966471D01*
X431800Y1974850D01*
X488950Y1917700D01*
X1511300Y1917700D01*
X1511300Y3092450D01*
X1536700Y3092450D01*
X1536700Y1917700D01*
X2559050Y1917700D01*
X2616200Y1974850D01*
X2616200Y2966471D01*
X2581398Y3050491D01*
X2517092Y3114797D01*
X2433072Y3149600D01*
X1593850Y3149600D01*
X1536700Y3092450D01*
X1511300Y3092450D01*
X1454150Y3149600D01*
X614928Y3149600D01*
X530908Y3114797D01*
X466602Y3050491D01*
X431800Y2966471D01*
X330200Y2966471D01*
X330200Y6028227D01*
X345202Y5992009D01*
X409508Y5927703D01*
X493528Y5892900D01*
X819150Y5892900D01*
X876300Y5950050D01*
X876300Y6408800D01*
X901700Y6408800D01*
X901700Y5950050D01*
X958850Y5892900D01*
X1284472Y5892900D01*
X1368492Y5927703D01*
X1432798Y5992009D01*
X1467600Y6076029D01*
X1467600Y6351650D01*
X1410450Y6408800D01*
X901700Y6408800D01*
X876300Y6408800D01*
X856300Y6408800D01*
X856300Y6434200D01*
X876300Y6434200D01*
X876300Y6454200D01*
X901700Y6454200D01*
X901700Y6434200D01*
X1410450Y6434200D01*
X1467600Y6491350D01*
X1467600Y6766971D01*
X1432798Y6850991D01*
X1368492Y6915297D01*
X1351588Y6922299D01*
X1401518Y6954428D01*
X1453715Y7030820D01*
X1461143Y7067500D01*
X1479922Y7067500D01*
X1479922Y6958500D01*
X1495862Y6873786D01*
X1511819Y6848988D01*
X1498285Y6829180D01*
X1479922Y6738500D01*
X1479922Y6558500D01*
X1495862Y6473786D01*
X1545928Y6395982D01*
X1622320Y6343785D01*
X1713000Y6325422D01*
X2034400Y6325422D01*
X2034400Y6253028D01*
X2069203Y6169008D01*
X2133509Y6104702D01*
X2217529Y6069900D01*
X2343150Y6069900D01*
X2400300Y6127050D01*
X2400300Y7035800D01*
X2380300Y7035800D01*
X2380300Y7061200D01*
X2400300Y7061200D01*
X2400300Y7969950D01*
X2343150Y8027100D01*
X2217529Y8027100D01*
X2133509Y7992298D01*
X2069203Y7927992D01*
X2034400Y7843972D01*
X2034400Y7800098D01*
X2033802Y7800498D01*
X1888000Y7829500D01*
X1877253Y7829500D01*
X2029694Y7892487D01*
X2319296Y8181584D01*
X2444870Y8484000D01*
X2964722Y8484000D01*
X2964722Y8065000D01*
X2980662Y7980286D01*
X3030728Y7902482D01*
X3107120Y7850285D01*
X3197800Y7831922D01*
X3385774Y7831922D01*
X3384119Y7829500D01*
X2938000Y7829500D01*
X2792198Y7800498D01*
X2791600Y7800098D01*
X2791600Y7843972D01*
X2756797Y7927992D01*
X2692491Y7992298D01*
X2608471Y8027100D01*
X2482850Y8027100D01*
X2425700Y7969950D01*
X2425700Y7061200D01*
X2445700Y7061200D01*
X2445700Y7035800D01*
X2425700Y7035800D01*
X2425700Y6127050D01*
X2482850Y6069900D01*
X2608471Y6069900D01*
X2692491Y6104702D01*
X2756797Y6169008D01*
X2791600Y6253028D01*
X2791600Y6329900D01*
X2868150Y6329900D01*
X2925300Y6387050D01*
X2925300Y6635800D01*
X2950700Y6635800D01*
X2950700Y6387050D01*
X3007850Y6329900D01*
X3158471Y6329900D01*
X3210980Y6351650D01*
X3358400Y6351650D01*
X3358400Y6076029D01*
X3393202Y5992009D01*
X3457508Y5927703D01*
X3541528Y5892900D01*
X3867150Y5892900D01*
X3924300Y5950050D01*
X3924300Y6408800D01*
X3949700Y6408800D01*
X3949700Y5950050D01*
X4006850Y5892900D01*
X4332472Y5892900D01*
X4416492Y5927703D01*
X4480798Y5992009D01*
X4515600Y6076029D01*
X4515600Y6351650D01*
X4458450Y6408800D01*
X3949700Y6408800D01*
X3924300Y6408800D01*
X3415550Y6408800D01*
X3358400Y6351650D01*
X3210980Y6351650D01*
X3242491Y6364702D01*
X3306797Y6429008D01*
X3341600Y6513028D01*
X3341600Y6578650D01*
X3284450Y6635800D01*
X2950700Y6635800D01*
X2925300Y6635800D01*
X2905300Y6635800D01*
X2905300Y6661200D01*
X2925300Y6661200D01*
X2925300Y6681200D01*
X2950700Y6681200D01*
X2950700Y6661200D01*
X3284450Y6661200D01*
X3341600Y6718350D01*
X3341600Y6783972D01*
X3314736Y6848825D01*
X3327715Y6867820D01*
X3346078Y6958500D01*
X3346078Y7067500D01*
X3364083Y7067500D01*
X3369862Y7036786D01*
X3419928Y6958982D01*
X3473916Y6922093D01*
X3457508Y6915297D01*
X3393202Y6850991D01*
X3358400Y6766971D01*
X3358400Y6491350D01*
X3415550Y6434200D01*
X3924300Y6434200D01*
X3924300Y6454200D01*
X3949700Y6454200D01*
X3949700Y6434200D01*
X4458450Y6434200D01*
X4515600Y6491350D01*
X4515600Y6766971D01*
X4480798Y6850991D01*
X4416492Y6915297D01*
X4399588Y6922299D01*
X4449518Y6954428D01*
X4501715Y7030820D01*
X4520078Y7121500D01*
X4520078Y7721500D01*
X4504138Y7806214D01*
X4487595Y7831922D01*
X4597800Y7831922D01*
X4682514Y7847862D01*
X4760318Y7897928D01*
X4812515Y7974320D01*
X4830878Y8065000D01*
X4830878Y9665000D01*
X4814938Y9749714D01*
X4764872Y9827518D01*
X4688480Y9879715D01*
X4597800Y9898078D01*
X3197800Y9898078D01*
X3113086Y9882138D01*
X3035282Y9832072D01*
X2983085Y9755680D01*
X2964722Y9665000D01*
X2964722Y9246000D01*
X2362001Y9246000D01*
X2320313Y9346894D01*
X2235433Y9431922D01*
X2397800Y9431922D01*
X2482514Y9447862D01*
X2560318Y9497928D01*
X2612515Y9574320D01*
X2630878Y9665000D01*
X2630878Y10695150D01*
X3219200Y10695150D01*
X3219200Y10519528D01*
X3254003Y10435508D01*
X3318309Y10371202D01*
X3402329Y10336400D01*
X4052950Y10336400D01*
X4110100Y10393550D01*
X4110100Y10752300D01*
X3276350Y10752300D01*
X3219200Y10695150D01*
X2630878Y10695150D01*
X2630878Y11565000D01*
X2614938Y11649714D01*
X2564872Y11727518D01*
X2488480Y11779715D01*
X2397800Y11798078D01*
X1828800Y11798078D01*
X1828800Y12331922D01*
X2397800Y12331922D01*
X2482514Y12347862D01*
X2560318Y12397928D01*
X2612515Y12474320D01*
X2630878Y12565000D01*
X2630878Y12780464D01*
X2816972Y12703191D01*
X3024119Y12703010D01*
X3214722Y12781766D01*
X3214722Y12515000D01*
X3230662Y12430286D01*
X3256561Y12390038D01*
X3233085Y12355680D01*
X3214722Y12265000D01*
X3214722Y11865000D01*
X3230662Y11780286D01*
X3256561Y11740038D01*
X3233085Y11705680D01*
X3214722Y11615000D01*
X3214722Y11215000D01*
X3230662Y11130286D01*
X3253882Y11094201D01*
X3219200Y11010472D01*
X3219200Y10834850D01*
X3276350Y10777700D01*
X4110100Y10777700D01*
X4110100Y10797700D01*
X4135500Y10797700D01*
X4135500Y10777700D01*
X4155500Y10777700D01*
X4155500Y10752300D01*
X4135500Y10752300D01*
X4135500Y10393550D01*
X4192650Y10336400D01*
X4843271Y10336400D01*
X4927291Y10371202D01*
X4988422Y10432333D01*
X4988422Y7734500D01*
X5004362Y7649786D01*
X5054428Y7571982D01*
X5130820Y7519785D01*
X5221500Y7501422D01*
X6621500Y7501422D01*
X6706214Y7517362D01*
X6784018Y7567428D01*
X6836215Y7643820D01*
X6854578Y7734500D01*
X6854578Y10934500D01*
X6838638Y11019214D01*
X6788572Y11097018D01*
X6712180Y11149215D01*
X6621500Y11167578D01*
X5221500Y11167578D01*
X5136786Y11151638D01*
X5058982Y11101572D01*
X5015204Y11037501D01*
X4991800Y11094003D01*
X5012515Y11124320D01*
X5030878Y11215000D01*
X5030878Y11487599D01*
X5077928Y11414482D01*
X5154320Y11362285D01*
X5245000Y11343922D01*
X6495000Y11343922D01*
X6579714Y11359862D01*
X6657518Y11409928D01*
X6709715Y11486320D01*
X6728078Y11577000D01*
X6728078Y12177000D01*
X6712138Y12261714D01*
X6662072Y12339518D01*
X6644480Y12351538D01*
X6657518Y12359928D01*
X6709715Y12436320D01*
X6728078Y12527000D01*
X6728078Y13127000D01*
X6712138Y13211714D01*
X6662072Y13289518D01*
X6644480Y13301538D01*
X6657518Y13309928D01*
X6709715Y13386320D01*
X6728078Y13477000D01*
X6728078Y14077000D01*
X6719523Y14122471D01*
X8516400Y14122471D01*
X8516400Y13846850D01*
X8573550Y13789700D01*
X9357300Y13789700D01*
X9357300Y14248450D01*
X9382700Y14248450D01*
X9382700Y13789700D01*
X10166450Y13789700D01*
X10223600Y13846850D01*
X10223600Y14122471D01*
X10188798Y14206491D01*
X10124492Y14270797D01*
X10040472Y14305600D01*
X9439850Y14305600D01*
X9382700Y14248450D01*
X9357300Y14248450D01*
X9300150Y14305600D01*
X8699528Y14305600D01*
X8615508Y14270797D01*
X8551202Y14206491D01*
X8516400Y14122471D01*
X6719523Y14122471D01*
X6712138Y14161714D01*
X6662072Y14239518D01*
X6585680Y14291715D01*
X6495000Y14310078D01*
X5245000Y14310078D01*
X5160286Y14294138D01*
X5082482Y14244072D01*
X5030285Y14167680D01*
X5011922Y14077000D01*
X5011922Y14055315D01*
X4998592Y14046408D01*
X4750262Y13798078D01*
X3447800Y13798078D01*
X3363086Y13782138D01*
X3306927Y13746000D01*
X3062200Y13746000D01*
X3034477Y13740486D01*
X3025028Y13744409D01*
X2817881Y13744590D01*
X2630878Y13667322D01*
X2630878Y14465000D01*
X2614938Y14549714D01*
X2564872Y14627518D01*
X2488480Y14679715D01*
X2397800Y14698078D01*
X2235644Y14698078D01*
X2319296Y14781584D01*
X2361823Y14884000D01*
X2964722Y14884000D01*
X2964722Y14465000D01*
X2980662Y14380286D01*
X3030728Y14302482D01*
X3107120Y14250285D01*
X3197800Y14231922D01*
X4597800Y14231922D01*
X4682514Y14247862D01*
X4760318Y14297928D01*
X4812515Y14374320D01*
X4830878Y14465000D01*
X4830878Y16065000D01*
X4814938Y16149714D01*
X4764872Y16227518D01*
X4688480Y16279715D01*
X4597800Y16298078D01*
X3197800Y16298078D01*
X3113086Y16282138D01*
X3035282Y16232072D01*
X2983085Y16155680D01*
X2964722Y16065000D01*
X2964722Y15646000D01*
X2444640Y15646000D01*
X2320313Y15946894D01*
X2031216Y16236496D01*
X1989557Y16253795D01*
X2063000Y16238922D01*
X2763000Y16238922D01*
X2847714Y16254862D01*
X2925518Y16304928D01*
X2977715Y16381320D01*
X2989628Y16440150D01*
X5107940Y16440150D01*
X5107940Y15664428D01*
X5142743Y15580408D01*
X5207049Y15516102D01*
X5291069Y15481300D01*
X6366510Y15481300D01*
X6423660Y15538450D01*
X6423660Y16497300D01*
X6449060Y16497300D01*
X6449060Y15538450D01*
X6506210Y15481300D01*
X7581651Y15481300D01*
X7665671Y15516102D01*
X7729977Y15580408D01*
X7764780Y15664428D01*
X7764780Y16440150D01*
X7707630Y16497300D01*
X6449060Y16497300D01*
X6423660Y16497300D01*
X5165090Y16497300D01*
X5107940Y16440150D01*
X2989628Y16440150D01*
X2996078Y16472000D01*
X2996078Y17072000D01*
X2980138Y17156714D01*
X2930072Y17234518D01*
X2876084Y17271407D01*
X2892492Y17278203D01*
X2956798Y17342509D01*
X2962208Y17355572D01*
X5107940Y17355572D01*
X5107940Y16579850D01*
X5165090Y16522700D01*
X6423660Y16522700D01*
X6423660Y17481550D01*
X6449060Y17481550D01*
X6449060Y16522700D01*
X7707630Y16522700D01*
X7764780Y16579850D01*
X7764780Y17310100D01*
X8105742Y17310100D01*
X8105742Y15709900D01*
X8121682Y15625186D01*
X8171748Y15547382D01*
X8248140Y15495185D01*
X8338820Y15476822D01*
X10538460Y15476822D01*
X10587237Y15486000D01*
X10798663Y15486000D01*
X10799362Y15482286D01*
X10849428Y15404482D01*
X10904706Y15366712D01*
X10853982Y15334072D01*
X10801785Y15257680D01*
X10783422Y15167000D01*
X10783422Y14567000D01*
X10799362Y14482286D01*
X10849428Y14404482D01*
X10925820Y14352285D01*
X11016500Y14333922D01*
X11716500Y14333922D01*
X11801214Y14349862D01*
X11879018Y14399928D01*
X11931215Y14476320D01*
X11949578Y14567000D01*
X11949578Y15167000D01*
X11933638Y15251714D01*
X11883572Y15329518D01*
X11828294Y15367288D01*
X11879018Y15399928D01*
X11931215Y15476320D01*
X11949578Y15567000D01*
X11949578Y16167000D01*
X11933638Y16251714D01*
X11883572Y16329518D01*
X11807180Y16381715D01*
X11716500Y16400078D01*
X11016500Y16400078D01*
X10931786Y16384138D01*
X10853982Y16334072D01*
X10801785Y16257680D01*
X10799825Y16248000D01*
X10771538Y16248000D01*
X10771538Y17310100D01*
X10755598Y17394814D01*
X10705532Y17472618D01*
X10629140Y17524815D01*
X10538460Y17543178D01*
X8338820Y17543178D01*
X8254106Y17527238D01*
X8176302Y17477172D01*
X8124105Y17400780D01*
X8105742Y17310100D01*
X7764780Y17310100D01*
X7764780Y17355572D01*
X7729977Y17439592D01*
X7665671Y17503898D01*
X7581651Y17538700D01*
X6506210Y17538700D01*
X6449060Y17481550D01*
X6423660Y17481550D01*
X6366510Y17538700D01*
X5291069Y17538700D01*
X5207049Y17503898D01*
X5142743Y17439592D01*
X5107940Y17355572D01*
X2962208Y17355572D01*
X2991600Y17426529D01*
X2991600Y17702150D01*
X2934450Y17759300D01*
X2425700Y17759300D01*
X2425700Y17739300D01*
X2400300Y17739300D01*
X2400300Y17759300D01*
X1891550Y17759300D01*
X1834400Y17702150D01*
X1834400Y17426529D01*
X1869202Y17342509D01*
X1933508Y17278203D01*
X1950412Y17271201D01*
X1900482Y17239072D01*
X1848285Y17162680D01*
X1846325Y17153000D01*
X1710837Y17153000D01*
X1710138Y17156714D01*
X1660072Y17234518D01*
X1606084Y17271407D01*
X1622492Y17278203D01*
X1686798Y17342509D01*
X1721600Y17426529D01*
X1721600Y17702150D01*
X1664450Y17759300D01*
X1155700Y17759300D01*
X1155700Y17739300D01*
X1130300Y17739300D01*
X1130300Y17759300D01*
X621550Y17759300D01*
X564400Y17702150D01*
X564400Y17426529D01*
X599202Y17342509D01*
X663508Y17278203D01*
X680412Y17271201D01*
X630482Y17239072D01*
X578285Y17162680D01*
X559922Y17072000D01*
X559922Y16472000D01*
X575862Y16387286D01*
X625928Y16309482D01*
X702320Y16257285D01*
X793000Y16238922D01*
X869316Y16238922D01*
X865906Y16237513D01*
X576304Y15948416D01*
X419379Y15570499D01*
X419022Y15161297D01*
X575287Y14783106D01*
X660167Y14698078D01*
X497800Y14698078D01*
X413086Y14682138D01*
X335282Y14632072D01*
X330200Y14624634D01*
X330200Y18117471D01*
X564400Y18117471D01*
X564400Y17841850D01*
X621550Y17784700D01*
X1130300Y17784700D01*
X1130300Y18243450D01*
X1155700Y18243450D01*
X1155700Y17784700D01*
X1664450Y17784700D01*
X1721600Y17841850D01*
X1721600Y18117471D01*
X1834400Y18117471D01*
X1834400Y17841850D01*
X1891550Y17784700D01*
X2400300Y17784700D01*
X2400300Y18243450D01*
X2425700Y18243450D01*
X2425700Y17784700D01*
X2934450Y17784700D01*
X2991600Y17841850D01*
X2991600Y18117471D01*
X2956798Y18201491D01*
X2892492Y18265797D01*
X2808472Y18300600D01*
X2482850Y18300600D01*
X2425700Y18243450D01*
X2400300Y18243450D01*
X2343150Y18300600D01*
X2017528Y18300600D01*
X1933508Y18265797D01*
X1869202Y18201491D01*
X1834400Y18117471D01*
X1721600Y18117471D01*
X1686798Y18201491D01*
X1622492Y18265797D01*
X1538472Y18300600D01*
X1212850Y18300600D01*
X1155700Y18243450D01*
X1130300Y18243450D01*
X1073150Y18300600D01*
X747528Y18300600D01*
X663508Y18265797D01*
X599202Y18201491D01*
X564400Y18117471D01*
X330200Y18117471D01*
X330200Y23799800D01*
X427322Y23799800D01*
X427322Y21209000D01*
G36*
X13127422Y4730000D02*
X13143362Y4645286D01*
X13193428Y4567482D01*
X13269820Y4515285D01*
X13355700Y4497894D01*
X13355700Y4416070D01*
X13283786Y4402538D01*
X13205982Y4352472D01*
X13153785Y4276080D01*
X13135422Y4185400D01*
X13135422Y3485400D01*
X13151362Y3400686D01*
X13201428Y3322882D01*
X13277820Y3270685D01*
X13368500Y3252322D01*
X13968500Y3252322D01*
X14053214Y3268262D01*
X14131018Y3318328D01*
X14167907Y3372316D01*
X14174703Y3355908D01*
X14239009Y3291602D01*
X14323029Y3256800D01*
X14598650Y3256800D01*
X14655800Y3313950D01*
X14655800Y3822700D01*
X14635800Y3822700D01*
X14635800Y3848100D01*
X14655800Y3848100D01*
X14655800Y4356850D01*
X14598650Y4414000D01*
X14323029Y4414000D01*
X14239009Y4379198D01*
X14174703Y4314892D01*
X14167701Y4297988D01*
X14135572Y4347918D01*
X14059180Y4400115D01*
X13968500Y4418478D01*
X13965300Y4418478D01*
X13965300Y4497825D01*
X14045214Y4512862D01*
X14123018Y4562928D01*
X14160788Y4618206D01*
X14193428Y4567482D01*
X14269820Y4515285D01*
X14360500Y4496922D01*
X14762526Y4496922D01*
X14845448Y4414000D01*
X14738350Y4414000D01*
X14681200Y4356850D01*
X14681200Y3848100D01*
X14701200Y3848100D01*
X14701200Y3822700D01*
X14681200Y3822700D01*
X14681200Y3313950D01*
X14738350Y3256800D01*
X14935200Y3256800D01*
X14935200Y3199652D01*
X14889626Y3154078D01*
X13360400Y3154078D01*
X13275686Y3138138D01*
X13197882Y3088072D01*
X13145685Y3011680D01*
X13127322Y2921000D01*
X13127322Y330200D01*
X12780678Y330200D01*
X12780678Y2921000D01*
X12764738Y3005714D01*
X12714672Y3083518D01*
X12638280Y3135715D01*
X12547600Y3154078D01*
X11988800Y3154078D01*
X11988800Y4038730D01*
X13127422Y5177352D01*
X13127422Y4730000D01*
X13127422Y4730000D01*
G37*
X13127422Y4730000D02*
X13143362Y4645286D01*
X13193428Y4567482D01*
X13269820Y4515285D01*
X13355700Y4497894D01*
X13355700Y4416070D01*
X13283786Y4402538D01*
X13205982Y4352472D01*
X13153785Y4276080D01*
X13135422Y4185400D01*
X13135422Y3485400D01*
X13151362Y3400686D01*
X13201428Y3322882D01*
X13277820Y3270685D01*
X13368500Y3252322D01*
X13968500Y3252322D01*
X14053214Y3268262D01*
X14131018Y3318328D01*
X14167907Y3372316D01*
X14174703Y3355908D01*
X14239009Y3291602D01*
X14323029Y3256800D01*
X14598650Y3256800D01*
X14655800Y3313950D01*
X14655800Y3822700D01*
X14635800Y3822700D01*
X14635800Y3848100D01*
X14655800Y3848100D01*
X14655800Y4356850D01*
X14598650Y4414000D01*
X14323029Y4414000D01*
X14239009Y4379198D01*
X14174703Y4314892D01*
X14167701Y4297988D01*
X14135572Y4347918D01*
X14059180Y4400115D01*
X13968500Y4418478D01*
X13965300Y4418478D01*
X13965300Y4497825D01*
X14045214Y4512862D01*
X14123018Y4562928D01*
X14160788Y4618206D01*
X14193428Y4567482D01*
X14269820Y4515285D01*
X14360500Y4496922D01*
X14762526Y4496922D01*
X14845448Y4414000D01*
X14738350Y4414000D01*
X14681200Y4356850D01*
X14681200Y3848100D01*
X14701200Y3848100D01*
X14701200Y3822700D01*
X14681200Y3822700D01*
X14681200Y3313950D01*
X14738350Y3256800D01*
X14935200Y3256800D01*
X14935200Y3199652D01*
X14889626Y3154078D01*
X13360400Y3154078D01*
X13275686Y3138138D01*
X13197882Y3088072D01*
X13145685Y3011680D01*
X13127322Y2921000D01*
X13127322Y330200D01*
X12780678Y330200D01*
X12780678Y2921000D01*
X12764738Y3005714D01*
X12714672Y3083518D01*
X12638280Y3135715D01*
X12547600Y3154078D01*
X11988800Y3154078D01*
X11988800Y4038730D01*
X13127422Y5177352D01*
X13127422Y4730000D01*
G36*
X30810801Y12814129D02*
X30810801Y8826599D01*
X30129637Y8145435D01*
X30063565Y8046551D01*
X30040363Y7929909D01*
X30040362Y4359480D01*
X29770302Y4089420D01*
X25094078Y4089420D01*
X25094078Y4626000D01*
X25080691Y4697150D01*
X26364400Y4697150D01*
X26364400Y4396528D01*
X26399203Y4312508D01*
X26463509Y4248202D01*
X26547529Y4213400D01*
X27048150Y4213400D01*
X27105300Y4270550D01*
X27105300Y4754300D01*
X27130700Y4754300D01*
X27130700Y4270550D01*
X27187850Y4213400D01*
X27688471Y4213400D01*
X27772491Y4248202D01*
X27836797Y4312508D01*
X27871600Y4396528D01*
X27871600Y4697150D01*
X27814450Y4754300D01*
X27130700Y4754300D01*
X27105300Y4754300D01*
X26421550Y4754300D01*
X26364400Y4697150D01*
X25080691Y4697150D01*
X25078138Y4710714D01*
X25028072Y4788518D01*
X24972794Y4826288D01*
X25023518Y4858928D01*
X25075715Y4935320D01*
X25094078Y5026000D01*
X25094078Y5137472D01*
X26364400Y5137472D01*
X26364400Y4836850D01*
X26421550Y4779700D01*
X27105300Y4779700D01*
X27105300Y5263450D01*
X27130700Y5263450D01*
X27130700Y4779700D01*
X27814450Y4779700D01*
X27871600Y4836850D01*
X27871600Y5137472D01*
X27836797Y5221492D01*
X27772491Y5285798D01*
X27688471Y5320600D01*
X27187850Y5320600D01*
X27130700Y5263450D01*
X27105300Y5263450D01*
X27048150Y5320600D01*
X26547529Y5320600D01*
X26463509Y5285798D01*
X26399203Y5221492D01*
X26364400Y5137472D01*
X25094078Y5137472D01*
X25094078Y5626000D01*
X25078138Y5710714D01*
X25055056Y5746584D01*
X25075715Y5776820D01*
X25093106Y5862700D01*
X25198825Y5862700D01*
X25213862Y5782786D01*
X25263928Y5704982D01*
X25340320Y5652785D01*
X25431000Y5634422D01*
X26131000Y5634422D01*
X26215714Y5650362D01*
X26293518Y5700428D01*
X26345715Y5776820D01*
X26364078Y5867500D01*
X26364078Y6467500D01*
X26348138Y6552214D01*
X26298072Y6630018D01*
X26242794Y6667788D01*
X26293518Y6700428D01*
X26345715Y6776820D01*
X26359922Y6846977D01*
X26359922Y6592000D01*
X26375862Y6507286D01*
X26425928Y6429482D01*
X26502320Y6377285D01*
X26593000Y6358922D01*
X27643000Y6358922D01*
X27727714Y6374862D01*
X27805518Y6424928D01*
X27857715Y6501320D01*
X27876078Y6592000D01*
X27876078Y7242000D01*
X27860138Y7326714D01*
X27810072Y7404518D01*
X27733680Y7456715D01*
X27643000Y7475078D01*
X26593000Y7475078D01*
X26578236Y7472300D01*
X26363175Y7472300D01*
X26348138Y7552214D01*
X26298072Y7630018D01*
X26221680Y7682215D01*
X26131000Y7700578D01*
X25431000Y7700578D01*
X25346286Y7684638D01*
X25268482Y7634572D01*
X25216285Y7558180D01*
X25197922Y7467500D01*
X25197922Y6867500D01*
X25213862Y6782786D01*
X25263928Y6704982D01*
X25319206Y6667212D01*
X25268482Y6634572D01*
X25216285Y6558180D01*
X25198894Y6472300D01*
X25093175Y6472300D01*
X25078138Y6552214D01*
X25028072Y6630018D01*
X24974084Y6666907D01*
X24990492Y6673703D01*
X25054798Y6738009D01*
X25089600Y6822029D01*
X25089600Y7097650D01*
X25032450Y7154800D01*
X24523700Y7154800D01*
X24523700Y7134800D01*
X24498300Y7134800D01*
X24498300Y7154800D01*
X23989550Y7154800D01*
X23932400Y7097650D01*
X23932400Y6822029D01*
X23967202Y6738009D01*
X24031508Y6673703D01*
X24048412Y6666701D01*
X23998482Y6634572D01*
X23946285Y6558180D01*
X23927922Y6467500D01*
X23927922Y5867500D01*
X23943862Y5782786D01*
X23966944Y5746916D01*
X23946285Y5716680D01*
X23927922Y5626000D01*
X23927922Y5026000D01*
X23943862Y4941286D01*
X23993928Y4863482D01*
X24049206Y4825712D01*
X23998482Y4793072D01*
X23946285Y4716680D01*
X23927922Y4626000D01*
X23927922Y4089420D01*
X23571220Y4089420D01*
X23454578Y4066218D01*
X23355694Y4000146D01*
X22509626Y3154078D01*
X20980400Y3154078D01*
X20895686Y3138138D01*
X20817882Y3088072D01*
X20765685Y3011680D01*
X20747322Y2921000D01*
X20747322Y330200D01*
X20400678Y330200D01*
X20400678Y2723026D01*
X23097426Y5419774D01*
X23112914Y5442953D01*
X23163498Y5518658D01*
X23186700Y5635300D01*
X23186700Y7512971D01*
X23932400Y7512971D01*
X23932400Y7237350D01*
X23989550Y7180200D01*
X24498300Y7180200D01*
X24498300Y7638950D01*
X24523700Y7638950D01*
X24523700Y7180200D01*
X25032450Y7180200D01*
X25089600Y7237350D01*
X25089600Y7512971D01*
X25054798Y7596991D01*
X24990492Y7661297D01*
X24906472Y7696100D01*
X24580850Y7696100D01*
X24523700Y7638950D01*
X24498300Y7638950D01*
X24441150Y7696100D01*
X24115528Y7696100D01*
X24031508Y7661297D01*
X23967202Y7596991D01*
X23932400Y7512971D01*
X23186700Y7512971D01*
X23186700Y9771100D01*
X23163498Y9887742D01*
X23097426Y9986626D01*
X22962578Y10121474D01*
X22962578Y10528300D01*
X24669936Y10528300D01*
X24942800Y10255436D01*
X24942800Y9080500D01*
X24948011Y9052805D01*
X24964379Y9027368D01*
X24989354Y9010303D01*
X25019000Y9004300D01*
X28829000Y9004300D01*
X28856695Y9009511D01*
X28882132Y9025879D01*
X28899197Y9050854D01*
X28905200Y9080500D01*
X28905200Y12899801D01*
X30725129Y12899801D01*
X30810801Y12814129D01*
X30810801Y12814129D01*
G37*
X30810801Y12814129D02*
X30810801Y8826599D01*
X30129637Y8145435D01*
X30063565Y8046551D01*
X30040363Y7929909D01*
X30040362Y4359480D01*
X29770302Y4089420D01*
X25094078Y4089420D01*
X25094078Y4626000D01*
X25080691Y4697150D01*
X26364400Y4697150D01*
X26364400Y4396528D01*
X26399203Y4312508D01*
X26463509Y4248202D01*
X26547529Y4213400D01*
X27048150Y4213400D01*
X27105300Y4270550D01*
X27105300Y4754300D01*
X27130700Y4754300D01*
X27130700Y4270550D01*
X27187850Y4213400D01*
X27688471Y4213400D01*
X27772491Y4248202D01*
X27836797Y4312508D01*
X27871600Y4396528D01*
X27871600Y4697150D01*
X27814450Y4754300D01*
X27130700Y4754300D01*
X27105300Y4754300D01*
X26421550Y4754300D01*
X26364400Y4697150D01*
X25080691Y4697150D01*
X25078138Y4710714D01*
X25028072Y4788518D01*
X24972794Y4826288D01*
X25023518Y4858928D01*
X25075715Y4935320D01*
X25094078Y5026000D01*
X25094078Y5137472D01*
X26364400Y5137472D01*
X26364400Y4836850D01*
X26421550Y4779700D01*
X27105300Y4779700D01*
X27105300Y5263450D01*
X27130700Y5263450D01*
X27130700Y4779700D01*
X27814450Y4779700D01*
X27871600Y4836850D01*
X27871600Y5137472D01*
X27836797Y5221492D01*
X27772491Y5285798D01*
X27688471Y5320600D01*
X27187850Y5320600D01*
X27130700Y5263450D01*
X27105300Y5263450D01*
X27048150Y5320600D01*
X26547529Y5320600D01*
X26463509Y5285798D01*
X26399203Y5221492D01*
X26364400Y5137472D01*
X25094078Y5137472D01*
X25094078Y5626000D01*
X25078138Y5710714D01*
X25055056Y5746584D01*
X25075715Y5776820D01*
X25093106Y5862700D01*
X25198825Y5862700D01*
X25213862Y5782786D01*
X25263928Y5704982D01*
X25340320Y5652785D01*
X25431000Y5634422D01*
X26131000Y5634422D01*
X26215714Y5650362D01*
X26293518Y5700428D01*
X26345715Y5776820D01*
X26364078Y5867500D01*
X26364078Y6467500D01*
X26348138Y6552214D01*
X26298072Y6630018D01*
X26242794Y6667788D01*
X26293518Y6700428D01*
X26345715Y6776820D01*
X26359922Y6846977D01*
X26359922Y6592000D01*
X26375862Y6507286D01*
X26425928Y6429482D01*
X26502320Y6377285D01*
X26593000Y6358922D01*
X27643000Y6358922D01*
X27727714Y6374862D01*
X27805518Y6424928D01*
X27857715Y6501320D01*
X27876078Y6592000D01*
X27876078Y7242000D01*
X27860138Y7326714D01*
X27810072Y7404518D01*
X27733680Y7456715D01*
X27643000Y7475078D01*
X26593000Y7475078D01*
X26578236Y7472300D01*
X26363175Y7472300D01*
X26348138Y7552214D01*
X26298072Y7630018D01*
X26221680Y7682215D01*
X26131000Y7700578D01*
X25431000Y7700578D01*
X25346286Y7684638D01*
X25268482Y7634572D01*
X25216285Y7558180D01*
X25197922Y7467500D01*
X25197922Y6867500D01*
X25213862Y6782786D01*
X25263928Y6704982D01*
X25319206Y6667212D01*
X25268482Y6634572D01*
X25216285Y6558180D01*
X25198894Y6472300D01*
X25093175Y6472300D01*
X25078138Y6552214D01*
X25028072Y6630018D01*
X24974084Y6666907D01*
X24990492Y6673703D01*
X25054798Y6738009D01*
X25089600Y6822029D01*
X25089600Y7097650D01*
X25032450Y7154800D01*
X24523700Y7154800D01*
X24523700Y7134800D01*
X24498300Y7134800D01*
X24498300Y7154800D01*
X23989550Y7154800D01*
X23932400Y7097650D01*
X23932400Y6822029D01*
X23967202Y6738009D01*
X24031508Y6673703D01*
X24048412Y6666701D01*
X23998482Y6634572D01*
X23946285Y6558180D01*
X23927922Y6467500D01*
X23927922Y5867500D01*
X23943862Y5782786D01*
X23966944Y5746916D01*
X23946285Y5716680D01*
X23927922Y5626000D01*
X23927922Y5026000D01*
X23943862Y4941286D01*
X23993928Y4863482D01*
X24049206Y4825712D01*
X23998482Y4793072D01*
X23946285Y4716680D01*
X23927922Y4626000D01*
X23927922Y4089420D01*
X23571220Y4089420D01*
X23454578Y4066218D01*
X23355694Y4000146D01*
X22509626Y3154078D01*
X20980400Y3154078D01*
X20895686Y3138138D01*
X20817882Y3088072D01*
X20765685Y3011680D01*
X20747322Y2921000D01*
X20747322Y330200D01*
X20400678Y330200D01*
X20400678Y2723026D01*
X23097426Y5419774D01*
X23112914Y5442953D01*
X23163498Y5518658D01*
X23186700Y5635300D01*
X23186700Y7512971D01*
X23932400Y7512971D01*
X23932400Y7237350D01*
X23989550Y7180200D01*
X24498300Y7180200D01*
X24498300Y7638950D01*
X24523700Y7638950D01*
X24523700Y7180200D01*
X25032450Y7180200D01*
X25089600Y7237350D01*
X25089600Y7512971D01*
X25054798Y7596991D01*
X24990492Y7661297D01*
X24906472Y7696100D01*
X24580850Y7696100D01*
X24523700Y7638950D01*
X24498300Y7638950D01*
X24441150Y7696100D01*
X24115528Y7696100D01*
X24031508Y7661297D01*
X23967202Y7596991D01*
X23932400Y7512971D01*
X23186700Y7512971D01*
X23186700Y9771100D01*
X23163498Y9887742D01*
X23097426Y9986626D01*
X22962578Y10121474D01*
X22962578Y10528300D01*
X24669936Y10528300D01*
X24942800Y10255436D01*
X24942800Y9080500D01*
X24948011Y9052805D01*
X24964379Y9027368D01*
X24989354Y9010303D01*
X25019000Y9004300D01*
X28829000Y9004300D01*
X28856695Y9009511D01*
X28882132Y9025879D01*
X28899197Y9050854D01*
X28905200Y9080500D01*
X28905200Y12899801D01*
X30725129Y12899801D01*
X30810801Y12814129D01*
G36*
X20617200Y10286200D02*
X20637200Y10286200D01*
X20637200Y10260800D01*
X20617200Y10260800D01*
X20617200Y9752050D01*
X20674350Y9694900D01*
X20723500Y9694900D01*
X20723500Y9214600D01*
X20524850Y9214600D01*
X20467700Y9157450D01*
X20467700Y8648700D01*
X20487700Y8648700D01*
X20487700Y8623300D01*
X20467700Y8623300D01*
X20467700Y8114550D01*
X20524850Y8057400D01*
X20800471Y8057400D01*
X20884491Y8092202D01*
X20948797Y8156508D01*
X20955799Y8173412D01*
X20987928Y8123482D01*
X21064320Y8071285D01*
X21155000Y8052922D01*
X21553106Y8052922D01*
X21449262Y7949078D01*
X21155000Y7949078D01*
X21070286Y7933138D01*
X20992482Y7883072D01*
X20955593Y7829084D01*
X20948797Y7845492D01*
X20884491Y7909798D01*
X20800471Y7944600D01*
X20524850Y7944600D01*
X20467700Y7887450D01*
X20467700Y7378700D01*
X20487700Y7378700D01*
X20487700Y7353300D01*
X20467700Y7353300D01*
X20467700Y7333300D01*
X20442300Y7333300D01*
X20442300Y7353300D01*
X20422300Y7353300D01*
X20422300Y7378700D01*
X20442300Y7378700D01*
X20442300Y7887450D01*
X20385150Y7944600D01*
X20109529Y7944600D01*
X20078700Y7931830D01*
X20078700Y8070170D01*
X20109529Y8057400D01*
X20385150Y8057400D01*
X20442300Y8114550D01*
X20442300Y8623300D01*
X20422300Y8623300D01*
X20422300Y8648700D01*
X20442300Y8648700D01*
X20442300Y9157450D01*
X20385150Y9214600D01*
X20371364Y9214600D01*
X20500882Y9344118D01*
X20517197Y9368354D01*
X20523200Y9398000D01*
X20523200Y9694900D01*
X20534650Y9694900D01*
X20591800Y9752050D01*
X20591800Y10260800D01*
X20571800Y10260800D01*
X20571800Y10286200D01*
X20591800Y10286200D01*
X20591800Y10306200D01*
X20617200Y10306200D01*
X20617200Y10286200D01*
X20617200Y10286200D01*
G37*
X20617200Y10286200D02*
X20637200Y10286200D01*
X20637200Y10260800D01*
X20617200Y10260800D01*
X20617200Y9752050D01*
X20674350Y9694900D01*
X20723500Y9694900D01*
X20723500Y9214600D01*
X20524850Y9214600D01*
X20467700Y9157450D01*
X20467700Y8648700D01*
X20487700Y8648700D01*
X20487700Y8623300D01*
X20467700Y8623300D01*
X20467700Y8114550D01*
X20524850Y8057400D01*
X20800471Y8057400D01*
X20884491Y8092202D01*
X20948797Y8156508D01*
X20955799Y8173412D01*
X20987928Y8123482D01*
X21064320Y8071285D01*
X21155000Y8052922D01*
X21553106Y8052922D01*
X21449262Y7949078D01*
X21155000Y7949078D01*
X21070286Y7933138D01*
X20992482Y7883072D01*
X20955593Y7829084D01*
X20948797Y7845492D01*
X20884491Y7909798D01*
X20800471Y7944600D01*
X20524850Y7944600D01*
X20467700Y7887450D01*
X20467700Y7378700D01*
X20487700Y7378700D01*
X20487700Y7353300D01*
X20467700Y7353300D01*
X20467700Y7333300D01*
X20442300Y7333300D01*
X20442300Y7353300D01*
X20422300Y7353300D01*
X20422300Y7378700D01*
X20442300Y7378700D01*
X20442300Y7887450D01*
X20385150Y7944600D01*
X20109529Y7944600D01*
X20078700Y7931830D01*
X20078700Y8070170D01*
X20109529Y8057400D01*
X20385150Y8057400D01*
X20442300Y8114550D01*
X20442300Y8623300D01*
X20422300Y8623300D01*
X20422300Y8648700D01*
X20442300Y8648700D01*
X20442300Y9157450D01*
X20385150Y9214600D01*
X20371364Y9214600D01*
X20500882Y9344118D01*
X20517197Y9368354D01*
X20523200Y9398000D01*
X20523200Y9694900D01*
X20534650Y9694900D01*
X20591800Y9752050D01*
X20591800Y10260800D01*
X20571800Y10260800D01*
X20571800Y10286200D01*
X20591800Y10286200D01*
X20591800Y10306200D01*
X20617200Y10306200D01*
X20617200Y10286200D01*
G36*
X27424900Y11698350D02*
X27482050Y11641200D01*
X27990800Y11641200D01*
X27990800Y11661200D01*
X28016200Y11661200D01*
X28016200Y11641200D01*
X28036200Y11641200D01*
X28036200Y11615800D01*
X28016200Y11615800D01*
X28016200Y10736200D01*
X28036200Y10736200D01*
X28036200Y10710800D01*
X28016200Y10710800D01*
X28016200Y10690800D01*
X27990800Y10690800D01*
X27990800Y10710800D01*
X27482050Y10710800D01*
X27424900Y10653650D01*
X27424900Y10609259D01*
X27406072Y10638518D01*
X27329680Y10690715D01*
X27239000Y10709078D01*
X25536974Y10709078D01*
X25107026Y11139026D01*
X25052932Y11175170D01*
X25102026Y11207974D01*
X25452702Y11558650D01*
X27424900Y11558650D01*
X27424900Y11283029D01*
X27459702Y11199009D01*
X27482711Y11176000D01*
X27459702Y11152991D01*
X27424900Y11068971D01*
X27424900Y10793350D01*
X27482050Y10736200D01*
X27990800Y10736200D01*
X27990800Y11615800D01*
X27482050Y11615800D01*
X27424900Y11558650D01*
X25452702Y11558650D01*
X25536974Y11642922D01*
X27239000Y11642922D01*
X27323714Y11658862D01*
X27401518Y11708928D01*
X27424900Y11743148D01*
X27424900Y11698350D01*
X27424900Y11698350D01*
G37*
X27424900Y11698350D02*
X27482050Y11641200D01*
X27990800Y11641200D01*
X27990800Y11661200D01*
X28016200Y11661200D01*
X28016200Y11641200D01*
X28036200Y11641200D01*
X28036200Y11615800D01*
X28016200Y11615800D01*
X28016200Y10736200D01*
X28036200Y10736200D01*
X28036200Y10710800D01*
X28016200Y10710800D01*
X28016200Y10690800D01*
X27990800Y10690800D01*
X27990800Y10710800D01*
X27482050Y10710800D01*
X27424900Y10653650D01*
X27424900Y10609259D01*
X27406072Y10638518D01*
X27329680Y10690715D01*
X27239000Y10709078D01*
X25536974Y10709078D01*
X25107026Y11139026D01*
X25052932Y11175170D01*
X25102026Y11207974D01*
X25452702Y11558650D01*
X27424900Y11558650D01*
X27424900Y11283029D01*
X27459702Y11199009D01*
X27482711Y11176000D01*
X27459702Y11152991D01*
X27424900Y11068971D01*
X27424900Y10793350D01*
X27482050Y10736200D01*
X27990800Y10736200D01*
X27990800Y11615800D01*
X27482050Y11615800D01*
X27424900Y11558650D01*
X25452702Y11558650D01*
X25536974Y11642922D01*
X27239000Y11642922D01*
X27323714Y11658862D01*
X27401518Y11708928D01*
X27424900Y11743148D01*
X27424900Y11698350D01*
G36*
X20004700Y13548700D02*
X21704300Y13548700D01*
X21704300Y13568700D01*
X21729700Y13568700D01*
X21729700Y13548700D01*
X21749700Y13548700D01*
X21749700Y13523300D01*
X21729700Y13523300D01*
X21729700Y11823700D01*
X21749700Y11823700D01*
X21749700Y11798300D01*
X21729700Y11798300D01*
X21729700Y11778300D01*
X21704300Y11778300D01*
X21704300Y11798300D01*
X20004700Y11798300D01*
X20004700Y11778300D01*
X19979300Y11778300D01*
X19979300Y11798300D01*
X19959300Y11798300D01*
X19959300Y11823700D01*
X19979300Y11823700D01*
X19979300Y13523300D01*
X20004700Y13523300D01*
X20004700Y11823700D01*
X21704300Y11823700D01*
X21704300Y13523300D01*
X20004700Y13523300D01*
X19979300Y13523300D01*
X19959300Y13523300D01*
X19959300Y13548700D01*
X19979300Y13548700D01*
X19979300Y13568700D01*
X20004700Y13568700D01*
X20004700Y13548700D01*
X20004700Y13548700D01*
G37*
X20004700Y13548700D02*
X21704300Y13548700D01*
X21704300Y13568700D01*
X21729700Y13568700D01*
X21729700Y13548700D01*
X21749700Y13548700D01*
X21749700Y13523300D01*
X21729700Y13523300D01*
X21729700Y11823700D01*
X21749700Y11823700D01*
X21749700Y11798300D01*
X21729700Y11798300D01*
X21729700Y11778300D01*
X21704300Y11778300D01*
X21704300Y11798300D01*
X20004700Y11798300D01*
X20004700Y11778300D01*
X19979300Y11778300D01*
X19979300Y11798300D01*
X19959300Y11798300D01*
X19959300Y11823700D01*
X19979300Y11823700D01*
X19979300Y13523300D01*
X20004700Y13523300D01*
X20004700Y11823700D01*
X21704300Y11823700D01*
X21704300Y13523300D01*
X20004700Y13523300D01*
X19979300Y13523300D01*
X19959300Y13523300D01*
X19959300Y13548700D01*
X19979300Y13548700D01*
X19979300Y13568700D01*
X20004700Y13568700D01*
X20004700Y13548700D01*
G36*
X24257000Y17093078D02*
X23822000Y17093078D01*
X23737286Y17077138D01*
X23659482Y17027072D01*
X23622593Y16973084D01*
X23615797Y16989492D01*
X23551491Y17053798D01*
X23467471Y17088600D01*
X23191850Y17088600D01*
X23134700Y17031450D01*
X23134700Y16522700D01*
X23154700Y16522700D01*
X23154700Y16497300D01*
X23134700Y16497300D01*
X23134700Y16477300D01*
X23109300Y16477300D01*
X23109300Y16497300D01*
X22650550Y16497300D01*
X22593400Y16440150D01*
X22593400Y16114528D01*
X22628203Y16030508D01*
X22692509Y15966202D01*
X22721413Y15954229D01*
X22410843Y15643659D01*
X22394786Y15640638D01*
X22358701Y15617418D01*
X22274972Y15652100D01*
X22174350Y15652100D01*
X22117200Y15594950D01*
X22117200Y15086200D01*
X22137200Y15086200D01*
X22137200Y15060800D01*
X22117200Y15060800D01*
X22117200Y15040800D01*
X22091800Y15040800D01*
X22091800Y15060800D01*
X22071800Y15060800D01*
X22071800Y15086200D01*
X22091800Y15086200D01*
X22091800Y15594950D01*
X22034650Y15652100D01*
X21983700Y15652100D01*
X21983700Y16605436D01*
X22283736Y16905472D01*
X22593400Y16905472D01*
X22593400Y16579850D01*
X22650550Y16522700D01*
X23109300Y16522700D01*
X23109300Y17031450D01*
X23052150Y17088600D01*
X22776529Y17088600D01*
X22692509Y17053798D01*
X22628203Y16989492D01*
X22593400Y16905472D01*
X22283736Y16905472D01*
X22701064Y17322800D01*
X24257000Y17322800D01*
X24257000Y17093078D01*
X24257000Y17093078D01*
G37*
X24257000Y17093078D02*
X23822000Y17093078D01*
X23737286Y17077138D01*
X23659482Y17027072D01*
X23622593Y16973084D01*
X23615797Y16989492D01*
X23551491Y17053798D01*
X23467471Y17088600D01*
X23191850Y17088600D01*
X23134700Y17031450D01*
X23134700Y16522700D01*
X23154700Y16522700D01*
X23154700Y16497300D01*
X23134700Y16497300D01*
X23134700Y16477300D01*
X23109300Y16477300D01*
X23109300Y16497300D01*
X22650550Y16497300D01*
X22593400Y16440150D01*
X22593400Y16114528D01*
X22628203Y16030508D01*
X22692509Y15966202D01*
X22721413Y15954229D01*
X22410843Y15643659D01*
X22394786Y15640638D01*
X22358701Y15617418D01*
X22274972Y15652100D01*
X22174350Y15652100D01*
X22117200Y15594950D01*
X22117200Y15086200D01*
X22137200Y15086200D01*
X22137200Y15060800D01*
X22117200Y15060800D01*
X22117200Y15040800D01*
X22091800Y15040800D01*
X22091800Y15060800D01*
X22071800Y15060800D01*
X22071800Y15086200D01*
X22091800Y15086200D01*
X22091800Y15594950D01*
X22034650Y15652100D01*
X21983700Y15652100D01*
X21983700Y16605436D01*
X22283736Y16905472D01*
X22593400Y16905472D01*
X22593400Y16579850D01*
X22650550Y16522700D01*
X23109300Y16522700D01*
X23109300Y17031450D01*
X23052150Y17088600D01*
X22776529Y17088600D01*
X22692509Y17053798D01*
X22628203Y16989492D01*
X22593400Y16905472D01*
X22283736Y16905472D01*
X22701064Y17322800D01*
X24257000Y17322800D01*
X24257000Y17093078D01*
M02*
