G04 #@! TF.FileFunction,Soldermask,Top*
%FSLAX46Y46*%
G04 Gerber Fmt 4.6, Leading zero omitted, Abs format (unit mm)*
G04 Created by KiCad (PCBNEW (2015-08-16 BZR 6097, Git b384c94)-product) date 18/01/2016 15:22:46*
%MOMM*%
G01*
G04 APERTURE LIST*
%ADD10C,0.100000*%
%ADD11R,1.202400X0.802400*%
%ADD12R,2.052400X1.252400*%
%ADD13R,1.402400X0.752400*%
%ADD14R,2.352040X1.752600*%
%ADD15R,1.752600X2.352040*%
%ADD16R,1.502400X0.552400*%
%ADD17C,1.752400*%
%ADD18R,1.552400X1.752400*%
%ADD19R,2.052400X2.052400*%
%ADD20R,2.184400X1.879600*%
%ADD21C,2.500000*%
%ADD22R,0.852400X0.402400*%
%ADD23R,0.402400X0.852400*%
%ADD24R,1.877400X1.877400*%
%ADD25R,0.502400X0.332400*%
%ADD26R,0.452400X1.652400*%
%ADD27R,1.879600X2.184400*%
%ADD28R,0.852400X0.752400*%
%ADD29R,0.752400X0.852400*%
G04 APERTURE END LIST*
D10*
D11*
X180534000Y-93658000D03*
X185734000Y-93658000D03*
X185734000Y-91508000D03*
X180534000Y-91508000D03*
D12*
X179705000Y-88499000D03*
X179705000Y-85999000D03*
D13*
X162786000Y-84648000D03*
X162786000Y-85598000D03*
X162786000Y-86548000D03*
X159286000Y-86548000D03*
X159286000Y-85598000D03*
X159286000Y-84648000D03*
D14*
X162854640Y-81915000D03*
X159852360Y-81915000D03*
D15*
X164211000Y-91544140D03*
X164211000Y-88541860D03*
D16*
X157538800Y-85060000D03*
X157538800Y-85710000D03*
X157538800Y-86360000D03*
X157538800Y-87010000D03*
X157538800Y-87660000D03*
D17*
X154863800Y-83060000D03*
X154863800Y-89660000D03*
D18*
X157313800Y-89560000D03*
X157313800Y-83160000D03*
D19*
X154863800Y-87810000D03*
X154863800Y-84910000D03*
D20*
X185420000Y-78740000D03*
X187325000Y-78740000D03*
D21*
X182753000Y-78867000D03*
D22*
X176670500Y-87501500D03*
X176670500Y-87001500D03*
X176670500Y-86501500D03*
X176670500Y-86001500D03*
X176670500Y-85501500D03*
X176670500Y-85001500D03*
X176670500Y-84501500D03*
X176670500Y-84001500D03*
D23*
X176020500Y-83351500D03*
X175520500Y-83351500D03*
X175020500Y-83351500D03*
X174520500Y-83351500D03*
X174020500Y-83351500D03*
X173520500Y-83351500D03*
X173020500Y-83351500D03*
X172520500Y-83351500D03*
D22*
X171870500Y-84001500D03*
X171870500Y-84501500D03*
X171870500Y-85001500D03*
X171870500Y-85501500D03*
X171870500Y-86001500D03*
X171870500Y-86501500D03*
X171870500Y-87001500D03*
X171870500Y-87501500D03*
D23*
X172520500Y-88151500D03*
X173020500Y-88151500D03*
X173520500Y-88151500D03*
X174020500Y-88151500D03*
X174520500Y-88151500D03*
X175020500Y-88151500D03*
X175520500Y-88151500D03*
X176020500Y-88151500D03*
D24*
X173408000Y-84889000D03*
X173408000Y-86614000D03*
X175133000Y-84889000D03*
X175133000Y-86614000D03*
D25*
X156354000Y-91776500D03*
X156354000Y-91376500D03*
X156354000Y-90976500D03*
X155304000Y-90976500D03*
X155304000Y-91376500D03*
X155304000Y-91776500D03*
D26*
X155829000Y-91376500D03*
D21*
X156718000Y-94107000D03*
X156718000Y-78867000D03*
D27*
X185420000Y-98425000D03*
X182880000Y-98425000D03*
X180340000Y-98425000D03*
X177800000Y-98425000D03*
X175260000Y-98425000D03*
X172720000Y-98425000D03*
X170180000Y-98425000D03*
X167640000Y-98425000D03*
X165100000Y-98425000D03*
X162560000Y-98425000D03*
X160020000Y-98425000D03*
X157480000Y-98425000D03*
X154940000Y-98425000D03*
X154940000Y-96520000D03*
X157480000Y-96520000D03*
X160020000Y-96520000D03*
X162560000Y-96520000D03*
X165100000Y-96520000D03*
X167640000Y-96520000D03*
X170180000Y-96520000D03*
X172720000Y-96520000D03*
X175260000Y-96520000D03*
X177800000Y-96520000D03*
X180340000Y-96520000D03*
X182880000Y-96520000D03*
X185420000Y-96520000D03*
X154940000Y-74295000D03*
X157480000Y-74295000D03*
X160020000Y-74295000D03*
X162560000Y-74295000D03*
X165100000Y-74295000D03*
X167640000Y-74295000D03*
X170180000Y-74295000D03*
X172720000Y-74295000D03*
X175260000Y-74295000D03*
X177800000Y-74295000D03*
X180340000Y-74295000D03*
X182880000Y-74295000D03*
X185420000Y-74295000D03*
X185420000Y-76200000D03*
X182880000Y-76200000D03*
X180340000Y-76200000D03*
X177800000Y-76200000D03*
X175260000Y-76200000D03*
X172720000Y-76200000D03*
X170180000Y-76200000D03*
X167640000Y-76200000D03*
X165100000Y-76200000D03*
X162560000Y-76200000D03*
X160020000Y-76200000D03*
X157480000Y-76200000D03*
X154940000Y-76200000D03*
D28*
X179197000Y-92257500D03*
X179197000Y-91257500D03*
X177927000Y-93099000D03*
X177927000Y-94099000D03*
D29*
X168076500Y-93345000D03*
X167076500Y-93345000D03*
D28*
X154559000Y-80653000D03*
X154559000Y-81653000D03*
X154305000Y-91003500D03*
X154305000Y-92003500D03*
X157353000Y-91003500D03*
X157353000Y-92003500D03*
X177927000Y-92257500D03*
X177927000Y-91257500D03*
D29*
X174871000Y-91059000D03*
X173871000Y-91059000D03*
X177538000Y-81915000D03*
X176538000Y-81915000D03*
D28*
X181419500Y-85796500D03*
X181419500Y-86796500D03*
X181419500Y-88701500D03*
X181419500Y-87701500D03*
X155829000Y-80653000D03*
X155829000Y-81653000D03*
D29*
X174871000Y-89789000D03*
X173871000Y-89789000D03*
X167084500Y-94589600D03*
X168084500Y-94589600D03*
D10*
G36*
X158561300Y-90766700D02*
X158561300Y-87414300D01*
X160113700Y-87414300D01*
X160113700Y-90766700D01*
X158561300Y-90766700D01*
X158561300Y-90766700D01*
G37*
G36*
X160561300Y-90766700D02*
X160561300Y-87414300D01*
X162113700Y-87414300D01*
X162113700Y-90766700D01*
X160561300Y-90766700D01*
X160561300Y-90766700D01*
G37*
D28*
X164782500Y-83558000D03*
X164782500Y-82558000D03*
M02*
