G04 #@! TF.FileFunction,Legend,Top*
%FSLAX46Y46*%
G04 Gerber Fmt 4.6, Leading zero omitted, Abs format (unit mm)*
G04 Created by KiCad (PCBNEW (2015-08-16 BZR 6097, Git b384c94)-product) date 20/01/2016 15:51:32*
%MOMM*%
G01*
G04 APERTURE LIST*
%ADD10C,0.100000*%
%ADD11C,0.150000*%
%ADD12C,0.050000*%
%ADD13R,1.502400X0.552400*%
%ADD14C,1.752400*%
%ADD15R,1.552400X1.752400*%
%ADD16R,2.052400X2.052400*%
%ADD17R,1.202400X0.802400*%
%ADD18R,2.052400X1.252400*%
%ADD19R,1.402400X0.752400*%
%ADD20R,2.352040X1.752600*%
%ADD21R,1.752600X2.352040*%
%ADD22R,2.184400X1.879600*%
%ADD23C,2.500000*%
%ADD24R,0.852400X0.402400*%
%ADD25R,0.402400X0.852400*%
%ADD26R,1.877400X1.877400*%
%ADD27R,0.502400X0.332400*%
%ADD28R,0.452400X1.652400*%
%ADD29R,1.879600X2.184400*%
%ADD30R,0.852400X0.752400*%
%ADD31R,0.752400X0.852400*%
G04 APERTURE END LIST*
D10*
D11*
X183534000Y-91483000D02*
X182734000Y-91483000D01*
X183534000Y-93683000D02*
X182734000Y-93683000D01*
X181634000Y-92583000D02*
G75*
G03X182734000Y-93683000I1100000J0D01*
G01*
X182734000Y-91483000D02*
G75*
G03X181634000Y-92583000I0J-1100000D01*
G01*
X184634000Y-92583000D02*
G75*
G03X183534000Y-91483000I-1100000J0D01*
G01*
X183534000Y-93683000D02*
G75*
G03X184634000Y-92583000I0J1100000D01*
G01*
X180934000Y-91983000D02*
X180934000Y-93183000D01*
X185334000Y-91983000D02*
X185334000Y-93183000D01*
X185334000Y-94183000D02*
X180934000Y-94183000D01*
X180934000Y-90983000D02*
X185334000Y-90983000D01*
X178955000Y-87799000D02*
X178955000Y-86699000D01*
X180455000Y-87799000D02*
X180455000Y-86699000D01*
X160286000Y-84098000D02*
X161786000Y-84098000D01*
X161786000Y-84098000D02*
X161786000Y-87098000D01*
X161786000Y-87098000D02*
X160286000Y-87098000D01*
X160286000Y-87098000D02*
X160286000Y-84098000D01*
X160603500Y-82815000D02*
X160603500Y-83565000D01*
X159703500Y-80365000D02*
X160603500Y-80365000D01*
X159703500Y-80415000D02*
X159703500Y-80365000D01*
X160603500Y-80415000D02*
X159703500Y-80415000D01*
X160603500Y-80515000D02*
X160603500Y-80415000D01*
X159703500Y-80515000D02*
X160603500Y-80515000D01*
X159703500Y-80615000D02*
X159703500Y-80515000D01*
X160603500Y-80615000D02*
X159703500Y-80615000D01*
X160603500Y-80715000D02*
X160603500Y-80615000D01*
X159703500Y-80715000D02*
X160603500Y-80715000D01*
X159703500Y-80815000D02*
X159703500Y-80715000D01*
X160603500Y-80815000D02*
X159703500Y-80815000D01*
X160603500Y-80865000D02*
X160603500Y-80815000D01*
X160603500Y-80915000D02*
X160603500Y-80815000D01*
X159703500Y-80915000D02*
X160603500Y-80915000D01*
X159703500Y-83465000D02*
X160603500Y-83465000D01*
X159703500Y-83365000D02*
X159703500Y-83465000D01*
X160603500Y-83365000D02*
X159703500Y-83365000D01*
X160603500Y-83265000D02*
X160603500Y-83365000D01*
X159703500Y-83265000D02*
X160603500Y-83265000D01*
X159703500Y-83165000D02*
X159703500Y-83265000D01*
X160603500Y-83165000D02*
X159703500Y-83165000D01*
X160603500Y-83065000D02*
X160603500Y-83165000D01*
X159703500Y-83065000D02*
X160603500Y-83065000D01*
X159703500Y-82965000D02*
X159703500Y-83065000D01*
X160603500Y-82965000D02*
X159703500Y-82965000D01*
X160603500Y-82865000D02*
X160603500Y-82965000D01*
X159703500Y-82865000D02*
X160603500Y-82865000D01*
X160603500Y-80965000D02*
X159703500Y-80965000D01*
X160603500Y-80315000D02*
X160603500Y-81015000D01*
X160153500Y-82815000D02*
G75*
G03X162553500Y-82815000I1200000J900000D01*
G01*
X162553500Y-81015000D02*
G75*
G03X160153500Y-81015000I-1200000J-900000D01*
G01*
X162253500Y-83565000D02*
X163003500Y-82815000D01*
X159703500Y-83565000D02*
X162253500Y-83565000D01*
X159703500Y-82815000D02*
X159703500Y-83565000D01*
X159703500Y-81015000D02*
X159703500Y-80265000D01*
X159703500Y-80265000D02*
X162253500Y-80265000D01*
X162253500Y-80265000D02*
X163003500Y-81015000D01*
X159702500Y-83566000D02*
X162242500Y-83566000D01*
X162242500Y-83566000D02*
X163004500Y-82804000D01*
X163004500Y-81026000D02*
X162242500Y-80264000D01*
X163311000Y-89293000D02*
X162561000Y-89293000D01*
X165761000Y-88393000D02*
X165761000Y-89293000D01*
X165711000Y-88393000D02*
X165761000Y-88393000D01*
X165711000Y-89293000D02*
X165711000Y-88393000D01*
X165611000Y-89293000D02*
X165711000Y-89293000D01*
X165611000Y-88393000D02*
X165611000Y-89293000D01*
X165511000Y-88393000D02*
X165611000Y-88393000D01*
X165511000Y-89293000D02*
X165511000Y-88393000D01*
X165411000Y-89293000D02*
X165511000Y-89293000D01*
X165411000Y-88393000D02*
X165411000Y-89293000D01*
X165311000Y-88393000D02*
X165411000Y-88393000D01*
X165311000Y-89293000D02*
X165311000Y-88393000D01*
X165261000Y-89293000D02*
X165311000Y-89293000D01*
X165211000Y-89293000D02*
X165311000Y-89293000D01*
X165211000Y-88393000D02*
X165211000Y-89293000D01*
X162661000Y-88393000D02*
X162661000Y-89293000D01*
X162761000Y-88393000D02*
X162661000Y-88393000D01*
X162761000Y-89293000D02*
X162761000Y-88393000D01*
X162861000Y-89293000D02*
X162761000Y-89293000D01*
X162861000Y-88393000D02*
X162861000Y-89293000D01*
X162961000Y-88393000D02*
X162861000Y-88393000D01*
X162961000Y-89293000D02*
X162961000Y-88393000D01*
X163061000Y-89293000D02*
X162961000Y-89293000D01*
X163061000Y-88393000D02*
X163061000Y-89293000D01*
X163161000Y-88393000D02*
X163061000Y-88393000D01*
X163161000Y-89293000D02*
X163161000Y-88393000D01*
X163261000Y-89293000D02*
X163161000Y-89293000D01*
X163261000Y-88393000D02*
X163261000Y-89293000D01*
X165161000Y-89293000D02*
X165161000Y-88393000D01*
X165811000Y-89293000D02*
X165111000Y-89293000D01*
X163311000Y-88843000D02*
G75*
G03X163311000Y-91243000I900000J-1200000D01*
G01*
X165111000Y-91243000D02*
G75*
G03X165111000Y-88843000I-900000J1200000D01*
G01*
X162561000Y-90943000D02*
X163311000Y-91693000D01*
X162561000Y-88393000D02*
X162561000Y-90943000D01*
X163311000Y-88393000D02*
X162561000Y-88393000D01*
X165111000Y-88393000D02*
X165861000Y-88393000D01*
X165861000Y-88393000D02*
X165861000Y-90943000D01*
X165861000Y-90943000D02*
X165111000Y-91693000D01*
X162560000Y-88392000D02*
X162560000Y-90932000D01*
X162560000Y-90932000D02*
X163322000Y-91694000D01*
X165100000Y-91694000D02*
X165862000Y-90932000D01*
X171645500Y-88376500D02*
X171645500Y-87851500D01*
X176895500Y-83126500D02*
X176895500Y-83651500D01*
X171645500Y-83126500D02*
X171645500Y-83651500D01*
X176895500Y-88376500D02*
X176370500Y-88376500D01*
X176895500Y-83126500D02*
X176370500Y-83126500D01*
X171645500Y-83126500D02*
X172170500Y-83126500D01*
X171645500Y-88376500D02*
X172170500Y-88376500D01*
D12*
X160675500Y-91829000D02*
X160675500Y-92029000D01*
X160475500Y-91929000D02*
X160675500Y-91829000D01*
X160675500Y-92029000D02*
X160475500Y-91929000D01*
X160175500Y-91729000D02*
X158975500Y-91729000D01*
X160175500Y-92929000D02*
X158975500Y-92929000D01*
D11*
X179697000Y-91257500D02*
X179697000Y-92257500D01*
X178697000Y-92257500D02*
X178697000Y-91257500D01*
X177427000Y-94099000D02*
X177427000Y-93099000D01*
X178427000Y-93099000D02*
X178427000Y-94099000D01*
X167076500Y-92845000D02*
X168076500Y-92845000D01*
X168076500Y-93845000D02*
X167076500Y-93845000D01*
X153678000Y-81653000D02*
X153678000Y-80653000D01*
X154678000Y-80653000D02*
X154678000Y-81653000D01*
X158147500Y-92448000D02*
X157447500Y-92448000D01*
X157447500Y-91448000D02*
X158147500Y-91448000D01*
X161599500Y-92106000D02*
X161599500Y-92806000D01*
X160599500Y-92806000D02*
X160599500Y-92106000D01*
X177427000Y-92107500D02*
X177427000Y-91407500D01*
X178427000Y-91407500D02*
X178427000Y-92107500D01*
X174721000Y-91559000D02*
X174021000Y-91559000D01*
X174021000Y-90559000D02*
X174721000Y-90559000D01*
X177261000Y-82415000D02*
X176561000Y-82415000D01*
X176561000Y-81415000D02*
X177261000Y-81415000D01*
X181919500Y-85946500D02*
X181919500Y-86646500D01*
X180919500Y-86646500D02*
X180919500Y-85946500D01*
X180919500Y-88551500D02*
X180919500Y-87851500D01*
X181919500Y-87851500D02*
X181919500Y-88551500D01*
X155948000Y-80803000D02*
X155948000Y-81503000D01*
X154948000Y-81503000D02*
X154948000Y-80803000D01*
X174721000Y-90289000D02*
X174021000Y-90289000D01*
X174021000Y-89289000D02*
X174721000Y-89289000D01*
X166384500Y-94589600D02*
X166584500Y-94589600D01*
X166384500Y-94589600D02*
X166184500Y-94589600D01*
X166384500Y-94389600D02*
X166384500Y-94789600D01*
D10*
X167084500Y-95089600D02*
X168084500Y-95089600D01*
X168084500Y-94089600D02*
X167084500Y-94089600D01*
D11*
X158637500Y-90840500D02*
X162037500Y-90840500D01*
X158637500Y-87340500D02*
X162037500Y-87340500D01*
X165282500Y-82558000D02*
X165282500Y-83558000D01*
X164282500Y-83558000D02*
X164282500Y-82558000D01*
X154812167Y-86813166D02*
X154112167Y-86813166D01*
X154112167Y-86546500D01*
X154145500Y-86479833D01*
X154178833Y-86446500D01*
X154245500Y-86413166D01*
X154345500Y-86413166D01*
X154412167Y-86446500D01*
X154445500Y-86479833D01*
X154478833Y-86546500D01*
X154478833Y-86813166D01*
X154812167Y-85746500D02*
X154812167Y-86146500D01*
X154812167Y-85946500D02*
X154112167Y-85946500D01*
X154212167Y-86013166D01*
X154278833Y-86079833D01*
X154312167Y-86146500D01*
X183417333Y-93116334D02*
X183450667Y-93016334D01*
X183450667Y-92849667D01*
X183417333Y-92783000D01*
X183384000Y-92749667D01*
X183317333Y-92716334D01*
X183250667Y-92716334D01*
X183184000Y-92749667D01*
X183150667Y-92783000D01*
X183117333Y-92849667D01*
X183084000Y-92983000D01*
X183050667Y-93049667D01*
X183017333Y-93083000D01*
X182950667Y-93116334D01*
X182884000Y-93116334D01*
X182817333Y-93083000D01*
X182784000Y-93049667D01*
X182750667Y-92983000D01*
X182750667Y-92816334D01*
X182784000Y-92716334D01*
X183450667Y-92049667D02*
X183450667Y-92449667D01*
X183450667Y-92249667D02*
X182750667Y-92249667D01*
X182850667Y-92316333D01*
X182917333Y-92383000D01*
X182950667Y-92449667D01*
X177670667Y-87688667D02*
X178370667Y-87222000D01*
X177670667Y-87222000D02*
X178370667Y-87688667D01*
X178370667Y-86588667D02*
X178370667Y-86988667D01*
X178370667Y-86788667D02*
X177670667Y-86788667D01*
X177770667Y-86855333D01*
X177837333Y-86922000D01*
X177870667Y-86988667D01*
X160652667Y-86131333D02*
X161219333Y-86131333D01*
X161286000Y-86098000D01*
X161319333Y-86064667D01*
X161352667Y-85998000D01*
X161352667Y-85864667D01*
X161319333Y-85798000D01*
X161286000Y-85764667D01*
X161219333Y-85731333D01*
X160652667Y-85731333D01*
X160719333Y-85431334D02*
X160686000Y-85398000D01*
X160652667Y-85331334D01*
X160652667Y-85164667D01*
X160686000Y-85098000D01*
X160719333Y-85064667D01*
X160786000Y-85031334D01*
X160852667Y-85031334D01*
X160952667Y-85064667D01*
X161352667Y-85464667D01*
X161352667Y-85031334D01*
X161603500Y-79618666D02*
X161636833Y-79652000D01*
X161670167Y-79752000D01*
X161670167Y-79818666D01*
X161636833Y-79918666D01*
X161570167Y-79985333D01*
X161503500Y-80018666D01*
X161370167Y-80052000D01*
X161270167Y-80052000D01*
X161136833Y-80018666D01*
X161070167Y-79985333D01*
X161003500Y-79918666D01*
X160970167Y-79818666D01*
X160970167Y-79752000D01*
X161003500Y-79652000D01*
X161036833Y-79618666D01*
X160970167Y-79385333D02*
X160970167Y-78952000D01*
X161236833Y-79185333D01*
X161236833Y-79085333D01*
X161270167Y-79018666D01*
X161303500Y-78985333D01*
X161370167Y-78952000D01*
X161536833Y-78952000D01*
X161603500Y-78985333D01*
X161636833Y-79018666D01*
X161670167Y-79085333D01*
X161670167Y-79285333D01*
X161636833Y-79352000D01*
X161603500Y-79385333D01*
X166747000Y-90159666D02*
X166780333Y-90193000D01*
X166813667Y-90293000D01*
X166813667Y-90359666D01*
X166780333Y-90459666D01*
X166713667Y-90526333D01*
X166647000Y-90559666D01*
X166513667Y-90593000D01*
X166413667Y-90593000D01*
X166280333Y-90559666D01*
X166213667Y-90526333D01*
X166147000Y-90459666D01*
X166113667Y-90359666D01*
X166113667Y-90293000D01*
X166147000Y-90193000D01*
X166180333Y-90159666D01*
X166347000Y-89559666D02*
X166813667Y-89559666D01*
X166080333Y-89726333D02*
X166580333Y-89893000D01*
X166580333Y-89459666D01*
X176464167Y-89788933D02*
X177030833Y-89788933D01*
X177097500Y-89755600D01*
X177130833Y-89722267D01*
X177164167Y-89655600D01*
X177164167Y-89522267D01*
X177130833Y-89455600D01*
X177097500Y-89422267D01*
X177030833Y-89388933D01*
X176464167Y-89388933D01*
X176464167Y-89122267D02*
X176464167Y-88688934D01*
X176730833Y-88922267D01*
X176730833Y-88822267D01*
X176764167Y-88755600D01*
X176797500Y-88722267D01*
X176864167Y-88688934D01*
X177030833Y-88688934D01*
X177097500Y-88722267D01*
X177130833Y-88755600D01*
X177164167Y-88822267D01*
X177164167Y-89022267D01*
X177130833Y-89088934D01*
X177097500Y-89122267D01*
X159192167Y-94449833D02*
X159758833Y-94449833D01*
X159825500Y-94416500D01*
X159858833Y-94383167D01*
X159892167Y-94316500D01*
X159892167Y-94183167D01*
X159858833Y-94116500D01*
X159825500Y-94083167D01*
X159758833Y-94049833D01*
X159192167Y-94049833D01*
X159892167Y-93349834D02*
X159892167Y-93749834D01*
X159892167Y-93549834D02*
X159192167Y-93549834D01*
X159292167Y-93616500D01*
X159358833Y-93683167D01*
X159392167Y-93749834D01*
X179488267Y-93537866D02*
X179154933Y-93771200D01*
X179488267Y-93937866D02*
X178788267Y-93937866D01*
X178788267Y-93671200D01*
X178821600Y-93604533D01*
X178854933Y-93571200D01*
X178921600Y-93537866D01*
X179021600Y-93537866D01*
X179088267Y-93571200D01*
X179121600Y-93604533D01*
X179154933Y-93671200D01*
X179154933Y-93937866D01*
X179021600Y-92937866D02*
X179488267Y-92937866D01*
X178754933Y-93104533D02*
X179254933Y-93271200D01*
X179254933Y-92837866D01*
X177253067Y-93741066D02*
X176919733Y-93974400D01*
X177253067Y-94141066D02*
X176553067Y-94141066D01*
X176553067Y-93874400D01*
X176586400Y-93807733D01*
X176619733Y-93774400D01*
X176686400Y-93741066D01*
X176786400Y-93741066D01*
X176853067Y-93774400D01*
X176886400Y-93807733D01*
X176919733Y-93874400D01*
X176919733Y-94141066D01*
X176553067Y-93507733D02*
X176553067Y-93074400D01*
X176819733Y-93307733D01*
X176819733Y-93207733D01*
X176853067Y-93141066D01*
X176886400Y-93107733D01*
X176953067Y-93074400D01*
X177119733Y-93074400D01*
X177186400Y-93107733D01*
X177219733Y-93141066D01*
X177253067Y-93207733D01*
X177253067Y-93407733D01*
X177219733Y-93474400D01*
X177186400Y-93507733D01*
X169544167Y-93461666D02*
X169210833Y-93695000D01*
X169544167Y-93861666D02*
X168844167Y-93861666D01*
X168844167Y-93595000D01*
X168877500Y-93528333D01*
X168910833Y-93495000D01*
X168977500Y-93461666D01*
X169077500Y-93461666D01*
X169144167Y-93495000D01*
X169177500Y-93528333D01*
X169210833Y-93595000D01*
X169210833Y-93861666D01*
X168910833Y-93195000D02*
X168877500Y-93161666D01*
X168844167Y-93095000D01*
X168844167Y-92928333D01*
X168877500Y-92861666D01*
X168910833Y-92828333D01*
X168977500Y-92795000D01*
X169044167Y-92795000D01*
X169144167Y-92828333D01*
X169544167Y-93228333D01*
X169544167Y-92795000D01*
X154494667Y-79682166D02*
X154161333Y-79915500D01*
X154494667Y-80082166D02*
X153794667Y-80082166D01*
X153794667Y-79815500D01*
X153828000Y-79748833D01*
X153861333Y-79715500D01*
X153928000Y-79682166D01*
X154028000Y-79682166D01*
X154094667Y-79715500D01*
X154128000Y-79748833D01*
X154161333Y-79815500D01*
X154161333Y-80082166D01*
X154494667Y-79015500D02*
X154494667Y-79415500D01*
X154494667Y-79215500D02*
X153794667Y-79215500D01*
X153894667Y-79282166D01*
X153961333Y-79348833D01*
X153994667Y-79415500D01*
X156650500Y-92064666D02*
X156683833Y-92098000D01*
X156717167Y-92198000D01*
X156717167Y-92264666D01*
X156683833Y-92364666D01*
X156617167Y-92431333D01*
X156550500Y-92464666D01*
X156417167Y-92498000D01*
X156317167Y-92498000D01*
X156183833Y-92464666D01*
X156117167Y-92431333D01*
X156050500Y-92364666D01*
X156017167Y-92264666D01*
X156017167Y-92198000D01*
X156050500Y-92098000D01*
X156083833Y-92064666D01*
X156717167Y-91398000D02*
X156717167Y-91798000D01*
X156717167Y-91598000D02*
X156017167Y-91598000D01*
X156117167Y-91664666D01*
X156183833Y-91731333D01*
X156217167Y-91798000D01*
X162492500Y-92699666D02*
X162525833Y-92733000D01*
X162559167Y-92833000D01*
X162559167Y-92899666D01*
X162525833Y-92999666D01*
X162459167Y-93066333D01*
X162392500Y-93099666D01*
X162259167Y-93133000D01*
X162159167Y-93133000D01*
X162025833Y-93099666D01*
X161959167Y-93066333D01*
X161892500Y-92999666D01*
X161859167Y-92899666D01*
X161859167Y-92833000D01*
X161892500Y-92733000D01*
X161925833Y-92699666D01*
X161925833Y-92433000D02*
X161892500Y-92399666D01*
X161859167Y-92333000D01*
X161859167Y-92166333D01*
X161892500Y-92099666D01*
X161925833Y-92066333D01*
X161992500Y-92033000D01*
X162059167Y-92033000D01*
X162159167Y-92066333D01*
X162559167Y-92466333D01*
X162559167Y-92033000D01*
X177027000Y-92207500D02*
X177060333Y-92240834D01*
X177093667Y-92340834D01*
X177093667Y-92407500D01*
X177060333Y-92507500D01*
X176993667Y-92574167D01*
X176927000Y-92607500D01*
X176793667Y-92640834D01*
X176693667Y-92640834D01*
X176560333Y-92607500D01*
X176493667Y-92574167D01*
X176427000Y-92507500D01*
X176393667Y-92407500D01*
X176393667Y-92340834D01*
X176427000Y-92240834D01*
X176460333Y-92207500D01*
X177093667Y-91540834D02*
X177093667Y-91940834D01*
X177093667Y-91740834D02*
X176393667Y-91740834D01*
X176493667Y-91807500D01*
X176560333Y-91874167D01*
X176593667Y-91940834D01*
X177093667Y-90874167D02*
X177093667Y-91274167D01*
X177093667Y-91074167D02*
X176393667Y-91074167D01*
X176493667Y-91140833D01*
X176560333Y-91207500D01*
X176593667Y-91274167D01*
X176081500Y-91509000D02*
X176114833Y-91542334D01*
X176148167Y-91642334D01*
X176148167Y-91709000D01*
X176114833Y-91809000D01*
X176048167Y-91875667D01*
X175981500Y-91909000D01*
X175848167Y-91942334D01*
X175748167Y-91942334D01*
X175614833Y-91909000D01*
X175548167Y-91875667D01*
X175481500Y-91809000D01*
X175448167Y-91709000D01*
X175448167Y-91642334D01*
X175481500Y-91542334D01*
X175514833Y-91509000D01*
X176148167Y-90842334D02*
X176148167Y-91242334D01*
X176148167Y-91042334D02*
X175448167Y-91042334D01*
X175548167Y-91109000D01*
X175614833Y-91175667D01*
X175648167Y-91242334D01*
X175448167Y-90409000D02*
X175448167Y-90342333D01*
X175481500Y-90275667D01*
X175514833Y-90242333D01*
X175581500Y-90209000D01*
X175714833Y-90175667D01*
X175881500Y-90175667D01*
X176014833Y-90209000D01*
X176081500Y-90242333D01*
X176114833Y-90275667D01*
X176148167Y-90342333D01*
X176148167Y-90409000D01*
X176114833Y-90475667D01*
X176081500Y-90509000D01*
X176014833Y-90542333D01*
X175881500Y-90575667D01*
X175714833Y-90575667D01*
X175581500Y-90542333D01*
X175514833Y-90509000D01*
X175481500Y-90475667D01*
X175448167Y-90409000D01*
X177161000Y-80761666D02*
X177194333Y-80795000D01*
X177227667Y-80895000D01*
X177227667Y-80961666D01*
X177194333Y-81061666D01*
X177127667Y-81128333D01*
X177061000Y-81161666D01*
X176927667Y-81195000D01*
X176827667Y-81195000D01*
X176694333Y-81161666D01*
X176627667Y-81128333D01*
X176561000Y-81061666D01*
X176527667Y-80961666D01*
X176527667Y-80895000D01*
X176561000Y-80795000D01*
X176594333Y-80761666D01*
X176827667Y-80361666D02*
X176794333Y-80428333D01*
X176761000Y-80461666D01*
X176694333Y-80495000D01*
X176661000Y-80495000D01*
X176594333Y-80461666D01*
X176561000Y-80428333D01*
X176527667Y-80361666D01*
X176527667Y-80228333D01*
X176561000Y-80161666D01*
X176594333Y-80128333D01*
X176661000Y-80095000D01*
X176694333Y-80095000D01*
X176761000Y-80128333D01*
X176794333Y-80161666D01*
X176827667Y-80228333D01*
X176827667Y-80361666D01*
X176861000Y-80428333D01*
X176894333Y-80461666D01*
X176961000Y-80495000D01*
X177094333Y-80495000D01*
X177161000Y-80461666D01*
X177194333Y-80428333D01*
X177227667Y-80361666D01*
X177227667Y-80228333D01*
X177194333Y-80161666D01*
X177161000Y-80128333D01*
X177094333Y-80095000D01*
X176961000Y-80095000D01*
X176894333Y-80128333D01*
X176861000Y-80161666D01*
X176827667Y-80228333D01*
X183028400Y-86425866D02*
X183061733Y-86459200D01*
X183095067Y-86559200D01*
X183095067Y-86625866D01*
X183061733Y-86725866D01*
X182995067Y-86792533D01*
X182928400Y-86825866D01*
X182795067Y-86859200D01*
X182695067Y-86859200D01*
X182561733Y-86825866D01*
X182495067Y-86792533D01*
X182428400Y-86725866D01*
X182395067Y-86625866D01*
X182395067Y-86559200D01*
X182428400Y-86459200D01*
X182461733Y-86425866D01*
X182395067Y-86192533D02*
X182395067Y-85725866D01*
X183095067Y-86025866D01*
X182977600Y-88318166D02*
X183010933Y-88351500D01*
X183044267Y-88451500D01*
X183044267Y-88518166D01*
X183010933Y-88618166D01*
X182944267Y-88684833D01*
X182877600Y-88718166D01*
X182744267Y-88751500D01*
X182644267Y-88751500D01*
X182510933Y-88718166D01*
X182444267Y-88684833D01*
X182377600Y-88618166D01*
X182344267Y-88518166D01*
X182344267Y-88451500D01*
X182377600Y-88351500D01*
X182410933Y-88318166D01*
X182344267Y-87718166D02*
X182344267Y-87851500D01*
X182377600Y-87918166D01*
X182410933Y-87951500D01*
X182510933Y-88018166D01*
X182644267Y-88051500D01*
X182910933Y-88051500D01*
X182977600Y-88018166D01*
X183010933Y-87984833D01*
X183044267Y-87918166D01*
X183044267Y-87784833D01*
X183010933Y-87718166D01*
X182977600Y-87684833D01*
X182910933Y-87651500D01*
X182744267Y-87651500D01*
X182677600Y-87684833D01*
X182644267Y-87718166D01*
X182610933Y-87784833D01*
X182610933Y-87918166D01*
X182644267Y-87984833D01*
X182677600Y-88018166D01*
X182744267Y-88051500D01*
X156848000Y-81269666D02*
X156881333Y-81303000D01*
X156914667Y-81403000D01*
X156914667Y-81469666D01*
X156881333Y-81569666D01*
X156814667Y-81636333D01*
X156748000Y-81669666D01*
X156614667Y-81703000D01*
X156514667Y-81703000D01*
X156381333Y-81669666D01*
X156314667Y-81636333D01*
X156248000Y-81569666D01*
X156214667Y-81469666D01*
X156214667Y-81403000D01*
X156248000Y-81303000D01*
X156281333Y-81269666D01*
X156214667Y-80636333D02*
X156214667Y-80969666D01*
X156548000Y-81003000D01*
X156514667Y-80969666D01*
X156481333Y-80903000D01*
X156481333Y-80736333D01*
X156514667Y-80669666D01*
X156548000Y-80636333D01*
X156614667Y-80603000D01*
X156781333Y-80603000D01*
X156848000Y-80636333D01*
X156881333Y-80669666D01*
X156914667Y-80736333D01*
X156914667Y-80903000D01*
X156881333Y-80969666D01*
X156848000Y-81003000D01*
X173097000Y-89905666D02*
X173130333Y-89939000D01*
X173163667Y-90039000D01*
X173163667Y-90105666D01*
X173130333Y-90205666D01*
X173063667Y-90272333D01*
X172997000Y-90305666D01*
X172863667Y-90339000D01*
X172763667Y-90339000D01*
X172630333Y-90305666D01*
X172563667Y-90272333D01*
X172497000Y-90205666D01*
X172463667Y-90105666D01*
X172463667Y-90039000D01*
X172497000Y-89939000D01*
X172530333Y-89905666D01*
X173163667Y-89572333D02*
X173163667Y-89439000D01*
X173130333Y-89372333D01*
X173097000Y-89339000D01*
X172997000Y-89272333D01*
X172863667Y-89239000D01*
X172597000Y-89239000D01*
X172530333Y-89272333D01*
X172497000Y-89305666D01*
X172463667Y-89372333D01*
X172463667Y-89505666D01*
X172497000Y-89572333D01*
X172530333Y-89605666D01*
X172597000Y-89639000D01*
X172763667Y-89639000D01*
X172830333Y-89605666D01*
X172863667Y-89572333D01*
X172897000Y-89505666D01*
X172897000Y-89372333D01*
X172863667Y-89305666D01*
X172830333Y-89272333D01*
X172763667Y-89239000D01*
X169544167Y-95131666D02*
X168844167Y-95131666D01*
X168844167Y-94965000D01*
X168877500Y-94865000D01*
X168944167Y-94798333D01*
X169010833Y-94765000D01*
X169144167Y-94731666D01*
X169244167Y-94731666D01*
X169377500Y-94765000D01*
X169444167Y-94798333D01*
X169510833Y-94865000D01*
X169544167Y-94965000D01*
X169544167Y-95131666D01*
X169544167Y-94065000D02*
X169544167Y-94465000D01*
X169544167Y-94265000D02*
X168844167Y-94265000D01*
X168944167Y-94331666D01*
X169010833Y-94398333D01*
X169044167Y-94465000D01*
X163067167Y-87873667D02*
X163067167Y-88207000D01*
X162367167Y-88207000D01*
X162433833Y-87673667D02*
X162400500Y-87640333D01*
X162367167Y-87573667D01*
X162367167Y-87407000D01*
X162400500Y-87340333D01*
X162433833Y-87307000D01*
X162500500Y-87273667D01*
X162567167Y-87273667D01*
X162667167Y-87307000D01*
X163067167Y-87707000D01*
X163067167Y-87273667D01*
X166242167Y-83174667D02*
X166242167Y-83508000D01*
X165542167Y-83508000D01*
X166242167Y-82574667D02*
X166242167Y-82974667D01*
X166242167Y-82774667D02*
X165542167Y-82774667D01*
X165642167Y-82841333D01*
X165708833Y-82908000D01*
X165742167Y-82974667D01*
%LPC*%
D13*
X157157800Y-85060000D03*
X157157800Y-85710000D03*
X157157800Y-86360000D03*
X157157800Y-87010000D03*
X157157800Y-87660000D03*
D14*
X154482800Y-83060000D03*
X154482800Y-89660000D03*
D15*
X156932800Y-89560000D03*
X156932800Y-83160000D03*
D16*
X154482800Y-87810000D03*
X154482800Y-84910000D03*
D17*
X180534000Y-93658000D03*
X185734000Y-93658000D03*
X185734000Y-91508000D03*
X180534000Y-91508000D03*
D18*
X179705000Y-88499000D03*
X179705000Y-85999000D03*
D19*
X162786000Y-84648000D03*
X162786000Y-85598000D03*
X162786000Y-86548000D03*
X159286000Y-86548000D03*
X159286000Y-85598000D03*
X159286000Y-84648000D03*
D20*
X162854640Y-81915000D03*
X159852360Y-81915000D03*
D21*
X164211000Y-91544140D03*
X164211000Y-88541860D03*
D22*
X185420000Y-78740000D03*
X187325000Y-78740000D03*
D23*
X182753000Y-78867000D03*
D24*
X176670500Y-87501500D03*
X176670500Y-87001500D03*
X176670500Y-86501500D03*
X176670500Y-86001500D03*
X176670500Y-85501500D03*
X176670500Y-85001500D03*
X176670500Y-84501500D03*
X176670500Y-84001500D03*
D25*
X176020500Y-83351500D03*
X175520500Y-83351500D03*
X175020500Y-83351500D03*
X174520500Y-83351500D03*
X174020500Y-83351500D03*
X173520500Y-83351500D03*
X173020500Y-83351500D03*
X172520500Y-83351500D03*
D24*
X171870500Y-84001500D03*
X171870500Y-84501500D03*
X171870500Y-85001500D03*
X171870500Y-85501500D03*
X171870500Y-86001500D03*
X171870500Y-86501500D03*
X171870500Y-87001500D03*
X171870500Y-87501500D03*
D25*
X172520500Y-88151500D03*
X173020500Y-88151500D03*
X173520500Y-88151500D03*
X174020500Y-88151500D03*
X174520500Y-88151500D03*
X175020500Y-88151500D03*
X175520500Y-88151500D03*
X176020500Y-88151500D03*
D26*
X173408000Y-84889000D03*
X173408000Y-86614000D03*
X175133000Y-84889000D03*
X175133000Y-86614000D03*
D27*
X160100500Y-92729000D03*
X160100500Y-92329000D03*
X160100500Y-91929000D03*
X159050500Y-91929000D03*
X159050500Y-92329000D03*
X159050500Y-92729000D03*
D28*
X159575500Y-92329000D03*
D23*
X157353000Y-93916500D03*
X157353000Y-78867000D03*
D29*
X185420000Y-98425000D03*
X182880000Y-98425000D03*
X180340000Y-98425000D03*
X177800000Y-98425000D03*
X175260000Y-98425000D03*
X172720000Y-98425000D03*
X170180000Y-98425000D03*
X167640000Y-98425000D03*
X165100000Y-98425000D03*
X162560000Y-98425000D03*
X160020000Y-98425000D03*
X157480000Y-98425000D03*
X154940000Y-98425000D03*
X154940000Y-96520000D03*
X157480000Y-96520000D03*
X160020000Y-96520000D03*
X162560000Y-96520000D03*
X165100000Y-96520000D03*
X167640000Y-96520000D03*
X170180000Y-96520000D03*
X172720000Y-96520000D03*
X175260000Y-96520000D03*
X177800000Y-96520000D03*
X180340000Y-96520000D03*
X182880000Y-96520000D03*
X185420000Y-96520000D03*
X154940000Y-74295000D03*
X157480000Y-74295000D03*
X160020000Y-74295000D03*
X162560000Y-74295000D03*
X165100000Y-74295000D03*
X167640000Y-74295000D03*
X170180000Y-74295000D03*
X172720000Y-74295000D03*
X175260000Y-74295000D03*
X177800000Y-74295000D03*
X180340000Y-74295000D03*
X182880000Y-74295000D03*
X185420000Y-74295000D03*
X185420000Y-76200000D03*
X182880000Y-76200000D03*
X180340000Y-76200000D03*
X177800000Y-76200000D03*
X175260000Y-76200000D03*
X172720000Y-76200000D03*
X170180000Y-76200000D03*
X167640000Y-76200000D03*
X165100000Y-76200000D03*
X162560000Y-76200000D03*
X160020000Y-76200000D03*
X157480000Y-76200000D03*
X154940000Y-76200000D03*
D30*
X179197000Y-92257500D03*
X179197000Y-91257500D03*
X177927000Y-93099000D03*
X177927000Y-94099000D03*
D31*
X168076500Y-93345000D03*
X167076500Y-93345000D03*
D30*
X154178000Y-80653000D03*
X154178000Y-81653000D03*
D31*
X158297500Y-91948000D03*
X157297500Y-91948000D03*
D30*
X161099500Y-91956000D03*
X161099500Y-92956000D03*
X177927000Y-92257500D03*
X177927000Y-91257500D03*
D31*
X174871000Y-91059000D03*
X173871000Y-91059000D03*
X177411000Y-81915000D03*
X176411000Y-81915000D03*
D30*
X181419500Y-85796500D03*
X181419500Y-86796500D03*
X181419500Y-88701500D03*
X181419500Y-87701500D03*
X155448000Y-80653000D03*
X155448000Y-81653000D03*
D31*
X174871000Y-89789000D03*
X173871000Y-89789000D03*
X167084500Y-94589600D03*
X168084500Y-94589600D03*
D10*
G36*
X158561300Y-90766700D02*
X158561300Y-87414300D01*
X160113700Y-87414300D01*
X160113700Y-90766700D01*
X158561300Y-90766700D01*
X158561300Y-90766700D01*
G37*
G36*
X160561300Y-90766700D02*
X160561300Y-87414300D01*
X162113700Y-87414300D01*
X162113700Y-90766700D01*
X160561300Y-90766700D01*
X160561300Y-90766700D01*
G37*
D30*
X164782500Y-83558000D03*
X164782500Y-82558000D03*
D22*
X154940000Y-93980000D03*
X153035000Y-93980000D03*
X185420000Y-81280000D03*
X187325000Y-81280000D03*
M02*
