%FSLAX45Y45*%
G04 Gerber Fmt 4.5, Leading zero omitted, Abs format (unit mm)*
G04 Created by KiCad (PCBNEW (2015-08-16 BZR 6097, Git b384c94)-product) date 25/01/2016 17:26:02*
%MOMM*%
G01*
G04 APERTURE LIST*
%ADD10C,0.127000*%
%ADD11C,0.150000*%
%ADD12C,0.200000*%
%ADD13C,0.300000*%
G04 APERTURE END LIST*
D10*
D11*
X15303500Y-9588500D02*
X15303500Y-7683500D01*
X18986500Y-9588500D02*
X15303500Y-9588500D01*
X18986500Y-7683500D02*
X18986500Y-9588500D01*
X15303500Y-7683500D02*
X18986500Y-7683500D01*
D12*
X15567660Y-8078000D02*
X15600680Y-8111020D01*
X15600680Y-8078000D02*
X15567660Y-8111020D01*
X15579090Y-8503610D02*
X15612110Y-8536630D01*
X15612110Y-8503610D02*
X15579090Y-8536630D01*
X15694660Y-8078000D02*
X15727680Y-8111020D01*
X15727680Y-8078000D02*
X15694660Y-8111020D01*
X15833090Y-9121140D02*
X15866110Y-9154160D01*
X15866110Y-9121140D02*
X15833090Y-9154160D01*
X15917240Y-8892540D02*
X15950260Y-8925560D01*
X15950260Y-8892540D02*
X15917240Y-8925560D01*
X16117240Y-8892540D02*
X16150260Y-8925560D01*
X16150260Y-8892540D02*
X16117240Y-8925560D01*
X16131540Y-9121940D02*
X16164560Y-9154960D01*
X16164560Y-9121940D02*
X16131540Y-9154960D01*
X16404590Y-9137904D02*
X16437610Y-9170924D01*
X16437610Y-9137904D02*
X16404590Y-9170924D01*
X16461740Y-8239290D02*
X16494760Y-8272310D01*
X16494760Y-8239290D02*
X16461740Y-8272310D01*
X16461740Y-8339290D02*
X16494760Y-8372310D01*
X16494760Y-8339290D02*
X16461740Y-8372310D01*
X16499090Y-8010640D02*
X16532110Y-8043660D01*
X16532110Y-8010640D02*
X16499090Y-8043660D01*
X16678107Y-9167142D02*
X16711127Y-9200162D01*
X16711127Y-9167142D02*
X16678107Y-9200162D01*
X16791140Y-9051290D02*
X16824160Y-9084310D01*
X16824160Y-9051290D02*
X16791140Y-9084310D01*
X16830040Y-8873490D02*
X16863060Y-8906510D01*
X16863060Y-8873490D02*
X16830040Y-8906510D01*
X16830040Y-8947150D02*
X16863060Y-8980170D01*
X16863060Y-8947150D02*
X16830040Y-8980170D01*
X16968690Y-8466040D02*
X17001710Y-8499060D01*
X17001710Y-8466040D02*
X16968690Y-8499060D01*
X16968690Y-8638540D02*
X17001710Y-8671560D01*
X17001710Y-8638540D02*
X16968690Y-8671560D01*
X17141190Y-8466040D02*
X17174210Y-8499060D01*
X17174210Y-8466040D02*
X17141190Y-8499060D01*
X17141190Y-8638540D02*
X17174210Y-8671560D01*
X17174210Y-8638540D02*
X17141190Y-8671560D01*
X17247318Y-8884252D02*
X17280338Y-8917272D01*
X17280338Y-8884252D02*
X17247318Y-8917272D01*
X17250063Y-8810643D02*
X17283083Y-8843663D01*
X17283083Y-8810643D02*
X17250063Y-8843663D01*
X17288040Y-9083040D02*
X17321060Y-9116060D01*
X17321060Y-9083040D02*
X17288040Y-9116060D01*
X17293590Y-8181340D02*
X17326610Y-8214360D01*
X17326610Y-8181340D02*
X17293590Y-8214360D01*
X17308420Y-9234413D02*
X17341440Y-9267433D01*
X17341440Y-9234413D02*
X17308420Y-9267433D01*
X17388040Y-8962390D02*
X17421060Y-8995410D01*
X17421060Y-8962390D02*
X17388040Y-8995410D01*
X17496790Y-9178290D02*
X17529810Y-9211310D01*
X17529810Y-9178290D02*
X17496790Y-9211310D01*
X17541240Y-8695690D02*
X17574260Y-8728710D01*
X17574260Y-8695690D02*
X17541240Y-8728710D01*
X17604740Y-8695690D02*
X17637760Y-8728710D01*
X17637760Y-8695690D02*
X17604740Y-8728710D01*
X17668240Y-8695690D02*
X17701260Y-8728710D01*
X17701260Y-8695690D02*
X17668240Y-8728710D01*
X18373490Y-8365490D02*
X18406510Y-8398510D01*
X18406510Y-8365490D02*
X18373490Y-8398510D01*
X18373490Y-8746490D02*
X18406510Y-8779510D01*
X18406510Y-8746490D02*
X18373490Y-8779510D01*
X18373490Y-8873490D02*
X18406510Y-8906510D01*
X18406510Y-8873490D02*
X18373490Y-8906510D01*
X18779490Y-8873490D02*
X18812510Y-8906510D01*
X18812510Y-8873490D02*
X18779490Y-8906510D01*
X15354300Y-9144000D02*
G75*
G03X15354300Y-9144000I-50800J0D01*
G01*
X15544800Y-7683500D02*
G75*
G03X15544800Y-7683500I-50800J0D01*
G01*
X15544800Y-7874000D02*
G75*
G03X15544800Y-7874000I-50800J0D01*
G01*
X15544800Y-9144000D02*
G75*
G03X15544800Y-9144000I-50800J0D01*
G01*
X15544800Y-9398000D02*
G75*
G03X15544800Y-9398000I-50800J0D01*
G01*
X15544800Y-9588500D02*
G75*
G03X15544800Y-9588500I-50800J0D01*
G01*
X15798800Y-7683500D02*
G75*
G03X15798800Y-7683500I-50800J0D01*
G01*
X15798800Y-7874000D02*
G75*
G03X15798800Y-7874000I-50800J0D01*
G01*
X15798800Y-9398000D02*
G75*
G03X15798800Y-9398000I-50800J0D01*
G01*
X15798800Y-9588500D02*
G75*
G03X15798800Y-9588500I-50800J0D01*
G01*
X16052800Y-7683500D02*
G75*
G03X16052800Y-7683500I-50800J0D01*
G01*
X16052800Y-7874000D02*
G75*
G03X16052800Y-7874000I-50800J0D01*
G01*
X16052800Y-9398000D02*
G75*
G03X16052800Y-9398000I-50800J0D01*
G01*
X16052800Y-9588500D02*
G75*
G03X16052800Y-9588500I-50800J0D01*
G01*
X16306800Y-7683500D02*
G75*
G03X16306800Y-7683500I-50800J0D01*
G01*
X16306800Y-7874000D02*
G75*
G03X16306800Y-7874000I-50800J0D01*
G01*
X16306800Y-9398000D02*
G75*
G03X16306800Y-9398000I-50800J0D01*
G01*
X16306800Y-9588500D02*
G75*
G03X16306800Y-9588500I-50800J0D01*
G01*
X16560800Y-7683500D02*
G75*
G03X16560800Y-7683500I-50800J0D01*
G01*
X16560800Y-7874000D02*
G75*
G03X16560800Y-7874000I-50800J0D01*
G01*
X16560800Y-9398000D02*
G75*
G03X16560800Y-9398000I-50800J0D01*
G01*
X16560800Y-9588500D02*
G75*
G03X16560800Y-9588500I-50800J0D01*
G01*
X16814800Y-7683500D02*
G75*
G03X16814800Y-7683500I-50800J0D01*
G01*
X16814800Y-7874000D02*
G75*
G03X16814800Y-7874000I-50800J0D01*
G01*
X16814800Y-9398000D02*
G75*
G03X16814800Y-9398000I-50800J0D01*
G01*
X16814800Y-9588500D02*
G75*
G03X16814800Y-9588500I-50800J0D01*
G01*
X17068800Y-7683500D02*
G75*
G03X17068800Y-7683500I-50800J0D01*
G01*
X17068800Y-7874000D02*
G75*
G03X17068800Y-7874000I-50800J0D01*
G01*
X17068800Y-9398000D02*
G75*
G03X17068800Y-9398000I-50800J0D01*
G01*
X17068800Y-9588500D02*
G75*
G03X17068800Y-9588500I-50800J0D01*
G01*
X17322800Y-7683500D02*
G75*
G03X17322800Y-7683500I-50800J0D01*
G01*
X17322800Y-7874000D02*
G75*
G03X17322800Y-7874000I-50800J0D01*
G01*
X17322800Y-9398000D02*
G75*
G03X17322800Y-9398000I-50800J0D01*
G01*
X17322800Y-9588500D02*
G75*
G03X17322800Y-9588500I-50800J0D01*
G01*
X17576800Y-7683500D02*
G75*
G03X17576800Y-7683500I-50800J0D01*
G01*
X17576800Y-7874000D02*
G75*
G03X17576800Y-7874000I-50800J0D01*
G01*
X17576800Y-9398000D02*
G75*
G03X17576800Y-9398000I-50800J0D01*
G01*
X17576800Y-9588500D02*
G75*
G03X17576800Y-9588500I-50800J0D01*
G01*
X17830800Y-7683500D02*
G75*
G03X17830800Y-7683500I-50800J0D01*
G01*
X17830800Y-7874000D02*
G75*
G03X17830800Y-7874000I-50800J0D01*
G01*
X17830800Y-9398000D02*
G75*
G03X17830800Y-9398000I-50800J0D01*
G01*
X17830800Y-9588500D02*
G75*
G03X17830800Y-9588500I-50800J0D01*
G01*
X18084800Y-7683500D02*
G75*
G03X18084800Y-7683500I-50800J0D01*
G01*
X18084800Y-7874000D02*
G75*
G03X18084800Y-7874000I-50800J0D01*
G01*
X18084800Y-9398000D02*
G75*
G03X18084800Y-9398000I-50800J0D01*
G01*
X18084800Y-9588500D02*
G75*
G03X18084800Y-9588500I-50800J0D01*
G01*
X18338800Y-7683500D02*
G75*
G03X18338800Y-7683500I-50800J0D01*
G01*
X18338800Y-7874000D02*
G75*
G03X18338800Y-7874000I-50800J0D01*
G01*
X18338800Y-9398000D02*
G75*
G03X18338800Y-9398000I-50800J0D01*
G01*
X18338800Y-9588500D02*
G75*
G03X18338800Y-9588500I-50800J0D01*
G01*
X18592800Y-7683500D02*
G75*
G03X18592800Y-7683500I-50800J0D01*
G01*
X18592800Y-7874000D02*
G75*
G03X18592800Y-7874000I-50800J0D01*
G01*
X18592800Y-9398000D02*
G75*
G03X18592800Y-9398000I-50800J0D01*
G01*
X18592800Y-9588500D02*
G75*
G03X18592800Y-9588500I-50800J0D01*
G01*
X18846800Y-7683500D02*
G75*
G03X18846800Y-7683500I-50800J0D01*
G01*
X18846800Y-7874000D02*
G75*
G03X18846800Y-7874000I-50800J0D01*
G01*
X18846800Y-9398000D02*
G75*
G03X18846800Y-9398000I-50800J0D01*
G01*
X18846800Y-9588500D02*
G75*
G03X18846800Y-9588500I-50800J0D01*
G01*
X15448280Y-8246000D02*
X15448280Y-8366000D01*
X15388280Y-8306000D02*
X15508280Y-8306000D01*
X15448280Y-8906000D02*
X15448280Y-9026000D01*
X15388280Y-8966000D02*
X15508280Y-8966000D01*
D13*
X15567428Y-10061714D02*
X15567428Y-9761714D01*
X15638857Y-9761714D01*
X15681714Y-9776000D01*
X15710286Y-9804572D01*
X15724571Y-9833143D01*
X15738857Y-9890286D01*
X15738857Y-9933143D01*
X15724571Y-9990286D01*
X15710286Y-10018857D01*
X15681714Y-10047429D01*
X15638857Y-10061714D01*
X15567428Y-10061714D01*
X15867428Y-10061714D02*
X15867428Y-9861714D01*
X15867428Y-9918857D02*
X15881714Y-9890286D01*
X15896000Y-9876000D01*
X15924571Y-9861714D01*
X15953143Y-9861714D01*
X16053143Y-10061714D02*
X16053143Y-9861714D01*
X16053143Y-9761714D02*
X16038857Y-9776000D01*
X16053143Y-9790286D01*
X16067428Y-9776000D01*
X16053143Y-9761714D01*
X16053143Y-9790286D01*
X16238857Y-10061714D02*
X16210286Y-10047429D01*
X16196000Y-10018857D01*
X16196000Y-9761714D01*
X16396000Y-10061714D02*
X16367428Y-10047429D01*
X16353143Y-10018857D01*
X16353143Y-9761714D01*
X16738857Y-10061714D02*
X16738857Y-9761714D01*
X16838857Y-9976000D01*
X16938857Y-9761714D01*
X16938857Y-10061714D01*
X17210286Y-10061714D02*
X17210286Y-9904572D01*
X17196000Y-9876000D01*
X17167429Y-9861714D01*
X17110286Y-9861714D01*
X17081714Y-9876000D01*
X17210286Y-10047429D02*
X17181714Y-10061714D01*
X17110286Y-10061714D01*
X17081714Y-10047429D01*
X17067429Y-10018857D01*
X17067429Y-9990286D01*
X17081714Y-9961714D01*
X17110286Y-9947429D01*
X17181714Y-9947429D01*
X17210286Y-9933143D01*
X17353143Y-9861714D02*
X17353143Y-10161714D01*
X17353143Y-9876000D02*
X17381714Y-9861714D01*
X17438857Y-9861714D01*
X17467429Y-9876000D01*
X17481714Y-9890286D01*
X17496000Y-9918857D01*
X17496000Y-10004572D01*
X17481714Y-10033143D01*
X17467429Y-10047429D01*
X17438857Y-10061714D01*
X17381714Y-10061714D01*
X17353143Y-10047429D01*
X17624571Y-10033143D02*
X17638857Y-10047429D01*
X17624571Y-10061714D01*
X17610286Y-10047429D01*
X17624571Y-10033143D01*
X17624571Y-10061714D01*
X17624571Y-9876000D02*
X17638857Y-9890286D01*
X17624571Y-9904572D01*
X17610286Y-9890286D01*
X17624571Y-9876000D01*
X17624571Y-9904572D01*
X15262980Y-10539490D02*
X15296000Y-10572510D01*
X15296000Y-10539490D02*
X15262980Y-10572510D01*
X15624571Y-10391714D02*
X15653143Y-10391714D01*
X15681714Y-10406000D01*
X15696000Y-10420286D01*
X15710286Y-10448857D01*
X15724571Y-10506000D01*
X15724571Y-10577429D01*
X15710286Y-10634572D01*
X15696000Y-10663143D01*
X15681714Y-10677429D01*
X15653143Y-10691714D01*
X15624571Y-10691714D01*
X15596000Y-10677429D01*
X15581714Y-10663143D01*
X15567428Y-10634572D01*
X15553143Y-10577429D01*
X15553143Y-10506000D01*
X15567428Y-10448857D01*
X15581714Y-10420286D01*
X15596000Y-10406000D01*
X15624571Y-10391714D01*
X15853143Y-10663143D02*
X15867428Y-10677429D01*
X15853143Y-10691714D01*
X15838857Y-10677429D01*
X15853143Y-10663143D01*
X15853143Y-10691714D01*
X15967428Y-10391714D02*
X16153143Y-10391714D01*
X16053143Y-10506000D01*
X16096000Y-10506000D01*
X16124571Y-10520286D01*
X16138857Y-10534572D01*
X16153143Y-10563143D01*
X16153143Y-10634572D01*
X16138857Y-10663143D01*
X16124571Y-10677429D01*
X16096000Y-10691714D01*
X16010286Y-10691714D01*
X15981714Y-10677429D01*
X15967428Y-10663143D01*
X16253143Y-10391714D02*
X16438857Y-10391714D01*
X16338857Y-10506000D01*
X16381714Y-10506000D01*
X16410286Y-10520286D01*
X16424571Y-10534572D01*
X16438857Y-10563143D01*
X16438857Y-10634572D01*
X16424571Y-10663143D01*
X16410286Y-10677429D01*
X16381714Y-10691714D01*
X16296000Y-10691714D01*
X16267428Y-10677429D01*
X16253143Y-10663143D01*
X16567428Y-10691714D02*
X16567428Y-10491714D01*
X16567428Y-10520286D02*
X16581714Y-10506000D01*
X16610286Y-10491714D01*
X16653143Y-10491714D01*
X16681714Y-10506000D01*
X16696000Y-10534572D01*
X16696000Y-10691714D01*
X16696000Y-10534572D02*
X16710286Y-10506000D01*
X16738857Y-10491714D01*
X16781714Y-10491714D01*
X16810286Y-10506000D01*
X16824571Y-10534572D01*
X16824571Y-10691714D01*
X16967429Y-10691714D02*
X16967429Y-10491714D01*
X16967429Y-10520286D02*
X16981714Y-10506000D01*
X17010286Y-10491714D01*
X17053143Y-10491714D01*
X17081714Y-10506000D01*
X17096000Y-10534572D01*
X17096000Y-10691714D01*
X17096000Y-10534572D02*
X17110286Y-10506000D01*
X17138857Y-10491714D01*
X17181714Y-10491714D01*
X17210286Y-10506000D01*
X17224571Y-10534572D01*
X17224571Y-10691714D01*
X17810286Y-10377429D02*
X17553143Y-10763143D01*
X18196000Y-10391714D02*
X18224571Y-10391714D01*
X18253143Y-10406000D01*
X18267428Y-10420286D01*
X18281714Y-10448857D01*
X18296000Y-10506000D01*
X18296000Y-10577429D01*
X18281714Y-10634572D01*
X18267428Y-10663143D01*
X18253143Y-10677429D01*
X18224571Y-10691714D01*
X18196000Y-10691714D01*
X18167428Y-10677429D01*
X18153143Y-10663143D01*
X18138857Y-10634572D01*
X18124571Y-10577429D01*
X18124571Y-10506000D01*
X18138857Y-10448857D01*
X18153143Y-10420286D01*
X18167428Y-10406000D01*
X18196000Y-10391714D01*
X18424571Y-10663143D02*
X18438857Y-10677429D01*
X18424571Y-10691714D01*
X18410286Y-10677429D01*
X18424571Y-10663143D01*
X18424571Y-10691714D01*
X18624571Y-10391714D02*
X18653143Y-10391714D01*
X18681714Y-10406000D01*
X18696000Y-10420286D01*
X18710286Y-10448857D01*
X18724571Y-10506000D01*
X18724571Y-10577429D01*
X18710286Y-10634572D01*
X18696000Y-10663143D01*
X18681714Y-10677429D01*
X18653143Y-10691714D01*
X18624571Y-10691714D01*
X18596000Y-10677429D01*
X18581714Y-10663143D01*
X18567428Y-10634572D01*
X18553143Y-10577429D01*
X18553143Y-10506000D01*
X18567428Y-10448857D01*
X18581714Y-10420286D01*
X18596000Y-10406000D01*
X18624571Y-10391714D01*
X19010286Y-10691714D02*
X18838857Y-10691714D01*
X18924571Y-10691714D02*
X18924571Y-10391714D01*
X18896000Y-10434572D01*
X18867428Y-10463143D01*
X18838857Y-10477429D01*
X19110286Y-10391714D02*
X19296000Y-10391714D01*
X19196000Y-10506000D01*
X19238857Y-10506000D01*
X19267428Y-10520286D01*
X19281714Y-10534572D01*
X19296000Y-10563143D01*
X19296000Y-10634572D01*
X19281714Y-10663143D01*
X19267428Y-10677429D01*
X19238857Y-10691714D01*
X19153143Y-10691714D01*
X19124571Y-10677429D01*
X19110286Y-10663143D01*
X19410286Y-10391714D02*
X19410286Y-10448857D01*
X19524571Y-10391714D02*
X19524571Y-10448857D01*
X19967428Y-10806000D02*
X19953143Y-10791714D01*
X19924571Y-10748857D01*
X19910286Y-10720286D01*
X19896000Y-10677429D01*
X19881714Y-10606000D01*
X19881714Y-10548857D01*
X19896000Y-10477429D01*
X19910286Y-10434572D01*
X19924571Y-10406000D01*
X19953143Y-10363143D01*
X19967428Y-10348857D01*
X20053143Y-10391714D02*
X20238857Y-10391714D01*
X20138857Y-10506000D01*
X20181714Y-10506000D01*
X20210286Y-10520286D01*
X20224571Y-10534572D01*
X20238857Y-10563143D01*
X20238857Y-10634572D01*
X20224571Y-10663143D01*
X20210286Y-10677429D01*
X20181714Y-10691714D01*
X20096000Y-10691714D01*
X20067428Y-10677429D01*
X20053143Y-10663143D01*
X20338857Y-10391714D02*
X20524571Y-10391714D01*
X20424571Y-10506000D01*
X20467428Y-10506000D01*
X20496000Y-10520286D01*
X20510286Y-10534572D01*
X20524571Y-10563143D01*
X20524571Y-10634572D01*
X20510286Y-10663143D01*
X20496000Y-10677429D01*
X20467428Y-10691714D01*
X20381714Y-10691714D01*
X20353143Y-10677429D01*
X20338857Y-10663143D01*
X20881714Y-10691714D02*
X20881714Y-10391714D01*
X21010286Y-10691714D02*
X21010286Y-10534572D01*
X20996000Y-10506000D01*
X20967428Y-10491714D01*
X20924571Y-10491714D01*
X20896000Y-10506000D01*
X20881714Y-10520286D01*
X21196000Y-10691714D02*
X21167428Y-10677429D01*
X21153143Y-10663143D01*
X21138857Y-10634572D01*
X21138857Y-10548857D01*
X21153143Y-10520286D01*
X21167428Y-10506000D01*
X21196000Y-10491714D01*
X21238857Y-10491714D01*
X21267428Y-10506000D01*
X21281714Y-10520286D01*
X21296000Y-10548857D01*
X21296000Y-10634572D01*
X21281714Y-10663143D01*
X21267428Y-10677429D01*
X21238857Y-10691714D01*
X21196000Y-10691714D01*
X21467428Y-10691714D02*
X21438857Y-10677429D01*
X21424571Y-10648857D01*
X21424571Y-10391714D01*
X21696000Y-10677429D02*
X21667429Y-10691714D01*
X21610286Y-10691714D01*
X21581714Y-10677429D01*
X21567429Y-10648857D01*
X21567429Y-10534572D01*
X21581714Y-10506000D01*
X21610286Y-10491714D01*
X21667429Y-10491714D01*
X21696000Y-10506000D01*
X21710286Y-10534572D01*
X21710286Y-10563143D01*
X21567429Y-10591714D01*
X21824571Y-10677429D02*
X21853143Y-10691714D01*
X21910286Y-10691714D01*
X21938857Y-10677429D01*
X21953143Y-10648857D01*
X21953143Y-10634572D01*
X21938857Y-10606000D01*
X21910286Y-10591714D01*
X21867429Y-10591714D01*
X21838857Y-10577429D01*
X21824571Y-10548857D01*
X21824571Y-10534572D01*
X21838857Y-10506000D01*
X21867429Y-10491714D01*
X21910286Y-10491714D01*
X21938857Y-10506000D01*
X22053143Y-10806000D02*
X22067429Y-10791714D01*
X22096000Y-10748857D01*
X22110286Y-10720286D01*
X22124571Y-10677429D01*
X22138857Y-10606000D01*
X22138857Y-10548857D01*
X22124571Y-10477429D01*
X22110286Y-10434572D01*
X22096000Y-10406000D01*
X22067429Y-10363143D01*
X22053143Y-10348857D01*
X15296000Y-10952000D02*
G75*
G03X15296000Y-10952000I-50800J0D01*
G01*
X15724571Y-11087714D02*
X15553143Y-11087714D01*
X15638857Y-11087714D02*
X15638857Y-10787714D01*
X15610286Y-10830572D01*
X15581714Y-10859143D01*
X15553143Y-10873429D01*
X15853143Y-11059143D02*
X15867428Y-11073429D01*
X15853143Y-11087714D01*
X15838857Y-11073429D01*
X15853143Y-11059143D01*
X15853143Y-11087714D01*
X16053143Y-10787714D02*
X16081714Y-10787714D01*
X16110286Y-10802000D01*
X16124571Y-10816286D01*
X16138857Y-10844857D01*
X16153143Y-10902000D01*
X16153143Y-10973429D01*
X16138857Y-11030572D01*
X16124571Y-11059143D01*
X16110286Y-11073429D01*
X16081714Y-11087714D01*
X16053143Y-11087714D01*
X16024571Y-11073429D01*
X16010286Y-11059143D01*
X15996000Y-11030572D01*
X15981714Y-10973429D01*
X15981714Y-10902000D01*
X15996000Y-10844857D01*
X16010286Y-10816286D01*
X16024571Y-10802000D01*
X16053143Y-10787714D01*
X16267428Y-10816286D02*
X16281714Y-10802000D01*
X16310286Y-10787714D01*
X16381714Y-10787714D01*
X16410286Y-10802000D01*
X16424571Y-10816286D01*
X16438857Y-10844857D01*
X16438857Y-10873429D01*
X16424571Y-10916286D01*
X16253143Y-11087714D01*
X16438857Y-11087714D01*
X16567428Y-11087714D02*
X16567428Y-10887714D01*
X16567428Y-10916286D02*
X16581714Y-10902000D01*
X16610286Y-10887714D01*
X16653143Y-10887714D01*
X16681714Y-10902000D01*
X16696000Y-10930572D01*
X16696000Y-11087714D01*
X16696000Y-10930572D02*
X16710286Y-10902000D01*
X16738857Y-10887714D01*
X16781714Y-10887714D01*
X16810286Y-10902000D01*
X16824571Y-10930572D01*
X16824571Y-11087714D01*
X16967429Y-11087714D02*
X16967429Y-10887714D01*
X16967429Y-10916286D02*
X16981714Y-10902000D01*
X17010286Y-10887714D01*
X17053143Y-10887714D01*
X17081714Y-10902000D01*
X17096000Y-10930572D01*
X17096000Y-11087714D01*
X17096000Y-10930572D02*
X17110286Y-10902000D01*
X17138857Y-10887714D01*
X17181714Y-10887714D01*
X17210286Y-10902000D01*
X17224571Y-10930572D01*
X17224571Y-11087714D01*
X17810286Y-10773429D02*
X17553143Y-11159143D01*
X18196000Y-10787714D02*
X18224571Y-10787714D01*
X18253143Y-10802000D01*
X18267428Y-10816286D01*
X18281714Y-10844857D01*
X18296000Y-10902000D01*
X18296000Y-10973429D01*
X18281714Y-11030572D01*
X18267428Y-11059143D01*
X18253143Y-11073429D01*
X18224571Y-11087714D01*
X18196000Y-11087714D01*
X18167428Y-11073429D01*
X18153143Y-11059143D01*
X18138857Y-11030572D01*
X18124571Y-10973429D01*
X18124571Y-10902000D01*
X18138857Y-10844857D01*
X18153143Y-10816286D01*
X18167428Y-10802000D01*
X18196000Y-10787714D01*
X18424571Y-11059143D02*
X18438857Y-11073429D01*
X18424571Y-11087714D01*
X18410286Y-11073429D01*
X18424571Y-11059143D01*
X18424571Y-11087714D01*
X18624571Y-10787714D02*
X18653143Y-10787714D01*
X18681714Y-10802000D01*
X18696000Y-10816286D01*
X18710286Y-10844857D01*
X18724571Y-10902000D01*
X18724571Y-10973429D01*
X18710286Y-11030572D01*
X18696000Y-11059143D01*
X18681714Y-11073429D01*
X18653143Y-11087714D01*
X18624571Y-11087714D01*
X18596000Y-11073429D01*
X18581714Y-11059143D01*
X18567428Y-11030572D01*
X18553143Y-10973429D01*
X18553143Y-10902000D01*
X18567428Y-10844857D01*
X18581714Y-10816286D01*
X18596000Y-10802000D01*
X18624571Y-10787714D01*
X18981714Y-10887714D02*
X18981714Y-11087714D01*
X18910286Y-10773429D02*
X18838857Y-10987714D01*
X19024571Y-10987714D01*
X19196000Y-10787714D02*
X19224571Y-10787714D01*
X19253143Y-10802000D01*
X19267428Y-10816286D01*
X19281714Y-10844857D01*
X19296000Y-10902000D01*
X19296000Y-10973429D01*
X19281714Y-11030572D01*
X19267428Y-11059143D01*
X19253143Y-11073429D01*
X19224571Y-11087714D01*
X19196000Y-11087714D01*
X19167428Y-11073429D01*
X19153143Y-11059143D01*
X19138857Y-11030572D01*
X19124571Y-10973429D01*
X19124571Y-10902000D01*
X19138857Y-10844857D01*
X19153143Y-10816286D01*
X19167428Y-10802000D01*
X19196000Y-10787714D01*
X19410286Y-10787714D02*
X19410286Y-10844857D01*
X19524571Y-10787714D02*
X19524571Y-10844857D01*
X19967428Y-11202000D02*
X19953143Y-11187714D01*
X19924571Y-11144857D01*
X19910286Y-11116286D01*
X19896000Y-11073429D01*
X19881714Y-11002000D01*
X19881714Y-10944857D01*
X19896000Y-10873429D01*
X19910286Y-10830572D01*
X19924571Y-10802000D01*
X19953143Y-10759143D01*
X19967428Y-10744857D01*
X20224571Y-10787714D02*
X20081714Y-10787714D01*
X20067428Y-10930572D01*
X20081714Y-10916286D01*
X20110286Y-10902000D01*
X20181714Y-10902000D01*
X20210286Y-10916286D01*
X20224571Y-10930572D01*
X20238857Y-10959143D01*
X20238857Y-11030572D01*
X20224571Y-11059143D01*
X20210286Y-11073429D01*
X20181714Y-11087714D01*
X20110286Y-11087714D01*
X20081714Y-11073429D01*
X20067428Y-11059143D01*
X20410286Y-10916286D02*
X20381714Y-10902000D01*
X20367428Y-10887714D01*
X20353143Y-10859143D01*
X20353143Y-10844857D01*
X20367428Y-10816286D01*
X20381714Y-10802000D01*
X20410286Y-10787714D01*
X20467428Y-10787714D01*
X20496000Y-10802000D01*
X20510286Y-10816286D01*
X20524571Y-10844857D01*
X20524571Y-10859143D01*
X20510286Y-10887714D01*
X20496000Y-10902000D01*
X20467428Y-10916286D01*
X20410286Y-10916286D01*
X20381714Y-10930572D01*
X20367428Y-10944857D01*
X20353143Y-10973429D01*
X20353143Y-11030572D01*
X20367428Y-11059143D01*
X20381714Y-11073429D01*
X20410286Y-11087714D01*
X20467428Y-11087714D01*
X20496000Y-11073429D01*
X20510286Y-11059143D01*
X20524571Y-11030572D01*
X20524571Y-10973429D01*
X20510286Y-10944857D01*
X20496000Y-10930572D01*
X20467428Y-10916286D01*
X20881714Y-11087714D02*
X20881714Y-10787714D01*
X21010286Y-11087714D02*
X21010286Y-10930572D01*
X20996000Y-10902000D01*
X20967428Y-10887714D01*
X20924571Y-10887714D01*
X20896000Y-10902000D01*
X20881714Y-10916286D01*
X21196000Y-11087714D02*
X21167428Y-11073429D01*
X21153143Y-11059143D01*
X21138857Y-11030572D01*
X21138857Y-10944857D01*
X21153143Y-10916286D01*
X21167428Y-10902000D01*
X21196000Y-10887714D01*
X21238857Y-10887714D01*
X21267428Y-10902000D01*
X21281714Y-10916286D01*
X21296000Y-10944857D01*
X21296000Y-11030572D01*
X21281714Y-11059143D01*
X21267428Y-11073429D01*
X21238857Y-11087714D01*
X21196000Y-11087714D01*
X21467428Y-11087714D02*
X21438857Y-11073429D01*
X21424571Y-11044857D01*
X21424571Y-10787714D01*
X21696000Y-11073429D02*
X21667429Y-11087714D01*
X21610286Y-11087714D01*
X21581714Y-11073429D01*
X21567429Y-11044857D01*
X21567429Y-10930572D01*
X21581714Y-10902000D01*
X21610286Y-10887714D01*
X21667429Y-10887714D01*
X21696000Y-10902000D01*
X21710286Y-10930572D01*
X21710286Y-10959143D01*
X21567429Y-10987714D01*
X21824571Y-11073429D02*
X21853143Y-11087714D01*
X21910286Y-11087714D01*
X21938857Y-11073429D01*
X21953143Y-11044857D01*
X21953143Y-11030572D01*
X21938857Y-11002000D01*
X21910286Y-10987714D01*
X21867429Y-10987714D01*
X21838857Y-10973429D01*
X21824571Y-10944857D01*
X21824571Y-10930572D01*
X21838857Y-10902000D01*
X21867429Y-10887714D01*
X21910286Y-10887714D01*
X21938857Y-10902000D01*
X22053143Y-11202000D02*
X22067429Y-11187714D01*
X22096000Y-11144857D01*
X22110286Y-11116286D01*
X22124571Y-11073429D01*
X22138857Y-11002000D01*
X22138857Y-10944857D01*
X22124571Y-10873429D01*
X22110286Y-10830572D01*
X22096000Y-10802000D01*
X22067429Y-10759143D01*
X22053143Y-10744857D01*
X15236000Y-11288000D02*
X15236000Y-11408000D01*
X15176000Y-11348000D02*
X15296000Y-11348000D01*
X15724571Y-11483714D02*
X15553143Y-11483714D01*
X15638857Y-11483714D02*
X15638857Y-11183714D01*
X15610286Y-11226571D01*
X15581714Y-11255143D01*
X15553143Y-11269429D01*
X15853143Y-11455143D02*
X15867428Y-11469429D01*
X15853143Y-11483714D01*
X15838857Y-11469429D01*
X15853143Y-11455143D01*
X15853143Y-11483714D01*
X15981714Y-11212286D02*
X15996000Y-11198000D01*
X16024571Y-11183714D01*
X16096000Y-11183714D01*
X16124571Y-11198000D01*
X16138857Y-11212286D01*
X16153143Y-11240857D01*
X16153143Y-11269429D01*
X16138857Y-11312286D01*
X15967428Y-11483714D01*
X16153143Y-11483714D01*
X16338857Y-11183714D02*
X16367428Y-11183714D01*
X16396000Y-11198000D01*
X16410286Y-11212286D01*
X16424571Y-11240857D01*
X16438857Y-11298000D01*
X16438857Y-11369429D01*
X16424571Y-11426571D01*
X16410286Y-11455143D01*
X16396000Y-11469429D01*
X16367428Y-11483714D01*
X16338857Y-11483714D01*
X16310286Y-11469429D01*
X16296000Y-11455143D01*
X16281714Y-11426571D01*
X16267428Y-11369429D01*
X16267428Y-11298000D01*
X16281714Y-11240857D01*
X16296000Y-11212286D01*
X16310286Y-11198000D01*
X16338857Y-11183714D01*
X16567428Y-11483714D02*
X16567428Y-11283714D01*
X16567428Y-11312286D02*
X16581714Y-11298000D01*
X16610286Y-11283714D01*
X16653143Y-11283714D01*
X16681714Y-11298000D01*
X16696000Y-11326571D01*
X16696000Y-11483714D01*
X16696000Y-11326571D02*
X16710286Y-11298000D01*
X16738857Y-11283714D01*
X16781714Y-11283714D01*
X16810286Y-11298000D01*
X16824571Y-11326571D01*
X16824571Y-11483714D01*
X16967429Y-11483714D02*
X16967429Y-11283714D01*
X16967429Y-11312286D02*
X16981714Y-11298000D01*
X17010286Y-11283714D01*
X17053143Y-11283714D01*
X17081714Y-11298000D01*
X17096000Y-11326571D01*
X17096000Y-11483714D01*
X17096000Y-11326571D02*
X17110286Y-11298000D01*
X17138857Y-11283714D01*
X17181714Y-11283714D01*
X17210286Y-11298000D01*
X17224571Y-11326571D01*
X17224571Y-11483714D01*
X17810286Y-11169429D02*
X17553143Y-11555143D01*
X18196000Y-11183714D02*
X18224571Y-11183714D01*
X18253143Y-11198000D01*
X18267428Y-11212286D01*
X18281714Y-11240857D01*
X18296000Y-11298000D01*
X18296000Y-11369429D01*
X18281714Y-11426571D01*
X18267428Y-11455143D01*
X18253143Y-11469429D01*
X18224571Y-11483714D01*
X18196000Y-11483714D01*
X18167428Y-11469429D01*
X18153143Y-11455143D01*
X18138857Y-11426571D01*
X18124571Y-11369429D01*
X18124571Y-11298000D01*
X18138857Y-11240857D01*
X18153143Y-11212286D01*
X18167428Y-11198000D01*
X18196000Y-11183714D01*
X18424571Y-11455143D02*
X18438857Y-11469429D01*
X18424571Y-11483714D01*
X18410286Y-11469429D01*
X18424571Y-11455143D01*
X18424571Y-11483714D01*
X18624571Y-11183714D02*
X18653143Y-11183714D01*
X18681714Y-11198000D01*
X18696000Y-11212286D01*
X18710286Y-11240857D01*
X18724571Y-11298000D01*
X18724571Y-11369429D01*
X18710286Y-11426571D01*
X18696000Y-11455143D01*
X18681714Y-11469429D01*
X18653143Y-11483714D01*
X18624571Y-11483714D01*
X18596000Y-11469429D01*
X18581714Y-11455143D01*
X18567428Y-11426571D01*
X18553143Y-11369429D01*
X18553143Y-11298000D01*
X18567428Y-11240857D01*
X18581714Y-11212286D01*
X18596000Y-11198000D01*
X18624571Y-11183714D01*
X18981714Y-11283714D02*
X18981714Y-11483714D01*
X18910286Y-11169429D02*
X18838857Y-11383714D01*
X19024571Y-11383714D01*
X19110286Y-11183714D02*
X19310286Y-11183714D01*
X19181714Y-11483714D01*
X19410286Y-11183714D02*
X19410286Y-11240857D01*
X19524571Y-11183714D02*
X19524571Y-11240857D01*
X19967428Y-11598000D02*
X19953143Y-11583714D01*
X19924571Y-11540857D01*
X19910286Y-11512286D01*
X19896000Y-11469429D01*
X19881714Y-11398000D01*
X19881714Y-11340857D01*
X19896000Y-11269429D01*
X19910286Y-11226571D01*
X19924571Y-11198000D01*
X19953143Y-11155143D01*
X19967428Y-11140857D01*
X20067428Y-11212286D02*
X20081714Y-11198000D01*
X20110286Y-11183714D01*
X20181714Y-11183714D01*
X20210286Y-11198000D01*
X20224571Y-11212286D01*
X20238857Y-11240857D01*
X20238857Y-11269429D01*
X20224571Y-11312286D01*
X20053143Y-11483714D01*
X20238857Y-11483714D01*
X20596000Y-11483714D02*
X20596000Y-11183714D01*
X20724571Y-11483714D02*
X20724571Y-11326571D01*
X20710286Y-11298000D01*
X20681714Y-11283714D01*
X20638857Y-11283714D01*
X20610286Y-11298000D01*
X20596000Y-11312286D01*
X20910286Y-11483714D02*
X20881714Y-11469429D01*
X20867428Y-11455143D01*
X20853143Y-11426571D01*
X20853143Y-11340857D01*
X20867428Y-11312286D01*
X20881714Y-11298000D01*
X20910286Y-11283714D01*
X20953143Y-11283714D01*
X20981714Y-11298000D01*
X20996000Y-11312286D01*
X21010286Y-11340857D01*
X21010286Y-11426571D01*
X20996000Y-11455143D01*
X20981714Y-11469429D01*
X20953143Y-11483714D01*
X20910286Y-11483714D01*
X21181714Y-11483714D02*
X21153143Y-11469429D01*
X21138857Y-11440857D01*
X21138857Y-11183714D01*
X21410286Y-11469429D02*
X21381714Y-11483714D01*
X21324571Y-11483714D01*
X21296000Y-11469429D01*
X21281714Y-11440857D01*
X21281714Y-11326571D01*
X21296000Y-11298000D01*
X21324571Y-11283714D01*
X21381714Y-11283714D01*
X21410286Y-11298000D01*
X21424571Y-11326571D01*
X21424571Y-11355143D01*
X21281714Y-11383714D01*
X21538857Y-11469429D02*
X21567429Y-11483714D01*
X21624571Y-11483714D01*
X21653143Y-11469429D01*
X21667429Y-11440857D01*
X21667429Y-11426571D01*
X21653143Y-11398000D01*
X21624571Y-11383714D01*
X21581714Y-11383714D01*
X21553143Y-11369429D01*
X21538857Y-11340857D01*
X21538857Y-11326571D01*
X21553143Y-11298000D01*
X21581714Y-11283714D01*
X21624571Y-11283714D01*
X21653143Y-11298000D01*
X21767428Y-11598000D02*
X21781714Y-11583714D01*
X21810286Y-11540857D01*
X21824571Y-11512286D01*
X21838857Y-11469429D01*
X21853143Y-11398000D01*
X21853143Y-11340857D01*
X21838857Y-11269429D01*
X21824571Y-11226571D01*
X21810286Y-11198000D01*
X21781714Y-11155143D01*
X21767428Y-11140857D01*
M02*
