G04 #@! TF.FileFunction,Copper,L1,Top,Signal*
%FSLAX46Y46*%
G04 Gerber Fmt 4.6, Leading zero omitted, Abs format (unit mm)*
G04 Created by KiCad (PCBNEW (2015-08-16 BZR 6097, Git b384c94)-product) date 22/01/2016 14:42:29*
%MOMM*%
G01*
G04 APERTURE LIST*
%ADD10C,0.100000*%
%ADD11R,1.350000X0.400000*%
%ADD12C,1.600000*%
%ADD13R,1.400000X1.200000*%
%ADD14R,1.900000X1.900000*%
%ADD15R,1.050000X0.650000*%
%ADD16R,1.900000X1.100000*%
%ADD17R,1.250000X0.600000*%
%ADD18R,2.199640X1.600200*%
%ADD19R,1.600200X2.199640*%
%ADD20C,0.500000*%
%ADD21R,0.700000X0.250000*%
%ADD22R,0.250000X0.700000*%
%ADD23R,1.725000X1.725000*%
%ADD24R,0.350000X0.180000*%
%ADD25R,0.300000X1.500000*%
%ADD26R,0.600000X0.700000*%
%ADD27R,0.700000X0.600000*%
%ADD28R,2.032000X1.727200*%
%ADD29R,1.727200X2.032000*%
%ADD30C,0.584200*%
%ADD31C,0.508000*%
%ADD32C,0.304800*%
%ADD33C,0.152400*%
%ADD34C,0.800000*%
%ADD35C,0.025400*%
G04 APERTURE END LIST*
D10*
D11*
X157157800Y-85060000D03*
X157157800Y-85710000D03*
X157157800Y-86360000D03*
X157157800Y-87010000D03*
X157157800Y-87660000D03*
D12*
X154482800Y-83060000D03*
X154482800Y-89660000D03*
D13*
X156932800Y-89560000D03*
X156932800Y-83160000D03*
D14*
X154482800Y-87810000D03*
X154482800Y-84910000D03*
D15*
X172402500Y-94424500D03*
X177602500Y-94424500D03*
X177602500Y-92274500D03*
X172402500Y-92274500D03*
D16*
X176022000Y-88435500D03*
X176022000Y-85935500D03*
D17*
X162786000Y-84648000D03*
X162786000Y-85598000D03*
X162786000Y-86548000D03*
X159286000Y-86548000D03*
X159286000Y-85598000D03*
X159286000Y-84648000D03*
D18*
X162854640Y-81915000D03*
X159852360Y-81915000D03*
D19*
X164211000Y-91544140D03*
X164211000Y-88541860D03*
D20*
X177546000Y-81127600D03*
D21*
X173114500Y-87438000D03*
X173114500Y-86938000D03*
X173114500Y-86438000D03*
X173114500Y-85938000D03*
X173114500Y-85438000D03*
X173114500Y-84938000D03*
X173114500Y-84438000D03*
X173114500Y-83938000D03*
D22*
X172464500Y-83288000D03*
X171964500Y-83288000D03*
X171464500Y-83288000D03*
X170964500Y-83288000D03*
X170464500Y-83288000D03*
X169964500Y-83288000D03*
X169464500Y-83288000D03*
X168964500Y-83288000D03*
D21*
X168314500Y-83938000D03*
X168314500Y-84438000D03*
X168314500Y-84938000D03*
X168314500Y-85438000D03*
X168314500Y-85938000D03*
X168314500Y-86438000D03*
X168314500Y-86938000D03*
X168314500Y-87438000D03*
D22*
X168964500Y-88088000D03*
X169464500Y-88088000D03*
X169964500Y-88088000D03*
X170464500Y-88088000D03*
X170964500Y-88088000D03*
X171464500Y-88088000D03*
X171964500Y-88088000D03*
X172464500Y-88088000D03*
D23*
X169852000Y-84825500D03*
X169852000Y-86550500D03*
X171577000Y-84825500D03*
X171577000Y-86550500D03*
D24*
X160100500Y-92729000D03*
X160100500Y-92329000D03*
X160100500Y-91929000D03*
X159050500Y-91929000D03*
X159050500Y-92329000D03*
X159050500Y-92729000D03*
D25*
X159575500Y-92329000D03*
D20*
X157353000Y-93916500D03*
X157353000Y-81127600D03*
D26*
X170289600Y-92265500D03*
X171289600Y-92265500D03*
X170289600Y-93484700D03*
X171289600Y-93484700D03*
X168076500Y-93345000D03*
X167076500Y-93345000D03*
D27*
X154178000Y-80653000D03*
X154178000Y-81653000D03*
D26*
X158297500Y-91948000D03*
X157297500Y-91948000D03*
D27*
X161099500Y-91956000D03*
X161099500Y-92956000D03*
D26*
X170289600Y-94703900D03*
X171289600Y-94703900D03*
X171315000Y-90868500D03*
X170315000Y-90868500D03*
X173093000Y-82042000D03*
X172093000Y-82042000D03*
D27*
X177736500Y-85733000D03*
X177736500Y-86733000D03*
X177736500Y-88638000D03*
X177736500Y-87638000D03*
X155448000Y-80653000D03*
X155448000Y-81653000D03*
D26*
X171315000Y-89598500D03*
X170315000Y-89598500D03*
X167084500Y-94589600D03*
X168084500Y-94589600D03*
D10*
G36*
X158637500Y-90690500D02*
X158637500Y-87490500D01*
X160037500Y-87490500D01*
X160037500Y-90690500D01*
X158637500Y-90690500D01*
X158637500Y-90690500D01*
G37*
G36*
X160637500Y-90690500D02*
X160637500Y-87490500D01*
X162037500Y-87490500D01*
X162037500Y-90690500D01*
X160637500Y-90690500D01*
X160637500Y-90690500D01*
G37*
D27*
X164782500Y-83558000D03*
X164782500Y-82558000D03*
D28*
X154940000Y-93980000D03*
X153035000Y-93980000D03*
X182245000Y-93980000D03*
X182245000Y-91440000D03*
X182245000Y-88900000D03*
X182245000Y-86360000D03*
X182245000Y-83820000D03*
X182245000Y-81280000D03*
X180340000Y-81280000D03*
X180340000Y-83820000D03*
X180340000Y-86360000D03*
X180340000Y-88900000D03*
X180340000Y-91440000D03*
X180340000Y-93980000D03*
D29*
X180340000Y-78740000D03*
X177800000Y-78740000D03*
X175260000Y-78740000D03*
X172720000Y-78740000D03*
X170180000Y-78740000D03*
X167640000Y-78740000D03*
X165100000Y-78740000D03*
X162560000Y-78740000D03*
X160020000Y-78740000D03*
X157480000Y-78740000D03*
X154940000Y-78740000D03*
X154940000Y-76835000D03*
X157480000Y-76835000D03*
X160020000Y-76835000D03*
X162560000Y-76835000D03*
X165100000Y-76835000D03*
X167640000Y-76835000D03*
X170180000Y-76835000D03*
X172720000Y-76835000D03*
X175260000Y-76835000D03*
X177800000Y-76835000D03*
X180340000Y-76835000D03*
X180340000Y-98425000D03*
X177800000Y-98425000D03*
X175260000Y-98425000D03*
X172720000Y-98425000D03*
X170180000Y-98425000D03*
X167640000Y-98425000D03*
X165100000Y-98425000D03*
X162560000Y-98425000D03*
X160020000Y-98425000D03*
X157480000Y-98425000D03*
X154940000Y-98425000D03*
X154940000Y-96520000D03*
X157480000Y-96520000D03*
X160020000Y-96520000D03*
X162560000Y-96520000D03*
X165100000Y-96520000D03*
X167640000Y-96520000D03*
X170180000Y-96520000D03*
X172720000Y-96520000D03*
X175260000Y-96520000D03*
X177800000Y-96520000D03*
X180340000Y-96520000D03*
D30*
X168084500Y-94589600D03*
X155448000Y-80653000D03*
X154178000Y-80653000D03*
X172402500Y-94424500D03*
X175577500Y-87122000D03*
X176212500Y-87122000D03*
X176847500Y-87122000D03*
X171577000Y-86550500D03*
X171577000Y-84825500D03*
X169852000Y-84825500D03*
X169852000Y-86550500D03*
X167555790Y-92265500D03*
X168597210Y-92265500D03*
X172402500Y-93472000D03*
X171289600Y-93675200D03*
X171323000Y-90868500D03*
X161337500Y-89090500D03*
X164211000Y-91544140D03*
X173101000Y-81978500D03*
X164782500Y-82558000D03*
X161099500Y-91956000D03*
X164782500Y-83558000D03*
X159337500Y-89090500D03*
X155956000Y-85201200D03*
X158456655Y-91949206D03*
X176720500Y-84010472D03*
X177457103Y-84010472D03*
X178193704Y-84010472D03*
X178723999Y-82648774D03*
D31*
X164561873Y-81368909D03*
D32*
X172402500Y-94424500D02*
X171569000Y-94424500D01*
X171569000Y-94424500D02*
X171289600Y-94703900D01*
X171964500Y-83288000D02*
X171964500Y-82170500D01*
X171964500Y-82170500D02*
X172093000Y-82042000D01*
X170315000Y-89598500D02*
X170315000Y-90868500D01*
X170464500Y-88088000D02*
X170464500Y-89449000D01*
X170464500Y-89449000D02*
X170315000Y-89598500D01*
X159575500Y-92329000D02*
X159575500Y-92929000D01*
X159575500Y-92329000D02*
X159575500Y-92683800D01*
X159575500Y-92683800D02*
X159620700Y-92729000D01*
X159620700Y-92729000D02*
X160100500Y-92729000D01*
X160100500Y-92729000D02*
X160872500Y-92729000D01*
X160872500Y-92729000D02*
X161099500Y-92956000D01*
X176212500Y-87122000D02*
X175577500Y-87122000D01*
X177736500Y-86733000D02*
X177273142Y-86733000D01*
X177273142Y-86733000D02*
X176884142Y-87122000D01*
X176884142Y-87122000D02*
X176847500Y-87122000D01*
X170464500Y-88088000D02*
X170464500Y-87163000D01*
X171964500Y-83288000D02*
X171964500Y-84438000D01*
X171964500Y-84438000D02*
X171577000Y-84825500D01*
D33*
X173114500Y-87438000D02*
X174624500Y-87438000D01*
X176022000Y-88435500D02*
X177534000Y-88435500D01*
X177534000Y-88435500D02*
X177736500Y-88638000D01*
X176022000Y-88435500D02*
X175622000Y-88435500D01*
X175622000Y-88435500D02*
X174624500Y-87438000D01*
X173114500Y-86938000D02*
X174619500Y-86938000D01*
X176022000Y-85935500D02*
X177534000Y-85935500D01*
X177534000Y-85935500D02*
X177736500Y-85733000D01*
X176022000Y-85935500D02*
X175622000Y-85935500D01*
X175622000Y-85935500D02*
X174619500Y-86938000D01*
X167555790Y-92265500D02*
X167142699Y-92265500D01*
X167142699Y-92265500D02*
X165100000Y-94308199D01*
X165100000Y-94308199D02*
X165100000Y-95351600D01*
X165100000Y-95351600D02*
X165100000Y-96520000D01*
X167555790Y-92265500D02*
X167555790Y-90152776D01*
X167555790Y-90152776D02*
X168999066Y-88709500D01*
X168999066Y-88709500D02*
X169229482Y-88709500D01*
X169229482Y-88709500D02*
X169464500Y-88474482D01*
X169464500Y-88474482D02*
X169464500Y-88088000D01*
X169930710Y-92265500D02*
X168597210Y-92265500D01*
X169930710Y-92265500D02*
X170289600Y-92265500D01*
X170289600Y-92265500D02*
X170289600Y-92215500D01*
X170289600Y-93484700D02*
X170289600Y-92265500D01*
X170289600Y-94703900D02*
X170289600Y-93484700D01*
X169464500Y-88088000D02*
X169423089Y-88129411D01*
X157538800Y-85710000D02*
X157861795Y-85710000D01*
X157157800Y-85710000D02*
X157861795Y-85710000D01*
X157861795Y-85710000D02*
X159174000Y-85710000D01*
X159174000Y-85710000D02*
X159286000Y-85598000D01*
X157538800Y-86360000D02*
X157958422Y-86360000D01*
X157958422Y-86360000D02*
X159098000Y-86360000D01*
X157157800Y-86360000D02*
X157958422Y-86360000D01*
X159098000Y-86360000D02*
X159286000Y-86548000D01*
X171289600Y-92265500D02*
X172393500Y-92265500D01*
X172393500Y-92265500D02*
X172402500Y-92274500D01*
X173156101Y-92718399D02*
X172402500Y-93472000D01*
X172466000Y-88900000D02*
X173156101Y-89590101D01*
X173156101Y-89590101D02*
X173156101Y-92718399D01*
X172339000Y-88773000D02*
X172466000Y-88900000D01*
X172148500Y-88582500D02*
X172339000Y-88773000D01*
X172085000Y-88519000D02*
X172148500Y-88582500D01*
X171964500Y-88398500D02*
X172085000Y-88519000D01*
X171964500Y-88088000D02*
X171964500Y-88398500D01*
X172464500Y-88088000D02*
X172464500Y-88390500D01*
X172464500Y-88390500D02*
X173990000Y-89916000D01*
X173990000Y-94081600D02*
X172720000Y-95351600D01*
X173990000Y-89916000D02*
X173990000Y-94081600D01*
X172720000Y-95351600D02*
X172720000Y-96520000D01*
X172720000Y-96367600D02*
X172720000Y-96520000D01*
X172464500Y-88088000D02*
X172464500Y-88313000D01*
X172464500Y-88088000D02*
X172464500Y-88148954D01*
D32*
X160020000Y-96520000D02*
X160020000Y-96034860D01*
X160020000Y-96034860D02*
X164211000Y-91843860D01*
X164211000Y-91843860D02*
X164211000Y-91544140D01*
X160020000Y-96367600D02*
X160020000Y-96520000D01*
X171450000Y-90868500D02*
X172021500Y-90297000D01*
X172021500Y-90297000D02*
X172021500Y-89154000D01*
X171315000Y-90868500D02*
X171450000Y-90868500D01*
X171464500Y-88597000D02*
X171464500Y-88088000D01*
X172021500Y-89154000D02*
X171464500Y-88597000D01*
X171315000Y-90868500D02*
X171315000Y-90818500D01*
X172783500Y-82550000D02*
X173093000Y-82240500D01*
X173093000Y-82240500D02*
X173093000Y-82042000D01*
X172783500Y-82550142D02*
X172783500Y-82550000D01*
X172464500Y-82869000D02*
X172464642Y-82869000D01*
X172464642Y-82869000D02*
X172783500Y-82550142D01*
X172464500Y-83288000D02*
X172464500Y-82869000D01*
X164782500Y-82558000D02*
X163497640Y-82558000D01*
X163497640Y-82558000D02*
X162854640Y-81915000D01*
X161099500Y-91956000D02*
X161049500Y-91956000D01*
X160100500Y-91929000D02*
X161072500Y-91929000D01*
X161072500Y-91929000D02*
X161099500Y-91956000D01*
X160100500Y-91929000D02*
X160100500Y-92271790D01*
X158115000Y-90426442D02*
X158115000Y-88693558D01*
X158115000Y-88693558D02*
X157686442Y-88265000D01*
X157686442Y-88265000D02*
X156339158Y-88265000D01*
X156950399Y-90664801D02*
X157876641Y-90664801D01*
X157876641Y-90664801D02*
X158115000Y-90426442D01*
X154940000Y-93980000D02*
X154940000Y-92675200D01*
X154940000Y-92675200D02*
X156950399Y-90664801D01*
X155956000Y-85201200D02*
X155956000Y-87881842D01*
X155956000Y-87881842D02*
X156339158Y-88265000D01*
X157157800Y-85060000D02*
X158272000Y-85060000D01*
X158272000Y-85060000D02*
X158684000Y-84648000D01*
X158684000Y-84648000D02*
X159286000Y-84648000D01*
X157157800Y-85060000D02*
X156097200Y-85060000D01*
X156097200Y-85060000D02*
X155956000Y-85201200D01*
D34*
X166993886Y-86666386D02*
X167247898Y-86666386D01*
X166651334Y-86666386D02*
X166993886Y-86666386D01*
X166993886Y-86666386D02*
X166993896Y-86666396D01*
X165581749Y-85596801D02*
X166651334Y-86666386D01*
X162787199Y-85596801D02*
X165581749Y-85596801D01*
X165187251Y-86549199D02*
X166256838Y-87618786D01*
X162787199Y-86549199D02*
X165187251Y-86549199D01*
D33*
X167076500Y-93345000D02*
X167076500Y-94581600D01*
X167076500Y-94581600D02*
X167084500Y-94589600D01*
D32*
X158456655Y-91949206D02*
X158476861Y-91929000D01*
X158476861Y-91929000D02*
X159050500Y-91929000D01*
X158456655Y-91949206D02*
X158298706Y-91949206D01*
X158298706Y-91949206D02*
X158297500Y-91948000D01*
X157480000Y-96520000D02*
X157480000Y-96367600D01*
D33*
X178460400Y-85242400D02*
X178460400Y-89560400D01*
X178460400Y-89560400D02*
X175260000Y-92760800D01*
X175260000Y-92760800D02*
X175260000Y-95351600D01*
X175260000Y-95351600D02*
X175260000Y-96520000D01*
X178358800Y-85140800D02*
X178460400Y-85242400D01*
X174914100Y-85140800D02*
X178358800Y-85140800D01*
X173114500Y-86438000D02*
X173616900Y-86438000D01*
X173616900Y-86438000D02*
X174914100Y-85140800D01*
X175260000Y-96367600D02*
X175260000Y-96520000D01*
X178765209Y-89686657D02*
X176352201Y-92099665D01*
X176352201Y-92099665D02*
X176352201Y-94919801D01*
X176352201Y-94919801D02*
X177800000Y-96367600D01*
X177800000Y-96367600D02*
X177800000Y-96520000D01*
X173114500Y-85938000D02*
X173685834Y-85938000D01*
X173685834Y-85938000D02*
X174787844Y-84835990D01*
X174787844Y-84835990D02*
X178485057Y-84835991D01*
X178485057Y-84835991D02*
X178765210Y-85116144D01*
X178765210Y-85116144D02*
X178765209Y-89686657D01*
X173114500Y-85938000D02*
X173459500Y-85938000D01*
X173114500Y-85438000D02*
X173754768Y-85438000D01*
X173754768Y-85438000D02*
X174661589Y-84531181D01*
X174661589Y-84531181D02*
X178611314Y-84531182D01*
X178611314Y-84531182D02*
X179095399Y-85015267D01*
X179095399Y-85015267D02*
X179095399Y-95122999D01*
X179095399Y-95122999D02*
X180340000Y-96367600D01*
X180340000Y-96367600D02*
X180340000Y-96520000D01*
X173114500Y-85438000D02*
X173451500Y-85438000D01*
X174535334Y-84226372D02*
X176504600Y-84226372D01*
X176504600Y-84226372D02*
X176720500Y-84010472D01*
X173114500Y-84938000D02*
X173823703Y-84938000D01*
X173823703Y-84938000D02*
X174535334Y-84226372D01*
X174409078Y-83921562D02*
X174840869Y-83489771D01*
X174840869Y-83489771D02*
X176936402Y-83489771D01*
X176936402Y-83489771D02*
X177457103Y-84010472D01*
X173114500Y-84438000D02*
X173892639Y-84438000D01*
X173892639Y-84438000D02*
X174409078Y-83921562D01*
X173114500Y-83938000D02*
X173616900Y-83938000D01*
X173616900Y-83938000D02*
X174369939Y-83184961D01*
X174369939Y-83184961D02*
X177368193Y-83184961D01*
X177368193Y-83184961D02*
X178193704Y-84010472D01*
X169964500Y-88088000D02*
X169964500Y-88417000D01*
X169964500Y-88417000D02*
X169367190Y-89014310D01*
X169367190Y-89014310D02*
X169125322Y-89014310D01*
X168076500Y-90063132D02*
X168076500Y-93345000D01*
X169125322Y-89014310D02*
X168076500Y-90063132D01*
X168076500Y-93345000D02*
X168076500Y-93395000D01*
X168076500Y-93395000D02*
X168656000Y-93974500D01*
X168656000Y-93974500D02*
X168656000Y-95351600D01*
X168656000Y-95351600D02*
X167640000Y-96367600D01*
X167640000Y-96367600D02*
X167640000Y-96520000D01*
X178289889Y-82758611D02*
X178614162Y-82758611D01*
X178614162Y-82758611D02*
X178723999Y-82648774D01*
X171464500Y-83288000D02*
X171464500Y-81609018D01*
X171464500Y-81609018D02*
X171615719Y-81457799D01*
X171615719Y-81457799D02*
X175482355Y-81457799D01*
X175482355Y-81457799D02*
X176783167Y-82758611D01*
X176783167Y-82758611D02*
X178289889Y-82758611D01*
X171514244Y-81038690D02*
X175494312Y-81038690D01*
X175494312Y-81038690D02*
X176909423Y-82453801D01*
X176909423Y-82453801D02*
X178182577Y-82453801D01*
X178182577Y-82453801D02*
X179095399Y-81540979D01*
X180340000Y-78892400D02*
X180340000Y-78740000D01*
X179095399Y-81540979D02*
X179095399Y-80137001D01*
X179095399Y-80137001D02*
X180340000Y-78892400D01*
X170964500Y-83288000D02*
X170964500Y-81588434D01*
X170964500Y-81588434D02*
X171514244Y-81038690D01*
X170464500Y-83288000D02*
X170464500Y-81657368D01*
X171387988Y-80733880D02*
X175958520Y-80733880D01*
X170464500Y-81657368D02*
X171387988Y-80733880D01*
X175958520Y-80733880D02*
X177800000Y-78892400D01*
X177800000Y-78892400D02*
X177800000Y-78740000D01*
X169964500Y-83288000D02*
X169964500Y-81726302D01*
X171261732Y-80429070D02*
X173723330Y-80429070D01*
X169964500Y-81726302D02*
X171261732Y-80429070D01*
X173723330Y-80429070D02*
X175260000Y-78892400D01*
X175260000Y-78892400D02*
X175260000Y-78740000D01*
X169464500Y-83288000D02*
X169464500Y-81795236D01*
X171135476Y-80124260D02*
X171488140Y-80124260D01*
X169464500Y-81795236D02*
X171135476Y-80124260D01*
X171488140Y-80124260D02*
X172720000Y-78892400D01*
X172720000Y-78892400D02*
X172720000Y-78740000D01*
X168964500Y-83288000D02*
X168964500Y-78939500D01*
X168964500Y-78939500D02*
X169164000Y-78740000D01*
X169164000Y-78740000D02*
X170180000Y-78740000D01*
X167640000Y-79908400D02*
X167640000Y-78740000D01*
X167640000Y-83765900D02*
X167640000Y-79908400D01*
X167812100Y-83938000D02*
X167640000Y-83765900D01*
X168314500Y-83938000D02*
X167812100Y-83938000D01*
X167335190Y-83961090D02*
X167335189Y-82044231D01*
X167335189Y-82044231D02*
X165100000Y-79809042D01*
X165100000Y-79809042D02*
X165100000Y-78740000D01*
X168314500Y-84438000D02*
X167812100Y-84438000D01*
X167812100Y-84438000D02*
X167335190Y-83961090D01*
X167335190Y-83961090D02*
X167335190Y-83892156D01*
X162560000Y-78740000D02*
X162560000Y-79908400D01*
X162560000Y-79908400D02*
X162928280Y-80276680D01*
X162928280Y-80276680D02*
X165136573Y-80276681D01*
X165136573Y-80276681D02*
X167030380Y-82170488D01*
X167030380Y-82170488D02*
X167030380Y-84156280D01*
X167030380Y-84156280D02*
X167812100Y-84938000D01*
X167812100Y-84938000D02*
X168314500Y-84938000D01*
X166725570Y-84144668D02*
X166725570Y-82500972D01*
X160020000Y-78740000D02*
X160020000Y-79908400D01*
X160020000Y-79908400D02*
X160693089Y-80581489D01*
X160693089Y-80581489D02*
X165010316Y-80581490D01*
X165010316Y-80581490D02*
X166725570Y-82296744D01*
X166725570Y-82296744D02*
X166725570Y-82500972D01*
X168314500Y-85438000D02*
X167812100Y-85438000D01*
X167812100Y-85438000D02*
X166725570Y-84351470D01*
X166725570Y-84351470D02*
X166725570Y-84144668D01*
X168314500Y-85938000D02*
X167881034Y-85938000D01*
X167881034Y-85938000D02*
X166420760Y-84477726D01*
X166420760Y-84477726D02*
X166420760Y-82423000D01*
X166420760Y-82423000D02*
X164884059Y-80886299D01*
X164884059Y-80886299D02*
X159473899Y-80886299D01*
X159473899Y-80886299D02*
X157480000Y-78892400D01*
X157480000Y-78892400D02*
X157480000Y-78740000D01*
X168314500Y-86438000D02*
X167949968Y-86438000D01*
X166115950Y-84603982D02*
X166115950Y-82549256D01*
X167949968Y-86438000D02*
X166115950Y-84603982D01*
X166115950Y-82549256D02*
X164935603Y-81368909D01*
X164935603Y-81368909D02*
X164561873Y-81368909D01*
X168964500Y-88088000D02*
X168964500Y-88313000D01*
X168964500Y-88313000D02*
X165239701Y-92037799D01*
X165239701Y-92037799D02*
X165239701Y-93687899D01*
X165239701Y-93687899D02*
X162560000Y-96367600D01*
X162560000Y-96367600D02*
X162560000Y-96520000D01*
D32*
X154482800Y-89660000D02*
X156832800Y-89660000D01*
X156832800Y-89660000D02*
X156932800Y-89560000D01*
X154482800Y-83060000D02*
X156832800Y-83060000D01*
X156832800Y-83060000D02*
X156932800Y-83160000D01*
X154178000Y-81653000D02*
X155448000Y-81653000D01*
X154482800Y-83060000D02*
X154482800Y-81957800D01*
X154482800Y-81957800D02*
X154178000Y-81653000D01*
X154482800Y-84910000D02*
X154482800Y-83060000D01*
X154482800Y-87810000D02*
X154482800Y-84910000D01*
X154482800Y-89660000D02*
X154482800Y-87810000D01*
X154507800Y-89560000D02*
X154482800Y-89585000D01*
X154507800Y-83160000D02*
X154482800Y-83135000D01*
X154178000Y-82830200D02*
X154482800Y-83135000D01*
X170964500Y-88088000D02*
X170964500Y-89248000D01*
X170964500Y-89248000D02*
X171315000Y-89598500D01*
D33*
G36*
X161521742Y-82715100D02*
X161537682Y-82799814D01*
X161587748Y-82877618D01*
X161664140Y-82929815D01*
X161754820Y-82948178D01*
X163954460Y-82948178D01*
X164003237Y-82939000D01*
X164214663Y-82939000D01*
X164215362Y-82942714D01*
X164265428Y-83020518D01*
X164320706Y-83058288D01*
X164269982Y-83090928D01*
X164217785Y-83167320D01*
X164199422Y-83258000D01*
X164199422Y-83858000D01*
X164215362Y-83942714D01*
X164265428Y-84020518D01*
X164341820Y-84072715D01*
X164432500Y-84091078D01*
X165132500Y-84091078D01*
X165217214Y-84075138D01*
X165295018Y-84025072D01*
X165347215Y-83948680D01*
X165365578Y-83858000D01*
X165365578Y-83258000D01*
X165349638Y-83173286D01*
X165299572Y-83095482D01*
X165244294Y-83057712D01*
X165295018Y-83025072D01*
X165347215Y-82948680D01*
X165365578Y-82858000D01*
X165365578Y-82258000D01*
X165359074Y-82223432D01*
X165811150Y-82675508D01*
X165811150Y-84603982D01*
X165834352Y-84720624D01*
X165900424Y-84819508D01*
X167118702Y-86037786D01*
X166911709Y-86037786D01*
X166026236Y-85152314D01*
X165822304Y-85016050D01*
X165581749Y-84968201D01*
X163639600Y-84968201D01*
X163639600Y-84717850D01*
X163582450Y-84660700D01*
X162798700Y-84660700D01*
X162798700Y-84680700D01*
X162773300Y-84680700D01*
X162773300Y-84660700D01*
X161989550Y-84660700D01*
X161932400Y-84717850D01*
X161932400Y-84993471D01*
X161967202Y-85077491D01*
X162011964Y-85122253D01*
X161998482Y-85130928D01*
X161946285Y-85207320D01*
X161927922Y-85298000D01*
X161927922Y-85898000D01*
X161943862Y-85982714D01*
X161993928Y-86060518D01*
X162011520Y-86072538D01*
X161998482Y-86080928D01*
X161946285Y-86157320D01*
X161927922Y-86248000D01*
X161927922Y-86848000D01*
X161943862Y-86932714D01*
X161993928Y-87010518D01*
X162070320Y-87062715D01*
X162161000Y-87081078D01*
X162473502Y-87081078D01*
X162546644Y-87129950D01*
X162787199Y-87177799D01*
X164926877Y-87177799D01*
X164962518Y-87213440D01*
X164280850Y-87213440D01*
X164223700Y-87270590D01*
X164223700Y-88529160D01*
X165182550Y-88529160D01*
X165239700Y-88472010D01*
X165239700Y-87490622D01*
X165812350Y-88063273D01*
X166016283Y-88199537D01*
X166256838Y-88247385D01*
X166295977Y-88239600D01*
X167513000Y-88239600D01*
X167599020Y-88222798D01*
X167674645Y-88172645D01*
X168051212Y-87796078D01*
X168606422Y-87796078D01*
X168606422Y-88240026D01*
X165244178Y-91602270D01*
X165244178Y-90444320D01*
X165228238Y-90359606D01*
X165178172Y-90281802D01*
X165101780Y-90229605D01*
X165011100Y-90211242D01*
X163410900Y-90211242D01*
X163326186Y-90227182D01*
X163248382Y-90277248D01*
X163196185Y-90353640D01*
X163177822Y-90444320D01*
X163177822Y-92338222D01*
X160245122Y-95270922D01*
X159156400Y-95270922D01*
X159071686Y-95286862D01*
X158993882Y-95336928D01*
X158941685Y-95413320D01*
X158923322Y-95504000D01*
X158923322Y-98094800D01*
X158576678Y-98094800D01*
X158576678Y-95504000D01*
X158560738Y-95419286D01*
X158510672Y-95341482D01*
X158434280Y-95289285D01*
X158343600Y-95270922D01*
X156616400Y-95270922D01*
X156531686Y-95286862D01*
X156453882Y-95336928D01*
X156401685Y-95413320D01*
X156383322Y-95504000D01*
X156383322Y-98094800D01*
X156032200Y-98094800D01*
X156032200Y-96589850D01*
X155975050Y-96532700D01*
X154952700Y-96532700D01*
X154952700Y-98094800D01*
X154927300Y-98094800D01*
X154927300Y-96532700D01*
X153904950Y-96532700D01*
X153847800Y-96589850D01*
X153847800Y-98094800D01*
X153365200Y-98094800D01*
X153365200Y-95458529D01*
X153847800Y-95458529D01*
X153847800Y-96450150D01*
X153904950Y-96507300D01*
X154927300Y-96507300D01*
X154927300Y-95332550D01*
X154952700Y-95332550D01*
X154952700Y-96507300D01*
X155975050Y-96507300D01*
X156032200Y-96450150D01*
X156032200Y-95458529D01*
X155997398Y-95374509D01*
X155933092Y-95310203D01*
X155849072Y-95275400D01*
X155009850Y-95275400D01*
X154952700Y-95332550D01*
X154927300Y-95332550D01*
X154870150Y-95275400D01*
X154030928Y-95275400D01*
X153946908Y-95310203D01*
X153882602Y-95374509D01*
X153847800Y-95458529D01*
X153365200Y-95458529D01*
X153365200Y-95076678D01*
X155956000Y-95076678D01*
X156040714Y-95060738D01*
X156118518Y-95010672D01*
X156170715Y-94934280D01*
X156189078Y-94843600D01*
X156189078Y-94572439D01*
X156228047Y-94666751D01*
X156600787Y-95040142D01*
X157088045Y-95242469D01*
X157615640Y-95242930D01*
X158103251Y-95041453D01*
X158476642Y-94668713D01*
X158678969Y-94181455D01*
X158679430Y-93653860D01*
X158477953Y-93166249D01*
X158105213Y-92792858D01*
X157617955Y-92590531D01*
X157090360Y-92590070D01*
X156602749Y-92791547D01*
X156229358Y-93164287D01*
X156189078Y-93261292D01*
X156189078Y-93116400D01*
X156173138Y-93031686D01*
X156123072Y-92953882D01*
X156046680Y-92901685D01*
X155956000Y-92883322D01*
X155321000Y-92883322D01*
X155321000Y-92833016D01*
X156136165Y-92017850D01*
X156768900Y-92017850D01*
X156768900Y-92343472D01*
X156803703Y-92427492D01*
X156868009Y-92491798D01*
X156952029Y-92526600D01*
X157227650Y-92526600D01*
X157284800Y-92469450D01*
X157284800Y-91960700D01*
X156826050Y-91960700D01*
X156768900Y-92017850D01*
X156136165Y-92017850D01*
X156601487Y-91552528D01*
X156768900Y-91552528D01*
X156768900Y-91878150D01*
X156826050Y-91935300D01*
X157284800Y-91935300D01*
X157284800Y-91426550D01*
X157310200Y-91426550D01*
X157310200Y-91935300D01*
X157330200Y-91935300D01*
X157330200Y-91960700D01*
X157310200Y-91960700D01*
X157310200Y-92469450D01*
X157367350Y-92526600D01*
X157642971Y-92526600D01*
X157726991Y-92491798D01*
X157791297Y-92427492D01*
X157798299Y-92410588D01*
X157830428Y-92460518D01*
X157906820Y-92512715D01*
X157997500Y-92531078D01*
X158597500Y-92531078D01*
X158667495Y-92517907D01*
X158674319Y-92528512D01*
X158660785Y-92548320D01*
X158642422Y-92639000D01*
X158642422Y-92819000D01*
X158658362Y-92903714D01*
X158708428Y-92981518D01*
X158784820Y-93033715D01*
X158875500Y-93052078D01*
X159196900Y-93052078D01*
X159196900Y-93124472D01*
X159231703Y-93208492D01*
X159296009Y-93272798D01*
X159380029Y-93307600D01*
X159505650Y-93307600D01*
X159562800Y-93250450D01*
X159562800Y-92341700D01*
X159542800Y-92341700D01*
X159542800Y-92316300D01*
X159562800Y-92316300D01*
X159562800Y-91407550D01*
X159588200Y-91407550D01*
X159588200Y-92316300D01*
X159608200Y-92316300D01*
X159608200Y-92341700D01*
X159588200Y-92341700D01*
X159588200Y-93250450D01*
X159645350Y-93307600D01*
X159770971Y-93307600D01*
X159854991Y-93272798D01*
X159919297Y-93208492D01*
X159954100Y-93124472D01*
X159954100Y-93047600D01*
X160030650Y-93047600D01*
X160087800Y-92990450D01*
X160087800Y-92741700D01*
X160113200Y-92741700D01*
X160113200Y-92990450D01*
X160170350Y-93047600D01*
X160320971Y-93047600D01*
X160373480Y-93025850D01*
X160520900Y-93025850D01*
X160520900Y-93301471D01*
X160555702Y-93385491D01*
X160620008Y-93449797D01*
X160704028Y-93484600D01*
X161029650Y-93484600D01*
X161086800Y-93427450D01*
X161086800Y-92968700D01*
X161112200Y-92968700D01*
X161112200Y-93427450D01*
X161169350Y-93484600D01*
X161494972Y-93484600D01*
X161578992Y-93449797D01*
X161643298Y-93385491D01*
X161678100Y-93301471D01*
X161678100Y-93025850D01*
X161620950Y-92968700D01*
X161112200Y-92968700D01*
X161086800Y-92968700D01*
X160578050Y-92968700D01*
X160520900Y-93025850D01*
X160373480Y-93025850D01*
X160404991Y-93012798D01*
X160469297Y-92948492D01*
X160504100Y-92864472D01*
X160504100Y-92798850D01*
X160446950Y-92741700D01*
X160113200Y-92741700D01*
X160087800Y-92741700D01*
X160067800Y-92741700D01*
X160067800Y-92716300D01*
X160087800Y-92716300D01*
X160087800Y-92696300D01*
X160113200Y-92696300D01*
X160113200Y-92716300D01*
X160446950Y-92716300D01*
X160504100Y-92659150D01*
X160504100Y-92593528D01*
X160477236Y-92528675D01*
X160490215Y-92509680D01*
X160508578Y-92419000D01*
X160508578Y-92310000D01*
X160526583Y-92310000D01*
X160532362Y-92340714D01*
X160582428Y-92418518D01*
X160636416Y-92455407D01*
X160620008Y-92462203D01*
X160555702Y-92526509D01*
X160520900Y-92610529D01*
X160520900Y-92886150D01*
X160578050Y-92943300D01*
X161086800Y-92943300D01*
X161086800Y-92923300D01*
X161112200Y-92923300D01*
X161112200Y-92943300D01*
X161620950Y-92943300D01*
X161678100Y-92886150D01*
X161678100Y-92610529D01*
X161643298Y-92526509D01*
X161578992Y-92462203D01*
X161562088Y-92455201D01*
X161612018Y-92423072D01*
X161664215Y-92346680D01*
X161682578Y-92256000D01*
X161682578Y-91656000D01*
X161666638Y-91571286D01*
X161616572Y-91493482D01*
X161540180Y-91441285D01*
X161449500Y-91422922D01*
X160749500Y-91422922D01*
X160664786Y-91438862D01*
X160586982Y-91488928D01*
X160546619Y-91548000D01*
X160100500Y-91548000D01*
X159954698Y-91577002D01*
X159954100Y-91577402D01*
X159954100Y-91533528D01*
X159919297Y-91449508D01*
X159854991Y-91385202D01*
X159770971Y-91350400D01*
X159645350Y-91350400D01*
X159588200Y-91407550D01*
X159562800Y-91407550D01*
X159505650Y-91350400D01*
X159380029Y-91350400D01*
X159296009Y-91385202D01*
X159231703Y-91449508D01*
X159196900Y-91533528D01*
X159196900Y-91577402D01*
X159196302Y-91577002D01*
X159050500Y-91548000D01*
X158821170Y-91548000D01*
X158814638Y-91513286D01*
X158764572Y-91435482D01*
X158688180Y-91383285D01*
X158597500Y-91364922D01*
X157997500Y-91364922D01*
X157912786Y-91380862D01*
X157834982Y-91430928D01*
X157798093Y-91484916D01*
X157791297Y-91468508D01*
X157726991Y-91404202D01*
X157642971Y-91369400D01*
X157367350Y-91369400D01*
X157310200Y-91426550D01*
X157284800Y-91426550D01*
X157227650Y-91369400D01*
X156952029Y-91369400D01*
X156868009Y-91404202D01*
X156803703Y-91468508D01*
X156768900Y-91552528D01*
X156601487Y-91552528D01*
X157108214Y-91045801D01*
X157876641Y-91045801D01*
X158022444Y-91016799D01*
X158146049Y-90934209D01*
X158384405Y-90695852D01*
X158384408Y-90695850D01*
X158404422Y-90665897D01*
X158404422Y-90690500D01*
X158420362Y-90775214D01*
X158470428Y-90853018D01*
X158546820Y-90905215D01*
X158637500Y-90923578D01*
X160037500Y-90923578D01*
X160122214Y-90907638D01*
X160200018Y-90857572D01*
X160252215Y-90781180D01*
X160270578Y-90690500D01*
X160270578Y-87490500D01*
X160404422Y-87490500D01*
X160404422Y-90690500D01*
X160420362Y-90775214D01*
X160470428Y-90853018D01*
X160546820Y-90905215D01*
X160637500Y-90923578D01*
X162037500Y-90923578D01*
X162122214Y-90907638D01*
X162200018Y-90857572D01*
X162252215Y-90781180D01*
X162270578Y-90690500D01*
X162270578Y-88611710D01*
X163182300Y-88611710D01*
X163182300Y-89687151D01*
X163217102Y-89771171D01*
X163281408Y-89835477D01*
X163365428Y-89870280D01*
X164141150Y-89870280D01*
X164198300Y-89813130D01*
X164198300Y-88554560D01*
X164223700Y-88554560D01*
X164223700Y-89813130D01*
X164280850Y-89870280D01*
X165056572Y-89870280D01*
X165140592Y-89835477D01*
X165204898Y-89771171D01*
X165239700Y-89687151D01*
X165239700Y-88611710D01*
X165182550Y-88554560D01*
X164223700Y-88554560D01*
X164198300Y-88554560D01*
X163239450Y-88554560D01*
X163182300Y-88611710D01*
X162270578Y-88611710D01*
X162270578Y-87490500D01*
X162254638Y-87405786D01*
X162248707Y-87396569D01*
X163182300Y-87396569D01*
X163182300Y-88472010D01*
X163239450Y-88529160D01*
X164198300Y-88529160D01*
X164198300Y-87270590D01*
X164141150Y-87213440D01*
X163365428Y-87213440D01*
X163281408Y-87248243D01*
X163217102Y-87312549D01*
X163182300Y-87396569D01*
X162248707Y-87396569D01*
X162204572Y-87327982D01*
X162128180Y-87275785D01*
X162037500Y-87257422D01*
X160637500Y-87257422D01*
X160552786Y-87273362D01*
X160474982Y-87323428D01*
X160422785Y-87399820D01*
X160404422Y-87490500D01*
X160270578Y-87490500D01*
X160254638Y-87405786D01*
X160204572Y-87327982D01*
X160128180Y-87275785D01*
X160037500Y-87257422D01*
X158637500Y-87257422D01*
X158552786Y-87273362D01*
X158474982Y-87323428D01*
X158422785Y-87399820D01*
X158404422Y-87490500D01*
X158404422Y-88454103D01*
X158384408Y-88424150D01*
X158384405Y-88424148D01*
X157988173Y-88027916D01*
X158026597Y-87989492D01*
X158061400Y-87905472D01*
X158061400Y-87729850D01*
X158004250Y-87672700D01*
X157170500Y-87672700D01*
X157170500Y-87692700D01*
X157145100Y-87692700D01*
X157145100Y-87672700D01*
X157125100Y-87672700D01*
X157125100Y-87647300D01*
X157145100Y-87647300D01*
X157145100Y-87627300D01*
X157170500Y-87627300D01*
X157170500Y-87647300D01*
X158004250Y-87647300D01*
X158061400Y-87590150D01*
X158061400Y-87414528D01*
X158026800Y-87330997D01*
X158047515Y-87300680D01*
X158065878Y-87210000D01*
X158065878Y-86810000D01*
X158049938Y-86725286D01*
X158024039Y-86685038D01*
X158037867Y-86664800D01*
X158427922Y-86664800D01*
X158427922Y-86848000D01*
X158443862Y-86932714D01*
X158493928Y-87010518D01*
X158570320Y-87062715D01*
X158661000Y-87081078D01*
X159911000Y-87081078D01*
X159995714Y-87065138D01*
X160073518Y-87015072D01*
X160125715Y-86938680D01*
X160144078Y-86848000D01*
X160144078Y-86248000D01*
X160128138Y-86163286D01*
X160078072Y-86085482D01*
X160060480Y-86073462D01*
X160073518Y-86065072D01*
X160125715Y-85988680D01*
X160144078Y-85898000D01*
X160144078Y-85298000D01*
X160128138Y-85213286D01*
X160078072Y-85135482D01*
X160060480Y-85123462D01*
X160073518Y-85115072D01*
X160125715Y-85038680D01*
X160144078Y-84948000D01*
X160144078Y-84348000D01*
X160135523Y-84302529D01*
X161932400Y-84302529D01*
X161932400Y-84578150D01*
X161989550Y-84635300D01*
X162773300Y-84635300D01*
X162773300Y-84176550D01*
X162798700Y-84176550D01*
X162798700Y-84635300D01*
X163582450Y-84635300D01*
X163639600Y-84578150D01*
X163639600Y-84302529D01*
X163604798Y-84218509D01*
X163540492Y-84154203D01*
X163456472Y-84119400D01*
X162855850Y-84119400D01*
X162798700Y-84176550D01*
X162773300Y-84176550D01*
X162716150Y-84119400D01*
X162115528Y-84119400D01*
X162031508Y-84154203D01*
X161967202Y-84218509D01*
X161932400Y-84302529D01*
X160135523Y-84302529D01*
X160128138Y-84263286D01*
X160078072Y-84185482D01*
X160001680Y-84133285D01*
X159911000Y-84114922D01*
X158661000Y-84114922D01*
X158576286Y-84130862D01*
X158498482Y-84180928D01*
X158446285Y-84257320D01*
X158427922Y-84348000D01*
X158427922Y-84369685D01*
X158414592Y-84378592D01*
X158114184Y-84679000D01*
X157972823Y-84679000D01*
X157923480Y-84645285D01*
X157832800Y-84626922D01*
X156482800Y-84626922D01*
X156398086Y-84642862D01*
X156341927Y-84679000D01*
X156097200Y-84679000D01*
X156069477Y-84684514D01*
X156060028Y-84680591D01*
X155852881Y-84680410D01*
X155665878Y-84757678D01*
X155665878Y-83960000D01*
X155649938Y-83875286D01*
X155599872Y-83797482D01*
X155523480Y-83745285D01*
X155432800Y-83726922D01*
X155270644Y-83726922D01*
X155354296Y-83643416D01*
X155438347Y-83441000D01*
X155999722Y-83441000D01*
X155999722Y-83760000D01*
X156015662Y-83844714D01*
X156065728Y-83922518D01*
X156142120Y-83974715D01*
X156232800Y-83993078D01*
X157632800Y-83993078D01*
X157717514Y-83977138D01*
X157795318Y-83927072D01*
X157847515Y-83850680D01*
X157865878Y-83760000D01*
X157865878Y-82560000D01*
X157849938Y-82475286D01*
X157799872Y-82397482D01*
X157782019Y-82385283D01*
X158103251Y-82252553D01*
X158371421Y-81984850D01*
X158523940Y-81984850D01*
X158523940Y-82760572D01*
X158558743Y-82844592D01*
X158623049Y-82908898D01*
X158707069Y-82943700D01*
X159782510Y-82943700D01*
X159839660Y-82886550D01*
X159839660Y-81927700D01*
X159865060Y-81927700D01*
X159865060Y-82886550D01*
X159922210Y-82943700D01*
X160997651Y-82943700D01*
X161081671Y-82908898D01*
X161145977Y-82844592D01*
X161180780Y-82760572D01*
X161180780Y-81984850D01*
X161123630Y-81927700D01*
X159865060Y-81927700D01*
X159839660Y-81927700D01*
X158581090Y-81927700D01*
X158523940Y-81984850D01*
X158371421Y-81984850D01*
X158476642Y-81879813D01*
X158523940Y-81765907D01*
X158523940Y-81845150D01*
X158581090Y-81902300D01*
X159839660Y-81902300D01*
X159839660Y-81882300D01*
X159865060Y-81882300D01*
X159865060Y-81902300D01*
X161123630Y-81902300D01*
X161180780Y-81845150D01*
X161180780Y-81191099D01*
X161521742Y-81191099D01*
X161521742Y-82715100D01*
X161521742Y-82715100D01*
G37*
X161521742Y-82715100D02*
X161537682Y-82799814D01*
X161587748Y-82877618D01*
X161664140Y-82929815D01*
X161754820Y-82948178D01*
X163954460Y-82948178D01*
X164003237Y-82939000D01*
X164214663Y-82939000D01*
X164215362Y-82942714D01*
X164265428Y-83020518D01*
X164320706Y-83058288D01*
X164269982Y-83090928D01*
X164217785Y-83167320D01*
X164199422Y-83258000D01*
X164199422Y-83858000D01*
X164215362Y-83942714D01*
X164265428Y-84020518D01*
X164341820Y-84072715D01*
X164432500Y-84091078D01*
X165132500Y-84091078D01*
X165217214Y-84075138D01*
X165295018Y-84025072D01*
X165347215Y-83948680D01*
X165365578Y-83858000D01*
X165365578Y-83258000D01*
X165349638Y-83173286D01*
X165299572Y-83095482D01*
X165244294Y-83057712D01*
X165295018Y-83025072D01*
X165347215Y-82948680D01*
X165365578Y-82858000D01*
X165365578Y-82258000D01*
X165359074Y-82223432D01*
X165811150Y-82675508D01*
X165811150Y-84603982D01*
X165834352Y-84720624D01*
X165900424Y-84819508D01*
X167118702Y-86037786D01*
X166911709Y-86037786D01*
X166026236Y-85152314D01*
X165822304Y-85016050D01*
X165581749Y-84968201D01*
X163639600Y-84968201D01*
X163639600Y-84717850D01*
X163582450Y-84660700D01*
X162798700Y-84660700D01*
X162798700Y-84680700D01*
X162773300Y-84680700D01*
X162773300Y-84660700D01*
X161989550Y-84660700D01*
X161932400Y-84717850D01*
X161932400Y-84993471D01*
X161967202Y-85077491D01*
X162011964Y-85122253D01*
X161998482Y-85130928D01*
X161946285Y-85207320D01*
X161927922Y-85298000D01*
X161927922Y-85898000D01*
X161943862Y-85982714D01*
X161993928Y-86060518D01*
X162011520Y-86072538D01*
X161998482Y-86080928D01*
X161946285Y-86157320D01*
X161927922Y-86248000D01*
X161927922Y-86848000D01*
X161943862Y-86932714D01*
X161993928Y-87010518D01*
X162070320Y-87062715D01*
X162161000Y-87081078D01*
X162473502Y-87081078D01*
X162546644Y-87129950D01*
X162787199Y-87177799D01*
X164926877Y-87177799D01*
X164962518Y-87213440D01*
X164280850Y-87213440D01*
X164223700Y-87270590D01*
X164223700Y-88529160D01*
X165182550Y-88529160D01*
X165239700Y-88472010D01*
X165239700Y-87490622D01*
X165812350Y-88063273D01*
X166016283Y-88199537D01*
X166256838Y-88247385D01*
X166295977Y-88239600D01*
X167513000Y-88239600D01*
X167599020Y-88222798D01*
X167674645Y-88172645D01*
X168051212Y-87796078D01*
X168606422Y-87796078D01*
X168606422Y-88240026D01*
X165244178Y-91602270D01*
X165244178Y-90444320D01*
X165228238Y-90359606D01*
X165178172Y-90281802D01*
X165101780Y-90229605D01*
X165011100Y-90211242D01*
X163410900Y-90211242D01*
X163326186Y-90227182D01*
X163248382Y-90277248D01*
X163196185Y-90353640D01*
X163177822Y-90444320D01*
X163177822Y-92338222D01*
X160245122Y-95270922D01*
X159156400Y-95270922D01*
X159071686Y-95286862D01*
X158993882Y-95336928D01*
X158941685Y-95413320D01*
X158923322Y-95504000D01*
X158923322Y-98094800D01*
X158576678Y-98094800D01*
X158576678Y-95504000D01*
X158560738Y-95419286D01*
X158510672Y-95341482D01*
X158434280Y-95289285D01*
X158343600Y-95270922D01*
X156616400Y-95270922D01*
X156531686Y-95286862D01*
X156453882Y-95336928D01*
X156401685Y-95413320D01*
X156383322Y-95504000D01*
X156383322Y-98094800D01*
X156032200Y-98094800D01*
X156032200Y-96589850D01*
X155975050Y-96532700D01*
X154952700Y-96532700D01*
X154952700Y-98094800D01*
X154927300Y-98094800D01*
X154927300Y-96532700D01*
X153904950Y-96532700D01*
X153847800Y-96589850D01*
X153847800Y-98094800D01*
X153365200Y-98094800D01*
X153365200Y-95458529D01*
X153847800Y-95458529D01*
X153847800Y-96450150D01*
X153904950Y-96507300D01*
X154927300Y-96507300D01*
X154927300Y-95332550D01*
X154952700Y-95332550D01*
X154952700Y-96507300D01*
X155975050Y-96507300D01*
X156032200Y-96450150D01*
X156032200Y-95458529D01*
X155997398Y-95374509D01*
X155933092Y-95310203D01*
X155849072Y-95275400D01*
X155009850Y-95275400D01*
X154952700Y-95332550D01*
X154927300Y-95332550D01*
X154870150Y-95275400D01*
X154030928Y-95275400D01*
X153946908Y-95310203D01*
X153882602Y-95374509D01*
X153847800Y-95458529D01*
X153365200Y-95458529D01*
X153365200Y-95076678D01*
X155956000Y-95076678D01*
X156040714Y-95060738D01*
X156118518Y-95010672D01*
X156170715Y-94934280D01*
X156189078Y-94843600D01*
X156189078Y-94572439D01*
X156228047Y-94666751D01*
X156600787Y-95040142D01*
X157088045Y-95242469D01*
X157615640Y-95242930D01*
X158103251Y-95041453D01*
X158476642Y-94668713D01*
X158678969Y-94181455D01*
X158679430Y-93653860D01*
X158477953Y-93166249D01*
X158105213Y-92792858D01*
X157617955Y-92590531D01*
X157090360Y-92590070D01*
X156602749Y-92791547D01*
X156229358Y-93164287D01*
X156189078Y-93261292D01*
X156189078Y-93116400D01*
X156173138Y-93031686D01*
X156123072Y-92953882D01*
X156046680Y-92901685D01*
X155956000Y-92883322D01*
X155321000Y-92883322D01*
X155321000Y-92833016D01*
X156136165Y-92017850D01*
X156768900Y-92017850D01*
X156768900Y-92343472D01*
X156803703Y-92427492D01*
X156868009Y-92491798D01*
X156952029Y-92526600D01*
X157227650Y-92526600D01*
X157284800Y-92469450D01*
X157284800Y-91960700D01*
X156826050Y-91960700D01*
X156768900Y-92017850D01*
X156136165Y-92017850D01*
X156601487Y-91552528D01*
X156768900Y-91552528D01*
X156768900Y-91878150D01*
X156826050Y-91935300D01*
X157284800Y-91935300D01*
X157284800Y-91426550D01*
X157310200Y-91426550D01*
X157310200Y-91935300D01*
X157330200Y-91935300D01*
X157330200Y-91960700D01*
X157310200Y-91960700D01*
X157310200Y-92469450D01*
X157367350Y-92526600D01*
X157642971Y-92526600D01*
X157726991Y-92491798D01*
X157791297Y-92427492D01*
X157798299Y-92410588D01*
X157830428Y-92460518D01*
X157906820Y-92512715D01*
X157997500Y-92531078D01*
X158597500Y-92531078D01*
X158667495Y-92517907D01*
X158674319Y-92528512D01*
X158660785Y-92548320D01*
X158642422Y-92639000D01*
X158642422Y-92819000D01*
X158658362Y-92903714D01*
X158708428Y-92981518D01*
X158784820Y-93033715D01*
X158875500Y-93052078D01*
X159196900Y-93052078D01*
X159196900Y-93124472D01*
X159231703Y-93208492D01*
X159296009Y-93272798D01*
X159380029Y-93307600D01*
X159505650Y-93307600D01*
X159562800Y-93250450D01*
X159562800Y-92341700D01*
X159542800Y-92341700D01*
X159542800Y-92316300D01*
X159562800Y-92316300D01*
X159562800Y-91407550D01*
X159588200Y-91407550D01*
X159588200Y-92316300D01*
X159608200Y-92316300D01*
X159608200Y-92341700D01*
X159588200Y-92341700D01*
X159588200Y-93250450D01*
X159645350Y-93307600D01*
X159770971Y-93307600D01*
X159854991Y-93272798D01*
X159919297Y-93208492D01*
X159954100Y-93124472D01*
X159954100Y-93047600D01*
X160030650Y-93047600D01*
X160087800Y-92990450D01*
X160087800Y-92741700D01*
X160113200Y-92741700D01*
X160113200Y-92990450D01*
X160170350Y-93047600D01*
X160320971Y-93047600D01*
X160373480Y-93025850D01*
X160520900Y-93025850D01*
X160520900Y-93301471D01*
X160555702Y-93385491D01*
X160620008Y-93449797D01*
X160704028Y-93484600D01*
X161029650Y-93484600D01*
X161086800Y-93427450D01*
X161086800Y-92968700D01*
X161112200Y-92968700D01*
X161112200Y-93427450D01*
X161169350Y-93484600D01*
X161494972Y-93484600D01*
X161578992Y-93449797D01*
X161643298Y-93385491D01*
X161678100Y-93301471D01*
X161678100Y-93025850D01*
X161620950Y-92968700D01*
X161112200Y-92968700D01*
X161086800Y-92968700D01*
X160578050Y-92968700D01*
X160520900Y-93025850D01*
X160373480Y-93025850D01*
X160404991Y-93012798D01*
X160469297Y-92948492D01*
X160504100Y-92864472D01*
X160504100Y-92798850D01*
X160446950Y-92741700D01*
X160113200Y-92741700D01*
X160087800Y-92741700D01*
X160067800Y-92741700D01*
X160067800Y-92716300D01*
X160087800Y-92716300D01*
X160087800Y-92696300D01*
X160113200Y-92696300D01*
X160113200Y-92716300D01*
X160446950Y-92716300D01*
X160504100Y-92659150D01*
X160504100Y-92593528D01*
X160477236Y-92528675D01*
X160490215Y-92509680D01*
X160508578Y-92419000D01*
X160508578Y-92310000D01*
X160526583Y-92310000D01*
X160532362Y-92340714D01*
X160582428Y-92418518D01*
X160636416Y-92455407D01*
X160620008Y-92462203D01*
X160555702Y-92526509D01*
X160520900Y-92610529D01*
X160520900Y-92886150D01*
X160578050Y-92943300D01*
X161086800Y-92943300D01*
X161086800Y-92923300D01*
X161112200Y-92923300D01*
X161112200Y-92943300D01*
X161620950Y-92943300D01*
X161678100Y-92886150D01*
X161678100Y-92610529D01*
X161643298Y-92526509D01*
X161578992Y-92462203D01*
X161562088Y-92455201D01*
X161612018Y-92423072D01*
X161664215Y-92346680D01*
X161682578Y-92256000D01*
X161682578Y-91656000D01*
X161666638Y-91571286D01*
X161616572Y-91493482D01*
X161540180Y-91441285D01*
X161449500Y-91422922D01*
X160749500Y-91422922D01*
X160664786Y-91438862D01*
X160586982Y-91488928D01*
X160546619Y-91548000D01*
X160100500Y-91548000D01*
X159954698Y-91577002D01*
X159954100Y-91577402D01*
X159954100Y-91533528D01*
X159919297Y-91449508D01*
X159854991Y-91385202D01*
X159770971Y-91350400D01*
X159645350Y-91350400D01*
X159588200Y-91407550D01*
X159562800Y-91407550D01*
X159505650Y-91350400D01*
X159380029Y-91350400D01*
X159296009Y-91385202D01*
X159231703Y-91449508D01*
X159196900Y-91533528D01*
X159196900Y-91577402D01*
X159196302Y-91577002D01*
X159050500Y-91548000D01*
X158821170Y-91548000D01*
X158814638Y-91513286D01*
X158764572Y-91435482D01*
X158688180Y-91383285D01*
X158597500Y-91364922D01*
X157997500Y-91364922D01*
X157912786Y-91380862D01*
X157834982Y-91430928D01*
X157798093Y-91484916D01*
X157791297Y-91468508D01*
X157726991Y-91404202D01*
X157642971Y-91369400D01*
X157367350Y-91369400D01*
X157310200Y-91426550D01*
X157284800Y-91426550D01*
X157227650Y-91369400D01*
X156952029Y-91369400D01*
X156868009Y-91404202D01*
X156803703Y-91468508D01*
X156768900Y-91552528D01*
X156601487Y-91552528D01*
X157108214Y-91045801D01*
X157876641Y-91045801D01*
X158022444Y-91016799D01*
X158146049Y-90934209D01*
X158384405Y-90695852D01*
X158384408Y-90695850D01*
X158404422Y-90665897D01*
X158404422Y-90690500D01*
X158420362Y-90775214D01*
X158470428Y-90853018D01*
X158546820Y-90905215D01*
X158637500Y-90923578D01*
X160037500Y-90923578D01*
X160122214Y-90907638D01*
X160200018Y-90857572D01*
X160252215Y-90781180D01*
X160270578Y-90690500D01*
X160270578Y-87490500D01*
X160404422Y-87490500D01*
X160404422Y-90690500D01*
X160420362Y-90775214D01*
X160470428Y-90853018D01*
X160546820Y-90905215D01*
X160637500Y-90923578D01*
X162037500Y-90923578D01*
X162122214Y-90907638D01*
X162200018Y-90857572D01*
X162252215Y-90781180D01*
X162270578Y-90690500D01*
X162270578Y-88611710D01*
X163182300Y-88611710D01*
X163182300Y-89687151D01*
X163217102Y-89771171D01*
X163281408Y-89835477D01*
X163365428Y-89870280D01*
X164141150Y-89870280D01*
X164198300Y-89813130D01*
X164198300Y-88554560D01*
X164223700Y-88554560D01*
X164223700Y-89813130D01*
X164280850Y-89870280D01*
X165056572Y-89870280D01*
X165140592Y-89835477D01*
X165204898Y-89771171D01*
X165239700Y-89687151D01*
X165239700Y-88611710D01*
X165182550Y-88554560D01*
X164223700Y-88554560D01*
X164198300Y-88554560D01*
X163239450Y-88554560D01*
X163182300Y-88611710D01*
X162270578Y-88611710D01*
X162270578Y-87490500D01*
X162254638Y-87405786D01*
X162248707Y-87396569D01*
X163182300Y-87396569D01*
X163182300Y-88472010D01*
X163239450Y-88529160D01*
X164198300Y-88529160D01*
X164198300Y-87270590D01*
X164141150Y-87213440D01*
X163365428Y-87213440D01*
X163281408Y-87248243D01*
X163217102Y-87312549D01*
X163182300Y-87396569D01*
X162248707Y-87396569D01*
X162204572Y-87327982D01*
X162128180Y-87275785D01*
X162037500Y-87257422D01*
X160637500Y-87257422D01*
X160552786Y-87273362D01*
X160474982Y-87323428D01*
X160422785Y-87399820D01*
X160404422Y-87490500D01*
X160270578Y-87490500D01*
X160254638Y-87405786D01*
X160204572Y-87327982D01*
X160128180Y-87275785D01*
X160037500Y-87257422D01*
X158637500Y-87257422D01*
X158552786Y-87273362D01*
X158474982Y-87323428D01*
X158422785Y-87399820D01*
X158404422Y-87490500D01*
X158404422Y-88454103D01*
X158384408Y-88424150D01*
X158384405Y-88424148D01*
X157988173Y-88027916D01*
X158026597Y-87989492D01*
X158061400Y-87905472D01*
X158061400Y-87729850D01*
X158004250Y-87672700D01*
X157170500Y-87672700D01*
X157170500Y-87692700D01*
X157145100Y-87692700D01*
X157145100Y-87672700D01*
X157125100Y-87672700D01*
X157125100Y-87647300D01*
X157145100Y-87647300D01*
X157145100Y-87627300D01*
X157170500Y-87627300D01*
X157170500Y-87647300D01*
X158004250Y-87647300D01*
X158061400Y-87590150D01*
X158061400Y-87414528D01*
X158026800Y-87330997D01*
X158047515Y-87300680D01*
X158065878Y-87210000D01*
X158065878Y-86810000D01*
X158049938Y-86725286D01*
X158024039Y-86685038D01*
X158037867Y-86664800D01*
X158427922Y-86664800D01*
X158427922Y-86848000D01*
X158443862Y-86932714D01*
X158493928Y-87010518D01*
X158570320Y-87062715D01*
X158661000Y-87081078D01*
X159911000Y-87081078D01*
X159995714Y-87065138D01*
X160073518Y-87015072D01*
X160125715Y-86938680D01*
X160144078Y-86848000D01*
X160144078Y-86248000D01*
X160128138Y-86163286D01*
X160078072Y-86085482D01*
X160060480Y-86073462D01*
X160073518Y-86065072D01*
X160125715Y-85988680D01*
X160144078Y-85898000D01*
X160144078Y-85298000D01*
X160128138Y-85213286D01*
X160078072Y-85135482D01*
X160060480Y-85123462D01*
X160073518Y-85115072D01*
X160125715Y-85038680D01*
X160144078Y-84948000D01*
X160144078Y-84348000D01*
X160135523Y-84302529D01*
X161932400Y-84302529D01*
X161932400Y-84578150D01*
X161989550Y-84635300D01*
X162773300Y-84635300D01*
X162773300Y-84176550D01*
X162798700Y-84176550D01*
X162798700Y-84635300D01*
X163582450Y-84635300D01*
X163639600Y-84578150D01*
X163639600Y-84302529D01*
X163604798Y-84218509D01*
X163540492Y-84154203D01*
X163456472Y-84119400D01*
X162855850Y-84119400D01*
X162798700Y-84176550D01*
X162773300Y-84176550D01*
X162716150Y-84119400D01*
X162115528Y-84119400D01*
X162031508Y-84154203D01*
X161967202Y-84218509D01*
X161932400Y-84302529D01*
X160135523Y-84302529D01*
X160128138Y-84263286D01*
X160078072Y-84185482D01*
X160001680Y-84133285D01*
X159911000Y-84114922D01*
X158661000Y-84114922D01*
X158576286Y-84130862D01*
X158498482Y-84180928D01*
X158446285Y-84257320D01*
X158427922Y-84348000D01*
X158427922Y-84369685D01*
X158414592Y-84378592D01*
X158114184Y-84679000D01*
X157972823Y-84679000D01*
X157923480Y-84645285D01*
X157832800Y-84626922D01*
X156482800Y-84626922D01*
X156398086Y-84642862D01*
X156341927Y-84679000D01*
X156097200Y-84679000D01*
X156069477Y-84684514D01*
X156060028Y-84680591D01*
X155852881Y-84680410D01*
X155665878Y-84757678D01*
X155665878Y-83960000D01*
X155649938Y-83875286D01*
X155599872Y-83797482D01*
X155523480Y-83745285D01*
X155432800Y-83726922D01*
X155270644Y-83726922D01*
X155354296Y-83643416D01*
X155438347Y-83441000D01*
X155999722Y-83441000D01*
X155999722Y-83760000D01*
X156015662Y-83844714D01*
X156065728Y-83922518D01*
X156142120Y-83974715D01*
X156232800Y-83993078D01*
X157632800Y-83993078D01*
X157717514Y-83977138D01*
X157795318Y-83927072D01*
X157847515Y-83850680D01*
X157865878Y-83760000D01*
X157865878Y-82560000D01*
X157849938Y-82475286D01*
X157799872Y-82397482D01*
X157782019Y-82385283D01*
X158103251Y-82252553D01*
X158371421Y-81984850D01*
X158523940Y-81984850D01*
X158523940Y-82760572D01*
X158558743Y-82844592D01*
X158623049Y-82908898D01*
X158707069Y-82943700D01*
X159782510Y-82943700D01*
X159839660Y-82886550D01*
X159839660Y-81927700D01*
X159865060Y-81927700D01*
X159865060Y-82886550D01*
X159922210Y-82943700D01*
X160997651Y-82943700D01*
X161081671Y-82908898D01*
X161145977Y-82844592D01*
X161180780Y-82760572D01*
X161180780Y-81984850D01*
X161123630Y-81927700D01*
X159865060Y-81927700D01*
X159839660Y-81927700D01*
X158581090Y-81927700D01*
X158523940Y-81984850D01*
X158371421Y-81984850D01*
X158476642Y-81879813D01*
X158523940Y-81765907D01*
X158523940Y-81845150D01*
X158581090Y-81902300D01*
X159839660Y-81902300D01*
X159839660Y-81882300D01*
X159865060Y-81882300D01*
X159865060Y-81902300D01*
X161123630Y-81902300D01*
X161180780Y-81845150D01*
X161180780Y-81191099D01*
X161521742Y-81191099D01*
X161521742Y-82715100D01*
G36*
X166543422Y-93695000D02*
X166559362Y-93779714D01*
X166609428Y-93857518D01*
X166685820Y-93909715D01*
X166771700Y-93927106D01*
X166771700Y-94008930D01*
X166699786Y-94022462D01*
X166621982Y-94072528D01*
X166569785Y-94148920D01*
X166551422Y-94239600D01*
X166551422Y-94939600D01*
X166567362Y-95024314D01*
X166617428Y-95102118D01*
X166693820Y-95154315D01*
X166784500Y-95172678D01*
X167384500Y-95172678D01*
X167469214Y-95156738D01*
X167547018Y-95106672D01*
X167583907Y-95052684D01*
X167590703Y-95069092D01*
X167655009Y-95133398D01*
X167739029Y-95168200D01*
X168014650Y-95168200D01*
X168071800Y-95111050D01*
X168071800Y-94602300D01*
X168051800Y-94602300D01*
X168051800Y-94576900D01*
X168071800Y-94576900D01*
X168071800Y-94068150D01*
X168014650Y-94011000D01*
X167739029Y-94011000D01*
X167655009Y-94045802D01*
X167590703Y-94110108D01*
X167583701Y-94127012D01*
X167551572Y-94077082D01*
X167475180Y-94024885D01*
X167384500Y-94006522D01*
X167381300Y-94006522D01*
X167381300Y-93927175D01*
X167461214Y-93912138D01*
X167539018Y-93862072D01*
X167576788Y-93806794D01*
X167609428Y-93857518D01*
X167685820Y-93909715D01*
X167776500Y-93928078D01*
X168178526Y-93928078D01*
X168261448Y-94011000D01*
X168154350Y-94011000D01*
X168097200Y-94068150D01*
X168097200Y-94576900D01*
X168117200Y-94576900D01*
X168117200Y-94602300D01*
X168097200Y-94602300D01*
X168097200Y-95111050D01*
X168154350Y-95168200D01*
X168351200Y-95168200D01*
X168351200Y-95225348D01*
X168305626Y-95270922D01*
X166776400Y-95270922D01*
X166691686Y-95286862D01*
X166613882Y-95336928D01*
X166561685Y-95413320D01*
X166543322Y-95504000D01*
X166543322Y-98094800D01*
X166196678Y-98094800D01*
X166196678Y-95504000D01*
X166180738Y-95419286D01*
X166130672Y-95341482D01*
X166054280Y-95289285D01*
X165963600Y-95270922D01*
X165404800Y-95270922D01*
X165404800Y-94434451D01*
X166543422Y-93295829D01*
X166543422Y-93695000D01*
X166543422Y-93695000D01*
G37*
X166543422Y-93695000D02*
X166559362Y-93779714D01*
X166609428Y-93857518D01*
X166685820Y-93909715D01*
X166771700Y-93927106D01*
X166771700Y-94008930D01*
X166699786Y-94022462D01*
X166621982Y-94072528D01*
X166569785Y-94148920D01*
X166551422Y-94239600D01*
X166551422Y-94939600D01*
X166567362Y-95024314D01*
X166617428Y-95102118D01*
X166693820Y-95154315D01*
X166784500Y-95172678D01*
X167384500Y-95172678D01*
X167469214Y-95156738D01*
X167547018Y-95106672D01*
X167583907Y-95052684D01*
X167590703Y-95069092D01*
X167655009Y-95133398D01*
X167739029Y-95168200D01*
X168014650Y-95168200D01*
X168071800Y-95111050D01*
X168071800Y-94602300D01*
X168051800Y-94602300D01*
X168051800Y-94576900D01*
X168071800Y-94576900D01*
X168071800Y-94068150D01*
X168014650Y-94011000D01*
X167739029Y-94011000D01*
X167655009Y-94045802D01*
X167590703Y-94110108D01*
X167583701Y-94127012D01*
X167551572Y-94077082D01*
X167475180Y-94024885D01*
X167384500Y-94006522D01*
X167381300Y-94006522D01*
X167381300Y-93927175D01*
X167461214Y-93912138D01*
X167539018Y-93862072D01*
X167576788Y-93806794D01*
X167609428Y-93857518D01*
X167685820Y-93909715D01*
X167776500Y-93928078D01*
X168178526Y-93928078D01*
X168261448Y-94011000D01*
X168154350Y-94011000D01*
X168097200Y-94068150D01*
X168097200Y-94576900D01*
X168117200Y-94576900D01*
X168117200Y-94602300D01*
X168097200Y-94602300D01*
X168097200Y-95111050D01*
X168154350Y-95168200D01*
X168351200Y-95168200D01*
X168351200Y-95225348D01*
X168305626Y-95270922D01*
X166776400Y-95270922D01*
X166691686Y-95286862D01*
X166613882Y-95336928D01*
X166561685Y-95413320D01*
X166543322Y-95504000D01*
X166543322Y-98094800D01*
X166196678Y-98094800D01*
X166196678Y-95504000D01*
X166180738Y-95419286D01*
X166130672Y-95341482D01*
X166054280Y-95289285D01*
X165963600Y-95270922D01*
X165404800Y-95270922D01*
X165404800Y-94434451D01*
X166543422Y-93295829D01*
X166543422Y-93695000D01*
G36*
X173685200Y-90042252D02*
X173685200Y-93955348D01*
X173151149Y-94489399D01*
X173098950Y-94437200D01*
X172415200Y-94437200D01*
X172415200Y-94920950D01*
X172472350Y-94978100D01*
X172662448Y-94978100D01*
X172504474Y-95136074D01*
X172438402Y-95234958D01*
X172431248Y-95270922D01*
X171856400Y-95270922D01*
X171771686Y-95286862D01*
X171693882Y-95336928D01*
X171641685Y-95413320D01*
X171623322Y-95504000D01*
X171623322Y-98094800D01*
X171276678Y-98094800D01*
X171276678Y-95504000D01*
X171260738Y-95419286D01*
X171210672Y-95341482D01*
X171134280Y-95289285D01*
X171100774Y-95282500D01*
X171219750Y-95282500D01*
X171276900Y-95225350D01*
X171276900Y-94716600D01*
X171256900Y-94716600D01*
X171256900Y-94691200D01*
X171276900Y-94691200D01*
X171276900Y-94671200D01*
X171302300Y-94671200D01*
X171302300Y-94691200D01*
X171322300Y-94691200D01*
X171322300Y-94716600D01*
X171302300Y-94716600D01*
X171302300Y-95225350D01*
X171359450Y-95282500D01*
X171635071Y-95282500D01*
X171719091Y-95247698D01*
X171783397Y-95183392D01*
X171818200Y-95099372D01*
X171818200Y-94972372D01*
X171832029Y-94978100D01*
X172332650Y-94978100D01*
X172389800Y-94920950D01*
X172389800Y-94437200D01*
X172369800Y-94437200D01*
X172369800Y-94411800D01*
X172389800Y-94411800D01*
X172389800Y-94391800D01*
X172415200Y-94391800D01*
X172415200Y-94411800D01*
X173098950Y-94411800D01*
X173156100Y-94354650D01*
X173156100Y-94054028D01*
X173121297Y-93970008D01*
X173056991Y-93905702D01*
X172972971Y-93870900D01*
X172739927Y-93870900D01*
X172843670Y-93767338D01*
X172923109Y-93576028D01*
X172923278Y-93382274D01*
X173371627Y-92933925D01*
X173403549Y-92886150D01*
X173437699Y-92835041D01*
X173460901Y-92718399D01*
X173460901Y-89817953D01*
X173685200Y-90042252D01*
X173685200Y-90042252D01*
G37*
X173685200Y-90042252D02*
X173685200Y-93955348D01*
X173151149Y-94489399D01*
X173098950Y-94437200D01*
X172415200Y-94437200D01*
X172415200Y-94920950D01*
X172472350Y-94978100D01*
X172662448Y-94978100D01*
X172504474Y-95136074D01*
X172438402Y-95234958D01*
X172431248Y-95270922D01*
X171856400Y-95270922D01*
X171771686Y-95286862D01*
X171693882Y-95336928D01*
X171641685Y-95413320D01*
X171623322Y-95504000D01*
X171623322Y-98094800D01*
X171276678Y-98094800D01*
X171276678Y-95504000D01*
X171260738Y-95419286D01*
X171210672Y-95341482D01*
X171134280Y-95289285D01*
X171100774Y-95282500D01*
X171219750Y-95282500D01*
X171276900Y-95225350D01*
X171276900Y-94716600D01*
X171256900Y-94716600D01*
X171256900Y-94691200D01*
X171276900Y-94691200D01*
X171276900Y-94671200D01*
X171302300Y-94671200D01*
X171302300Y-94691200D01*
X171322300Y-94691200D01*
X171322300Y-94716600D01*
X171302300Y-94716600D01*
X171302300Y-95225350D01*
X171359450Y-95282500D01*
X171635071Y-95282500D01*
X171719091Y-95247698D01*
X171783397Y-95183392D01*
X171818200Y-95099372D01*
X171818200Y-94972372D01*
X171832029Y-94978100D01*
X172332650Y-94978100D01*
X172389800Y-94920950D01*
X172389800Y-94437200D01*
X172369800Y-94437200D01*
X172369800Y-94411800D01*
X172389800Y-94411800D01*
X172389800Y-94391800D01*
X172415200Y-94391800D01*
X172415200Y-94411800D01*
X173098950Y-94411800D01*
X173156100Y-94354650D01*
X173156100Y-94054028D01*
X173121297Y-93970008D01*
X173056991Y-93905702D01*
X172972971Y-93870900D01*
X172739927Y-93870900D01*
X172843670Y-93767338D01*
X172923109Y-93576028D01*
X172923278Y-93382274D01*
X173371627Y-92933925D01*
X173403549Y-92886150D01*
X173437699Y-92835041D01*
X173460901Y-92718399D01*
X173460901Y-89817953D01*
X173685200Y-90042252D01*
G36*
X170477200Y-88075300D02*
X170497200Y-88075300D01*
X170497200Y-88100700D01*
X170477200Y-88100700D01*
X170477200Y-88609450D01*
X170534350Y-88666600D01*
X170583500Y-88666600D01*
X170583500Y-89019900D01*
X170384850Y-89019900D01*
X170327700Y-89077050D01*
X170327700Y-89585800D01*
X170347700Y-89585800D01*
X170347700Y-89611200D01*
X170327700Y-89611200D01*
X170327700Y-90119950D01*
X170384850Y-90177100D01*
X170660471Y-90177100D01*
X170744491Y-90142298D01*
X170808797Y-90077992D01*
X170815799Y-90061088D01*
X170847928Y-90111018D01*
X170924320Y-90163215D01*
X171015000Y-90181578D01*
X171598106Y-90181578D01*
X171494262Y-90285422D01*
X171015000Y-90285422D01*
X170930286Y-90301362D01*
X170852482Y-90351428D01*
X170815593Y-90405416D01*
X170808797Y-90389008D01*
X170744491Y-90324702D01*
X170660471Y-90289900D01*
X170384850Y-90289900D01*
X170327700Y-90347050D01*
X170327700Y-90855800D01*
X170347700Y-90855800D01*
X170347700Y-90881200D01*
X170327700Y-90881200D01*
X170327700Y-91389950D01*
X170384850Y-91447100D01*
X170660471Y-91447100D01*
X170744491Y-91412298D01*
X170808797Y-91347992D01*
X170815799Y-91331088D01*
X170847928Y-91381018D01*
X170924320Y-91433215D01*
X171015000Y-91451578D01*
X171615000Y-91451578D01*
X171699714Y-91435638D01*
X171777518Y-91385572D01*
X171829715Y-91309180D01*
X171848078Y-91218500D01*
X171848078Y-91009238D01*
X172135800Y-90721516D01*
X172135800Y-91554300D01*
X171704000Y-91554300D01*
X171676305Y-91559511D01*
X171650868Y-91575879D01*
X171633803Y-91600854D01*
X171627800Y-91630500D01*
X171627800Y-91690158D01*
X171589600Y-91682422D01*
X171018200Y-91682422D01*
X171018200Y-91630500D01*
X171012989Y-91602805D01*
X170996621Y-91577368D01*
X170971646Y-91560303D01*
X170942000Y-91554300D01*
X169938700Y-91554300D01*
X169938700Y-91434330D01*
X169969529Y-91447100D01*
X170245150Y-91447100D01*
X170302300Y-91389950D01*
X170302300Y-90881200D01*
X170282300Y-90881200D01*
X170282300Y-90855800D01*
X170302300Y-90855800D01*
X170302300Y-90347050D01*
X170245150Y-90289900D01*
X169969529Y-90289900D01*
X169938700Y-90302670D01*
X169938700Y-90164330D01*
X169969529Y-90177100D01*
X170245150Y-90177100D01*
X170302300Y-90119950D01*
X170302300Y-89611200D01*
X170282300Y-89611200D01*
X170282300Y-89585800D01*
X170302300Y-89585800D01*
X170302300Y-89077050D01*
X170245150Y-89019900D01*
X169969529Y-89019900D01*
X169938700Y-89032670D01*
X169938700Y-88995064D01*
X170275032Y-88658732D01*
X170294028Y-88666600D01*
X170394650Y-88666600D01*
X170451800Y-88609450D01*
X170451800Y-88100700D01*
X170431800Y-88100700D01*
X170431800Y-88075300D01*
X170451800Y-88075300D01*
X170451800Y-88055300D01*
X170477200Y-88055300D01*
X170477200Y-88075300D01*
X170477200Y-88075300D01*
G37*
X170477200Y-88075300D02*
X170497200Y-88075300D01*
X170497200Y-88100700D01*
X170477200Y-88100700D01*
X170477200Y-88609450D01*
X170534350Y-88666600D01*
X170583500Y-88666600D01*
X170583500Y-89019900D01*
X170384850Y-89019900D01*
X170327700Y-89077050D01*
X170327700Y-89585800D01*
X170347700Y-89585800D01*
X170347700Y-89611200D01*
X170327700Y-89611200D01*
X170327700Y-90119950D01*
X170384850Y-90177100D01*
X170660471Y-90177100D01*
X170744491Y-90142298D01*
X170808797Y-90077992D01*
X170815799Y-90061088D01*
X170847928Y-90111018D01*
X170924320Y-90163215D01*
X171015000Y-90181578D01*
X171598106Y-90181578D01*
X171494262Y-90285422D01*
X171015000Y-90285422D01*
X170930286Y-90301362D01*
X170852482Y-90351428D01*
X170815593Y-90405416D01*
X170808797Y-90389008D01*
X170744491Y-90324702D01*
X170660471Y-90289900D01*
X170384850Y-90289900D01*
X170327700Y-90347050D01*
X170327700Y-90855800D01*
X170347700Y-90855800D01*
X170347700Y-90881200D01*
X170327700Y-90881200D01*
X170327700Y-91389950D01*
X170384850Y-91447100D01*
X170660471Y-91447100D01*
X170744491Y-91412298D01*
X170808797Y-91347992D01*
X170815799Y-91331088D01*
X170847928Y-91381018D01*
X170924320Y-91433215D01*
X171015000Y-91451578D01*
X171615000Y-91451578D01*
X171699714Y-91435638D01*
X171777518Y-91385572D01*
X171829715Y-91309180D01*
X171848078Y-91218500D01*
X171848078Y-91009238D01*
X172135800Y-90721516D01*
X172135800Y-91554300D01*
X171704000Y-91554300D01*
X171676305Y-91559511D01*
X171650868Y-91575879D01*
X171633803Y-91600854D01*
X171627800Y-91630500D01*
X171627800Y-91690158D01*
X171589600Y-91682422D01*
X171018200Y-91682422D01*
X171018200Y-91630500D01*
X171012989Y-91602805D01*
X170996621Y-91577368D01*
X170971646Y-91560303D01*
X170942000Y-91554300D01*
X169938700Y-91554300D01*
X169938700Y-91434330D01*
X169969529Y-91447100D01*
X170245150Y-91447100D01*
X170302300Y-91389950D01*
X170302300Y-90881200D01*
X170282300Y-90881200D01*
X170282300Y-90855800D01*
X170302300Y-90855800D01*
X170302300Y-90347050D01*
X170245150Y-90289900D01*
X169969529Y-90289900D01*
X169938700Y-90302670D01*
X169938700Y-90164330D01*
X169969529Y-90177100D01*
X170245150Y-90177100D01*
X170302300Y-90119950D01*
X170302300Y-89611200D01*
X170282300Y-89611200D01*
X170282300Y-89585800D01*
X170302300Y-89585800D01*
X170302300Y-89077050D01*
X170245150Y-89019900D01*
X169969529Y-89019900D01*
X169938700Y-89032670D01*
X169938700Y-88995064D01*
X170275032Y-88658732D01*
X170294028Y-88666600D01*
X170394650Y-88666600D01*
X170451800Y-88609450D01*
X170451800Y-88100700D01*
X170431800Y-88100700D01*
X170431800Y-88075300D01*
X170451800Y-88075300D01*
X170451800Y-88055300D01*
X170477200Y-88055300D01*
X170477200Y-88075300D01*
G36*
X177157900Y-86663150D02*
X177215050Y-86720300D01*
X177723800Y-86720300D01*
X177723800Y-86700300D01*
X177749200Y-86700300D01*
X177749200Y-86720300D01*
X177769200Y-86720300D01*
X177769200Y-86745700D01*
X177749200Y-86745700D01*
X177749200Y-87625300D01*
X177769200Y-87625300D01*
X177769200Y-87650700D01*
X177749200Y-87650700D01*
X177749200Y-87670700D01*
X177723800Y-87670700D01*
X177723800Y-87650700D01*
X177215050Y-87650700D01*
X177157900Y-87707850D01*
X177157900Y-87752241D01*
X177139072Y-87722982D01*
X177062680Y-87670785D01*
X176972000Y-87652422D01*
X175269974Y-87652422D01*
X174840026Y-87222474D01*
X174785932Y-87186330D01*
X174835026Y-87153526D01*
X175185702Y-86802850D01*
X177157900Y-86802850D01*
X177157900Y-87078471D01*
X177192702Y-87162491D01*
X177215711Y-87185500D01*
X177192702Y-87208509D01*
X177157900Y-87292529D01*
X177157900Y-87568150D01*
X177215050Y-87625300D01*
X177723800Y-87625300D01*
X177723800Y-86745700D01*
X177215050Y-86745700D01*
X177157900Y-86802850D01*
X175185702Y-86802850D01*
X175269974Y-86718578D01*
X176972000Y-86718578D01*
X177056714Y-86702638D01*
X177134518Y-86652572D01*
X177157900Y-86618352D01*
X177157900Y-86663150D01*
X177157900Y-86663150D01*
G37*
X177157900Y-86663150D02*
X177215050Y-86720300D01*
X177723800Y-86720300D01*
X177723800Y-86700300D01*
X177749200Y-86700300D01*
X177749200Y-86720300D01*
X177769200Y-86720300D01*
X177769200Y-86745700D01*
X177749200Y-86745700D01*
X177749200Y-87625300D01*
X177769200Y-87625300D01*
X177769200Y-87650700D01*
X177749200Y-87650700D01*
X177749200Y-87670700D01*
X177723800Y-87670700D01*
X177723800Y-87650700D01*
X177215050Y-87650700D01*
X177157900Y-87707850D01*
X177157900Y-87752241D01*
X177139072Y-87722982D01*
X177062680Y-87670785D01*
X176972000Y-87652422D01*
X175269974Y-87652422D01*
X174840026Y-87222474D01*
X174785932Y-87186330D01*
X174835026Y-87153526D01*
X175185702Y-86802850D01*
X177157900Y-86802850D01*
X177157900Y-87078471D01*
X177192702Y-87162491D01*
X177215711Y-87185500D01*
X177192702Y-87208509D01*
X177157900Y-87292529D01*
X177157900Y-87568150D01*
X177215050Y-87625300D01*
X177723800Y-87625300D01*
X177723800Y-86745700D01*
X177215050Y-86745700D01*
X177157900Y-86802850D01*
X175185702Y-86802850D01*
X175269974Y-86718578D01*
X176972000Y-86718578D01*
X177056714Y-86702638D01*
X177134518Y-86652572D01*
X177157900Y-86618352D01*
X177157900Y-86663150D01*
G36*
X169864700Y-84812800D02*
X171564300Y-84812800D01*
X171564300Y-84792800D01*
X171589700Y-84792800D01*
X171589700Y-84812800D01*
X171609700Y-84812800D01*
X171609700Y-84838200D01*
X171589700Y-84838200D01*
X171589700Y-86537800D01*
X171609700Y-86537800D01*
X171609700Y-86563200D01*
X171589700Y-86563200D01*
X171589700Y-86583200D01*
X171564300Y-86583200D01*
X171564300Y-86563200D01*
X169864700Y-86563200D01*
X169864700Y-86583200D01*
X169839300Y-86583200D01*
X169839300Y-86563200D01*
X169819300Y-86563200D01*
X169819300Y-86537800D01*
X169839300Y-86537800D01*
X169839300Y-84838200D01*
X169864700Y-84838200D01*
X169864700Y-86537800D01*
X171564300Y-86537800D01*
X171564300Y-84838200D01*
X169864700Y-84838200D01*
X169839300Y-84838200D01*
X169819300Y-84838200D01*
X169819300Y-84812800D01*
X169839300Y-84812800D01*
X169839300Y-84792800D01*
X169864700Y-84792800D01*
X169864700Y-84812800D01*
X169864700Y-84812800D01*
G37*
X169864700Y-84812800D02*
X171564300Y-84812800D01*
X171564300Y-84792800D01*
X171589700Y-84792800D01*
X171589700Y-84812800D01*
X171609700Y-84812800D01*
X171609700Y-84838200D01*
X171589700Y-84838200D01*
X171589700Y-86537800D01*
X171609700Y-86537800D01*
X171609700Y-86563200D01*
X171589700Y-86563200D01*
X171589700Y-86583200D01*
X171564300Y-86583200D01*
X171564300Y-86563200D01*
X169864700Y-86563200D01*
X169864700Y-86583200D01*
X169839300Y-86583200D01*
X169839300Y-86563200D01*
X169819300Y-86563200D01*
X169819300Y-86537800D01*
X169839300Y-86537800D01*
X169839300Y-84838200D01*
X169864700Y-84838200D01*
X169864700Y-86537800D01*
X171564300Y-86537800D01*
X171564300Y-84838200D01*
X169864700Y-84838200D01*
X169839300Y-84838200D01*
X169819300Y-84838200D01*
X169819300Y-84812800D01*
X169839300Y-84812800D01*
X169839300Y-84792800D01*
X169864700Y-84792800D01*
X169864700Y-84812800D01*
G36*
X179090922Y-82143600D02*
X179106862Y-82228314D01*
X179156928Y-82306118D01*
X179233320Y-82358315D01*
X179324000Y-82376678D01*
X181914800Y-82376678D01*
X181914800Y-82727800D01*
X180409850Y-82727800D01*
X180352700Y-82784950D01*
X180352700Y-83807300D01*
X181914800Y-83807300D01*
X181914800Y-83832700D01*
X180352700Y-83832700D01*
X180352700Y-84855050D01*
X180409850Y-84912200D01*
X181914800Y-84912200D01*
X181914800Y-85263322D01*
X179400199Y-85263322D01*
X179400199Y-85015267D01*
X179397063Y-84999502D01*
X179379698Y-84912200D01*
X180270150Y-84912200D01*
X180327300Y-84855050D01*
X180327300Y-83832700D01*
X179152550Y-83832700D01*
X179095400Y-83889850D01*
X179095400Y-84584216D01*
X178826840Y-84315656D01*
X178727956Y-84249584D01*
X178663542Y-84236771D01*
X178714313Y-84114500D01*
X178714494Y-83907353D01*
X178635389Y-83715905D01*
X178489042Y-83569302D01*
X178297732Y-83489863D01*
X178103978Y-83489694D01*
X177677695Y-83063411D01*
X178402174Y-83063411D01*
X178428661Y-83089944D01*
X178619971Y-83169383D01*
X178827118Y-83169564D01*
X179018566Y-83090459D01*
X179095400Y-83013759D01*
X179095400Y-83750150D01*
X179152550Y-83807300D01*
X180327300Y-83807300D01*
X180327300Y-82784950D01*
X180270150Y-82727800D01*
X179278529Y-82727800D01*
X179244618Y-82741846D01*
X179244789Y-82545655D01*
X179165684Y-82354207D01*
X179019337Y-82207604D01*
X178906627Y-82160803D01*
X179090922Y-81976508D01*
X179090922Y-82143600D01*
X179090922Y-82143600D01*
G37*
X179090922Y-82143600D02*
X179106862Y-82228314D01*
X179156928Y-82306118D01*
X179233320Y-82358315D01*
X179324000Y-82376678D01*
X181914800Y-82376678D01*
X181914800Y-82727800D01*
X180409850Y-82727800D01*
X180352700Y-82784950D01*
X180352700Y-83807300D01*
X181914800Y-83807300D01*
X181914800Y-83832700D01*
X180352700Y-83832700D01*
X180352700Y-84855050D01*
X180409850Y-84912200D01*
X181914800Y-84912200D01*
X181914800Y-85263322D01*
X179400199Y-85263322D01*
X179400199Y-85015267D01*
X179397063Y-84999502D01*
X179379698Y-84912200D01*
X180270150Y-84912200D01*
X180327300Y-84855050D01*
X180327300Y-83832700D01*
X179152550Y-83832700D01*
X179095400Y-83889850D01*
X179095400Y-84584216D01*
X178826840Y-84315656D01*
X178727956Y-84249584D01*
X178663542Y-84236771D01*
X178714313Y-84114500D01*
X178714494Y-83907353D01*
X178635389Y-83715905D01*
X178489042Y-83569302D01*
X178297732Y-83489863D01*
X178103978Y-83489694D01*
X177677695Y-83063411D01*
X178402174Y-83063411D01*
X178428661Y-83089944D01*
X178619971Y-83169383D01*
X178827118Y-83169564D01*
X179018566Y-83090459D01*
X179095400Y-83013759D01*
X179095400Y-83750150D01*
X179152550Y-83807300D01*
X180327300Y-83807300D01*
X180327300Y-82784950D01*
X180270150Y-82727800D01*
X179278529Y-82727800D01*
X179244618Y-82741846D01*
X179244789Y-82545655D01*
X179165684Y-82354207D01*
X179019337Y-82207604D01*
X178906627Y-82160803D01*
X179090922Y-81976508D01*
X179090922Y-82143600D01*
G36*
X153843322Y-79756000D02*
X153859262Y-79840714D01*
X153909328Y-79918518D01*
X153985720Y-79970715D01*
X154076400Y-79989078D01*
X155803600Y-79989078D01*
X155888314Y-79973138D01*
X155966118Y-79923072D01*
X156018315Y-79846680D01*
X156036678Y-79756000D01*
X156036678Y-77165200D01*
X156383322Y-77165200D01*
X156383322Y-79756000D01*
X156399262Y-79840714D01*
X156449328Y-79918518D01*
X156525720Y-79970715D01*
X156616400Y-79989078D01*
X156635588Y-79989078D01*
X156602749Y-80002647D01*
X156229358Y-80375387D01*
X156027031Y-80862645D01*
X156026623Y-81329325D01*
X156015138Y-81268286D01*
X155965072Y-81190482D01*
X155911084Y-81153593D01*
X155927492Y-81146797D01*
X155991798Y-81082491D01*
X156026600Y-80998471D01*
X156026600Y-80722850D01*
X155969450Y-80665700D01*
X155460700Y-80665700D01*
X155460700Y-80685700D01*
X155435300Y-80685700D01*
X155435300Y-80665700D01*
X154926550Y-80665700D01*
X154869400Y-80722850D01*
X154869400Y-80998471D01*
X154904202Y-81082491D01*
X154968508Y-81146797D01*
X154985412Y-81153799D01*
X154935482Y-81185928D01*
X154883285Y-81262320D01*
X154881325Y-81272000D01*
X154745837Y-81272000D01*
X154745138Y-81268286D01*
X154695072Y-81190482D01*
X154641084Y-81153593D01*
X154657492Y-81146797D01*
X154721798Y-81082491D01*
X154756600Y-80998471D01*
X154756600Y-80722850D01*
X154699450Y-80665700D01*
X154190700Y-80665700D01*
X154190700Y-80685700D01*
X154165300Y-80685700D01*
X154165300Y-80665700D01*
X153656550Y-80665700D01*
X153599400Y-80722850D01*
X153599400Y-80998471D01*
X153634202Y-81082491D01*
X153698508Y-81146797D01*
X153715412Y-81153799D01*
X153665482Y-81185928D01*
X153613285Y-81262320D01*
X153594922Y-81353000D01*
X153594922Y-81953000D01*
X153610862Y-82037714D01*
X153660928Y-82115518D01*
X153737320Y-82167715D01*
X153828000Y-82186078D01*
X153904316Y-82186078D01*
X153900906Y-82187487D01*
X153611304Y-82476584D01*
X153454379Y-82854501D01*
X153454022Y-83263703D01*
X153610287Y-83641894D01*
X153695167Y-83726922D01*
X153532800Y-83726922D01*
X153448086Y-83742862D01*
X153370282Y-83792928D01*
X153365200Y-83800366D01*
X153365200Y-80307529D01*
X153599400Y-80307529D01*
X153599400Y-80583150D01*
X153656550Y-80640300D01*
X154165300Y-80640300D01*
X154165300Y-80181550D01*
X154190700Y-80181550D01*
X154190700Y-80640300D01*
X154699450Y-80640300D01*
X154756600Y-80583150D01*
X154756600Y-80307529D01*
X154869400Y-80307529D01*
X154869400Y-80583150D01*
X154926550Y-80640300D01*
X155435300Y-80640300D01*
X155435300Y-80181550D01*
X155460700Y-80181550D01*
X155460700Y-80640300D01*
X155969450Y-80640300D01*
X156026600Y-80583150D01*
X156026600Y-80307529D01*
X155991798Y-80223509D01*
X155927492Y-80159203D01*
X155843472Y-80124400D01*
X155517850Y-80124400D01*
X155460700Y-80181550D01*
X155435300Y-80181550D01*
X155378150Y-80124400D01*
X155052528Y-80124400D01*
X154968508Y-80159203D01*
X154904202Y-80223509D01*
X154869400Y-80307529D01*
X154756600Y-80307529D01*
X154721798Y-80223509D01*
X154657492Y-80159203D01*
X154573472Y-80124400D01*
X154247850Y-80124400D01*
X154190700Y-80181550D01*
X154165300Y-80181550D01*
X154108150Y-80124400D01*
X153782528Y-80124400D01*
X153698508Y-80159203D01*
X153634202Y-80223509D01*
X153599400Y-80307529D01*
X153365200Y-80307529D01*
X153365200Y-77165200D01*
X153843322Y-77165200D01*
X153843322Y-79756000D01*
X153843322Y-79756000D01*
G37*
X153843322Y-79756000D02*
X153859262Y-79840714D01*
X153909328Y-79918518D01*
X153985720Y-79970715D01*
X154076400Y-79989078D01*
X155803600Y-79989078D01*
X155888314Y-79973138D01*
X155966118Y-79923072D01*
X156018315Y-79846680D01*
X156036678Y-79756000D01*
X156036678Y-77165200D01*
X156383322Y-77165200D01*
X156383322Y-79756000D01*
X156399262Y-79840714D01*
X156449328Y-79918518D01*
X156525720Y-79970715D01*
X156616400Y-79989078D01*
X156635588Y-79989078D01*
X156602749Y-80002647D01*
X156229358Y-80375387D01*
X156027031Y-80862645D01*
X156026623Y-81329325D01*
X156015138Y-81268286D01*
X155965072Y-81190482D01*
X155911084Y-81153593D01*
X155927492Y-81146797D01*
X155991798Y-81082491D01*
X156026600Y-80998471D01*
X156026600Y-80722850D01*
X155969450Y-80665700D01*
X155460700Y-80665700D01*
X155460700Y-80685700D01*
X155435300Y-80685700D01*
X155435300Y-80665700D01*
X154926550Y-80665700D01*
X154869400Y-80722850D01*
X154869400Y-80998471D01*
X154904202Y-81082491D01*
X154968508Y-81146797D01*
X154985412Y-81153799D01*
X154935482Y-81185928D01*
X154883285Y-81262320D01*
X154881325Y-81272000D01*
X154745837Y-81272000D01*
X154745138Y-81268286D01*
X154695072Y-81190482D01*
X154641084Y-81153593D01*
X154657492Y-81146797D01*
X154721798Y-81082491D01*
X154756600Y-80998471D01*
X154756600Y-80722850D01*
X154699450Y-80665700D01*
X154190700Y-80665700D01*
X154190700Y-80685700D01*
X154165300Y-80685700D01*
X154165300Y-80665700D01*
X153656550Y-80665700D01*
X153599400Y-80722850D01*
X153599400Y-80998471D01*
X153634202Y-81082491D01*
X153698508Y-81146797D01*
X153715412Y-81153799D01*
X153665482Y-81185928D01*
X153613285Y-81262320D01*
X153594922Y-81353000D01*
X153594922Y-81953000D01*
X153610862Y-82037714D01*
X153660928Y-82115518D01*
X153737320Y-82167715D01*
X153828000Y-82186078D01*
X153904316Y-82186078D01*
X153900906Y-82187487D01*
X153611304Y-82476584D01*
X153454379Y-82854501D01*
X153454022Y-83263703D01*
X153610287Y-83641894D01*
X153695167Y-83726922D01*
X153532800Y-83726922D01*
X153448086Y-83742862D01*
X153370282Y-83792928D01*
X153365200Y-83800366D01*
X153365200Y-80307529D01*
X153599400Y-80307529D01*
X153599400Y-80583150D01*
X153656550Y-80640300D01*
X154165300Y-80640300D01*
X154165300Y-80181550D01*
X154190700Y-80181550D01*
X154190700Y-80640300D01*
X154699450Y-80640300D01*
X154756600Y-80583150D01*
X154756600Y-80307529D01*
X154869400Y-80307529D01*
X154869400Y-80583150D01*
X154926550Y-80640300D01*
X155435300Y-80640300D01*
X155435300Y-80181550D01*
X155460700Y-80181550D01*
X155460700Y-80640300D01*
X155969450Y-80640300D01*
X156026600Y-80583150D01*
X156026600Y-80307529D01*
X155991798Y-80223509D01*
X155927492Y-80159203D01*
X155843472Y-80124400D01*
X155517850Y-80124400D01*
X155460700Y-80181550D01*
X155435300Y-80181550D01*
X155378150Y-80124400D01*
X155052528Y-80124400D01*
X154968508Y-80159203D01*
X154904202Y-80223509D01*
X154869400Y-80307529D01*
X154756600Y-80307529D01*
X154721798Y-80223509D01*
X154657492Y-80159203D01*
X154573472Y-80124400D01*
X154247850Y-80124400D01*
X154190700Y-80181550D01*
X154165300Y-80181550D01*
X154108150Y-80124400D01*
X153782528Y-80124400D01*
X153698508Y-80159203D01*
X153634202Y-80223509D01*
X153599400Y-80307529D01*
X153365200Y-80307529D01*
X153365200Y-77165200D01*
X153843322Y-77165200D01*
X153843322Y-79756000D01*
G36*
X172105700Y-82029300D02*
X172125700Y-82029300D01*
X172125700Y-82054700D01*
X172105700Y-82054700D01*
X172105700Y-82563450D01*
X172162850Y-82620600D01*
X172181055Y-82620600D01*
X172121721Y-82709400D01*
X172034350Y-82709400D01*
X171977200Y-82766550D01*
X171977200Y-83275300D01*
X171997200Y-83275300D01*
X171997200Y-83300700D01*
X171977200Y-83300700D01*
X171977200Y-83320700D01*
X171951800Y-83320700D01*
X171951800Y-83300700D01*
X171931800Y-83300700D01*
X171931800Y-83275300D01*
X171951800Y-83275300D01*
X171951800Y-82766550D01*
X171894650Y-82709400D01*
X171843700Y-82709400D01*
X171843700Y-82620600D01*
X172023150Y-82620600D01*
X172080300Y-82563450D01*
X172080300Y-82054700D01*
X172060300Y-82054700D01*
X172060300Y-82029300D01*
X172080300Y-82029300D01*
X172080300Y-82009300D01*
X172105700Y-82009300D01*
X172105700Y-82029300D01*
X172105700Y-82029300D01*
G37*
X172105700Y-82029300D02*
X172125700Y-82029300D01*
X172125700Y-82054700D01*
X172105700Y-82054700D01*
X172105700Y-82563450D01*
X172162850Y-82620600D01*
X172181055Y-82620600D01*
X172121721Y-82709400D01*
X172034350Y-82709400D01*
X171977200Y-82766550D01*
X171977200Y-83275300D01*
X171997200Y-83275300D01*
X171997200Y-83300700D01*
X171977200Y-83300700D01*
X171977200Y-83320700D01*
X171951800Y-83320700D01*
X171951800Y-83300700D01*
X171931800Y-83300700D01*
X171931800Y-83275300D01*
X171951800Y-83275300D01*
X171951800Y-82766550D01*
X171894650Y-82709400D01*
X171843700Y-82709400D01*
X171843700Y-82620600D01*
X172023150Y-82620600D01*
X172080300Y-82563450D01*
X172080300Y-82054700D01*
X172060300Y-82054700D01*
X172060300Y-82029300D01*
X172080300Y-82029300D01*
X172080300Y-82009300D01*
X172105700Y-82009300D01*
X172105700Y-82029300D01*
D35*
G36*
X167948520Y-86813480D02*
X167952721Y-86816267D01*
X167957500Y-86817200D01*
X168643300Y-86817200D01*
X168643300Y-87045800D01*
X167081200Y-87045800D01*
X167081200Y-86309200D01*
X167444240Y-86309200D01*
X167948520Y-86813480D01*
X167948520Y-86813480D01*
G37*
X167948520Y-86813480D02*
X167952721Y-86816267D01*
X167957500Y-86817200D01*
X168643300Y-86817200D01*
X168643300Y-87045800D01*
X167081200Y-87045800D01*
X167081200Y-86309200D01*
X167444240Y-86309200D01*
X167948520Y-86813480D01*
G36*
X168643300Y-87553800D02*
X167957500Y-87553800D01*
X167952559Y-87554801D01*
X167948520Y-87557520D01*
X167507740Y-87998300D01*
X166255700Y-87998300D01*
X166255700Y-87325200D01*
X168643300Y-87325200D01*
X168643300Y-87553800D01*
X168643300Y-87553800D01*
G37*
X168643300Y-87553800D02*
X167957500Y-87553800D01*
X167952559Y-87554801D01*
X167948520Y-87557520D01*
X167507740Y-87998300D01*
X166255700Y-87998300D01*
X166255700Y-87325200D01*
X168643300Y-87325200D01*
X168643300Y-87553800D01*
M02*
