M48
INCH,TZ
T1C0.013
T2C0.040
T3C0.047
%
G90
G05
T1
X61355Y-31868
X61400Y-33544
X61855Y-31868
X62400Y-35975
X62731Y-35075
X63519Y-35075
X63575Y-35978
X64650Y-36041
X64875Y-32503
X64875Y-32897
X65022Y-31603
X65727Y-36156
X66172Y-35700
X66325Y-35000
X66325Y-35290
X66871Y-33396
X66871Y-34075
X67550Y-33396
X67550Y-34075
X67968Y-35042
X67979Y-34753
X68128Y-35825
X68150Y-32275
X68208Y-36421
X68522Y-35350
X68950Y-36200
X69125Y-34300
X69375Y-34300
X69625Y-34300
X72402Y-33000
X72402Y-34500
X72402Y-35000
X74000Y-35000
T2
X60250Y-36000
X61000Y-30250
X61000Y-31000
X61000Y-36000
X61000Y-37000
X61000Y-37750
X62000Y-30250
X62000Y-31000
X62000Y-37000
X62000Y-37750
X63000Y-30250
X63000Y-31000
X63000Y-37000
X63000Y-37750
X64000Y-30250
X64000Y-31000
X64000Y-37000
X64000Y-37750
X65000Y-30250
X65000Y-31000
X65000Y-37000
X65000Y-37750
X66000Y-30250
X66000Y-31000
X66000Y-37000
X66000Y-37750
X67000Y-30250
X67000Y-31000
X67000Y-37000
X67000Y-37750
X68000Y-30250
X68000Y-31000
X68000Y-37000
X68000Y-37750
X69000Y-30250
X69000Y-31000
X69000Y-37000
X69000Y-37750
X70000Y-30250
X70000Y-31000
X70000Y-37000
X70000Y-37750
X71000Y-30250
X71000Y-31000
X71000Y-37000
X71000Y-37750
X72000Y-30250
X72000Y-31000
X72000Y-37000
X72000Y-37750
X73000Y-30250
X73000Y-31000
X73000Y-37000
X73000Y-37750
X74000Y-30250
X74000Y-31000
X74000Y-37000
X74000Y-37750
T3
X60820Y-32701
X60820Y-35299
T0
M30
