%FSLAX45Y45*%
G04 Gerber Fmt 4.5, Leading zero omitted, Abs format (unit mm)*
G04 Created by KiCad (PCBNEW (2015-08-16 BZR 6097, Git b384c94)-product) date 22/01/2016 14:41:56*
%MOMM*%
G01*
G04 APERTURE LIST*
%ADD10C,0.127000*%
%ADD11C,0.150000*%
%ADD12C,0.200000*%
%ADD13C,0.300000*%
G04 APERTURE END LIST*
D10*
D11*
X15303500Y-9842500D02*
X15303500Y-7683500D01*
X18224500Y-9842500D02*
X15303500Y-9842500D01*
X18224500Y-7683500D02*
X18224500Y-9842500D01*
X15303500Y-7683500D02*
X18224500Y-7683500D01*
D12*
X15401290Y-8048790D02*
X15434310Y-8081810D01*
X15434310Y-8048790D02*
X15401290Y-8081810D01*
X15528290Y-8048790D02*
X15561310Y-8081810D01*
X15561310Y-8048790D02*
X15528290Y-8081810D01*
X15579090Y-8503610D02*
X15612110Y-8536630D01*
X15612110Y-8503610D02*
X15579090Y-8536630D01*
X15829155Y-9178411D02*
X15862175Y-9211431D01*
X15862175Y-9178411D02*
X15829155Y-9211431D01*
X15917240Y-8892540D02*
X15950260Y-8925560D01*
X15950260Y-8892540D02*
X15917240Y-8925560D01*
X16093440Y-9179090D02*
X16126460Y-9212110D01*
X16126460Y-9179090D02*
X16093440Y-9212110D01*
X16117240Y-8892540D02*
X16150260Y-8925560D01*
X16150260Y-8892540D02*
X16117240Y-8925560D01*
X16404590Y-9137904D02*
X16437610Y-9170924D01*
X16437610Y-9137904D02*
X16404590Y-9170924D01*
X16439677Y-8120381D02*
X16472697Y-8153401D01*
X16472697Y-8120381D02*
X16439677Y-8153401D01*
X16461740Y-8239290D02*
X16494760Y-8272310D01*
X16494760Y-8239290D02*
X16461740Y-8272310D01*
X16461740Y-8339290D02*
X16494760Y-8372310D01*
X16494760Y-8339290D02*
X16461740Y-8372310D01*
X16739069Y-9210040D02*
X16772089Y-9243060D01*
X16772089Y-9210040D02*
X16739069Y-9243060D01*
X16791940Y-9442450D02*
X16824960Y-9475470D01*
X16824960Y-9442450D02*
X16791940Y-9475470D01*
X16843211Y-9210040D02*
X16876231Y-9243060D01*
X16876231Y-9210040D02*
X16843211Y-9243060D01*
X16968690Y-8466040D02*
X17001710Y-8499060D01*
X17001710Y-8466040D02*
X16968690Y-8499060D01*
X16968690Y-8638540D02*
X17001710Y-8671560D01*
X17001710Y-8638540D02*
X16968690Y-8671560D01*
X17112450Y-9351010D02*
X17145470Y-9384030D01*
X17145470Y-9351010D02*
X17112450Y-9384030D01*
X17115790Y-9070340D02*
X17148810Y-9103360D01*
X17148810Y-9070340D02*
X17115790Y-9103360D01*
X17141190Y-8466040D02*
X17174210Y-8499060D01*
X17174210Y-8466040D02*
X17141190Y-8499060D01*
X17141190Y-8638540D02*
X17174210Y-8671560D01*
X17174210Y-8638540D02*
X17141190Y-8671560D01*
X17223740Y-9330690D02*
X17256760Y-9363710D01*
X17256760Y-9330690D02*
X17223740Y-9363710D01*
X17223740Y-9425940D02*
X17256760Y-9458960D01*
X17256760Y-9425940D02*
X17223740Y-9458960D01*
X17293590Y-8181340D02*
X17326610Y-8214360D01*
X17326610Y-8181340D02*
X17293590Y-8214360D01*
X17541240Y-8695690D02*
X17574260Y-8728710D01*
X17574260Y-8695690D02*
X17541240Y-8728710D01*
X17604740Y-8695690D02*
X17637760Y-8728710D01*
X17637760Y-8695690D02*
X17604740Y-8728710D01*
X17655540Y-8384537D02*
X17688560Y-8417557D01*
X17688560Y-8384537D02*
X17655540Y-8417557D01*
X17668240Y-8695690D02*
X17701260Y-8728710D01*
X17701260Y-8695690D02*
X17668240Y-8728710D01*
X17729200Y-8384537D02*
X17762220Y-8417557D01*
X17762220Y-8384537D02*
X17729200Y-8417557D01*
X17802860Y-8384537D02*
X17835880Y-8417557D01*
X17835880Y-8384537D02*
X17802860Y-8417557D01*
X17855890Y-8248367D02*
X17888910Y-8281387D01*
X17888910Y-8248367D02*
X17855890Y-8281387D01*
X15354300Y-9398000D02*
G75*
G03X15354300Y-9398000I-50800J0D01*
G01*
X15544800Y-7683500D02*
G75*
G03X15544800Y-7683500I-50800J0D01*
G01*
X15544800Y-7874000D02*
G75*
G03X15544800Y-7874000I-50800J0D01*
G01*
X15544800Y-9398000D02*
G75*
G03X15544800Y-9398000I-50800J0D01*
G01*
X15544800Y-9652000D02*
G75*
G03X15544800Y-9652000I-50800J0D01*
G01*
X15544800Y-9842500D02*
G75*
G03X15544800Y-9842500I-50800J0D01*
G01*
X15798800Y-7683500D02*
G75*
G03X15798800Y-7683500I-50800J0D01*
G01*
X15798800Y-7874000D02*
G75*
G03X15798800Y-7874000I-50800J0D01*
G01*
X15798800Y-9652000D02*
G75*
G03X15798800Y-9652000I-50800J0D01*
G01*
X15798800Y-9842500D02*
G75*
G03X15798800Y-9842500I-50800J0D01*
G01*
X16052800Y-7683500D02*
G75*
G03X16052800Y-7683500I-50800J0D01*
G01*
X16052800Y-7874000D02*
G75*
G03X16052800Y-7874000I-50800J0D01*
G01*
X16052800Y-9652000D02*
G75*
G03X16052800Y-9652000I-50800J0D01*
G01*
X16052800Y-9842500D02*
G75*
G03X16052800Y-9842500I-50800J0D01*
G01*
X16306800Y-7683500D02*
G75*
G03X16306800Y-7683500I-50800J0D01*
G01*
X16306800Y-7874000D02*
G75*
G03X16306800Y-7874000I-50800J0D01*
G01*
X16306800Y-9652000D02*
G75*
G03X16306800Y-9652000I-50800J0D01*
G01*
X16306800Y-9842500D02*
G75*
G03X16306800Y-9842500I-50800J0D01*
G01*
X16560800Y-7683500D02*
G75*
G03X16560800Y-7683500I-50800J0D01*
G01*
X16560800Y-7874000D02*
G75*
G03X16560800Y-7874000I-50800J0D01*
G01*
X16560800Y-9652000D02*
G75*
G03X16560800Y-9652000I-50800J0D01*
G01*
X16560800Y-9842500D02*
G75*
G03X16560800Y-9842500I-50800J0D01*
G01*
X16814800Y-7683500D02*
G75*
G03X16814800Y-7683500I-50800J0D01*
G01*
X16814800Y-7874000D02*
G75*
G03X16814800Y-7874000I-50800J0D01*
G01*
X16814800Y-9652000D02*
G75*
G03X16814800Y-9652000I-50800J0D01*
G01*
X16814800Y-9842500D02*
G75*
G03X16814800Y-9842500I-50800J0D01*
G01*
X17068800Y-7683500D02*
G75*
G03X17068800Y-7683500I-50800J0D01*
G01*
X17068800Y-7874000D02*
G75*
G03X17068800Y-7874000I-50800J0D01*
G01*
X17068800Y-9652000D02*
G75*
G03X17068800Y-9652000I-50800J0D01*
G01*
X17068800Y-9842500D02*
G75*
G03X17068800Y-9842500I-50800J0D01*
G01*
X17322800Y-7683500D02*
G75*
G03X17322800Y-7683500I-50800J0D01*
G01*
X17322800Y-7874000D02*
G75*
G03X17322800Y-7874000I-50800J0D01*
G01*
X17322800Y-9652000D02*
G75*
G03X17322800Y-9652000I-50800J0D01*
G01*
X17322800Y-9842500D02*
G75*
G03X17322800Y-9842500I-50800J0D01*
G01*
X17576800Y-7683500D02*
G75*
G03X17576800Y-7683500I-50800J0D01*
G01*
X17576800Y-7874000D02*
G75*
G03X17576800Y-7874000I-50800J0D01*
G01*
X17576800Y-9652000D02*
G75*
G03X17576800Y-9652000I-50800J0D01*
G01*
X17576800Y-9842500D02*
G75*
G03X17576800Y-9842500I-50800J0D01*
G01*
X17830800Y-7683500D02*
G75*
G03X17830800Y-7683500I-50800J0D01*
G01*
X17830800Y-7874000D02*
G75*
G03X17830800Y-7874000I-50800J0D01*
G01*
X17830800Y-9652000D02*
G75*
G03X17830800Y-9652000I-50800J0D01*
G01*
X17830800Y-9842500D02*
G75*
G03X17830800Y-9842500I-50800J0D01*
G01*
X18084800Y-7683500D02*
G75*
G03X18084800Y-7683500I-50800J0D01*
G01*
X18084800Y-7874000D02*
G75*
G03X18084800Y-7874000I-50800J0D01*
G01*
X18084800Y-8128000D02*
G75*
G03X18084800Y-8128000I-50800J0D01*
G01*
X18084800Y-8382000D02*
G75*
G03X18084800Y-8382000I-50800J0D01*
G01*
X18084800Y-8636000D02*
G75*
G03X18084800Y-8636000I-50800J0D01*
G01*
X18084800Y-8890000D02*
G75*
G03X18084800Y-8890000I-50800J0D01*
G01*
X18084800Y-9144000D02*
G75*
G03X18084800Y-9144000I-50800J0D01*
G01*
X18084800Y-9398000D02*
G75*
G03X18084800Y-9398000I-50800J0D01*
G01*
X18084800Y-9652000D02*
G75*
G03X18084800Y-9652000I-50800J0D01*
G01*
X18084800Y-9842500D02*
G75*
G03X18084800Y-9842500I-50800J0D01*
G01*
X18275300Y-8128000D02*
G75*
G03X18275300Y-8128000I-50800J0D01*
G01*
X18275300Y-8382000D02*
G75*
G03X18275300Y-8382000I-50800J0D01*
G01*
X18275300Y-8636000D02*
G75*
G03X18275300Y-8636000I-50800J0D01*
G01*
X18275300Y-8890000D02*
G75*
G03X18275300Y-8890000I-50800J0D01*
G01*
X18275300Y-9144000D02*
G75*
G03X18275300Y-9144000I-50800J0D01*
G01*
X18275300Y-9398000D02*
G75*
G03X18275300Y-9398000I-50800J0D01*
G01*
X15448280Y-8246000D02*
X15448280Y-8366000D01*
X15388280Y-8306000D02*
X15508280Y-8306000D01*
X15448280Y-8906000D02*
X15448280Y-9026000D01*
X15388280Y-8966000D02*
X15508280Y-8966000D01*
D13*
X15567428Y-10315714D02*
X15567428Y-10015714D01*
X15638857Y-10015714D01*
X15681714Y-10030000D01*
X15710286Y-10058572D01*
X15724571Y-10087143D01*
X15738857Y-10144286D01*
X15738857Y-10187143D01*
X15724571Y-10244286D01*
X15710286Y-10272857D01*
X15681714Y-10301429D01*
X15638857Y-10315714D01*
X15567428Y-10315714D01*
X15867428Y-10315714D02*
X15867428Y-10115714D01*
X15867428Y-10172857D02*
X15881714Y-10144286D01*
X15896000Y-10130000D01*
X15924571Y-10115714D01*
X15953143Y-10115714D01*
X16053143Y-10315714D02*
X16053143Y-10115714D01*
X16053143Y-10015714D02*
X16038857Y-10030000D01*
X16053143Y-10044286D01*
X16067428Y-10030000D01*
X16053143Y-10015714D01*
X16053143Y-10044286D01*
X16238857Y-10315714D02*
X16210286Y-10301429D01*
X16196000Y-10272857D01*
X16196000Y-10015714D01*
X16396000Y-10315714D02*
X16367428Y-10301429D01*
X16353143Y-10272857D01*
X16353143Y-10015714D01*
X16738857Y-10315714D02*
X16738857Y-10015714D01*
X16838857Y-10230000D01*
X16938857Y-10015714D01*
X16938857Y-10315714D01*
X17210286Y-10315714D02*
X17210286Y-10158572D01*
X17196000Y-10130000D01*
X17167429Y-10115714D01*
X17110286Y-10115714D01*
X17081714Y-10130000D01*
X17210286Y-10301429D02*
X17181714Y-10315714D01*
X17110286Y-10315714D01*
X17081714Y-10301429D01*
X17067429Y-10272857D01*
X17067429Y-10244286D01*
X17081714Y-10215714D01*
X17110286Y-10201429D01*
X17181714Y-10201429D01*
X17210286Y-10187143D01*
X17353143Y-10115714D02*
X17353143Y-10415714D01*
X17353143Y-10130000D02*
X17381714Y-10115714D01*
X17438857Y-10115714D01*
X17467429Y-10130000D01*
X17481714Y-10144286D01*
X17496000Y-10172857D01*
X17496000Y-10258572D01*
X17481714Y-10287143D01*
X17467429Y-10301429D01*
X17438857Y-10315714D01*
X17381714Y-10315714D01*
X17353143Y-10301429D01*
X17624571Y-10287143D02*
X17638857Y-10301429D01*
X17624571Y-10315714D01*
X17610286Y-10301429D01*
X17624571Y-10287143D01*
X17624571Y-10315714D01*
X17624571Y-10130000D02*
X17638857Y-10144286D01*
X17624571Y-10158572D01*
X17610286Y-10144286D01*
X17624571Y-10130000D01*
X17624571Y-10158572D01*
X15262980Y-10793490D02*
X15296000Y-10826510D01*
X15296000Y-10793490D02*
X15262980Y-10826510D01*
X15624571Y-10645714D02*
X15653143Y-10645714D01*
X15681714Y-10660000D01*
X15696000Y-10674286D01*
X15710286Y-10702857D01*
X15724571Y-10760000D01*
X15724571Y-10831429D01*
X15710286Y-10888572D01*
X15696000Y-10917143D01*
X15681714Y-10931429D01*
X15653143Y-10945714D01*
X15624571Y-10945714D01*
X15596000Y-10931429D01*
X15581714Y-10917143D01*
X15567428Y-10888572D01*
X15553143Y-10831429D01*
X15553143Y-10760000D01*
X15567428Y-10702857D01*
X15581714Y-10674286D01*
X15596000Y-10660000D01*
X15624571Y-10645714D01*
X15853143Y-10917143D02*
X15867428Y-10931429D01*
X15853143Y-10945714D01*
X15838857Y-10931429D01*
X15853143Y-10917143D01*
X15853143Y-10945714D01*
X15967428Y-10645714D02*
X16153143Y-10645714D01*
X16053143Y-10760000D01*
X16096000Y-10760000D01*
X16124571Y-10774286D01*
X16138857Y-10788572D01*
X16153143Y-10817143D01*
X16153143Y-10888572D01*
X16138857Y-10917143D01*
X16124571Y-10931429D01*
X16096000Y-10945714D01*
X16010286Y-10945714D01*
X15981714Y-10931429D01*
X15967428Y-10917143D01*
X16253143Y-10645714D02*
X16438857Y-10645714D01*
X16338857Y-10760000D01*
X16381714Y-10760000D01*
X16410286Y-10774286D01*
X16424571Y-10788572D01*
X16438857Y-10817143D01*
X16438857Y-10888572D01*
X16424571Y-10917143D01*
X16410286Y-10931429D01*
X16381714Y-10945714D01*
X16296000Y-10945714D01*
X16267428Y-10931429D01*
X16253143Y-10917143D01*
X16567428Y-10945714D02*
X16567428Y-10745714D01*
X16567428Y-10774286D02*
X16581714Y-10760000D01*
X16610286Y-10745714D01*
X16653143Y-10745714D01*
X16681714Y-10760000D01*
X16696000Y-10788572D01*
X16696000Y-10945714D01*
X16696000Y-10788572D02*
X16710286Y-10760000D01*
X16738857Y-10745714D01*
X16781714Y-10745714D01*
X16810286Y-10760000D01*
X16824571Y-10788572D01*
X16824571Y-10945714D01*
X16967429Y-10945714D02*
X16967429Y-10745714D01*
X16967429Y-10774286D02*
X16981714Y-10760000D01*
X17010286Y-10745714D01*
X17053143Y-10745714D01*
X17081714Y-10760000D01*
X17096000Y-10788572D01*
X17096000Y-10945714D01*
X17096000Y-10788572D02*
X17110286Y-10760000D01*
X17138857Y-10745714D01*
X17181714Y-10745714D01*
X17210286Y-10760000D01*
X17224571Y-10788572D01*
X17224571Y-10945714D01*
X17810286Y-10631429D02*
X17553143Y-11017143D01*
X18196000Y-10645714D02*
X18224571Y-10645714D01*
X18253143Y-10660000D01*
X18267428Y-10674286D01*
X18281714Y-10702857D01*
X18296000Y-10760000D01*
X18296000Y-10831429D01*
X18281714Y-10888572D01*
X18267428Y-10917143D01*
X18253143Y-10931429D01*
X18224571Y-10945714D01*
X18196000Y-10945714D01*
X18167428Y-10931429D01*
X18153143Y-10917143D01*
X18138857Y-10888572D01*
X18124571Y-10831429D01*
X18124571Y-10760000D01*
X18138857Y-10702857D01*
X18153143Y-10674286D01*
X18167428Y-10660000D01*
X18196000Y-10645714D01*
X18424571Y-10917143D02*
X18438857Y-10931429D01*
X18424571Y-10945714D01*
X18410286Y-10931429D01*
X18424571Y-10917143D01*
X18424571Y-10945714D01*
X18624571Y-10645714D02*
X18653143Y-10645714D01*
X18681714Y-10660000D01*
X18696000Y-10674286D01*
X18710286Y-10702857D01*
X18724571Y-10760000D01*
X18724571Y-10831429D01*
X18710286Y-10888572D01*
X18696000Y-10917143D01*
X18681714Y-10931429D01*
X18653143Y-10945714D01*
X18624571Y-10945714D01*
X18596000Y-10931429D01*
X18581714Y-10917143D01*
X18567428Y-10888572D01*
X18553143Y-10831429D01*
X18553143Y-10760000D01*
X18567428Y-10702857D01*
X18581714Y-10674286D01*
X18596000Y-10660000D01*
X18624571Y-10645714D01*
X19010286Y-10945714D02*
X18838857Y-10945714D01*
X18924571Y-10945714D02*
X18924571Y-10645714D01*
X18896000Y-10688572D01*
X18867428Y-10717143D01*
X18838857Y-10731429D01*
X19110286Y-10645714D02*
X19296000Y-10645714D01*
X19196000Y-10760000D01*
X19238857Y-10760000D01*
X19267428Y-10774286D01*
X19281714Y-10788572D01*
X19296000Y-10817143D01*
X19296000Y-10888572D01*
X19281714Y-10917143D01*
X19267428Y-10931429D01*
X19238857Y-10945714D01*
X19153143Y-10945714D01*
X19124571Y-10931429D01*
X19110286Y-10917143D01*
X19410286Y-10645714D02*
X19410286Y-10702857D01*
X19524571Y-10645714D02*
X19524571Y-10702857D01*
X19967428Y-11060000D02*
X19953143Y-11045714D01*
X19924571Y-11002857D01*
X19910286Y-10974286D01*
X19896000Y-10931429D01*
X19881714Y-10860000D01*
X19881714Y-10802857D01*
X19896000Y-10731429D01*
X19910286Y-10688572D01*
X19924571Y-10660000D01*
X19953143Y-10617143D01*
X19967428Y-10602857D01*
X20053143Y-10645714D02*
X20238857Y-10645714D01*
X20138857Y-10760000D01*
X20181714Y-10760000D01*
X20210286Y-10774286D01*
X20224571Y-10788572D01*
X20238857Y-10817143D01*
X20238857Y-10888572D01*
X20224571Y-10917143D01*
X20210286Y-10931429D01*
X20181714Y-10945714D01*
X20096000Y-10945714D01*
X20067428Y-10931429D01*
X20053143Y-10917143D01*
X20424571Y-10645714D02*
X20453143Y-10645714D01*
X20481714Y-10660000D01*
X20496000Y-10674286D01*
X20510286Y-10702857D01*
X20524571Y-10760000D01*
X20524571Y-10831429D01*
X20510286Y-10888572D01*
X20496000Y-10917143D01*
X20481714Y-10931429D01*
X20453143Y-10945714D01*
X20424571Y-10945714D01*
X20396000Y-10931429D01*
X20381714Y-10917143D01*
X20367428Y-10888572D01*
X20353143Y-10831429D01*
X20353143Y-10760000D01*
X20367428Y-10702857D01*
X20381714Y-10674286D01*
X20396000Y-10660000D01*
X20424571Y-10645714D01*
X20881714Y-10945714D02*
X20881714Y-10645714D01*
X21010286Y-10945714D02*
X21010286Y-10788572D01*
X20996000Y-10760000D01*
X20967428Y-10745714D01*
X20924571Y-10745714D01*
X20896000Y-10760000D01*
X20881714Y-10774286D01*
X21196000Y-10945714D02*
X21167428Y-10931429D01*
X21153143Y-10917143D01*
X21138857Y-10888572D01*
X21138857Y-10802857D01*
X21153143Y-10774286D01*
X21167428Y-10760000D01*
X21196000Y-10745714D01*
X21238857Y-10745714D01*
X21267428Y-10760000D01*
X21281714Y-10774286D01*
X21296000Y-10802857D01*
X21296000Y-10888572D01*
X21281714Y-10917143D01*
X21267428Y-10931429D01*
X21238857Y-10945714D01*
X21196000Y-10945714D01*
X21467428Y-10945714D02*
X21438857Y-10931429D01*
X21424571Y-10902857D01*
X21424571Y-10645714D01*
X21696000Y-10931429D02*
X21667429Y-10945714D01*
X21610286Y-10945714D01*
X21581714Y-10931429D01*
X21567429Y-10902857D01*
X21567429Y-10788572D01*
X21581714Y-10760000D01*
X21610286Y-10745714D01*
X21667429Y-10745714D01*
X21696000Y-10760000D01*
X21710286Y-10788572D01*
X21710286Y-10817143D01*
X21567429Y-10845714D01*
X21824571Y-10931429D02*
X21853143Y-10945714D01*
X21910286Y-10945714D01*
X21938857Y-10931429D01*
X21953143Y-10902857D01*
X21953143Y-10888572D01*
X21938857Y-10860000D01*
X21910286Y-10845714D01*
X21867429Y-10845714D01*
X21838857Y-10831429D01*
X21824571Y-10802857D01*
X21824571Y-10788572D01*
X21838857Y-10760000D01*
X21867429Y-10745714D01*
X21910286Y-10745714D01*
X21938857Y-10760000D01*
X22053143Y-11060000D02*
X22067429Y-11045714D01*
X22096000Y-11002857D01*
X22110286Y-10974286D01*
X22124571Y-10931429D01*
X22138857Y-10860000D01*
X22138857Y-10802857D01*
X22124571Y-10731429D01*
X22110286Y-10688572D01*
X22096000Y-10660000D01*
X22067429Y-10617143D01*
X22053143Y-10602857D01*
X15296000Y-11206000D02*
G75*
G03X15296000Y-11206000I-50800J0D01*
G01*
X15724571Y-11341714D02*
X15553143Y-11341714D01*
X15638857Y-11341714D02*
X15638857Y-11041714D01*
X15610286Y-11084572D01*
X15581714Y-11113143D01*
X15553143Y-11127429D01*
X15853143Y-11313143D02*
X15867428Y-11327429D01*
X15853143Y-11341714D01*
X15838857Y-11327429D01*
X15853143Y-11313143D01*
X15853143Y-11341714D01*
X16053143Y-11041714D02*
X16081714Y-11041714D01*
X16110286Y-11056000D01*
X16124571Y-11070286D01*
X16138857Y-11098857D01*
X16153143Y-11156000D01*
X16153143Y-11227429D01*
X16138857Y-11284571D01*
X16124571Y-11313143D01*
X16110286Y-11327429D01*
X16081714Y-11341714D01*
X16053143Y-11341714D01*
X16024571Y-11327429D01*
X16010286Y-11313143D01*
X15996000Y-11284571D01*
X15981714Y-11227429D01*
X15981714Y-11156000D01*
X15996000Y-11098857D01*
X16010286Y-11070286D01*
X16024571Y-11056000D01*
X16053143Y-11041714D01*
X16267428Y-11070286D02*
X16281714Y-11056000D01*
X16310286Y-11041714D01*
X16381714Y-11041714D01*
X16410286Y-11056000D01*
X16424571Y-11070286D01*
X16438857Y-11098857D01*
X16438857Y-11127429D01*
X16424571Y-11170286D01*
X16253143Y-11341714D01*
X16438857Y-11341714D01*
X16567428Y-11341714D02*
X16567428Y-11141714D01*
X16567428Y-11170286D02*
X16581714Y-11156000D01*
X16610286Y-11141714D01*
X16653143Y-11141714D01*
X16681714Y-11156000D01*
X16696000Y-11184572D01*
X16696000Y-11341714D01*
X16696000Y-11184572D02*
X16710286Y-11156000D01*
X16738857Y-11141714D01*
X16781714Y-11141714D01*
X16810286Y-11156000D01*
X16824571Y-11184572D01*
X16824571Y-11341714D01*
X16967429Y-11341714D02*
X16967429Y-11141714D01*
X16967429Y-11170286D02*
X16981714Y-11156000D01*
X17010286Y-11141714D01*
X17053143Y-11141714D01*
X17081714Y-11156000D01*
X17096000Y-11184572D01*
X17096000Y-11341714D01*
X17096000Y-11184572D02*
X17110286Y-11156000D01*
X17138857Y-11141714D01*
X17181714Y-11141714D01*
X17210286Y-11156000D01*
X17224571Y-11184572D01*
X17224571Y-11341714D01*
X17810286Y-11027429D02*
X17553143Y-11413143D01*
X18196000Y-11041714D02*
X18224571Y-11041714D01*
X18253143Y-11056000D01*
X18267428Y-11070286D01*
X18281714Y-11098857D01*
X18296000Y-11156000D01*
X18296000Y-11227429D01*
X18281714Y-11284571D01*
X18267428Y-11313143D01*
X18253143Y-11327429D01*
X18224571Y-11341714D01*
X18196000Y-11341714D01*
X18167428Y-11327429D01*
X18153143Y-11313143D01*
X18138857Y-11284571D01*
X18124571Y-11227429D01*
X18124571Y-11156000D01*
X18138857Y-11098857D01*
X18153143Y-11070286D01*
X18167428Y-11056000D01*
X18196000Y-11041714D01*
X18424571Y-11313143D02*
X18438857Y-11327429D01*
X18424571Y-11341714D01*
X18410286Y-11327429D01*
X18424571Y-11313143D01*
X18424571Y-11341714D01*
X18624571Y-11041714D02*
X18653143Y-11041714D01*
X18681714Y-11056000D01*
X18696000Y-11070286D01*
X18710286Y-11098857D01*
X18724571Y-11156000D01*
X18724571Y-11227429D01*
X18710286Y-11284571D01*
X18696000Y-11313143D01*
X18681714Y-11327429D01*
X18653143Y-11341714D01*
X18624571Y-11341714D01*
X18596000Y-11327429D01*
X18581714Y-11313143D01*
X18567428Y-11284571D01*
X18553143Y-11227429D01*
X18553143Y-11156000D01*
X18567428Y-11098857D01*
X18581714Y-11070286D01*
X18596000Y-11056000D01*
X18624571Y-11041714D01*
X18981714Y-11141714D02*
X18981714Y-11341714D01*
X18910286Y-11027429D02*
X18838857Y-11241714D01*
X19024571Y-11241714D01*
X19196000Y-11041714D02*
X19224571Y-11041714D01*
X19253143Y-11056000D01*
X19267428Y-11070286D01*
X19281714Y-11098857D01*
X19296000Y-11156000D01*
X19296000Y-11227429D01*
X19281714Y-11284571D01*
X19267428Y-11313143D01*
X19253143Y-11327429D01*
X19224571Y-11341714D01*
X19196000Y-11341714D01*
X19167428Y-11327429D01*
X19153143Y-11313143D01*
X19138857Y-11284571D01*
X19124571Y-11227429D01*
X19124571Y-11156000D01*
X19138857Y-11098857D01*
X19153143Y-11070286D01*
X19167428Y-11056000D01*
X19196000Y-11041714D01*
X19410286Y-11041714D02*
X19410286Y-11098857D01*
X19524571Y-11041714D02*
X19524571Y-11098857D01*
X19967428Y-11456000D02*
X19953143Y-11441714D01*
X19924571Y-11398857D01*
X19910286Y-11370286D01*
X19896000Y-11327429D01*
X19881714Y-11256000D01*
X19881714Y-11198857D01*
X19896000Y-11127429D01*
X19910286Y-11084572D01*
X19924571Y-11056000D01*
X19953143Y-11013143D01*
X19967428Y-10998857D01*
X20224571Y-11041714D02*
X20081714Y-11041714D01*
X20067428Y-11184572D01*
X20081714Y-11170286D01*
X20110286Y-11156000D01*
X20181714Y-11156000D01*
X20210286Y-11170286D01*
X20224571Y-11184572D01*
X20238857Y-11213143D01*
X20238857Y-11284571D01*
X20224571Y-11313143D01*
X20210286Y-11327429D01*
X20181714Y-11341714D01*
X20110286Y-11341714D01*
X20081714Y-11327429D01*
X20067428Y-11313143D01*
X20410286Y-11170286D02*
X20381714Y-11156000D01*
X20367428Y-11141714D01*
X20353143Y-11113143D01*
X20353143Y-11098857D01*
X20367428Y-11070286D01*
X20381714Y-11056000D01*
X20410286Y-11041714D01*
X20467428Y-11041714D01*
X20496000Y-11056000D01*
X20510286Y-11070286D01*
X20524571Y-11098857D01*
X20524571Y-11113143D01*
X20510286Y-11141714D01*
X20496000Y-11156000D01*
X20467428Y-11170286D01*
X20410286Y-11170286D01*
X20381714Y-11184572D01*
X20367428Y-11198857D01*
X20353143Y-11227429D01*
X20353143Y-11284571D01*
X20367428Y-11313143D01*
X20381714Y-11327429D01*
X20410286Y-11341714D01*
X20467428Y-11341714D01*
X20496000Y-11327429D01*
X20510286Y-11313143D01*
X20524571Y-11284571D01*
X20524571Y-11227429D01*
X20510286Y-11198857D01*
X20496000Y-11184572D01*
X20467428Y-11170286D01*
X20881714Y-11341714D02*
X20881714Y-11041714D01*
X21010286Y-11341714D02*
X21010286Y-11184572D01*
X20996000Y-11156000D01*
X20967428Y-11141714D01*
X20924571Y-11141714D01*
X20896000Y-11156000D01*
X20881714Y-11170286D01*
X21196000Y-11341714D02*
X21167428Y-11327429D01*
X21153143Y-11313143D01*
X21138857Y-11284571D01*
X21138857Y-11198857D01*
X21153143Y-11170286D01*
X21167428Y-11156000D01*
X21196000Y-11141714D01*
X21238857Y-11141714D01*
X21267428Y-11156000D01*
X21281714Y-11170286D01*
X21296000Y-11198857D01*
X21296000Y-11284571D01*
X21281714Y-11313143D01*
X21267428Y-11327429D01*
X21238857Y-11341714D01*
X21196000Y-11341714D01*
X21467428Y-11341714D02*
X21438857Y-11327429D01*
X21424571Y-11298857D01*
X21424571Y-11041714D01*
X21696000Y-11327429D02*
X21667429Y-11341714D01*
X21610286Y-11341714D01*
X21581714Y-11327429D01*
X21567429Y-11298857D01*
X21567429Y-11184572D01*
X21581714Y-11156000D01*
X21610286Y-11141714D01*
X21667429Y-11141714D01*
X21696000Y-11156000D01*
X21710286Y-11184572D01*
X21710286Y-11213143D01*
X21567429Y-11241714D01*
X21824571Y-11327429D02*
X21853143Y-11341714D01*
X21910286Y-11341714D01*
X21938857Y-11327429D01*
X21953143Y-11298857D01*
X21953143Y-11284571D01*
X21938857Y-11256000D01*
X21910286Y-11241714D01*
X21867429Y-11241714D01*
X21838857Y-11227429D01*
X21824571Y-11198857D01*
X21824571Y-11184572D01*
X21838857Y-11156000D01*
X21867429Y-11141714D01*
X21910286Y-11141714D01*
X21938857Y-11156000D01*
X22053143Y-11456000D02*
X22067429Y-11441714D01*
X22096000Y-11398857D01*
X22110286Y-11370286D01*
X22124571Y-11327429D01*
X22138857Y-11256000D01*
X22138857Y-11198857D01*
X22124571Y-11127429D01*
X22110286Y-11084572D01*
X22096000Y-11056000D01*
X22067429Y-11013143D01*
X22053143Y-10998857D01*
X15236000Y-11542000D02*
X15236000Y-11662000D01*
X15176000Y-11602000D02*
X15296000Y-11602000D01*
X15724571Y-11737714D02*
X15553143Y-11737714D01*
X15638857Y-11737714D02*
X15638857Y-11437714D01*
X15610286Y-11480571D01*
X15581714Y-11509143D01*
X15553143Y-11523429D01*
X15853143Y-11709143D02*
X15867428Y-11723429D01*
X15853143Y-11737714D01*
X15838857Y-11723429D01*
X15853143Y-11709143D01*
X15853143Y-11737714D01*
X15981714Y-11466286D02*
X15996000Y-11452000D01*
X16024571Y-11437714D01*
X16096000Y-11437714D01*
X16124571Y-11452000D01*
X16138857Y-11466286D01*
X16153143Y-11494857D01*
X16153143Y-11523429D01*
X16138857Y-11566286D01*
X15967428Y-11737714D01*
X16153143Y-11737714D01*
X16338857Y-11437714D02*
X16367428Y-11437714D01*
X16396000Y-11452000D01*
X16410286Y-11466286D01*
X16424571Y-11494857D01*
X16438857Y-11552000D01*
X16438857Y-11623429D01*
X16424571Y-11680571D01*
X16410286Y-11709143D01*
X16396000Y-11723429D01*
X16367428Y-11737714D01*
X16338857Y-11737714D01*
X16310286Y-11723429D01*
X16296000Y-11709143D01*
X16281714Y-11680571D01*
X16267428Y-11623429D01*
X16267428Y-11552000D01*
X16281714Y-11494857D01*
X16296000Y-11466286D01*
X16310286Y-11452000D01*
X16338857Y-11437714D01*
X16567428Y-11737714D02*
X16567428Y-11537714D01*
X16567428Y-11566286D02*
X16581714Y-11552000D01*
X16610286Y-11537714D01*
X16653143Y-11537714D01*
X16681714Y-11552000D01*
X16696000Y-11580571D01*
X16696000Y-11737714D01*
X16696000Y-11580571D02*
X16710286Y-11552000D01*
X16738857Y-11537714D01*
X16781714Y-11537714D01*
X16810286Y-11552000D01*
X16824571Y-11580571D01*
X16824571Y-11737714D01*
X16967429Y-11737714D02*
X16967429Y-11537714D01*
X16967429Y-11566286D02*
X16981714Y-11552000D01*
X17010286Y-11537714D01*
X17053143Y-11537714D01*
X17081714Y-11552000D01*
X17096000Y-11580571D01*
X17096000Y-11737714D01*
X17096000Y-11580571D02*
X17110286Y-11552000D01*
X17138857Y-11537714D01*
X17181714Y-11537714D01*
X17210286Y-11552000D01*
X17224571Y-11580571D01*
X17224571Y-11737714D01*
X17810286Y-11423429D02*
X17553143Y-11809143D01*
X18196000Y-11437714D02*
X18224571Y-11437714D01*
X18253143Y-11452000D01*
X18267428Y-11466286D01*
X18281714Y-11494857D01*
X18296000Y-11552000D01*
X18296000Y-11623429D01*
X18281714Y-11680571D01*
X18267428Y-11709143D01*
X18253143Y-11723429D01*
X18224571Y-11737714D01*
X18196000Y-11737714D01*
X18167428Y-11723429D01*
X18153143Y-11709143D01*
X18138857Y-11680571D01*
X18124571Y-11623429D01*
X18124571Y-11552000D01*
X18138857Y-11494857D01*
X18153143Y-11466286D01*
X18167428Y-11452000D01*
X18196000Y-11437714D01*
X18424571Y-11709143D02*
X18438857Y-11723429D01*
X18424571Y-11737714D01*
X18410286Y-11723429D01*
X18424571Y-11709143D01*
X18424571Y-11737714D01*
X18624571Y-11437714D02*
X18653143Y-11437714D01*
X18681714Y-11452000D01*
X18696000Y-11466286D01*
X18710286Y-11494857D01*
X18724571Y-11552000D01*
X18724571Y-11623429D01*
X18710286Y-11680571D01*
X18696000Y-11709143D01*
X18681714Y-11723429D01*
X18653143Y-11737714D01*
X18624571Y-11737714D01*
X18596000Y-11723429D01*
X18581714Y-11709143D01*
X18567428Y-11680571D01*
X18553143Y-11623429D01*
X18553143Y-11552000D01*
X18567428Y-11494857D01*
X18581714Y-11466286D01*
X18596000Y-11452000D01*
X18624571Y-11437714D01*
X18981714Y-11537714D02*
X18981714Y-11737714D01*
X18910286Y-11423429D02*
X18838857Y-11637714D01*
X19024571Y-11637714D01*
X19110286Y-11437714D02*
X19310286Y-11437714D01*
X19181714Y-11737714D01*
X19410286Y-11437714D02*
X19410286Y-11494857D01*
X19524571Y-11437714D02*
X19524571Y-11494857D01*
X19967428Y-11852000D02*
X19953143Y-11837714D01*
X19924571Y-11794857D01*
X19910286Y-11766286D01*
X19896000Y-11723429D01*
X19881714Y-11652000D01*
X19881714Y-11594857D01*
X19896000Y-11523429D01*
X19910286Y-11480571D01*
X19924571Y-11452000D01*
X19953143Y-11409143D01*
X19967428Y-11394857D01*
X20067428Y-11466286D02*
X20081714Y-11452000D01*
X20110286Y-11437714D01*
X20181714Y-11437714D01*
X20210286Y-11452000D01*
X20224571Y-11466286D01*
X20238857Y-11494857D01*
X20238857Y-11523429D01*
X20224571Y-11566286D01*
X20053143Y-11737714D01*
X20238857Y-11737714D01*
X20596000Y-11737714D02*
X20596000Y-11437714D01*
X20724571Y-11737714D02*
X20724571Y-11580571D01*
X20710286Y-11552000D01*
X20681714Y-11537714D01*
X20638857Y-11537714D01*
X20610286Y-11552000D01*
X20596000Y-11566286D01*
X20910286Y-11737714D02*
X20881714Y-11723429D01*
X20867428Y-11709143D01*
X20853143Y-11680571D01*
X20853143Y-11594857D01*
X20867428Y-11566286D01*
X20881714Y-11552000D01*
X20910286Y-11537714D01*
X20953143Y-11537714D01*
X20981714Y-11552000D01*
X20996000Y-11566286D01*
X21010286Y-11594857D01*
X21010286Y-11680571D01*
X20996000Y-11709143D01*
X20981714Y-11723429D01*
X20953143Y-11737714D01*
X20910286Y-11737714D01*
X21181714Y-11737714D02*
X21153143Y-11723429D01*
X21138857Y-11694857D01*
X21138857Y-11437714D01*
X21410286Y-11723429D02*
X21381714Y-11737714D01*
X21324571Y-11737714D01*
X21296000Y-11723429D01*
X21281714Y-11694857D01*
X21281714Y-11580571D01*
X21296000Y-11552000D01*
X21324571Y-11537714D01*
X21381714Y-11537714D01*
X21410286Y-11552000D01*
X21424571Y-11580571D01*
X21424571Y-11609143D01*
X21281714Y-11637714D01*
X21538857Y-11723429D02*
X21567429Y-11737714D01*
X21624571Y-11737714D01*
X21653143Y-11723429D01*
X21667429Y-11694857D01*
X21667429Y-11680571D01*
X21653143Y-11652000D01*
X21624571Y-11637714D01*
X21581714Y-11637714D01*
X21553143Y-11623429D01*
X21538857Y-11594857D01*
X21538857Y-11580571D01*
X21553143Y-11552000D01*
X21581714Y-11537714D01*
X21624571Y-11537714D01*
X21653143Y-11552000D01*
X21767428Y-11852000D02*
X21781714Y-11837714D01*
X21810286Y-11794857D01*
X21824571Y-11766286D01*
X21838857Y-11723429D01*
X21853143Y-11652000D01*
X21853143Y-11594857D01*
X21838857Y-11523429D01*
X21824571Y-11480571D01*
X21810286Y-11452000D01*
X21781714Y-11409143D01*
X21767428Y-11394857D01*
M02*
