G04 #@! TF.FileFunction,Copper,L2,Bot,Signal*
%FSLAX46Y46*%
G04 Gerber Fmt 4.6, Leading zero omitted, Abs format (unit mm)*
G04 Created by KiCad (PCBNEW 4.0.1-3.201512221401+6198~38~ubuntu15.10.1-stable) date Mon Jan 18 21:51:54 2016*
%MOMM*%
G01*
G04 APERTURE LIST*
%ADD10C,0.100000*%
%ADD11C,1.600000*%
%ADD12R,2.032000X1.727200*%
%ADD13C,0.900000*%
%ADD14R,0.900000X0.400000*%
%ADD15R,1.727200X2.032000*%
%ADD16C,0.584200*%
%ADD17C,0.508000*%
%ADD18C,0.304800*%
%ADD19C,0.152400*%
G04 APERTURE END LIST*
D10*
D11*
X1447800Y15365000D03*
X1447800Y8765000D03*
D12*
X32004000Y19685000D03*
X33909000Y19685000D03*
D13*
X1397000Y11515000D03*
D14*
X1397000Y12365000D03*
X1397000Y11765000D03*
D13*
X1397000Y12615000D03*
D15*
X32004000Y0D03*
X29464000Y0D03*
X26924000Y0D03*
X24384000Y0D03*
X21844000Y0D03*
X19304000Y0D03*
X16764000Y0D03*
X14224000Y0D03*
X11684000Y0D03*
X9144000Y0D03*
X6604000Y0D03*
X4064000Y0D03*
X1524000Y0D03*
X1524000Y1905000D03*
X4064000Y1905000D03*
X6604000Y1905000D03*
X9144000Y1905000D03*
X11684000Y1905000D03*
X14224000Y1905000D03*
X16764000Y1905000D03*
X19304000Y1905000D03*
X21844000Y1905000D03*
X24384000Y1905000D03*
X26924000Y1905000D03*
X29464000Y1905000D03*
X32004000Y1905000D03*
X1524000Y24130000D03*
X4064000Y24130000D03*
X6604000Y24130000D03*
X9144000Y24130000D03*
X11684000Y24130000D03*
X14224000Y24130000D03*
X16764000Y24130000D03*
X19304000Y24130000D03*
X21844000Y24130000D03*
X24384000Y24130000D03*
X26924000Y24130000D03*
X29464000Y24130000D03*
X32004000Y24130000D03*
X32004000Y22225000D03*
X29464000Y22225000D03*
X26924000Y22225000D03*
X24384000Y22225000D03*
X21844000Y22225000D03*
X19304000Y22225000D03*
X16764000Y22225000D03*
X14224000Y22225000D03*
X11684000Y22225000D03*
X9144000Y22225000D03*
X6604000Y22225000D03*
X4064000Y22225000D03*
X1524000Y22225000D03*
D16*
X14668500Y3835400D03*
X27118000Y4767000D03*
X24511000Y7167500D03*
X25844500Y11239500D03*
X26479500Y11239500D03*
X27114500Y11239500D03*
X22672000Y16510000D03*
X21717000Y11811000D03*
X21717000Y13536000D03*
X19992000Y13536000D03*
X19992000Y11811000D03*
D17*
X24511000Y5326000D03*
X19280244Y9294756D03*
D16*
X19494500Y6286500D03*
X24511000Y4326000D03*
X10795000Y6880860D03*
X11366500Y15867000D03*
X24638000Y17970500D03*
X3937000Y7421500D03*
X11366500Y14867000D03*
X5921500Y9334500D03*
X2921000Y13223800D03*
X889000Y7421500D03*
D18*
X27114500Y11239500D02*
X26479500Y11239500D01*
X1524000Y0D02*
X1524000Y1905000D01*
D19*
X19280244Y9294756D02*
X19280244Y7271394D01*
X19280244Y7271394D02*
X21225638Y5326000D01*
X21225638Y5326000D02*
X24008600Y5326000D01*
X24008600Y5326000D02*
X24511000Y5326000D01*
X11684000Y1905000D02*
X11684000Y0D01*
X16764000Y1905000D02*
X16764000Y0D01*
X19304000Y0D02*
X19304000Y1905000D01*
X19304000Y2057400D02*
X19304000Y1905000D01*
D18*
X24511000Y4326000D02*
X21455000Y4326000D01*
X21455000Y4326000D02*
X19494500Y6286500D01*
X10795000Y6880860D02*
X18900140Y6880860D01*
X18900140Y6880860D02*
X19494500Y6286500D01*
X6604000Y1905000D02*
X6604000Y0D01*
X11366500Y15867000D02*
X12021300Y15867000D01*
X12021300Y15867000D02*
X14124800Y17970500D01*
X14124800Y17970500D02*
X24224909Y17970500D01*
X24224909Y17970500D02*
X24638000Y17970500D01*
X32004000Y19685000D02*
X33909000Y19685000D01*
X24638000Y17970500D02*
X30353000Y17970500D01*
X30353000Y17970500D02*
X32004000Y19621500D01*
X32004000Y19621500D02*
X32004000Y19685000D01*
X3937000Y7421500D02*
X4008500Y7421500D01*
X4008500Y7421500D02*
X5921500Y9334500D01*
X7620000Y13741400D02*
X8745600Y14867000D01*
X8745600Y14867000D02*
X11366500Y14867000D01*
X7620000Y11033000D02*
X7620000Y13741400D01*
X5921500Y9334500D02*
X7620000Y11033000D01*
X2921000Y13223800D02*
X2005800Y13223800D01*
X2005800Y13223800D02*
X1397000Y12615000D01*
X1778000Y7429500D02*
X4064000Y5143500D01*
X4064000Y5143500D02*
X4064000Y4296500D01*
X1747406Y7429500D02*
X1778000Y7429500D01*
X4064000Y1905000D02*
X4064000Y4296500D01*
X939000Y7421500D02*
X889000Y7421500D01*
X1747406Y7429500D02*
X897000Y7429500D01*
X897000Y7429500D02*
X889000Y7421500D01*
X1397000Y11515000D02*
X1397000Y10450906D01*
X1397000Y10450906D02*
X2552601Y9295305D01*
X2552601Y9295305D02*
X2552601Y8234695D01*
X2552601Y8234695D02*
X1747406Y7429500D01*
X4064000Y0D02*
X4064000Y1905000D01*
D19*
X21844000Y0D02*
X21844000Y1905000D01*
X24384000Y0D02*
X24384000Y1905000D01*
X26924000Y0D02*
X26924000Y1905000D01*
X29464000Y0D02*
X29464000Y1905000D01*
X32004000Y0D02*
X32004000Y1905000D01*
X32004000Y22225000D02*
X32004000Y24130000D01*
X14224000Y0D02*
X14224000Y1905000D01*
X14224000Y2057400D02*
X14224000Y1905000D01*
X29464000Y22225000D02*
X29464000Y24130000D01*
X26924000Y22225000D02*
X26924000Y24130000D01*
X24384000Y22225000D02*
X24384000Y24130000D01*
X21844000Y22225000D02*
X21844000Y24130000D01*
X19304000Y22225000D02*
X19304000Y24130000D01*
X16764000Y22225000D02*
X16764000Y24130000D01*
X14224000Y22225000D02*
X14224000Y24130000D01*
X11684000Y22225000D02*
X11684000Y24130000D01*
X9144000Y22225000D02*
X9144000Y24130000D01*
X6604000Y22225000D02*
X6604000Y24130000D01*
X4064000Y22225000D02*
X4064000Y24130000D01*
X1524000Y22225000D02*
X1524000Y24130000D01*
X9144000Y1905000D02*
X9144000Y0D01*
X9144000Y1905000D02*
X9144000Y2057400D01*
G36*
X427322Y21209000D02*
X443262Y21124286D01*
X493328Y21046482D01*
X569720Y20994285D01*
X660400Y20975922D01*
X2387600Y20975922D01*
X2472314Y20991862D01*
X2550118Y21041928D01*
X2602315Y21118320D01*
X2620678Y21209000D01*
X2620678Y23799800D01*
X2967322Y23799800D01*
X2967322Y21209000D01*
X2983262Y21124286D01*
X3033328Y21046482D01*
X3109720Y20994285D01*
X3200400Y20975922D01*
X4927600Y20975922D01*
X5012314Y20991862D01*
X5090118Y21041928D01*
X5142315Y21118320D01*
X5160678Y21209000D01*
X5160678Y23799800D01*
X5507322Y23799800D01*
X5507322Y21209000D01*
X5523262Y21124286D01*
X5573328Y21046482D01*
X5649720Y20994285D01*
X5740400Y20975922D01*
X7467600Y20975922D01*
X7552314Y20991862D01*
X7630118Y21041928D01*
X7682315Y21118320D01*
X7700678Y21209000D01*
X7700678Y23799800D01*
X8047322Y23799800D01*
X8047322Y21209000D01*
X8063262Y21124286D01*
X8113328Y21046482D01*
X8189720Y20994285D01*
X8280400Y20975922D01*
X10007600Y20975922D01*
X10092314Y20991862D01*
X10170118Y21041928D01*
X10222315Y21118320D01*
X10240678Y21209000D01*
X10240678Y23799800D01*
X10587322Y23799800D01*
X10587322Y21209000D01*
X10603262Y21124286D01*
X10653328Y21046482D01*
X10729720Y20994285D01*
X10820400Y20975922D01*
X12547600Y20975922D01*
X12632314Y20991862D01*
X12710118Y21041928D01*
X12762315Y21118320D01*
X12780678Y21209000D01*
X12780678Y23799800D01*
X13127322Y23799800D01*
X13127322Y21209000D01*
X13143262Y21124286D01*
X13193328Y21046482D01*
X13269720Y20994285D01*
X13360400Y20975922D01*
X15087600Y20975922D01*
X15172314Y20991862D01*
X15250118Y21041928D01*
X15302315Y21118320D01*
X15320678Y21209000D01*
X15320678Y23799800D01*
X15667322Y23799800D01*
X15667322Y21209000D01*
X15683262Y21124286D01*
X15733328Y21046482D01*
X15809720Y20994285D01*
X15900400Y20975922D01*
X17627600Y20975922D01*
X17712314Y20991862D01*
X17790118Y21041928D01*
X17842315Y21118320D01*
X17860678Y21209000D01*
X17860678Y23799800D01*
X18207322Y23799800D01*
X18207322Y21209000D01*
X18223262Y21124286D01*
X18273328Y21046482D01*
X18349720Y20994285D01*
X18440400Y20975922D01*
X20167600Y20975922D01*
X20252314Y20991862D01*
X20330118Y21041928D01*
X20382315Y21118320D01*
X20400678Y21209000D01*
X20400678Y23799800D01*
X20747322Y23799800D01*
X20747322Y21209000D01*
X20763262Y21124286D01*
X20813328Y21046482D01*
X20889720Y20994285D01*
X20980400Y20975922D01*
X22707600Y20975922D01*
X22792314Y20991862D01*
X22870118Y21041928D01*
X22922315Y21118320D01*
X22940678Y21209000D01*
X22940678Y23799800D01*
X23287322Y23799800D01*
X23287322Y21209000D01*
X23303262Y21124286D01*
X23353328Y21046482D01*
X23429720Y20994285D01*
X23520400Y20975922D01*
X25247600Y20975922D01*
X25332314Y20991862D01*
X25410118Y21041928D01*
X25462315Y21118320D01*
X25480678Y21209000D01*
X25480678Y23799800D01*
X25827322Y23799800D01*
X25827322Y21209000D01*
X25843262Y21124286D01*
X25893328Y21046482D01*
X25969720Y20994285D01*
X26060400Y20975922D01*
X27787600Y20975922D01*
X27872314Y20991862D01*
X27950118Y21041928D01*
X28002315Y21118320D01*
X28020678Y21209000D01*
X28020678Y23799800D01*
X28367322Y23799800D01*
X28367322Y21209000D01*
X28383262Y21124286D01*
X28433328Y21046482D01*
X28509720Y20994285D01*
X28600400Y20975922D01*
X30327600Y20975922D01*
X30412314Y20991862D01*
X30490118Y21041928D01*
X30542315Y21118320D01*
X30560678Y21209000D01*
X30560678Y23799800D01*
X30907322Y23799800D01*
X30907322Y21209000D01*
X30923262Y21124286D01*
X30973328Y21046482D01*
X31049720Y20994285D01*
X31140400Y20975922D01*
X32867600Y20975922D01*
X32952314Y20991862D01*
X33030118Y21041928D01*
X33082315Y21118320D01*
X33100678Y21209000D01*
X33100678Y23799800D01*
X33573433Y23799800D01*
X33573433Y20781678D01*
X30988000Y20781678D01*
X30903286Y20765738D01*
X30825482Y20715672D01*
X30773285Y20639280D01*
X30754922Y20548600D01*
X30754922Y18911238D01*
X30195184Y18351500D01*
X24993403Y18351500D01*
X24933338Y18411670D01*
X24742028Y18491109D01*
X24534881Y18491290D01*
X24343433Y18412185D01*
X24282642Y18351500D01*
X14124800Y18351500D01*
X13978997Y18322498D01*
X13855392Y18239908D01*
X11863484Y16248000D01*
X11721903Y16248000D01*
X11661838Y16308170D01*
X11470528Y16387609D01*
X11263381Y16387790D01*
X11071933Y16308685D01*
X10925330Y16162338D01*
X10845891Y15971028D01*
X10845710Y15763881D01*
X10924815Y15572433D01*
X11071162Y15425830D01*
X11212953Y15366953D01*
X11071933Y15308685D01*
X11011142Y15248000D01*
X8745605Y15248000D01*
X8745600Y15248001D01*
X8599798Y15218998D01*
X8476192Y15136408D01*
X7350592Y14010808D01*
X7268002Y13887203D01*
X7268002Y13887202D01*
X7239000Y13741400D01*
X7239000Y11190815D01*
X5903400Y9855216D01*
X5818381Y9855290D01*
X5626933Y9776185D01*
X5480330Y9629838D01*
X5400891Y9438528D01*
X5400816Y9352631D01*
X3990337Y7942153D01*
X3833881Y7942290D01*
X3642433Y7863185D01*
X3495830Y7716838D01*
X3416391Y7525528D01*
X3416210Y7318381D01*
X3495315Y7126933D01*
X3641662Y6980330D01*
X3832972Y6900891D01*
X4040119Y6900710D01*
X4231567Y6979815D01*
X4378170Y7126162D01*
X4457609Y7317472D01*
X4457622Y7331806D01*
X5939599Y8813784D01*
X6024619Y8813710D01*
X6216067Y8892815D01*
X6362670Y9039162D01*
X6442109Y9230472D01*
X6442184Y9316368D01*
X7889405Y10763590D01*
X7889408Y10763592D01*
X7971998Y10887198D01*
X7982377Y10939375D01*
X8001001Y11033000D01*
X8001000Y11033005D01*
X8001000Y11747500D01*
X22783800Y11747500D01*
X22783800Y11557000D01*
X22789011Y11529305D01*
X22805379Y11503868D01*
X22830354Y11486803D01*
X22860000Y11480800D01*
X24828500Y11480800D01*
X24857173Y11486401D01*
X24882382Y11503118D01*
X25390382Y12011118D01*
X25406697Y12035354D01*
X25412700Y12065000D01*
X25412700Y12941300D01*
X28562300Y12941300D01*
X28562300Y9347200D01*
X25285700Y9347200D01*
X25285700Y10477500D01*
X25280099Y10506173D01*
X25263382Y10531382D01*
X24945882Y10848882D01*
X24921646Y10865197D01*
X24892000Y10871200D01*
X22923500Y10871200D01*
X22895805Y10865989D01*
X22870368Y10849621D01*
X22853303Y10824646D01*
X22847300Y10795000D01*
X22847300Y10604500D01*
X22852511Y10576805D01*
X22868879Y10551368D01*
X22893854Y10534303D01*
X22923500Y10528300D01*
X24669936Y10528300D01*
X24942800Y10255436D01*
X24942800Y9080500D01*
X24948011Y9052805D01*
X24964379Y9027368D01*
X24989354Y9010303D01*
X25019000Y9004300D01*
X28829000Y9004300D01*
X28856695Y9009511D01*
X28882132Y9025879D01*
X28899197Y9050854D01*
X28905200Y9080500D01*
X28905200Y13208000D01*
X28899989Y13235695D01*
X28883621Y13261132D01*
X28858646Y13278197D01*
X28829000Y13284200D01*
X25146000Y13284200D01*
X25118305Y13278989D01*
X25092868Y13262621D01*
X25075803Y13237646D01*
X25069800Y13208000D01*
X25069800Y12287064D01*
X24606436Y11823700D01*
X22860000Y11823700D01*
X22832305Y11818489D01*
X22806868Y11802121D01*
X22789803Y11777146D01*
X22783800Y11747500D01*
X8001000Y11747500D01*
X8001000Y13583584D01*
X8903416Y14486000D01*
X11011097Y14486000D01*
X11071162Y14425830D01*
X11262472Y14346391D01*
X11469619Y14346210D01*
X11661067Y14425315D01*
X11807670Y14571662D01*
X11887109Y14762972D01*
X11887290Y14970119D01*
X11808185Y15161567D01*
X11661838Y15308170D01*
X11520047Y15367047D01*
X11661067Y15425315D01*
X11721858Y15486000D01*
X12021300Y15486000D01*
X12167103Y15515002D01*
X12290708Y15597592D01*
X14282616Y17589500D01*
X22371236Y17589500D01*
X21663118Y16881382D01*
X21646803Y16857146D01*
X21640800Y16827500D01*
X21640800Y14668500D01*
X21646011Y14640805D01*
X21662379Y14615368D01*
X21687354Y14598303D01*
X21717000Y14592300D01*
X21907500Y14592300D01*
X21935195Y14597511D01*
X21960632Y14613879D01*
X21977697Y14638854D01*
X21983700Y14668500D01*
X21983700Y16605436D01*
X22701064Y17322800D01*
X25387300Y17322800D01*
X25387300Y16141700D01*
X24130000Y16141700D01*
X24101327Y16136099D01*
X24076118Y16119382D01*
X23590436Y15633700D01*
X23114000Y15633700D01*
X23085327Y15628099D01*
X23060118Y15611382D01*
X22742618Y15293882D01*
X22726303Y15269646D01*
X22720300Y15240000D01*
X22720300Y14668500D01*
X22725511Y14640805D01*
X22741879Y14615368D01*
X22766854Y14598303D01*
X22796500Y14592300D01*
X22987000Y14592300D01*
X23014695Y14597511D01*
X23040132Y14613879D01*
X23057197Y14638854D01*
X23063200Y14668500D01*
X23063200Y15017936D01*
X23336064Y15290800D01*
X23812500Y15290800D01*
X23841173Y15296401D01*
X23866382Y15313118D01*
X24352064Y15798800D01*
X25654000Y15798800D01*
X25681695Y15804011D01*
X25707132Y15820379D01*
X25724197Y15845354D01*
X25730200Y15875000D01*
X25730200Y17589500D01*
X30353000Y17589500D01*
X30498803Y17618502D01*
X30622408Y17701092D01*
X31509637Y18588322D01*
X33573433Y18588322D01*
X33573433Y330200D01*
X33100678Y330200D01*
X33100678Y2921000D01*
X33084738Y3005714D01*
X33034672Y3083518D01*
X32958280Y3135715D01*
X32867600Y3154078D01*
X31140400Y3154078D01*
X31055686Y3138138D01*
X30977882Y3088072D01*
X30925685Y3011680D01*
X30907322Y2921000D01*
X30907322Y330200D01*
X30560678Y330200D01*
X30560678Y2921000D01*
X30544738Y3005714D01*
X30494672Y3083518D01*
X30418280Y3135715D01*
X30327600Y3154078D01*
X28600400Y3154078D01*
X28515686Y3138138D01*
X28437882Y3088072D01*
X28385685Y3011680D01*
X28367322Y2921000D01*
X28367322Y330200D01*
X28020678Y330200D01*
X28020678Y2921000D01*
X28004738Y3005714D01*
X27954672Y3083518D01*
X27878280Y3135715D01*
X27787600Y3154078D01*
X26060400Y3154078D01*
X25975686Y3138138D01*
X25897882Y3088072D01*
X25845685Y3011680D01*
X25827322Y2921000D01*
X25827322Y330200D01*
X25480678Y330200D01*
X25480678Y2921000D01*
X25464738Y3005714D01*
X25414672Y3083518D01*
X25338280Y3135715D01*
X25247600Y3154078D01*
X23520400Y3154078D01*
X23435686Y3138138D01*
X23357882Y3088072D01*
X23305685Y3011680D01*
X23287322Y2921000D01*
X23287322Y330200D01*
X22940678Y330200D01*
X22940678Y2921000D01*
X22924738Y3005714D01*
X22874672Y3083518D01*
X22798280Y3135715D01*
X22707600Y3154078D01*
X20980400Y3154078D01*
X20895686Y3138138D01*
X20817882Y3088072D01*
X20765685Y3011680D01*
X20747322Y2921000D01*
X20747322Y330200D01*
X20400678Y330200D01*
X20400678Y2921000D01*
X20384738Y3005714D01*
X20334672Y3083518D01*
X20258280Y3135715D01*
X20167600Y3154078D01*
X18440400Y3154078D01*
X18355686Y3138138D01*
X18277882Y3088072D01*
X18225685Y3011680D01*
X18207322Y2921000D01*
X18207322Y330200D01*
X17860678Y330200D01*
X17860678Y2921000D01*
X17844738Y3005714D01*
X17794672Y3083518D01*
X17718280Y3135715D01*
X17627600Y3154078D01*
X15900400Y3154078D01*
X15815686Y3138138D01*
X15737882Y3088072D01*
X15685685Y3011680D01*
X15667322Y2921000D01*
X15667322Y330200D01*
X15320678Y330200D01*
X15320678Y2921000D01*
X15304738Y3005714D01*
X15254672Y3083518D01*
X15178280Y3135715D01*
X15087600Y3154078D01*
X13360400Y3154078D01*
X13275686Y3138138D01*
X13197882Y3088072D01*
X13145685Y3011680D01*
X13127322Y2921000D01*
X13127322Y330200D01*
X12780678Y330200D01*
X12780678Y2921000D01*
X12764738Y3005714D01*
X12714672Y3083518D01*
X12638280Y3135715D01*
X12547600Y3154078D01*
X10820400Y3154078D01*
X10735686Y3138138D01*
X10657882Y3088072D01*
X10605685Y3011680D01*
X10587322Y2921000D01*
X10587322Y330200D01*
X10240678Y330200D01*
X10240678Y2921000D01*
X10224738Y3005714D01*
X10174672Y3083518D01*
X10098280Y3135715D01*
X10007600Y3154078D01*
X8280400Y3154078D01*
X8195686Y3138138D01*
X8117882Y3088072D01*
X8065685Y3011680D01*
X8047322Y2921000D01*
X8047322Y330200D01*
X7700678Y330200D01*
X7700678Y2921000D01*
X7684738Y3005714D01*
X7634672Y3083518D01*
X7558280Y3135715D01*
X7467600Y3154078D01*
X5740400Y3154078D01*
X5655686Y3138138D01*
X5577882Y3088072D01*
X5525685Y3011680D01*
X5507322Y2921000D01*
X5507322Y330200D01*
X5160678Y330200D01*
X5160678Y2921000D01*
X5144738Y3005714D01*
X5094672Y3083518D01*
X5018280Y3135715D01*
X4927600Y3154078D01*
X4445000Y3154078D01*
X4445000Y5143500D01*
X4415998Y5289302D01*
X4415998Y5289303D01*
X4333408Y5412908D01*
X2968575Y6777741D01*
X10274210Y6777741D01*
X10353315Y6586293D01*
X10499662Y6439690D01*
X10690972Y6360251D01*
X10898119Y6360070D01*
X11089567Y6439175D01*
X11150358Y6499860D01*
X18742324Y6499860D01*
X18973784Y6268400D01*
X18973710Y6183381D01*
X19052815Y5991933D01*
X19199162Y5845330D01*
X19390472Y5765891D01*
X19476368Y5765816D01*
X21185590Y4056595D01*
X21185592Y4056592D01*
X21309198Y3974002D01*
X21455000Y3944999D01*
X21455005Y3945000D01*
X24155597Y3945000D01*
X24215662Y3884830D01*
X24406972Y3805391D01*
X24614119Y3805210D01*
X24805567Y3884315D01*
X24952170Y4030662D01*
X25031609Y4221972D01*
X25031790Y4429119D01*
X24952685Y4620567D01*
X24806338Y4767170D01*
X24615028Y4846609D01*
X24614545Y4846609D01*
X24784014Y4916633D01*
X24919890Y5052272D01*
X24993516Y5229584D01*
X24993684Y5421574D01*
X24920367Y5599014D01*
X24784728Y5734890D01*
X24607416Y5808516D01*
X24415426Y5808684D01*
X24237986Y5735367D01*
X24133236Y5630800D01*
X21351890Y5630800D01*
X20454890Y6527800D01*
X21082000Y6527800D01*
X21109695Y6533011D01*
X21135132Y6549379D01*
X21152197Y6574354D01*
X21158200Y6604000D01*
X21158200Y6731000D01*
X21152989Y6758695D01*
X21136621Y6784132D01*
X21111646Y6801197D01*
X21082000Y6807200D01*
X20175490Y6807200D01*
X20078700Y6903990D01*
X20078700Y8921936D01*
X20500882Y9344118D01*
X20517197Y9368354D01*
X20523200Y9398000D01*
X20523200Y10668000D01*
X21704300Y10668000D01*
X21704300Y9779000D01*
X21709901Y9750327D01*
X21726618Y9725118D01*
X22275800Y9175936D01*
X22275800Y6807200D01*
X21844000Y6807200D01*
X21816305Y6801989D01*
X21790868Y6785621D01*
X21773803Y6760646D01*
X21767800Y6731000D01*
X21767800Y6604000D01*
X21773011Y6576305D01*
X21789379Y6550868D01*
X21814354Y6533803D01*
X21844000Y6527800D01*
X22479000Y6527800D01*
X22506695Y6533011D01*
X22532132Y6549379D01*
X22549197Y6574354D01*
X22555200Y6604000D01*
X22555200Y9334500D01*
X22549599Y9363173D01*
X22532882Y9388382D01*
X22047200Y9874064D01*
X22047200Y10668000D01*
X22041989Y10695695D01*
X22025621Y10721132D01*
X22000646Y10738197D01*
X21971000Y10744200D01*
X21780500Y10744200D01*
X21752805Y10738989D01*
X21727368Y10722621D01*
X21710303Y10697646D01*
X21704300Y10668000D01*
X20523200Y10668000D01*
X20517989Y10695695D01*
X20501621Y10721132D01*
X20476646Y10738197D01*
X20447000Y10744200D01*
X20256500Y10744200D01*
X20228805Y10738989D01*
X20203368Y10722621D01*
X20186303Y10697646D01*
X20180300Y10668000D01*
X20180300Y9429564D01*
X19821618Y9070882D01*
X19805303Y9046646D01*
X19799300Y9017000D01*
X19799300Y7183390D01*
X19585044Y7397646D01*
X19585044Y8917120D01*
X19689134Y9021028D01*
X19762760Y9198340D01*
X19762928Y9390330D01*
X19689611Y9567770D01*
X19553972Y9703646D01*
X19376660Y9777272D01*
X19184670Y9777440D01*
X19007230Y9704123D01*
X18871354Y9568484D01*
X18797728Y9391172D01*
X18797560Y9199182D01*
X18870877Y9021742D01*
X18975444Y8916992D01*
X18975444Y7271394D01*
X18980521Y7245871D01*
X18900140Y7261860D01*
X11150403Y7261860D01*
X11090338Y7322030D01*
X10899028Y7401469D01*
X10691881Y7401650D01*
X10500433Y7322545D01*
X10353830Y7176198D01*
X10274391Y6984888D01*
X10274210Y6777741D01*
X2968575Y6777741D01*
X2301519Y7444797D01*
X2822006Y7965285D01*
X2822009Y7965287D01*
X2904599Y8088893D01*
X2923037Y8181584D01*
X2933602Y8234695D01*
X2933601Y8234700D01*
X2933601Y9295300D01*
X2933602Y9295305D01*
X2904599Y9441107D01*
X2858378Y9510282D01*
X2822009Y9564713D01*
X2822006Y9564715D01*
X1778000Y10608722D01*
X1778000Y10938179D01*
X1780894Y10939375D01*
X1971954Y11130102D01*
X2075482Y11379426D01*
X2075625Y11543010D01*
X2080078Y11565000D01*
X2080078Y11965000D01*
X2064138Y12049714D01*
X2054809Y12064212D01*
X2061715Y12074320D01*
X2080078Y12165000D01*
X2080078Y12565000D01*
X2075578Y12588917D01*
X2075718Y12749390D01*
X2074106Y12753290D01*
X2163616Y12842800D01*
X2565597Y12842800D01*
X2625662Y12782630D01*
X2816972Y12703191D01*
X3024119Y12703010D01*
X3215567Y12782115D01*
X3362170Y12928462D01*
X3441609Y13119772D01*
X3441790Y13326919D01*
X3362685Y13518367D01*
X3216338Y13664970D01*
X3025028Y13744409D01*
X2817881Y13744590D01*
X2626433Y13665485D01*
X2565642Y13604800D01*
X2005800Y13604800D01*
X1859997Y13575798D01*
X1736392Y13493208D01*
X1535465Y13292281D01*
X1532574Y13293482D01*
X1262610Y13293718D01*
X1013106Y13190625D01*
X822046Y12999898D01*
X718518Y12750574D01*
X718375Y12586990D01*
X713922Y12565000D01*
X713922Y12165000D01*
X729862Y12080286D01*
X739191Y12065788D01*
X732285Y12055680D01*
X713922Y11965000D01*
X713922Y11565000D01*
X718422Y11541083D01*
X718282Y11380610D01*
X821375Y11131106D01*
X1012102Y10940046D01*
X1016000Y10938427D01*
X1016000Y10450906D01*
X1045002Y10305103D01*
X1127592Y10181498D01*
X1515549Y9793541D01*
X1244097Y9793778D01*
X865906Y9637513D01*
X576304Y9348416D01*
X419379Y8970499D01*
X419022Y8561297D01*
X575287Y8183106D01*
X815709Y7942264D01*
X785881Y7942290D01*
X594433Y7863185D01*
X447830Y7716838D01*
X368391Y7525528D01*
X368210Y7318381D01*
X447315Y7126933D01*
X593662Y6980330D01*
X784972Y6900891D01*
X992119Y6900710D01*
X1183567Y6979815D01*
X1252372Y7048500D01*
X1620184Y7048500D01*
X3683000Y4985684D01*
X3683000Y3154078D01*
X3200400Y3154078D01*
X3115686Y3138138D01*
X3037882Y3088072D01*
X2985685Y3011680D01*
X2967322Y2921000D01*
X2967322Y330200D01*
X2616200Y330200D01*
X2616200Y1835150D01*
X2559050Y1892300D01*
X1536700Y1892300D01*
X1536700Y330200D01*
X1511300Y330200D01*
X1511300Y1892300D01*
X488950Y1892300D01*
X431800Y1835150D01*
X431800Y330200D01*
X330200Y330200D01*
X330200Y2966471D01*
X431800Y2966471D01*
X431800Y1974850D01*
X488950Y1917700D01*
X1511300Y1917700D01*
X1511300Y3092450D01*
X1536700Y3092450D01*
X1536700Y1917700D01*
X2559050Y1917700D01*
X2616200Y1974850D01*
X2616200Y2966471D01*
X2581398Y3050491D01*
X2517092Y3114797D01*
X2433072Y3149600D01*
X1593850Y3149600D01*
X1536700Y3092450D01*
X1511300Y3092450D01*
X1454150Y3149600D01*
X614928Y3149600D01*
X530908Y3114797D01*
X466602Y3050491D01*
X431800Y2966471D01*
X330200Y2966471D01*
X330200Y15161297D01*
X419022Y15161297D01*
X575287Y14783106D01*
X864384Y14493504D01*
X1242301Y14336579D01*
X1651503Y14336222D01*
X2029694Y14492487D01*
X2319296Y14781584D01*
X2476221Y15159501D01*
X2476578Y15568703D01*
X2320313Y15946894D01*
X2031216Y16236496D01*
X1653299Y16393421D01*
X1244097Y16393778D01*
X865906Y16237513D01*
X576304Y15948416D01*
X419379Y15570499D01*
X419022Y15161297D01*
X330200Y15161297D01*
X330200Y23799800D01*
X427322Y23799800D01*
X427322Y21209000D01*
X427322Y21209000D01*
G37*
X427322Y21209000D02*
X443262Y21124286D01*
X493328Y21046482D01*
X569720Y20994285D01*
X660400Y20975922D01*
X2387600Y20975922D01*
X2472314Y20991862D01*
X2550118Y21041928D01*
X2602315Y21118320D01*
X2620678Y21209000D01*
X2620678Y23799800D01*
X2967322Y23799800D01*
X2967322Y21209000D01*
X2983262Y21124286D01*
X3033328Y21046482D01*
X3109720Y20994285D01*
X3200400Y20975922D01*
X4927600Y20975922D01*
X5012314Y20991862D01*
X5090118Y21041928D01*
X5142315Y21118320D01*
X5160678Y21209000D01*
X5160678Y23799800D01*
X5507322Y23799800D01*
X5507322Y21209000D01*
X5523262Y21124286D01*
X5573328Y21046482D01*
X5649720Y20994285D01*
X5740400Y20975922D01*
X7467600Y20975922D01*
X7552314Y20991862D01*
X7630118Y21041928D01*
X7682315Y21118320D01*
X7700678Y21209000D01*
X7700678Y23799800D01*
X8047322Y23799800D01*
X8047322Y21209000D01*
X8063262Y21124286D01*
X8113328Y21046482D01*
X8189720Y20994285D01*
X8280400Y20975922D01*
X10007600Y20975922D01*
X10092314Y20991862D01*
X10170118Y21041928D01*
X10222315Y21118320D01*
X10240678Y21209000D01*
X10240678Y23799800D01*
X10587322Y23799800D01*
X10587322Y21209000D01*
X10603262Y21124286D01*
X10653328Y21046482D01*
X10729720Y20994285D01*
X10820400Y20975922D01*
X12547600Y20975922D01*
X12632314Y20991862D01*
X12710118Y21041928D01*
X12762315Y21118320D01*
X12780678Y21209000D01*
X12780678Y23799800D01*
X13127322Y23799800D01*
X13127322Y21209000D01*
X13143262Y21124286D01*
X13193328Y21046482D01*
X13269720Y20994285D01*
X13360400Y20975922D01*
X15087600Y20975922D01*
X15172314Y20991862D01*
X15250118Y21041928D01*
X15302315Y21118320D01*
X15320678Y21209000D01*
X15320678Y23799800D01*
X15667322Y23799800D01*
X15667322Y21209000D01*
X15683262Y21124286D01*
X15733328Y21046482D01*
X15809720Y20994285D01*
X15900400Y20975922D01*
X17627600Y20975922D01*
X17712314Y20991862D01*
X17790118Y21041928D01*
X17842315Y21118320D01*
X17860678Y21209000D01*
X17860678Y23799800D01*
X18207322Y23799800D01*
X18207322Y21209000D01*
X18223262Y21124286D01*
X18273328Y21046482D01*
X18349720Y20994285D01*
X18440400Y20975922D01*
X20167600Y20975922D01*
X20252314Y20991862D01*
X20330118Y21041928D01*
X20382315Y21118320D01*
X20400678Y21209000D01*
X20400678Y23799800D01*
X20747322Y23799800D01*
X20747322Y21209000D01*
X20763262Y21124286D01*
X20813328Y21046482D01*
X20889720Y20994285D01*
X20980400Y20975922D01*
X22707600Y20975922D01*
X22792314Y20991862D01*
X22870118Y21041928D01*
X22922315Y21118320D01*
X22940678Y21209000D01*
X22940678Y23799800D01*
X23287322Y23799800D01*
X23287322Y21209000D01*
X23303262Y21124286D01*
X23353328Y21046482D01*
X23429720Y20994285D01*
X23520400Y20975922D01*
X25247600Y20975922D01*
X25332314Y20991862D01*
X25410118Y21041928D01*
X25462315Y21118320D01*
X25480678Y21209000D01*
X25480678Y23799800D01*
X25827322Y23799800D01*
X25827322Y21209000D01*
X25843262Y21124286D01*
X25893328Y21046482D01*
X25969720Y20994285D01*
X26060400Y20975922D01*
X27787600Y20975922D01*
X27872314Y20991862D01*
X27950118Y21041928D01*
X28002315Y21118320D01*
X28020678Y21209000D01*
X28020678Y23799800D01*
X28367322Y23799800D01*
X28367322Y21209000D01*
X28383262Y21124286D01*
X28433328Y21046482D01*
X28509720Y20994285D01*
X28600400Y20975922D01*
X30327600Y20975922D01*
X30412314Y20991862D01*
X30490118Y21041928D01*
X30542315Y21118320D01*
X30560678Y21209000D01*
X30560678Y23799800D01*
X30907322Y23799800D01*
X30907322Y21209000D01*
X30923262Y21124286D01*
X30973328Y21046482D01*
X31049720Y20994285D01*
X31140400Y20975922D01*
X32867600Y20975922D01*
X32952314Y20991862D01*
X33030118Y21041928D01*
X33082315Y21118320D01*
X33100678Y21209000D01*
X33100678Y23799800D01*
X33573433Y23799800D01*
X33573433Y20781678D01*
X30988000Y20781678D01*
X30903286Y20765738D01*
X30825482Y20715672D01*
X30773285Y20639280D01*
X30754922Y20548600D01*
X30754922Y18911238D01*
X30195184Y18351500D01*
X24993403Y18351500D01*
X24933338Y18411670D01*
X24742028Y18491109D01*
X24534881Y18491290D01*
X24343433Y18412185D01*
X24282642Y18351500D01*
X14124800Y18351500D01*
X13978997Y18322498D01*
X13855392Y18239908D01*
X11863484Y16248000D01*
X11721903Y16248000D01*
X11661838Y16308170D01*
X11470528Y16387609D01*
X11263381Y16387790D01*
X11071933Y16308685D01*
X10925330Y16162338D01*
X10845891Y15971028D01*
X10845710Y15763881D01*
X10924815Y15572433D01*
X11071162Y15425830D01*
X11212953Y15366953D01*
X11071933Y15308685D01*
X11011142Y15248000D01*
X8745605Y15248000D01*
X8745600Y15248001D01*
X8599798Y15218998D01*
X8476192Y15136408D01*
X7350592Y14010808D01*
X7268002Y13887203D01*
X7268002Y13887202D01*
X7239000Y13741400D01*
X7239000Y11190815D01*
X5903400Y9855216D01*
X5818381Y9855290D01*
X5626933Y9776185D01*
X5480330Y9629838D01*
X5400891Y9438528D01*
X5400816Y9352631D01*
X3990337Y7942153D01*
X3833881Y7942290D01*
X3642433Y7863185D01*
X3495830Y7716838D01*
X3416391Y7525528D01*
X3416210Y7318381D01*
X3495315Y7126933D01*
X3641662Y6980330D01*
X3832972Y6900891D01*
X4040119Y6900710D01*
X4231567Y6979815D01*
X4378170Y7126162D01*
X4457609Y7317472D01*
X4457622Y7331806D01*
X5939599Y8813784D01*
X6024619Y8813710D01*
X6216067Y8892815D01*
X6362670Y9039162D01*
X6442109Y9230472D01*
X6442184Y9316368D01*
X7889405Y10763590D01*
X7889408Y10763592D01*
X7971998Y10887198D01*
X7982377Y10939375D01*
X8001001Y11033000D01*
X8001000Y11033005D01*
X8001000Y11747500D01*
X22783800Y11747500D01*
X22783800Y11557000D01*
X22789011Y11529305D01*
X22805379Y11503868D01*
X22830354Y11486803D01*
X22860000Y11480800D01*
X24828500Y11480800D01*
X24857173Y11486401D01*
X24882382Y11503118D01*
X25390382Y12011118D01*
X25406697Y12035354D01*
X25412700Y12065000D01*
X25412700Y12941300D01*
X28562300Y12941300D01*
X28562300Y9347200D01*
X25285700Y9347200D01*
X25285700Y10477500D01*
X25280099Y10506173D01*
X25263382Y10531382D01*
X24945882Y10848882D01*
X24921646Y10865197D01*
X24892000Y10871200D01*
X22923500Y10871200D01*
X22895805Y10865989D01*
X22870368Y10849621D01*
X22853303Y10824646D01*
X22847300Y10795000D01*
X22847300Y10604500D01*
X22852511Y10576805D01*
X22868879Y10551368D01*
X22893854Y10534303D01*
X22923500Y10528300D01*
X24669936Y10528300D01*
X24942800Y10255436D01*
X24942800Y9080500D01*
X24948011Y9052805D01*
X24964379Y9027368D01*
X24989354Y9010303D01*
X25019000Y9004300D01*
X28829000Y9004300D01*
X28856695Y9009511D01*
X28882132Y9025879D01*
X28899197Y9050854D01*
X28905200Y9080500D01*
X28905200Y13208000D01*
X28899989Y13235695D01*
X28883621Y13261132D01*
X28858646Y13278197D01*
X28829000Y13284200D01*
X25146000Y13284200D01*
X25118305Y13278989D01*
X25092868Y13262621D01*
X25075803Y13237646D01*
X25069800Y13208000D01*
X25069800Y12287064D01*
X24606436Y11823700D01*
X22860000Y11823700D01*
X22832305Y11818489D01*
X22806868Y11802121D01*
X22789803Y11777146D01*
X22783800Y11747500D01*
X8001000Y11747500D01*
X8001000Y13583584D01*
X8903416Y14486000D01*
X11011097Y14486000D01*
X11071162Y14425830D01*
X11262472Y14346391D01*
X11469619Y14346210D01*
X11661067Y14425315D01*
X11807670Y14571662D01*
X11887109Y14762972D01*
X11887290Y14970119D01*
X11808185Y15161567D01*
X11661838Y15308170D01*
X11520047Y15367047D01*
X11661067Y15425315D01*
X11721858Y15486000D01*
X12021300Y15486000D01*
X12167103Y15515002D01*
X12290708Y15597592D01*
X14282616Y17589500D01*
X22371236Y17589500D01*
X21663118Y16881382D01*
X21646803Y16857146D01*
X21640800Y16827500D01*
X21640800Y14668500D01*
X21646011Y14640805D01*
X21662379Y14615368D01*
X21687354Y14598303D01*
X21717000Y14592300D01*
X21907500Y14592300D01*
X21935195Y14597511D01*
X21960632Y14613879D01*
X21977697Y14638854D01*
X21983700Y14668500D01*
X21983700Y16605436D01*
X22701064Y17322800D01*
X25387300Y17322800D01*
X25387300Y16141700D01*
X24130000Y16141700D01*
X24101327Y16136099D01*
X24076118Y16119382D01*
X23590436Y15633700D01*
X23114000Y15633700D01*
X23085327Y15628099D01*
X23060118Y15611382D01*
X22742618Y15293882D01*
X22726303Y15269646D01*
X22720300Y15240000D01*
X22720300Y14668500D01*
X22725511Y14640805D01*
X22741879Y14615368D01*
X22766854Y14598303D01*
X22796500Y14592300D01*
X22987000Y14592300D01*
X23014695Y14597511D01*
X23040132Y14613879D01*
X23057197Y14638854D01*
X23063200Y14668500D01*
X23063200Y15017936D01*
X23336064Y15290800D01*
X23812500Y15290800D01*
X23841173Y15296401D01*
X23866382Y15313118D01*
X24352064Y15798800D01*
X25654000Y15798800D01*
X25681695Y15804011D01*
X25707132Y15820379D01*
X25724197Y15845354D01*
X25730200Y15875000D01*
X25730200Y17589500D01*
X30353000Y17589500D01*
X30498803Y17618502D01*
X30622408Y17701092D01*
X31509637Y18588322D01*
X33573433Y18588322D01*
X33573433Y330200D01*
X33100678Y330200D01*
X33100678Y2921000D01*
X33084738Y3005714D01*
X33034672Y3083518D01*
X32958280Y3135715D01*
X32867600Y3154078D01*
X31140400Y3154078D01*
X31055686Y3138138D01*
X30977882Y3088072D01*
X30925685Y3011680D01*
X30907322Y2921000D01*
X30907322Y330200D01*
X30560678Y330200D01*
X30560678Y2921000D01*
X30544738Y3005714D01*
X30494672Y3083518D01*
X30418280Y3135715D01*
X30327600Y3154078D01*
X28600400Y3154078D01*
X28515686Y3138138D01*
X28437882Y3088072D01*
X28385685Y3011680D01*
X28367322Y2921000D01*
X28367322Y330200D01*
X28020678Y330200D01*
X28020678Y2921000D01*
X28004738Y3005714D01*
X27954672Y3083518D01*
X27878280Y3135715D01*
X27787600Y3154078D01*
X26060400Y3154078D01*
X25975686Y3138138D01*
X25897882Y3088072D01*
X25845685Y3011680D01*
X25827322Y2921000D01*
X25827322Y330200D01*
X25480678Y330200D01*
X25480678Y2921000D01*
X25464738Y3005714D01*
X25414672Y3083518D01*
X25338280Y3135715D01*
X25247600Y3154078D01*
X23520400Y3154078D01*
X23435686Y3138138D01*
X23357882Y3088072D01*
X23305685Y3011680D01*
X23287322Y2921000D01*
X23287322Y330200D01*
X22940678Y330200D01*
X22940678Y2921000D01*
X22924738Y3005714D01*
X22874672Y3083518D01*
X22798280Y3135715D01*
X22707600Y3154078D01*
X20980400Y3154078D01*
X20895686Y3138138D01*
X20817882Y3088072D01*
X20765685Y3011680D01*
X20747322Y2921000D01*
X20747322Y330200D01*
X20400678Y330200D01*
X20400678Y2921000D01*
X20384738Y3005714D01*
X20334672Y3083518D01*
X20258280Y3135715D01*
X20167600Y3154078D01*
X18440400Y3154078D01*
X18355686Y3138138D01*
X18277882Y3088072D01*
X18225685Y3011680D01*
X18207322Y2921000D01*
X18207322Y330200D01*
X17860678Y330200D01*
X17860678Y2921000D01*
X17844738Y3005714D01*
X17794672Y3083518D01*
X17718280Y3135715D01*
X17627600Y3154078D01*
X15900400Y3154078D01*
X15815686Y3138138D01*
X15737882Y3088072D01*
X15685685Y3011680D01*
X15667322Y2921000D01*
X15667322Y330200D01*
X15320678Y330200D01*
X15320678Y2921000D01*
X15304738Y3005714D01*
X15254672Y3083518D01*
X15178280Y3135715D01*
X15087600Y3154078D01*
X13360400Y3154078D01*
X13275686Y3138138D01*
X13197882Y3088072D01*
X13145685Y3011680D01*
X13127322Y2921000D01*
X13127322Y330200D01*
X12780678Y330200D01*
X12780678Y2921000D01*
X12764738Y3005714D01*
X12714672Y3083518D01*
X12638280Y3135715D01*
X12547600Y3154078D01*
X10820400Y3154078D01*
X10735686Y3138138D01*
X10657882Y3088072D01*
X10605685Y3011680D01*
X10587322Y2921000D01*
X10587322Y330200D01*
X10240678Y330200D01*
X10240678Y2921000D01*
X10224738Y3005714D01*
X10174672Y3083518D01*
X10098280Y3135715D01*
X10007600Y3154078D01*
X8280400Y3154078D01*
X8195686Y3138138D01*
X8117882Y3088072D01*
X8065685Y3011680D01*
X8047322Y2921000D01*
X8047322Y330200D01*
X7700678Y330200D01*
X7700678Y2921000D01*
X7684738Y3005714D01*
X7634672Y3083518D01*
X7558280Y3135715D01*
X7467600Y3154078D01*
X5740400Y3154078D01*
X5655686Y3138138D01*
X5577882Y3088072D01*
X5525685Y3011680D01*
X5507322Y2921000D01*
X5507322Y330200D01*
X5160678Y330200D01*
X5160678Y2921000D01*
X5144738Y3005714D01*
X5094672Y3083518D01*
X5018280Y3135715D01*
X4927600Y3154078D01*
X4445000Y3154078D01*
X4445000Y5143500D01*
X4415998Y5289302D01*
X4415998Y5289303D01*
X4333408Y5412908D01*
X2968575Y6777741D01*
X10274210Y6777741D01*
X10353315Y6586293D01*
X10499662Y6439690D01*
X10690972Y6360251D01*
X10898119Y6360070D01*
X11089567Y6439175D01*
X11150358Y6499860D01*
X18742324Y6499860D01*
X18973784Y6268400D01*
X18973710Y6183381D01*
X19052815Y5991933D01*
X19199162Y5845330D01*
X19390472Y5765891D01*
X19476368Y5765816D01*
X21185590Y4056595D01*
X21185592Y4056592D01*
X21309198Y3974002D01*
X21455000Y3944999D01*
X21455005Y3945000D01*
X24155597Y3945000D01*
X24215662Y3884830D01*
X24406972Y3805391D01*
X24614119Y3805210D01*
X24805567Y3884315D01*
X24952170Y4030662D01*
X25031609Y4221972D01*
X25031790Y4429119D01*
X24952685Y4620567D01*
X24806338Y4767170D01*
X24615028Y4846609D01*
X24614545Y4846609D01*
X24784014Y4916633D01*
X24919890Y5052272D01*
X24993516Y5229584D01*
X24993684Y5421574D01*
X24920367Y5599014D01*
X24784728Y5734890D01*
X24607416Y5808516D01*
X24415426Y5808684D01*
X24237986Y5735367D01*
X24133236Y5630800D01*
X21351890Y5630800D01*
X20454890Y6527800D01*
X21082000Y6527800D01*
X21109695Y6533011D01*
X21135132Y6549379D01*
X21152197Y6574354D01*
X21158200Y6604000D01*
X21158200Y6731000D01*
X21152989Y6758695D01*
X21136621Y6784132D01*
X21111646Y6801197D01*
X21082000Y6807200D01*
X20175490Y6807200D01*
X20078700Y6903990D01*
X20078700Y8921936D01*
X20500882Y9344118D01*
X20517197Y9368354D01*
X20523200Y9398000D01*
X20523200Y10668000D01*
X21704300Y10668000D01*
X21704300Y9779000D01*
X21709901Y9750327D01*
X21726618Y9725118D01*
X22275800Y9175936D01*
X22275800Y6807200D01*
X21844000Y6807200D01*
X21816305Y6801989D01*
X21790868Y6785621D01*
X21773803Y6760646D01*
X21767800Y6731000D01*
X21767800Y6604000D01*
X21773011Y6576305D01*
X21789379Y6550868D01*
X21814354Y6533803D01*
X21844000Y6527800D01*
X22479000Y6527800D01*
X22506695Y6533011D01*
X22532132Y6549379D01*
X22549197Y6574354D01*
X22555200Y6604000D01*
X22555200Y9334500D01*
X22549599Y9363173D01*
X22532882Y9388382D01*
X22047200Y9874064D01*
X22047200Y10668000D01*
X22041989Y10695695D01*
X22025621Y10721132D01*
X22000646Y10738197D01*
X21971000Y10744200D01*
X21780500Y10744200D01*
X21752805Y10738989D01*
X21727368Y10722621D01*
X21710303Y10697646D01*
X21704300Y10668000D01*
X20523200Y10668000D01*
X20517989Y10695695D01*
X20501621Y10721132D01*
X20476646Y10738197D01*
X20447000Y10744200D01*
X20256500Y10744200D01*
X20228805Y10738989D01*
X20203368Y10722621D01*
X20186303Y10697646D01*
X20180300Y10668000D01*
X20180300Y9429564D01*
X19821618Y9070882D01*
X19805303Y9046646D01*
X19799300Y9017000D01*
X19799300Y7183390D01*
X19585044Y7397646D01*
X19585044Y8917120D01*
X19689134Y9021028D01*
X19762760Y9198340D01*
X19762928Y9390330D01*
X19689611Y9567770D01*
X19553972Y9703646D01*
X19376660Y9777272D01*
X19184670Y9777440D01*
X19007230Y9704123D01*
X18871354Y9568484D01*
X18797728Y9391172D01*
X18797560Y9199182D01*
X18870877Y9021742D01*
X18975444Y8916992D01*
X18975444Y7271394D01*
X18980521Y7245871D01*
X18900140Y7261860D01*
X11150403Y7261860D01*
X11090338Y7322030D01*
X10899028Y7401469D01*
X10691881Y7401650D01*
X10500433Y7322545D01*
X10353830Y7176198D01*
X10274391Y6984888D01*
X10274210Y6777741D01*
X2968575Y6777741D01*
X2301519Y7444797D01*
X2822006Y7965285D01*
X2822009Y7965287D01*
X2904599Y8088893D01*
X2923037Y8181584D01*
X2933602Y8234695D01*
X2933601Y8234700D01*
X2933601Y9295300D01*
X2933602Y9295305D01*
X2904599Y9441107D01*
X2858378Y9510282D01*
X2822009Y9564713D01*
X2822006Y9564715D01*
X1778000Y10608722D01*
X1778000Y10938179D01*
X1780894Y10939375D01*
X1971954Y11130102D01*
X2075482Y11379426D01*
X2075625Y11543010D01*
X2080078Y11565000D01*
X2080078Y11965000D01*
X2064138Y12049714D01*
X2054809Y12064212D01*
X2061715Y12074320D01*
X2080078Y12165000D01*
X2080078Y12565000D01*
X2075578Y12588917D01*
X2075718Y12749390D01*
X2074106Y12753290D01*
X2163616Y12842800D01*
X2565597Y12842800D01*
X2625662Y12782630D01*
X2816972Y12703191D01*
X3024119Y12703010D01*
X3215567Y12782115D01*
X3362170Y12928462D01*
X3441609Y13119772D01*
X3441790Y13326919D01*
X3362685Y13518367D01*
X3216338Y13664970D01*
X3025028Y13744409D01*
X2817881Y13744590D01*
X2626433Y13665485D01*
X2565642Y13604800D01*
X2005800Y13604800D01*
X1859997Y13575798D01*
X1736392Y13493208D01*
X1535465Y13292281D01*
X1532574Y13293482D01*
X1262610Y13293718D01*
X1013106Y13190625D01*
X822046Y12999898D01*
X718518Y12750574D01*
X718375Y12586990D01*
X713922Y12565000D01*
X713922Y12165000D01*
X729862Y12080286D01*
X739191Y12065788D01*
X732285Y12055680D01*
X713922Y11965000D01*
X713922Y11565000D01*
X718422Y11541083D01*
X718282Y11380610D01*
X821375Y11131106D01*
X1012102Y10940046D01*
X1016000Y10938427D01*
X1016000Y10450906D01*
X1045002Y10305103D01*
X1127592Y10181498D01*
X1515549Y9793541D01*
X1244097Y9793778D01*
X865906Y9637513D01*
X576304Y9348416D01*
X419379Y8970499D01*
X419022Y8561297D01*
X575287Y8183106D01*
X815709Y7942264D01*
X785881Y7942290D01*
X594433Y7863185D01*
X447830Y7716838D01*
X368391Y7525528D01*
X368210Y7318381D01*
X447315Y7126933D01*
X593662Y6980330D01*
X784972Y6900891D01*
X992119Y6900710D01*
X1183567Y6979815D01*
X1252372Y7048500D01*
X1620184Y7048500D01*
X3683000Y4985684D01*
X3683000Y3154078D01*
X3200400Y3154078D01*
X3115686Y3138138D01*
X3037882Y3088072D01*
X2985685Y3011680D01*
X2967322Y2921000D01*
X2967322Y330200D01*
X2616200Y330200D01*
X2616200Y1835150D01*
X2559050Y1892300D01*
X1536700Y1892300D01*
X1536700Y330200D01*
X1511300Y330200D01*
X1511300Y1892300D01*
X488950Y1892300D01*
X431800Y1835150D01*
X431800Y330200D01*
X330200Y330200D01*
X330200Y2966471D01*
X431800Y2966471D01*
X431800Y1974850D01*
X488950Y1917700D01*
X1511300Y1917700D01*
X1511300Y3092450D01*
X1536700Y3092450D01*
X1536700Y1917700D01*
X2559050Y1917700D01*
X2616200Y1974850D01*
X2616200Y2966471D01*
X2581398Y3050491D01*
X2517092Y3114797D01*
X2433072Y3149600D01*
X1593850Y3149600D01*
X1536700Y3092450D01*
X1511300Y3092450D01*
X1454150Y3149600D01*
X614928Y3149600D01*
X530908Y3114797D01*
X466602Y3050491D01*
X431800Y2966471D01*
X330200Y2966471D01*
X330200Y15161297D01*
X419022Y15161297D01*
X575287Y14783106D01*
X864384Y14493504D01*
X1242301Y14336579D01*
X1651503Y14336222D01*
X2029694Y14492487D01*
X2319296Y14781584D01*
X2476221Y15159501D01*
X2476578Y15568703D01*
X2320313Y15946894D01*
X2031216Y16236496D01*
X1653299Y16393421D01*
X1244097Y16393778D01*
X865906Y16237513D01*
X576304Y15948416D01*
X419379Y15570499D01*
X419022Y15161297D01*
X330200Y15161297D01*
X330200Y23799800D01*
X427322Y23799800D01*
X427322Y21209000D01*
M02*
