G04 #@! TF.FileFunction,Paste,Top*
%FSLAX46Y46*%
G04 Gerber Fmt 4.6, Leading zero omitted, Abs format (unit mm)*
G04 Created by KiCad (PCBNEW (2015-08-16 BZR 6097, Git b384c94)-product) date 22/01/2016 15:19:33*
%MOMM*%
G01*
G04 APERTURE LIST*
%ADD10C,0.100000*%
%ADD11R,1.197600X0.247600*%
%ADD12R,1.247600X1.047600*%
%ADD13R,1.400000X1.200000*%
%ADD14R,1.747600X1.747600*%
%ADD15R,0.897600X0.497600*%
%ADD16R,1.747600X0.947600*%
%ADD17R,1.097600X0.447600*%
%ADD18R,2.047240X1.447800*%
%ADD19R,1.447800X2.047240*%
%ADD20R,0.547600X0.097600*%
%ADD21R,0.097600X0.547600*%
%ADD22R,0.882600X0.882600*%
%ADD23R,0.197600X0.027600*%
%ADD24R,0.027600X0.747600*%
%ADD25R,0.447600X0.547600*%
%ADD26R,0.547600X0.447600*%
G04 APERTURE END LIST*
D10*
D11*
X157157800Y-85060000D03*
X157157800Y-85710000D03*
X157157800Y-86360000D03*
X157157800Y-87010000D03*
X157157800Y-87660000D03*
D12*
X156932800Y-89560000D03*
D13*
X156932800Y-83160000D03*
D14*
X154482800Y-87810000D03*
X154482800Y-84910000D03*
D15*
X172402500Y-94424500D03*
X177602500Y-94424500D03*
X177602500Y-92274500D03*
X172402500Y-92274500D03*
D16*
X176022000Y-88435500D03*
X176022000Y-85935500D03*
D17*
X162786000Y-84648000D03*
X162786000Y-85598000D03*
X162786000Y-86548000D03*
X159286000Y-86548000D03*
X159286000Y-85598000D03*
X159286000Y-84648000D03*
D18*
X162854640Y-81915000D03*
X159852360Y-81915000D03*
D19*
X164211000Y-91544140D03*
X164211000Y-88541860D03*
D20*
X173114500Y-87438000D03*
X173114500Y-86938000D03*
X173114500Y-86438000D03*
X173114500Y-85938000D03*
X173114500Y-85438000D03*
X173114500Y-84938000D03*
X173114500Y-84438000D03*
X173114500Y-83938000D03*
D21*
X172464500Y-83288000D03*
X171964500Y-83288000D03*
X171464500Y-83288000D03*
X170964500Y-83288000D03*
X170464500Y-83288000D03*
X169964500Y-83288000D03*
X169464500Y-83288000D03*
X168964500Y-83288000D03*
D20*
X168314500Y-83938000D03*
X168314500Y-84438000D03*
X168314500Y-84938000D03*
X168314500Y-85438000D03*
X168314500Y-85938000D03*
X168314500Y-86438000D03*
X168314500Y-86938000D03*
X168314500Y-87438000D03*
D21*
X168964500Y-88088000D03*
X169464500Y-88088000D03*
X169964500Y-88088000D03*
X170464500Y-88088000D03*
X170964500Y-88088000D03*
X171464500Y-88088000D03*
X171964500Y-88088000D03*
X172464500Y-88088000D03*
D22*
X169852000Y-84825500D03*
X169852000Y-86550500D03*
X171577000Y-84825500D03*
X171577000Y-86550500D03*
D23*
X160100500Y-92729000D03*
X160100500Y-92329000D03*
X160100500Y-91929000D03*
X159050500Y-91929000D03*
X159050500Y-92329000D03*
X159050500Y-92729000D03*
D24*
X159575500Y-92329000D03*
D25*
X170289600Y-92265500D03*
X171289600Y-92265500D03*
X170289600Y-93484700D03*
X171289600Y-93484700D03*
X168076500Y-93345000D03*
X167076500Y-93345000D03*
X154703400Y-91135200D03*
X153703400Y-91135200D03*
X158297500Y-91948000D03*
X157297500Y-91948000D03*
D26*
X161099500Y-91956000D03*
X161099500Y-92956000D03*
D25*
X170289600Y-94703900D03*
X171289600Y-94703900D03*
X171315000Y-90868500D03*
X170315000Y-90868500D03*
X173093000Y-82042000D03*
X172093000Y-82042000D03*
D26*
X177736500Y-85733000D03*
X177736500Y-86733000D03*
X177736500Y-88638000D03*
X177736500Y-87638000D03*
D25*
X154703400Y-92405200D03*
X153703400Y-92405200D03*
X171315000Y-89598500D03*
X170315000Y-89598500D03*
X167084500Y-94589600D03*
X168084500Y-94589600D03*
D10*
G36*
X158713700Y-90614300D02*
X158713700Y-87566700D01*
X159961300Y-87566700D01*
X159961300Y-90614300D01*
X158713700Y-90614300D01*
X158713700Y-90614300D01*
G37*
G36*
X160713700Y-90614300D02*
X160713700Y-87566700D01*
X161961300Y-87566700D01*
X161961300Y-90614300D01*
X160713700Y-90614300D01*
X160713700Y-90614300D01*
G37*
D26*
X164782500Y-83558000D03*
X164782500Y-82558000D03*
M02*
