M48
INCH,TZ
T1C0.013
T2C0.040
T3C0.047
%
G90
G05
T1
X000350Y002922
X001150Y005206
X001550Y002922
X002331Y003675
X004250Y002709
X004475Y006247
X004475Y005853
X005775Y001510
X007591Y003659
X007675Y002475
X007871Y005329
X007871Y004650
X008550Y005329
X008550Y004650
X008926Y006500
X009650Y002822
X009650Y002097
X009650Y001703
X009700Y007075
X010175Y004425
X010425Y004425
X010675Y004425
X010676Y001877
T2
X000600Y009500
X000600Y008750
X000600Y000750
X000600Y000000
X001600Y009500
X001600Y008750
X001600Y000750
X001600Y000000
X002600Y009500
X002600Y008750
X002600Y000750
X002600Y000000
X003600Y009500
X003600Y008750
X003600Y000750
X003600Y000000
X004600Y009500
X004600Y008750
X004600Y000750
X004600Y000000
X005600Y009500
X005600Y008750
X005600Y000750
X005600Y000000
X006600Y009500
X006600Y008750
X006600Y000750
X006600Y000000
X007600Y009500
X007600Y008750
X007600Y000750
X007600Y000000
X008600Y009500
X008600Y008750
X008600Y000750
X008600Y000000
X009600Y009500
X009600Y008750
X009600Y000750
X009600Y000000
X010600Y009500
X010600Y008750
X010600Y000750
X010600Y000000
X011600Y009500
X011600Y008750
X011600Y000750
X011600Y000000
X012600Y009500
X012600Y008750
X012600Y007750
X012600Y000750
X012600Y000000
X013350Y007750
T3
X000570Y006049
X000570Y003451
T0
M30
