G04 #@! TF.FileFunction,Legend,Top*
%FSLAX46Y46*%
G04 Gerber Fmt 4.6, Leading zero omitted, Abs format (unit mm)*
G04 Created by KiCad (PCBNEW (2015-08-16 BZR 6097, Git b384c94)-product) date 18/01/2016 12:48:03*
%MOMM*%
G01*
G04 APERTURE LIST*
%ADD10C,0.100000*%
%ADD11C,0.150000*%
%ADD12C,0.050000*%
G04 APERTURE END LIST*
D10*
D11*
X153416000Y-98425000D02*
X153416000Y-74295000D01*
X187325000Y-98425000D02*
X153416000Y-98425000D01*
X187325000Y-74295000D02*
X187325000Y-98425000D01*
X153416000Y-74295000D02*
X187325000Y-74295000D01*
X183534000Y-91483000D02*
X182734000Y-91483000D01*
X183534000Y-93683000D02*
X182734000Y-93683000D01*
X181634000Y-92583000D02*
G75*
G03X182734000Y-93683000I1100000J0D01*
G01*
X182734000Y-91483000D02*
G75*
G03X181634000Y-92583000I0J-1100000D01*
G01*
X184634000Y-92583000D02*
G75*
G03X183534000Y-91483000I-1100000J0D01*
G01*
X183534000Y-93683000D02*
G75*
G03X184634000Y-92583000I0J1100000D01*
G01*
X180934000Y-91983000D02*
X180934000Y-93183000D01*
X185334000Y-91983000D02*
X185334000Y-93183000D01*
X185334000Y-94183000D02*
X180934000Y-94183000D01*
X180934000Y-90983000D02*
X185334000Y-90983000D01*
X178955000Y-87799000D02*
X178955000Y-86699000D01*
X180455000Y-87799000D02*
X180455000Y-86699000D01*
X160286000Y-84098000D02*
X161786000Y-84098000D01*
X161786000Y-84098000D02*
X161786000Y-87098000D01*
X161786000Y-87098000D02*
X160286000Y-87098000D01*
X160286000Y-87098000D02*
X160286000Y-84098000D01*
X160603500Y-82815000D02*
X160603500Y-83565000D01*
X159703500Y-80365000D02*
X160603500Y-80365000D01*
X159703500Y-80415000D02*
X159703500Y-80365000D01*
X160603500Y-80415000D02*
X159703500Y-80415000D01*
X160603500Y-80515000D02*
X160603500Y-80415000D01*
X159703500Y-80515000D02*
X160603500Y-80515000D01*
X159703500Y-80615000D02*
X159703500Y-80515000D01*
X160603500Y-80615000D02*
X159703500Y-80615000D01*
X160603500Y-80715000D02*
X160603500Y-80615000D01*
X159703500Y-80715000D02*
X160603500Y-80715000D01*
X159703500Y-80815000D02*
X159703500Y-80715000D01*
X160603500Y-80815000D02*
X159703500Y-80815000D01*
X160603500Y-80865000D02*
X160603500Y-80815000D01*
X160603500Y-80915000D02*
X160603500Y-80815000D01*
X159703500Y-80915000D02*
X160603500Y-80915000D01*
X159703500Y-83465000D02*
X160603500Y-83465000D01*
X159703500Y-83365000D02*
X159703500Y-83465000D01*
X160603500Y-83365000D02*
X159703500Y-83365000D01*
X160603500Y-83265000D02*
X160603500Y-83365000D01*
X159703500Y-83265000D02*
X160603500Y-83265000D01*
X159703500Y-83165000D02*
X159703500Y-83265000D01*
X160603500Y-83165000D02*
X159703500Y-83165000D01*
X160603500Y-83065000D02*
X160603500Y-83165000D01*
X159703500Y-83065000D02*
X160603500Y-83065000D01*
X159703500Y-82965000D02*
X159703500Y-83065000D01*
X160603500Y-82965000D02*
X159703500Y-82965000D01*
X160603500Y-82865000D02*
X160603500Y-82965000D01*
X159703500Y-82865000D02*
X160603500Y-82865000D01*
X160603500Y-80965000D02*
X159703500Y-80965000D01*
X160603500Y-80315000D02*
X160603500Y-81015000D01*
X160153500Y-82815000D02*
G75*
G03X162553500Y-82815000I1200000J900000D01*
G01*
X162553500Y-81015000D02*
G75*
G03X160153500Y-81015000I-1200000J-900000D01*
G01*
X162253500Y-83565000D02*
X163003500Y-82815000D01*
X159703500Y-83565000D02*
X162253500Y-83565000D01*
X159703500Y-82815000D02*
X159703500Y-83565000D01*
X159703500Y-81015000D02*
X159703500Y-80265000D01*
X159703500Y-80265000D02*
X162253500Y-80265000D01*
X162253500Y-80265000D02*
X163003500Y-81015000D01*
X159702500Y-83566000D02*
X162242500Y-83566000D01*
X162242500Y-83566000D02*
X163004500Y-82804000D01*
X163004500Y-81026000D02*
X162242500Y-80264000D01*
X163311000Y-89293000D02*
X162561000Y-89293000D01*
X165761000Y-88393000D02*
X165761000Y-89293000D01*
X165711000Y-88393000D02*
X165761000Y-88393000D01*
X165711000Y-89293000D02*
X165711000Y-88393000D01*
X165611000Y-89293000D02*
X165711000Y-89293000D01*
X165611000Y-88393000D02*
X165611000Y-89293000D01*
X165511000Y-88393000D02*
X165611000Y-88393000D01*
X165511000Y-89293000D02*
X165511000Y-88393000D01*
X165411000Y-89293000D02*
X165511000Y-89293000D01*
X165411000Y-88393000D02*
X165411000Y-89293000D01*
X165311000Y-88393000D02*
X165411000Y-88393000D01*
X165311000Y-89293000D02*
X165311000Y-88393000D01*
X165261000Y-89293000D02*
X165311000Y-89293000D01*
X165211000Y-89293000D02*
X165311000Y-89293000D01*
X165211000Y-88393000D02*
X165211000Y-89293000D01*
X162661000Y-88393000D02*
X162661000Y-89293000D01*
X162761000Y-88393000D02*
X162661000Y-88393000D01*
X162761000Y-89293000D02*
X162761000Y-88393000D01*
X162861000Y-89293000D02*
X162761000Y-89293000D01*
X162861000Y-88393000D02*
X162861000Y-89293000D01*
X162961000Y-88393000D02*
X162861000Y-88393000D01*
X162961000Y-89293000D02*
X162961000Y-88393000D01*
X163061000Y-89293000D02*
X162961000Y-89293000D01*
X163061000Y-88393000D02*
X163061000Y-89293000D01*
X163161000Y-88393000D02*
X163061000Y-88393000D01*
X163161000Y-89293000D02*
X163161000Y-88393000D01*
X163261000Y-89293000D02*
X163161000Y-89293000D01*
X163261000Y-88393000D02*
X163261000Y-89293000D01*
X165161000Y-89293000D02*
X165161000Y-88393000D01*
X165811000Y-89293000D02*
X165111000Y-89293000D01*
X163311000Y-88843000D02*
G75*
G03X163311000Y-91243000I900000J-1200000D01*
G01*
X165111000Y-91243000D02*
G75*
G03X165111000Y-88843000I-900000J1200000D01*
G01*
X162561000Y-90943000D02*
X163311000Y-91693000D01*
X162561000Y-88393000D02*
X162561000Y-90943000D01*
X163311000Y-88393000D02*
X162561000Y-88393000D01*
X165111000Y-88393000D02*
X165861000Y-88393000D01*
X165861000Y-88393000D02*
X165861000Y-90943000D01*
X165861000Y-90943000D02*
X165111000Y-91693000D01*
X162560000Y-88392000D02*
X162560000Y-90932000D01*
X162560000Y-90932000D02*
X163322000Y-91694000D01*
X165100000Y-91694000D02*
X165862000Y-90932000D01*
X171645500Y-88376500D02*
X171645500Y-87851500D01*
X176895500Y-83126500D02*
X176895500Y-83651500D01*
X171645500Y-83126500D02*
X171645500Y-83651500D01*
X176895500Y-88376500D02*
X176370500Y-88376500D01*
X176895500Y-83126500D02*
X176370500Y-83126500D01*
X171645500Y-83126500D02*
X172170500Y-83126500D01*
X171645500Y-88376500D02*
X172170500Y-88376500D01*
D12*
X156929000Y-90876500D02*
X156929000Y-91076500D01*
X156729000Y-90976500D02*
X156929000Y-90876500D01*
X156929000Y-91076500D02*
X156729000Y-90976500D01*
X156429000Y-90776500D02*
X155229000Y-90776500D01*
X156429000Y-91976500D02*
X155229000Y-91976500D01*
D11*
X179697000Y-91257500D02*
X179697000Y-92257500D01*
X178697000Y-92257500D02*
X178697000Y-91257500D01*
X177427000Y-94099000D02*
X177427000Y-93099000D01*
X178427000Y-93099000D02*
X178427000Y-94099000D01*
X167076500Y-92845000D02*
X168076500Y-92845000D01*
X168076500Y-93845000D02*
X167076500Y-93845000D01*
X154059000Y-81653000D02*
X154059000Y-80653000D01*
X155059000Y-80653000D02*
X155059000Y-81653000D01*
X154805000Y-91153500D02*
X154805000Y-91853500D01*
X153805000Y-91853500D02*
X153805000Y-91153500D01*
X157853000Y-91153500D02*
X157853000Y-91853500D01*
X156853000Y-91853500D02*
X156853000Y-91153500D01*
X177427000Y-92107500D02*
X177427000Y-91407500D01*
X178427000Y-91407500D02*
X178427000Y-92107500D01*
X174721000Y-91559000D02*
X174021000Y-91559000D01*
X174021000Y-90559000D02*
X174721000Y-90559000D01*
X177388000Y-82415000D02*
X176688000Y-82415000D01*
X176688000Y-81415000D02*
X177388000Y-81415000D01*
X181919500Y-85946500D02*
X181919500Y-86646500D01*
X180919500Y-86646500D02*
X180919500Y-85946500D01*
X180919500Y-88551500D02*
X180919500Y-87851500D01*
X181919500Y-87851500D02*
X181919500Y-88551500D01*
X156329000Y-80803000D02*
X156329000Y-81503000D01*
X155329000Y-81503000D02*
X155329000Y-80803000D01*
X174721000Y-90289000D02*
X174021000Y-90289000D01*
X174021000Y-89289000D02*
X174721000Y-89289000D01*
X166384500Y-94589600D02*
X166584500Y-94589600D01*
X166384500Y-94589600D02*
X166184500Y-94589600D01*
X166384500Y-94389600D02*
X166384500Y-94789600D01*
D10*
X167084500Y-95089600D02*
X168084500Y-95089600D01*
X168084500Y-94089600D02*
X167084500Y-94089600D01*
D11*
X158637500Y-90840500D02*
X162037500Y-90840500D01*
X158637500Y-87340500D02*
X162037500Y-87340500D01*
X165282500Y-82558000D02*
X165282500Y-83558000D01*
X164282500Y-83558000D02*
X164282500Y-82558000D01*
X183417333Y-93116334D02*
X183450667Y-93016334D01*
X183450667Y-92849667D01*
X183417333Y-92783000D01*
X183384000Y-92749667D01*
X183317333Y-92716334D01*
X183250667Y-92716334D01*
X183184000Y-92749667D01*
X183150667Y-92783000D01*
X183117333Y-92849667D01*
X183084000Y-92983000D01*
X183050667Y-93049667D01*
X183017333Y-93083000D01*
X182950667Y-93116334D01*
X182884000Y-93116334D01*
X182817333Y-93083000D01*
X182784000Y-93049667D01*
X182750667Y-92983000D01*
X182750667Y-92816334D01*
X182784000Y-92716334D01*
X183450667Y-92049667D02*
X183450667Y-92449667D01*
X183450667Y-92249667D02*
X182750667Y-92249667D01*
X182850667Y-92316333D01*
X182917333Y-92383000D01*
X182950667Y-92449667D01*
X177670667Y-87688667D02*
X178370667Y-87222000D01*
X177670667Y-87222000D02*
X178370667Y-87688667D01*
X178370667Y-86588667D02*
X178370667Y-86988667D01*
X178370667Y-86788667D02*
X177670667Y-86788667D01*
X177770667Y-86855333D01*
X177837333Y-86922000D01*
X177870667Y-86988667D01*
X160652667Y-86131333D02*
X161219333Y-86131333D01*
X161286000Y-86098000D01*
X161319333Y-86064667D01*
X161352667Y-85998000D01*
X161352667Y-85864667D01*
X161319333Y-85798000D01*
X161286000Y-85764667D01*
X161219333Y-85731333D01*
X160652667Y-85731333D01*
X160719333Y-85431334D02*
X160686000Y-85398000D01*
X160652667Y-85331334D01*
X160652667Y-85164667D01*
X160686000Y-85098000D01*
X160719333Y-85064667D01*
X160786000Y-85031334D01*
X160852667Y-85031334D01*
X160952667Y-85064667D01*
X161352667Y-85464667D01*
X161352667Y-85031334D01*
X161603500Y-79618666D02*
X161636833Y-79652000D01*
X161670167Y-79752000D01*
X161670167Y-79818666D01*
X161636833Y-79918666D01*
X161570167Y-79985333D01*
X161503500Y-80018666D01*
X161370167Y-80052000D01*
X161270167Y-80052000D01*
X161136833Y-80018666D01*
X161070167Y-79985333D01*
X161003500Y-79918666D01*
X160970167Y-79818666D01*
X160970167Y-79752000D01*
X161003500Y-79652000D01*
X161036833Y-79618666D01*
X160970167Y-79385333D02*
X160970167Y-78952000D01*
X161236833Y-79185333D01*
X161236833Y-79085333D01*
X161270167Y-79018666D01*
X161303500Y-78985333D01*
X161370167Y-78952000D01*
X161536833Y-78952000D01*
X161603500Y-78985333D01*
X161636833Y-79018666D01*
X161670167Y-79085333D01*
X161670167Y-79285333D01*
X161636833Y-79352000D01*
X161603500Y-79385333D01*
X166747000Y-90159666D02*
X166780333Y-90193000D01*
X166813667Y-90293000D01*
X166813667Y-90359666D01*
X166780333Y-90459666D01*
X166713667Y-90526333D01*
X166647000Y-90559666D01*
X166513667Y-90593000D01*
X166413667Y-90593000D01*
X166280333Y-90559666D01*
X166213667Y-90526333D01*
X166147000Y-90459666D01*
X166113667Y-90359666D01*
X166113667Y-90293000D01*
X166147000Y-90193000D01*
X166180333Y-90159666D01*
X166347000Y-89559666D02*
X166813667Y-89559666D01*
X166080333Y-89726333D02*
X166580333Y-89893000D01*
X166580333Y-89459666D01*
X155193167Y-86813166D02*
X154493167Y-86813166D01*
X154493167Y-86546500D01*
X154526500Y-86479833D01*
X154559833Y-86446500D01*
X154626500Y-86413166D01*
X154726500Y-86413166D01*
X154793167Y-86446500D01*
X154826500Y-86479833D01*
X154859833Y-86546500D01*
X154859833Y-86813166D01*
X155193167Y-85746500D02*
X155193167Y-86146500D01*
X155193167Y-85946500D02*
X154493167Y-85946500D01*
X154593167Y-86013166D01*
X154659833Y-86079833D01*
X154693167Y-86146500D01*
X176464167Y-89788933D02*
X177030833Y-89788933D01*
X177097500Y-89755600D01*
X177130833Y-89722267D01*
X177164167Y-89655600D01*
X177164167Y-89522267D01*
X177130833Y-89455600D01*
X177097500Y-89422267D01*
X177030833Y-89388933D01*
X176464167Y-89388933D01*
X176464167Y-89122267D02*
X176464167Y-88688934D01*
X176730833Y-88922267D01*
X176730833Y-88822267D01*
X176764167Y-88755600D01*
X176797500Y-88722267D01*
X176864167Y-88688934D01*
X177030833Y-88688934D01*
X177097500Y-88722267D01*
X177130833Y-88755600D01*
X177164167Y-88822267D01*
X177164167Y-89022267D01*
X177130833Y-89088934D01*
X177097500Y-89122267D01*
X155001167Y-93370333D02*
X155567833Y-93370333D01*
X155634500Y-93337000D01*
X155667833Y-93303667D01*
X155701167Y-93237000D01*
X155701167Y-93103667D01*
X155667833Y-93037000D01*
X155634500Y-93003667D01*
X155567833Y-92970333D01*
X155001167Y-92970333D01*
X155701167Y-92270334D02*
X155701167Y-92670334D01*
X155701167Y-92470334D02*
X155001167Y-92470334D01*
X155101167Y-92537000D01*
X155167833Y-92603667D01*
X155201167Y-92670334D01*
X179488267Y-93537866D02*
X179154933Y-93771200D01*
X179488267Y-93937866D02*
X178788267Y-93937866D01*
X178788267Y-93671200D01*
X178821600Y-93604533D01*
X178854933Y-93571200D01*
X178921600Y-93537866D01*
X179021600Y-93537866D01*
X179088267Y-93571200D01*
X179121600Y-93604533D01*
X179154933Y-93671200D01*
X179154933Y-93937866D01*
X179021600Y-92937866D02*
X179488267Y-92937866D01*
X178754933Y-93104533D02*
X179254933Y-93271200D01*
X179254933Y-92837866D01*
X177253067Y-93741066D02*
X176919733Y-93974400D01*
X177253067Y-94141066D02*
X176553067Y-94141066D01*
X176553067Y-93874400D01*
X176586400Y-93807733D01*
X176619733Y-93774400D01*
X176686400Y-93741066D01*
X176786400Y-93741066D01*
X176853067Y-93774400D01*
X176886400Y-93807733D01*
X176919733Y-93874400D01*
X176919733Y-94141066D01*
X176553067Y-93507733D02*
X176553067Y-93074400D01*
X176819733Y-93307733D01*
X176819733Y-93207733D01*
X176853067Y-93141066D01*
X176886400Y-93107733D01*
X176953067Y-93074400D01*
X177119733Y-93074400D01*
X177186400Y-93107733D01*
X177219733Y-93141066D01*
X177253067Y-93207733D01*
X177253067Y-93407733D01*
X177219733Y-93474400D01*
X177186400Y-93507733D01*
X169544167Y-93461666D02*
X169210833Y-93695000D01*
X169544167Y-93861666D02*
X168844167Y-93861666D01*
X168844167Y-93595000D01*
X168877500Y-93528333D01*
X168910833Y-93495000D01*
X168977500Y-93461666D01*
X169077500Y-93461666D01*
X169144167Y-93495000D01*
X169177500Y-93528333D01*
X169210833Y-93595000D01*
X169210833Y-93861666D01*
X168910833Y-93195000D02*
X168877500Y-93161666D01*
X168844167Y-93095000D01*
X168844167Y-92928333D01*
X168877500Y-92861666D01*
X168910833Y-92828333D01*
X168977500Y-92795000D01*
X169044167Y-92795000D01*
X169144167Y-92828333D01*
X169544167Y-93228333D01*
X169544167Y-92795000D01*
X154875667Y-79682166D02*
X154542333Y-79915500D01*
X154875667Y-80082166D02*
X154175667Y-80082166D01*
X154175667Y-79815500D01*
X154209000Y-79748833D01*
X154242333Y-79715500D01*
X154309000Y-79682166D01*
X154409000Y-79682166D01*
X154475667Y-79715500D01*
X154509000Y-79748833D01*
X154542333Y-79815500D01*
X154542333Y-80082166D01*
X154875667Y-79015500D02*
X154875667Y-79415500D01*
X154875667Y-79215500D02*
X154175667Y-79215500D01*
X154275667Y-79282166D01*
X154342333Y-79348833D01*
X154375667Y-79415500D01*
X154580400Y-93283866D02*
X154613733Y-93317200D01*
X154647067Y-93417200D01*
X154647067Y-93483866D01*
X154613733Y-93583866D01*
X154547067Y-93650533D01*
X154480400Y-93683866D01*
X154347067Y-93717200D01*
X154247067Y-93717200D01*
X154113733Y-93683866D01*
X154047067Y-93650533D01*
X153980400Y-93583866D01*
X153947067Y-93483866D01*
X153947067Y-93417200D01*
X153980400Y-93317200D01*
X154013733Y-93283866D01*
X154647067Y-92617200D02*
X154647067Y-93017200D01*
X154647067Y-92817200D02*
X153947067Y-92817200D01*
X154047067Y-92883866D01*
X154113733Y-92950533D01*
X154147067Y-93017200D01*
X158746000Y-91747166D02*
X158779333Y-91780500D01*
X158812667Y-91880500D01*
X158812667Y-91947166D01*
X158779333Y-92047166D01*
X158712667Y-92113833D01*
X158646000Y-92147166D01*
X158512667Y-92180500D01*
X158412667Y-92180500D01*
X158279333Y-92147166D01*
X158212667Y-92113833D01*
X158146000Y-92047166D01*
X158112667Y-91947166D01*
X158112667Y-91880500D01*
X158146000Y-91780500D01*
X158179333Y-91747166D01*
X158179333Y-91480500D02*
X158146000Y-91447166D01*
X158112667Y-91380500D01*
X158112667Y-91213833D01*
X158146000Y-91147166D01*
X158179333Y-91113833D01*
X158246000Y-91080500D01*
X158312667Y-91080500D01*
X158412667Y-91113833D01*
X158812667Y-91513833D01*
X158812667Y-91080500D01*
X177027000Y-92207500D02*
X177060333Y-92240834D01*
X177093667Y-92340834D01*
X177093667Y-92407500D01*
X177060333Y-92507500D01*
X176993667Y-92574167D01*
X176927000Y-92607500D01*
X176793667Y-92640834D01*
X176693667Y-92640834D01*
X176560333Y-92607500D01*
X176493667Y-92574167D01*
X176427000Y-92507500D01*
X176393667Y-92407500D01*
X176393667Y-92340834D01*
X176427000Y-92240834D01*
X176460333Y-92207500D01*
X177093667Y-91540834D02*
X177093667Y-91940834D01*
X177093667Y-91740834D02*
X176393667Y-91740834D01*
X176493667Y-91807500D01*
X176560333Y-91874167D01*
X176593667Y-91940834D01*
X177093667Y-90874167D02*
X177093667Y-91274167D01*
X177093667Y-91074167D02*
X176393667Y-91074167D01*
X176493667Y-91140833D01*
X176560333Y-91207500D01*
X176593667Y-91274167D01*
X176081500Y-91509000D02*
X176114833Y-91542334D01*
X176148167Y-91642334D01*
X176148167Y-91709000D01*
X176114833Y-91809000D01*
X176048167Y-91875667D01*
X175981500Y-91909000D01*
X175848167Y-91942334D01*
X175748167Y-91942334D01*
X175614833Y-91909000D01*
X175548167Y-91875667D01*
X175481500Y-91809000D01*
X175448167Y-91709000D01*
X175448167Y-91642334D01*
X175481500Y-91542334D01*
X175514833Y-91509000D01*
X176148167Y-90842334D02*
X176148167Y-91242334D01*
X176148167Y-91042334D02*
X175448167Y-91042334D01*
X175548167Y-91109000D01*
X175614833Y-91175667D01*
X175648167Y-91242334D01*
X175448167Y-90409000D02*
X175448167Y-90342333D01*
X175481500Y-90275667D01*
X175514833Y-90242333D01*
X175581500Y-90209000D01*
X175714833Y-90175667D01*
X175881500Y-90175667D01*
X176014833Y-90209000D01*
X176081500Y-90242333D01*
X176114833Y-90275667D01*
X176148167Y-90342333D01*
X176148167Y-90409000D01*
X176114833Y-90475667D01*
X176081500Y-90509000D01*
X176014833Y-90542333D01*
X175881500Y-90575667D01*
X175714833Y-90575667D01*
X175581500Y-90542333D01*
X175514833Y-90509000D01*
X175481500Y-90475667D01*
X175448167Y-90409000D01*
X177288000Y-80761666D02*
X177321333Y-80795000D01*
X177354667Y-80895000D01*
X177354667Y-80961666D01*
X177321333Y-81061666D01*
X177254667Y-81128333D01*
X177188000Y-81161666D01*
X177054667Y-81195000D01*
X176954667Y-81195000D01*
X176821333Y-81161666D01*
X176754667Y-81128333D01*
X176688000Y-81061666D01*
X176654667Y-80961666D01*
X176654667Y-80895000D01*
X176688000Y-80795000D01*
X176721333Y-80761666D01*
X176954667Y-80361666D02*
X176921333Y-80428333D01*
X176888000Y-80461666D01*
X176821333Y-80495000D01*
X176788000Y-80495000D01*
X176721333Y-80461666D01*
X176688000Y-80428333D01*
X176654667Y-80361666D01*
X176654667Y-80228333D01*
X176688000Y-80161666D01*
X176721333Y-80128333D01*
X176788000Y-80095000D01*
X176821333Y-80095000D01*
X176888000Y-80128333D01*
X176921333Y-80161666D01*
X176954667Y-80228333D01*
X176954667Y-80361666D01*
X176988000Y-80428333D01*
X177021333Y-80461666D01*
X177088000Y-80495000D01*
X177221333Y-80495000D01*
X177288000Y-80461666D01*
X177321333Y-80428333D01*
X177354667Y-80361666D01*
X177354667Y-80228333D01*
X177321333Y-80161666D01*
X177288000Y-80128333D01*
X177221333Y-80095000D01*
X177088000Y-80095000D01*
X177021333Y-80128333D01*
X176988000Y-80161666D01*
X176954667Y-80228333D01*
X183028400Y-86425866D02*
X183061733Y-86459200D01*
X183095067Y-86559200D01*
X183095067Y-86625866D01*
X183061733Y-86725866D01*
X182995067Y-86792533D01*
X182928400Y-86825866D01*
X182795067Y-86859200D01*
X182695067Y-86859200D01*
X182561733Y-86825866D01*
X182495067Y-86792533D01*
X182428400Y-86725866D01*
X182395067Y-86625866D01*
X182395067Y-86559200D01*
X182428400Y-86459200D01*
X182461733Y-86425866D01*
X182395067Y-86192533D02*
X182395067Y-85725866D01*
X183095067Y-86025866D01*
X182977600Y-88318166D02*
X183010933Y-88351500D01*
X183044267Y-88451500D01*
X183044267Y-88518166D01*
X183010933Y-88618166D01*
X182944267Y-88684833D01*
X182877600Y-88718166D01*
X182744267Y-88751500D01*
X182644267Y-88751500D01*
X182510933Y-88718166D01*
X182444267Y-88684833D01*
X182377600Y-88618166D01*
X182344267Y-88518166D01*
X182344267Y-88451500D01*
X182377600Y-88351500D01*
X182410933Y-88318166D01*
X182344267Y-87718166D02*
X182344267Y-87851500D01*
X182377600Y-87918166D01*
X182410933Y-87951500D01*
X182510933Y-88018166D01*
X182644267Y-88051500D01*
X182910933Y-88051500D01*
X182977600Y-88018166D01*
X183010933Y-87984833D01*
X183044267Y-87918166D01*
X183044267Y-87784833D01*
X183010933Y-87718166D01*
X182977600Y-87684833D01*
X182910933Y-87651500D01*
X182744267Y-87651500D01*
X182677600Y-87684833D01*
X182644267Y-87718166D01*
X182610933Y-87784833D01*
X182610933Y-87918166D01*
X182644267Y-87984833D01*
X182677600Y-88018166D01*
X182744267Y-88051500D01*
X157229000Y-81269666D02*
X157262333Y-81303000D01*
X157295667Y-81403000D01*
X157295667Y-81469666D01*
X157262333Y-81569666D01*
X157195667Y-81636333D01*
X157129000Y-81669666D01*
X156995667Y-81703000D01*
X156895667Y-81703000D01*
X156762333Y-81669666D01*
X156695667Y-81636333D01*
X156629000Y-81569666D01*
X156595667Y-81469666D01*
X156595667Y-81403000D01*
X156629000Y-81303000D01*
X156662333Y-81269666D01*
X156595667Y-80636333D02*
X156595667Y-80969666D01*
X156929000Y-81003000D01*
X156895667Y-80969666D01*
X156862333Y-80903000D01*
X156862333Y-80736333D01*
X156895667Y-80669666D01*
X156929000Y-80636333D01*
X156995667Y-80603000D01*
X157162333Y-80603000D01*
X157229000Y-80636333D01*
X157262333Y-80669666D01*
X157295667Y-80736333D01*
X157295667Y-80903000D01*
X157262333Y-80969666D01*
X157229000Y-81003000D01*
X173097000Y-89905666D02*
X173130333Y-89939000D01*
X173163667Y-90039000D01*
X173163667Y-90105666D01*
X173130333Y-90205666D01*
X173063667Y-90272333D01*
X172997000Y-90305666D01*
X172863667Y-90339000D01*
X172763667Y-90339000D01*
X172630333Y-90305666D01*
X172563667Y-90272333D01*
X172497000Y-90205666D01*
X172463667Y-90105666D01*
X172463667Y-90039000D01*
X172497000Y-89939000D01*
X172530333Y-89905666D01*
X173163667Y-89572333D02*
X173163667Y-89439000D01*
X173130333Y-89372333D01*
X173097000Y-89339000D01*
X172997000Y-89272333D01*
X172863667Y-89239000D01*
X172597000Y-89239000D01*
X172530333Y-89272333D01*
X172497000Y-89305666D01*
X172463667Y-89372333D01*
X172463667Y-89505666D01*
X172497000Y-89572333D01*
X172530333Y-89605666D01*
X172597000Y-89639000D01*
X172763667Y-89639000D01*
X172830333Y-89605666D01*
X172863667Y-89572333D01*
X172897000Y-89505666D01*
X172897000Y-89372333D01*
X172863667Y-89305666D01*
X172830333Y-89272333D01*
X172763667Y-89239000D01*
X169544167Y-95131666D02*
X168844167Y-95131666D01*
X168844167Y-94965000D01*
X168877500Y-94865000D01*
X168944167Y-94798333D01*
X169010833Y-94765000D01*
X169144167Y-94731666D01*
X169244167Y-94731666D01*
X169377500Y-94765000D01*
X169444167Y-94798333D01*
X169510833Y-94865000D01*
X169544167Y-94965000D01*
X169544167Y-95131666D01*
X169544167Y-94065000D02*
X169544167Y-94465000D01*
X169544167Y-94265000D02*
X168844167Y-94265000D01*
X168944167Y-94331666D01*
X169010833Y-94398333D01*
X169044167Y-94465000D01*
X160654167Y-91683667D02*
X160654167Y-92017000D01*
X159954167Y-92017000D01*
X160020833Y-91483667D02*
X159987500Y-91450333D01*
X159954167Y-91383667D01*
X159954167Y-91217000D01*
X159987500Y-91150333D01*
X160020833Y-91117000D01*
X160087500Y-91083667D01*
X160154167Y-91083667D01*
X160254167Y-91117000D01*
X160654167Y-91517000D01*
X160654167Y-91083667D01*
X166242167Y-83174667D02*
X166242167Y-83508000D01*
X165542167Y-83508000D01*
X166242167Y-82574667D02*
X166242167Y-82974667D01*
X166242167Y-82774667D02*
X165542167Y-82774667D01*
X165642167Y-82841333D01*
X165708833Y-82908000D01*
X165742167Y-82974667D01*
M02*
