M48
INCH,TZ
T1C0.013
T2C0.040
T3C0.047
%
G90
G05
T1
X60750Y-35828
X61550Y-33544
X61950Y-35828
X62731Y-35075
X64650Y-36041
X64875Y-32503
X64875Y-32897
X66175Y-37240
X67991Y-35091
X68075Y-36275
X68271Y-33421
X68271Y-34100
X68950Y-33421
X68950Y-34100
X69326Y-32250
X70050Y-35928
X70050Y-36653
X70050Y-37047
X70100Y-31675
X70575Y-34325
X70825Y-34325
X71075Y-34325
X71076Y-36873
T2
X61000Y-29250
X61000Y-30000
X61000Y-38000
X61000Y-38750
X62000Y-29250
X62000Y-30000
X62000Y-38000
X62000Y-38750
X63000Y-29250
X63000Y-30000
X63000Y-38000
X63000Y-38750
X64000Y-29250
X64000Y-30000
X64000Y-38000
X64000Y-38750
X65000Y-29250
X65000Y-30000
X65000Y-38000
X65000Y-38750
X66000Y-29250
X66000Y-30000
X66000Y-38000
X66000Y-38750
X67000Y-29250
X67000Y-30000
X67000Y-38000
X67000Y-38750
X68000Y-29250
X68000Y-30000
X68000Y-38000
X68000Y-38750
X69000Y-29250
X69000Y-30000
X69000Y-38000
X69000Y-38750
X70000Y-29250
X70000Y-30000
X70000Y-38000
X70000Y-38750
X71000Y-29250
X71000Y-30000
X71000Y-38000
X71000Y-38750
X72000Y-29250
X72000Y-30000
X72000Y-38000
X72000Y-38750
X73000Y-29250
X73000Y-30000
X73000Y-31000
X73000Y-38000
X73000Y-38750
X73750Y-31000
T3
X60970Y-32701
X60970Y-35299
T0
M30
