G04 #@! TF.FileFunction,Copper,L2,Bot,Signal*
%FSLAX46Y46*%
G04 Gerber Fmt 4.6, Leading zero omitted, Abs format (unit mm)*
G04 Created by KiCad (PCBNEW (2015-08-16 BZR 6097, Git b384c94)-product) date 22/01/2016 15:19:33*
%MOMM*%
G01*
G04 APERTURE LIST*
%ADD10C,0.100000*%
%ADD11C,1.600000*%
%ADD12R,2.032000X1.727200*%
%ADD13C,0.900000*%
%ADD14R,0.900000X0.400000*%
%ADD15R,1.727200X2.032000*%
%ADD16C,0.584200*%
%ADD17C,0.508000*%
%ADD18C,0.304800*%
%ADD19C,0.152400*%
G04 APERTURE END LIST*
D10*
D11*
X154482800Y-83060000D03*
X154482800Y-89660000D03*
D12*
X154940000Y-93980000D03*
X153035000Y-93980000D03*
D13*
X154432000Y-86910000D03*
D14*
X154432000Y-86060000D03*
X154432000Y-86660000D03*
D13*
X154432000Y-85810000D03*
D12*
X182245000Y-93980000D03*
X182245000Y-91440000D03*
X182245000Y-88900000D03*
X182245000Y-86360000D03*
X182245000Y-83820000D03*
X182245000Y-81280000D03*
X180340000Y-81280000D03*
X180340000Y-83820000D03*
X180340000Y-86360000D03*
X180340000Y-88900000D03*
X180340000Y-91440000D03*
X180340000Y-93980000D03*
D15*
X180340000Y-78740000D03*
X177800000Y-78740000D03*
X175260000Y-78740000D03*
X172720000Y-78740000D03*
X170180000Y-78740000D03*
X167640000Y-78740000D03*
X165100000Y-78740000D03*
X162560000Y-78740000D03*
X160020000Y-78740000D03*
X157480000Y-78740000D03*
X154940000Y-78740000D03*
X154940000Y-76835000D03*
X157480000Y-76835000D03*
X160020000Y-76835000D03*
X162560000Y-76835000D03*
X165100000Y-76835000D03*
X167640000Y-76835000D03*
X170180000Y-76835000D03*
X172720000Y-76835000D03*
X175260000Y-76835000D03*
X177800000Y-76835000D03*
X180340000Y-76835000D03*
X180340000Y-98425000D03*
X177800000Y-98425000D03*
X175260000Y-98425000D03*
X172720000Y-98425000D03*
X170180000Y-98425000D03*
X167640000Y-98425000D03*
X165100000Y-98425000D03*
X162560000Y-98425000D03*
X160020000Y-98425000D03*
X157480000Y-98425000D03*
X154940000Y-98425000D03*
X154940000Y-96520000D03*
X157480000Y-96520000D03*
X160020000Y-96520000D03*
X162560000Y-96520000D03*
X165100000Y-96520000D03*
X167640000Y-96520000D03*
X170180000Y-96520000D03*
X172720000Y-96520000D03*
X175260000Y-96520000D03*
X177800000Y-96520000D03*
X180340000Y-96520000D03*
D16*
X168084500Y-94589600D03*
X154703400Y-92405200D03*
X154703400Y-91135200D03*
X172402500Y-94424500D03*
X175577500Y-87122000D03*
X176212500Y-87122000D03*
X176847500Y-87122000D03*
X171577000Y-86550500D03*
X171577000Y-84825500D03*
X169852000Y-84825500D03*
X169852000Y-86550500D03*
X167555790Y-92265500D03*
X168597210Y-92265500D03*
X172402500Y-93472000D03*
X171289600Y-93675200D03*
X171323000Y-90868500D03*
X161337500Y-89090500D03*
X164211000Y-91544140D03*
X173101000Y-81978500D03*
X164782500Y-82558000D03*
X161099500Y-91956000D03*
X164782500Y-83558000D03*
X159337500Y-89090500D03*
X155956000Y-85201200D03*
X158456655Y-91949206D03*
X176720500Y-84010472D03*
X177457103Y-84010472D03*
X178193704Y-84010472D03*
X178723999Y-82648774D03*
D17*
X164561873Y-81368909D03*
D18*
X180340000Y-83820000D02*
X182245000Y-83820000D01*
X176847500Y-87122000D02*
X176212500Y-87122000D01*
X154940000Y-98425000D02*
X154940000Y-96520000D01*
D19*
X165100000Y-96520000D02*
X165100000Y-98425000D01*
X168597210Y-92265500D02*
X167555790Y-92265500D01*
X170180000Y-96520000D02*
X170180000Y-98425000D01*
X172402500Y-93472000D02*
X170180000Y-95694500D01*
X170180000Y-95694500D02*
X170180000Y-96520000D01*
X172720000Y-98425000D02*
X172720000Y-96520000D01*
X172720000Y-96367600D02*
X172720000Y-96520000D01*
D18*
X169204640Y-91544140D02*
X169608500Y-91948000D01*
X171289600Y-93675200D02*
X171289600Y-92105100D01*
X171289600Y-92105100D02*
X171132500Y-91948000D01*
X171132500Y-91948000D02*
X171323000Y-91757500D01*
X171323000Y-91757500D02*
X171323000Y-90868500D01*
X169608500Y-91948000D02*
X171132500Y-91948000D01*
X164211000Y-91544140D02*
X169204640Y-91544140D01*
X164211000Y-91544140D02*
X164211000Y-91244420D01*
X164211000Y-91244420D02*
X162057080Y-89090500D01*
X162057080Y-89090500D02*
X161337500Y-89090500D01*
X160020000Y-96520000D02*
X160020000Y-96034860D01*
X160020000Y-96520000D02*
X160020000Y-98425000D01*
X180340000Y-81280000D02*
X182245000Y-81280000D01*
X172402500Y-81280000D02*
X180340000Y-81280000D01*
X164782500Y-82558000D02*
X170362500Y-82558000D01*
X170362500Y-82558000D02*
X171640500Y-81280000D01*
X171640500Y-81280000D02*
X172402500Y-81280000D01*
X172402500Y-81280000D02*
X173101000Y-81978500D01*
X161099500Y-91956000D02*
X161099500Y-90852500D01*
X161099500Y-90852500D02*
X159337500Y-89090500D01*
X161036000Y-84683600D02*
X162161600Y-83558000D01*
X162161600Y-83558000D02*
X164782500Y-83558000D01*
X161036000Y-87392000D02*
X161036000Y-84683600D01*
X159337500Y-89090500D02*
X161036000Y-87392000D01*
X154940000Y-93980000D02*
X153035000Y-93980000D01*
X155956000Y-85201200D02*
X155040800Y-85201200D01*
X155040800Y-85201200D02*
X154432000Y-85810000D01*
X158456655Y-93115155D02*
X157480000Y-94091810D01*
X157480000Y-94091810D02*
X157480000Y-96520000D01*
X158456655Y-91949206D02*
X158456655Y-93115155D01*
X158456655Y-90934655D02*
X158456655Y-91949206D01*
X157480000Y-96520000D02*
X157480000Y-96367600D01*
X154432000Y-86910000D02*
X158456655Y-90934655D01*
X157480000Y-98425000D02*
X157480000Y-96520000D01*
D19*
X175260000Y-98425000D02*
X175260000Y-96520000D01*
X177800000Y-98425000D02*
X177800000Y-96520000D01*
X180340000Y-98425000D02*
X180340000Y-96520000D01*
X180340000Y-93980000D02*
X182245000Y-93980000D01*
X176720500Y-84010472D02*
X177546011Y-84835983D01*
X180187600Y-93980000D02*
X180340000Y-93980000D01*
X177546011Y-84835983D02*
X178117483Y-84835983D01*
X178117483Y-84835983D02*
X178180971Y-84899471D01*
X178180971Y-84899471D02*
X178180972Y-85646570D01*
X178180972Y-85646570D02*
X178485779Y-85951377D01*
X178485779Y-85951377D02*
X178485779Y-92278179D01*
X178485779Y-92278179D02*
X180187600Y-93980000D01*
X180340000Y-91440000D02*
X182245000Y-91440000D01*
X178485781Y-85520313D02*
X178790589Y-85825121D01*
X178790589Y-85825121D02*
X178790589Y-90042989D01*
X178790589Y-90042989D02*
X180187600Y-91440000D01*
X180187600Y-91440000D02*
X180340000Y-91440000D01*
X178283339Y-84531173D02*
X178485781Y-84733615D01*
X178485781Y-84733615D02*
X178485781Y-85520313D01*
X177977804Y-84531173D02*
X178283339Y-84531173D01*
X177457103Y-84010472D02*
X177977804Y-84531173D01*
X180340000Y-88900000D02*
X182245000Y-88900000D01*
X179095399Y-85698865D02*
X179095399Y-87807799D01*
X179095399Y-87807799D02*
X180187600Y-88900000D01*
X180187600Y-88900000D02*
X180340000Y-88900000D01*
X178193704Y-84010472D02*
X178790589Y-84607357D01*
X178790589Y-84607357D02*
X178790590Y-85394056D01*
X178790590Y-85394056D02*
X179095399Y-85698865D01*
X167640000Y-98425000D02*
X167640000Y-96520000D01*
X167640000Y-96367600D02*
X167640000Y-96520000D01*
X180340000Y-86360000D02*
X182245000Y-86360000D01*
X179095399Y-83020174D02*
X179095399Y-85267799D01*
X179095399Y-85267799D02*
X180187600Y-86360000D01*
X180187600Y-86360000D02*
X180340000Y-86360000D01*
X178723999Y-82648774D02*
X179095399Y-83020174D01*
X180340000Y-78740000D02*
X180340000Y-76835000D01*
X177800000Y-78740000D02*
X177800000Y-76835000D01*
X175260000Y-78740000D02*
X175260000Y-76835000D01*
X172720000Y-78740000D02*
X172720000Y-76835000D01*
X170180000Y-78740000D02*
X170180000Y-76835000D01*
X167640000Y-78740000D02*
X167640000Y-76835000D01*
X165100000Y-78740000D02*
X165100000Y-76835000D01*
X162560000Y-78740000D02*
X162560000Y-76835000D01*
X160020000Y-78740000D02*
X160020000Y-76835000D01*
X157480000Y-78740000D02*
X157480000Y-76835000D01*
X154940000Y-78740000D02*
X154940000Y-76835000D01*
X164561873Y-81368909D02*
X157416509Y-81368909D01*
X157416509Y-81368909D02*
X154940000Y-78892400D01*
X154940000Y-78892400D02*
X154940000Y-78740000D01*
X162560000Y-96520000D02*
X162560000Y-98425000D01*
X162560000Y-96520000D02*
X162560000Y-96367600D01*
G36*
X153843322Y-79756000D02*
X153859262Y-79840714D01*
X153909328Y-79918518D01*
X153985720Y-79970715D01*
X154076400Y-79989078D01*
X155605626Y-79989078D01*
X157200983Y-81584435D01*
X157299867Y-81650507D01*
X157416509Y-81673709D01*
X164184237Y-81673709D01*
X164288145Y-81777799D01*
X164465457Y-81851425D01*
X164657447Y-81851593D01*
X164834887Y-81778276D01*
X164970763Y-81642637D01*
X165044389Y-81465325D01*
X165044557Y-81273335D01*
X164971240Y-81095895D01*
X164835601Y-80960019D01*
X164658289Y-80886393D01*
X164466299Y-80886225D01*
X164288859Y-80959542D01*
X164184109Y-81064109D01*
X157542761Y-81064109D01*
X156036678Y-79558026D01*
X156036678Y-77165200D01*
X156383322Y-77165200D01*
X156383322Y-79756000D01*
X156399262Y-79840714D01*
X156449328Y-79918518D01*
X156525720Y-79970715D01*
X156616400Y-79989078D01*
X158343600Y-79989078D01*
X158428314Y-79973138D01*
X158506118Y-79923072D01*
X158558315Y-79846680D01*
X158576678Y-79756000D01*
X158576678Y-77165200D01*
X158923322Y-77165200D01*
X158923322Y-79756000D01*
X158939262Y-79840714D01*
X158989328Y-79918518D01*
X159065720Y-79970715D01*
X159156400Y-79989078D01*
X160883600Y-79989078D01*
X160968314Y-79973138D01*
X161046118Y-79923072D01*
X161098315Y-79846680D01*
X161116678Y-79756000D01*
X161116678Y-77165200D01*
X161463322Y-77165200D01*
X161463322Y-79756000D01*
X161479262Y-79840714D01*
X161529328Y-79918518D01*
X161605720Y-79970715D01*
X161696400Y-79989078D01*
X163423600Y-79989078D01*
X163508314Y-79973138D01*
X163586118Y-79923072D01*
X163638315Y-79846680D01*
X163656678Y-79756000D01*
X163656678Y-77165200D01*
X164003322Y-77165200D01*
X164003322Y-79756000D01*
X164019262Y-79840714D01*
X164069328Y-79918518D01*
X164145720Y-79970715D01*
X164236400Y-79989078D01*
X165963600Y-79989078D01*
X166048314Y-79973138D01*
X166126118Y-79923072D01*
X166178315Y-79846680D01*
X166196678Y-79756000D01*
X166196678Y-77165200D01*
X166543322Y-77165200D01*
X166543322Y-79756000D01*
X166559262Y-79840714D01*
X166609328Y-79918518D01*
X166685720Y-79970715D01*
X166776400Y-79989078D01*
X168503600Y-79989078D01*
X168588314Y-79973138D01*
X168666118Y-79923072D01*
X168718315Y-79846680D01*
X168736678Y-79756000D01*
X168736678Y-77165200D01*
X169083322Y-77165200D01*
X169083322Y-79756000D01*
X169099262Y-79840714D01*
X169149328Y-79918518D01*
X169225720Y-79970715D01*
X169316400Y-79989078D01*
X171043600Y-79989078D01*
X171128314Y-79973138D01*
X171206118Y-79923072D01*
X171258315Y-79846680D01*
X171276678Y-79756000D01*
X171276678Y-77165200D01*
X171623322Y-77165200D01*
X171623322Y-79756000D01*
X171639262Y-79840714D01*
X171689328Y-79918518D01*
X171765720Y-79970715D01*
X171856400Y-79989078D01*
X173583600Y-79989078D01*
X173668314Y-79973138D01*
X173746118Y-79923072D01*
X173798315Y-79846680D01*
X173816678Y-79756000D01*
X173816678Y-77165200D01*
X174163322Y-77165200D01*
X174163322Y-79756000D01*
X174179262Y-79840714D01*
X174229328Y-79918518D01*
X174305720Y-79970715D01*
X174396400Y-79989078D01*
X176123600Y-79989078D01*
X176208314Y-79973138D01*
X176286118Y-79923072D01*
X176338315Y-79846680D01*
X176356678Y-79756000D01*
X176356678Y-77165200D01*
X176703322Y-77165200D01*
X176703322Y-79756000D01*
X176719262Y-79840714D01*
X176769328Y-79918518D01*
X176845720Y-79970715D01*
X176936400Y-79989078D01*
X178663600Y-79989078D01*
X178748314Y-79973138D01*
X178826118Y-79923072D01*
X178878315Y-79846680D01*
X178896678Y-79756000D01*
X178896678Y-77165200D01*
X179243322Y-77165200D01*
X179243322Y-79756000D01*
X179259262Y-79840714D01*
X179309328Y-79918518D01*
X179385720Y-79970715D01*
X179476400Y-79989078D01*
X181203600Y-79989078D01*
X181288314Y-79973138D01*
X181366118Y-79923072D01*
X181418315Y-79846680D01*
X181436678Y-79756000D01*
X181436678Y-77165200D01*
X181914800Y-77165200D01*
X181914800Y-80183322D01*
X179324000Y-80183322D01*
X179239286Y-80199262D01*
X179161482Y-80249328D01*
X179109285Y-80325720D01*
X179090922Y-80416400D01*
X179090922Y-80899000D01*
X171640500Y-80899000D01*
X171494697Y-80928002D01*
X171371092Y-81010592D01*
X170204684Y-82177000D01*
X165137903Y-82177000D01*
X165077838Y-82116830D01*
X164886528Y-82037391D01*
X164679381Y-82037210D01*
X164487933Y-82116315D01*
X164341330Y-82262662D01*
X164261891Y-82453972D01*
X164261710Y-82661119D01*
X164340815Y-82852567D01*
X164487162Y-82999170D01*
X164628953Y-83058047D01*
X164487933Y-83116315D01*
X164427142Y-83177000D01*
X162161605Y-83177000D01*
X162161600Y-83176999D01*
X162015798Y-83206002D01*
X161892192Y-83288592D01*
X160766592Y-84414192D01*
X160684002Y-84537797D01*
X160672689Y-84594671D01*
X160655000Y-84683600D01*
X160655000Y-87234185D01*
X159319400Y-88569784D01*
X159234381Y-88569710D01*
X159042933Y-88648815D01*
X158896330Y-88795162D01*
X158816891Y-88986472D01*
X158816710Y-89193619D01*
X158895815Y-89385067D01*
X159042162Y-89531670D01*
X159233472Y-89611109D01*
X159319368Y-89611184D01*
X160718500Y-91010315D01*
X160718500Y-91600597D01*
X160658330Y-91660662D01*
X160578891Y-91851972D01*
X160578710Y-92059119D01*
X160657815Y-92250567D01*
X160804162Y-92397170D01*
X160995472Y-92476609D01*
X161202619Y-92476790D01*
X161394067Y-92397685D01*
X161540670Y-92251338D01*
X161620109Y-92060028D01*
X161620290Y-91852881D01*
X161541185Y-91661433D01*
X161480500Y-91600642D01*
X161480500Y-90852500D01*
X161451498Y-90706698D01*
X161451498Y-90706697D01*
X161418417Y-90657188D01*
X161368908Y-90583092D01*
X161368905Y-90583090D01*
X159876316Y-89090500D01*
X161305405Y-87661410D01*
X161305408Y-87661408D01*
X161387998Y-87537802D01*
X161390306Y-87526201D01*
X161417001Y-87392000D01*
X161417000Y-87391995D01*
X161417000Y-84841416D01*
X162319416Y-83939000D01*
X164427097Y-83939000D01*
X164487162Y-83999170D01*
X164678472Y-84078609D01*
X164885619Y-84078790D01*
X165077067Y-83999685D01*
X165223670Y-83853338D01*
X165303109Y-83662028D01*
X165303290Y-83454881D01*
X165224185Y-83263433D01*
X165077838Y-83116830D01*
X164936047Y-83057953D01*
X165077067Y-82999685D01*
X165137858Y-82939000D01*
X170362500Y-82939000D01*
X170508303Y-82909998D01*
X170631908Y-82827408D01*
X171564300Y-81895016D01*
X171564300Y-83693000D01*
X171569511Y-83720695D01*
X171585879Y-83746132D01*
X171610854Y-83763197D01*
X171640500Y-83769200D01*
X171767500Y-83769200D01*
X171795195Y-83763989D01*
X171820632Y-83747621D01*
X171837697Y-83722646D01*
X171843700Y-83693000D01*
X171843700Y-81673700D01*
X172148500Y-81673700D01*
X172176195Y-81668489D01*
X172187833Y-81661000D01*
X172244684Y-81661000D01*
X172580284Y-81996600D01*
X172580210Y-82081619D01*
X172659315Y-82273067D01*
X172805662Y-82419670D01*
X172996972Y-82499109D01*
X173170975Y-82499261D01*
X172602618Y-83067618D01*
X172586303Y-83091854D01*
X172580300Y-83121500D01*
X172580300Y-83693000D01*
X172585511Y-83720695D01*
X172601879Y-83746132D01*
X172626854Y-83763197D01*
X172656500Y-83769200D01*
X172783500Y-83769200D01*
X172811195Y-83763989D01*
X172836632Y-83747621D01*
X172853697Y-83722646D01*
X172859700Y-83693000D01*
X172859700Y-83216564D01*
X173386564Y-82689700D01*
X173609000Y-82689700D01*
X173636695Y-82684489D01*
X173662132Y-82668121D01*
X173679197Y-82643146D01*
X173685200Y-82613500D01*
X173685200Y-81661000D01*
X179090922Y-81661000D01*
X179090922Y-82143600D01*
X179106862Y-82228314D01*
X179156928Y-82306118D01*
X179233320Y-82358315D01*
X179324000Y-82376678D01*
X181914800Y-82376678D01*
X181914800Y-82727800D01*
X180409850Y-82727800D01*
X180352700Y-82784950D01*
X180352700Y-83807300D01*
X181914800Y-83807300D01*
X181914800Y-83832700D01*
X180352700Y-83832700D01*
X180352700Y-84855050D01*
X180409850Y-84912200D01*
X181914800Y-84912200D01*
X181914800Y-85263322D01*
X179521974Y-85263322D01*
X179400199Y-85141547D01*
X179400199Y-84912200D01*
X180270150Y-84912200D01*
X180327300Y-84855050D01*
X180327300Y-83832700D01*
X180307300Y-83832700D01*
X180307300Y-83807300D01*
X180327300Y-83807300D01*
X180327300Y-82784950D01*
X180270150Y-82727800D01*
X179278529Y-82727800D01*
X179247097Y-82740820D01*
X179244621Y-82738344D01*
X179244789Y-82545655D01*
X179165684Y-82354207D01*
X179019337Y-82207604D01*
X178828027Y-82128165D01*
X178620880Y-82127984D01*
X178429432Y-82207089D01*
X178282829Y-82353436D01*
X178203390Y-82544746D01*
X178203209Y-82751893D01*
X178282314Y-82943341D01*
X178428661Y-83089944D01*
X178619971Y-83169383D01*
X178790599Y-83169532D01*
X178790599Y-84176315D01*
X178714326Y-84100042D01*
X178714494Y-83907353D01*
X178635389Y-83715905D01*
X178489042Y-83569302D01*
X178297732Y-83489863D01*
X178090585Y-83489682D01*
X177899137Y-83568787D01*
X177825403Y-83642392D01*
X177752441Y-83569302D01*
X177561131Y-83489863D01*
X177353984Y-83489682D01*
X177162536Y-83568787D01*
X177088801Y-83642393D01*
X177015838Y-83569302D01*
X176824528Y-83489863D01*
X176617381Y-83489682D01*
X176425933Y-83568787D01*
X176279330Y-83715134D01*
X176199891Y-83906444D01*
X176199710Y-84113591D01*
X176278815Y-84305039D01*
X176425162Y-84451642D01*
X176616472Y-84531081D01*
X176810226Y-84531250D01*
X177330485Y-85051509D01*
X177429369Y-85117581D01*
X177546011Y-85140783D01*
X177876171Y-85140783D01*
X177876171Y-85140800D01*
X174879000Y-85140800D01*
X174851305Y-85146011D01*
X174825868Y-85162379D01*
X174808803Y-85187354D01*
X174802800Y-85217000D01*
X174802800Y-86074436D01*
X174339436Y-86537800D01*
X172720000Y-86537800D01*
X172692305Y-86543011D01*
X172666868Y-86559379D01*
X172649803Y-86584354D01*
X172643800Y-86614000D01*
X172643800Y-86804500D01*
X172649011Y-86832195D01*
X172665379Y-86857632D01*
X172690354Y-86874697D01*
X172720000Y-86880700D01*
X174307500Y-86880700D01*
X174336173Y-86875099D01*
X174361382Y-86858382D01*
X175059882Y-86159882D01*
X175076197Y-86135646D01*
X175082200Y-86106000D01*
X175082200Y-85420200D01*
X177876172Y-85420200D01*
X177876172Y-85646570D01*
X177899374Y-85763212D01*
X177965446Y-85862096D01*
X178168300Y-86064950D01*
X178168300Y-89014300D01*
X175082200Y-89014300D01*
X175082200Y-87947500D01*
X175076599Y-87918827D01*
X175059882Y-87893618D01*
X174678882Y-87512618D01*
X174654646Y-87496303D01*
X174625000Y-87490300D01*
X172783500Y-87490300D01*
X172755805Y-87495511D01*
X172730368Y-87511879D01*
X172713303Y-87536854D01*
X172707300Y-87566500D01*
X172707300Y-87693500D01*
X172712511Y-87721195D01*
X172728879Y-87746632D01*
X172753854Y-87763697D01*
X172783500Y-87769700D01*
X174529936Y-87769700D01*
X174802800Y-88042564D01*
X174802800Y-89217500D01*
X174808011Y-89245195D01*
X174824379Y-89270632D01*
X174849354Y-89287697D01*
X174879000Y-89293700D01*
X178180979Y-89293700D01*
X178180979Y-92278179D01*
X178204181Y-92394821D01*
X178270253Y-92493705D01*
X179090922Y-93314374D01*
X179090922Y-94843600D01*
X179106862Y-94928314D01*
X179156928Y-95006118D01*
X179233320Y-95058315D01*
X179324000Y-95076678D01*
X181914800Y-95076678D01*
X181914800Y-98094800D01*
X181436678Y-98094800D01*
X181436678Y-95504000D01*
X181420738Y-95419286D01*
X181370672Y-95341482D01*
X181294280Y-95289285D01*
X181203600Y-95270922D01*
X179476400Y-95270922D01*
X179391686Y-95286862D01*
X179313882Y-95336928D01*
X179261685Y-95413320D01*
X179243322Y-95504000D01*
X179243322Y-98094800D01*
X178896678Y-98094800D01*
X178896678Y-95504000D01*
X178880738Y-95419286D01*
X178830672Y-95341482D01*
X178754280Y-95289285D01*
X178663600Y-95270922D01*
X176936400Y-95270922D01*
X176851686Y-95286862D01*
X176773882Y-95336928D01*
X176721685Y-95413320D01*
X176703322Y-95504000D01*
X176703322Y-98094800D01*
X176356678Y-98094800D01*
X176356678Y-95504000D01*
X176340738Y-95419286D01*
X176290672Y-95341482D01*
X176214280Y-95289285D01*
X176123600Y-95270922D01*
X174396400Y-95270922D01*
X174311686Y-95286862D01*
X174233882Y-95336928D01*
X174181685Y-95413320D01*
X174163322Y-95504000D01*
X174163322Y-98094800D01*
X173816678Y-98094800D01*
X173816678Y-95504000D01*
X173800738Y-95419286D01*
X173750672Y-95341482D01*
X173674280Y-95289285D01*
X173583600Y-95270922D01*
X171856400Y-95270922D01*
X171771686Y-95286862D01*
X171693882Y-95336928D01*
X171641685Y-95413320D01*
X171623322Y-95504000D01*
X171623322Y-98094800D01*
X171276678Y-98094800D01*
X171276678Y-95504000D01*
X171260738Y-95419286D01*
X171210672Y-95341482D01*
X171134280Y-95289285D01*
X171043600Y-95270922D01*
X171034630Y-95270922D01*
X172312930Y-93992622D01*
X172505619Y-93992790D01*
X172697067Y-93913685D01*
X172843670Y-93767338D01*
X172923109Y-93576028D01*
X172923290Y-93368881D01*
X172844185Y-93177433D01*
X172697838Y-93030830D01*
X172506528Y-92951391D01*
X172299381Y-92951210D01*
X172107933Y-93030315D01*
X171961330Y-93176662D01*
X171881891Y-93367972D01*
X171881722Y-93561726D01*
X171810337Y-93633111D01*
X171810390Y-93572081D01*
X171731285Y-93380633D01*
X171670600Y-93319842D01*
X171670600Y-92105100D01*
X171644399Y-91973379D01*
X171641598Y-91959297D01*
X171639591Y-91956293D01*
X171674998Y-91903302D01*
X171676423Y-91896138D01*
X171689430Y-91830750D01*
X171704000Y-91833700D01*
X172339000Y-91833700D01*
X172366695Y-91828489D01*
X172392132Y-91812121D01*
X172409197Y-91787146D01*
X172415200Y-91757500D01*
X172415200Y-89027000D01*
X172409599Y-88998327D01*
X172392882Y-88973118D01*
X171907200Y-88487436D01*
X171907200Y-87693500D01*
X171901989Y-87665805D01*
X171885621Y-87640368D01*
X171860646Y-87623303D01*
X171831000Y-87617300D01*
X171640500Y-87617300D01*
X171612805Y-87622511D01*
X171587368Y-87638879D01*
X171570303Y-87663854D01*
X171564300Y-87693500D01*
X171564300Y-88519000D01*
X171569901Y-88547673D01*
X171586618Y-88572882D01*
X172135800Y-89122064D01*
X172135800Y-91554300D01*
X171704000Y-91554300D01*
X171704000Y-91223903D01*
X171764170Y-91163838D01*
X171843609Y-90972528D01*
X171843790Y-90765381D01*
X171764685Y-90573933D01*
X171618338Y-90427330D01*
X171427028Y-90347891D01*
X171219881Y-90347710D01*
X171028433Y-90426815D01*
X170881830Y-90573162D01*
X170802391Y-90764472D01*
X170802210Y-90971619D01*
X170881315Y-91163067D01*
X170942000Y-91223858D01*
X170942000Y-91554300D01*
X169938700Y-91554300D01*
X169938700Y-88995064D01*
X170360882Y-88572882D01*
X170377197Y-88548646D01*
X170383200Y-88519000D01*
X170383200Y-87693500D01*
X170377989Y-87665805D01*
X170361621Y-87640368D01*
X170336646Y-87623303D01*
X170307000Y-87617300D01*
X170116500Y-87617300D01*
X170088805Y-87622511D01*
X170063368Y-87638879D01*
X170046303Y-87663854D01*
X170040300Y-87693500D01*
X170040300Y-88487436D01*
X169681618Y-88846118D01*
X169665303Y-88870354D01*
X169659300Y-88900000D01*
X169659300Y-91459984D01*
X169474048Y-91274732D01*
X169350443Y-91192142D01*
X169204640Y-91163140D01*
X164575833Y-91163140D01*
X164562998Y-91098617D01*
X164480408Y-90975012D01*
X162326488Y-88821092D01*
X162202883Y-88738502D01*
X162057080Y-88709500D01*
X161692903Y-88709500D01*
X161632838Y-88649330D01*
X161441528Y-88569891D01*
X161234381Y-88569710D01*
X161042933Y-88648815D01*
X160896330Y-88795162D01*
X160816891Y-88986472D01*
X160816710Y-89193619D01*
X160895815Y-89385067D01*
X161042162Y-89531670D01*
X161233472Y-89611109D01*
X161440619Y-89611290D01*
X161632067Y-89532185D01*
X161692858Y-89471500D01*
X161899264Y-89471500D01*
X163742466Y-91314702D01*
X163690391Y-91440112D01*
X163690210Y-91647259D01*
X163769315Y-91838707D01*
X163915662Y-91985310D01*
X164106972Y-92064749D01*
X164314119Y-92064930D01*
X164505567Y-91985825D01*
X164566358Y-91925140D01*
X167159721Y-91925140D01*
X167114620Y-91970162D01*
X167035181Y-92161472D01*
X167035000Y-92368619D01*
X167114105Y-92560067D01*
X167260452Y-92706670D01*
X167451762Y-92786109D01*
X167658909Y-92786290D01*
X167850357Y-92707185D01*
X167987481Y-92570300D01*
X168165740Y-92570300D01*
X168301872Y-92706670D01*
X168493182Y-92786109D01*
X168700329Y-92786290D01*
X168891777Y-92707185D01*
X169038380Y-92560838D01*
X169117819Y-92369528D01*
X169118000Y-92162381D01*
X169038895Y-91970933D01*
X168993182Y-91925140D01*
X169046824Y-91925140D01*
X169339090Y-92217405D01*
X169339092Y-92217408D01*
X169411068Y-92265500D01*
X169462697Y-92299998D01*
X169608500Y-92329000D01*
X170908600Y-92329000D01*
X170908600Y-93319797D01*
X170848430Y-93379862D01*
X170768991Y-93571172D01*
X170768810Y-93778319D01*
X170847915Y-93969767D01*
X170994262Y-94116370D01*
X171185572Y-94195809D01*
X171247585Y-94195863D01*
X170172526Y-95270922D01*
X169316400Y-95270922D01*
X169231686Y-95286862D01*
X169153882Y-95336928D01*
X169101685Y-95413320D01*
X169083322Y-95504000D01*
X169083322Y-98094800D01*
X168736678Y-98094800D01*
X168736678Y-95504000D01*
X168720738Y-95419286D01*
X168670672Y-95341482D01*
X168594280Y-95289285D01*
X168503600Y-95270922D01*
X166776400Y-95270922D01*
X166691686Y-95286862D01*
X166613882Y-95336928D01*
X166561685Y-95413320D01*
X166543322Y-95504000D01*
X166543322Y-98094800D01*
X166196678Y-98094800D01*
X166196678Y-95504000D01*
X166180738Y-95419286D01*
X166130672Y-95341482D01*
X166054280Y-95289285D01*
X165963600Y-95270922D01*
X164236400Y-95270922D01*
X164151686Y-95286862D01*
X164073882Y-95336928D01*
X164021685Y-95413320D01*
X164003322Y-95504000D01*
X164003322Y-98094800D01*
X163656678Y-98094800D01*
X163656678Y-95504000D01*
X163640738Y-95419286D01*
X163590672Y-95341482D01*
X163514280Y-95289285D01*
X163423600Y-95270922D01*
X161696400Y-95270922D01*
X161611686Y-95286862D01*
X161533882Y-95336928D01*
X161481685Y-95413320D01*
X161463322Y-95504000D01*
X161463322Y-98094800D01*
X161116678Y-98094800D01*
X161116678Y-95504000D01*
X161100738Y-95419286D01*
X161050672Y-95341482D01*
X160974280Y-95289285D01*
X160883600Y-95270922D01*
X159156400Y-95270922D01*
X159071686Y-95286862D01*
X158993882Y-95336928D01*
X158941685Y-95413320D01*
X158923322Y-95504000D01*
X158923322Y-98094800D01*
X158576678Y-98094800D01*
X158576678Y-95504000D01*
X158560738Y-95419286D01*
X158510672Y-95341482D01*
X158434280Y-95289285D01*
X158343600Y-95270922D01*
X157861000Y-95270922D01*
X157861000Y-94249626D01*
X158726063Y-93384563D01*
X158808653Y-93260957D01*
X158837656Y-93115155D01*
X158837655Y-93115150D01*
X158837655Y-92304609D01*
X158897825Y-92244544D01*
X158977264Y-92053234D01*
X158977445Y-91846087D01*
X158898340Y-91654639D01*
X158837655Y-91593848D01*
X158837655Y-90934660D01*
X158837656Y-90934655D01*
X158808653Y-90788853D01*
X158753759Y-90706698D01*
X158726063Y-90665247D01*
X158726060Y-90665245D01*
X155109281Y-87048465D01*
X155110482Y-87045574D01*
X155110625Y-86881990D01*
X155115078Y-86860000D01*
X155115078Y-86460000D01*
X155099138Y-86375286D01*
X155089809Y-86360788D01*
X155096715Y-86350680D01*
X155115078Y-86260000D01*
X155115078Y-85860000D01*
X155110578Y-85836083D01*
X155110718Y-85675610D01*
X155109106Y-85671710D01*
X155198616Y-85582200D01*
X155600597Y-85582200D01*
X155660662Y-85642370D01*
X155851972Y-85721809D01*
X156059119Y-85721990D01*
X156250567Y-85642885D01*
X156397170Y-85496538D01*
X156476609Y-85305228D01*
X156476790Y-85098081D01*
X156397685Y-84906633D01*
X156251338Y-84760030D01*
X156060028Y-84680591D01*
X155852881Y-84680410D01*
X155661433Y-84759515D01*
X155600642Y-84820200D01*
X155040800Y-84820200D01*
X154894997Y-84849202D01*
X154771392Y-84931792D01*
X154570465Y-85132719D01*
X154567574Y-85131518D01*
X154297610Y-85131282D01*
X154048106Y-85234375D01*
X153857046Y-85425102D01*
X153753518Y-85674426D01*
X153753375Y-85838010D01*
X153748922Y-85860000D01*
X153748922Y-86260000D01*
X153764862Y-86344714D01*
X153774191Y-86359212D01*
X153767285Y-86369320D01*
X153748922Y-86460000D01*
X153748922Y-86860000D01*
X153753422Y-86883917D01*
X153753282Y-87044390D01*
X153856375Y-87293894D01*
X154047102Y-87484954D01*
X154296426Y-87588482D01*
X154566390Y-87588718D01*
X154570290Y-87587106D01*
X158075655Y-91092470D01*
X158075655Y-91593803D01*
X158015485Y-91653868D01*
X157936046Y-91845178D01*
X157935865Y-92052325D01*
X158014970Y-92243773D01*
X158075655Y-92304564D01*
X158075655Y-92957339D01*
X157210592Y-93822402D01*
X157128002Y-93946007D01*
X157118732Y-93992609D01*
X157099000Y-94091810D01*
X157099000Y-95270922D01*
X156616400Y-95270922D01*
X156531686Y-95286862D01*
X156453882Y-95336928D01*
X156401685Y-95413320D01*
X156383322Y-95504000D01*
X156383322Y-98094800D01*
X156032200Y-98094800D01*
X156032200Y-96589850D01*
X155975050Y-96532700D01*
X154952700Y-96532700D01*
X154952700Y-98094800D01*
X154927300Y-98094800D01*
X154927300Y-96532700D01*
X153904950Y-96532700D01*
X153847800Y-96589850D01*
X153847800Y-98094800D01*
X153365200Y-98094800D01*
X153365200Y-95458529D01*
X153847800Y-95458529D01*
X153847800Y-96450150D01*
X153904950Y-96507300D01*
X154927300Y-96507300D01*
X154927300Y-95332550D01*
X154952700Y-95332550D01*
X154952700Y-96507300D01*
X155975050Y-96507300D01*
X156032200Y-96450150D01*
X156032200Y-95458529D01*
X155997398Y-95374509D01*
X155933092Y-95310203D01*
X155849072Y-95275400D01*
X155009850Y-95275400D01*
X154952700Y-95332550D01*
X154927300Y-95332550D01*
X154870150Y-95275400D01*
X154030928Y-95275400D01*
X153946908Y-95310203D01*
X153882602Y-95374509D01*
X153847800Y-95458529D01*
X153365200Y-95458529D01*
X153365200Y-95076678D01*
X155956000Y-95076678D01*
X156040714Y-95060738D01*
X156118518Y-95010672D01*
X156170715Y-94934280D01*
X156189078Y-94843600D01*
X156189078Y-93116400D01*
X156173138Y-93031686D01*
X156123072Y-92953882D01*
X156046680Y-92901685D01*
X155956000Y-92883322D01*
X153365200Y-92883322D01*
X153365200Y-89863703D01*
X153454022Y-89863703D01*
X153610287Y-90241894D01*
X153899384Y-90531496D01*
X154277301Y-90688421D01*
X154686503Y-90688778D01*
X155064694Y-90532513D01*
X155354296Y-90243416D01*
X155511221Y-89865499D01*
X155511578Y-89456297D01*
X155355313Y-89078106D01*
X155066216Y-88788504D01*
X154688299Y-88631579D01*
X154279097Y-88631222D01*
X153900906Y-88787487D01*
X153611304Y-89076584D01*
X153454379Y-89454501D01*
X153454022Y-89863703D01*
X153365200Y-89863703D01*
X153365200Y-83263703D01*
X153454022Y-83263703D01*
X153610287Y-83641894D01*
X153899384Y-83931496D01*
X154277301Y-84088421D01*
X154686503Y-84088778D01*
X155064694Y-83932513D01*
X155354296Y-83643416D01*
X155511221Y-83265499D01*
X155511578Y-82856297D01*
X155355313Y-82478106D01*
X155066216Y-82188504D01*
X154688299Y-82031579D01*
X154279097Y-82031222D01*
X153900906Y-82187487D01*
X153611304Y-82476584D01*
X153454379Y-82854501D01*
X153454022Y-83263703D01*
X153365200Y-83263703D01*
X153365200Y-77165200D01*
X153843322Y-77165200D01*
X153843322Y-79756000D01*
X153843322Y-79756000D01*
G37*
X153843322Y-79756000D02*
X153859262Y-79840714D01*
X153909328Y-79918518D01*
X153985720Y-79970715D01*
X154076400Y-79989078D01*
X155605626Y-79989078D01*
X157200983Y-81584435D01*
X157299867Y-81650507D01*
X157416509Y-81673709D01*
X164184237Y-81673709D01*
X164288145Y-81777799D01*
X164465457Y-81851425D01*
X164657447Y-81851593D01*
X164834887Y-81778276D01*
X164970763Y-81642637D01*
X165044389Y-81465325D01*
X165044557Y-81273335D01*
X164971240Y-81095895D01*
X164835601Y-80960019D01*
X164658289Y-80886393D01*
X164466299Y-80886225D01*
X164288859Y-80959542D01*
X164184109Y-81064109D01*
X157542761Y-81064109D01*
X156036678Y-79558026D01*
X156036678Y-77165200D01*
X156383322Y-77165200D01*
X156383322Y-79756000D01*
X156399262Y-79840714D01*
X156449328Y-79918518D01*
X156525720Y-79970715D01*
X156616400Y-79989078D01*
X158343600Y-79989078D01*
X158428314Y-79973138D01*
X158506118Y-79923072D01*
X158558315Y-79846680D01*
X158576678Y-79756000D01*
X158576678Y-77165200D01*
X158923322Y-77165200D01*
X158923322Y-79756000D01*
X158939262Y-79840714D01*
X158989328Y-79918518D01*
X159065720Y-79970715D01*
X159156400Y-79989078D01*
X160883600Y-79989078D01*
X160968314Y-79973138D01*
X161046118Y-79923072D01*
X161098315Y-79846680D01*
X161116678Y-79756000D01*
X161116678Y-77165200D01*
X161463322Y-77165200D01*
X161463322Y-79756000D01*
X161479262Y-79840714D01*
X161529328Y-79918518D01*
X161605720Y-79970715D01*
X161696400Y-79989078D01*
X163423600Y-79989078D01*
X163508314Y-79973138D01*
X163586118Y-79923072D01*
X163638315Y-79846680D01*
X163656678Y-79756000D01*
X163656678Y-77165200D01*
X164003322Y-77165200D01*
X164003322Y-79756000D01*
X164019262Y-79840714D01*
X164069328Y-79918518D01*
X164145720Y-79970715D01*
X164236400Y-79989078D01*
X165963600Y-79989078D01*
X166048314Y-79973138D01*
X166126118Y-79923072D01*
X166178315Y-79846680D01*
X166196678Y-79756000D01*
X166196678Y-77165200D01*
X166543322Y-77165200D01*
X166543322Y-79756000D01*
X166559262Y-79840714D01*
X166609328Y-79918518D01*
X166685720Y-79970715D01*
X166776400Y-79989078D01*
X168503600Y-79989078D01*
X168588314Y-79973138D01*
X168666118Y-79923072D01*
X168718315Y-79846680D01*
X168736678Y-79756000D01*
X168736678Y-77165200D01*
X169083322Y-77165200D01*
X169083322Y-79756000D01*
X169099262Y-79840714D01*
X169149328Y-79918518D01*
X169225720Y-79970715D01*
X169316400Y-79989078D01*
X171043600Y-79989078D01*
X171128314Y-79973138D01*
X171206118Y-79923072D01*
X171258315Y-79846680D01*
X171276678Y-79756000D01*
X171276678Y-77165200D01*
X171623322Y-77165200D01*
X171623322Y-79756000D01*
X171639262Y-79840714D01*
X171689328Y-79918518D01*
X171765720Y-79970715D01*
X171856400Y-79989078D01*
X173583600Y-79989078D01*
X173668314Y-79973138D01*
X173746118Y-79923072D01*
X173798315Y-79846680D01*
X173816678Y-79756000D01*
X173816678Y-77165200D01*
X174163322Y-77165200D01*
X174163322Y-79756000D01*
X174179262Y-79840714D01*
X174229328Y-79918518D01*
X174305720Y-79970715D01*
X174396400Y-79989078D01*
X176123600Y-79989078D01*
X176208314Y-79973138D01*
X176286118Y-79923072D01*
X176338315Y-79846680D01*
X176356678Y-79756000D01*
X176356678Y-77165200D01*
X176703322Y-77165200D01*
X176703322Y-79756000D01*
X176719262Y-79840714D01*
X176769328Y-79918518D01*
X176845720Y-79970715D01*
X176936400Y-79989078D01*
X178663600Y-79989078D01*
X178748314Y-79973138D01*
X178826118Y-79923072D01*
X178878315Y-79846680D01*
X178896678Y-79756000D01*
X178896678Y-77165200D01*
X179243322Y-77165200D01*
X179243322Y-79756000D01*
X179259262Y-79840714D01*
X179309328Y-79918518D01*
X179385720Y-79970715D01*
X179476400Y-79989078D01*
X181203600Y-79989078D01*
X181288314Y-79973138D01*
X181366118Y-79923072D01*
X181418315Y-79846680D01*
X181436678Y-79756000D01*
X181436678Y-77165200D01*
X181914800Y-77165200D01*
X181914800Y-80183322D01*
X179324000Y-80183322D01*
X179239286Y-80199262D01*
X179161482Y-80249328D01*
X179109285Y-80325720D01*
X179090922Y-80416400D01*
X179090922Y-80899000D01*
X171640500Y-80899000D01*
X171494697Y-80928002D01*
X171371092Y-81010592D01*
X170204684Y-82177000D01*
X165137903Y-82177000D01*
X165077838Y-82116830D01*
X164886528Y-82037391D01*
X164679381Y-82037210D01*
X164487933Y-82116315D01*
X164341330Y-82262662D01*
X164261891Y-82453972D01*
X164261710Y-82661119D01*
X164340815Y-82852567D01*
X164487162Y-82999170D01*
X164628953Y-83058047D01*
X164487933Y-83116315D01*
X164427142Y-83177000D01*
X162161605Y-83177000D01*
X162161600Y-83176999D01*
X162015798Y-83206002D01*
X161892192Y-83288592D01*
X160766592Y-84414192D01*
X160684002Y-84537797D01*
X160672689Y-84594671D01*
X160655000Y-84683600D01*
X160655000Y-87234185D01*
X159319400Y-88569784D01*
X159234381Y-88569710D01*
X159042933Y-88648815D01*
X158896330Y-88795162D01*
X158816891Y-88986472D01*
X158816710Y-89193619D01*
X158895815Y-89385067D01*
X159042162Y-89531670D01*
X159233472Y-89611109D01*
X159319368Y-89611184D01*
X160718500Y-91010315D01*
X160718500Y-91600597D01*
X160658330Y-91660662D01*
X160578891Y-91851972D01*
X160578710Y-92059119D01*
X160657815Y-92250567D01*
X160804162Y-92397170D01*
X160995472Y-92476609D01*
X161202619Y-92476790D01*
X161394067Y-92397685D01*
X161540670Y-92251338D01*
X161620109Y-92060028D01*
X161620290Y-91852881D01*
X161541185Y-91661433D01*
X161480500Y-91600642D01*
X161480500Y-90852500D01*
X161451498Y-90706698D01*
X161451498Y-90706697D01*
X161418417Y-90657188D01*
X161368908Y-90583092D01*
X161368905Y-90583090D01*
X159876316Y-89090500D01*
X161305405Y-87661410D01*
X161305408Y-87661408D01*
X161387998Y-87537802D01*
X161390306Y-87526201D01*
X161417001Y-87392000D01*
X161417000Y-87391995D01*
X161417000Y-84841416D01*
X162319416Y-83939000D01*
X164427097Y-83939000D01*
X164487162Y-83999170D01*
X164678472Y-84078609D01*
X164885619Y-84078790D01*
X165077067Y-83999685D01*
X165223670Y-83853338D01*
X165303109Y-83662028D01*
X165303290Y-83454881D01*
X165224185Y-83263433D01*
X165077838Y-83116830D01*
X164936047Y-83057953D01*
X165077067Y-82999685D01*
X165137858Y-82939000D01*
X170362500Y-82939000D01*
X170508303Y-82909998D01*
X170631908Y-82827408D01*
X171564300Y-81895016D01*
X171564300Y-83693000D01*
X171569511Y-83720695D01*
X171585879Y-83746132D01*
X171610854Y-83763197D01*
X171640500Y-83769200D01*
X171767500Y-83769200D01*
X171795195Y-83763989D01*
X171820632Y-83747621D01*
X171837697Y-83722646D01*
X171843700Y-83693000D01*
X171843700Y-81673700D01*
X172148500Y-81673700D01*
X172176195Y-81668489D01*
X172187833Y-81661000D01*
X172244684Y-81661000D01*
X172580284Y-81996600D01*
X172580210Y-82081619D01*
X172659315Y-82273067D01*
X172805662Y-82419670D01*
X172996972Y-82499109D01*
X173170975Y-82499261D01*
X172602618Y-83067618D01*
X172586303Y-83091854D01*
X172580300Y-83121500D01*
X172580300Y-83693000D01*
X172585511Y-83720695D01*
X172601879Y-83746132D01*
X172626854Y-83763197D01*
X172656500Y-83769200D01*
X172783500Y-83769200D01*
X172811195Y-83763989D01*
X172836632Y-83747621D01*
X172853697Y-83722646D01*
X172859700Y-83693000D01*
X172859700Y-83216564D01*
X173386564Y-82689700D01*
X173609000Y-82689700D01*
X173636695Y-82684489D01*
X173662132Y-82668121D01*
X173679197Y-82643146D01*
X173685200Y-82613500D01*
X173685200Y-81661000D01*
X179090922Y-81661000D01*
X179090922Y-82143600D01*
X179106862Y-82228314D01*
X179156928Y-82306118D01*
X179233320Y-82358315D01*
X179324000Y-82376678D01*
X181914800Y-82376678D01*
X181914800Y-82727800D01*
X180409850Y-82727800D01*
X180352700Y-82784950D01*
X180352700Y-83807300D01*
X181914800Y-83807300D01*
X181914800Y-83832700D01*
X180352700Y-83832700D01*
X180352700Y-84855050D01*
X180409850Y-84912200D01*
X181914800Y-84912200D01*
X181914800Y-85263322D01*
X179521974Y-85263322D01*
X179400199Y-85141547D01*
X179400199Y-84912200D01*
X180270150Y-84912200D01*
X180327300Y-84855050D01*
X180327300Y-83832700D01*
X180307300Y-83832700D01*
X180307300Y-83807300D01*
X180327300Y-83807300D01*
X180327300Y-82784950D01*
X180270150Y-82727800D01*
X179278529Y-82727800D01*
X179247097Y-82740820D01*
X179244621Y-82738344D01*
X179244789Y-82545655D01*
X179165684Y-82354207D01*
X179019337Y-82207604D01*
X178828027Y-82128165D01*
X178620880Y-82127984D01*
X178429432Y-82207089D01*
X178282829Y-82353436D01*
X178203390Y-82544746D01*
X178203209Y-82751893D01*
X178282314Y-82943341D01*
X178428661Y-83089944D01*
X178619971Y-83169383D01*
X178790599Y-83169532D01*
X178790599Y-84176315D01*
X178714326Y-84100042D01*
X178714494Y-83907353D01*
X178635389Y-83715905D01*
X178489042Y-83569302D01*
X178297732Y-83489863D01*
X178090585Y-83489682D01*
X177899137Y-83568787D01*
X177825403Y-83642392D01*
X177752441Y-83569302D01*
X177561131Y-83489863D01*
X177353984Y-83489682D01*
X177162536Y-83568787D01*
X177088801Y-83642393D01*
X177015838Y-83569302D01*
X176824528Y-83489863D01*
X176617381Y-83489682D01*
X176425933Y-83568787D01*
X176279330Y-83715134D01*
X176199891Y-83906444D01*
X176199710Y-84113591D01*
X176278815Y-84305039D01*
X176425162Y-84451642D01*
X176616472Y-84531081D01*
X176810226Y-84531250D01*
X177330485Y-85051509D01*
X177429369Y-85117581D01*
X177546011Y-85140783D01*
X177876171Y-85140783D01*
X177876171Y-85140800D01*
X174879000Y-85140800D01*
X174851305Y-85146011D01*
X174825868Y-85162379D01*
X174808803Y-85187354D01*
X174802800Y-85217000D01*
X174802800Y-86074436D01*
X174339436Y-86537800D01*
X172720000Y-86537800D01*
X172692305Y-86543011D01*
X172666868Y-86559379D01*
X172649803Y-86584354D01*
X172643800Y-86614000D01*
X172643800Y-86804500D01*
X172649011Y-86832195D01*
X172665379Y-86857632D01*
X172690354Y-86874697D01*
X172720000Y-86880700D01*
X174307500Y-86880700D01*
X174336173Y-86875099D01*
X174361382Y-86858382D01*
X175059882Y-86159882D01*
X175076197Y-86135646D01*
X175082200Y-86106000D01*
X175082200Y-85420200D01*
X177876172Y-85420200D01*
X177876172Y-85646570D01*
X177899374Y-85763212D01*
X177965446Y-85862096D01*
X178168300Y-86064950D01*
X178168300Y-89014300D01*
X175082200Y-89014300D01*
X175082200Y-87947500D01*
X175076599Y-87918827D01*
X175059882Y-87893618D01*
X174678882Y-87512618D01*
X174654646Y-87496303D01*
X174625000Y-87490300D01*
X172783500Y-87490300D01*
X172755805Y-87495511D01*
X172730368Y-87511879D01*
X172713303Y-87536854D01*
X172707300Y-87566500D01*
X172707300Y-87693500D01*
X172712511Y-87721195D01*
X172728879Y-87746632D01*
X172753854Y-87763697D01*
X172783500Y-87769700D01*
X174529936Y-87769700D01*
X174802800Y-88042564D01*
X174802800Y-89217500D01*
X174808011Y-89245195D01*
X174824379Y-89270632D01*
X174849354Y-89287697D01*
X174879000Y-89293700D01*
X178180979Y-89293700D01*
X178180979Y-92278179D01*
X178204181Y-92394821D01*
X178270253Y-92493705D01*
X179090922Y-93314374D01*
X179090922Y-94843600D01*
X179106862Y-94928314D01*
X179156928Y-95006118D01*
X179233320Y-95058315D01*
X179324000Y-95076678D01*
X181914800Y-95076678D01*
X181914800Y-98094800D01*
X181436678Y-98094800D01*
X181436678Y-95504000D01*
X181420738Y-95419286D01*
X181370672Y-95341482D01*
X181294280Y-95289285D01*
X181203600Y-95270922D01*
X179476400Y-95270922D01*
X179391686Y-95286862D01*
X179313882Y-95336928D01*
X179261685Y-95413320D01*
X179243322Y-95504000D01*
X179243322Y-98094800D01*
X178896678Y-98094800D01*
X178896678Y-95504000D01*
X178880738Y-95419286D01*
X178830672Y-95341482D01*
X178754280Y-95289285D01*
X178663600Y-95270922D01*
X176936400Y-95270922D01*
X176851686Y-95286862D01*
X176773882Y-95336928D01*
X176721685Y-95413320D01*
X176703322Y-95504000D01*
X176703322Y-98094800D01*
X176356678Y-98094800D01*
X176356678Y-95504000D01*
X176340738Y-95419286D01*
X176290672Y-95341482D01*
X176214280Y-95289285D01*
X176123600Y-95270922D01*
X174396400Y-95270922D01*
X174311686Y-95286862D01*
X174233882Y-95336928D01*
X174181685Y-95413320D01*
X174163322Y-95504000D01*
X174163322Y-98094800D01*
X173816678Y-98094800D01*
X173816678Y-95504000D01*
X173800738Y-95419286D01*
X173750672Y-95341482D01*
X173674280Y-95289285D01*
X173583600Y-95270922D01*
X171856400Y-95270922D01*
X171771686Y-95286862D01*
X171693882Y-95336928D01*
X171641685Y-95413320D01*
X171623322Y-95504000D01*
X171623322Y-98094800D01*
X171276678Y-98094800D01*
X171276678Y-95504000D01*
X171260738Y-95419286D01*
X171210672Y-95341482D01*
X171134280Y-95289285D01*
X171043600Y-95270922D01*
X171034630Y-95270922D01*
X172312930Y-93992622D01*
X172505619Y-93992790D01*
X172697067Y-93913685D01*
X172843670Y-93767338D01*
X172923109Y-93576028D01*
X172923290Y-93368881D01*
X172844185Y-93177433D01*
X172697838Y-93030830D01*
X172506528Y-92951391D01*
X172299381Y-92951210D01*
X172107933Y-93030315D01*
X171961330Y-93176662D01*
X171881891Y-93367972D01*
X171881722Y-93561726D01*
X171810337Y-93633111D01*
X171810390Y-93572081D01*
X171731285Y-93380633D01*
X171670600Y-93319842D01*
X171670600Y-92105100D01*
X171644399Y-91973379D01*
X171641598Y-91959297D01*
X171639591Y-91956293D01*
X171674998Y-91903302D01*
X171676423Y-91896138D01*
X171689430Y-91830750D01*
X171704000Y-91833700D01*
X172339000Y-91833700D01*
X172366695Y-91828489D01*
X172392132Y-91812121D01*
X172409197Y-91787146D01*
X172415200Y-91757500D01*
X172415200Y-89027000D01*
X172409599Y-88998327D01*
X172392882Y-88973118D01*
X171907200Y-88487436D01*
X171907200Y-87693500D01*
X171901989Y-87665805D01*
X171885621Y-87640368D01*
X171860646Y-87623303D01*
X171831000Y-87617300D01*
X171640500Y-87617300D01*
X171612805Y-87622511D01*
X171587368Y-87638879D01*
X171570303Y-87663854D01*
X171564300Y-87693500D01*
X171564300Y-88519000D01*
X171569901Y-88547673D01*
X171586618Y-88572882D01*
X172135800Y-89122064D01*
X172135800Y-91554300D01*
X171704000Y-91554300D01*
X171704000Y-91223903D01*
X171764170Y-91163838D01*
X171843609Y-90972528D01*
X171843790Y-90765381D01*
X171764685Y-90573933D01*
X171618338Y-90427330D01*
X171427028Y-90347891D01*
X171219881Y-90347710D01*
X171028433Y-90426815D01*
X170881830Y-90573162D01*
X170802391Y-90764472D01*
X170802210Y-90971619D01*
X170881315Y-91163067D01*
X170942000Y-91223858D01*
X170942000Y-91554300D01*
X169938700Y-91554300D01*
X169938700Y-88995064D01*
X170360882Y-88572882D01*
X170377197Y-88548646D01*
X170383200Y-88519000D01*
X170383200Y-87693500D01*
X170377989Y-87665805D01*
X170361621Y-87640368D01*
X170336646Y-87623303D01*
X170307000Y-87617300D01*
X170116500Y-87617300D01*
X170088805Y-87622511D01*
X170063368Y-87638879D01*
X170046303Y-87663854D01*
X170040300Y-87693500D01*
X170040300Y-88487436D01*
X169681618Y-88846118D01*
X169665303Y-88870354D01*
X169659300Y-88900000D01*
X169659300Y-91459984D01*
X169474048Y-91274732D01*
X169350443Y-91192142D01*
X169204640Y-91163140D01*
X164575833Y-91163140D01*
X164562998Y-91098617D01*
X164480408Y-90975012D01*
X162326488Y-88821092D01*
X162202883Y-88738502D01*
X162057080Y-88709500D01*
X161692903Y-88709500D01*
X161632838Y-88649330D01*
X161441528Y-88569891D01*
X161234381Y-88569710D01*
X161042933Y-88648815D01*
X160896330Y-88795162D01*
X160816891Y-88986472D01*
X160816710Y-89193619D01*
X160895815Y-89385067D01*
X161042162Y-89531670D01*
X161233472Y-89611109D01*
X161440619Y-89611290D01*
X161632067Y-89532185D01*
X161692858Y-89471500D01*
X161899264Y-89471500D01*
X163742466Y-91314702D01*
X163690391Y-91440112D01*
X163690210Y-91647259D01*
X163769315Y-91838707D01*
X163915662Y-91985310D01*
X164106972Y-92064749D01*
X164314119Y-92064930D01*
X164505567Y-91985825D01*
X164566358Y-91925140D01*
X167159721Y-91925140D01*
X167114620Y-91970162D01*
X167035181Y-92161472D01*
X167035000Y-92368619D01*
X167114105Y-92560067D01*
X167260452Y-92706670D01*
X167451762Y-92786109D01*
X167658909Y-92786290D01*
X167850357Y-92707185D01*
X167987481Y-92570300D01*
X168165740Y-92570300D01*
X168301872Y-92706670D01*
X168493182Y-92786109D01*
X168700329Y-92786290D01*
X168891777Y-92707185D01*
X169038380Y-92560838D01*
X169117819Y-92369528D01*
X169118000Y-92162381D01*
X169038895Y-91970933D01*
X168993182Y-91925140D01*
X169046824Y-91925140D01*
X169339090Y-92217405D01*
X169339092Y-92217408D01*
X169411068Y-92265500D01*
X169462697Y-92299998D01*
X169608500Y-92329000D01*
X170908600Y-92329000D01*
X170908600Y-93319797D01*
X170848430Y-93379862D01*
X170768991Y-93571172D01*
X170768810Y-93778319D01*
X170847915Y-93969767D01*
X170994262Y-94116370D01*
X171185572Y-94195809D01*
X171247585Y-94195863D01*
X170172526Y-95270922D01*
X169316400Y-95270922D01*
X169231686Y-95286862D01*
X169153882Y-95336928D01*
X169101685Y-95413320D01*
X169083322Y-95504000D01*
X169083322Y-98094800D01*
X168736678Y-98094800D01*
X168736678Y-95504000D01*
X168720738Y-95419286D01*
X168670672Y-95341482D01*
X168594280Y-95289285D01*
X168503600Y-95270922D01*
X166776400Y-95270922D01*
X166691686Y-95286862D01*
X166613882Y-95336928D01*
X166561685Y-95413320D01*
X166543322Y-95504000D01*
X166543322Y-98094800D01*
X166196678Y-98094800D01*
X166196678Y-95504000D01*
X166180738Y-95419286D01*
X166130672Y-95341482D01*
X166054280Y-95289285D01*
X165963600Y-95270922D01*
X164236400Y-95270922D01*
X164151686Y-95286862D01*
X164073882Y-95336928D01*
X164021685Y-95413320D01*
X164003322Y-95504000D01*
X164003322Y-98094800D01*
X163656678Y-98094800D01*
X163656678Y-95504000D01*
X163640738Y-95419286D01*
X163590672Y-95341482D01*
X163514280Y-95289285D01*
X163423600Y-95270922D01*
X161696400Y-95270922D01*
X161611686Y-95286862D01*
X161533882Y-95336928D01*
X161481685Y-95413320D01*
X161463322Y-95504000D01*
X161463322Y-98094800D01*
X161116678Y-98094800D01*
X161116678Y-95504000D01*
X161100738Y-95419286D01*
X161050672Y-95341482D01*
X160974280Y-95289285D01*
X160883600Y-95270922D01*
X159156400Y-95270922D01*
X159071686Y-95286862D01*
X158993882Y-95336928D01*
X158941685Y-95413320D01*
X158923322Y-95504000D01*
X158923322Y-98094800D01*
X158576678Y-98094800D01*
X158576678Y-95504000D01*
X158560738Y-95419286D01*
X158510672Y-95341482D01*
X158434280Y-95289285D01*
X158343600Y-95270922D01*
X157861000Y-95270922D01*
X157861000Y-94249626D01*
X158726063Y-93384563D01*
X158808653Y-93260957D01*
X158837656Y-93115155D01*
X158837655Y-93115150D01*
X158837655Y-92304609D01*
X158897825Y-92244544D01*
X158977264Y-92053234D01*
X158977445Y-91846087D01*
X158898340Y-91654639D01*
X158837655Y-91593848D01*
X158837655Y-90934660D01*
X158837656Y-90934655D01*
X158808653Y-90788853D01*
X158753759Y-90706698D01*
X158726063Y-90665247D01*
X158726060Y-90665245D01*
X155109281Y-87048465D01*
X155110482Y-87045574D01*
X155110625Y-86881990D01*
X155115078Y-86860000D01*
X155115078Y-86460000D01*
X155099138Y-86375286D01*
X155089809Y-86360788D01*
X155096715Y-86350680D01*
X155115078Y-86260000D01*
X155115078Y-85860000D01*
X155110578Y-85836083D01*
X155110718Y-85675610D01*
X155109106Y-85671710D01*
X155198616Y-85582200D01*
X155600597Y-85582200D01*
X155660662Y-85642370D01*
X155851972Y-85721809D01*
X156059119Y-85721990D01*
X156250567Y-85642885D01*
X156397170Y-85496538D01*
X156476609Y-85305228D01*
X156476790Y-85098081D01*
X156397685Y-84906633D01*
X156251338Y-84760030D01*
X156060028Y-84680591D01*
X155852881Y-84680410D01*
X155661433Y-84759515D01*
X155600642Y-84820200D01*
X155040800Y-84820200D01*
X154894997Y-84849202D01*
X154771392Y-84931792D01*
X154570465Y-85132719D01*
X154567574Y-85131518D01*
X154297610Y-85131282D01*
X154048106Y-85234375D01*
X153857046Y-85425102D01*
X153753518Y-85674426D01*
X153753375Y-85838010D01*
X153748922Y-85860000D01*
X153748922Y-86260000D01*
X153764862Y-86344714D01*
X153774191Y-86359212D01*
X153767285Y-86369320D01*
X153748922Y-86460000D01*
X153748922Y-86860000D01*
X153753422Y-86883917D01*
X153753282Y-87044390D01*
X153856375Y-87293894D01*
X154047102Y-87484954D01*
X154296426Y-87588482D01*
X154566390Y-87588718D01*
X154570290Y-87587106D01*
X158075655Y-91092470D01*
X158075655Y-91593803D01*
X158015485Y-91653868D01*
X157936046Y-91845178D01*
X157935865Y-92052325D01*
X158014970Y-92243773D01*
X158075655Y-92304564D01*
X158075655Y-92957339D01*
X157210592Y-93822402D01*
X157128002Y-93946007D01*
X157118732Y-93992609D01*
X157099000Y-94091810D01*
X157099000Y-95270922D01*
X156616400Y-95270922D01*
X156531686Y-95286862D01*
X156453882Y-95336928D01*
X156401685Y-95413320D01*
X156383322Y-95504000D01*
X156383322Y-98094800D01*
X156032200Y-98094800D01*
X156032200Y-96589850D01*
X155975050Y-96532700D01*
X154952700Y-96532700D01*
X154952700Y-98094800D01*
X154927300Y-98094800D01*
X154927300Y-96532700D01*
X153904950Y-96532700D01*
X153847800Y-96589850D01*
X153847800Y-98094800D01*
X153365200Y-98094800D01*
X153365200Y-95458529D01*
X153847800Y-95458529D01*
X153847800Y-96450150D01*
X153904950Y-96507300D01*
X154927300Y-96507300D01*
X154927300Y-95332550D01*
X154952700Y-95332550D01*
X154952700Y-96507300D01*
X155975050Y-96507300D01*
X156032200Y-96450150D01*
X156032200Y-95458529D01*
X155997398Y-95374509D01*
X155933092Y-95310203D01*
X155849072Y-95275400D01*
X155009850Y-95275400D01*
X154952700Y-95332550D01*
X154927300Y-95332550D01*
X154870150Y-95275400D01*
X154030928Y-95275400D01*
X153946908Y-95310203D01*
X153882602Y-95374509D01*
X153847800Y-95458529D01*
X153365200Y-95458529D01*
X153365200Y-95076678D01*
X155956000Y-95076678D01*
X156040714Y-95060738D01*
X156118518Y-95010672D01*
X156170715Y-94934280D01*
X156189078Y-94843600D01*
X156189078Y-93116400D01*
X156173138Y-93031686D01*
X156123072Y-92953882D01*
X156046680Y-92901685D01*
X155956000Y-92883322D01*
X153365200Y-92883322D01*
X153365200Y-89863703D01*
X153454022Y-89863703D01*
X153610287Y-90241894D01*
X153899384Y-90531496D01*
X154277301Y-90688421D01*
X154686503Y-90688778D01*
X155064694Y-90532513D01*
X155354296Y-90243416D01*
X155511221Y-89865499D01*
X155511578Y-89456297D01*
X155355313Y-89078106D01*
X155066216Y-88788504D01*
X154688299Y-88631579D01*
X154279097Y-88631222D01*
X153900906Y-88787487D01*
X153611304Y-89076584D01*
X153454379Y-89454501D01*
X153454022Y-89863703D01*
X153365200Y-89863703D01*
X153365200Y-83263703D01*
X153454022Y-83263703D01*
X153610287Y-83641894D01*
X153899384Y-83931496D01*
X154277301Y-84088421D01*
X154686503Y-84088778D01*
X155064694Y-83932513D01*
X155354296Y-83643416D01*
X155511221Y-83265499D01*
X155511578Y-82856297D01*
X155355313Y-82478106D01*
X155066216Y-82188504D01*
X154688299Y-82031579D01*
X154279097Y-82031222D01*
X153900906Y-82187487D01*
X153611304Y-82476584D01*
X153454379Y-82854501D01*
X153454022Y-83263703D01*
X153365200Y-83263703D01*
X153365200Y-77165200D01*
X153843322Y-77165200D01*
X153843322Y-79756000D01*
M02*
