G04 #@! TF.FileFunction,Copper,L2,Bot,Signal*
%FSLAX46Y46*%
G04 Gerber Fmt 4.6, Leading zero omitted, Abs format (unit mm)*
G04 Created by KiCad (PCBNEW (2015-08-16 BZR 6097, Git b384c94)-product) date 18/01/2016 15:22:46*
%MOMM*%
G01*
G04 APERTURE LIST*
%ADD10C,0.100000*%
%ADD11C,1.600000*%
%ADD12R,2.032000X1.727200*%
%ADD13C,0.900000*%
%ADD14R,0.900000X0.400000*%
%ADD15R,1.727200X2.032000*%
%ADD16C,0.584200*%
%ADD17C,0.508000*%
%ADD18C,0.304800*%
%ADD19C,0.152400*%
G04 APERTURE END LIST*
D10*
D11*
X154863800Y-83060000D03*
X154863800Y-89660000D03*
D12*
X185420000Y-78740000D03*
X187325000Y-78740000D03*
D13*
X154813000Y-86910000D03*
D14*
X154813000Y-86060000D03*
X154813000Y-86660000D03*
D13*
X154813000Y-85810000D03*
D15*
X185420000Y-98425000D03*
X182880000Y-98425000D03*
X180340000Y-98425000D03*
X177800000Y-98425000D03*
X175260000Y-98425000D03*
X172720000Y-98425000D03*
X170180000Y-98425000D03*
X167640000Y-98425000D03*
X165100000Y-98425000D03*
X162560000Y-98425000D03*
X160020000Y-98425000D03*
X157480000Y-98425000D03*
X154940000Y-98425000D03*
X154940000Y-96520000D03*
X157480000Y-96520000D03*
X160020000Y-96520000D03*
X162560000Y-96520000D03*
X165100000Y-96520000D03*
X167640000Y-96520000D03*
X170180000Y-96520000D03*
X172720000Y-96520000D03*
X175260000Y-96520000D03*
X177800000Y-96520000D03*
X180340000Y-96520000D03*
X182880000Y-96520000D03*
X185420000Y-96520000D03*
X154940000Y-74295000D03*
X157480000Y-74295000D03*
X160020000Y-74295000D03*
X162560000Y-74295000D03*
X165100000Y-74295000D03*
X167640000Y-74295000D03*
X170180000Y-74295000D03*
X172720000Y-74295000D03*
X175260000Y-74295000D03*
X177800000Y-74295000D03*
X180340000Y-74295000D03*
X182880000Y-74295000D03*
X185420000Y-74295000D03*
X185420000Y-76200000D03*
X182880000Y-76200000D03*
X180340000Y-76200000D03*
X177800000Y-76200000D03*
X175260000Y-76200000D03*
X172720000Y-76200000D03*
X170180000Y-76200000D03*
X167640000Y-76200000D03*
X165100000Y-76200000D03*
X162560000Y-76200000D03*
X160020000Y-76200000D03*
X157480000Y-76200000D03*
X154940000Y-76200000D03*
D16*
X168084500Y-94589600D03*
X180534000Y-93658000D03*
X177927000Y-91257500D03*
X179260500Y-87185500D03*
X179895500Y-87185500D03*
X180530500Y-87185500D03*
X176088000Y-81915000D03*
X175133000Y-86614000D03*
X175133000Y-84889000D03*
X173408000Y-84889000D03*
X173408000Y-86614000D03*
D17*
X177927000Y-93099000D03*
X172696244Y-89130244D03*
D16*
X172910500Y-92138500D03*
X177927000Y-94099000D03*
X164211000Y-91544140D03*
X164782500Y-82558000D03*
X178054000Y-80454500D03*
X157353000Y-91003500D03*
X164782500Y-83558000D03*
X159337500Y-89090500D03*
X156337000Y-85201200D03*
X154305000Y-91003500D03*
D18*
X180530500Y-87185500D02*
X179895500Y-87185500D01*
X154940000Y-98425000D02*
X154940000Y-96520000D01*
D19*
X172696244Y-89130244D02*
X172696244Y-91153606D01*
X172696244Y-91153606D02*
X174641638Y-93099000D01*
X174641638Y-93099000D02*
X177424600Y-93099000D01*
X177424600Y-93099000D02*
X177927000Y-93099000D01*
X165100000Y-96520000D02*
X165100000Y-98425000D01*
X170180000Y-96520000D02*
X170180000Y-98425000D01*
X172720000Y-98425000D02*
X172720000Y-96520000D01*
X172720000Y-96367600D02*
X172720000Y-96520000D01*
D18*
X177927000Y-94099000D02*
X174871000Y-94099000D01*
X174871000Y-94099000D02*
X172910500Y-92138500D01*
X164211000Y-91544140D02*
X172316140Y-91544140D01*
X172316140Y-91544140D02*
X172910500Y-92138500D01*
X160020000Y-96520000D02*
X160020000Y-98425000D01*
X164782500Y-82558000D02*
X165437300Y-82558000D01*
X165437300Y-82558000D02*
X167540800Y-80454500D01*
X167540800Y-80454500D02*
X177640909Y-80454500D01*
X177640909Y-80454500D02*
X178054000Y-80454500D01*
X185420000Y-78740000D02*
X187325000Y-78740000D01*
X178054000Y-80454500D02*
X183769000Y-80454500D01*
X183769000Y-80454500D02*
X185420000Y-78803500D01*
X185420000Y-78803500D02*
X185420000Y-78740000D01*
X157353000Y-91003500D02*
X157424500Y-91003500D01*
X157424500Y-91003500D02*
X159337500Y-89090500D01*
X161036000Y-84683600D02*
X162161600Y-83558000D01*
X162161600Y-83558000D02*
X164782500Y-83558000D01*
X161036000Y-87392000D02*
X161036000Y-84683600D01*
X159337500Y-89090500D02*
X161036000Y-87392000D01*
X156337000Y-85201200D02*
X155421800Y-85201200D01*
X155421800Y-85201200D02*
X154813000Y-85810000D01*
X155194000Y-90995500D02*
X157480000Y-93281500D01*
X157480000Y-93281500D02*
X157480000Y-94128500D01*
X155163406Y-90995500D02*
X155194000Y-90995500D01*
X157480000Y-96520000D02*
X157480000Y-94128500D01*
X154355000Y-91003500D02*
X154305000Y-91003500D01*
X155163406Y-90995500D02*
X154313000Y-90995500D01*
X154313000Y-90995500D02*
X154305000Y-91003500D01*
X154813000Y-86910000D02*
X154813000Y-87974094D01*
X154813000Y-87974094D02*
X155968601Y-89129695D01*
X155968601Y-89129695D02*
X155968601Y-90190305D01*
X155968601Y-90190305D02*
X155163406Y-90995500D01*
X157480000Y-98425000D02*
X157480000Y-96520000D01*
D19*
X175260000Y-98425000D02*
X175260000Y-96520000D01*
X177800000Y-98425000D02*
X177800000Y-96520000D01*
X180340000Y-98425000D02*
X180340000Y-96520000D01*
X182880000Y-98425000D02*
X182880000Y-96520000D01*
X185420000Y-98425000D02*
X185420000Y-96520000D01*
X185420000Y-76200000D02*
X185420000Y-74295000D01*
X167640000Y-98425000D02*
X167640000Y-96520000D01*
X167640000Y-96367600D02*
X167640000Y-96520000D01*
X182880000Y-76200000D02*
X182880000Y-74295000D01*
X180340000Y-76200000D02*
X180340000Y-74295000D01*
X177800000Y-76200000D02*
X177800000Y-74295000D01*
X175260000Y-76200000D02*
X175260000Y-74295000D01*
X172720000Y-76200000D02*
X172720000Y-74295000D01*
X170180000Y-76200000D02*
X170180000Y-74295000D01*
X167640000Y-76200000D02*
X167640000Y-74295000D01*
X165100000Y-76200000D02*
X165100000Y-74295000D01*
X162560000Y-76200000D02*
X162560000Y-74295000D01*
X160020000Y-76200000D02*
X160020000Y-74295000D01*
X157480000Y-76200000D02*
X157480000Y-74295000D01*
X154940000Y-76200000D02*
X154940000Y-74295000D01*
X162560000Y-96520000D02*
X162560000Y-98425000D01*
X162560000Y-96520000D02*
X162560000Y-96367600D01*
G36*
X153843322Y-77216000D02*
X153859262Y-77300714D01*
X153909328Y-77378518D01*
X153985720Y-77430715D01*
X154076400Y-77449078D01*
X155803600Y-77449078D01*
X155888314Y-77433138D01*
X155966118Y-77383072D01*
X156018315Y-77306680D01*
X156036678Y-77216000D01*
X156036678Y-74625200D01*
X156383322Y-74625200D01*
X156383322Y-77216000D01*
X156399262Y-77300714D01*
X156449328Y-77378518D01*
X156525720Y-77430715D01*
X156616400Y-77449078D01*
X158343600Y-77449078D01*
X158428314Y-77433138D01*
X158506118Y-77383072D01*
X158558315Y-77306680D01*
X158576678Y-77216000D01*
X158576678Y-74625200D01*
X158923322Y-74625200D01*
X158923322Y-77216000D01*
X158939262Y-77300714D01*
X158989328Y-77378518D01*
X159065720Y-77430715D01*
X159156400Y-77449078D01*
X160883600Y-77449078D01*
X160968314Y-77433138D01*
X161046118Y-77383072D01*
X161098315Y-77306680D01*
X161116678Y-77216000D01*
X161116678Y-74625200D01*
X161463322Y-74625200D01*
X161463322Y-77216000D01*
X161479262Y-77300714D01*
X161529328Y-77378518D01*
X161605720Y-77430715D01*
X161696400Y-77449078D01*
X163423600Y-77449078D01*
X163508314Y-77433138D01*
X163586118Y-77383072D01*
X163638315Y-77306680D01*
X163656678Y-77216000D01*
X163656678Y-74625200D01*
X164003322Y-74625200D01*
X164003322Y-77216000D01*
X164019262Y-77300714D01*
X164069328Y-77378518D01*
X164145720Y-77430715D01*
X164236400Y-77449078D01*
X165963600Y-77449078D01*
X166048314Y-77433138D01*
X166126118Y-77383072D01*
X166178315Y-77306680D01*
X166196678Y-77216000D01*
X166196678Y-74625200D01*
X166543322Y-74625200D01*
X166543322Y-77216000D01*
X166559262Y-77300714D01*
X166609328Y-77378518D01*
X166685720Y-77430715D01*
X166776400Y-77449078D01*
X168503600Y-77449078D01*
X168588314Y-77433138D01*
X168666118Y-77383072D01*
X168718315Y-77306680D01*
X168736678Y-77216000D01*
X168736678Y-74625200D01*
X169083322Y-74625200D01*
X169083322Y-77216000D01*
X169099262Y-77300714D01*
X169149328Y-77378518D01*
X169225720Y-77430715D01*
X169316400Y-77449078D01*
X171043600Y-77449078D01*
X171128314Y-77433138D01*
X171206118Y-77383072D01*
X171258315Y-77306680D01*
X171276678Y-77216000D01*
X171276678Y-74625200D01*
X171623322Y-74625200D01*
X171623322Y-77216000D01*
X171639262Y-77300714D01*
X171689328Y-77378518D01*
X171765720Y-77430715D01*
X171856400Y-77449078D01*
X173583600Y-77449078D01*
X173668314Y-77433138D01*
X173746118Y-77383072D01*
X173798315Y-77306680D01*
X173816678Y-77216000D01*
X173816678Y-74625200D01*
X174163322Y-74625200D01*
X174163322Y-77216000D01*
X174179262Y-77300714D01*
X174229328Y-77378518D01*
X174305720Y-77430715D01*
X174396400Y-77449078D01*
X176123600Y-77449078D01*
X176208314Y-77433138D01*
X176286118Y-77383072D01*
X176338315Y-77306680D01*
X176356678Y-77216000D01*
X176356678Y-74625200D01*
X176703322Y-74625200D01*
X176703322Y-77216000D01*
X176719262Y-77300714D01*
X176769328Y-77378518D01*
X176845720Y-77430715D01*
X176936400Y-77449078D01*
X178663600Y-77449078D01*
X178748314Y-77433138D01*
X178826118Y-77383072D01*
X178878315Y-77306680D01*
X178896678Y-77216000D01*
X178896678Y-74625200D01*
X179243322Y-74625200D01*
X179243322Y-77216000D01*
X179259262Y-77300714D01*
X179309328Y-77378518D01*
X179385720Y-77430715D01*
X179476400Y-77449078D01*
X181203600Y-77449078D01*
X181288314Y-77433138D01*
X181366118Y-77383072D01*
X181418315Y-77306680D01*
X181436678Y-77216000D01*
X181436678Y-74625200D01*
X181783322Y-74625200D01*
X181783322Y-77216000D01*
X181799262Y-77300714D01*
X181849328Y-77378518D01*
X181925720Y-77430715D01*
X182016400Y-77449078D01*
X183743600Y-77449078D01*
X183828314Y-77433138D01*
X183906118Y-77383072D01*
X183958315Y-77306680D01*
X183976678Y-77216000D01*
X183976678Y-74625200D01*
X184323322Y-74625200D01*
X184323322Y-77216000D01*
X184339262Y-77300714D01*
X184389328Y-77378518D01*
X184465720Y-77430715D01*
X184556400Y-77449078D01*
X186283600Y-77449078D01*
X186368314Y-77433138D01*
X186446118Y-77383072D01*
X186498315Y-77306680D01*
X186516678Y-77216000D01*
X186516678Y-74625200D01*
X186989433Y-74625200D01*
X186989433Y-77643322D01*
X184404000Y-77643322D01*
X184319286Y-77659262D01*
X184241482Y-77709328D01*
X184189285Y-77785720D01*
X184170922Y-77876400D01*
X184170922Y-79513762D01*
X183611184Y-80073500D01*
X178409403Y-80073500D01*
X178349338Y-80013330D01*
X178158028Y-79933891D01*
X177950881Y-79933710D01*
X177759433Y-80012815D01*
X177698642Y-80073500D01*
X167540800Y-80073500D01*
X167394997Y-80102502D01*
X167271392Y-80185092D01*
X165279484Y-82177000D01*
X165137903Y-82177000D01*
X165077838Y-82116830D01*
X164886528Y-82037391D01*
X164679381Y-82037210D01*
X164487933Y-82116315D01*
X164341330Y-82262662D01*
X164261891Y-82453972D01*
X164261710Y-82661119D01*
X164340815Y-82852567D01*
X164487162Y-82999170D01*
X164628953Y-83058047D01*
X164487933Y-83116315D01*
X164427142Y-83177000D01*
X162161605Y-83177000D01*
X162161600Y-83176999D01*
X162015798Y-83206002D01*
X161892192Y-83288592D01*
X160766592Y-84414192D01*
X160684002Y-84537797D01*
X160684002Y-84537798D01*
X160655000Y-84683600D01*
X160655000Y-87234185D01*
X159319400Y-88569784D01*
X159234381Y-88569710D01*
X159042933Y-88648815D01*
X158896330Y-88795162D01*
X158816891Y-88986472D01*
X158816816Y-89072369D01*
X157406337Y-90482847D01*
X157249881Y-90482710D01*
X157058433Y-90561815D01*
X156911830Y-90708162D01*
X156832391Y-90899472D01*
X156832210Y-91106619D01*
X156911315Y-91298067D01*
X157057662Y-91444670D01*
X157248972Y-91524109D01*
X157456119Y-91524290D01*
X157647567Y-91445185D01*
X157794170Y-91298838D01*
X157873609Y-91107528D01*
X157873622Y-91093194D01*
X159355599Y-89611216D01*
X159440619Y-89611290D01*
X159632067Y-89532185D01*
X159778670Y-89385838D01*
X159858109Y-89194528D01*
X159858184Y-89108632D01*
X161305405Y-87661410D01*
X161305408Y-87661408D01*
X161387998Y-87537802D01*
X161398377Y-87485625D01*
X161417001Y-87392000D01*
X161417000Y-87391995D01*
X161417000Y-86677500D01*
X176199800Y-86677500D01*
X176199800Y-86868000D01*
X176205011Y-86895695D01*
X176221379Y-86921132D01*
X176246354Y-86938197D01*
X176276000Y-86944200D01*
X178244500Y-86944200D01*
X178273173Y-86938599D01*
X178298382Y-86921882D01*
X178806382Y-86413882D01*
X178822697Y-86389646D01*
X178828700Y-86360000D01*
X178828700Y-85483700D01*
X181978300Y-85483700D01*
X181978300Y-89077800D01*
X178701700Y-89077800D01*
X178701700Y-87947500D01*
X178696099Y-87918827D01*
X178679382Y-87893618D01*
X178361882Y-87576118D01*
X178337646Y-87559803D01*
X178308000Y-87553800D01*
X176339500Y-87553800D01*
X176311805Y-87559011D01*
X176286368Y-87575379D01*
X176269303Y-87600354D01*
X176263300Y-87630000D01*
X176263300Y-87820500D01*
X176268511Y-87848195D01*
X176284879Y-87873632D01*
X176309854Y-87890697D01*
X176339500Y-87896700D01*
X178085936Y-87896700D01*
X178358800Y-88169564D01*
X178358800Y-89344500D01*
X178364011Y-89372195D01*
X178380379Y-89397632D01*
X178405354Y-89414697D01*
X178435000Y-89420700D01*
X182245000Y-89420700D01*
X182272695Y-89415489D01*
X182298132Y-89399121D01*
X182315197Y-89374146D01*
X182321200Y-89344500D01*
X182321200Y-85217000D01*
X182315989Y-85189305D01*
X182299621Y-85163868D01*
X182274646Y-85146803D01*
X182245000Y-85140800D01*
X178562000Y-85140800D01*
X178534305Y-85146011D01*
X178508868Y-85162379D01*
X178491803Y-85187354D01*
X178485800Y-85217000D01*
X178485800Y-86137936D01*
X178022436Y-86601300D01*
X176276000Y-86601300D01*
X176248305Y-86606511D01*
X176222868Y-86622879D01*
X176205803Y-86647854D01*
X176199800Y-86677500D01*
X161417000Y-86677500D01*
X161417000Y-84841416D01*
X162319416Y-83939000D01*
X164427097Y-83939000D01*
X164487162Y-83999170D01*
X164678472Y-84078609D01*
X164885619Y-84078790D01*
X165077067Y-83999685D01*
X165223670Y-83853338D01*
X165303109Y-83662028D01*
X165303290Y-83454881D01*
X165224185Y-83263433D01*
X165077838Y-83116830D01*
X164936047Y-83057953D01*
X165077067Y-82999685D01*
X165137858Y-82939000D01*
X165437300Y-82939000D01*
X165583103Y-82909998D01*
X165706708Y-82827408D01*
X167698616Y-80835500D01*
X175787236Y-80835500D01*
X175079118Y-81543618D01*
X175062803Y-81567854D01*
X175056800Y-81597500D01*
X175056800Y-83756500D01*
X175062011Y-83784195D01*
X175078379Y-83809632D01*
X175103354Y-83826697D01*
X175133000Y-83832700D01*
X175323500Y-83832700D01*
X175351195Y-83827489D01*
X175376632Y-83811121D01*
X175393697Y-83786146D01*
X175399700Y-83756500D01*
X175399700Y-81819564D01*
X176117064Y-81102200D01*
X178803300Y-81102200D01*
X178803300Y-82283300D01*
X177546000Y-82283300D01*
X177517327Y-82288901D01*
X177492118Y-82305618D01*
X177006436Y-82791300D01*
X176530000Y-82791300D01*
X176501327Y-82796901D01*
X176476118Y-82813618D01*
X176158618Y-83131118D01*
X176142303Y-83155354D01*
X176136300Y-83185000D01*
X176136300Y-83756500D01*
X176141511Y-83784195D01*
X176157879Y-83809632D01*
X176182854Y-83826697D01*
X176212500Y-83832700D01*
X176403000Y-83832700D01*
X176430695Y-83827489D01*
X176456132Y-83811121D01*
X176473197Y-83786146D01*
X176479200Y-83756500D01*
X176479200Y-83407064D01*
X176752064Y-83134200D01*
X177228500Y-83134200D01*
X177257173Y-83128599D01*
X177282382Y-83111882D01*
X177768064Y-82626200D01*
X179070000Y-82626200D01*
X179097695Y-82620989D01*
X179123132Y-82604621D01*
X179140197Y-82579646D01*
X179146200Y-82550000D01*
X179146200Y-80835500D01*
X183769000Y-80835500D01*
X183914803Y-80806498D01*
X184038408Y-80723908D01*
X184925637Y-79836678D01*
X186989433Y-79836678D01*
X186989433Y-98094800D01*
X186516678Y-98094800D01*
X186516678Y-95504000D01*
X186500738Y-95419286D01*
X186450672Y-95341482D01*
X186374280Y-95289285D01*
X186283600Y-95270922D01*
X184556400Y-95270922D01*
X184471686Y-95286862D01*
X184393882Y-95336928D01*
X184341685Y-95413320D01*
X184323322Y-95504000D01*
X184323322Y-98094800D01*
X183976678Y-98094800D01*
X183976678Y-95504000D01*
X183960738Y-95419286D01*
X183910672Y-95341482D01*
X183834280Y-95289285D01*
X183743600Y-95270922D01*
X182016400Y-95270922D01*
X181931686Y-95286862D01*
X181853882Y-95336928D01*
X181801685Y-95413320D01*
X181783322Y-95504000D01*
X181783322Y-98094800D01*
X181436678Y-98094800D01*
X181436678Y-95504000D01*
X181420738Y-95419286D01*
X181370672Y-95341482D01*
X181294280Y-95289285D01*
X181203600Y-95270922D01*
X179476400Y-95270922D01*
X179391686Y-95286862D01*
X179313882Y-95336928D01*
X179261685Y-95413320D01*
X179243322Y-95504000D01*
X179243322Y-98094800D01*
X178896678Y-98094800D01*
X178896678Y-95504000D01*
X178880738Y-95419286D01*
X178830672Y-95341482D01*
X178754280Y-95289285D01*
X178663600Y-95270922D01*
X176936400Y-95270922D01*
X176851686Y-95286862D01*
X176773882Y-95336928D01*
X176721685Y-95413320D01*
X176703322Y-95504000D01*
X176703322Y-98094800D01*
X176356678Y-98094800D01*
X176356678Y-95504000D01*
X176340738Y-95419286D01*
X176290672Y-95341482D01*
X176214280Y-95289285D01*
X176123600Y-95270922D01*
X174396400Y-95270922D01*
X174311686Y-95286862D01*
X174233882Y-95336928D01*
X174181685Y-95413320D01*
X174163322Y-95504000D01*
X174163322Y-98094800D01*
X173816678Y-98094800D01*
X173816678Y-95504000D01*
X173800738Y-95419286D01*
X173750672Y-95341482D01*
X173674280Y-95289285D01*
X173583600Y-95270922D01*
X171856400Y-95270922D01*
X171771686Y-95286862D01*
X171693882Y-95336928D01*
X171641685Y-95413320D01*
X171623322Y-95504000D01*
X171623322Y-98094800D01*
X171276678Y-98094800D01*
X171276678Y-95504000D01*
X171260738Y-95419286D01*
X171210672Y-95341482D01*
X171134280Y-95289285D01*
X171043600Y-95270922D01*
X169316400Y-95270922D01*
X169231686Y-95286862D01*
X169153882Y-95336928D01*
X169101685Y-95413320D01*
X169083322Y-95504000D01*
X169083322Y-98094800D01*
X168736678Y-98094800D01*
X168736678Y-95504000D01*
X168720738Y-95419286D01*
X168670672Y-95341482D01*
X168594280Y-95289285D01*
X168503600Y-95270922D01*
X166776400Y-95270922D01*
X166691686Y-95286862D01*
X166613882Y-95336928D01*
X166561685Y-95413320D01*
X166543322Y-95504000D01*
X166543322Y-98094800D01*
X166196678Y-98094800D01*
X166196678Y-95504000D01*
X166180738Y-95419286D01*
X166130672Y-95341482D01*
X166054280Y-95289285D01*
X165963600Y-95270922D01*
X164236400Y-95270922D01*
X164151686Y-95286862D01*
X164073882Y-95336928D01*
X164021685Y-95413320D01*
X164003322Y-95504000D01*
X164003322Y-98094800D01*
X163656678Y-98094800D01*
X163656678Y-95504000D01*
X163640738Y-95419286D01*
X163590672Y-95341482D01*
X163514280Y-95289285D01*
X163423600Y-95270922D01*
X161696400Y-95270922D01*
X161611686Y-95286862D01*
X161533882Y-95336928D01*
X161481685Y-95413320D01*
X161463322Y-95504000D01*
X161463322Y-98094800D01*
X161116678Y-98094800D01*
X161116678Y-95504000D01*
X161100738Y-95419286D01*
X161050672Y-95341482D01*
X160974280Y-95289285D01*
X160883600Y-95270922D01*
X159156400Y-95270922D01*
X159071686Y-95286862D01*
X158993882Y-95336928D01*
X158941685Y-95413320D01*
X158923322Y-95504000D01*
X158923322Y-98094800D01*
X158576678Y-98094800D01*
X158576678Y-95504000D01*
X158560738Y-95419286D01*
X158510672Y-95341482D01*
X158434280Y-95289285D01*
X158343600Y-95270922D01*
X157861000Y-95270922D01*
X157861000Y-93281500D01*
X157831998Y-93135698D01*
X157831998Y-93135697D01*
X157749408Y-93012092D01*
X156384575Y-91647259D01*
X163690210Y-91647259D01*
X163769315Y-91838707D01*
X163915662Y-91985310D01*
X164106972Y-92064749D01*
X164314119Y-92064930D01*
X164505567Y-91985825D01*
X164566358Y-91925140D01*
X172158324Y-91925140D01*
X172389784Y-92156600D01*
X172389710Y-92241619D01*
X172468815Y-92433067D01*
X172615162Y-92579670D01*
X172806472Y-92659109D01*
X172892368Y-92659184D01*
X174601590Y-94368405D01*
X174601592Y-94368408D01*
X174725198Y-94450998D01*
X174871000Y-94480001D01*
X174871005Y-94480000D01*
X177571597Y-94480000D01*
X177631662Y-94540170D01*
X177822972Y-94619609D01*
X178030119Y-94619790D01*
X178221567Y-94540685D01*
X178368170Y-94394338D01*
X178447609Y-94203028D01*
X178447790Y-93995881D01*
X178368685Y-93804433D01*
X178222338Y-93657830D01*
X178031028Y-93578391D01*
X178030545Y-93578391D01*
X178200014Y-93508367D01*
X178335890Y-93372728D01*
X178409516Y-93195416D01*
X178409684Y-93003426D01*
X178336367Y-92825986D01*
X178200728Y-92690110D01*
X178023416Y-92616484D01*
X177831426Y-92616316D01*
X177653986Y-92689633D01*
X177549236Y-92794200D01*
X174767890Y-92794200D01*
X173870890Y-91897200D01*
X174498000Y-91897200D01*
X174525695Y-91891989D01*
X174551132Y-91875621D01*
X174568197Y-91850646D01*
X174574200Y-91821000D01*
X174574200Y-91694000D01*
X174568989Y-91666305D01*
X174552621Y-91640868D01*
X174527646Y-91623803D01*
X174498000Y-91617800D01*
X173591490Y-91617800D01*
X173494700Y-91521010D01*
X173494700Y-89503064D01*
X173916882Y-89080882D01*
X173933197Y-89056646D01*
X173939200Y-89027000D01*
X173939200Y-87757000D01*
X175120300Y-87757000D01*
X175120300Y-88646000D01*
X175125901Y-88674673D01*
X175142618Y-88699882D01*
X175691800Y-89249064D01*
X175691800Y-91617800D01*
X175260000Y-91617800D01*
X175232305Y-91623011D01*
X175206868Y-91639379D01*
X175189803Y-91664354D01*
X175183800Y-91694000D01*
X175183800Y-91821000D01*
X175189011Y-91848695D01*
X175205379Y-91874132D01*
X175230354Y-91891197D01*
X175260000Y-91897200D01*
X175895000Y-91897200D01*
X175922695Y-91891989D01*
X175948132Y-91875621D01*
X175965197Y-91850646D01*
X175971200Y-91821000D01*
X175971200Y-89090500D01*
X175965599Y-89061827D01*
X175948882Y-89036618D01*
X175463200Y-88550936D01*
X175463200Y-87757000D01*
X175457989Y-87729305D01*
X175441621Y-87703868D01*
X175416646Y-87686803D01*
X175387000Y-87680800D01*
X175196500Y-87680800D01*
X175168805Y-87686011D01*
X175143368Y-87702379D01*
X175126303Y-87727354D01*
X175120300Y-87757000D01*
X173939200Y-87757000D01*
X173933989Y-87729305D01*
X173917621Y-87703868D01*
X173892646Y-87686803D01*
X173863000Y-87680800D01*
X173672500Y-87680800D01*
X173644805Y-87686011D01*
X173619368Y-87702379D01*
X173602303Y-87727354D01*
X173596300Y-87757000D01*
X173596300Y-88995436D01*
X173237618Y-89354118D01*
X173221303Y-89378354D01*
X173215300Y-89408000D01*
X173215300Y-91241610D01*
X173001044Y-91027354D01*
X173001044Y-89507880D01*
X173105134Y-89403972D01*
X173178760Y-89226660D01*
X173178928Y-89034670D01*
X173105611Y-88857230D01*
X172969972Y-88721354D01*
X172792660Y-88647728D01*
X172600670Y-88647560D01*
X172423230Y-88720877D01*
X172287354Y-88856516D01*
X172213728Y-89033828D01*
X172213560Y-89225818D01*
X172286877Y-89403258D01*
X172391444Y-89508008D01*
X172391444Y-91153606D01*
X172396521Y-91179129D01*
X172316140Y-91163140D01*
X164566403Y-91163140D01*
X164506338Y-91102970D01*
X164315028Y-91023531D01*
X164107881Y-91023350D01*
X163916433Y-91102455D01*
X163769830Y-91248802D01*
X163690391Y-91440112D01*
X163690210Y-91647259D01*
X156384575Y-91647259D01*
X155717519Y-90980203D01*
X156238006Y-90459715D01*
X156238009Y-90459713D01*
X156320599Y-90336107D01*
X156339037Y-90243416D01*
X156349602Y-90190305D01*
X156349601Y-90190300D01*
X156349601Y-89129700D01*
X156349602Y-89129695D01*
X156320599Y-88983893D01*
X156274378Y-88914718D01*
X156238009Y-88860287D01*
X156238006Y-88860285D01*
X155194000Y-87816278D01*
X155194000Y-87486821D01*
X155196894Y-87485625D01*
X155387954Y-87294898D01*
X155491482Y-87045574D01*
X155491625Y-86881990D01*
X155496078Y-86860000D01*
X155496078Y-86460000D01*
X155480138Y-86375286D01*
X155470809Y-86360788D01*
X155477715Y-86350680D01*
X155496078Y-86260000D01*
X155496078Y-85860000D01*
X155491578Y-85836083D01*
X155491718Y-85675610D01*
X155490106Y-85671710D01*
X155579616Y-85582200D01*
X155981597Y-85582200D01*
X156041662Y-85642370D01*
X156232972Y-85721809D01*
X156440119Y-85721990D01*
X156631567Y-85642885D01*
X156778170Y-85496538D01*
X156857609Y-85305228D01*
X156857790Y-85098081D01*
X156778685Y-84906633D01*
X156632338Y-84760030D01*
X156441028Y-84680591D01*
X156233881Y-84680410D01*
X156042433Y-84759515D01*
X155981642Y-84820200D01*
X155421800Y-84820200D01*
X155275997Y-84849202D01*
X155152392Y-84931792D01*
X154951465Y-85132719D01*
X154948574Y-85131518D01*
X154678610Y-85131282D01*
X154429106Y-85234375D01*
X154238046Y-85425102D01*
X154134518Y-85674426D01*
X154134375Y-85838010D01*
X154129922Y-85860000D01*
X154129922Y-86260000D01*
X154145862Y-86344714D01*
X154155191Y-86359212D01*
X154148285Y-86369320D01*
X154129922Y-86460000D01*
X154129922Y-86860000D01*
X154134422Y-86883917D01*
X154134282Y-87044390D01*
X154237375Y-87293894D01*
X154428102Y-87484954D01*
X154432000Y-87486573D01*
X154432000Y-87974094D01*
X154461002Y-88119897D01*
X154543592Y-88243502D01*
X154931549Y-88631459D01*
X154660097Y-88631222D01*
X154281906Y-88787487D01*
X153992304Y-89076584D01*
X153835379Y-89454501D01*
X153835022Y-89863703D01*
X153991287Y-90241894D01*
X154231709Y-90482736D01*
X154201881Y-90482710D01*
X154010433Y-90561815D01*
X153863830Y-90708162D01*
X153784391Y-90899472D01*
X153784210Y-91106619D01*
X153863315Y-91298067D01*
X154009662Y-91444670D01*
X154200972Y-91524109D01*
X154408119Y-91524290D01*
X154599567Y-91445185D01*
X154668372Y-91376500D01*
X155036184Y-91376500D01*
X157099000Y-93439316D01*
X157099000Y-95270922D01*
X156616400Y-95270922D01*
X156531686Y-95286862D01*
X156453882Y-95336928D01*
X156401685Y-95413320D01*
X156383322Y-95504000D01*
X156383322Y-98094800D01*
X156032200Y-98094800D01*
X156032200Y-96589850D01*
X155975050Y-96532700D01*
X154952700Y-96532700D01*
X154952700Y-98094800D01*
X154927300Y-98094800D01*
X154927300Y-96532700D01*
X153904950Y-96532700D01*
X153847800Y-96589850D01*
X153847800Y-98094800D01*
X153746200Y-98094800D01*
X153746200Y-95458529D01*
X153847800Y-95458529D01*
X153847800Y-96450150D01*
X153904950Y-96507300D01*
X154927300Y-96507300D01*
X154927300Y-95332550D01*
X154952700Y-95332550D01*
X154952700Y-96507300D01*
X155975050Y-96507300D01*
X156032200Y-96450150D01*
X156032200Y-95458529D01*
X155997398Y-95374509D01*
X155933092Y-95310203D01*
X155849072Y-95275400D01*
X155009850Y-95275400D01*
X154952700Y-95332550D01*
X154927300Y-95332550D01*
X154870150Y-95275400D01*
X154030928Y-95275400D01*
X153946908Y-95310203D01*
X153882602Y-95374509D01*
X153847800Y-95458529D01*
X153746200Y-95458529D01*
X153746200Y-83263703D01*
X153835022Y-83263703D01*
X153991287Y-83641894D01*
X154280384Y-83931496D01*
X154658301Y-84088421D01*
X155067503Y-84088778D01*
X155445694Y-83932513D01*
X155735296Y-83643416D01*
X155892221Y-83265499D01*
X155892578Y-82856297D01*
X155736313Y-82478106D01*
X155447216Y-82188504D01*
X155069299Y-82031579D01*
X154660097Y-82031222D01*
X154281906Y-82187487D01*
X153992304Y-82476584D01*
X153835379Y-82854501D01*
X153835022Y-83263703D01*
X153746200Y-83263703D01*
X153746200Y-74625200D01*
X153843322Y-74625200D01*
X153843322Y-77216000D01*
X153843322Y-77216000D01*
G37*
X153843322Y-77216000D02*
X153859262Y-77300714D01*
X153909328Y-77378518D01*
X153985720Y-77430715D01*
X154076400Y-77449078D01*
X155803600Y-77449078D01*
X155888314Y-77433138D01*
X155966118Y-77383072D01*
X156018315Y-77306680D01*
X156036678Y-77216000D01*
X156036678Y-74625200D01*
X156383322Y-74625200D01*
X156383322Y-77216000D01*
X156399262Y-77300714D01*
X156449328Y-77378518D01*
X156525720Y-77430715D01*
X156616400Y-77449078D01*
X158343600Y-77449078D01*
X158428314Y-77433138D01*
X158506118Y-77383072D01*
X158558315Y-77306680D01*
X158576678Y-77216000D01*
X158576678Y-74625200D01*
X158923322Y-74625200D01*
X158923322Y-77216000D01*
X158939262Y-77300714D01*
X158989328Y-77378518D01*
X159065720Y-77430715D01*
X159156400Y-77449078D01*
X160883600Y-77449078D01*
X160968314Y-77433138D01*
X161046118Y-77383072D01*
X161098315Y-77306680D01*
X161116678Y-77216000D01*
X161116678Y-74625200D01*
X161463322Y-74625200D01*
X161463322Y-77216000D01*
X161479262Y-77300714D01*
X161529328Y-77378518D01*
X161605720Y-77430715D01*
X161696400Y-77449078D01*
X163423600Y-77449078D01*
X163508314Y-77433138D01*
X163586118Y-77383072D01*
X163638315Y-77306680D01*
X163656678Y-77216000D01*
X163656678Y-74625200D01*
X164003322Y-74625200D01*
X164003322Y-77216000D01*
X164019262Y-77300714D01*
X164069328Y-77378518D01*
X164145720Y-77430715D01*
X164236400Y-77449078D01*
X165963600Y-77449078D01*
X166048314Y-77433138D01*
X166126118Y-77383072D01*
X166178315Y-77306680D01*
X166196678Y-77216000D01*
X166196678Y-74625200D01*
X166543322Y-74625200D01*
X166543322Y-77216000D01*
X166559262Y-77300714D01*
X166609328Y-77378518D01*
X166685720Y-77430715D01*
X166776400Y-77449078D01*
X168503600Y-77449078D01*
X168588314Y-77433138D01*
X168666118Y-77383072D01*
X168718315Y-77306680D01*
X168736678Y-77216000D01*
X168736678Y-74625200D01*
X169083322Y-74625200D01*
X169083322Y-77216000D01*
X169099262Y-77300714D01*
X169149328Y-77378518D01*
X169225720Y-77430715D01*
X169316400Y-77449078D01*
X171043600Y-77449078D01*
X171128314Y-77433138D01*
X171206118Y-77383072D01*
X171258315Y-77306680D01*
X171276678Y-77216000D01*
X171276678Y-74625200D01*
X171623322Y-74625200D01*
X171623322Y-77216000D01*
X171639262Y-77300714D01*
X171689328Y-77378518D01*
X171765720Y-77430715D01*
X171856400Y-77449078D01*
X173583600Y-77449078D01*
X173668314Y-77433138D01*
X173746118Y-77383072D01*
X173798315Y-77306680D01*
X173816678Y-77216000D01*
X173816678Y-74625200D01*
X174163322Y-74625200D01*
X174163322Y-77216000D01*
X174179262Y-77300714D01*
X174229328Y-77378518D01*
X174305720Y-77430715D01*
X174396400Y-77449078D01*
X176123600Y-77449078D01*
X176208314Y-77433138D01*
X176286118Y-77383072D01*
X176338315Y-77306680D01*
X176356678Y-77216000D01*
X176356678Y-74625200D01*
X176703322Y-74625200D01*
X176703322Y-77216000D01*
X176719262Y-77300714D01*
X176769328Y-77378518D01*
X176845720Y-77430715D01*
X176936400Y-77449078D01*
X178663600Y-77449078D01*
X178748314Y-77433138D01*
X178826118Y-77383072D01*
X178878315Y-77306680D01*
X178896678Y-77216000D01*
X178896678Y-74625200D01*
X179243322Y-74625200D01*
X179243322Y-77216000D01*
X179259262Y-77300714D01*
X179309328Y-77378518D01*
X179385720Y-77430715D01*
X179476400Y-77449078D01*
X181203600Y-77449078D01*
X181288314Y-77433138D01*
X181366118Y-77383072D01*
X181418315Y-77306680D01*
X181436678Y-77216000D01*
X181436678Y-74625200D01*
X181783322Y-74625200D01*
X181783322Y-77216000D01*
X181799262Y-77300714D01*
X181849328Y-77378518D01*
X181925720Y-77430715D01*
X182016400Y-77449078D01*
X183743600Y-77449078D01*
X183828314Y-77433138D01*
X183906118Y-77383072D01*
X183958315Y-77306680D01*
X183976678Y-77216000D01*
X183976678Y-74625200D01*
X184323322Y-74625200D01*
X184323322Y-77216000D01*
X184339262Y-77300714D01*
X184389328Y-77378518D01*
X184465720Y-77430715D01*
X184556400Y-77449078D01*
X186283600Y-77449078D01*
X186368314Y-77433138D01*
X186446118Y-77383072D01*
X186498315Y-77306680D01*
X186516678Y-77216000D01*
X186516678Y-74625200D01*
X186989433Y-74625200D01*
X186989433Y-77643322D01*
X184404000Y-77643322D01*
X184319286Y-77659262D01*
X184241482Y-77709328D01*
X184189285Y-77785720D01*
X184170922Y-77876400D01*
X184170922Y-79513762D01*
X183611184Y-80073500D01*
X178409403Y-80073500D01*
X178349338Y-80013330D01*
X178158028Y-79933891D01*
X177950881Y-79933710D01*
X177759433Y-80012815D01*
X177698642Y-80073500D01*
X167540800Y-80073500D01*
X167394997Y-80102502D01*
X167271392Y-80185092D01*
X165279484Y-82177000D01*
X165137903Y-82177000D01*
X165077838Y-82116830D01*
X164886528Y-82037391D01*
X164679381Y-82037210D01*
X164487933Y-82116315D01*
X164341330Y-82262662D01*
X164261891Y-82453972D01*
X164261710Y-82661119D01*
X164340815Y-82852567D01*
X164487162Y-82999170D01*
X164628953Y-83058047D01*
X164487933Y-83116315D01*
X164427142Y-83177000D01*
X162161605Y-83177000D01*
X162161600Y-83176999D01*
X162015798Y-83206002D01*
X161892192Y-83288592D01*
X160766592Y-84414192D01*
X160684002Y-84537797D01*
X160684002Y-84537798D01*
X160655000Y-84683600D01*
X160655000Y-87234185D01*
X159319400Y-88569784D01*
X159234381Y-88569710D01*
X159042933Y-88648815D01*
X158896330Y-88795162D01*
X158816891Y-88986472D01*
X158816816Y-89072369D01*
X157406337Y-90482847D01*
X157249881Y-90482710D01*
X157058433Y-90561815D01*
X156911830Y-90708162D01*
X156832391Y-90899472D01*
X156832210Y-91106619D01*
X156911315Y-91298067D01*
X157057662Y-91444670D01*
X157248972Y-91524109D01*
X157456119Y-91524290D01*
X157647567Y-91445185D01*
X157794170Y-91298838D01*
X157873609Y-91107528D01*
X157873622Y-91093194D01*
X159355599Y-89611216D01*
X159440619Y-89611290D01*
X159632067Y-89532185D01*
X159778670Y-89385838D01*
X159858109Y-89194528D01*
X159858184Y-89108632D01*
X161305405Y-87661410D01*
X161305408Y-87661408D01*
X161387998Y-87537802D01*
X161398377Y-87485625D01*
X161417001Y-87392000D01*
X161417000Y-87391995D01*
X161417000Y-86677500D01*
X176199800Y-86677500D01*
X176199800Y-86868000D01*
X176205011Y-86895695D01*
X176221379Y-86921132D01*
X176246354Y-86938197D01*
X176276000Y-86944200D01*
X178244500Y-86944200D01*
X178273173Y-86938599D01*
X178298382Y-86921882D01*
X178806382Y-86413882D01*
X178822697Y-86389646D01*
X178828700Y-86360000D01*
X178828700Y-85483700D01*
X181978300Y-85483700D01*
X181978300Y-89077800D01*
X178701700Y-89077800D01*
X178701700Y-87947500D01*
X178696099Y-87918827D01*
X178679382Y-87893618D01*
X178361882Y-87576118D01*
X178337646Y-87559803D01*
X178308000Y-87553800D01*
X176339500Y-87553800D01*
X176311805Y-87559011D01*
X176286368Y-87575379D01*
X176269303Y-87600354D01*
X176263300Y-87630000D01*
X176263300Y-87820500D01*
X176268511Y-87848195D01*
X176284879Y-87873632D01*
X176309854Y-87890697D01*
X176339500Y-87896700D01*
X178085936Y-87896700D01*
X178358800Y-88169564D01*
X178358800Y-89344500D01*
X178364011Y-89372195D01*
X178380379Y-89397632D01*
X178405354Y-89414697D01*
X178435000Y-89420700D01*
X182245000Y-89420700D01*
X182272695Y-89415489D01*
X182298132Y-89399121D01*
X182315197Y-89374146D01*
X182321200Y-89344500D01*
X182321200Y-85217000D01*
X182315989Y-85189305D01*
X182299621Y-85163868D01*
X182274646Y-85146803D01*
X182245000Y-85140800D01*
X178562000Y-85140800D01*
X178534305Y-85146011D01*
X178508868Y-85162379D01*
X178491803Y-85187354D01*
X178485800Y-85217000D01*
X178485800Y-86137936D01*
X178022436Y-86601300D01*
X176276000Y-86601300D01*
X176248305Y-86606511D01*
X176222868Y-86622879D01*
X176205803Y-86647854D01*
X176199800Y-86677500D01*
X161417000Y-86677500D01*
X161417000Y-84841416D01*
X162319416Y-83939000D01*
X164427097Y-83939000D01*
X164487162Y-83999170D01*
X164678472Y-84078609D01*
X164885619Y-84078790D01*
X165077067Y-83999685D01*
X165223670Y-83853338D01*
X165303109Y-83662028D01*
X165303290Y-83454881D01*
X165224185Y-83263433D01*
X165077838Y-83116830D01*
X164936047Y-83057953D01*
X165077067Y-82999685D01*
X165137858Y-82939000D01*
X165437300Y-82939000D01*
X165583103Y-82909998D01*
X165706708Y-82827408D01*
X167698616Y-80835500D01*
X175787236Y-80835500D01*
X175079118Y-81543618D01*
X175062803Y-81567854D01*
X175056800Y-81597500D01*
X175056800Y-83756500D01*
X175062011Y-83784195D01*
X175078379Y-83809632D01*
X175103354Y-83826697D01*
X175133000Y-83832700D01*
X175323500Y-83832700D01*
X175351195Y-83827489D01*
X175376632Y-83811121D01*
X175393697Y-83786146D01*
X175399700Y-83756500D01*
X175399700Y-81819564D01*
X176117064Y-81102200D01*
X178803300Y-81102200D01*
X178803300Y-82283300D01*
X177546000Y-82283300D01*
X177517327Y-82288901D01*
X177492118Y-82305618D01*
X177006436Y-82791300D01*
X176530000Y-82791300D01*
X176501327Y-82796901D01*
X176476118Y-82813618D01*
X176158618Y-83131118D01*
X176142303Y-83155354D01*
X176136300Y-83185000D01*
X176136300Y-83756500D01*
X176141511Y-83784195D01*
X176157879Y-83809632D01*
X176182854Y-83826697D01*
X176212500Y-83832700D01*
X176403000Y-83832700D01*
X176430695Y-83827489D01*
X176456132Y-83811121D01*
X176473197Y-83786146D01*
X176479200Y-83756500D01*
X176479200Y-83407064D01*
X176752064Y-83134200D01*
X177228500Y-83134200D01*
X177257173Y-83128599D01*
X177282382Y-83111882D01*
X177768064Y-82626200D01*
X179070000Y-82626200D01*
X179097695Y-82620989D01*
X179123132Y-82604621D01*
X179140197Y-82579646D01*
X179146200Y-82550000D01*
X179146200Y-80835500D01*
X183769000Y-80835500D01*
X183914803Y-80806498D01*
X184038408Y-80723908D01*
X184925637Y-79836678D01*
X186989433Y-79836678D01*
X186989433Y-98094800D01*
X186516678Y-98094800D01*
X186516678Y-95504000D01*
X186500738Y-95419286D01*
X186450672Y-95341482D01*
X186374280Y-95289285D01*
X186283600Y-95270922D01*
X184556400Y-95270922D01*
X184471686Y-95286862D01*
X184393882Y-95336928D01*
X184341685Y-95413320D01*
X184323322Y-95504000D01*
X184323322Y-98094800D01*
X183976678Y-98094800D01*
X183976678Y-95504000D01*
X183960738Y-95419286D01*
X183910672Y-95341482D01*
X183834280Y-95289285D01*
X183743600Y-95270922D01*
X182016400Y-95270922D01*
X181931686Y-95286862D01*
X181853882Y-95336928D01*
X181801685Y-95413320D01*
X181783322Y-95504000D01*
X181783322Y-98094800D01*
X181436678Y-98094800D01*
X181436678Y-95504000D01*
X181420738Y-95419286D01*
X181370672Y-95341482D01*
X181294280Y-95289285D01*
X181203600Y-95270922D01*
X179476400Y-95270922D01*
X179391686Y-95286862D01*
X179313882Y-95336928D01*
X179261685Y-95413320D01*
X179243322Y-95504000D01*
X179243322Y-98094800D01*
X178896678Y-98094800D01*
X178896678Y-95504000D01*
X178880738Y-95419286D01*
X178830672Y-95341482D01*
X178754280Y-95289285D01*
X178663600Y-95270922D01*
X176936400Y-95270922D01*
X176851686Y-95286862D01*
X176773882Y-95336928D01*
X176721685Y-95413320D01*
X176703322Y-95504000D01*
X176703322Y-98094800D01*
X176356678Y-98094800D01*
X176356678Y-95504000D01*
X176340738Y-95419286D01*
X176290672Y-95341482D01*
X176214280Y-95289285D01*
X176123600Y-95270922D01*
X174396400Y-95270922D01*
X174311686Y-95286862D01*
X174233882Y-95336928D01*
X174181685Y-95413320D01*
X174163322Y-95504000D01*
X174163322Y-98094800D01*
X173816678Y-98094800D01*
X173816678Y-95504000D01*
X173800738Y-95419286D01*
X173750672Y-95341482D01*
X173674280Y-95289285D01*
X173583600Y-95270922D01*
X171856400Y-95270922D01*
X171771686Y-95286862D01*
X171693882Y-95336928D01*
X171641685Y-95413320D01*
X171623322Y-95504000D01*
X171623322Y-98094800D01*
X171276678Y-98094800D01*
X171276678Y-95504000D01*
X171260738Y-95419286D01*
X171210672Y-95341482D01*
X171134280Y-95289285D01*
X171043600Y-95270922D01*
X169316400Y-95270922D01*
X169231686Y-95286862D01*
X169153882Y-95336928D01*
X169101685Y-95413320D01*
X169083322Y-95504000D01*
X169083322Y-98094800D01*
X168736678Y-98094800D01*
X168736678Y-95504000D01*
X168720738Y-95419286D01*
X168670672Y-95341482D01*
X168594280Y-95289285D01*
X168503600Y-95270922D01*
X166776400Y-95270922D01*
X166691686Y-95286862D01*
X166613882Y-95336928D01*
X166561685Y-95413320D01*
X166543322Y-95504000D01*
X166543322Y-98094800D01*
X166196678Y-98094800D01*
X166196678Y-95504000D01*
X166180738Y-95419286D01*
X166130672Y-95341482D01*
X166054280Y-95289285D01*
X165963600Y-95270922D01*
X164236400Y-95270922D01*
X164151686Y-95286862D01*
X164073882Y-95336928D01*
X164021685Y-95413320D01*
X164003322Y-95504000D01*
X164003322Y-98094800D01*
X163656678Y-98094800D01*
X163656678Y-95504000D01*
X163640738Y-95419286D01*
X163590672Y-95341482D01*
X163514280Y-95289285D01*
X163423600Y-95270922D01*
X161696400Y-95270922D01*
X161611686Y-95286862D01*
X161533882Y-95336928D01*
X161481685Y-95413320D01*
X161463322Y-95504000D01*
X161463322Y-98094800D01*
X161116678Y-98094800D01*
X161116678Y-95504000D01*
X161100738Y-95419286D01*
X161050672Y-95341482D01*
X160974280Y-95289285D01*
X160883600Y-95270922D01*
X159156400Y-95270922D01*
X159071686Y-95286862D01*
X158993882Y-95336928D01*
X158941685Y-95413320D01*
X158923322Y-95504000D01*
X158923322Y-98094800D01*
X158576678Y-98094800D01*
X158576678Y-95504000D01*
X158560738Y-95419286D01*
X158510672Y-95341482D01*
X158434280Y-95289285D01*
X158343600Y-95270922D01*
X157861000Y-95270922D01*
X157861000Y-93281500D01*
X157831998Y-93135698D01*
X157831998Y-93135697D01*
X157749408Y-93012092D01*
X156384575Y-91647259D01*
X163690210Y-91647259D01*
X163769315Y-91838707D01*
X163915662Y-91985310D01*
X164106972Y-92064749D01*
X164314119Y-92064930D01*
X164505567Y-91985825D01*
X164566358Y-91925140D01*
X172158324Y-91925140D01*
X172389784Y-92156600D01*
X172389710Y-92241619D01*
X172468815Y-92433067D01*
X172615162Y-92579670D01*
X172806472Y-92659109D01*
X172892368Y-92659184D01*
X174601590Y-94368405D01*
X174601592Y-94368408D01*
X174725198Y-94450998D01*
X174871000Y-94480001D01*
X174871005Y-94480000D01*
X177571597Y-94480000D01*
X177631662Y-94540170D01*
X177822972Y-94619609D01*
X178030119Y-94619790D01*
X178221567Y-94540685D01*
X178368170Y-94394338D01*
X178447609Y-94203028D01*
X178447790Y-93995881D01*
X178368685Y-93804433D01*
X178222338Y-93657830D01*
X178031028Y-93578391D01*
X178030545Y-93578391D01*
X178200014Y-93508367D01*
X178335890Y-93372728D01*
X178409516Y-93195416D01*
X178409684Y-93003426D01*
X178336367Y-92825986D01*
X178200728Y-92690110D01*
X178023416Y-92616484D01*
X177831426Y-92616316D01*
X177653986Y-92689633D01*
X177549236Y-92794200D01*
X174767890Y-92794200D01*
X173870890Y-91897200D01*
X174498000Y-91897200D01*
X174525695Y-91891989D01*
X174551132Y-91875621D01*
X174568197Y-91850646D01*
X174574200Y-91821000D01*
X174574200Y-91694000D01*
X174568989Y-91666305D01*
X174552621Y-91640868D01*
X174527646Y-91623803D01*
X174498000Y-91617800D01*
X173591490Y-91617800D01*
X173494700Y-91521010D01*
X173494700Y-89503064D01*
X173916882Y-89080882D01*
X173933197Y-89056646D01*
X173939200Y-89027000D01*
X173939200Y-87757000D01*
X175120300Y-87757000D01*
X175120300Y-88646000D01*
X175125901Y-88674673D01*
X175142618Y-88699882D01*
X175691800Y-89249064D01*
X175691800Y-91617800D01*
X175260000Y-91617800D01*
X175232305Y-91623011D01*
X175206868Y-91639379D01*
X175189803Y-91664354D01*
X175183800Y-91694000D01*
X175183800Y-91821000D01*
X175189011Y-91848695D01*
X175205379Y-91874132D01*
X175230354Y-91891197D01*
X175260000Y-91897200D01*
X175895000Y-91897200D01*
X175922695Y-91891989D01*
X175948132Y-91875621D01*
X175965197Y-91850646D01*
X175971200Y-91821000D01*
X175971200Y-89090500D01*
X175965599Y-89061827D01*
X175948882Y-89036618D01*
X175463200Y-88550936D01*
X175463200Y-87757000D01*
X175457989Y-87729305D01*
X175441621Y-87703868D01*
X175416646Y-87686803D01*
X175387000Y-87680800D01*
X175196500Y-87680800D01*
X175168805Y-87686011D01*
X175143368Y-87702379D01*
X175126303Y-87727354D01*
X175120300Y-87757000D01*
X173939200Y-87757000D01*
X173933989Y-87729305D01*
X173917621Y-87703868D01*
X173892646Y-87686803D01*
X173863000Y-87680800D01*
X173672500Y-87680800D01*
X173644805Y-87686011D01*
X173619368Y-87702379D01*
X173602303Y-87727354D01*
X173596300Y-87757000D01*
X173596300Y-88995436D01*
X173237618Y-89354118D01*
X173221303Y-89378354D01*
X173215300Y-89408000D01*
X173215300Y-91241610D01*
X173001044Y-91027354D01*
X173001044Y-89507880D01*
X173105134Y-89403972D01*
X173178760Y-89226660D01*
X173178928Y-89034670D01*
X173105611Y-88857230D01*
X172969972Y-88721354D01*
X172792660Y-88647728D01*
X172600670Y-88647560D01*
X172423230Y-88720877D01*
X172287354Y-88856516D01*
X172213728Y-89033828D01*
X172213560Y-89225818D01*
X172286877Y-89403258D01*
X172391444Y-89508008D01*
X172391444Y-91153606D01*
X172396521Y-91179129D01*
X172316140Y-91163140D01*
X164566403Y-91163140D01*
X164506338Y-91102970D01*
X164315028Y-91023531D01*
X164107881Y-91023350D01*
X163916433Y-91102455D01*
X163769830Y-91248802D01*
X163690391Y-91440112D01*
X163690210Y-91647259D01*
X156384575Y-91647259D01*
X155717519Y-90980203D01*
X156238006Y-90459715D01*
X156238009Y-90459713D01*
X156320599Y-90336107D01*
X156339037Y-90243416D01*
X156349602Y-90190305D01*
X156349601Y-90190300D01*
X156349601Y-89129700D01*
X156349602Y-89129695D01*
X156320599Y-88983893D01*
X156274378Y-88914718D01*
X156238009Y-88860287D01*
X156238006Y-88860285D01*
X155194000Y-87816278D01*
X155194000Y-87486821D01*
X155196894Y-87485625D01*
X155387954Y-87294898D01*
X155491482Y-87045574D01*
X155491625Y-86881990D01*
X155496078Y-86860000D01*
X155496078Y-86460000D01*
X155480138Y-86375286D01*
X155470809Y-86360788D01*
X155477715Y-86350680D01*
X155496078Y-86260000D01*
X155496078Y-85860000D01*
X155491578Y-85836083D01*
X155491718Y-85675610D01*
X155490106Y-85671710D01*
X155579616Y-85582200D01*
X155981597Y-85582200D01*
X156041662Y-85642370D01*
X156232972Y-85721809D01*
X156440119Y-85721990D01*
X156631567Y-85642885D01*
X156778170Y-85496538D01*
X156857609Y-85305228D01*
X156857790Y-85098081D01*
X156778685Y-84906633D01*
X156632338Y-84760030D01*
X156441028Y-84680591D01*
X156233881Y-84680410D01*
X156042433Y-84759515D01*
X155981642Y-84820200D01*
X155421800Y-84820200D01*
X155275997Y-84849202D01*
X155152392Y-84931792D01*
X154951465Y-85132719D01*
X154948574Y-85131518D01*
X154678610Y-85131282D01*
X154429106Y-85234375D01*
X154238046Y-85425102D01*
X154134518Y-85674426D01*
X154134375Y-85838010D01*
X154129922Y-85860000D01*
X154129922Y-86260000D01*
X154145862Y-86344714D01*
X154155191Y-86359212D01*
X154148285Y-86369320D01*
X154129922Y-86460000D01*
X154129922Y-86860000D01*
X154134422Y-86883917D01*
X154134282Y-87044390D01*
X154237375Y-87293894D01*
X154428102Y-87484954D01*
X154432000Y-87486573D01*
X154432000Y-87974094D01*
X154461002Y-88119897D01*
X154543592Y-88243502D01*
X154931549Y-88631459D01*
X154660097Y-88631222D01*
X154281906Y-88787487D01*
X153992304Y-89076584D01*
X153835379Y-89454501D01*
X153835022Y-89863703D01*
X153991287Y-90241894D01*
X154231709Y-90482736D01*
X154201881Y-90482710D01*
X154010433Y-90561815D01*
X153863830Y-90708162D01*
X153784391Y-90899472D01*
X153784210Y-91106619D01*
X153863315Y-91298067D01*
X154009662Y-91444670D01*
X154200972Y-91524109D01*
X154408119Y-91524290D01*
X154599567Y-91445185D01*
X154668372Y-91376500D01*
X155036184Y-91376500D01*
X157099000Y-93439316D01*
X157099000Y-95270922D01*
X156616400Y-95270922D01*
X156531686Y-95286862D01*
X156453882Y-95336928D01*
X156401685Y-95413320D01*
X156383322Y-95504000D01*
X156383322Y-98094800D01*
X156032200Y-98094800D01*
X156032200Y-96589850D01*
X155975050Y-96532700D01*
X154952700Y-96532700D01*
X154952700Y-98094800D01*
X154927300Y-98094800D01*
X154927300Y-96532700D01*
X153904950Y-96532700D01*
X153847800Y-96589850D01*
X153847800Y-98094800D01*
X153746200Y-98094800D01*
X153746200Y-95458529D01*
X153847800Y-95458529D01*
X153847800Y-96450150D01*
X153904950Y-96507300D01*
X154927300Y-96507300D01*
X154927300Y-95332550D01*
X154952700Y-95332550D01*
X154952700Y-96507300D01*
X155975050Y-96507300D01*
X156032200Y-96450150D01*
X156032200Y-95458529D01*
X155997398Y-95374509D01*
X155933092Y-95310203D01*
X155849072Y-95275400D01*
X155009850Y-95275400D01*
X154952700Y-95332550D01*
X154927300Y-95332550D01*
X154870150Y-95275400D01*
X154030928Y-95275400D01*
X153946908Y-95310203D01*
X153882602Y-95374509D01*
X153847800Y-95458529D01*
X153746200Y-95458529D01*
X153746200Y-83263703D01*
X153835022Y-83263703D01*
X153991287Y-83641894D01*
X154280384Y-83931496D01*
X154658301Y-84088421D01*
X155067503Y-84088778D01*
X155445694Y-83932513D01*
X155735296Y-83643416D01*
X155892221Y-83265499D01*
X155892578Y-82856297D01*
X155736313Y-82478106D01*
X155447216Y-82188504D01*
X155069299Y-82031579D01*
X154660097Y-82031222D01*
X154281906Y-82187487D01*
X153992304Y-82476584D01*
X153835379Y-82854501D01*
X153835022Y-83263703D01*
X153746200Y-83263703D01*
X153746200Y-74625200D01*
X153843322Y-74625200D01*
X153843322Y-77216000D01*
M02*
