G04 #@! TF.FileFunction,Copper,L2,Bot,Signal*
%FSLAX46Y46*%
G04 Gerber Fmt 4.6, Leading zero omitted, Abs format (unit mm)*
G04 Created by KiCad (PCBNEW 4.0.1-3.201512221401+6198~38~ubuntu15.10.1-stable) date Tue Jan  5 23:14:19 2016*
%MOMM*%
G01*
G04 APERTURE LIST*
%ADD10C,0.100000*%
%ADD11C,0.150000*%
%ADD12R,2.000000X2.000000*%
%ADD13C,0.900000*%
%ADD14R,0.900000X0.400000*%
%ADD15R,1.727200X2.032000*%
%ADD16C,2.150000*%
%ADD17C,0.584200*%
%ADD18C,0.508000*%
%ADD19C,0.304800*%
%ADD20C,0.152400*%
G04 APERTURE END LIST*
D10*
D11*
X0Y0D02*
X0Y24130000D01*
X33909000Y0D02*
X0Y0D01*
X33909000Y24130000D02*
X33909000Y0D01*
X0Y24130000D02*
X33909000Y24130000D01*
D12*
X32004000Y19685000D03*
X33909000Y19685000D03*
D13*
X1397000Y11515000D03*
D14*
X1397000Y12365000D03*
X1397000Y11765000D03*
D13*
X1397000Y12615000D03*
D15*
X32004000Y0D03*
X29464000Y0D03*
X26924000Y0D03*
X24384000Y0D03*
X21844000Y0D03*
X19304000Y0D03*
X16764000Y0D03*
X14224000Y0D03*
X11684000Y0D03*
X9144000Y0D03*
X6604000Y0D03*
X4064000Y0D03*
X1524000Y0D03*
X1524000Y1905000D03*
X4064000Y1905000D03*
X6604000Y1905000D03*
X9144000Y1905000D03*
X11684000Y1905000D03*
X14224000Y1905000D03*
X16764000Y1905000D03*
X19304000Y1905000D03*
X21844000Y1905000D03*
X24384000Y1905000D03*
X26924000Y1905000D03*
X29464000Y1905000D03*
X32004000Y1905000D03*
X1524000Y24130000D03*
X4064000Y24130000D03*
X6604000Y24130000D03*
X9144000Y24130000D03*
X11684000Y24130000D03*
X14224000Y24130000D03*
X16764000Y24130000D03*
X19304000Y24130000D03*
X21844000Y24130000D03*
X24384000Y24130000D03*
X26924000Y24130000D03*
X29464000Y24130000D03*
X32004000Y24130000D03*
X32004000Y22225000D03*
X29464000Y22225000D03*
X26924000Y22225000D03*
X24384000Y22225000D03*
X21844000Y22225000D03*
X19304000Y22225000D03*
X16764000Y22225000D03*
X14224000Y22225000D03*
X11684000Y22225000D03*
X9144000Y22225000D03*
X6604000Y22225000D03*
X4064000Y22225000D03*
X1524000Y22225000D03*
D16*
X1447800Y15290000D03*
X1447800Y8840000D03*
D17*
X26035000Y4762500D03*
X23749000Y4635500D03*
X19878000Y6350000D03*
X19878000Y7874000D03*
X22672000Y16510000D03*
X29464000Y10668000D03*
X29464000Y11620500D03*
X30289500Y10668000D03*
X30289500Y11620500D03*
X3302000Y5905500D03*
X21717000Y11811000D03*
X21717000Y13536000D03*
X19992000Y13536000D03*
X19992000Y11811000D03*
D18*
X16255597Y4771510D03*
X19490888Y9211112D03*
X23180978Y8983709D03*
X23172984Y9644062D03*
D17*
X24638000Y17970500D03*
X10160000Y18392140D03*
X7493000Y14795500D03*
X8001000Y9080500D03*
X2921000Y13223800D03*
X1397000Y6794500D03*
D18*
X9042400Y3835400D03*
X19957862Y8744138D03*
X19023914Y9678086D03*
D19*
X1524000Y0D02*
X1524000Y1905000D01*
X30289500Y11620500D02*
X30289500Y10668000D01*
D20*
X11684000Y1905000D02*
X11684000Y0D01*
X16504017Y4768483D02*
X16500990Y4771510D01*
X16500990Y4771510D02*
X16255597Y4771510D01*
X18364190Y6628656D02*
X16504017Y4768483D01*
X19490888Y9211112D02*
X19236889Y8957113D01*
X19236889Y8957113D02*
X19003547Y8957113D01*
X19003547Y8957113D02*
X18364190Y8317756D01*
X18364190Y8317756D02*
X18364190Y6628656D01*
X16764000Y0D02*
X16764000Y1905000D01*
X23180978Y8983709D02*
X23180978Y5781978D01*
X23180978Y5781978D02*
X21094690Y3695690D01*
X21094690Y3695690D02*
X18402290Y3695690D01*
X18402290Y3695690D02*
X16764000Y2057400D01*
X16764000Y2057400D02*
X16764000Y1905000D01*
X19304000Y0D02*
X19304000Y1905000D01*
X23663579Y5833513D02*
X21220946Y3390880D01*
X21220946Y3390880D02*
X20637480Y3390880D01*
X20637480Y3390880D02*
X19304000Y2057400D01*
X19304000Y2057400D02*
X19304000Y1905000D01*
X23663579Y9229421D02*
X23248938Y9644062D01*
X23663579Y5833513D02*
X23663579Y9229421D01*
X23248938Y9644062D02*
X23172984Y9644062D01*
D19*
X6604000Y1905000D02*
X6604000Y0D01*
X32004000Y19685000D02*
X33909000Y19685000D01*
X24638000Y17970500D02*
X30353000Y17970500D01*
X30353000Y17970500D02*
X32004000Y19621500D01*
X32004000Y19621500D02*
X32004000Y19685000D01*
X24216360Y18392140D02*
X24638000Y17970500D01*
X10160000Y18392140D02*
X24216360Y18392140D01*
X8001000Y14224000D02*
X7493000Y14732000D01*
X7493000Y14732000D02*
X7493000Y14795500D01*
X8001000Y9080500D02*
X8001000Y14224000D01*
X2921000Y13223800D02*
X2005800Y13223800D01*
X2005800Y13223800D02*
X1397000Y12615000D01*
X4064000Y0D02*
X4064000Y1905000D01*
X4064000Y1905000D02*
X4064000Y4127500D01*
X4064000Y4127500D02*
X1397000Y6794500D01*
X2827601Y8225101D02*
X1397000Y6794500D01*
X1397000Y11515000D02*
X2827601Y10084399D01*
X2827601Y10084399D02*
X2827601Y8225101D01*
D20*
X21844000Y0D02*
X21844000Y1905000D01*
X24384000Y0D02*
X24384000Y1905000D01*
X26924000Y0D02*
X26924000Y1905000D01*
X29464000Y0D02*
X29464000Y1905000D01*
X32004000Y0D02*
X32004000Y1905000D01*
X32004000Y22225000D02*
X32004000Y24130000D01*
X14224000Y0D02*
X14224000Y1905000D01*
X9042400Y3835400D02*
X12446000Y3835400D01*
X12446000Y3835400D02*
X14224000Y2057400D01*
X14224000Y2057400D02*
X14224000Y1905000D01*
X18669000Y6502400D02*
X18669000Y8191500D01*
X14224000Y2057400D02*
X18669000Y6502400D01*
X18669000Y8191500D02*
X19050000Y8572500D01*
X19050000Y8572500D02*
X19786224Y8572500D01*
X19786224Y8572500D02*
X19957862Y8744138D01*
X29464000Y22225000D02*
X29464000Y24130000D01*
X26924000Y22225000D02*
X26924000Y24130000D01*
X24384000Y22225000D02*
X24384000Y24130000D01*
X21844000Y22225000D02*
X21844000Y24130000D01*
X19304000Y22225000D02*
X19304000Y24130000D01*
X16764000Y22225000D02*
X16764000Y24130000D01*
X14224000Y22225000D02*
X14224000Y24130000D01*
X11684000Y22225000D02*
X11684000Y24130000D01*
X9144000Y22225000D02*
X9144000Y24130000D01*
X6604000Y22225000D02*
X6604000Y24130000D01*
X4064000Y22225000D02*
X4064000Y24130000D01*
X1524000Y22225000D02*
X1524000Y24130000D01*
X9144000Y1905000D02*
X9144000Y0D01*
X9144000Y1905000D02*
X9144000Y2057400D01*
X14884400Y4343400D02*
X15795111Y5254111D01*
X15795111Y5254111D02*
X16558579Y5254111D01*
X9144000Y2057400D02*
X8559799Y2641601D01*
X8559799Y2641601D02*
X8559799Y4067049D01*
X8559799Y4067049D02*
X8836150Y4343400D01*
X8836150Y4343400D02*
X14884400Y4343400D01*
X16558579Y5254111D02*
X18059380Y6754912D01*
X18059380Y6754912D02*
X18059380Y8713552D01*
X18059380Y8713552D02*
X19023914Y9678086D01*
G36*
X427322Y21209000D02*
X443262Y21124286D01*
X493328Y21046482D01*
X569720Y20994285D01*
X660400Y20975922D01*
X2387600Y20975922D01*
X2472314Y20991862D01*
X2550118Y21041928D01*
X2602315Y21118320D01*
X2620678Y21209000D01*
X2620678Y23799800D01*
X2967322Y23799800D01*
X2967322Y21209000D01*
X2983262Y21124286D01*
X3033328Y21046482D01*
X3109720Y20994285D01*
X3200400Y20975922D01*
X4927600Y20975922D01*
X5012314Y20991862D01*
X5090118Y21041928D01*
X5142315Y21118320D01*
X5160678Y21209000D01*
X5160678Y23799800D01*
X5507322Y23799800D01*
X5507322Y21209000D01*
X5523262Y21124286D01*
X5573328Y21046482D01*
X5649720Y20994285D01*
X5740400Y20975922D01*
X7467600Y20975922D01*
X7552314Y20991862D01*
X7630118Y21041928D01*
X7682315Y21118320D01*
X7700678Y21209000D01*
X7700678Y23799800D01*
X8047322Y23799800D01*
X8047322Y21209000D01*
X8063262Y21124286D01*
X8113328Y21046482D01*
X8189720Y20994285D01*
X8280400Y20975922D01*
X10007600Y20975922D01*
X10092314Y20991862D01*
X10170118Y21041928D01*
X10222315Y21118320D01*
X10240678Y21209000D01*
X10240678Y23799800D01*
X10587322Y23799800D01*
X10587322Y21209000D01*
X10603262Y21124286D01*
X10653328Y21046482D01*
X10729720Y20994285D01*
X10820400Y20975922D01*
X12547600Y20975922D01*
X12632314Y20991862D01*
X12710118Y21041928D01*
X12762315Y21118320D01*
X12780678Y21209000D01*
X12780678Y23799800D01*
X13127322Y23799800D01*
X13127322Y21209000D01*
X13143262Y21124286D01*
X13193328Y21046482D01*
X13269720Y20994285D01*
X13360400Y20975922D01*
X15087600Y20975922D01*
X15172314Y20991862D01*
X15250118Y21041928D01*
X15302315Y21118320D01*
X15320678Y21209000D01*
X15320678Y23799800D01*
X15667322Y23799800D01*
X15667322Y21209000D01*
X15683262Y21124286D01*
X15733328Y21046482D01*
X15809720Y20994285D01*
X15900400Y20975922D01*
X17627600Y20975922D01*
X17712314Y20991862D01*
X17790118Y21041928D01*
X17842315Y21118320D01*
X17860678Y21209000D01*
X17860678Y23799800D01*
X18207322Y23799800D01*
X18207322Y21209000D01*
X18223262Y21124286D01*
X18273328Y21046482D01*
X18349720Y20994285D01*
X18440400Y20975922D01*
X20167600Y20975922D01*
X20252314Y20991862D01*
X20330118Y21041928D01*
X20382315Y21118320D01*
X20400678Y21209000D01*
X20400678Y23799800D01*
X20747322Y23799800D01*
X20747322Y21209000D01*
X20763262Y21124286D01*
X20813328Y21046482D01*
X20889720Y20994285D01*
X20980400Y20975922D01*
X22707600Y20975922D01*
X22792314Y20991862D01*
X22870118Y21041928D01*
X22922315Y21118320D01*
X22940678Y21209000D01*
X22940678Y23799800D01*
X23287322Y23799800D01*
X23287322Y21209000D01*
X23303262Y21124286D01*
X23353328Y21046482D01*
X23429720Y20994285D01*
X23520400Y20975922D01*
X25247600Y20975922D01*
X25332314Y20991862D01*
X25410118Y21041928D01*
X25462315Y21118320D01*
X25480678Y21209000D01*
X25480678Y23799800D01*
X25827322Y23799800D01*
X25827322Y21209000D01*
X25843262Y21124286D01*
X25893328Y21046482D01*
X25969720Y20994285D01*
X26060400Y20975922D01*
X27787600Y20975922D01*
X27872314Y20991862D01*
X27950118Y21041928D01*
X28002315Y21118320D01*
X28020678Y21209000D01*
X28020678Y23799800D01*
X28367322Y23799800D01*
X28367322Y21209000D01*
X28383262Y21124286D01*
X28433328Y21046482D01*
X28509720Y20994285D01*
X28600400Y20975922D01*
X30327600Y20975922D01*
X30412314Y20991862D01*
X30490118Y21041928D01*
X30542315Y21118320D01*
X30560678Y21209000D01*
X30560678Y23799800D01*
X30907322Y23799800D01*
X30907322Y21209000D01*
X30923262Y21124286D01*
X30973328Y21046482D01*
X31049720Y20994285D01*
X31140400Y20975922D01*
X32867600Y20975922D01*
X32952314Y20991862D01*
X33030118Y21041928D01*
X33082315Y21118320D01*
X33100678Y21209000D01*
X33100678Y23799800D01*
X33573433Y23799800D01*
X33573433Y20918078D01*
X31004000Y20918078D01*
X30919286Y20902138D01*
X30841482Y20852072D01*
X30789285Y20775680D01*
X30770922Y20685000D01*
X30770922Y18927238D01*
X30195184Y18351500D01*
X24993403Y18351500D01*
X24933338Y18411670D01*
X24742028Y18491109D01*
X24656132Y18491184D01*
X24485768Y18661548D01*
X24362163Y18744138D01*
X24216360Y18773140D01*
X10515403Y18773140D01*
X10455338Y18833310D01*
X10264028Y18912749D01*
X10056881Y18912930D01*
X9865433Y18833825D01*
X9718830Y18687478D01*
X9639391Y18496168D01*
X9639210Y18289021D01*
X9718315Y18097573D01*
X9864662Y17950970D01*
X10055972Y17871531D01*
X10263119Y17871350D01*
X10454567Y17950455D01*
X10515358Y18011140D01*
X24058544Y18011140D01*
X24117284Y17952400D01*
X24117210Y17867381D01*
X24196315Y17675933D01*
X24206530Y17665700D01*
X22479000Y17665700D01*
X22450327Y17660099D01*
X22425118Y17643382D01*
X21663118Y16881382D01*
X21646803Y16857146D01*
X21640800Y16827500D01*
X21640800Y14668500D01*
X21646011Y14640805D01*
X21662379Y14615368D01*
X21687354Y14598303D01*
X21717000Y14592300D01*
X21907500Y14592300D01*
X21935195Y14597511D01*
X21960632Y14613879D01*
X21977697Y14638854D01*
X21983700Y14668500D01*
X21983700Y16605436D01*
X22701064Y17322800D01*
X25387300Y17322800D01*
X25387300Y16141700D01*
X24130000Y16141700D01*
X24101327Y16136099D01*
X24076118Y16119382D01*
X23590436Y15633700D01*
X23114000Y15633700D01*
X23085327Y15628099D01*
X23060118Y15611382D01*
X22742618Y15293882D01*
X22726303Y15269646D01*
X22720300Y15240000D01*
X22720300Y14668500D01*
X22725511Y14640805D01*
X22741879Y14615368D01*
X22766854Y14598303D01*
X22796500Y14592300D01*
X22987000Y14592300D01*
X23014695Y14597511D01*
X23040132Y14613879D01*
X23057197Y14638854D01*
X23063200Y14668500D01*
X23063200Y15017936D01*
X23336064Y15290800D01*
X23812500Y15290800D01*
X23841173Y15296401D01*
X23866382Y15313118D01*
X24352064Y15798800D01*
X25654000Y15798800D01*
X25681695Y15804011D01*
X25707132Y15820379D01*
X25724197Y15845354D01*
X25730200Y15875000D01*
X25730200Y17589500D01*
X30353000Y17589500D01*
X30498803Y17618502D01*
X30622408Y17701092D01*
X31373238Y18451922D01*
X33573433Y18451922D01*
X33573433Y330200D01*
X33100678Y330200D01*
X33100678Y2921000D01*
X33084738Y3005714D01*
X33034672Y3083518D01*
X32958280Y3135715D01*
X32867600Y3154078D01*
X31140400Y3154078D01*
X31055686Y3138138D01*
X30977882Y3088072D01*
X30925685Y3011680D01*
X30907322Y2921000D01*
X30907322Y330200D01*
X30560678Y330200D01*
X30560678Y2921000D01*
X30544738Y3005714D01*
X30494672Y3083518D01*
X30418280Y3135715D01*
X30327600Y3154078D01*
X28600400Y3154078D01*
X28515686Y3138138D01*
X28437882Y3088072D01*
X28385685Y3011680D01*
X28367322Y2921000D01*
X28367322Y330200D01*
X28020678Y330200D01*
X28020678Y2921000D01*
X28004738Y3005714D01*
X27954672Y3083518D01*
X27878280Y3135715D01*
X27787600Y3154078D01*
X26060400Y3154078D01*
X25975686Y3138138D01*
X25897882Y3088072D01*
X25845685Y3011680D01*
X25827322Y2921000D01*
X25827322Y330200D01*
X25480678Y330200D01*
X25480678Y2921000D01*
X25464738Y3005714D01*
X25414672Y3083518D01*
X25338280Y3135715D01*
X25247600Y3154078D01*
X23520400Y3154078D01*
X23435686Y3138138D01*
X23357882Y3088072D01*
X23305685Y3011680D01*
X23287322Y2921000D01*
X23287322Y330200D01*
X22940678Y330200D01*
X22940678Y2921000D01*
X22924738Y3005714D01*
X22874672Y3083518D01*
X22798280Y3135715D01*
X22707600Y3154078D01*
X21404630Y3154078D01*
X21436472Y3175354D01*
X23879105Y5617987D01*
X23945177Y5716871D01*
X23968379Y5833513D01*
X23968379Y9229421D01*
X23945177Y9346063D01*
X23879105Y9444947D01*
X23655606Y9668446D01*
X23655668Y9739636D01*
X23582351Y9917076D01*
X23446712Y10052952D01*
X23269400Y10126578D01*
X23077410Y10126746D01*
X22899970Y10053429D01*
X22764094Y9917790D01*
X22690468Y9740478D01*
X22690300Y9548488D01*
X22763617Y9371048D01*
X22824651Y9309908D01*
X22772088Y9257437D01*
X22740324Y9180940D01*
X22047200Y9874064D01*
X22047200Y10668000D01*
X22041989Y10695695D01*
X22025621Y10721132D01*
X22000646Y10738197D01*
X21971000Y10744200D01*
X21780500Y10744200D01*
X21752805Y10738989D01*
X21727368Y10722621D01*
X21710303Y10697646D01*
X21704300Y10668000D01*
X21704300Y9652000D01*
X21709901Y9623327D01*
X21726618Y9598118D01*
X22593300Y8731436D01*
X22593300Y6045200D01*
X19316700Y6045200D01*
X19316700Y8178800D01*
X20447000Y8178800D01*
X20474695Y8184011D01*
X20500132Y8200379D01*
X20517197Y8225354D01*
X20523200Y8255000D01*
X20523200Y10668000D01*
X20517989Y10695695D01*
X20501621Y10721132D01*
X20476646Y10738197D01*
X20447000Y10744200D01*
X20256500Y10744200D01*
X20228805Y10738989D01*
X20203368Y10722621D01*
X20186303Y10697646D01*
X20180300Y10668000D01*
X20180300Y9174325D01*
X20054278Y9226654D01*
X19973502Y9226725D01*
X19973572Y9306686D01*
X19900255Y9484126D01*
X19764616Y9620002D01*
X19587304Y9693628D01*
X19506528Y9693699D01*
X19506598Y9773660D01*
X19433281Y9951100D01*
X19297642Y10086976D01*
X19120330Y10160602D01*
X18928340Y10160770D01*
X18750900Y10087453D01*
X18615024Y9951814D01*
X18541398Y9774502D01*
X18541268Y9626492D01*
X17843854Y8929078D01*
X17777782Y8830194D01*
X17754580Y8713552D01*
X17754580Y6881164D01*
X16432327Y5558911D01*
X15795111Y5558911D01*
X15678469Y5535709D01*
X15590871Y5477178D01*
X15579585Y5469637D01*
X14758148Y4648200D01*
X8836150Y4648200D01*
X8719508Y4624998D01*
X8620624Y4558926D01*
X8344273Y4282575D01*
X8278201Y4183691D01*
X8254999Y4067049D01*
X8254999Y3149298D01*
X8195686Y3138138D01*
X8117882Y3088072D01*
X8065685Y3011680D01*
X8047322Y2921000D01*
X8047322Y330200D01*
X7700678Y330200D01*
X7700678Y2921000D01*
X7684738Y3005714D01*
X7634672Y3083518D01*
X7558280Y3135715D01*
X7467600Y3154078D01*
X5740400Y3154078D01*
X5655686Y3138138D01*
X5577882Y3088072D01*
X5525685Y3011680D01*
X5507322Y2921000D01*
X5507322Y330200D01*
X5160678Y330200D01*
X5160678Y2921000D01*
X5144738Y3005714D01*
X5094672Y3083518D01*
X5018280Y3135715D01*
X4927600Y3154078D01*
X4445000Y3154078D01*
X4445000Y4127495D01*
X4445001Y4127500D01*
X4415998Y4273302D01*
X4386076Y4318084D01*
X4333408Y4396908D01*
X4333405Y4396910D01*
X1935816Y6794500D01*
X3097006Y7955691D01*
X3097009Y7955693D01*
X3146518Y8029789D01*
X3179599Y8079298D01*
X3208601Y8225101D01*
X3208601Y10084399D01*
X3179599Y10230201D01*
X3179599Y10230202D01*
X3146518Y10279711D01*
X3097009Y10353807D01*
X3097006Y10353809D01*
X2074281Y11376534D01*
X2075482Y11379426D01*
X2075625Y11543010D01*
X2080078Y11565000D01*
X2080078Y11965000D01*
X2064138Y12049714D01*
X2054809Y12064212D01*
X2061715Y12074320D01*
X2080078Y12165000D01*
X2080078Y12565000D01*
X2075578Y12588917D01*
X2075718Y12749390D01*
X2074106Y12753290D01*
X2163616Y12842800D01*
X2565597Y12842800D01*
X2625662Y12782630D01*
X2816972Y12703191D01*
X3024119Y12703010D01*
X3215567Y12782115D01*
X3362170Y12928462D01*
X3441609Y13119772D01*
X3441790Y13326919D01*
X3362685Y13518367D01*
X3216338Y13664970D01*
X3025028Y13744409D01*
X2817881Y13744590D01*
X2626433Y13665485D01*
X2565642Y13604800D01*
X2005800Y13604800D01*
X1859997Y13575798D01*
X1736392Y13493208D01*
X1535465Y13292281D01*
X1532574Y13293482D01*
X1262610Y13293718D01*
X1013106Y13190625D01*
X822046Y12999898D01*
X718518Y12750574D01*
X718375Y12586990D01*
X713922Y12565000D01*
X713922Y12165000D01*
X729862Y12080286D01*
X739191Y12065788D01*
X732285Y12055680D01*
X713922Y11965000D01*
X713922Y11565000D01*
X718422Y11541083D01*
X718282Y11380610D01*
X821375Y11131106D01*
X1012102Y10940046D01*
X1261426Y10836518D01*
X1531390Y10836282D01*
X1535291Y10837894D01*
X2446601Y9926584D01*
X2446601Y9684634D01*
X2187194Y9944494D01*
X1708240Y10143373D01*
X1189636Y10143826D01*
X710335Y9945783D01*
X343306Y9579394D01*
X330200Y9547831D01*
X330200Y14581134D01*
X342017Y14552535D01*
X708406Y14185506D01*
X1187360Y13986627D01*
X1705964Y13986174D01*
X2185265Y14184217D01*
X2552294Y14550606D01*
X2611164Y14692381D01*
X6972210Y14692381D01*
X7051315Y14500933D01*
X7197662Y14354330D01*
X7388972Y14274891D01*
X7411313Y14274871D01*
X7620000Y14066185D01*
X7620000Y9435903D01*
X7559830Y9375838D01*
X7480391Y9184528D01*
X7480210Y8977381D01*
X7559315Y8785933D01*
X7705662Y8639330D01*
X7896972Y8559891D01*
X8104119Y8559710D01*
X8295567Y8638815D01*
X8442170Y8785162D01*
X8521609Y8976472D01*
X8521790Y9183619D01*
X8442685Y9375067D01*
X8382000Y9435858D01*
X8382000Y11747500D01*
X22783800Y11747500D01*
X22783800Y11557000D01*
X22789011Y11529305D01*
X22805379Y11503868D01*
X22830354Y11486803D01*
X22860000Y11480800D01*
X24828500Y11480800D01*
X24857173Y11486401D01*
X24882382Y11503118D01*
X25390382Y12011118D01*
X25406697Y12035354D01*
X25412700Y12065000D01*
X25412700Y12941300D01*
X30702436Y12941300D01*
X30911800Y12731936D01*
X30911800Y9556564D01*
X30702436Y9347200D01*
X25285700Y9347200D01*
X25285700Y10477500D01*
X25280099Y10506173D01*
X25263382Y10531382D01*
X24945882Y10848882D01*
X24921646Y10865197D01*
X24892000Y10871200D01*
X22923500Y10871200D01*
X22895805Y10865989D01*
X22870368Y10849621D01*
X22853303Y10824646D01*
X22847300Y10795000D01*
X22847300Y10604500D01*
X22852511Y10576805D01*
X22868879Y10551368D01*
X22893854Y10534303D01*
X22923500Y10528300D01*
X24669936Y10528300D01*
X24942800Y10255436D01*
X24942800Y9080500D01*
X24948011Y9052805D01*
X24964379Y9027368D01*
X24989354Y9010303D01*
X25019000Y9004300D01*
X30924500Y9004300D01*
X30953173Y9009901D01*
X30978382Y9026618D01*
X31232382Y9280618D01*
X31248697Y9304854D01*
X31254700Y9334500D01*
X31254700Y12954000D01*
X31249099Y12982673D01*
X31232382Y13007882D01*
X30978382Y13261882D01*
X30954146Y13278197D01*
X30924500Y13284200D01*
X25146000Y13284200D01*
X25118305Y13278989D01*
X25092868Y13262621D01*
X25075803Y13237646D01*
X25069800Y13208000D01*
X25069800Y12287064D01*
X24606436Y11823700D01*
X22860000Y11823700D01*
X22832305Y11818489D01*
X22806868Y11802121D01*
X22789803Y11777146D01*
X22783800Y11747500D01*
X8382000Y11747500D01*
X8382000Y14224000D01*
X8352998Y14369802D01*
X8270408Y14493408D01*
X8270405Y14493410D01*
X8013660Y14750155D01*
X8013790Y14898619D01*
X7934685Y15090067D01*
X7788338Y15236670D01*
X7597028Y15316109D01*
X7389881Y15316290D01*
X7198433Y15237185D01*
X7051830Y15090838D01*
X6972391Y14899528D01*
X6972210Y14692381D01*
X2611164Y14692381D01*
X2751173Y15029560D01*
X2751626Y15548164D01*
X2553583Y16027465D01*
X2187194Y16394494D01*
X1708240Y16593373D01*
X1189636Y16593826D01*
X710335Y16395783D01*
X343306Y16029394D01*
X330200Y15997831D01*
X330200Y23799800D01*
X427322Y23799800D01*
X427322Y21209000D01*
X427322Y21209000D01*
G37*
X427322Y21209000D02*
X443262Y21124286D01*
X493328Y21046482D01*
X569720Y20994285D01*
X660400Y20975922D01*
X2387600Y20975922D01*
X2472314Y20991862D01*
X2550118Y21041928D01*
X2602315Y21118320D01*
X2620678Y21209000D01*
X2620678Y23799800D01*
X2967322Y23799800D01*
X2967322Y21209000D01*
X2983262Y21124286D01*
X3033328Y21046482D01*
X3109720Y20994285D01*
X3200400Y20975922D01*
X4927600Y20975922D01*
X5012314Y20991862D01*
X5090118Y21041928D01*
X5142315Y21118320D01*
X5160678Y21209000D01*
X5160678Y23799800D01*
X5507322Y23799800D01*
X5507322Y21209000D01*
X5523262Y21124286D01*
X5573328Y21046482D01*
X5649720Y20994285D01*
X5740400Y20975922D01*
X7467600Y20975922D01*
X7552314Y20991862D01*
X7630118Y21041928D01*
X7682315Y21118320D01*
X7700678Y21209000D01*
X7700678Y23799800D01*
X8047322Y23799800D01*
X8047322Y21209000D01*
X8063262Y21124286D01*
X8113328Y21046482D01*
X8189720Y20994285D01*
X8280400Y20975922D01*
X10007600Y20975922D01*
X10092314Y20991862D01*
X10170118Y21041928D01*
X10222315Y21118320D01*
X10240678Y21209000D01*
X10240678Y23799800D01*
X10587322Y23799800D01*
X10587322Y21209000D01*
X10603262Y21124286D01*
X10653328Y21046482D01*
X10729720Y20994285D01*
X10820400Y20975922D01*
X12547600Y20975922D01*
X12632314Y20991862D01*
X12710118Y21041928D01*
X12762315Y21118320D01*
X12780678Y21209000D01*
X12780678Y23799800D01*
X13127322Y23799800D01*
X13127322Y21209000D01*
X13143262Y21124286D01*
X13193328Y21046482D01*
X13269720Y20994285D01*
X13360400Y20975922D01*
X15087600Y20975922D01*
X15172314Y20991862D01*
X15250118Y21041928D01*
X15302315Y21118320D01*
X15320678Y21209000D01*
X15320678Y23799800D01*
X15667322Y23799800D01*
X15667322Y21209000D01*
X15683262Y21124286D01*
X15733328Y21046482D01*
X15809720Y20994285D01*
X15900400Y20975922D01*
X17627600Y20975922D01*
X17712314Y20991862D01*
X17790118Y21041928D01*
X17842315Y21118320D01*
X17860678Y21209000D01*
X17860678Y23799800D01*
X18207322Y23799800D01*
X18207322Y21209000D01*
X18223262Y21124286D01*
X18273328Y21046482D01*
X18349720Y20994285D01*
X18440400Y20975922D01*
X20167600Y20975922D01*
X20252314Y20991862D01*
X20330118Y21041928D01*
X20382315Y21118320D01*
X20400678Y21209000D01*
X20400678Y23799800D01*
X20747322Y23799800D01*
X20747322Y21209000D01*
X20763262Y21124286D01*
X20813328Y21046482D01*
X20889720Y20994285D01*
X20980400Y20975922D01*
X22707600Y20975922D01*
X22792314Y20991862D01*
X22870118Y21041928D01*
X22922315Y21118320D01*
X22940678Y21209000D01*
X22940678Y23799800D01*
X23287322Y23799800D01*
X23287322Y21209000D01*
X23303262Y21124286D01*
X23353328Y21046482D01*
X23429720Y20994285D01*
X23520400Y20975922D01*
X25247600Y20975922D01*
X25332314Y20991862D01*
X25410118Y21041928D01*
X25462315Y21118320D01*
X25480678Y21209000D01*
X25480678Y23799800D01*
X25827322Y23799800D01*
X25827322Y21209000D01*
X25843262Y21124286D01*
X25893328Y21046482D01*
X25969720Y20994285D01*
X26060400Y20975922D01*
X27787600Y20975922D01*
X27872314Y20991862D01*
X27950118Y21041928D01*
X28002315Y21118320D01*
X28020678Y21209000D01*
X28020678Y23799800D01*
X28367322Y23799800D01*
X28367322Y21209000D01*
X28383262Y21124286D01*
X28433328Y21046482D01*
X28509720Y20994285D01*
X28600400Y20975922D01*
X30327600Y20975922D01*
X30412314Y20991862D01*
X30490118Y21041928D01*
X30542315Y21118320D01*
X30560678Y21209000D01*
X30560678Y23799800D01*
X30907322Y23799800D01*
X30907322Y21209000D01*
X30923262Y21124286D01*
X30973328Y21046482D01*
X31049720Y20994285D01*
X31140400Y20975922D01*
X32867600Y20975922D01*
X32952314Y20991862D01*
X33030118Y21041928D01*
X33082315Y21118320D01*
X33100678Y21209000D01*
X33100678Y23799800D01*
X33573433Y23799800D01*
X33573433Y20918078D01*
X31004000Y20918078D01*
X30919286Y20902138D01*
X30841482Y20852072D01*
X30789285Y20775680D01*
X30770922Y20685000D01*
X30770922Y18927238D01*
X30195184Y18351500D01*
X24993403Y18351500D01*
X24933338Y18411670D01*
X24742028Y18491109D01*
X24656132Y18491184D01*
X24485768Y18661548D01*
X24362163Y18744138D01*
X24216360Y18773140D01*
X10515403Y18773140D01*
X10455338Y18833310D01*
X10264028Y18912749D01*
X10056881Y18912930D01*
X9865433Y18833825D01*
X9718830Y18687478D01*
X9639391Y18496168D01*
X9639210Y18289021D01*
X9718315Y18097573D01*
X9864662Y17950970D01*
X10055972Y17871531D01*
X10263119Y17871350D01*
X10454567Y17950455D01*
X10515358Y18011140D01*
X24058544Y18011140D01*
X24117284Y17952400D01*
X24117210Y17867381D01*
X24196315Y17675933D01*
X24206530Y17665700D01*
X22479000Y17665700D01*
X22450327Y17660099D01*
X22425118Y17643382D01*
X21663118Y16881382D01*
X21646803Y16857146D01*
X21640800Y16827500D01*
X21640800Y14668500D01*
X21646011Y14640805D01*
X21662379Y14615368D01*
X21687354Y14598303D01*
X21717000Y14592300D01*
X21907500Y14592300D01*
X21935195Y14597511D01*
X21960632Y14613879D01*
X21977697Y14638854D01*
X21983700Y14668500D01*
X21983700Y16605436D01*
X22701064Y17322800D01*
X25387300Y17322800D01*
X25387300Y16141700D01*
X24130000Y16141700D01*
X24101327Y16136099D01*
X24076118Y16119382D01*
X23590436Y15633700D01*
X23114000Y15633700D01*
X23085327Y15628099D01*
X23060118Y15611382D01*
X22742618Y15293882D01*
X22726303Y15269646D01*
X22720300Y15240000D01*
X22720300Y14668500D01*
X22725511Y14640805D01*
X22741879Y14615368D01*
X22766854Y14598303D01*
X22796500Y14592300D01*
X22987000Y14592300D01*
X23014695Y14597511D01*
X23040132Y14613879D01*
X23057197Y14638854D01*
X23063200Y14668500D01*
X23063200Y15017936D01*
X23336064Y15290800D01*
X23812500Y15290800D01*
X23841173Y15296401D01*
X23866382Y15313118D01*
X24352064Y15798800D01*
X25654000Y15798800D01*
X25681695Y15804011D01*
X25707132Y15820379D01*
X25724197Y15845354D01*
X25730200Y15875000D01*
X25730200Y17589500D01*
X30353000Y17589500D01*
X30498803Y17618502D01*
X30622408Y17701092D01*
X31373238Y18451922D01*
X33573433Y18451922D01*
X33573433Y330200D01*
X33100678Y330200D01*
X33100678Y2921000D01*
X33084738Y3005714D01*
X33034672Y3083518D01*
X32958280Y3135715D01*
X32867600Y3154078D01*
X31140400Y3154078D01*
X31055686Y3138138D01*
X30977882Y3088072D01*
X30925685Y3011680D01*
X30907322Y2921000D01*
X30907322Y330200D01*
X30560678Y330200D01*
X30560678Y2921000D01*
X30544738Y3005714D01*
X30494672Y3083518D01*
X30418280Y3135715D01*
X30327600Y3154078D01*
X28600400Y3154078D01*
X28515686Y3138138D01*
X28437882Y3088072D01*
X28385685Y3011680D01*
X28367322Y2921000D01*
X28367322Y330200D01*
X28020678Y330200D01*
X28020678Y2921000D01*
X28004738Y3005714D01*
X27954672Y3083518D01*
X27878280Y3135715D01*
X27787600Y3154078D01*
X26060400Y3154078D01*
X25975686Y3138138D01*
X25897882Y3088072D01*
X25845685Y3011680D01*
X25827322Y2921000D01*
X25827322Y330200D01*
X25480678Y330200D01*
X25480678Y2921000D01*
X25464738Y3005714D01*
X25414672Y3083518D01*
X25338280Y3135715D01*
X25247600Y3154078D01*
X23520400Y3154078D01*
X23435686Y3138138D01*
X23357882Y3088072D01*
X23305685Y3011680D01*
X23287322Y2921000D01*
X23287322Y330200D01*
X22940678Y330200D01*
X22940678Y2921000D01*
X22924738Y3005714D01*
X22874672Y3083518D01*
X22798280Y3135715D01*
X22707600Y3154078D01*
X21404630Y3154078D01*
X21436472Y3175354D01*
X23879105Y5617987D01*
X23945177Y5716871D01*
X23968379Y5833513D01*
X23968379Y9229421D01*
X23945177Y9346063D01*
X23879105Y9444947D01*
X23655606Y9668446D01*
X23655668Y9739636D01*
X23582351Y9917076D01*
X23446712Y10052952D01*
X23269400Y10126578D01*
X23077410Y10126746D01*
X22899970Y10053429D01*
X22764094Y9917790D01*
X22690468Y9740478D01*
X22690300Y9548488D01*
X22763617Y9371048D01*
X22824651Y9309908D01*
X22772088Y9257437D01*
X22740324Y9180940D01*
X22047200Y9874064D01*
X22047200Y10668000D01*
X22041989Y10695695D01*
X22025621Y10721132D01*
X22000646Y10738197D01*
X21971000Y10744200D01*
X21780500Y10744200D01*
X21752805Y10738989D01*
X21727368Y10722621D01*
X21710303Y10697646D01*
X21704300Y10668000D01*
X21704300Y9652000D01*
X21709901Y9623327D01*
X21726618Y9598118D01*
X22593300Y8731436D01*
X22593300Y6045200D01*
X19316700Y6045200D01*
X19316700Y8178800D01*
X20447000Y8178800D01*
X20474695Y8184011D01*
X20500132Y8200379D01*
X20517197Y8225354D01*
X20523200Y8255000D01*
X20523200Y10668000D01*
X20517989Y10695695D01*
X20501621Y10721132D01*
X20476646Y10738197D01*
X20447000Y10744200D01*
X20256500Y10744200D01*
X20228805Y10738989D01*
X20203368Y10722621D01*
X20186303Y10697646D01*
X20180300Y10668000D01*
X20180300Y9174325D01*
X20054278Y9226654D01*
X19973502Y9226725D01*
X19973572Y9306686D01*
X19900255Y9484126D01*
X19764616Y9620002D01*
X19587304Y9693628D01*
X19506528Y9693699D01*
X19506598Y9773660D01*
X19433281Y9951100D01*
X19297642Y10086976D01*
X19120330Y10160602D01*
X18928340Y10160770D01*
X18750900Y10087453D01*
X18615024Y9951814D01*
X18541398Y9774502D01*
X18541268Y9626492D01*
X17843854Y8929078D01*
X17777782Y8830194D01*
X17754580Y8713552D01*
X17754580Y6881164D01*
X16432327Y5558911D01*
X15795111Y5558911D01*
X15678469Y5535709D01*
X15590871Y5477178D01*
X15579585Y5469637D01*
X14758148Y4648200D01*
X8836150Y4648200D01*
X8719508Y4624998D01*
X8620624Y4558926D01*
X8344273Y4282575D01*
X8278201Y4183691D01*
X8254999Y4067049D01*
X8254999Y3149298D01*
X8195686Y3138138D01*
X8117882Y3088072D01*
X8065685Y3011680D01*
X8047322Y2921000D01*
X8047322Y330200D01*
X7700678Y330200D01*
X7700678Y2921000D01*
X7684738Y3005714D01*
X7634672Y3083518D01*
X7558280Y3135715D01*
X7467600Y3154078D01*
X5740400Y3154078D01*
X5655686Y3138138D01*
X5577882Y3088072D01*
X5525685Y3011680D01*
X5507322Y2921000D01*
X5507322Y330200D01*
X5160678Y330200D01*
X5160678Y2921000D01*
X5144738Y3005714D01*
X5094672Y3083518D01*
X5018280Y3135715D01*
X4927600Y3154078D01*
X4445000Y3154078D01*
X4445000Y4127495D01*
X4445001Y4127500D01*
X4415998Y4273302D01*
X4386076Y4318084D01*
X4333408Y4396908D01*
X4333405Y4396910D01*
X1935816Y6794500D01*
X3097006Y7955691D01*
X3097009Y7955693D01*
X3146518Y8029789D01*
X3179599Y8079298D01*
X3208601Y8225101D01*
X3208601Y10084399D01*
X3179599Y10230201D01*
X3179599Y10230202D01*
X3146518Y10279711D01*
X3097009Y10353807D01*
X3097006Y10353809D01*
X2074281Y11376534D01*
X2075482Y11379426D01*
X2075625Y11543010D01*
X2080078Y11565000D01*
X2080078Y11965000D01*
X2064138Y12049714D01*
X2054809Y12064212D01*
X2061715Y12074320D01*
X2080078Y12165000D01*
X2080078Y12565000D01*
X2075578Y12588917D01*
X2075718Y12749390D01*
X2074106Y12753290D01*
X2163616Y12842800D01*
X2565597Y12842800D01*
X2625662Y12782630D01*
X2816972Y12703191D01*
X3024119Y12703010D01*
X3215567Y12782115D01*
X3362170Y12928462D01*
X3441609Y13119772D01*
X3441790Y13326919D01*
X3362685Y13518367D01*
X3216338Y13664970D01*
X3025028Y13744409D01*
X2817881Y13744590D01*
X2626433Y13665485D01*
X2565642Y13604800D01*
X2005800Y13604800D01*
X1859997Y13575798D01*
X1736392Y13493208D01*
X1535465Y13292281D01*
X1532574Y13293482D01*
X1262610Y13293718D01*
X1013106Y13190625D01*
X822046Y12999898D01*
X718518Y12750574D01*
X718375Y12586990D01*
X713922Y12565000D01*
X713922Y12165000D01*
X729862Y12080286D01*
X739191Y12065788D01*
X732285Y12055680D01*
X713922Y11965000D01*
X713922Y11565000D01*
X718422Y11541083D01*
X718282Y11380610D01*
X821375Y11131106D01*
X1012102Y10940046D01*
X1261426Y10836518D01*
X1531390Y10836282D01*
X1535291Y10837894D01*
X2446601Y9926584D01*
X2446601Y9684634D01*
X2187194Y9944494D01*
X1708240Y10143373D01*
X1189636Y10143826D01*
X710335Y9945783D01*
X343306Y9579394D01*
X330200Y9547831D01*
X330200Y14581134D01*
X342017Y14552535D01*
X708406Y14185506D01*
X1187360Y13986627D01*
X1705964Y13986174D01*
X2185265Y14184217D01*
X2552294Y14550606D01*
X2611164Y14692381D01*
X6972210Y14692381D01*
X7051315Y14500933D01*
X7197662Y14354330D01*
X7388972Y14274891D01*
X7411313Y14274871D01*
X7620000Y14066185D01*
X7620000Y9435903D01*
X7559830Y9375838D01*
X7480391Y9184528D01*
X7480210Y8977381D01*
X7559315Y8785933D01*
X7705662Y8639330D01*
X7896972Y8559891D01*
X8104119Y8559710D01*
X8295567Y8638815D01*
X8442170Y8785162D01*
X8521609Y8976472D01*
X8521790Y9183619D01*
X8442685Y9375067D01*
X8382000Y9435858D01*
X8382000Y11747500D01*
X22783800Y11747500D01*
X22783800Y11557000D01*
X22789011Y11529305D01*
X22805379Y11503868D01*
X22830354Y11486803D01*
X22860000Y11480800D01*
X24828500Y11480800D01*
X24857173Y11486401D01*
X24882382Y11503118D01*
X25390382Y12011118D01*
X25406697Y12035354D01*
X25412700Y12065000D01*
X25412700Y12941300D01*
X30702436Y12941300D01*
X30911800Y12731936D01*
X30911800Y9556564D01*
X30702436Y9347200D01*
X25285700Y9347200D01*
X25285700Y10477500D01*
X25280099Y10506173D01*
X25263382Y10531382D01*
X24945882Y10848882D01*
X24921646Y10865197D01*
X24892000Y10871200D01*
X22923500Y10871200D01*
X22895805Y10865989D01*
X22870368Y10849621D01*
X22853303Y10824646D01*
X22847300Y10795000D01*
X22847300Y10604500D01*
X22852511Y10576805D01*
X22868879Y10551368D01*
X22893854Y10534303D01*
X22923500Y10528300D01*
X24669936Y10528300D01*
X24942800Y10255436D01*
X24942800Y9080500D01*
X24948011Y9052805D01*
X24964379Y9027368D01*
X24989354Y9010303D01*
X25019000Y9004300D01*
X30924500Y9004300D01*
X30953173Y9009901D01*
X30978382Y9026618D01*
X31232382Y9280618D01*
X31248697Y9304854D01*
X31254700Y9334500D01*
X31254700Y12954000D01*
X31249099Y12982673D01*
X31232382Y13007882D01*
X30978382Y13261882D01*
X30954146Y13278197D01*
X30924500Y13284200D01*
X25146000Y13284200D01*
X25118305Y13278989D01*
X25092868Y13262621D01*
X25075803Y13237646D01*
X25069800Y13208000D01*
X25069800Y12287064D01*
X24606436Y11823700D01*
X22860000Y11823700D01*
X22832305Y11818489D01*
X22806868Y11802121D01*
X22789803Y11777146D01*
X22783800Y11747500D01*
X8382000Y11747500D01*
X8382000Y14224000D01*
X8352998Y14369802D01*
X8270408Y14493408D01*
X8270405Y14493410D01*
X8013660Y14750155D01*
X8013790Y14898619D01*
X7934685Y15090067D01*
X7788338Y15236670D01*
X7597028Y15316109D01*
X7389881Y15316290D01*
X7198433Y15237185D01*
X7051830Y15090838D01*
X6972391Y14899528D01*
X6972210Y14692381D01*
X2611164Y14692381D01*
X2751173Y15029560D01*
X2751626Y15548164D01*
X2553583Y16027465D01*
X2187194Y16394494D01*
X1708240Y16593373D01*
X1189636Y16593826D01*
X710335Y16395783D01*
X343306Y16029394D01*
X330200Y15997831D01*
X330200Y23799800D01*
X427322Y23799800D01*
X427322Y21209000D01*
G36*
X342017Y8102535D02*
X708406Y7735506D01*
X1187360Y7536627D01*
X1599951Y7536267D01*
X1378900Y7315216D01*
X1293881Y7315290D01*
X1102433Y7236185D01*
X955830Y7089838D01*
X876391Y6898528D01*
X876210Y6691381D01*
X955315Y6499933D01*
X1101662Y6353330D01*
X1292972Y6273891D01*
X1378868Y6273816D01*
X3683000Y3969685D01*
X3683000Y3154078D01*
X3200400Y3154078D01*
X3115686Y3138138D01*
X3037882Y3088072D01*
X2985685Y3011680D01*
X2967322Y2921000D01*
X2967322Y330200D01*
X2616200Y330200D01*
X2616200Y1835150D01*
X2559050Y1892300D01*
X1536700Y1892300D01*
X1536700Y330200D01*
X1511300Y330200D01*
X1511300Y1892300D01*
X488950Y1892300D01*
X431800Y1835150D01*
X431800Y330200D01*
X330200Y330200D01*
X330200Y2966471D01*
X431800Y2966471D01*
X431800Y1974850D01*
X488950Y1917700D01*
X1511300Y1917700D01*
X1511300Y3092450D01*
X1536700Y3092450D01*
X1536700Y1917700D01*
X2559050Y1917700D01*
X2616200Y1974850D01*
X2616200Y2966471D01*
X2581398Y3050491D01*
X2517092Y3114797D01*
X2433072Y3149600D01*
X1593850Y3149600D01*
X1536700Y3092450D01*
X1511300Y3092450D01*
X1454150Y3149600D01*
X614928Y3149600D01*
X530908Y3114797D01*
X466602Y3050491D01*
X431800Y2966471D01*
X330200Y2966471D01*
X330200Y8131134D01*
X342017Y8102535D01*
X342017Y8102535D01*
G37*
X342017Y8102535D02*
X708406Y7735506D01*
X1187360Y7536627D01*
X1599951Y7536267D01*
X1378900Y7315216D01*
X1293881Y7315290D01*
X1102433Y7236185D01*
X955830Y7089838D01*
X876391Y6898528D01*
X876210Y6691381D01*
X955315Y6499933D01*
X1101662Y6353330D01*
X1292972Y6273891D01*
X1378868Y6273816D01*
X3683000Y3969685D01*
X3683000Y3154078D01*
X3200400Y3154078D01*
X3115686Y3138138D01*
X3037882Y3088072D01*
X2985685Y3011680D01*
X2967322Y2921000D01*
X2967322Y330200D01*
X2616200Y330200D01*
X2616200Y1835150D01*
X2559050Y1892300D01*
X1536700Y1892300D01*
X1536700Y330200D01*
X1511300Y330200D01*
X1511300Y1892300D01*
X488950Y1892300D01*
X431800Y1835150D01*
X431800Y330200D01*
X330200Y330200D01*
X330200Y2966471D01*
X431800Y2966471D01*
X431800Y1974850D01*
X488950Y1917700D01*
X1511300Y1917700D01*
X1511300Y3092450D01*
X1536700Y3092450D01*
X1536700Y1917700D01*
X2559050Y1917700D01*
X2616200Y1974850D01*
X2616200Y2966471D01*
X2581398Y3050491D01*
X2517092Y3114797D01*
X2433072Y3149600D01*
X1593850Y3149600D01*
X1536700Y3092450D01*
X1511300Y3092450D01*
X1454150Y3149600D01*
X614928Y3149600D01*
X530908Y3114797D01*
X466602Y3050491D01*
X431800Y2966471D01*
X330200Y2966471D01*
X330200Y8131134D01*
X342017Y8102535D01*
M02*
