M48
INCH,TZ
T1C0.013
T2C0.039
T3C0.040
T4C0.061
%
G90
G05
T1
X000550Y002675
X001150Y005206
X001300Y002325
X002950Y005825
X003150Y003575
X003560Y001510
X004000Y007241
X006400Y001879
X007490Y003810
X007674Y003626
X007826Y003100
X007826Y002500
X007857Y003443
X007871Y005329
X007871Y004650
X008550Y005329
X008550Y004650
X008926Y006500
X009123Y003797
X009126Y003537
X009350Y001825
X009700Y007075
X010250Y001875
X011600Y004575
X011600Y004200
X011925Y004575
X011925Y004200
T2
X012600Y007750
X013350Y007750
T3
X000600Y009500
X000600Y008750
X000600Y000750
X000600Y000000
X001600Y009500
X001600Y008750
X001600Y000750
X001600Y000000
X002600Y009500
X002600Y008750
X002600Y000750
X002600Y000000
X003600Y009500
X003600Y008750
X003600Y000750
X003600Y000000
X004600Y009500
X004600Y008750
X004600Y000750
X004600Y000000
X005600Y009500
X005600Y008750
X005600Y000750
X005600Y000000
X006600Y009500
X006600Y008750
X006600Y000750
X006600Y000000
X007600Y009500
X007600Y008750
X007600Y000750
X007600Y000000
X008600Y009500
X008600Y008750
X008600Y000750
X008600Y000000
X009600Y009500
X009600Y008750
X009600Y000750
X009600Y000000
X010600Y009500
X010600Y008750
X010600Y000750
X010600Y000000
X011600Y009500
X011600Y008750
X011600Y000750
X011600Y000000
X012600Y009500
X012600Y008750
X012600Y000750
X012600Y000000
T4
X000570Y006020
X000570Y003480
T0
M30
