G04 #@! TF.FileFunction,Soldermask,Top*
%FSLAX46Y46*%
G04 Gerber Fmt 4.6, Leading zero omitted, Abs format (unit mm)*
G04 Created by KiCad (PCBNEW 4.0.1-3.201512221401+6198~38~ubuntu15.10.1-stable) date Tue Jan  5 23:14:19 2016*
%MOMM*%
G01*
G04 APERTURE LIST*
%ADD10C,0.100000*%
%ADD11C,0.150000*%
%ADD12R,2.152400X2.152400*%
%ADD13R,1.752600X2.352040*%
%ADD14R,1.402400X0.752400*%
%ADD15R,1.052400X1.352400*%
%ADD16C,2.500000*%
%ADD17R,0.852400X0.402400*%
%ADD18R,0.402400X0.852400*%
%ADD19R,1.877400X1.877400*%
%ADD20R,1.352400X0.902400*%
%ADD21R,0.902400X1.352400*%
%ADD22R,1.352400X1.052400*%
%ADD23R,0.502400X0.332400*%
%ADD24R,0.452400X1.652400*%
%ADD25R,2.052400X1.252400*%
%ADD26R,1.202400X0.802400*%
%ADD27R,1.879600X2.184400*%
%ADD28R,1.750000X0.800000*%
%ADD29C,2.550000*%
%ADD30R,1.400000X1.750000*%
G04 APERTURE END LIST*
D10*
D11*
X0Y0D02*
X0Y24130000D01*
X33909000Y0D02*
X0Y0D01*
X33909000Y24130000D02*
X33909000Y0D01*
X0Y24130000D02*
X33909000Y24130000D01*
D12*
X32004000Y19685000D03*
X33909000Y19685000D03*
D13*
X11938000Y5991860D03*
X11938000Y8994140D03*
X10160000Y18392140D03*
X10160000Y15389860D03*
D14*
X10132000Y13777000D03*
X10132000Y12827000D03*
X10132000Y11877000D03*
X6632000Y11877000D03*
X6632000Y12827000D03*
X6632000Y13777000D03*
D15*
X7493000Y15410000D03*
X7493000Y17610000D03*
D16*
X29337000Y19558000D03*
D15*
X1143000Y19515000D03*
X1143000Y17315000D03*
D17*
X23254500Y10923500D03*
X23254500Y11423500D03*
X23254500Y11923500D03*
X23254500Y12423500D03*
X23254500Y12923500D03*
X23254500Y13423500D03*
X23254500Y13923500D03*
X23254500Y14423500D03*
D18*
X22604500Y15073500D03*
X22104500Y15073500D03*
X21604500Y15073500D03*
X21104500Y15073500D03*
X20604500Y15073500D03*
X20104500Y15073500D03*
X19604500Y15073500D03*
X19104500Y15073500D03*
D17*
X18454500Y14423500D03*
X18454500Y13923500D03*
X18454500Y13423500D03*
X18454500Y12923500D03*
X18454500Y12423500D03*
X18454500Y11923500D03*
X18454500Y11423500D03*
X18454500Y10923500D03*
D18*
X19104500Y10273500D03*
X19604500Y10273500D03*
X20104500Y10273500D03*
X20604500Y10273500D03*
X21104500Y10273500D03*
X21604500Y10273500D03*
X22104500Y10273500D03*
X22604500Y10273500D03*
D19*
X19992000Y13536000D03*
X19992000Y11811000D03*
X21717000Y13536000D03*
X21717000Y11811000D03*
D20*
X21778000Y7874000D03*
X19878000Y7874000D03*
D10*
G36*
X6324800Y9034200D02*
X9677200Y9034200D01*
X9677200Y7081800D01*
X6324800Y7081800D01*
X6324800Y9034200D01*
X6324800Y9034200D01*
G37*
G36*
X6324800Y6634200D02*
X9677200Y6634200D01*
X9677200Y4681800D01*
X6324800Y4681800D01*
X6324800Y6634200D01*
X6324800Y6634200D01*
G37*
D20*
X4948000Y16827500D03*
X3048000Y16827500D03*
X28387000Y9906000D03*
X30287000Y9906000D03*
X28387000Y12382500D03*
X30287000Y12382500D03*
X24572000Y16510000D03*
X22672000Y16510000D03*
X21778000Y6350000D03*
X19878000Y6350000D03*
D21*
X23685500Y7998500D03*
X23685500Y6098500D03*
D22*
X9060000Y3835400D03*
X11260000Y3835400D03*
X19728000Y4762500D03*
X21928000Y4762500D03*
D15*
X25273000Y8212000D03*
X25273000Y6012000D03*
D21*
X5334000Y7747000D03*
X5334000Y5847000D03*
X1333500Y6792000D03*
X1333500Y4892000D03*
D22*
X13090800Y3835400D03*
X15290800Y3835400D03*
D23*
X3827000Y6458000D03*
X3827000Y6858000D03*
X3827000Y7258000D03*
X2777000Y7258000D03*
X2777000Y6858000D03*
X2777000Y6458000D03*
D24*
X3302000Y6858000D03*
D16*
X3302000Y4318000D03*
X3302000Y19558000D03*
D25*
X26289000Y9926000D03*
X26289000Y12426000D03*
D26*
X27118000Y4767000D03*
X32318000Y4767000D03*
X32318000Y6917000D03*
X27118000Y6917000D03*
D27*
X32004000Y0D03*
X29464000Y0D03*
X26924000Y0D03*
X24384000Y0D03*
X21844000Y0D03*
X19304000Y0D03*
X16764000Y0D03*
X14224000Y0D03*
X11684000Y0D03*
X9144000Y0D03*
X6604000Y0D03*
X4064000Y0D03*
X1524000Y0D03*
X1524000Y1905000D03*
X4064000Y1905000D03*
X6604000Y1905000D03*
X9144000Y1905000D03*
X11684000Y1905000D03*
X14224000Y1905000D03*
X16764000Y1905000D03*
X19304000Y1905000D03*
X21844000Y1905000D03*
X24384000Y1905000D03*
X26924000Y1905000D03*
X29464000Y1905000D03*
X32004000Y1905000D03*
X1524000Y24130000D03*
X4064000Y24130000D03*
X6604000Y24130000D03*
X9144000Y24130000D03*
X11684000Y24130000D03*
X14224000Y24130000D03*
X16764000Y24130000D03*
X19304000Y24130000D03*
X21844000Y24130000D03*
X24384000Y24130000D03*
X26924000Y24130000D03*
X29464000Y24130000D03*
X32004000Y24130000D03*
X32004000Y22225000D03*
X29464000Y22225000D03*
X26924000Y22225000D03*
X24384000Y22225000D03*
X21844000Y22225000D03*
X19304000Y22225000D03*
X16764000Y22225000D03*
X14224000Y22225000D03*
X11684000Y22225000D03*
X9144000Y22225000D03*
X6604000Y22225000D03*
X4064000Y22225000D03*
X1524000Y22225000D03*
D28*
X4122800Y13365000D03*
X4122800Y12715000D03*
X4122800Y12065000D03*
X4122800Y11415000D03*
X4122800Y10765000D03*
D29*
X1447800Y15290000D03*
X1447800Y8840000D03*
D30*
X3697800Y8865000D03*
X3697800Y15265000D03*
M02*
